<svg width="606" height="539" viewBox="0 0 606 539" fill="none" xmlns="http://www.w3.org/2000/svg">
<path d="M565.382 7.58628C503.6 22.4629 446.798 55.2 381.625 68.5095C275.964 89.9765 156.823 83.6652 78.4467 170.778C19.2622 236.574 -14.1833 332.918 5.80245 420.675C57.8384 648.998 385.768 689.742 562.334 592.733C653.933 542.393 720.352 448.904 766.592 357.519C809.032 273.605 854.134 163.157 790.206 77.998C759.723 37.361 711.808 11.4503 661.704 3.05675C627.357 -2.7608 595.758 0.266041 565.382 7.58628Z" fill="#9AC7FF"/>
<path opacity="0.8" d="M565.382 7.58628C503.6 22.4629 446.798 55.2 381.625 68.5095C275.964 89.9765 156.823 83.6652 78.4467 170.778C19.2622 236.574 -14.1833 332.918 5.80245 420.675C57.8384 648.998 385.768 689.742 562.334 592.733C653.933 542.393 720.352 448.904 766.592 357.519C809.032 273.605 854.134 163.157 790.206 77.998C759.723 37.361 711.808 11.4503 661.704 3.05675C627.357 -2.7608 595.758 0.266041 565.382 7.58628Z" fill="white"/>
</svg>
