<svg width="199" height="83" viewBox="0 0 199 83" fill="none" xmlns="http://www.w3.org/2000/svg">
<path d="M98.5804 19.7873C99.7741 14.1434 103.872 11.647 105.771 11.1043C98.2534 8.00227 94.5807 11.7226 93.6807 14.3076C60.4945 -19.2462 24.2007 14.9819 26.8176 35.4213L22.6381 38.9648L25.3428 42.2293C35.9002 86.6849 82.4482 81.2209 94.6143 59.6922V73.5034C96.0881 76.4448 99.5227 75.2055 99.8977 73.5034V49.0921H154.493L159.777 39.8561C175.028 38.2742 175.896 33.5896 174.515 30.3086C166.67 20.7846 151.579 35.3334 150.495 44.2371H42.0155L37.7766 49.0921H94.5099C68.7102 91.212 33.8969 58.5844 37.1601 44.2371H30.9213V41.3644H56.4827C57.851 39.9965 57.0527 38.3831 56.4827 37.7475H54.1461V23.7545H56.2799C57.2087 22.5401 56.9297 21.4014 56.2799 20.7298H45.2484C44.2141 21.764 44.8173 22.8834 45.2484 23.3138H47.9987V37.7475H30.9213V35.4213H37.1601C36.0607 33.8986 35.8618 31.3286 35.9002 30.2339C46.0737 -1.36357 74.455 1.87889 90.3046 19.7873H98.5804Z" fill="#DB322E"/>
<path d="M51.1882 20.5406C52.979 20.5406 54.4308 19.0889 54.4308 17.298C54.4308 15.5072 52.979 14.0554 51.1882 14.0554C49.3973 14.0554 47.9455 15.5072 47.9455 17.298C47.9455 19.0889 49.3973 20.5406 51.1882 20.5406Z" fill="#DB322E"/>
<path d="M162.251 54.6833V44.376H166.821C167.739 44.376 168.438 44.4696 168.916 44.6571C169.394 44.84 169.776 45.1658 170.062 45.6344C170.348 46.1033 170.491 46.6211 170.491 47.1884C170.491 47.9194 170.254 48.5359 169.781 49.0375C169.307 49.5391 168.576 49.8577 167.587 49.9935C167.948 50.1672 168.222 50.3382 168.41 50.5068C168.808 50.8725 169.185 51.3297 169.542 51.8781L171.335 54.6833H169.619L168.255 52.539C167.856 51.9201 167.529 51.4467 167.271 51.1185C167.013 50.7906 166.781 50.5608 166.575 50.4297C166.373 50.2983 166.167 50.2068 165.956 50.1552C165.801 50.1225 165.548 50.106 165.196 50.106H163.615V54.6833H162.251ZM163.615 48.925H166.546C167.17 48.925 167.657 48.8617 168.009 48.7351C168.36 48.604 168.628 48.3976 168.81 48.1165C168.993 47.8303 169.085 47.521 169.085 47.1884C169.085 46.7009 168.906 46.3001 168.55 45.986C168.199 45.6719 167.641 45.515 166.877 45.515H163.615V48.925Z" fill="#DB322E"/>
<path d="M3.11834 39.9948V42.308C3.11834 42.7592 3.14501 43.0442 3.19832 43.1633C3.25574 43.2782 3.35416 43.3703 3.49363 43.4402C3.63717 43.5098 3.89759 43.5446 4.27495 43.5446V43.7723H0.0361328V43.5446C0.421663 43.5446 0.682104 43.5098 0.81745 43.4402C0.956897 43.3664 1.05328 43.2719 1.1066 43.157C1.16402 43.0424 1.19273 42.7592 1.19273 42.308V36.8942C1.19273 36.443 1.16402 36.1601 1.1066 36.0452C1.05328 35.9264 0.956897 35.8319 0.81745 35.7623C0.678003 35.6927 0.417562 35.6576 0.0361328 35.6576V35.4302H3.67203C4.86965 35.4302 5.72887 35.6432 6.24977 36.0698C6.77064 36.4964 7.03109 37.0297 7.03109 37.6693C7.03109 38.2108 6.86292 38.6743 6.5266 39.0598C6.19029 39.4453 5.72683 39.7077 5.13625 39.8472C4.7384 39.9456 4.06577 39.9948 3.11834 39.9948ZM3.11834 35.9099V39.5151C3.2537 39.5233 3.35623 39.5275 3.42595 39.5275C3.92633 39.5275 4.31185 39.3799 4.58256 39.0844C4.85324 38.785 4.98859 38.3236 4.98859 37.7002C4.98859 37.0807 4.85324 36.6278 4.58256 36.3407C4.31185 36.0536 3.90785 35.9099 3.37057 35.9099H3.11834ZM7.83701 41.8776C8.1241 41.8776 8.3661 41.9781 8.56296 42.1791C8.76392 42.38 8.86441 42.6218 8.86441 42.905C8.86441 43.1879 8.76392 43.43 8.56296 43.6307C8.36199 43.8278 8.11999 43.9262 7.83701 43.9262C7.554 43.9262 7.31203 43.8278 7.11107 43.6307C6.91419 43.43 6.81576 43.1879 6.81576 42.905C6.81576 42.6218 6.91419 42.38 7.11107 42.1791C7.31203 41.9781 7.554 41.8776 7.83701 41.8776ZM17.3605 35.4302V37.6879H17.139C17.0078 37.1671 16.8621 36.7937 16.7022 36.5681C16.5422 36.3386 16.3228 36.1559 16.0439 36.0206C15.8881 35.9468 15.6153 35.9099 15.2257 35.9099H14.6043V42.3449C14.6043 42.7715 14.6269 43.0382 14.672 43.1447C14.7212 43.2515 14.8135 43.3457 14.9488 43.4279C15.0883 43.5056 15.277 43.5446 15.5148 43.5446H15.7917V43.7723H11.4237V43.5446H11.7005C11.9425 43.5446 12.1373 43.5017 12.285 43.4156C12.3916 43.358 12.4757 43.2596 12.5372 43.1201C12.5823 43.0217 12.6049 42.7634 12.6049 42.3449V35.9099H12.002C11.4401 35.9099 11.032 36.029 10.7777 36.2669C10.4209 36.599 10.1953 37.0726 10.101 37.6879H9.86722V35.4302H17.3605ZM18.4556 41.8776C18.7426 41.8776 18.9846 41.9781 19.1815 42.1791C19.3825 42.38 19.483 42.6218 19.483 42.905C19.483 43.1879 19.3825 43.43 19.1815 43.6307C18.9805 43.8278 18.7385 43.9262 18.4556 43.9262C18.1726 43.9262 17.9306 43.8278 17.7296 43.6307C17.5327 43.43 17.4343 43.1879 17.4343 42.905C17.4343 42.6218 17.5327 42.38 17.7296 42.1791C17.9306 41.9781 18.1726 41.8776 18.4556 41.8776Z" fill="#DB322E"/>
<path d="M74.2553 20.9016L74.4245 27.8534H73.7939C73.4966 26.1103 72.7634 24.7107 71.5944 23.6546C70.4358 22.5882 69.1798 22.0551 67.8262 22.0551C66.7805 22.0551 65.9498 22.337 65.3345 22.901C64.7297 23.4547 64.4273 24.0955 64.4273 24.8235C64.4273 25.2849 64.5347 25.6951 64.7501 26.054C65.0474 26.5359 65.5244 27.0127 66.1805 27.4843C66.6626 27.8227 67.7749 28.4225 69.5182 29.2838C71.9586 30.4834 73.604 31.6164 74.4551 32.6829C75.2959 33.7494 75.7162 34.9694 75.7162 36.3434C75.7162 38.0866 75.0343 39.5886 73.6709 40.8498C72.3174 42.1007 70.5948 42.7262 68.503 42.7262C67.8469 42.7262 67.2265 42.6596 66.6419 42.5261C66.0575 42.3929 65.3243 42.1418 64.4426 41.7725C63.9504 41.5676 63.5454 41.4651 63.2277 41.4651C62.961 41.4651 62.679 41.5676 62.3817 41.7725C62.0844 41.9777 61.8433 42.2903 61.6588 42.7109H61.0897V34.8362H61.6588C62.1099 37.0507 62.9763 38.7427 64.2582 39.9117C65.5499 41.0703 66.9395 41.6496 68.4262 41.6496C69.5746 41.6496 70.4871 41.3367 71.1639 40.7115C71.8509 40.086 72.1944 39.3579 72.1944 38.5273C72.1944 38.0353 72.0609 37.5583 71.7945 37.0969C71.538 36.6355 71.1432 36.1997 70.6101 35.7896C70.077 35.3693 69.1336 34.8257 67.78 34.1594C65.8832 33.2262 64.5194 32.4315 63.6891 31.7754C62.8584 31.1191 62.2176 30.3862 61.7665 29.576C61.3255 28.766 61.105 27.874 61.105 26.8999C61.105 25.2388 61.7152 23.8238 62.9352 22.6549C64.1556 21.486 65.6936 20.9016 67.5493 20.9016C68.2261 20.9016 68.8825 20.9836 69.5182 21.1476C69.9999 21.2707 70.5843 21.5014 71.2716 21.8397C71.9688 22.1679 72.4557 22.3319 72.7325 22.3319C72.9992 22.3319 73.2092 22.2499 73.3631 22.0858C73.517 21.9218 73.6604 21.527 73.7939 20.9016H74.2553ZM96.8642 21.3783V27.0229H96.3104C95.9826 25.7207 95.6184 24.7876 95.2185 24.2237C94.8186 23.6495 94.2702 23.1932 93.5727 22.8548C93.1834 22.6703 92.5015 22.578 91.5274 22.578H89.9738V38.6659C89.9738 39.732 90.0302 40.3986 90.143 40.6653C90.266 40.9317 90.4967 41.1678 90.835 41.3727C91.1836 41.5677 91.6555 41.6648 92.2501 41.6648H92.9422V42.2339H82.0223V41.6648H82.7144C83.3194 41.6648 83.8063 41.5572 84.1756 41.3421C84.442 41.1984 84.6523 40.9524 84.8062 40.6038C84.919 40.3575 84.9754 39.7116 84.9754 38.6659V22.578H83.4679C82.0634 22.578 81.0431 22.8754 80.4074 23.4701C79.5153 24.3006 78.9513 25.4849 78.7155 27.0229H78.1311V21.3783H96.8642ZM106.584 22.578V31.0681H107C108.323 31.0681 109.281 30.6526 109.876 29.8221C110.471 28.9916 110.85 27.7663 111.014 26.1462H111.598V37.0663H111.014C110.891 35.8769 110.629 34.9028 110.23 34.1438C109.84 33.3852 109.384 32.8776 108.861 32.6214C108.338 32.3547 107.579 32.2215 106.584 32.2215V38.0968C106.584 39.2451 106.631 39.9474 106.723 40.2039C106.826 40.4601 107.01 40.6704 107.277 40.8345C107.543 40.9986 107.974 41.0805 108.569 41.0805H109.814C111.763 41.0805 113.321 40.6293 114.49 39.7269C115.669 38.8246 116.515 37.4506 117.028 35.6051H117.597L116.659 42.2339H98.6329V41.6648H99.325C99.9301 41.6648 100.417 41.5572 100.786 41.3421C101.053 41.1984 101.258 40.9524 101.402 40.6038C101.514 40.3575 101.571 39.7116 101.571 38.6659V24.9465C101.571 24.0032 101.545 23.4239 101.494 23.2086C101.391 22.8497 101.201 22.5729 100.925 22.378C100.535 22.091 100.002 21.9474 99.325 21.9474H98.6329V21.3783H116.09V27.5458H115.505C115.208 26.0386 114.787 24.9568 114.244 24.3006C113.711 23.6444 112.952 23.1625 111.968 22.8548C111.394 22.6703 110.317 22.578 108.738 22.578H106.584ZM132.316 30.0067L138.068 38.5429C139.022 39.9576 139.698 40.8189 140.098 41.1267C140.508 41.424 140.99 41.6034 141.544 41.6648V42.2339H131.378V41.6648C132.188 41.6034 132.71 41.4804 132.946 41.2959C133.182 41.1114 133.3 40.8858 133.3 40.6191C133.3 40.4346 133.264 40.2705 133.193 40.1268C133.049 39.8193 132.69 39.2451 132.116 38.4043L129.07 33.8978L125.887 37.789C124.933 38.9683 124.457 39.768 124.457 40.1883C124.457 40.4859 124.58 40.7625 124.826 41.019C125.072 41.2752 125.436 41.46 125.918 41.5728C126.133 41.6343 126.574 41.6648 127.24 41.6648V42.2339H119.227V41.6648C120.14 41.5317 120.858 41.2857 121.38 40.9266C122.067 40.455 123.026 39.4707 124.256 37.9738L128.394 32.9289L123.088 25.1311C122.216 23.8494 121.719 23.1368 121.596 22.9933C121.319 22.6549 121.047 22.4139 120.781 22.2704C120.514 22.1268 120.145 22.0192 119.673 21.9474V21.3783H130.024V21.9474H129.501C128.907 21.9474 128.491 22.0448 128.255 22.2396C128.02 22.4242 127.902 22.66 127.902 22.9471C127.902 23.1727 127.938 23.3675 128.009 23.5316L129.07 25.1311L131.654 29.0685L133.854 26.3769C134.982 24.9927 135.546 24.0238 135.546 23.4701C135.546 23.1932 135.463 22.9369 135.3 22.701C135.146 22.4652 134.92 22.2806 134.623 22.1474C134.326 22.0141 133.864 21.9474 133.238 21.9474V21.3783H140.913V21.9474C140.308 21.9577 139.821 22.0346 139.452 22.1781C139.083 22.3114 138.688 22.5678 138.268 22.9471C138.001 23.1932 137.335 23.9571 136.269 25.2388L132.316 30.0067Z" fill="#DB322E"/>
<path fill-rule="evenodd" clip-rule="evenodd" d="M166.321 59.2293C171.565 59.2293 175.817 54.9779 175.817 49.7335C175.817 44.4891 171.565 40.2376 166.321 40.2376C161.076 40.2376 156.825 44.4891 156.825 49.7335C156.825 54.9779 161.076 59.2293 166.321 59.2293ZM166.321 57.0817C170.38 57.0817 173.669 53.7917 173.669 49.7335C173.669 45.6752 170.38 42.3853 166.321 42.3853C162.263 42.3853 158.973 45.6752 158.973 49.7335C158.973 53.7917 162.263 57.0817 166.321 57.0817Z" fill="white"/>
<path fill-rule="evenodd" clip-rule="evenodd" d="M166.321 59.2293C171.565 59.2293 175.817 54.9779 175.817 49.7335C175.817 44.4891 171.565 40.2376 166.321 40.2376C161.076 40.2376 156.825 44.4891 156.825 49.7335C156.825 54.9779 161.076 59.2293 166.321 59.2293ZM166.321 57.0817C170.38 57.0817 173.669 53.7917 173.669 49.7335C173.669 45.6752 170.38 42.3853 166.321 42.3853C162.263 42.3853 158.973 45.6752 158.973 49.7335C158.973 53.7917 162.263 57.0817 166.321 57.0817Z" fill="#DB322E"/>
<path d="M175.517 49.7335C175.517 54.8123 171.4 58.9293 166.321 58.9293V59.5293C171.731 59.5293 176.117 55.1435 176.117 49.7335H175.517ZM166.321 40.5376C171.4 40.5376 175.517 44.6547 175.517 49.7335H176.117C176.117 44.3235 171.731 39.9377 166.321 39.9377V40.5376ZM157.125 49.7335C157.125 44.6547 161.242 40.5376 166.321 40.5376V39.9377C160.911 39.9377 156.525 44.3235 156.525 49.7335H157.125ZM166.321 58.9293C161.242 58.9293 157.125 54.8123 157.125 49.7335H156.525C156.525 55.1435 160.911 59.5293 166.321 59.5293V58.9293ZM173.369 49.7335C173.369 53.6261 170.214 56.7817 166.321 56.7817V57.3817C170.545 57.3817 173.969 53.9576 173.969 49.7335H173.369ZM166.321 42.6852C170.214 42.6852 173.369 45.8408 173.369 49.7335H173.969C173.969 45.5096 170.545 42.0853 166.321 42.0853V42.6852ZM159.273 49.7335C159.273 45.8408 162.429 42.6852 166.321 42.6852V42.0853C162.097 42.0853 158.673 45.5096 158.673 49.7335H159.273ZM166.321 56.7817C162.429 56.7817 159.273 53.6261 159.273 49.7335H158.673C158.673 53.9576 162.097 57.3817 166.321 57.3817V56.7817Z" fill="#DB322E"/>
<path d="M113.042 63.0531V65.5737H112.847C112.611 64.8847 112.258 64.3609 111.787 64.0023C111.316 63.6437 110.801 63.4644 110.242 63.4644C109.707 63.4644 109.263 63.6156 108.908 63.9179C108.552 64.2168 108.301 64.6351 108.153 65.173C108.006 65.7108 107.932 66.2628 107.932 66.8288C107.932 67.5143 108.013 68.1154 108.175 68.6322C108.336 69.149 108.596 69.5287 108.955 69.7712C109.317 70.0138 109.746 70.1351 110.242 70.1351C110.414 70.1351 110.59 70.1175 110.769 70.0823C110.952 70.0437 111.138 69.9892 111.328 69.9189V68.4318C111.328 68.1506 111.309 67.9695 111.27 67.8887C111.231 67.8043 111.15 67.7287 111.027 67.6619C110.908 67.5951 110.762 67.5617 110.59 67.5617H110.405V67.3666H113.88V67.5617C113.617 67.5793 113.432 67.6162 113.326 67.6725C113.225 67.7252 113.145 67.8149 113.089 67.9414C113.058 68.0082 113.042 68.1717 113.042 68.4318V69.9189C112.585 70.1228 112.108 70.2757 111.613 70.3777C111.121 70.4831 110.609 70.5358 110.078 70.5358C109.4 70.5358 108.835 70.4444 108.385 70.2616C107.939 70.0753 107.543 69.8327 107.199 69.5339C106.858 69.2316 106.591 68.8924 106.397 68.5162C106.151 68.0311 106.028 67.4879 106.028 66.8868C106.028 65.811 106.406 64.9023 107.162 64.1605C107.918 63.4187 108.869 63.0479 110.015 63.0479C110.37 63.0479 110.69 63.076 110.975 63.1322C111.129 63.1603 111.379 63.2412 111.723 63.3748C112.071 63.5049 112.277 63.5699 112.34 63.5699C112.439 63.5699 112.53 63.5347 112.615 63.4644C112.699 63.3906 112.776 63.2535 112.847 63.0531H113.042Z" fill="#DB322E"/>
<path d="M118.167 63.1164C119.306 63.0742 120.231 63.4064 120.941 64.113C121.655 64.8197 122.012 65.7038 122.012 66.7655C122.012 67.6725 121.746 68.4705 121.215 69.1595C120.512 70.0736 119.519 70.5306 118.236 70.5306C116.949 70.5306 115.954 70.0947 115.251 69.2228C114.696 68.5338 114.418 67.7164 114.418 66.7708C114.418 65.7091 114.778 64.8249 115.499 64.1183C116.223 63.4082 117.113 63.0742 118.167 63.1164ZM118.231 63.4539C117.577 63.4539 117.079 63.7879 116.738 64.4558C116.461 65.0042 116.322 65.7917 116.322 66.8182C116.322 68.0381 116.536 68.9398 116.965 69.5234C117.264 69.9312 117.682 70.1351 118.22 70.1351C118.582 70.1351 118.884 70.0472 119.127 69.8714C119.436 69.6464 119.677 69.2878 119.849 68.7957C120.022 68.3 120.108 67.6549 120.108 66.8604C120.108 65.9147 120.02 65.2081 119.844 64.7406C119.668 64.2695 119.443 63.9373 119.169 63.7439C118.899 63.5506 118.586 63.4539 118.231 63.4539Z" fill="#DB322E"/>
<path d="M129.22 67.857L128.951 70.3671H122.602V70.172H122.839C123.047 70.172 123.214 70.1351 123.34 70.0613C123.432 70.012 123.502 69.9277 123.551 69.8081C123.59 69.7238 123.609 69.5023 123.609 69.1437V64.44C123.609 64.0744 123.59 63.8459 123.551 63.7545C123.513 63.6631 123.434 63.584 123.314 63.5172C123.198 63.4469 123.04 63.4117 122.839 63.4117H122.602V63.2166H126.415V63.4117H126.104C125.896 63.4117 125.729 63.4486 125.603 63.5224C125.511 63.5717 125.439 63.656 125.386 63.7756C125.348 63.8599 125.328 64.0814 125.328 64.44V68.9961C125.328 69.3617 125.349 69.5955 125.392 69.6974C125.434 69.7958 125.516 69.8697 125.639 69.9189C125.727 69.9505 125.94 69.9663 126.278 69.9663H126.873C127.253 69.9663 127.569 69.8995 127.823 69.766C128.076 69.6324 128.294 69.4214 128.476 69.1332C128.663 68.8449 128.839 68.4195 129.004 67.857H129.22Z" fill="#DB322E"/>
<path d="M129.747 70.3671V70.172H129.985C130.192 70.172 130.35 70.1404 130.459 70.0771C130.572 70.0103 130.654 69.9206 130.707 69.8081C130.739 69.7343 130.755 69.5128 130.755 69.1437V64.44C130.755 64.0744 130.735 63.8459 130.697 63.7545C130.658 63.6631 130.579 63.584 130.459 63.5172C130.343 63.4469 130.185 63.4117 129.985 63.4117H129.747V63.2166H132.948C133.802 63.2166 134.49 63.3326 135.01 63.5646C135.646 63.8494 136.128 64.28 136.455 64.8566C136.785 65.4331 136.951 66.0852 136.951 66.8129C136.951 67.3157 136.87 67.7797 136.708 68.2051C136.546 68.6269 136.337 68.9767 136.081 69.2545C135.824 69.5287 135.527 69.7501 135.189 69.9189C134.855 70.0841 134.446 70.2124 133.961 70.3038C133.746 70.346 133.409 70.3671 132.948 70.3671H129.747ZM132.474 63.6226V69.2017C132.474 69.497 132.488 69.6781 132.516 69.7449C132.544 69.8117 132.591 69.8626 132.658 69.8978C132.753 69.9505 132.89 69.9769 133.069 69.9769C133.657 69.9769 134.105 69.7765 134.414 69.3757C134.836 68.8344 135.047 67.9941 135.047 66.8551C135.047 65.9376 134.903 65.2046 134.615 64.6562C134.386 64.2273 134.092 63.9355 133.734 63.7808C133.481 63.6719 133.061 63.6191 132.474 63.6226Z" fill="#DB322E"/>
<path d="M140.352 63.6279V66.5387H140.494C140.948 66.5387 141.276 66.3964 141.48 66.1116C141.684 65.8268 141.814 65.4067 141.871 64.8513H142.071V68.5953H141.871C141.828 68.1875 141.739 67.8535 141.602 67.5934C141.468 67.3332 141.312 67.1592 141.132 67.0713C140.953 66.9799 140.693 66.9342 140.352 66.9342V68.9486C140.352 69.3423 140.368 69.5831 140.399 69.671C140.434 69.7589 140.498 69.831 140.589 69.8872C140.681 69.9435 140.828 69.9716 141.032 69.9716H141.459C142.127 69.9716 142.662 69.8169 143.062 69.5076C143.467 69.1982 143.757 68.7271 143.932 68.0943H144.127L143.806 70.3671H137.626V70.172H137.863C138.07 70.172 138.237 70.1351 138.364 70.0613C138.455 70.012 138.526 69.9277 138.575 69.8081C138.613 69.7238 138.633 69.5023 138.633 69.1437V64.44C138.633 64.1166 138.624 63.9179 138.606 63.8441C138.571 63.7211 138.506 63.6261 138.411 63.5594C138.278 63.4609 138.095 63.4117 137.863 63.4117H137.626V63.2166H143.611V65.3312H143.41C143.308 64.8144 143.164 64.4435 142.978 64.2185C142.795 63.9935 142.535 63.8283 142.197 63.7228C142.001 63.6595 141.631 63.6279 141.09 63.6279H140.352Z" fill="#DB322E"/>
<path d="M147.302 63.2166L150.83 67.6514V64.5771C150.83 64.1482 150.768 63.8582 150.645 63.707C150.476 63.5031 150.193 63.4047 149.796 63.4117V63.2166H152.159V63.4117C151.856 63.4504 151.652 63.5013 151.547 63.5646C151.445 63.6244 151.364 63.7246 151.304 63.8652C151.248 64.0023 151.22 64.2396 151.22 64.5771V70.5306H151.041L146.205 64.5771V69.1226C146.205 69.5339 146.298 69.8117 146.485 69.9558C146.674 70.0999 146.891 70.172 147.133 70.172H147.302V70.3671H144.766V70.172C145.159 70.1685 145.433 70.0876 145.588 69.9294C145.743 69.7712 145.82 69.5023 145.82 69.1226V64.0761L145.667 63.8863C145.516 63.6965 145.382 63.5717 145.266 63.5119C145.15 63.4521 144.983 63.4187 144.766 63.4117V63.2166H147.302Z" fill="#DB322E"/>
<path d="M159.072 70.172V70.3671H155.333V70.172H155.57C155.778 70.172 155.945 70.1351 156.071 70.0613C156.163 70.012 156.233 69.9277 156.282 69.8081C156.321 69.7238 156.34 69.5023 156.34 69.1437V64.44C156.34 64.0744 156.321 63.8459 156.282 63.7545C156.244 63.6631 156.165 63.584 156.045 63.5172C155.929 63.4469 155.771 63.4117 155.57 63.4117H155.333V63.2166H159.072V63.4117H158.835C158.627 63.4117 158.46 63.4486 158.334 63.5224C158.242 63.5717 158.17 63.656 158.117 63.7756C158.079 63.8599 158.059 64.0814 158.059 64.44V69.1437C158.059 69.5093 158.079 69.7378 158.117 69.8292C158.16 69.9206 158.239 70.0015 158.355 70.0718C158.474 70.1386 158.634 70.172 158.835 70.172H159.072Z" fill="#DB322E"/>
<path d="M164.398 63.0531L164.456 65.4366H164.24C164.138 64.839 163.886 64.3591 163.486 63.997C163.088 63.6314 162.658 63.4486 162.194 63.4486C161.835 63.4486 161.55 63.5453 161.339 63.7386C161.132 63.9285 161.028 64.1482 161.028 64.3978C161.028 64.556 161.065 64.6966 161.139 64.8197C161.241 64.9849 161.404 65.1484 161.629 65.3101C161.795 65.4261 162.176 65.6317 162.774 65.927C163.61 66.3384 164.175 66.7268 164.466 67.0924C164.755 67.458 164.899 67.8764 164.899 68.3475C164.899 68.9451 164.665 69.4601 164.197 69.8925C163.733 70.3214 163.143 70.5358 162.426 70.5358C162.201 70.5358 161.988 70.513 161.788 70.4673C161.587 70.4216 161.336 70.3355 161.033 70.2089C160.865 70.1386 160.726 70.1034 160.617 70.1034C160.525 70.1034 160.429 70.1386 160.327 70.2089C160.225 70.2792 160.142 70.3864 160.079 70.5306H159.884V67.8307H160.079C160.234 68.59 160.531 69.1701 160.97 69.5708C161.413 69.9681 161.889 70.1667 162.399 70.1667C162.793 70.1667 163.106 70.0595 163.338 69.8451C163.573 69.6306 163.691 69.381 163.691 69.0963C163.691 68.9275 163.645 68.764 163.554 68.6058C163.466 68.4476 163.331 68.2982 163.148 68.1576C162.965 68.0135 162.642 67.8272 162.178 67.5987C161.527 67.2787 161.06 67.0063 160.775 66.7813C160.49 66.5563 160.271 66.305 160.116 66.0272C159.965 65.7495 159.889 65.4437 159.889 65.1097C159.889 64.5402 160.098 64.055 160.517 63.6543C160.935 63.2535 161.462 63.0531 162.099 63.0531C162.331 63.0531 162.556 63.0812 162.774 63.1375C162.939 63.1797 163.139 63.2588 163.375 63.3748C163.614 63.4873 163.781 63.5435 163.876 63.5435C163.967 63.5435 164.039 63.5154 164.092 63.4592C164.145 63.4029 164.194 63.2676 164.24 63.0531H164.398Z" fill="#DB322E"/>
<path d="M172.155 67.857L171.886 70.3671H165.537V70.172H165.774C165.982 70.172 166.149 70.1351 166.275 70.0613C166.366 70.012 166.437 69.9277 166.486 69.8081C166.525 69.7238 166.544 69.5023 166.544 69.1437V64.44C166.544 64.0744 166.525 63.8459 166.486 63.7545C166.447 63.6631 166.368 63.584 166.249 63.5172C166.133 63.4469 165.974 63.4117 165.774 63.4117H165.537V63.2166H169.349V63.4117H169.038C168.831 63.4117 168.664 63.4486 168.537 63.5224C168.446 63.5717 168.374 63.656 168.321 63.7756C168.282 63.8599 168.263 64.0814 168.263 64.44V68.9961C168.263 69.3617 168.284 69.5955 168.326 69.6974C168.369 69.7958 168.451 69.8697 168.574 69.9189C168.662 69.9505 168.875 69.9663 169.212 69.9663H169.808C170.188 69.9663 170.504 69.8995 170.757 69.766C171.01 69.6324 171.228 69.4214 171.411 69.1332C171.598 68.8449 171.773 68.4195 171.939 67.857H172.155Z" fill="#DB322E"/>
<path d="M177.032 68.3316H174.507L174.206 69.0277C174.108 69.2597 174.058 69.4513 174.058 69.6025C174.058 69.8029 174.139 69.9505 174.301 70.0454C174.396 70.1017 174.63 70.1439 175.002 70.172V70.3671H172.624V70.172C172.881 70.1333 173.092 70.0279 173.257 69.8556C173.422 69.6798 173.626 69.3195 173.869 68.7746L176.426 63.0689H176.526L179.105 68.9328C179.351 69.4882 179.553 69.838 179.711 69.9822C179.831 70.0911 180 70.1544 180.217 70.172V70.3671H176.758V70.172H176.901C177.178 70.172 177.373 70.1333 177.486 70.056C177.563 69.9997 177.602 69.9189 177.602 69.8134C177.602 69.7501 177.591 69.6851 177.57 69.6183C177.563 69.5867 177.511 69.4548 177.412 69.2228L177.032 68.3316ZM176.853 67.9414L175.788 65.4788L174.691 67.9414H176.853Z" fill="#DB322E"/>
<path d="M183.033 63.2166L186.561 67.6514V64.5771C186.561 64.1482 186.5 63.8582 186.377 63.707C186.208 63.5031 185.925 63.4047 185.528 63.4117V63.2166H187.89V63.4117C187.588 63.4504 187.384 63.5013 187.278 63.5646C187.176 63.6244 187.096 63.7246 187.036 63.8652C186.98 64.0023 186.951 64.2396 186.951 64.5771V70.5306H186.772L181.937 64.5771V69.1226C181.937 69.5339 182.03 69.8117 182.216 69.9558C182.406 70.0999 182.622 70.172 182.865 70.172H183.033V70.3671H180.497V70.172C180.891 70.1685 181.165 70.0876 181.32 69.9294C181.474 69.7712 181.552 69.5023 181.552 69.1226V64.0761L181.399 63.8863C181.248 63.6965 181.114 63.5717 180.998 63.5119C180.882 63.4521 180.715 63.4187 180.497 63.4117V63.2166H183.033Z" fill="#DB322E"/>
<path d="M188.291 70.3671V70.172H188.528C188.736 70.172 188.894 70.1404 189.003 70.0771C189.115 70.0103 189.198 69.9206 189.251 69.8081C189.282 69.7343 189.298 69.5128 189.298 69.1437V64.44C189.298 64.0744 189.279 63.8459 189.24 63.7545C189.201 63.6631 189.122 63.584 189.003 63.5172C188.887 63.4469 188.729 63.4117 188.528 63.4117H188.291V63.2166H191.492C192.346 63.2166 193.033 63.3326 193.554 63.5646C194.19 63.8494 194.671 64.28 194.998 64.8566C195.329 65.4331 195.494 66.0852 195.494 66.8129C195.494 67.3157 195.413 67.7797 195.252 68.2051C195.09 68.6269 194.881 68.9767 194.624 69.2545C194.367 69.5287 194.07 69.7501 193.733 69.9189C193.399 70.0841 192.989 70.2124 192.504 70.3038C192.29 70.346 191.952 70.3671 191.492 70.3671H188.291ZM191.017 63.6226V69.2017C191.017 69.497 191.031 69.6781 191.059 69.7449C191.087 69.8117 191.135 69.8626 191.202 69.8978C191.297 69.9505 191.434 69.9769 191.613 69.9769C192.2 69.9769 192.648 69.7765 192.958 69.3757C193.38 68.8344 193.59 67.9941 193.59 66.8551C193.59 65.9376 193.446 65.2046 193.158 64.6562C192.93 64.2273 192.636 63.9355 192.277 63.7808C192.024 63.6719 191.604 63.6191 191.017 63.6226Z" fill="#DB322E"/>
<path d="M154.985 75.6275V78.5646H155.191C155.507 78.5646 155.765 78.5172 155.966 78.4223C156.166 78.3273 156.335 78.1674 156.472 77.9424C156.613 77.7174 156.704 77.4133 156.746 77.0301H156.931V80.6212H156.746C156.68 79.9427 156.497 79.4963 156.198 79.2818C155.903 79.0638 155.567 78.9549 155.191 78.9549H154.985V81.1433C154.985 81.5089 155.004 81.7374 155.043 81.8288C155.085 81.9202 155.164 82.001 155.28 82.0713C155.4 82.1381 155.56 82.1715 155.76 82.1715H155.998V82.3666H152.259V82.1715H152.496C152.704 82.1715 152.87 82.1346 152.997 82.0608C153.088 82.0116 153.159 81.9272 153.208 81.8077C153.247 81.7233 153.266 81.5018 153.266 81.1433V76.4395C153.266 76.0739 153.247 75.8454 153.208 75.754C153.169 75.6626 153.09 75.5835 152.971 75.5167C152.855 75.4464 152.696 75.4112 152.496 75.4112H152.259V75.2161H158.291V77.2674H158.075C158.026 76.7858 157.899 76.429 157.696 76.197C157.495 75.9649 157.203 75.8015 156.82 75.7065C156.609 75.6538 156.219 75.6275 155.649 75.6275H154.985Z" fill="#DB322E"/>
<path d="M162.31 80.3312H159.784L159.483 81.0272C159.385 81.2593 159.335 81.4509 159.335 81.602C159.335 81.8024 159.416 81.9501 159.578 82.045C159.673 82.1012 159.907 82.1434 160.279 82.1715V82.3666H157.901V82.1715C158.158 82.1329 158.369 82.0274 158.534 81.8551C158.699 81.6794 158.903 81.319 159.146 80.7741L161.703 75.0685H161.803L164.382 80.9323C164.628 81.4878 164.83 81.8376 164.988 81.9817C165.108 82.0907 165.277 82.154 165.495 82.1715V82.3666H162.035V82.1715H162.178C162.455 82.1715 162.651 82.1329 162.763 82.0555C162.84 81.9993 162.879 81.9184 162.879 81.813C162.879 81.7497 162.869 81.6846 162.847 81.6178C162.84 81.5862 162.788 81.4544 162.689 81.2224L162.31 80.3312ZM162.13 79.941L161.065 77.4784L159.968 79.941H162.13Z" fill="#DB322E"/>
<path d="M170.425 78.5752C171.104 78.7334 171.58 78.925 171.854 79.15C172.248 79.4699 172.445 79.8847 172.445 80.3945C172.445 80.9323 172.229 81.377 171.796 81.7286C171.265 82.154 170.494 82.3666 169.481 82.3666H165.848V82.1715C166.178 82.1715 166.402 82.1417 166.518 82.0819C166.637 82.0186 166.72 81.9378 166.765 81.8393C166.815 81.7409 166.839 81.4983 166.839 81.1116V76.4712C166.839 76.0845 166.815 75.8419 166.765 75.7435C166.72 75.6415 166.637 75.5607 166.518 75.5009C166.398 75.4411 166.175 75.4112 165.848 75.4112V75.2161H169.276C170.095 75.2161 170.675 75.29 171.016 75.4376C171.357 75.5817 171.626 75.7997 171.823 76.0915C172.019 76.3798 172.118 76.6874 172.118 77.0143C172.118 77.3588 171.993 77.6664 171.743 77.9371C171.494 78.2043 171.054 78.417 170.425 78.5752ZM168.506 78.4328C169.005 78.4328 169.372 78.3766 169.608 78.2641C169.847 78.1516 170.03 77.9934 170.156 77.7895C170.283 77.5856 170.346 77.3254 170.346 77.009C170.346 76.6926 170.283 76.4343 170.156 76.2339C170.033 76.03 169.856 75.8753 169.624 75.7698C169.392 75.6644 169.019 75.6134 168.506 75.6169V78.4328ZM168.506 78.8441V81.138L168.5 81.4016C168.5 81.5915 168.548 81.7356 168.643 81.8341C168.741 81.929 168.885 81.9764 169.075 81.9764C169.356 81.9764 169.615 81.9149 169.85 81.7919C170.089 81.6653 170.272 81.4843 170.399 81.2487C170.525 81.0097 170.589 80.7442 170.589 80.4525C170.589 80.1185 170.511 79.8197 170.357 79.556C170.202 79.2888 169.989 79.1025 169.718 78.9971C169.448 78.8916 169.044 78.8406 168.506 78.8441Z" fill="#DB322E"/>
<path d="M175.693 79.1078V81.1116C175.693 81.4983 175.716 81.7426 175.762 81.8446C175.811 81.943 175.895 82.0221 176.015 82.0819C176.134 82.1417 176.357 82.1715 176.684 82.1715V82.3666H173.025V82.1715C173.355 82.1715 173.578 82.1417 173.695 82.0819C173.814 82.0186 173.897 81.9378 173.942 81.8393C173.992 81.7409 174.016 81.4983 174.016 81.1116V76.4712C174.016 76.0845 173.992 75.8419 173.942 75.7435C173.897 75.6415 173.814 75.5607 173.695 75.5009C173.575 75.4411 173.352 75.4112 173.025 75.4112V75.2161H176.347C177.212 75.2161 177.845 75.2759 178.245 75.3954C178.646 75.515 178.973 75.7364 179.226 76.0599C179.479 76.3798 179.606 76.7559 179.606 77.1883C179.606 77.7157 179.416 78.1516 179.036 78.4961C178.794 78.7141 178.454 78.8775 178.019 78.9865L179.738 81.4069C179.963 81.7198 180.123 81.9149 180.217 81.9922C180.362 82.1012 180.529 82.161 180.718 82.1715V82.3666H178.467L176.162 79.1078H175.693ZM175.693 75.6011V78.7334H175.994C176.482 78.7334 176.848 78.6894 177.09 78.6016C177.333 78.5102 177.523 78.3484 177.66 78.1164C177.801 77.8809 177.871 77.575 177.871 77.1989C177.871 76.654 177.743 76.2515 177.486 75.9913C177.233 75.7312 176.823 75.6011 176.257 75.6011H175.693Z" fill="#DB322E"/>
<path d="M184.584 82.1715V82.3666H180.845V82.1715H181.082C181.29 82.1715 181.457 82.1346 181.583 82.0608C181.675 82.0116 181.745 81.9272 181.794 81.8077C181.833 81.7233 181.852 81.5018 181.852 81.1433V76.4395C181.852 76.0739 181.833 75.8454 181.794 75.754C181.756 75.6626 181.676 75.5835 181.557 75.5167C181.441 75.4464 181.283 75.4112 181.082 75.4112H180.845V75.2161H184.584V75.4112H184.346C184.139 75.4112 183.972 75.4482 183.845 75.522C183.754 75.5712 183.682 75.6556 183.629 75.7751C183.591 75.8595 183.571 76.0809 183.571 76.4395V81.1433C183.571 81.5089 183.591 81.7374 183.629 81.8288C183.671 81.9202 183.751 82.001 183.867 82.0713C183.986 82.1381 184.146 82.1715 184.346 82.1715H184.584Z" fill="#DB322E"/>
<path d="M192.045 75.0527V77.5311H191.84C191.685 76.8842 191.397 76.3886 190.975 76.044C190.553 75.6995 190.075 75.5273 189.541 75.5273C189.094 75.5273 188.685 75.6556 188.312 75.9122C187.939 76.1688 187.667 76.5046 187.495 76.9194C187.273 77.4502 187.162 78.0408 187.162 78.6912C187.162 79.331 187.243 79.9146 187.405 80.4419C187.567 80.9657 187.82 81.363 188.164 81.6337C188.509 81.9008 188.955 82.0344 189.504 82.0344C189.954 82.0344 190.365 81.936 190.738 81.7391C191.114 81.5423 191.509 81.203 191.924 80.7214V81.3384C191.523 81.7567 191.105 82.0608 190.669 82.2506C190.237 82.437 189.73 82.5301 189.15 82.5301C188.388 82.5301 187.709 82.3772 187.115 82.0713C186.524 81.7655 186.067 81.3261 185.744 80.753C185.424 80.18 185.264 79.5701 185.264 78.9232C185.264 78.2412 185.442 77.5944 185.797 76.9827C186.155 76.371 186.637 75.8964 187.241 75.5589C187.85 75.2214 188.495 75.0527 189.177 75.0527C189.679 75.0527 190.21 75.1616 190.769 75.3796C191.093 75.5062 191.298 75.5694 191.386 75.5694C191.499 75.5694 191.595 75.529 191.676 75.4482C191.761 75.3638 191.815 75.232 191.84 75.0527H192.045Z" fill="#DB322E"/>
<path d="M197.714 75.0527L197.772 77.4362H197.556C197.454 76.8385 197.203 76.3587 196.802 75.9966C196.405 75.631 195.974 75.4482 195.51 75.4482C195.151 75.4482 194.867 75.5448 194.656 75.7382C194.448 75.928 194.345 76.1477 194.345 76.3973C194.345 76.5555 194.381 76.6962 194.455 76.8192C194.557 76.9844 194.721 77.1479 194.946 77.3096C195.111 77.4256 195.492 77.6313 196.09 77.9266C196.927 78.3379 197.491 78.7264 197.783 79.092C198.071 79.4576 198.215 79.8759 198.215 80.347C198.215 80.9446 197.981 81.4597 197.514 81.8921C197.05 82.3209 196.459 82.5354 195.742 82.5354C195.517 82.5354 195.304 82.5125 195.104 82.4668C194.903 82.4211 194.652 82.335 194.35 82.2085C194.181 82.1381 194.042 82.103 193.933 82.103C193.842 82.103 193.745 82.1381 193.643 82.2085C193.541 82.2788 193.459 82.386 193.395 82.5301H193.2V79.8302H193.395C193.55 80.5896 193.847 81.1696 194.286 81.5704C194.729 81.9676 195.206 82.1663 195.716 82.1663C196.109 82.1663 196.422 82.059 196.654 81.8446C196.89 81.6302 197.007 81.3806 197.007 81.0958C197.007 80.9271 196.962 80.7636 196.87 80.6054C196.782 80.4472 196.647 80.2978 196.464 80.1572C196.282 80.013 195.958 79.8267 195.494 79.5982C194.844 79.2783 194.376 79.0058 194.091 78.7808C193.807 78.5559 193.587 78.3045 193.432 78.0268C193.281 77.7491 193.205 77.4432 193.205 77.1092C193.205 76.5397 193.415 76.0546 193.833 75.6538C194.251 75.2531 194.779 75.0527 195.415 75.0527C195.647 75.0527 195.872 75.0808 196.09 75.137C196.255 75.1792 196.456 75.2583 196.691 75.3743C196.93 75.4868 197.097 75.5431 197.192 75.5431C197.283 75.5431 197.356 75.515 197.408 75.4587C197.461 75.4025 197.51 75.2671 197.556 75.0527H197.714Z" fill="#DB322E"/>
</svg>
