<svg width="401" height="355" viewBox="0 0 401 355" fill="none" xmlns="http://www.w3.org/2000/svg">
<path d="M392.115 326.52H360.632V326.757H392.115V326.52Z" fill="#EBEBEB"/>
<path d="M279.301 329.105H271.04V329.343H279.301V329.105Z" fill="#EBEBEB"/>
<path d="M359.682 317.699H341.44V317.937H359.682V317.699Z" fill="#EBEBEB"/>
<path d="M55.3676 319.293H14.3115V319.531H55.3676V319.293Z" fill="#EBEBEB"/>
<path d="M69.8561 319.293H63.8389V319.531H69.8561V319.293Z" fill="#EBEBEB"/>
<path d="M178.471 323.305H89.4189V323.542H178.471V323.305Z" fill="#EBEBEB"/>
<path d="M189.735 268.828H6.18498C4.74707 268.825 3.3689 268.252 2.35303 267.235C1.33716 266.217 0.766599 264.838 0.766602 263.4V5.38036C0.779119 3.95069 1.3552 2.58369 2.36972 1.57629C3.38424 0.56889 4.75526 0.0024491 6.18498 0H189.735C191.175 0 192.555 0.571865 193.573 1.58979C194.591 2.60772 195.163 3.98832 195.163 5.42789V263.4C195.163 264.839 194.591 266.22 193.573 267.238C192.555 268.256 191.175 268.828 189.735 268.828V268.828ZM6.18498 0.190119C4.81009 0.192637 3.49238 0.740574 2.52107 1.71366C1.54977 2.68675 1.00425 4.00547 1.00425 5.38036V263.4C1.00425 264.775 1.54977 266.093 2.52107 267.067C3.49238 268.04 4.81009 268.588 6.18498 268.59H189.735C191.111 268.588 192.429 268.04 193.402 267.067C194.375 266.094 194.923 264.776 194.925 263.4V5.38036C194.923 4.00459 194.375 2.68589 193.402 1.71308C192.429 0.740265 191.111 0.192632 189.735 0.190119H6.18498Z" fill="#EBEBEB"/>
<path d="M395.358 268.828H211.798C210.359 268.825 208.98 268.253 207.963 267.235C206.945 266.218 206.373 264.839 206.37 263.4V5.38036C206.385 3.94982 206.963 2.58283 207.979 1.5757C208.995 0.568558 210.367 0.00242239 211.798 0H395.358C396.786 0.00494736 398.154 0.572494 399.167 1.57963C400.179 2.58676 400.754 3.95233 400.766 5.38036V263.4C400.766 264.836 400.197 266.214 399.183 267.231C398.17 268.249 396.794 268.823 395.358 268.828V268.828ZM211.798 0.190119C210.422 0.192632 209.104 0.740265 208.131 1.71308C207.158 2.68589 206.61 4.00459 206.608 5.38036V263.4C206.61 264.776 207.158 266.094 208.131 267.067C209.104 268.04 210.422 268.588 211.798 268.59H395.358C396.733 268.588 398.052 268.04 399.025 267.067C399.998 266.094 400.545 264.776 400.548 263.4V5.38036C400.545 4.00459 399.998 2.68589 399.025 1.71308C398.052 0.740265 396.733 0.192632 395.358 0.190119H211.798Z" fill="#EBEBEB"/>
<path d="M210.031 311.223H237.493V213.388H210.031V311.223Z" fill="#E6E6E6"/>
<path d="M215.239 311.225H210.021V302.156H220.705L215.239 311.225Z" fill="#F0F0F0"/>
<path d="M366.716 311.223H394.179V213.388H366.716V311.223Z" fill="#F8F8F8"/>
<path d="M210.031 308.84H371.271V213.381H210.031V308.84Z" fill="#C4E0FF"/>
<path d="M318.103 219.054V303.543H365.898V219.054H318.103Z" fill="#D0E7FF"/>
<path d="M337.276 223.902H346.725C348.83 223.865 350.899 223.355 352.779 222.411C354.66 221.466 356.304 220.111 357.591 218.445H326.411C327.699 220.109 329.344 221.464 331.224 222.408C333.104 223.352 335.173 223.863 337.276 223.902V223.902Z" fill="#F0F0F0"/>
<path d="M266.743 219.066V303.555H314.539V219.066H266.743Z" fill="#E6E6E6"/>
<path d="M285.431 223.902H294.889C296.986 223.858 299.045 223.345 300.917 222.4C302.789 221.456 304.426 220.105 305.707 218.445H274.575C275.861 220.11 277.503 221.464 279.382 222.409C281.261 223.353 283.328 223.863 285.431 223.902V223.902Z" fill="#F0F0F0"/>
<path d="M215.382 219.066V303.555H263.178V219.066H215.382Z" fill="#E6E6E6"/>
<path d="M234.072 223.902H243.53C245.631 223.862 247.696 223.351 249.573 222.407C251.451 221.462 253.092 220.108 254.376 218.445H223.216C224.501 220.11 226.144 221.464 228.023 222.409C229.902 223.353 231.969 223.863 234.072 223.902Z" fill="#F0F0F0"/>
<path d="M366.051 311.225H371.26V302.156H360.575L366.051 311.225Z" fill="#C4E0FF"/>
<path d="M37.308 187.953L221.562 187.953L221.562 31.0767L37.308 31.0767L37.308 187.953Z" fill="#E6E6E6"/>
<path d="M33.163 187.953L219.755 187.953L219.755 31.0767L33.163 31.0767L33.163 187.953Z" fill="#F5F5F5"/>
<path d="M212.312 180.424V38.6055L40.6059 38.6055V180.424H212.312Z" fill="#FAFAFA"/>
<path d="M191.246 180.424L123.669 38.6055H100.712L168.29 180.424H191.246Z" fill="white"/>
<path d="M161.787 180.424L94.2002 38.6055H78.4014L145.979 180.424H161.787Z" fill="white"/>
<path d="M104.372 180.413L104.372 38.5938H95.4935L95.4935 180.413H104.372Z" fill="#E6E6E6"/>
<path d="M163.384 180.413V38.5938H154.505V180.413H163.384Z" fill="#E6E6E6"/>
<path d="M102.765 185.203L102.765 33.0039H91.5381L91.5381 185.203H102.765Z" fill="#F5F5F5"/>
<path d="M161.778 185.203V33.0039H150.552V185.203H161.778Z" fill="#F5F5F5"/>
<path d="M41.3955 180.424L41.3955 38.6055H40.6065L40.6065 180.424H41.3955Z" fill="#E6E6E6"/>
<path d="M30.0356 21.3867H229.66C229.912 21.3867 230.154 21.4869 230.332 21.6651C230.511 21.8434 230.611 22.0852 230.611 22.3373C230.611 22.5894 230.511 22.8312 230.332 23.0095C230.154 23.1878 229.912 23.2879 229.66 23.2879H30.0356C29.7834 23.2879 29.5417 23.1878 29.3634 23.0095C29.1851 22.8312 29.085 22.5894 29.085 22.3373C29.085 22.0852 29.1851 21.8434 29.3634 21.6651C29.5417 21.4869 29.7834 21.3867 30.0356 21.3867Z" fill="#E6E6E6"/>
<path d="M221.561 27.728C221.905 27.7255 222.234 27.5872 222.476 27.3432C222.718 27.0993 222.854 26.7695 222.854 26.4257V23.6405C222.854 23.2976 222.718 22.9688 222.475 22.7263C222.233 22.4839 221.904 22.3477 221.561 22.3477C221.217 22.3476 220.888 22.4835 220.644 22.7257C220.4 22.9679 220.261 23.2967 220.259 23.6405V26.4257C220.261 26.7703 220.399 27.1001 220.643 27.3438C220.887 27.5875 221.217 27.7255 221.561 27.728V27.728Z" fill="#E6E6E6"/>
<path d="M44.5125 27.728C44.8572 27.7255 45.187 27.5875 45.4307 27.3438C45.6744 27.1001 45.8124 26.7703 45.8148 26.4257V23.6405C45.8123 23.2967 45.674 22.9679 45.4301 22.7257C45.1861 22.4835 44.8563 22.3476 44.5125 22.3477V22.3477C44.1697 22.3477 43.8408 22.4839 43.5984 22.7263C43.3559 22.9688 43.2197 23.2976 43.2197 23.6405V26.4257C43.2197 26.7695 43.3556 27.0993 43.5978 27.3432C43.84 27.5872 44.1688 27.7255 44.5125 27.728Z" fill="#E6E6E6"/>
<path opacity="0.6" d="M30.339 100.211L216.798 100.211V22.3478L30.339 22.3478V100.211Z" fill="#F9F9F9"/>
<path d="M32.8975 311.223H37.6885L37.6885 232.666H32.8975L32.8975 311.223Z" fill="#E6E6E6"/>
<path d="M145.284 217.371H119.343V232.657H145.284V217.371Z" fill="#E6E6E6"/>
<path d="M16.308 232.668H119.343V217.382H16.308V232.668Z" fill="#F5F5F5"/>
<path d="M145.284 242.164H119.343V257.45H145.284V242.164Z" fill="#E6E6E6"/>
<path d="M16.308 257.461H119.343V242.175H16.308V257.461Z" fill="#F5F5F5"/>
<path d="M145.284 266.965H119.343V282.25H145.284V266.965Z" fill="#E6E6E6"/>
<path d="M16.308 282.25H119.343V266.964H16.308V282.25Z" fill="#F5F5F5"/>
<path d="M135.931 311.223H140.722V232.666H135.931V311.223Z" fill="#E6E6E6"/>
<path d="M114.552 311.223H119.343L119.343 232.666H114.552L114.552 311.223Z" fill="#F5F5F5"/>
<path d="M16.3076 311.223H21.0986L21.0986 232.666H16.3076L16.3076 311.223Z" fill="#F5F5F5"/>
<path d="M202.093 354.15C303.885 354.15 386.403 349.333 386.403 343.39C386.403 337.447 303.885 332.629 202.093 332.629C100.301 332.629 17.7822 337.447 17.7822 343.39C17.7822 349.333 100.301 354.15 202.093 354.15Z" fill="#F5F5F5"/>
<path d="M340.878 300.233H186.502C184.984 300.251 183.48 299.951 182.086 299.351C180.692 298.751 179.44 297.865 178.41 296.75C177.381 295.635 176.597 294.317 176.109 292.879C175.621 291.442 175.441 289.919 175.579 288.408L194.487 40.5216C194.781 37.3279 196.244 34.3552 198.594 32.173C200.945 29.9909 204.018 28.7529 207.225 28.6962H361.601C363.119 28.6764 364.624 28.976 366.019 29.5755C367.413 30.1751 368.666 31.0612 369.696 32.1763C370.726 33.2914 371.51 34.6106 371.997 36.0483C372.484 37.486 372.663 39.0101 372.523 40.5216L353.616 288.408C353.32 291.601 351.856 294.572 349.506 296.754C347.156 298.936 344.084 300.174 340.878 300.233Z" fill="#1E8EFF"/>
<path opacity="0.5" d="M340.878 300.233H186.502C184.984 300.251 183.48 299.951 182.086 299.351C180.692 298.751 179.44 297.865 178.41 296.75C177.381 295.635 176.597 294.317 176.109 292.879C175.621 291.442 175.441 289.919 175.579 288.408L194.487 40.5216C194.781 37.3279 196.244 34.3552 198.594 32.173C200.945 29.9909 204.018 28.7529 207.225 28.6962H361.601C363.119 28.6764 364.624 28.976 366.019 29.5755C367.413 30.1751 368.666 31.0612 369.696 32.1763C370.726 33.2914 371.51 34.6106 371.997 36.0483C372.484 37.486 372.663 39.0101 372.523 40.5216L353.616 288.408C353.32 291.601 351.856 294.572 349.506 296.754C347.156 298.936 344.084 300.174 340.878 300.233Z" fill="white"/>
<path d="M338.589 300.233H184.203C182.685 300.251 181.181 299.951 179.787 299.351C178.393 298.751 177.141 297.865 176.111 296.75C175.082 295.635 174.298 294.317 173.81 292.879C173.322 291.442 173.142 289.919 173.281 288.408L192.197 40.5216C192.492 37.3263 193.956 34.3523 196.309 32.1699C198.661 29.9876 201.736 28.7506 204.945 28.6962H359.321C360.839 28.6764 362.344 28.976 363.739 29.5755C365.133 30.1751 366.386 31.0612 367.416 32.1763C368.446 33.2914 369.23 34.6106 369.717 36.0483C370.204 37.486 370.384 39.0101 370.244 40.5216L351.336 288.408C351.042 291.603 349.578 294.577 347.225 296.759C344.873 298.942 341.797 300.179 338.589 300.233Z" fill="#1E8EFF"/>
<path opacity="0.7" d="M338.589 300.233H184.203C182.685 300.251 181.181 299.951 179.787 299.351C178.393 298.751 177.141 297.865 176.111 296.75C175.082 295.635 174.298 294.317 173.81 292.879C173.322 291.442 173.142 289.919 173.281 288.408L192.197 40.5216C192.492 37.3263 193.956 34.3523 196.309 32.1699C198.661 29.9876 201.736 28.7506 204.945 28.6962H359.321C360.839 28.6764 362.344 28.976 363.739 29.5755C365.133 30.1751 366.386 31.0612 367.416 32.1763C368.446 33.2914 369.23 34.6106 369.717 36.0483C370.204 37.486 370.384 39.0101 370.244 40.5216L351.336 288.408C351.042 291.603 349.578 294.577 347.225 296.759C344.873 298.942 341.797 300.179 338.589 300.233Z" fill="white"/>
<path d="M184.506 296.288C183.494 296.304 182.489 296.105 181.559 295.706C180.629 295.308 179.793 294.717 179.106 293.974C178.419 293.23 177.896 292.35 177.572 291.391C177.248 290.432 177.129 289.416 177.224 288.408L195.884 43.8109C196.077 41.681 197.05 39.6976 198.617 38.2426C200.185 36.7877 202.235 35.9641 204.373 35.9305H358.749C359.762 35.9153 360.766 36.1137 361.696 36.5125C362.626 36.9113 363.462 37.5017 364.149 38.2452C364.836 38.9887 365.359 39.8686 365.683 40.8276C366.007 41.7865 366.126 42.8031 366.031 43.8109L347.371 288.408C347.179 290.536 346.207 292.518 344.641 293.973C343.076 295.428 341.028 296.253 338.892 296.288H184.506Z" fill="#1E8EFF"/>
<path opacity="0.2" d="M337.8 77.0714H227.322C226.722 77.0794 226.126 76.9609 225.575 76.7238C225.024 76.4867 224.528 76.1362 224.121 75.695C223.714 75.2539 223.405 74.7321 223.212 74.1634C223.02 73.5948 222.95 72.9921 223.006 72.3945V72.3945C223.125 71.1348 223.703 69.9628 224.63 69.102C225.558 68.2413 226.77 67.7518 228.035 67.7271H338.513C339.112 67.7178 339.707 67.8349 340.259 68.071C340.81 68.3071 341.306 68.6567 341.713 69.0971C342.12 69.5375 342.43 70.0587 342.622 70.6269C342.814 71.195 342.884 71.7973 342.828 72.3945V72.3945C342.716 73.6575 342.14 74.8341 341.211 75.6977C340.283 76.5612 339.067 77.0506 337.8 77.0714V77.0714Z" fill="black"/>
<path opacity="0.3" d="M290.668 33.5153H272.826C272.678 33.5172 272.532 33.4881 272.396 33.4298C272.26 33.3716 272.138 33.2854 272.038 33.177C271.937 33.0686 271.861 32.9403 271.813 32.8004C271.766 32.6605 271.748 32.5122 271.761 32.3651V32.3651C271.791 32.0556 271.933 31.7677 272.161 31.5558C272.389 31.344 272.686 31.2227 272.997 31.2149H290.849C290.996 31.2143 291.141 31.2444 291.276 31.3032C291.411 31.3621 291.532 31.4484 291.631 31.5567C291.73 31.665 291.806 31.7928 291.853 31.932C291.9 32.0712 291.917 32.2187 291.904 32.3651V32.3651C291.878 32.6762 291.737 32.9664 291.509 33.1791C291.28 33.3918 290.981 33.5116 290.668 33.5153Z" fill="#1E8EFF"/>
<path d="M226.808 72.3944C226.966 70.7411 226.773 69.073 226.242 67.4992C225.712 65.9254 224.855 64.4812 223.728 63.2611C222.601 62.0409 221.23 61.0723 219.703 60.4184C218.176 59.7645 216.529 59.4401 214.868 59.4663H327.038C328.699 59.4401 330.346 59.7645 331.873 60.4184C333.4 61.0723 334.771 62.0409 335.898 63.2611C337.025 64.4812 337.882 65.9254 338.412 67.4992C338.943 69.073 339.136 70.7411 338.978 72.3944H226.808Z" fill="#F0F0F0"/>
<path d="M214.897 59.4688C211.389 59.5228 208.025 60.8735 205.453 63.2606C202.882 65.6478 201.285 68.9023 200.971 72.3968L189.478 223.037C189.166 226.531 187.571 229.785 185.002 232.173C182.432 234.56 179.069 235.911 175.562 235.965H287.732C291.24 235.911 294.604 234.561 297.175 232.174C299.747 229.786 301.343 226.532 301.658 223.037L313.15 72.3968C313.462 68.9031 315.057 65.6487 317.627 63.2614C320.197 60.8741 323.56 59.523 327.067 59.4688H214.897Z" fill="white"/>
<path d="M275.783 223.035C275.625 224.688 275.818 226.357 276.348 227.93C276.879 229.504 277.736 230.948 278.863 232.168C279.989 233.389 281.361 234.357 282.888 235.011C284.414 235.665 286.062 235.989 287.723 235.963H175.553C173.892 235.989 172.244 235.665 170.718 235.011C169.191 234.357 167.819 233.389 166.693 232.168C165.566 230.948 164.709 229.504 164.178 227.93C163.648 226.357 163.455 224.688 163.613 223.035H275.783Z" fill="#F0F0F0"/>
<path d="M210.126 220.062C210.554 214.558 208.824 210.109 203.329 210.109H289.7C295.194 210.109 299.33 215.138 296.506 220.062H210.126Z" fill="#F9F9F9"/>
<path d="M275.782 223.035C276.088 219.536 277.68 216.275 280.25 213.881C282.821 211.488 286.187 210.133 289.699 210.078H177.529C174.022 210.132 170.659 211.483 168.089 213.871C165.519 216.258 163.924 219.512 163.612 223.006L275.782 223.035Z" fill="#F0F0F0"/>
<path d="M328.815 260.385H200.057C199.622 260.391 199.189 260.305 198.789 260.133C198.389 259.961 198.029 259.707 197.733 259.387C197.437 259.067 197.212 258.688 197.072 258.276C196.932 257.863 196.88 257.425 196.92 256.991V256.991C197.004 256.076 197.423 255.223 198.097 254.597C198.77 253.971 199.651 253.615 200.571 253.598H329.338C329.773 253.593 330.204 253.68 330.603 253.853C331.003 254.025 331.361 254.28 331.656 254.6C331.951 254.919 332.175 255.298 332.315 255.71C332.454 256.122 332.505 256.558 332.465 256.991V256.991C332.381 257.907 331.962 258.76 331.289 259.386C330.615 260.012 329.735 260.368 328.815 260.385Z" fill="white"/>
<path d="M263.797 276.698H198.814C198.378 276.705 197.945 276.62 197.544 276.449C197.143 276.277 196.782 276.023 196.486 275.703C196.19 275.382 195.965 275.003 195.826 274.59C195.686 274.176 195.636 273.738 195.677 273.304V273.304C195.761 272.388 196.18 271.536 196.854 270.91C197.527 270.283 198.408 269.928 199.327 269.91H264.31C264.746 269.905 265.178 269.99 265.578 270.162C265.979 270.334 266.338 270.589 266.634 270.909C266.93 271.229 267.155 271.607 267.295 272.02C267.435 272.433 267.487 272.87 267.447 273.304V273.304C267.363 274.22 266.944 275.072 266.27 275.699C265.597 276.325 264.716 276.68 263.797 276.698V276.698Z" fill="white"/>
<path d="M308.786 276.698H282.465C282.028 276.705 281.596 276.62 281.194 276.449C280.793 276.277 280.433 276.023 280.137 275.703C279.841 275.382 279.616 275.003 279.476 274.59C279.337 274.176 279.286 273.738 279.328 273.304C279.412 272.388 279.831 271.536 280.504 270.909C281.178 270.283 282.058 269.928 282.978 269.91H309.3C309.735 269.906 310.166 269.993 310.566 270.165C310.966 270.338 311.325 270.592 311.621 270.912C311.916 271.231 312.141 271.609 312.282 272.021C312.423 272.433 312.475 272.87 312.437 273.304C312.353 274.22 311.934 275.072 311.26 275.698C310.587 276.325 309.706 276.68 308.786 276.698V276.698Z" fill="white"/>
<path d="M335.109 212.152L328.389 213.207C328.225 212.585 327.965 211.991 327.619 211.449C327.275 211.035 326.852 210.695 326.373 210.451L325.974 215.612C329.523 216.582 331.861 217.602 332.99 218.673C333.722 219.369 334.283 220.227 334.628 221.177C334.973 222.127 335.092 223.144 334.976 224.149C334.892 225.415 334.501 226.642 333.836 227.723C333.21 228.771 332.39 229.69 331.421 230.432C330.526 231.131 329.516 231.668 328.436 232.02C327.199 232.375 325.921 232.569 324.634 232.599L324.377 235.965H321.868L322.124 232.599C320.695 232.506 319.285 232.221 317.932 231.753C316.918 231.375 315.993 230.793 315.213 230.042C314.517 229.375 313.958 228.577 313.569 227.694C313.168 226.725 312.921 225.698 312.837 224.652L320.109 223.816C320.15 224.705 320.377 225.576 320.774 226.373C321.198 226.984 321.784 227.464 322.466 227.761L322.942 221.458C321.236 221.021 319.57 220.442 317.961 219.728C316.947 219.188 316.104 218.374 315.527 217.38C314.847 216.184 314.567 214.802 314.729 213.435C314.792 212.422 315.057 211.43 315.508 210.52C315.958 209.609 316.585 208.797 317.352 208.131C319.273 206.582 321.672 205.746 324.139 205.764L324.273 203.996H326.877L326.744 205.764C328.883 205.76 330.971 206.425 332.714 207.665C334.051 208.804 334.907 210.407 335.109 212.152ZM323.769 210.365C323.144 210.532 322.574 210.86 322.115 211.316C321.787 211.678 321.593 212.14 321.563 212.627C321.513 213.111 321.638 213.597 321.915 213.996C322.31 214.455 322.833 214.786 323.417 214.947L323.769 210.365ZM325.033 227.942C325.895 227.798 326.697 227.408 327.343 226.82C327.822 226.36 328.119 225.742 328.18 225.08C328.227 224.522 328.057 223.966 327.704 223.531C327.093 222.899 326.32 222.445 325.47 222.219L325.033 227.942Z" fill="white"/>
<path d="M208.48 101.398H211.683L210.894 111.722H207.7L208.48 101.398Z" fill="#1E8EFF"/>
<path d="M213.993 101.398H216.968L220.419 107.102L220.856 101.398H223.86L223.071 111.722H220.067L216.636 106.018L216.198 111.722H213.204L213.993 101.398Z" fill="#1E8EFF"/>
<path d="M224.964 101.398H228.3L230.059 108.832L232.911 101.398H236.143L231.561 111.722H228.11L224.964 101.398Z" fill="#1E8EFF"/>
<path d="M235.905 106.568C235.95 105.085 236.562 103.676 237.616 102.633C238.727 101.66 240.172 101.155 241.647 101.226C242.352 101.172 243.061 101.266 243.728 101.504C244.394 101.741 245.004 102.116 245.516 102.604C245.963 103.136 246.292 103.757 246.481 104.425C246.669 105.094 246.713 105.796 246.609 106.483C246.569 107.523 246.282 108.54 245.773 109.448C245.316 110.213 244.658 110.838 243.871 111.255C242.967 111.707 241.964 111.93 240.953 111.901C239.972 111.938 238.995 111.746 238.101 111.34C237.353 110.954 236.75 110.338 236.381 109.582C235.952 108.639 235.787 107.597 235.905 106.568V106.568ZM239.099 106.568C238.961 107.344 239.106 108.144 239.508 108.821C239.69 109.048 239.925 109.228 240.191 109.345C240.457 109.463 240.748 109.514 241.039 109.496C241.343 109.51 241.647 109.458 241.929 109.343C242.212 109.228 242.466 109.053 242.674 108.831C243.177 108.134 243.44 107.294 243.425 106.435C243.553 105.694 243.401 104.931 242.997 104.296C242.812 104.071 242.575 103.893 242.307 103.777C242.039 103.661 241.748 103.611 241.457 103.631C241.156 103.623 240.856 103.68 240.579 103.798C240.302 103.916 240.053 104.093 239.85 104.315C239.358 104.966 239.094 105.761 239.099 106.578V106.568Z" fill="#1E8EFF"/>
<path d="M248.843 101.398H252.037L251.257 111.722H248.054L248.843 101.398Z" fill="#1E8EFF"/>
<path d="M260.735 107.503L263.463 108.349C263.252 109.065 262.9 109.731 262.427 110.308C262.002 110.827 261.457 111.234 260.839 111.496C260.103 111.79 259.313 111.929 258.52 111.905C257.592 111.939 256.667 111.77 255.811 111.41C255.068 111.039 254.467 110.435 254.1 109.69C253.614 108.717 253.428 107.622 253.567 106.543C253.594 105.063 254.19 103.651 255.231 102.598C256.319 101.643 257.739 101.151 259.185 101.229C260.246 101.159 261.3 101.436 262.189 102.018C262.947 102.627 263.468 103.481 263.663 104.433L260.811 105.06C260.763 104.82 260.677 104.588 260.554 104.376C260.406 104.138 260.195 103.944 259.946 103.815C259.681 103.679 259.388 103.61 259.09 103.615C258.752 103.605 258.416 103.679 258.114 103.832C257.812 103.985 257.552 104.211 257.36 104.49C256.979 105.097 256.775 105.798 256.771 106.515C256.624 107.317 256.744 108.145 257.113 108.872C257.28 109.086 257.496 109.255 257.742 109.366C257.989 109.477 258.259 109.526 258.529 109.509C258.79 109.526 259.05 109.489 259.296 109.401C259.541 109.312 259.766 109.174 259.955 108.996C260.331 108.568 260.598 108.056 260.735 107.503V107.503Z" fill="#1E8EFF"/>
<path d="M265.536 101.398H274.091L273.929 103.604H268.577L268.454 105.248H273.387L273.226 107.349H268.264L268.102 109.383H273.616L273.435 111.722H264.728L265.536 101.398Z" fill="#1E8EFF"/>
<path d="M299.396 125.047H206.685L206.875 122.48H299.596L299.396 125.047Z" fill="#1E8EFF"/>
<path d="M299.395 125.051H206.684L206.075 132.931H298.796L299.395 125.051Z" fill="#F0F0F0"/>
<path d="M298.198 140.801H205.477L204.878 148.672H297.599L298.198 140.801Z" fill="#F0F0F0"/>
<path d="M296.991 156.543H204.28L203.681 164.423H296.392L296.991 156.543Z" fill="#F0F0F0"/>
<path d="M295.793 172.293H203.073L202.474 180.164H295.195L295.793 172.293Z" fill="#F0F0F0"/>
<path d="M294.396 190.611H201.675L201.874 188.035H294.595L294.396 190.611Z" fill="#1E8EFF"/>
<path d="M283.786 77.0703H303.054L302.18 88.563H282.911L283.786 77.0703Z" fill="#F0F0F0"/>
<path d="M94.845 150.191L98.2861 151.569C99.5422 152.074 100.644 152.9 101.48 153.965L103.058 155.961C103.568 156.602 103.835 157.402 103.814 158.22C103.794 159.039 103.485 159.824 102.944 160.438L101.271 162.339C100.965 162.688 100.592 162.973 100.175 163.177C99.7585 163.38 99.3053 163.5 98.842 163.527C98.3786 163.554 97.9145 163.49 97.4764 163.336C97.0383 163.183 96.635 162.944 96.2899 162.634L94.6739 161.208C94.6739 161.208 89.7308 157.739 88.2764 153.147L89.227 152.197C89.9386 151.443 90.8187 150.868 91.7951 150.519C92.7716 150.171 93.8167 150.058 94.845 150.191V150.191Z" fill="#FFB573"/>
<path d="M104.275 116.844L103.154 117.585L101.908 118.441C101.081 119.03 100.245 119.639 99.4367 120.257C97.8112 121.521 96.2332 122.823 94.7693 124.211C91.8788 126.807 89.3981 129.826 87.4117 133.166C87.1741 133.565 86.9649 133.964 86.7653 134.373L86.6132 134.677C86.6515 134.549 86.6833 134.419 86.7083 134.287C86.7405 134.131 86.7405 133.969 86.7083 133.812C86.6227 133.536 86.6132 134.249 86.8318 134.953C87.4146 136.778 88.1756 138.542 89.1038 140.219C91.062 143.964 93.5145 147.824 95.834 151.626L95.891 151.731C96.3509 152.487 96.492 153.396 96.2836 154.256C96.0751 155.117 95.534 155.86 94.7788 156.322C94.1963 156.671 93.5221 156.837 92.8439 156.798C92.1658 156.759 91.5151 156.517 90.9764 156.103C89.0767 154.625 87.2644 153.038 85.5485 151.35C83.7932 149.643 82.1365 147.837 80.5864 145.942C78.8599 143.87 77.3945 141.593 76.2232 139.164C75.8722 138.406 75.5737 137.624 75.3297 136.825C75.0162 135.786 74.8498 134.708 74.8353 133.622C74.8287 132.886 74.9084 132.153 75.073 131.436C75.1689 131.026 75.2895 130.623 75.4342 130.228L75.6148 129.744C75.8525 129.088 76.1186 128.451 76.3943 127.842C78.615 122.997 81.6865 118.59 85.463 114.829C87.2492 113.003 89.1546 111.298 91.1665 109.724C92.1742 108.945 93.1913 108.184 94.2465 107.471C94.7788 107.11 95.3111 106.749 95.8625 106.406L96.7085 105.893L97.6591 105.342C99.1516 104.536 100.896 104.331 102.534 104.768C104.173 105.205 105.583 106.251 106.477 107.693C107.37 109.135 107.679 110.863 107.34 112.525C107.002 114.187 106.042 115.657 104.655 116.635L104.275 116.844Z" fill="#FFB573"/>
<path d="M104.39 101.758C98.8386 101.758 92.7548 104.163 84.96 113.83C84.96 119.601 97.1371 127.272 97.1371 127.272C97.1371 127.272 117.1 101.71 104.39 101.758Z" fill="#263238"/>
<path d="M63.144 330.27C63.0441 330.267 62.945 330.251 62.8493 330.222C61.6991 329.814 60.6154 326.886 60.5489 325.251C60.5442 325.2 60.5554 325.149 60.5809 325.105C60.6065 325.06 60.6451 325.025 60.6915 325.004C60.7356 324.976 60.7867 324.961 60.8388 324.961C60.891 324.961 60.9421 324.976 60.9862 325.004C61.1097 325.108 63.971 327.456 64.1041 329.034C64.1228 329.187 64.1096 329.342 64.0654 329.489C64.0213 329.636 63.947 329.773 63.8475 329.89C63.7649 330 63.6591 330.092 63.5377 330.157C63.4162 330.223 63.2819 330.261 63.144 330.27V330.27ZM61.1573 325.888C61.4139 327.437 62.298 329.452 63.0585 329.69C63.1338 329.714 63.2151 329.713 63.2893 329.685C63.3634 329.657 63.4261 329.606 63.4672 329.538C63.5204 329.476 63.5597 329.403 63.5827 329.324C63.6056 329.245 63.6116 329.163 63.6003 329.082C63.4957 328.179 62.0889 326.724 61.1573 325.888Z" fill="#263238"/>
<path d="M64.9312 326.784C63.4227 326.701 61.9574 326.251 60.663 325.472C60.6212 325.442 60.5883 325.402 60.5682 325.355C60.548 325.308 60.5414 325.256 60.5489 325.206C60.5579 325.154 60.5815 325.106 60.6169 325.067C60.6522 325.029 60.6979 325.001 60.7485 324.987C60.9006 324.987 64.4844 324.036 65.8342 324.835C65.9697 324.909 66.0881 325.011 66.1815 325.133C66.2749 325.256 66.3412 325.398 66.3761 325.548C66.4244 325.722 66.4174 325.907 66.3561 326.078C66.2948 326.248 66.1822 326.395 66.0338 326.498C65.7027 326.701 65.3189 326.8 64.9312 326.784ZM61.5375 325.348C62.9349 326.052 65.0928 326.527 65.7297 326.09C65.8247 326.023 65.9103 325.928 65.8532 325.671C65.836 325.59 65.8006 325.513 65.7495 325.448C65.6985 325.382 65.6332 325.328 65.5585 325.291C64.7696 324.806 62.7638 325.101 61.5375 325.348Z" fill="#263238"/>
<path d="M50.7003 324.614C53.5163 321.601 55.9026 318.213 57.7917 314.547C57.7917 314.547 66.6132 316.714 64.8831 319.3C61.7367 323.91 60.2062 333.388 64.2558 338.464C66.5657 341.363 62.9154 341.848 60.4534 340.603C56.651 338.635 56.7746 337.893 54.7498 334.633C53.0388 331.848 52.3638 330.754 49.9969 329.557C48.0957 328.521 49.0463 326.581 50.7003 324.614Z" fill="#1E8EFF"/>
<path d="M125.511 159.059C125.511 159.059 112.735 221.418 103.362 248.101C93.5331 276.067 66.3937 319.234 65.3386 321.087C61.4791 320.051 58.038 318.701 55.7471 316.467C55.7471 316.467 68.485 269.651 80.8998 239.279C85.6527 175.875 96.0047 159.106 96.0047 159.106L125.511 159.059Z" fill="#263238"/>
<path opacity="0.2" d="M105.996 192.425C105.416 204.488 105.045 221.076 105.587 241.267C109.494 228.681 113.743 211.618 117.317 196.303C114.931 193.119 111.224 191.589 105.996 192.425Z" fill="black"/>
<path d="M106.767 82.5938C108.107 88.0216 109.419 96.8526 107.28 101.606C107.28 101.606 115.284 101.967 125.512 110.161C130.332 103.089 124.752 101.701 124.752 101.701C120.503 100.75 120.712 95.0465 120.721 91.0065L106.767 82.5938Z" fill="#FFB573"/>
<path d="M104.75 104.032C100.758 103.594 103.514 96.0087 105.587 96.7502C110.834 98.6514 122.602 96.5411 126.243 98.5468C129.884 100.553 128.962 104.669 128.962 104.669C128.962 104.669 109.047 104.507 104.75 104.032Z" fill="#1E8EFF"/>
<path opacity="0.7" d="M104.75 104.032C100.758 103.594 103.514 96.0087 105.587 96.7502C110.834 98.6514 122.602 96.5411 126.243 98.5468C129.884 100.553 128.962 104.669 128.962 104.669C128.962 104.669 109.047 104.507 104.75 104.032Z" fill="white"/>
<path d="M128.041 73.02C128.174 73.7424 128.659 74.2652 129.134 74.1797C129.609 74.0941 129.885 73.4382 129.761 72.7158C129.638 71.9933 129.143 71.4705 128.668 71.556C128.193 71.6416 127.946 72.2975 128.041 73.02Z" fill="#263238"/>
<path d="M128.468 71.6322L130.122 70.8242C130.122 70.8242 129.466 72.3452 128.468 71.6322Z" fill="#263238"/>
<path d="M129.01 67.2239C129.032 67.1727 129.043 67.1178 129.043 67.0623C129.043 67.0068 129.032 66.9518 129.01 66.9007C128.979 66.7903 128.906 66.6965 128.806 66.6396C128.707 66.5828 128.589 66.5672 128.478 66.5965C127.811 66.7596 127.192 67.0791 126.673 67.5287C126.154 67.9784 125.75 68.5451 125.493 69.1821C125.462 69.2918 125.473 69.4093 125.524 69.5114C125.575 69.6134 125.662 69.6926 125.769 69.7334C125.878 69.7696 125.998 69.7609 126.101 69.7093C126.205 69.6576 126.283 69.5672 126.32 69.4578C126.527 68.954 126.851 68.5072 127.267 68.1549C127.682 67.8025 128.175 67.555 128.706 67.433C128.769 67.4213 128.828 67.3966 128.88 67.3606C128.933 67.3246 128.977 67.278 129.01 67.2239V67.2239Z" fill="#263238"/>
<path d="M128.896 74.7891C129.725 76.3916 130.771 77.8725 132.004 79.1903C131.658 79.4974 131.249 79.7247 130.805 79.8562C130.362 79.9876 129.895 80.0199 129.437 79.9508L128.896 74.7891Z" fill="#ED893E"/>
<path d="M103.23 72.6514C105.349 81.4729 106.081 85.2467 111.281 89.0396C119.142 94.7431 129.295 90.2373 129.808 80.9786C130.264 72.6323 126.728 59.6187 117.545 57.5845C108.363 55.5502 101.11 63.8298 103.23 72.6514Z" fill="#FFB573"/>
<path d="M120.341 74.2765C125.532 67.4133 128.897 61.8618 126.359 55.7875C124.22 50.7113 118.298 52.1943 117.471 54.7323C101.729 53.392 96.0727 59.0956 99.3237 68.5254C101.396 74.5427 93.354 71.3772 95.3122 79.058C96.8047 84.9137 91.5099 87.1476 94.2 90.5127C98.0785 95.3702 106.082 89.0393 115.218 92.68C122.67 95.6649 133.906 91.1496 120.341 74.2765Z" fill="#263238"/>
<path d="M119.475 75.6657C119.904 76.3704 120.477 76.9762 121.157 77.4432C121.837 77.9102 122.609 78.2277 123.42 78.3749C125.483 78.6791 126.196 76.3596 125.321 74.2113C124.561 72.3101 122.574 69.791 120.625 70.485C118.677 71.1789 118.306 73.812 119.475 75.6657Z" fill="#FFB573"/>
<path d="M122.547 336.09C120.888 335.887 119.325 335.203 118.05 334.122C118.014 334.087 117.987 334.043 117.974 333.995C117.96 333.946 117.961 333.895 117.974 333.846C117.99 333.796 118.02 333.752 118.061 333.718C118.101 333.684 118.15 333.663 118.202 333.656C118.355 333.656 122.005 333.247 123.26 334.255C123.385 334.347 123.488 334.465 123.562 334.602C123.636 334.738 123.678 334.889 123.687 335.044C123.727 335.233 123.702 335.43 123.615 335.602C123.529 335.775 123.387 335.913 123.212 335.995C123 336.074 122.773 336.107 122.547 336.09V336.09ZM118.925 334.132C120.218 335.035 122.281 335.824 122.974 335.481C123.079 335.424 123.174 335.339 123.155 335.082C123.149 334.999 123.124 334.919 123.083 334.846C123.042 334.774 122.986 334.712 122.917 334.664C122.242 334.074 120.18 334.055 118.925 334.132Z" fill="#263238"/>
<path d="M118.231 334.199C118.189 334.197 118.147 334.186 118.109 334.166C118.071 334.146 118.038 334.119 118.012 334.085C117.985 334.041 117.97 333.99 117.97 333.938C117.97 333.886 117.985 333.834 118.012 333.79C118.088 333.657 119.914 330.444 121.463 330.054C121.612 330.009 121.769 329.997 121.923 330.018C122.078 330.039 122.226 330.094 122.357 330.178C122.527 330.264 122.664 330.404 122.746 330.576C122.829 330.748 122.852 330.942 122.813 331.129C122.604 332.336 119.885 333.885 118.298 334.218L118.231 334.199ZM121.777 330.549H121.587C120.693 330.777 119.486 332.402 118.811 333.458C120.294 332.944 122.147 331.747 122.281 330.986C122.281 330.872 122.281 330.739 122.062 330.596C121.972 330.557 121.874 330.54 121.777 330.549Z" fill="#263238"/>
<path d="M129.609 339.426C121.909 338.828 116.719 333.542 117.251 327.943C117.546 324.854 107.679 324.578 107.679 324.578C109.238 334.151 107.28 335.519 106.633 337.991C105.987 340.463 106.148 343.2 108.192 343.248C110.635 343.314 111.776 342.849 114.846 342.963C118.402 343.105 122.242 343.238 128.563 343.248C131.064 343.257 133.031 339.693 129.609 339.426Z" fill="#1E8EFF"/>
<path d="M138.821 159.059C138.821 159.059 138.146 206.294 134.42 237.33C130.693 268.367 117.879 329.243 117.879 329.243C114.509 330.039 110.996 330.006 107.641 329.148C107.641 329.148 103.592 281.619 110.389 235.638C105.398 187.472 102.271 159.059 102.271 159.059H138.821Z" fill="#263238"/>
<path d="M140.569 115.372C140.407 119.023 146.168 127.464 139.057 132.35C140.388 135.325 141.51 155.468 138.82 159.062C134.894 161.913 113.648 161.39 96.043 159.062C95.2921 151.78 99.3036 136.694 94.389 113.176C94.1198 111.889 94.1244 110.559 94.4024 109.273C94.6805 107.987 95.2258 106.775 96.003 105.713C96.7801 104.652 97.7718 103.766 98.9136 103.113C100.055 102.459 101.322 102.053 102.631 101.921C104.114 101.779 105.682 101.646 107.289 101.57C112.9 101.175 118.532 101.175 124.143 101.57C125.958 101.741 127.84 101.969 129.637 102.226C132.767 102.667 135.621 104.258 137.642 106.688C139.663 109.118 140.706 112.214 140.569 115.372V115.372Z" fill="#1E8EFF"/>
<g opacity="0.3">
<path d="M94.8261 111.904L94.4364 112.122C94.4014 112.133 94.3692 112.151 94.3421 112.176C94.315 112.2 94.2937 112.23 94.2797 112.264C94.2656 112.298 94.2593 112.334 94.261 112.371C94.2628 112.407 94.2726 112.443 94.2898 112.475C94.307 112.507 94.3312 112.535 94.3605 112.557C94.3898 112.579 94.4236 112.594 94.4595 112.601C94.4953 112.608 94.5323 112.608 94.5677 112.599C94.6032 112.59 94.6363 112.573 94.6645 112.55L95.1018 112.312C97.003 113.006 99.0278 114.584 100.197 114.746C98.2958 113.082 96.9555 111.894 95.444 112.103C95.8908 111.837 96.3281 111.571 96.7653 111.286C98.4954 111.932 100.378 113.377 101.452 113.52C99.7027 111.98 98.4479 110.877 97.0695 111.086L98.0201 110.43L98.5525 110.04C100.121 110.715 101.775 112.151 102.764 112.35C101.186 110.791 100.073 109.689 98.7426 109.907C99.1608 109.594 99.5696 109.28 99.9689 108.957C101.404 109.584 102.925 110.858 103.828 111.077C102.383 109.641 101.366 108.634 100.14 108.824L101.167 107.968L101.414 107.759C102.678 108.424 103.933 109.736 104.76 109.974C103.562 108.539 102.726 107.54 101.471 107.702C101.794 107.426 102.117 107.141 102.421 106.846C103.591 107.464 104.741 108.672 105.501 108.89C104.399 107.569 103.6 106.656 102.478 106.799L103.486 105.848C104.503 106.476 105.473 107.616 106.148 107.854C105.197 106.599 104.589 105.734 103.553 105.782C103.733 105.601 103.914 105.43 104.085 105.249L104.389 104.936C105.34 105.516 106.224 106.571 106.842 106.789C106.005 105.639 105.406 104.831 104.456 104.888C104.731 104.603 105.007 104.308 105.273 104.014C106.129 104.48 106.937 105.364 107.507 105.535C106.756 104.584 106.224 103.881 105.311 103.976L105.463 103.814L106.034 103.149C106.687 103.643 107.366 104.103 108.068 104.527C107.383 103.643 106.899 103.025 106.081 103.092C106.3 102.825 106.518 102.54 106.709 102.255C106.717 102.248 106.723 102.239 106.728 102.229C106.732 102.22 106.734 102.209 106.734 102.198C106.734 102.187 106.732 102.177 106.728 102.167C106.723 102.157 106.717 102.148 106.709 102.141C106.694 102.129 106.675 102.123 106.656 102.123C106.637 102.123 106.619 102.129 106.604 102.141C106.414 102.407 106.214 102.664 106.005 102.911C106.049 102.463 105.924 102.016 105.653 101.656H105.33C105.533 102.114 105.708 102.584 105.853 103.063C105.682 103.263 105.501 103.453 105.33 103.643L105.207 103.776C105.387 103.082 105.026 102.483 104.475 101.723H104.294C104.446 102.312 104.893 103.12 105.074 103.9L104.313 104.67C104.56 103.795 103.952 103.025 103.106 101.932C103.106 102.588 103.904 103.719 104.208 104.784L103.942 105.05L103.419 105.544C103.657 104.594 103.011 103.767 102.089 102.597C102.089 103.301 102.954 104.499 103.286 105.668L102.336 106.495C102.535 105.544 101.899 104.594 101.034 103.358C101.034 104.109 101.803 105.44 102.117 106.685L101.366 107.322C101.585 106.295 100.9 105.288 99.9593 103.909C99.9593 104.727 100.796 106.172 101.129 107.521L100.929 107.683C100.587 107.968 100.235 108.244 99.8833 108.52C100.159 107.464 99.5031 106.276 98.6 104.66C98.5335 105.535 99.3129 107.246 99.5506 108.757C99.1513 109.061 98.7521 109.347 98.3433 109.641C98.7996 108.443 98.0581 107.103 97.0315 105.24C96.946 106.191 97.8395 108.149 98.0962 109.812L97.735 110.059L96.6037 110.791C97.1266 109.584 96.4897 108.158 95.5581 106.219C95.5106 106.286 95.463 106.352 95.425 106.419C95.4915 107.559 96.157 109.385 96.2996 110.972C95.8813 111.238 95.444 111.485 95.0163 111.723C95.5106 110.715 95.2254 109.575 94.617 108.149C94.4773 108.552 94.3661 108.965 94.2843 109.385C94.5297 110.209 94.7108 111.051 94.8261 111.904Z" fill="#263238"/>
<path d="M119.114 105.315C117.679 104.364 116.262 102.72 115.312 102.368C116.614 104.155 117.546 105.42 118.895 105.42C118.43 105.657 117.945 105.904 117.527 106.161C116.215 105.315 114.922 103.775 114.057 103.452C115.255 105.096 116.11 106.256 117.346 106.304C116.956 106.522 116.576 106.75 116.196 106.979L115.92 107.15C114.77 106.294 113.743 104.802 112.964 104.431C113.914 106.047 114.589 107.159 115.816 107.197C115.445 107.416 115.084 107.653 114.722 107.891C113.677 107.102 112.726 105.724 112.013 105.391C112.888 106.864 113.496 107.891 114.665 107.929L113.525 108.699C112.622 107.92 111.842 106.636 111.215 106.294C111.918 107.672 112.412 108.642 113.449 108.756L112.831 109.193L112.489 109.45C111.652 108.737 110.93 107.549 110.35 107.235C111.006 108.509 111.462 109.393 112.412 109.507C112.089 109.745 111.776 109.982 111.462 110.23C110.682 109.64 110.026 108.642 109.485 108.385C110.083 109.469 110.492 110.22 111.386 110.287L111.215 110.42L110.54 110.99C109.836 110.439 109.237 109.536 108.743 109.298C109.285 110.249 109.694 110.971 110.483 111.038C110.226 111.266 109.969 111.513 109.722 111.77C109.714 111.776 109.708 111.784 109.704 111.793C109.699 111.802 109.697 111.812 109.697 111.822C109.697 111.832 109.699 111.842 109.704 111.851C109.708 111.86 109.714 111.868 109.722 111.874C109.736 111.887 109.755 111.895 109.775 111.895C109.794 111.895 109.813 111.887 109.827 111.874C110.051 111.638 110.289 111.416 110.54 111.209C110.302 111.855 110.644 112.511 111.101 113.405C111.022 112.617 110.892 111.836 110.711 111.066C110.911 110.895 111.11 110.743 111.319 110.581L111.462 110.467C111.139 111.199 111.509 111.931 112.032 112.958C111.939 112.085 111.796 111.219 111.604 110.363C111.899 110.135 112.184 109.925 112.489 109.716C112.108 110.534 112.584 111.399 113.249 112.568C113.316 111.922 112.736 110.667 112.612 109.583L112.916 109.365L113.506 108.965C113.125 109.849 113.629 110.781 114.352 112.083C114.418 111.38 113.8 110.039 113.658 108.861L114.694 108.195C114.342 109.098 114.817 110.096 115.473 111.494C115.587 110.752 115.046 109.317 114.932 108.043L115.778 107.53C115.397 108.48 115.911 109.612 116.633 111.123C116.757 110.315 116.158 108.747 116.044 107.368L116.262 107.245L117.432 106.579C116.994 107.577 117.432 108.851 118.078 110.6C118.287 109.745 117.793 107.929 117.774 106.399C118.221 106.161 118.658 105.933 119.114 105.714C118.468 106.826 118.981 108.262 119.713 110.268C119.941 109.317 119.371 107.273 119.38 105.591L119.77 105.401L121.015 104.849C120.274 106.009 120.74 107.606 121.405 109.821C121.709 108.794 121.215 106.551 121.339 104.716C121.795 104.526 122.289 104.355 122.726 104.184C121.833 105.448 122.346 107.207 123.078 109.659C123.42 108.547 122.869 106.075 123.012 104.089L123.439 103.937C123.471 103.927 123.5 103.911 123.525 103.89C123.549 103.869 123.57 103.842 123.584 103.813C123.598 103.784 123.606 103.751 123.607 103.719C123.609 103.686 123.603 103.653 123.591 103.623C123.568 103.563 123.523 103.514 123.464 103.485C123.406 103.457 123.34 103.452 123.278 103.471L122.812 103.642C121.711 102.941 120.657 102.169 119.656 101.332H118.895C120.131 102.805 121.148 103.794 122.413 103.813C121.928 103.994 121.462 104.203 120.977 104.412C119.371 103.461 117.745 101.779 116.709 101.456C118.192 103.262 119.257 104.545 120.654 104.555L119.589 105.049L119.114 105.315Z" fill="#263238"/>
<path d="M107.241 123.091C106.195 121.95 105.463 121.19 104.437 121.313L104.912 120.734L105.178 120.391C106.129 120.857 107.174 121.808 107.821 121.95C106.87 120.905 106.176 120.163 105.226 120.315C105.473 120.002 105.71 119.688 105.948 119.365C106.851 119.726 107.754 120.515 108.344 120.619C107.479 119.735 106.88 119.118 105.977 119.317C106.026 119.261 106.071 119.201 106.11 119.137C106.281 118.899 106.442 118.661 106.604 118.414C107.312 118.836 108.042 119.22 108.79 119.564C108.001 118.756 107.46 118.195 106.652 118.357C106.842 118.062 107.022 117.758 107.184 117.406C107.193 117.388 107.194 117.366 107.186 117.346C107.179 117.327 107.165 117.311 107.146 117.302C107.127 117.293 107.105 117.292 107.086 117.299C107.066 117.306 107.05 117.321 107.041 117.34V117.34C106.888 117.626 106.717 117.903 106.528 118.167C106.585 117.483 106.081 116.941 105.397 116.199C105.685 116.94 106.021 117.661 106.404 118.357L105.948 118.984L105.834 119.127C105.958 118.338 105.397 117.73 104.627 116.884C104.945 117.704 105.313 118.504 105.729 119.279L105.055 120.135C105.197 119.232 104.513 118.538 103.543 117.54C103.657 118.186 104.494 119.232 104.959 120.249L104.722 120.543L104.256 121.085C104.389 120.135 103.657 119.374 102.611 118.31C102.735 119.003 103.686 120.135 104.142 121.228L103.324 122.178C103.419 121.228 102.688 120.363 101.68 119.203C101.775 119.954 102.688 121.19 103.134 122.388L102.459 123.11C102.564 122.064 101.765 121.142 100.672 119.878C100.767 120.686 101.756 122.036 102.241 123.329L102.06 123.519C101.756 123.842 101.433 124.156 101.11 124.469C101.271 123.395 100.492 122.293 99.4175 120.781C99.4175 121.656 100.368 123.272 100.834 124.745C100.473 125.087 100.102 125.429 99.7312 125.753C100.054 124.517 99.1703 123.272 97.9346 121.532C97.9346 122.483 99.0658 124.327 99.503 125.952L99.1703 126.237C98.8281 126.532 98.4764 126.817 98.1247 127.103C98.5334 125.781 97.6494 124.374 96.4231 122.416C96.4231 123.481 97.4783 125.515 97.849 127.312C97.4624 127.616 97.0632 127.911 96.6513 128.196C96.7773 127.749 96.8102 127.282 96.7481 126.823C96.6859 126.363 96.53 125.921 96.29 125.525C96.4041 126.656 96.4992 127.758 96.5752 128.842L96.7083 128.747C98.657 129.232 100.862 130.563 102.041 130.591C99.9878 129.146 98.5049 128.12 97.0505 128.5C97.4688 128.186 97.8775 127.863 98.2768 127.549C100.073 127.996 102.079 129.222 103.182 129.251C101.281 127.911 99.9023 126.95 98.5525 127.35C98.8566 127.093 99.1513 126.846 99.446 126.58L99.9308 126.133C101.566 126.637 103.372 127.882 104.37 127.958C102.64 126.589 101.404 125.62 100.102 125.981C100.482 125.629 100.853 125.268 101.224 124.897C102.716 125.363 104.38 126.504 105.292 126.58C103.695 125.315 102.564 124.422 101.366 124.755C101.68 124.431 101.994 124.118 102.317 123.804L102.535 123.566C103.866 124.089 105.264 125.249 106.11 125.401C104.76 124.108 103.819 123.205 102.592 123.5C102.878 123.186 103.172 122.863 103.448 122.549C104.674 123.034 105.958 124.099 106.737 124.232C105.501 123.043 104.636 122.226 103.505 122.492C103.809 122.15 104.104 121.798 104.389 121.446C105.454 121.903 106.547 122.929 107.241 123.091Z" fill="#263238"/>
<path d="M123.79 122.397C123.105 122.701 122.183 123.927 121.166 124.707L120.282 124.269C121.318 124.07 121.965 123.043 122.858 121.627C122.107 121.95 121.109 123.29 120.006 124.136L119.778 124.013C119.379 123.813 118.989 123.594 118.6 123.385C119.674 123.224 120.501 122.149 121.632 120.676C120.795 120.961 119.541 122.359 118.257 123.195C117.82 122.948 117.392 122.701 116.965 122.435C118.238 122.387 119.179 121.17 120.482 119.478C119.531 119.802 118.134 121.38 116.679 122.273L116.309 122.045L115.187 121.294C116.556 121.294 117.649 120.049 119.16 118.3C118.134 118.585 116.508 120.201 114.902 121.094C114.49 120.809 114.091 120.514 113.704 120.21C115.244 120.286 116.451 118.908 118.134 116.969C117.003 117.273 115.215 119.07 113.457 120.02L113.105 119.735C113.057 119.69 112.995 119.665 112.929 119.665C112.864 119.665 112.801 119.69 112.753 119.735C112.709 119.781 112.685 119.842 112.685 119.906C112.685 119.97 112.709 120.031 112.753 120.077L113.143 120.381C113.257 122.387 112.62 124.887 112.934 126.028C113.713 123.632 114.274 121.912 113.485 120.638C113.904 120.942 114.331 121.237 114.759 121.522C114.854 123.423 114.274 125.667 114.569 126.712C115.291 124.497 115.805 122.91 115.054 121.722L116.004 122.349L116.575 122.691C116.575 124.393 115.909 126.494 116.118 127.444C116.926 125.391 117.497 123.927 116.774 122.796C117.221 123.053 117.725 123.3 118.134 123.547C118.134 125.115 117.525 127.026 117.715 127.929C118.457 126.028 118.98 124.688 118.314 123.642L119.512 124.25L119.797 124.393C119.693 125.809 118.989 127.492 119.094 128.338C119.94 126.674 120.52 125.486 119.873 124.421L121.043 124.963C120.938 126.275 120.292 127.815 120.396 128.604C121.166 127.064 121.698 125.999 121.109 125.001C121.527 125.191 121.946 125.372 122.373 125.543C122.202 126.722 121.537 128.072 121.584 128.785C122.373 127.444 122.915 126.513 122.459 125.581L123.162 125.866L123.562 126.018C123.41 127.112 122.801 128.347 122.839 129.003C123.562 127.777 124.065 126.912 123.647 126.047C124.018 126.19 124.389 126.332 124.769 126.456C124.693 127.406 124.199 128.518 124.275 129.117C124.864 128.034 125.225 127.273 124.826 126.475L125.035 126.551C125.311 126.636 125.586 126.731 125.872 126.807C125.678 127.607 125.525 128.416 125.415 129.231C125.948 128.281 126.366 127.558 125.938 126.826C126.274 126.932 126.617 127.015 126.965 127.074C126.984 127.076 127.003 127.072 127.019 127.062C127.034 127.051 127.046 127.035 127.05 127.017C127.054 126.996 127.05 126.976 127.039 126.958C127.029 126.941 127.013 126.928 126.993 126.921V126.921C126.67 126.855 126.356 126.769 126.043 126.674C126.708 126.522 127.079 125.895 127.583 125.02C127.107 125.229 126.508 126.075 125.824 126.608L125.092 126.361L124.921 126.294C125.71 126.18 126.128 125.467 126.708 124.478C126.166 124.716 125.51 125.657 124.74 126.228C124.408 126.104 124.065 125.98 123.733 125.838C124.626 125.714 125.102 124.887 125.757 123.642C125.178 123.937 124.436 125.087 123.59 125.781L123.238 125.638L122.583 125.353C123.533 125.21 124.046 124.279 124.759 122.976C124.132 123.29 123.333 124.526 122.421 125.286C122.041 125.125 121.67 124.954 121.299 124.773C122.373 124.64 122.972 123.699 123.79 122.397Z" fill="#263238"/>
<path d="M118.306 135.069C119.036 135.443 119.785 135.78 120.549 136.077C119.722 135.326 119.133 134.803 118.344 135.003C118.515 134.698 118.677 134.394 118.819 134.052C118.824 134.043 118.826 134.032 118.827 134.022C118.827 134.012 118.826 134.001 118.822 133.992C118.818 133.982 118.813 133.973 118.806 133.966C118.799 133.958 118.791 133.952 118.781 133.947C118.772 133.943 118.762 133.94 118.751 133.94C118.741 133.94 118.731 133.941 118.721 133.945C118.711 133.948 118.703 133.954 118.695 133.961C118.687 133.968 118.681 133.976 118.677 133.985V133.985C118.534 134.28 118.382 134.565 118.22 134.85C118.22 134.166 117.688 133.653 116.966 132.949C117.297 133.667 117.675 134.363 118.097 135.031L117.688 135.687L117.584 135.839C117.65 135.041 117.061 134.47 116.234 133.681C116.605 134.474 117.02 135.245 117.479 135.991L116.871 136.894C116.956 135.991 116.224 135.326 115.198 134.404C115.35 135.041 116.3 136.029 116.776 137.018L116.557 137.322C116.424 137.512 116.272 137.702 116.129 137.892C116.205 136.942 115.426 136.219 114.314 135.231C114.485 135.915 115.502 136.98 116.025 138.082C115.777 138.415 115.521 138.738 115.264 139.033C115.264 138.082 114.523 137.265 113.439 136.181C113.582 136.913 114.57 138.082 115.084 139.261C114.881 139.521 114.672 139.778 114.456 140.031C114.456 138.976 113.648 138.13 112.479 136.913C112.621 137.712 113.696 138.995 114.266 140.259L114.095 140.459C113.8 140.801 113.506 141.134 113.201 141.457C113.296 140.383 112.441 139.318 111.3 137.883C111.376 138.757 112.45 140.307 112.964 141.752C112.621 142.113 112.279 142.474 111.928 142.826C112.165 141.581 111.205 140.383 109.865 138.729C109.96 139.679 111.177 141.448 111.709 143.045L111.405 143.349L110.407 144.299C110.73 142.959 109.76 141.609 108.42 139.736C108.42 140.801 109.665 142.769 110.15 144.489C109.779 144.822 109.399 145.145 109.009 145.44C109.437 143.957 108.382 142.465 106.88 140.383C106.88 141.552 108.249 143.7 108.781 145.63L108.42 145.915C108.394 145.935 108.373 145.96 108.357 145.988C108.341 146.017 108.331 146.048 108.327 146.08C108.323 146.112 108.325 146.145 108.334 146.176C108.342 146.207 108.357 146.237 108.377 146.262C108.397 146.288 108.422 146.309 108.45 146.325C108.478 146.341 108.509 146.352 108.542 146.356C108.574 146.359 108.607 146.357 108.638 146.348C108.669 146.34 108.698 146.325 108.724 146.305L109.104 145.991C111.082 146.343 113.372 147.541 114.551 147.493C112.403 146.181 110.863 145.24 109.437 145.716C109.827 145.383 110.216 145.031 110.597 144.68C112.412 145.012 114.513 146.105 115.597 146.067C113.61 144.851 112.175 143.986 110.844 144.442C111.129 144.166 111.414 143.9 111.69 143.615L112.156 143.14C113.81 143.539 115.692 144.661 116.69 144.68C114.874 143.425 113.591 142.531 112.308 142.978C112.669 142.598 113.011 142.217 113.353 141.828C114.884 142.189 116.604 143.225 117.527 143.244C115.853 142.084 114.675 141.267 113.496 141.666C113.791 141.333 114.076 140.991 114.361 140.649L114.561 140.392C115.93 140.83 117.412 141.904 118.249 141.999C116.814 140.792 115.825 139.955 114.618 140.335L115.416 139.328C116.671 139.727 118.011 140.706 118.8 140.792C117.489 139.689 116.576 138.89 115.464 139.261C115.739 138.9 116.015 138.529 116.281 138.158C117.393 138.596 118.553 139.556 119.257 139.67C118.135 138.605 117.355 137.854 116.338 138.082C116.49 137.883 116.633 137.674 116.776 137.474C116.918 137.274 116.937 137.227 117.023 137.113C118.04 137.512 119.105 138.396 119.76 138.501C118.724 137.55 118.002 136.828 117.07 137.037C117.298 136.707 117.517 136.375 117.726 136.039C118.677 136.343 119.627 137.075 120.198 137.141C119.247 136.314 118.639 135.734 117.755 135.991L117.878 135.801L118.306 135.069Z" fill="#263238"/>
<path d="M124.067 145.678C124.27 145.418 124.479 145.171 124.695 144.936C124.552 145.602 124.961 146.21 125.531 147.047C125.351 146.274 125.125 145.512 124.856 144.765L125.398 144.214L125.522 144.081C125.294 144.851 125.75 145.535 126.396 146.476C126.197 145.623 125.95 144.782 125.655 143.957L126.444 143.206C126.178 144.071 126.748 144.87 127.566 145.992C127.566 145.336 126.824 144.166 126.558 143.14L126.843 142.893L127.375 142.417C127.1 143.368 127.718 144.204 128.592 145.412C128.592 144.699 127.803 143.444 127.509 142.303C127.822 142.028 128.136 141.771 128.459 141.505C128.221 142.455 128.82 143.406 129.638 144.689C129.638 143.938 128.944 142.569 128.687 141.324L129.467 140.716C129.201 141.733 129.856 142.76 130.75 144.176C130.75 143.358 129.99 141.876 129.704 140.526L129.914 140.364L130.988 139.575C130.674 140.611 131.282 141.818 132.128 143.472C132.223 142.598 131.511 140.858 131.311 139.347C131.72 139.062 132.128 138.777 132.547 138.501C132.043 139.68 132.737 141.048 133.706 142.95C133.82 141.999 132.993 140.012 132.756 138.339L133.117 138.111C133.507 137.874 133.897 137.636 134.286 137.417C133.687 138.653 134.353 140.174 135.237 142.294C135.417 141.239 134.657 139.071 134.552 137.246C134.98 136.999 135.417 136.761 135.864 136.543C135.132 137.902 135.864 139.585 136.891 141.933C137.091 140.782 136.244 138.396 136.14 136.41L136.539 136.21C136.568 136.197 136.594 136.178 136.616 136.154C136.638 136.131 136.654 136.103 136.665 136.073C136.676 136.042 136.68 136.01 136.678 135.979C136.676 135.947 136.668 135.915 136.653 135.887C136.639 135.857 136.619 135.831 136.595 135.809C136.57 135.787 136.542 135.771 136.511 135.76C136.48 135.75 136.447 135.745 136.414 135.747C136.382 135.75 136.35 135.758 136.321 135.773L135.883 136.001C134.03 135.24 132.033 133.586 130.874 133.387C132.699 135.117 134.011 136.362 135.503 136.238C135.047 136.476 134.6 136.742 134.153 136.999C132.442 136.296 130.617 134.784 129.552 134.603C131.244 136.21 132.461 137.351 133.849 137.189L132.851 137.816L132.3 138.187C130.76 137.446 129.153 135.953 128.183 135.725C129.695 137.341 130.769 138.482 132.109 138.311C131.682 138.605 131.263 138.91 130.845 139.261C129.429 138.586 127.993 137.218 127.043 137.008C128.44 138.491 129.429 139.537 130.655 139.394C130.303 139.661 129.942 139.927 129.6 140.202L129.343 140.412C128.107 139.699 126.9 138.339 126.083 138.073C127.223 139.556 127.984 140.573 129.286 140.459L128.288 141.277C127.147 140.63 126.035 139.375 125.284 139.128C126.339 140.488 127.071 141.429 128.231 141.334C127.879 141.628 127.537 141.923 127.195 142.284C126.244 141.619 125.294 140.44 124.609 140.183C125.474 141.467 126.092 142.36 127.128 142.351L126.567 142.855L126.254 143.159C125.303 142.541 124.486 141.457 123.868 141.258C124.676 142.436 125.237 143.263 126.197 143.254C125.902 143.53 125.617 143.805 125.341 144.09C124.505 143.606 123.725 142.693 123.155 142.503C123.877 143.453 124.381 144.195 125.303 144.138L125.151 144.29C124.951 144.499 124.742 144.718 124.552 144.936C123.782 144.48 123.079 143.653 122.565 143.482C123.221 144.385 123.678 145.022 124.467 144.993C124.23 145.25 124.007 145.52 123.801 145.801C123.793 145.809 123.787 145.817 123.782 145.827C123.778 145.837 123.775 145.848 123.775 145.858C123.775 145.869 123.778 145.88 123.782 145.89C123.787 145.9 123.793 145.908 123.801 145.916C123.807 145.923 123.815 145.93 123.824 145.934C123.833 145.939 123.843 145.941 123.853 145.941C123.864 145.941 123.873 145.939 123.883 145.934C123.892 145.93 123.9 145.923 123.906 145.916L124.067 145.678Z" fill="#263238"/>
<path d="M112.925 159.225C113.306 158.87 113.676 158.509 114.038 158.141C115.54 158.607 117.194 159.748 118.116 159.824C116.519 158.56 115.388 157.666 114.19 157.989C114.503 157.676 114.817 157.352 115.14 157.039L115.359 156.801C116.69 157.324 118.078 158.484 118.933 158.636C117.583 157.333 116.642 156.44 115.407 156.735C115.701 156.421 115.986 156.098 116.272 155.784C117.498 156.269 118.781 157.333 119.561 157.466C118.315 156.278 117.45 155.451 116.329 155.727L117.213 154.681C118.296 155.185 119.39 156.212 120.064 156.373C119.019 155.242 118.277 154.472 117.213 154.605L117.688 154.025L117.954 153.683C118.952 154.149 119.96 155.09 120.606 155.242C119.656 154.187 118.962 153.455 118.011 153.607C118.258 153.293 118.496 152.98 118.724 152.656C119.675 153.018 120.53 153.807 121.12 153.911C120.264 153.027 119.665 152.409 118.762 152.609L118.895 152.428C119.057 152.191 119.228 151.953 119.39 151.706C120.095 152.123 120.822 152.503 121.566 152.847C120.787 152.048 120.236 151.487 119.428 151.639C119.622 151.348 119.799 151.047 119.96 150.736C119.965 150.728 119.968 150.718 119.969 150.708C119.971 150.698 119.97 150.688 119.967 150.678C119.965 150.668 119.96 150.659 119.954 150.651C119.948 150.643 119.94 150.637 119.931 150.632C119.923 150.627 119.913 150.624 119.903 150.622C119.893 150.621 119.883 150.622 119.873 150.624C119.863 150.627 119.854 150.632 119.846 150.638C119.838 150.644 119.832 150.652 119.827 150.66V150.66C119.668 150.945 119.497 151.221 119.313 151.487C119.313 150.803 118.867 150.261 118.182 149.52C118.457 150.257 118.774 150.977 119.133 151.677L118.686 152.305L118.572 152.447C118.696 151.658 118.135 151.05 117.355 150.204C117.68 151.018 118.048 151.815 118.458 152.59C118.239 152.885 118.021 153.17 117.793 153.445C117.935 152.552 117.251 151.848 116.281 150.86C116.395 151.506 117.279 152.552 117.697 153.569C117.612 153.664 117.536 153.769 117.46 153.864L116.994 154.406C117.127 153.455 116.395 152.695 115.349 151.63C115.473 152.324 116.424 153.445 116.88 154.548L116.062 155.499C116.157 154.548 115.426 153.683 114.418 152.523C114.503 153.265 115.368 154.51 115.863 155.708L115.188 156.43C115.292 155.375 114.503 154.463 113.41 153.198C113.505 154.006 114.494 155.356 114.979 156.649L114.798 156.839L113.848 157.79C114.009 156.716 113.22 155.603 112.146 154.101C112.146 154.976 113.144 156.592 113.562 158.065L112.469 159.073C112.783 157.837 111.908 156.592 110.663 154.852C110.663 155.803 111.804 157.647 112.241 159.273L111.908 159.558C111.566 159.852 111.214 160.138 110.863 160.413C111.271 159.102 110.387 157.695 109.161 155.736C109.161 156.792 110.188 158.788 110.568 160.565H111.3C111.595 160.318 111.889 160.071 112.175 159.814C112.46 159.558 112.507 159.52 112.669 159.368C113.793 159.791 114.891 160.28 115.958 160.832H116.68C115.254 159.7 114.114 158.892 112.925 159.225Z" fill="#263238"/>
<path d="M107.669 156.293C107.669 157.244 108.382 158.803 108.886 160.39L109.608 160.447C109.523 159.268 108.715 157.966 107.669 156.293Z" fill="#263238"/>
<path d="M111.442 160.583L112.878 160.669C112.417 160.505 111.919 160.475 111.442 160.583V160.583Z" fill="#263238"/>
<path d="M139.104 158.588C139.133 158.533 139.159 158.475 139.18 158.417L138.838 158.293L138.667 158.236C138.935 158.191 139.185 158.073 139.389 157.894C139.475 157.647 139.56 157.381 139.636 157.086C139.281 157.476 138.897 157.838 138.486 158.17L137.45 157.799C138.344 157.666 138.819 156.848 139.475 155.593C138.895 155.888 138.153 157.038 137.307 157.742L136.956 157.599L136.3 157.314C137.25 157.162 137.764 156.24 138.477 154.928C137.849 155.251 137.051 156.487 136.138 157.248L135.017 156.734C135.967 156.535 136.556 155.593 137.374 154.291C136.69 154.595 135.768 155.831 134.75 156.611L133.866 156.173C134.902 155.964 135.549 154.938 136.442 153.521C135.691 153.854 134.693 155.194 133.591 156.031L133.363 155.917L132.184 155.28C133.258 155.118 134.085 154.044 135.216 152.58C134.38 152.865 133.125 154.263 131.842 155.09C131.404 154.852 130.977 154.595 130.549 154.339C131.823 154.282 132.764 153.074 134.066 151.382C133.115 151.696 131.718 153.284 130.264 154.177L129.893 153.949C129.513 153.702 129.142 153.455 128.771 153.188C130.14 153.188 131.233 151.943 132.745 150.204C131.718 150.489 130.092 152.105 128.486 152.998L127.279 152.105C128.828 152.181 130.035 150.802 131.718 148.863C130.587 149.177 128.8 150.964 127.041 151.915L126.689 151.639C126.664 151.619 126.634 151.604 126.603 151.596C126.572 151.587 126.539 151.585 126.507 151.589C126.442 151.597 126.383 151.63 126.342 151.682C126.302 151.733 126.284 151.799 126.292 151.864C126.3 151.929 126.333 151.988 126.385 152.029L126.775 152.323C126.889 154.329 126.252 156.839 126.566 157.97C127.345 155.584 127.906 153.863 127.117 152.58C127.535 152.894 127.963 153.188 128.391 153.474C128.486 155.318 127.906 157.618 128.201 158.664C128.923 156.44 129.437 154.862 128.686 153.673C129.018 153.882 129.341 154.101 129.636 154.301L130.207 154.643C130.207 156.344 129.541 158.445 129.75 159.396C130.558 157.333 131.129 155.879 130.406 154.738C130.853 155.004 131.357 155.251 131.766 155.489C131.766 157.057 131.157 158.978 131.347 159.871C132.089 157.97 132.612 156.639 131.946 155.593L133.144 156.192L133.429 156.335C133.324 157.761 132.621 159.434 132.726 160.289C133.572 158.616 134.152 157.438 133.505 156.373L134.674 156.915C134.579 158.189 133.971 159.662 134.018 160.47H134.066C134.817 158.987 135.321 157.941 134.741 156.953L136.005 157.504C135.863 158.455 135.406 159.519 135.264 160.27L135.52 160.223C136.129 159.158 136.471 158.322 136.091 157.542L136.785 157.818L137.193 157.979C137.062 158.65 136.884 159.311 136.661 159.957L137.098 159.824C137.273 159.558 137.38 159.254 137.412 158.938C137.443 158.622 137.398 158.303 137.279 158.008L138.401 158.417C138.367 158.738 138.307 159.056 138.22 159.367C138.365 159.295 138.505 159.212 138.638 159.12C138.643 158.877 138.58 158.637 138.458 158.426L138.667 158.493L139.104 158.588Z" fill="#263238"/>
<path d="M102.525 138.786C102.587 138.766 102.639 138.724 102.671 138.667C102.702 138.611 102.712 138.544 102.696 138.482C102.679 138.419 102.637 138.365 102.58 138.333C102.523 138.301 102.455 138.293 102.392 138.31L101.917 138.453C100.234 137.36 98.5899 135.364 97.4872 134.945C98.9511 136.989 100.006 138.453 101.508 138.577C101.014 138.729 100.558 138.9 100.035 139.08C98.8941 138.329 97.7724 137.179 96.8503 136.419C96.8503 136.637 96.8503 136.846 96.8503 137.065C97.8009 138.301 98.6279 139.128 99.7021 139.204C99.3314 139.337 98.9701 139.48 98.6089 139.632L97.991 139.888C97.5852 139.582 97.2009 139.249 96.8408 138.89C96.8408 139.156 96.8408 139.413 96.8408 139.679C97.1307 139.851 97.4557 139.955 97.7914 139.983L96.8408 140.43C96.8408 140.563 96.8408 140.696 96.8408 140.829L98.1241 140.278C97.4112 141.343 97.8389 142.816 98.4283 144.86C98.723 143.909 98.2762 141.847 98.4283 140.164L98.8276 140.002L100.101 139.537C99.2839 140.649 99.6451 142.274 100.168 144.518C100.539 143.52 100.168 141.248 100.425 139.432C100.9 139.27 101.375 139.118 101.85 138.985C100.9 140.193 101.28 141.97 101.85 144.48C102.259 143.387 101.85 140.887 102.145 138.909L102.525 138.786Z" fill="#263238"/>
<path d="M96.6514 144.707C96.6514 144.821 96.7084 144.926 96.7464 145.049C96.8679 144.223 96.8679 143.384 96.7464 142.559C96.7179 143.291 96.6894 144.013 96.6514 144.707Z" fill="#263238"/>
<path d="M100.017 158.615L99.6652 158.054C100.435 156.533 101.975 154.965 102.222 153.995C100.568 155.469 99.3705 156.514 99.5416 157.855C99.2564 157.418 98.9617 156.999 98.6671 156.572C99.38 155.174 100.787 153.72 101.025 152.855C99.5036 154.205 98.4294 155.165 98.5435 156.4L97.7545 155.317L97.5644 155.06C98.2963 153.843 99.6842 152.665 99.9789 151.857C98.4674 152.959 97.4218 153.758 97.5169 155.003L96.7183 153.986C97.4028 152.864 98.6766 151.781 98.9427 151.039C97.5549 152.056 96.5948 152.76 96.6708 153.891L96.0814 153.187V153.587L96.4237 154.005C96.3049 153.977 96.1841 153.958 96.0624 153.948C96.0624 154.09 96.0624 154.224 96.0624 154.366L96.6138 154.233L97.2127 155.032C96.8279 154.918 96.4186 154.918 96.0339 155.032V155.621C96.4864 155.462 96.9504 155.338 97.4218 155.25L97.5739 155.45L98.3439 156.553C97.5579 156.381 96.7367 156.492 96.0244 156.866C96.0244 157.037 96.0244 157.218 96.0244 157.389C96.8638 157.172 97.7142 157.001 98.572 156.876C98.8477 157.294 99.1138 157.712 99.3705 158.14C98.4674 157.722 97.4693 158.035 96.091 158.625C96.091 158.748 96.091 158.891 96.091 159.005H96.3001C97.3555 158.734 98.4249 158.522 99.5036 158.368L99.7317 158.739L100.14 159.471L100.673 159.537C100.426 159.281 100.226 158.948 100.017 158.615Z" fill="#263238"/>
<path d="M96.2998 149.985V150.431C96.5675 150.181 96.7922 149.889 96.9652 149.566L96.2998 149.985Z" fill="#263238"/>
<path d="M101.89 159.758L102.736 159.853C103.449 158.904 104.028 157.861 104.456 156.754C103.467 157.633 102.604 158.644 101.89 159.758V159.758Z" fill="#263238"/>
<path d="M100.929 159.698C101.718 158.091 103.116 156.437 103.315 155.43C101.661 157.084 100.463 158.281 100.616 159.66L100.929 159.698Z" fill="#263238"/>
<path d="M96.1755 151.686C96.1755 151.942 96.1755 152.19 96.1279 152.437C96.8021 151.797 97.4133 151.093 97.9531 150.336C97.3033 150.705 96.7056 151.159 96.1755 151.686V151.686Z" fill="#263238"/>
</g>
<path d="M162.166 128.443L166.368 123.984L172.195 132.188C172.195 132.188 167.28 135.667 162.575 135.534L162.033 134.327C161.598 133.403 161.384 132.39 161.407 131.369C161.43 130.348 161.69 129.346 162.166 128.443V128.443Z" fill="#FFB573"/>
<path d="M173.147 124.421L174.791 127.511C175.152 128.189 175.23 128.983 175.007 129.719C174.784 130.454 174.28 131.072 173.603 131.436L172.234 132.187L166.407 123.984L169.744 123.033C170.384 122.838 171.072 122.869 171.692 123.122C172.312 123.374 172.826 123.833 173.147 124.421V124.421Z" fill="#FFB573"/>
<path d="M139.998 112.444L140.359 114.259L140.758 116.16C141.044 117.444 141.319 118.737 141.643 119.963C142.26 122.51 143.002 125.01 143.791 127.425C144.578 129.743 145.531 132.002 146.643 134.184C147.531 135.978 148.707 137.615 150.122 139.032L148.107 138.081C147.517 138.005 147.403 138.186 147.717 138.176C148.216 138.122 148.702 137.981 149.152 137.758C150.577 137.104 151.933 136.311 153.202 135.391C154.618 134.44 156.054 133.319 157.47 132.168C158.886 131.018 160.322 129.792 161.71 128.661L161.862 128.547C162.457 128.061 163.201 127.794 163.969 127.792C164.738 127.79 165.483 128.053 166.081 128.535C166.679 129.018 167.092 129.692 167.251 130.444C167.411 131.195 167.307 131.979 166.957 132.663C166.002 134.484 164.939 136.246 163.772 137.938C162.584 139.653 161.288 141.291 159.894 142.844C158.373 144.556 156.653 146.082 154.77 147.387C153.591 148.183 152.312 148.823 150.968 149.289C150.101 149.591 149.201 149.789 148.287 149.878C147.153 149.978 146.01 149.895 144.903 149.631C144.256 149.475 143.646 149.194 143.106 148.804L142.878 148.633C139.958 146.446 137.5 143.703 135.644 140.562C134.776 139.149 133.997 137.723 133.306 136.284C132.615 134.846 131.981 133.407 131.405 131.969C130.305 129.13 129.371 126.228 128.61 123.28C128.239 121.816 127.887 120.362 127.593 118.889C127.45 118.147 127.298 117.415 127.174 116.664C127.051 115.913 126.937 115.21 126.813 114.316C126.593 112.608 127.044 110.882 128.071 109.499C129.098 108.117 130.62 107.186 132.319 106.903C134.018 106.62 135.76 107.006 137.179 107.981C138.599 108.956 139.586 110.443 139.931 112.13L139.998 112.444Z" fill="#FFB573"/>
<path d="M130.883 102.462C136.415 103.033 140.835 106.702 143.925 118.385C141.548 121.674 126.577 128.889 126.577 128.889C126.577 128.889 118.24 101.16 130.883 102.462Z" fill="#263238"/>
</svg>
