<svg width="137" height="125" viewBox="0 0 137 125" fill="none" xmlns="http://www.w3.org/2000/svg">
<path d="M20.0901 112.797C46.8288 128.646 90.1835 128.646 116.922 112.797C143.661 96.9471 143.661 71.2493 116.922 55.3963C90.1835 39.5433 46.841 39.5467 20.0901 55.3963C-6.66076 71.2458 -6.6363 96.9471 20.0901 112.797Z" fill="#F5F5F5"/>
<path d="M12.6371 86.8031L3.94531 81.1106V59.957L12.6371 65.653V86.8031Z" fill="#E0E0E0"/>
<path d="M12.637 65.6522L25.0555 57.5176V78.6677L12.637 86.8023V65.6522Z" fill="#EBEBEB"/>
<path d="M25.0556 57.5183L12.6371 65.6529L3.94531 59.9569L16.3638 51.8223L25.0556 57.5183Z" fill="#F5F5F5"/>
<path d="M13.8812 66.4648L23.8142 59.957L24.0435 60.1062V67.9425L14.1075 74.4502L13.8782 74.3011L13.8812 66.4648Z" fill="#E0E0E0"/>
<path d="M14.1074 66.6176L24.0435 60.1064V67.9428L14.1074 74.4505V66.6176Z" fill="#F5F5F5"/>
<path d="M18.0024 65.3931L19.6931 64.2865C19.9101 64.1408 20.0875 64.2067 20.0875 64.4322C20.0717 64.5703 20.0279 64.7023 19.9594 64.8179C19.891 64.9335 19.7998 65.0295 19.6931 65.0982L18.0024 66.2048C17.7823 66.3505 17.605 66.2846 17.605 66.0591C17.6208 65.9206 17.665 65.7882 17.734 65.6726C17.8031 65.5569 17.895 65.4612 18.0024 65.3931Z" fill="#E0E0E0"/>
<path d="M13.6521 76.3778L23.5851 69.8701V77.7064L23.8144 77.8556L13.8783 84.3633L13.6521 84.2141V76.3778Z" fill="#E0E0E0"/>
<path d="M13.8782 76.5282L23.8142 70.0205V77.8568L13.8782 84.3645V76.5282Z" fill="#F5F5F5"/>
<path d="M17.773 75.3076L19.479 74.2045C19.6991 74.0588 19.8764 74.1247 19.8764 74.3502C19.8606 74.4887 19.8164 74.621 19.7473 74.7367C19.6783 74.8523 19.5864 74.9481 19.479 75.0162L17.7883 76.1228C17.5682 76.2685 17.3909 76.2026 17.3909 75.9771C17.4046 75.8396 17.4463 75.7075 17.5126 75.5914C17.5789 75.4752 17.668 75.378 17.773 75.3076Z" fill="#E0E0E0"/>
<path d="M12.6371 64.431L3.94531 58.735V37.585L12.6371 43.2775V64.431Z" fill="#E0E0E0"/>
<path d="M12.637 43.2772L25.0555 35.1426V56.2961L12.637 64.4308V43.2772Z" fill="#EBEBEB"/>
<path d="M25.0553 35.1437L12.6368 43.2783L3.94507 37.5858L16.3636 29.4512L25.0553 35.1437Z" fill="#F5F5F5"/>
<path d="M13.8782 44.0927L23.8142 37.585L24.0435 37.7341V45.5704L14.1075 52.0782L13.8782 51.9255V44.0927Z" fill="#E0E0E0"/>
<path d="M18.0024 43.0175L19.69 41.9109C19.9101 41.7687 20.0875 41.8346 20.0875 42.0601C20.0711 42.1984 20.0268 42.3306 19.9578 42.4461C19.8888 42.5617 19.7972 42.6575 19.69 42.7261L18.0024 43.8327C17.7823 43.9749 17.605 43.9125 17.605 43.687C17.6211 43.5481 17.6653 43.4154 17.7343 43.2992C17.8033 43.183 17.895 43.0866 18.0024 43.0175Z" fill="#E0E0E0"/>
<path d="M13.6521 54.0077L23.5851 47.5V55.3328L23.8144 55.482L13.8783 61.9897L13.6521 61.8406V54.0077Z" fill="#E0E0E0"/>
<path d="M13.8782 54.1562L23.8142 47.6484V55.4813L13.8782 61.989V54.1562Z" fill="#F5F5F5"/>
<path d="M17.7729 52.9325L19.4789 51.8259C19.6959 51.6837 19.8763 51.7496 19.8763 51.9751C19.8591 52.1131 19.8144 52.2448 19.7455 52.3603C19.6766 52.4757 19.5854 52.5717 19.4789 52.6411L17.7729 53.7373C17.5528 53.8795 17.3755 53.8136 17.3755 53.5916C17.3929 53.4546 17.4378 53.3239 17.5067 53.2097C17.5756 53.0954 17.6667 53.0006 17.7729 52.9325Z" fill="#E0E0E0"/>
<path d="M13.8782 44.0927L23.8142 37.585V45.4178L13.8782 51.9255V44.0927Z" fill="#E0E0E0"/>
<path d="M28.7819 41.4571L23.343 37.8945V44.7977L28.7819 48.3568V41.4571Z" fill="#E0E0E0"/>
<path d="M17.605 53.0433V43.2783L19.7359 41.8768L20.0875 42.4665L26.2967 38.3975V47.3473L17.605 53.0433Z" fill="#EBEBEB"/>
<path d="M17.605 53.0431L18.2256 44.4992L26.9173 38.8066L26.2967 47.3471L17.605 53.0431Z" fill="#F5F5F5"/>
<path d="M18.8461 47.965L14.1074 44.8604V51.7635L18.8461 54.8647V47.965Z" fill="#EBEBEB"/>
<path d="M18.8459 47.3466L28.782 40.8389V48.6717L18.8459 55.1794V47.3466Z" fill="#F5F5F5"/>
<path d="M22.7409 46.122L24.4285 45.0154C24.6487 44.8732 24.826 44.9391 24.826 45.1645C24.8094 45.3028 24.765 45.4349 24.696 45.5504C24.6271 45.6659 24.5355 45.7618 24.4285 45.8306L22.7409 46.9372C22.5208 47.0794 22.3435 47.0135 22.3435 46.7915C22.3596 46.6526 22.4039 46.5199 22.4728 46.4037C22.5418 46.2875 22.6336 46.1911 22.7409 46.122Z" fill="#E0E0E0"/>
<path d="M18.8463 47.3469L18.5161 47.1318V54.9647L18.8463 55.1798V47.3469Z" fill="#E0E0E0"/>
<path d="M18.5161 47.1323L28.4491 40.6211L28.7823 40.8396L18.8463 47.3474L18.5161 47.1323Z" fill="#EBEBEB"/>
<path d="M115.323 73.9886L106.628 68.2927V47.1426L115.323 52.8351V73.9886Z" fill="#E0E0E0"/>
<path d="M115.324 52.8348L127.742 44.7002V65.8537L115.324 73.9884V52.8348Z" fill="#EBEBEB"/>
<path d="M127.742 44.6999L115.323 52.8345L106.628 47.142L119.05 39.0039L127.742 44.6999Z" fill="#F5F5F5"/>
<path d="M116.565 53.6503L126.501 47.1426L126.731 47.2917L126.727 55.1246L116.794 61.6323L116.565 61.4831V53.6503Z" fill="#E0E0E0"/>
<path d="M116.794 53.7987L126.73 47.291L126.727 55.1239L116.794 61.6316V53.7987Z" fill="#F5F5F5"/>
<path d="M120.689 52.5753L122.377 51.4687C122.597 51.3264 122.774 51.3923 122.774 51.6144C122.758 51.7532 122.714 51.886 122.645 52.0021C122.576 52.1183 122.484 52.2148 122.377 52.2839L120.689 53.3905C120.469 53.5327 120.292 53.4668 120.292 53.2448C120.308 53.1059 120.352 52.9731 120.421 52.857C120.49 52.7408 120.582 52.6444 120.689 52.5753Z" fill="#E0E0E0"/>
<path d="M116.335 63.5639L126.271 57.0527V64.889L126.501 65.0382L116.565 71.5459L116.335 71.3968V63.5639Z" fill="#E0E0E0"/>
<path d="M116.565 63.7128L126.501 57.2051V65.0379L116.565 71.5456V63.7128Z" fill="#F5F5F5"/>
<path d="M120.46 62.4893L122.151 61.3827C122.368 61.2405 122.545 61.3064 122.545 61.5284C122.529 61.6668 122.485 61.7991 122.416 61.9152C122.348 62.0313 122.257 62.128 122.151 62.1979L120.46 63.3045C120.24 63.4467 120.062 63.3808 120.062 63.1554C120.079 63.0171 120.124 62.885 120.192 62.7695C120.261 62.654 120.353 62.5581 120.46 62.4893Z" fill="#E0E0E0"/>
<path d="M32.6248 96.0955C32.6248 96.0955 32.6584 90.5938 29.6012 86.4692C26.8955 82.8164 25.4555 80.4992 26.3085 79.4308C27.1615 78.3623 28.9958 78.1056 31.4691 81.0612C33.9425 84.0167 34.1351 92.2034 33.7926 94.0558L32.6248 96.0955Z" fill="#1E8EFF"/>
<path opacity="0.2" d="M32.6248 96.0955C32.6248 96.0955 32.6584 90.5938 29.6012 86.4692C26.8955 82.8164 25.4555 80.4992 26.3085 79.4308C27.1615 78.3623 28.9958 78.1056 31.4691 81.0612C33.9425 84.0167 34.1351 92.2034 33.7926 94.0558L32.6248 96.0955Z" fill="black"/>
<path d="M33.1387 90.1811C33.1039 90.1813 33.07 90.168 33.0428 90.1434C33.0156 90.1188 32.9965 90.0844 32.9889 90.0459C31.9188 84.3672 29.1734 81.2278 27.6295 79.8611C27.5976 79.833 27.5767 79.7916 27.5716 79.7461C27.5664 79.7006 27.5774 79.6546 27.602 79.6182C27.6273 79.5818 27.6643 79.558 27.7049 79.5522C27.7455 79.5463 27.7865 79.5589 27.8191 79.587C29.3936 80.9746 32.197 84.1868 33.2885 89.973C33.293 89.9951 33.2935 90.018 33.29 90.0404C33.2866 90.0627 33.2793 90.0841 33.2684 90.1031C33.2576 90.1222 33.2435 90.1386 33.227 90.1514C33.2105 90.1642 33.1919 90.1732 33.1723 90.1777L33.1387 90.1811Z" fill="white"/>
<path d="M32.5087 98.1374L31.2644 98.9526C31.1317 98.5411 30.9078 98.1753 30.6144 97.8903C30.321 97.6054 29.9679 97.4109 29.589 97.3257C28.2286 96.9788 26.8161 97.0378 25.8623 95.6988C24.9084 94.3597 26.0701 92.9028 25.8623 91.9176C25.6544 90.9324 25.5198 90.648 23.8139 89.6628C22.108 88.6776 21.4354 87.0438 22.7194 85.9372C24.0034 84.8306 26.0824 85.6423 27.342 86.631C28.4609 87.4982 29.5248 87.7271 30.7752 87.9041C32.0257 88.081 34.0618 88.8684 33.7499 92.1639C33.5457 94.2037 33.1291 96.2089 32.5087 98.1374Z" fill="#1E8EFF"/>
<path d="M27.7331 93.8084C27.7005 93.8081 27.6688 93.7962 27.6425 93.7744C27.6162 93.7527 27.5965 93.7221 27.5863 93.687C27.5747 93.6428 27.5788 93.5953 27.5976 93.5545C27.6165 93.5137 27.6486 93.4828 27.6872 93.4685C27.7973 93.4303 30.4387 92.4798 31.5607 93.4997C31.5886 93.5295 31.6055 93.5701 31.6083 93.6134C31.611 93.6568 31.5993 93.6997 31.5755 93.7337C31.5516 93.7677 31.5174 93.7904 31.4796 93.7971C31.4418 93.8039 31.4031 93.7943 31.3712 93.7703C30.3806 92.8683 27.8064 93.7911 27.7789 93.8015L27.7331 93.8084Z" fill="white"/>
<path d="M32.6464 97.8743C32.6092 97.8745 32.5732 97.859 32.5455 97.8308C32.5179 97.8026 32.5004 97.7637 32.4966 97.7217C31.8148 90.4161 24.0586 86.9507 23.9822 86.916C23.9632 86.9079 23.9459 86.8956 23.9311 86.8799C23.9164 86.8641 23.9046 86.8452 23.8963 86.8243C23.8881 86.8033 23.8836 86.7806 23.8831 86.7577C23.8826 86.7347 23.8862 86.7119 23.8935 86.6905C23.9086 86.6484 23.9372 86.6146 23.9737 86.5959C24.0101 86.5771 24.0514 86.575 24.0892 86.5899C24.1717 86.628 32.0992 90.1663 32.7993 97.6905C32.8036 97.736 32.7919 97.7816 32.7667 97.8173C32.7415 97.853 32.7048 97.876 32.6648 97.8813L32.6464 97.8743Z" fill="white"/>
<path d="M108.689 93.3404C108.723 93.219 110.034 85.5596 108.689 80.1272C107.466 75.1459 105.871 73.3073 103.596 72.9015C101.321 72.4956 100.334 74.3549 101.541 76.8734C102.749 79.3918 105.656 82.7324 106.369 88.359C106.675 90.6763 106.907 92.6882 106.907 92.6882L108.689 93.3404Z" fill="#1E8EFF"/>
<path opacity="0.2" d="M108.689 93.3404C108.723 93.219 110.034 85.5596 108.689 80.1272C107.466 75.1459 105.871 73.3073 103.596 72.9015C101.321 72.4956 100.334 74.3549 101.541 76.8734C102.749 79.3918 105.656 82.7324 106.369 88.359C106.675 90.6763 106.907 92.6882 106.907 92.6882L108.689 93.3404Z" fill="black"/>
<path d="M107.921 88.9429C107.901 88.9416 107.882 88.9358 107.864 88.9258C107.845 88.9159 107.829 88.9019 107.816 88.8849C107.803 88.8678 107.792 88.8479 107.786 88.8263C107.779 88.8047 107.776 88.7819 107.778 88.7591C108.083 82.5566 106.298 77.0202 103.097 74.304C103.065 74.2764 103.043 74.2353 103.037 74.1898C103.032 74.1443 103.042 74.098 103.066 74.0612C103.091 74.0252 103.127 74.0014 103.167 73.9949C103.207 73.9885 103.248 73.9998 103.28 74.0265C106.561 76.8017 108.401 82.463 108.08 88.7799C108.078 88.8253 108.06 88.8678 108.03 88.8983C108.001 88.9288 107.961 88.9448 107.921 88.9429Z" fill="white"/>
<path d="M112.208 97.3291C112.034 95.9034 112.755 93.7665 114.47 93.2601C116.185 92.7536 116.95 91.6366 116.332 90.4155C115.715 89.1945 115.858 88.074 117.415 87.5675C118.971 87.0611 120.334 86.18 119.438 84.3137C118.787 82.9643 118.644 82.0901 120.239 79.4329C121.563 77.2267 120.481 75.9328 118.824 76.1756C117.167 76.4184 116.143 78.6593 115.106 79.034C114.07 79.4086 113.831 77.4105 112.465 78.3055C111.098 79.2005 111.181 81.4935 111.138 83.0926C111.095 84.6918 111.003 85.0526 109.768 84.8583C108.533 84.6641 107.323 84.893 107.35 88.2821C107.371 91.1891 108.738 94.7899 108.738 94.7899L112.208 97.3291Z" fill="#1E8EFF"/>
<path d="M110.04 95.162H110.025C109.984 95.1567 109.947 95.1334 109.921 95.097C109.895 95.0606 109.883 95.0141 109.887 94.9677C110.749 86.2295 117.359 78.858 119.084 77.3629C119.116 77.3348 119.157 77.3225 119.197 77.3287C119.238 77.3349 119.274 77.359 119.299 77.3958C119.324 77.4326 119.335 77.4791 119.329 77.525C119.324 77.5708 119.302 77.6123 119.27 77.6404C117.567 79.1147 111.043 86.3891 110.193 95.0059C110.189 95.0485 110.171 95.0879 110.143 95.1166C110.114 95.1453 110.078 95.1614 110.04 95.162Z" fill="white"/>
<path d="M113.054 85.8206C113.023 85.8203 112.993 85.8097 112.968 85.7899C112.942 85.7701 112.922 85.7422 112.911 85.7096C112.898 85.6658 112.9 85.618 112.917 85.5761C112.934 85.5341 112.965 85.5012 113.002 85.4841C115.467 84.4434 118.261 84.936 118.38 84.9568C118.42 84.9645 118.455 84.9895 118.479 85.0265C118.502 85.0635 118.512 85.1095 118.506 85.1545C118.498 85.1993 118.476 85.2392 118.444 85.2662C118.411 85.2933 118.371 85.3054 118.331 85.3002C118.304 85.3002 115.497 84.8007 113.109 85.8102C113.092 85.817 113.073 85.8205 113.054 85.8206Z" fill="white"/>
<path d="M110.86 91.072C110.838 91.0717 110.817 91.0663 110.798 91.0562C110.778 91.046 110.761 91.0313 110.747 91.013C109.722 89.6589 109.027 88.0241 108.732 86.271C108.729 86.2485 108.73 86.2254 108.735 86.2033C108.739 86.1811 108.748 86.1603 108.76 86.1419C108.772 86.1235 108.787 86.108 108.804 86.0963C108.821 86.0845 108.84 86.0767 108.86 86.0733C108.88 86.0698 108.901 86.0709 108.92 86.0763C108.94 86.0818 108.958 86.0916 108.974 86.1051C108.99 86.1186 109.004 86.1357 109.014 86.1552C109.025 86.1747 109.032 86.1964 109.035 86.219C109.327 87.903 109.995 89.4737 110.976 90.7806C110.995 90.8062 111.007 90.8373 111.012 90.8705C111.016 90.9037 111.011 90.9375 110.999 90.968C110.987 90.9986 110.967 91.0245 110.943 91.043C110.918 91.0614 110.889 91.0714 110.86 91.072Z" fill="white"/>
<path d="M32.509 44.4515V98.1437L80.9419 66.4168L80.9388 17.6055L44.9276 41.1977L43.6833 37.1286L32.509 44.4515Z" fill="#1E8EFF"/>
<path opacity="0.7" d="M32.509 44.4515V98.1437L80.9419 66.4168L80.9388 17.6055L44.9276 41.1977L43.6833 37.1286L32.509 44.4515Z" fill="black"/>
<path d="M32.509 98.1437L34.9915 49.3323L83.4243 17.6055L80.9419 66.4168L32.509 98.1437Z" fill="#E0E0E0"/>
<path d="M32.509 98.1425L36.2328 50.1463L84.6656 18.416L80.9419 66.4156L32.509 98.1425Z" fill="#1E8EFF"/>
<path opacity="0.7" d="M32.509 98.1425L36.2328 50.1463L84.6656 18.416L80.9419 66.4156L32.509 98.1425Z" fill="black"/>
<path d="M39.959 49.3304V103.026L88.3918 71.2957V22.4844L52.3775 46.0766L51.1363 42.0075L39.959 49.3304Z" fill="#1E8EFF"/>
<path opacity="0.5" d="M39.959 49.3304V103.026L88.3918 71.2957V22.4844L52.3775 46.0766L51.1363 42.0075L39.959 49.3304Z" fill="black"/>
<path d="M39.959 103.026L42.4415 54.2112L90.8743 22.4844L88.3918 71.2957L39.959 103.026Z" fill="#E0E0E0"/>
<path d="M39.959 103.025L43.6827 55.0252L92.1155 23.2949L88.3918 71.2945L39.959 103.025Z" fill="#1E8EFF"/>
<path opacity="0.5" d="M39.959 103.025L43.6827 55.0252L92.1155 23.2949L88.3918 71.2945L39.959 103.025Z" fill="black"/>
<path d="M80.9297 120.112C72.2349 114.416 64.1699 108.224 60.489 100.96L71.6785 93.6299L80.9297 120.112Z" fill="#E0E0E0"/>
<path d="M48.6511 55.0277V108.72L97.084 76.993V28.1816L61.0696 51.7738L59.8284 47.7048L48.6511 55.0277Z" fill="#1E8EFF"/>
<path opacity="0.2" d="M48.6511 55.0277V108.72L97.084 76.993V28.1816L61.0696 51.7738L59.8284 47.7048L48.6511 55.0277Z" fill="black"/>
<path d="M62.6047 70.9012C62.4825 70.9012 62.4641 70.7416 62.4641 70.6479V24.858C62.4739 24.6804 62.5199 24.5078 62.5984 24.3537C62.6769 24.1996 62.7858 24.0683 62.9166 23.97L97.8731 1.07504C97.9209 1.04116 97.9757 1.02202 98.0321 1.01953C98.1544 1.01953 98.1727 1.1791 98.1727 1.27276V47.0627C98.1631 47.2408 98.1173 47.4141 98.0388 47.5687C97.9603 47.7234 97.8512 47.8553 97.7202 47.9542L62.7637 70.8491C62.7154 70.8814 62.6607 70.8993 62.6047 70.9012Z" fill="white"/>
<path d="M98.0136 1.17942C98.0161 1.20478 98.0161 1.23037 98.0136 1.25573V47.0456C98.0036 47.1933 97.9646 47.3366 97.8995 47.465C97.8345 47.5934 97.745 47.7038 97.6376 47.788L62.6811 70.6829L62.6199 70.7142C62.6159 70.6889 62.6159 70.6631 62.6199 70.6378V24.8479C62.6304 24.7009 62.6696 24.5583 62.7347 24.4305C62.7997 24.3027 62.889 24.1929 62.996 24.1091L97.9525 1.21411C97.9718 1.1988 97.9936 1.18818 98.0167 1.18289M98.035 0.835993C97.9518 0.838805 97.8706 0.866314 97.7996 0.91578L62.8431 23.8107C62.6894 23.9253 62.5616 24.0791 62.4697 24.2598C62.3779 24.4405 62.3246 24.6431 62.3142 24.8514V70.6413C62.3142 70.9119 62.4334 71.068 62.6199 71.068C62.7032 71.0655 62.7845 71.038 62.8553 70.9882L97.8119 48.0933C97.9662 47.9795 98.0946 47.8259 98.1865 47.645C98.2785 47.4641 98.3313 47.2611 98.3408 47.0526V1.26267C98.3408 0.992096 98.2215 0.832524 98.035 0.835993Z" fill="#1E8EFF"/>
<path opacity="0.7" d="M98.0136 1.17942C98.0161 1.20478 98.0161 1.23037 98.0136 1.25573V47.0456C98.0036 47.1933 97.9646 47.3366 97.8995 47.465C97.8345 47.5934 97.745 47.7038 97.6376 47.788L62.6811 70.6829L62.6199 70.7142C62.6159 70.6889 62.6159 70.6631 62.6199 70.6378V24.8479C62.6304 24.7009 62.6696 24.5583 62.7347 24.4305C62.7997 24.3027 62.889 24.1929 62.996 24.1091L97.9525 1.21411C97.9718 1.1988 97.9936 1.18818 98.0167 1.18289M98.035 0.835993C97.9518 0.838805 97.8706 0.866314 97.7996 0.91578L62.8431 23.8107C62.6894 23.9253 62.5616 24.0791 62.4697 24.2598C62.3779 24.4405 62.3246 24.6431 62.3142 24.8514V70.6413C62.3142 70.9119 62.4334 71.068 62.6199 71.068C62.7032 71.0655 62.7845 71.038 62.8553 70.9882L97.8119 48.0933C97.9662 47.9795 98.0946 47.8259 98.1865 47.645C98.2785 47.4641 98.3313 47.2611 98.3408 47.0526V1.26267C98.3408 0.992096 98.2215 0.832524 98.035 0.835993Z" fill="white"/>
<path d="M66.0376 26.5966L78.4561 18.4619V34.7312L66.0376 42.8659V26.5966Z" fill="#1E8EFF"/>
<path opacity="0.8" d="M66.0376 26.5966L78.4561 18.4619V34.7312L66.0376 42.8659V26.5966Z" fill="white"/>
<path d="M76.5944 22.5156V27.4068L76.2031 27.6531V26.158C76.2031 25.3324 75.6131 25.0514 74.8793 25.5301L69.6178 28.9817C68.8871 29.4604 68.294 30.5184 68.294 31.3441V32.8392L67.9058 33.1028V28.222L76.5944 22.5156Z" fill="white"/>
<path d="M74.2035 34.9703C73.5676 35.3865 73.051 34.9495 73.051 33.9886V26.1592L71.452 27.1444V35.0362C71.452 35.9936 70.9353 37.1175 70.2994 37.5234L69.1438 38.2796V38.8L75.3531 34.7309V34.214L74.2035 34.9703Z" fill="white"/>
<path d="M80.9297 17.6612C80.9297 18.1122 81.2874 18.2405 81.7246 17.9561L93.8068 10.0295C94.0212 9.89167 94.2045 9.69935 94.3424 9.46764C94.4803 9.23593 94.569 8.97114 94.6017 8.69401C94.6017 8.24652 94.244 8.11469 93.8068 8.40262L81.7337 16.3118C81.5158 16.4494 81.3295 16.6432 81.1898 16.8776C81.0502 17.1121 80.961 17.3805 80.9297 17.6612Z" fill="#455A64"/>
<path d="M80.9297 22.5169C80.9297 22.9679 81.2874 23.0997 81.7246 22.8118L93.7976 14.9026C94.012 14.7647 94.1953 14.5724 94.3332 14.3407C94.4711 14.109 94.5599 13.8442 94.5925 13.5671C94.5925 13.1196 94.2348 12.9877 93.7976 13.2757L81.7246 21.1848C81.5106 21.3224 81.3275 21.5141 81.1896 21.7452C81.0517 21.9763 80.9628 22.2404 80.9297 22.5169Z" fill="#455A64"/>
<path d="M80.9297 27.4074C80.9297 27.8583 81.2874 27.9901 81.7246 27.7022L93.7976 19.7931C94.0116 19.6555 94.1947 19.4637 94.3326 19.2327C94.4705 19.0016 94.5594 18.7375 94.5925 18.461C94.5925 18.01 94.2348 17.8782 93.7976 18.1661L81.7246 26.0753C81.5106 26.2128 81.3275 26.4046 81.1896 26.6357C81.0517 26.8667 80.9628 27.1308 80.9297 27.4074Z" fill="#455A64"/>
<path d="M80.9297 32.2882C80.9297 32.7392 81.2874 32.871 81.7246 32.5831L93.7976 24.6739C94.0116 24.5364 94.1947 24.3446 94.3326 24.1135C94.4705 23.8825 94.5594 23.6184 94.5925 23.3418C94.5925 22.8909 94.2348 22.7591 93.7976 23.047L81.7246 30.9562C81.5106 31.0937 81.3275 31.2855 81.1896 31.5165C81.0517 31.7476 80.9628 32.0117 80.9297 32.2882Z" fill="#455A64"/>
<path d="M66.0376 46.9333C66.0376 47.3843 66.3922 47.5161 66.8325 47.2282L93.8065 29.5366C94.0208 29.3995 94.2042 29.2079 94.3421 28.9767C94.48 28.7456 94.5688 28.4812 94.6014 28.2046C94.6014 27.7536 94.2437 27.6253 93.8065 27.9097L66.8325 45.6013C66.618 45.7382 66.4346 45.9298 66.2966 46.161C66.1587 46.3921 66.07 46.6566 66.0376 46.9333Z" fill="#455A64"/>
<path d="M66.0376 51.8156C66.0376 52.2665 66.3922 52.3984 66.8325 52.1104L93.8065 34.4397C94.0209 34.3018 94.2042 34.1095 94.3421 33.8778C94.48 33.6461 94.5688 33.3813 94.6014 33.1042C94.6014 32.6567 94.2437 32.5249 93.8065 32.8128L66.8325 50.4835C66.618 50.6204 66.4346 50.812 66.2966 51.0432C66.1587 51.2744 66.07 51.5388 66.0376 51.8156Z" fill="#455A64"/>
<path d="M66.0376 56.6999C66.0376 57.1474 66.3922 57.2792 66.8325 56.9913L93.8065 39.3206C94.0209 39.1827 94.2042 38.9904 94.3421 38.7587C94.48 38.527 94.5688 38.2622 94.6014 37.985C94.6014 37.5375 94.2437 37.4057 93.8065 37.6936L66.8325 55.3644C66.6177 55.5016 66.434 55.6938 66.296 55.9256C66.158 56.1574 66.0695 56.4225 66.0376 56.6999Z" fill="#455A64"/>
<path d="M48.6511 108.72L57.3429 65.6043L105.776 33.874L97.084 76.9928L48.6511 108.72Z" fill="#1E8EFF"/>
<path d="M60.501 68.9786V100.959L71.6783 93.6358V61.6592L60.501 68.9786Z" fill="#1E8EFF"/>
<path opacity="0.2" d="M60.501 68.9786V100.959L71.6783 93.6358V61.6592L60.501 68.9786Z" fill="black"/>
<path d="M80.951 119.903C80.0002 119.098 70.8346 111.151 66.1754 99.7833C61.2165 87.6976 61.2227 73.5998 61.2227 68.2958V68.1293L94.4488 46.3652C94.4488 51.7178 94.4488 65.8363 99.429 77.9637C103.981 89.0643 112.795 96.911 114.192 98.1113L80.951 119.903Z" fill="white"/>
<path d="M94.2958 46.6774C94.2958 52.2554 94.3906 66.1034 99.2914 78.0504C103.691 88.7694 112.055 96.4774 113.917 98.1043L80.9601 119.695C79.673 118.595 70.8529 110.78 66.3159 99.7243C61.3632 87.6732 61.3632 73.6032 61.3632 68.3062V68.2403L94.2836 46.6739M94.5893 46.0738L61.0575 68.0425C61.0575 73.0343 60.9658 87.5379 66.0255 99.87C71.0058 111.973 80.9296 120.111 80.9296 120.111L114.471 98.139C114.471 98.139 104.535 90.0009 99.5696 77.8978C94.5068 65.5657 94.6015 51.0621 94.6015 46.0703L94.5893 46.0738Z" fill="#1E8EFF"/>
<path opacity="0.7" d="M94.2958 46.6774C94.2958 52.2554 94.3906 66.1034 99.2914 78.0504C103.691 88.7694 112.055 96.4774 113.917 98.1043L80.9601 119.695C79.673 118.595 70.8529 110.78 66.3159 99.7243C61.3632 87.6732 61.3632 73.6032 61.3632 68.3062V68.2403L94.2836 46.6739M94.5893 46.0738L61.0575 68.0425C61.0575 73.0343 60.9658 87.5379 66.0255 99.87C71.0058 111.973 80.9296 120.111 80.9296 120.111L114.471 98.139C114.471 98.139 104.535 90.0009 99.5696 77.8978C94.5068 65.5657 94.6015 51.0621 94.6015 46.0703L94.5893 46.0738Z" fill="white"/>
<path d="M90.8073 53.4423L80.2048 60.3801C79.9925 60.5127 79.8116 60.7014 79.6775 60.9303C79.5434 61.1592 79.4599 61.4215 79.4343 61.6949C79.4496 62.1354 79.8195 62.2603 80.2567 61.9724L90.8623 55.0345C91.072 54.9032 91.251 54.717 91.3845 54.4913C91.518 54.2656 91.602 54.0071 91.6297 53.7371C91.6113 53.2792 91.2475 53.1543 90.8073 53.4423Z" fill="#455A64"/>
<path d="M91.0335 58.1786L80.431 65.1164C80.2213 65.2444 80.0435 65.4304 79.9142 65.6573C79.7848 65.8841 79.7081 66.1443 79.6912 66.4138C79.7248 66.8405 80.11 66.955 80.5472 66.667L91.1528 59.7292C91.3614 59.6018 91.538 59.4161 91.6659 59.1897C91.7937 58.9633 91.8686 58.7036 91.8834 58.4353C91.8529 58.0051 91.4738 57.9011 91.0335 58.1786Z" fill="#455A64"/>
<path d="M91.4588 62.7809L80.8533 69.7187C80.4161 70.0067 80.0981 70.579 80.1501 70.9918C80.2021 71.4046 80.6026 71.5122 81.0428 71.2242L91.6484 64.2864C92.0856 63.9985 92.3974 63.4296 92.3424 63.0168C92.2873 62.6039 91.896 62.4929 91.4588 62.7809Z" fill="#455A64"/>
<path d="M92.0948 67.2452L81.4892 74.1831C81.052 74.471 80.7494 75.0329 80.8227 75.4353C80.8961 75.8377 81.3119 75.9279 81.7399 75.64L92.3424 68.7022C92.7827 68.4142 93.0762 67.8557 93.0028 67.4533C92.9294 67.0509 92.5473 66.9573 92.0948 67.2452Z" fill="#455A64"/>
<path d="M92.9566 71.5602L82.351 78.4981C81.9138 78.786 81.6295 79.3341 81.7396 79.7192C81.8496 80.1042 82.2685 80.1909 82.7056 79.903L93.3112 72.9651C93.7515 72.6772 94.0266 72.1326 93.9227 71.7441C93.8187 71.3556 93.3938 71.2723 92.9566 71.5602Z" fill="#455A64"/>
<path d="M94.0753 75.7199L68.2294 92.6518C67.7922 92.9397 67.5262 93.4739 67.6455 93.8451C67.7647 94.2162 68.2202 94.2856 68.6574 93.9977L94.5033 77.0658C94.9436 76.7779 95.1973 76.2472 95.0781 75.8725C94.9589 75.4979 94.4972 75.432 94.0753 75.7199Z" fill="#455A64"/>
<path d="M95.4362 79.6918L69.5934 96.6237C69.1531 96.9116 68.9116 97.432 69.0584 97.7858C69.2051 98.1396 69.6698 98.1951 70.1162 97.9072L95.9621 80.9753C96.4023 80.6874 96.6377 80.1671 96.491 79.8133C96.3442 79.4594 95.8765 79.4074 95.4362 79.6918Z" fill="#455A64"/>
<path d="M97.1331 83.4758L71.2871 100.408C70.8469 100.696 70.6298 101.202 70.8041 101.539C70.9784 101.875 71.4767 101.91 71.9169 101.622L97.7445 84.69C98.1817 84.4055 98.3927 83.9025 98.2184 83.566C98.0441 83.2295 97.5611 83.1879 97.1331 83.4758Z" fill="#455A64"/>
<path d="M99.1109 87.0554L73.268 103.984C72.8278 104.272 72.6321 104.768 72.8309 105.083C73.0296 105.399 73.5524 105.43 73.9926 105.139L99.8355 88.2071C100.276 87.9191 100.465 87.43 100.267 87.1109C100.068 86.7917 99.5511 86.7674 99.1109 87.0554Z" fill="#455A64"/>
<path d="M101.367 90.4583L75.5215 107.387C75.0843 107.675 74.91 108.157 75.1301 108.459C75.3503 108.76 75.8914 108.774 76.3316 108.486L102.178 91.5476C102.615 91.2597 102.789 90.7844 102.563 90.4826C102.337 90.1808 101.808 90.16 101.367 90.4583Z" fill="#455A64"/>
<path d="M103.859 93.6988L78.0223 110.627C77.582 110.915 77.4108 111.387 77.6676 111.668C77.9244 111.949 78.4686 111.956 78.9058 111.668L104.752 94.736C105.192 94.4481 105.345 93.9833 105.1 93.6953C104.856 93.4074 104.305 93.4144 103.859 93.6988Z" fill="#455A64"/>
<path d="M106.611 96.7968L80.7647 113.725C80.3275 114.013 80.1838 114.474 80.459 114.749C80.7341 115.023 81.2967 115.012 81.7369 114.724L107.561 97.7924C107.999 97.5045 108.136 97.0535 107.867 96.776C107.598 96.4985 107.039 96.5089 106.611 96.7968Z" fill="#455A64"/>
<path d="M76.362 62.9092L64.1697 70.8877C64.3042 75.9003 64.8086 83.1296 66.6552 90.4109L78.8506 82.4323C77.0009 75.151 76.4965 67.9183 76.362 62.9092Z" fill="#1E8EFF"/>
<path opacity="0.8" d="M76.362 62.9092L64.1697 70.8877C64.3042 75.9003 64.8086 83.1296 66.6552 90.4109L78.8506 82.4323C77.0009 75.151 76.4965 67.9183 76.362 62.9092Z" fill="white"/>
<path d="M69.1408 69.7836C69.1572 69.46 69.1128 69.1362 69.0106 68.8336C68.9083 68.531 68.7505 68.2565 68.5477 68.0283L64.1697 70.8937C64.2064 72.2188 64.2675 73.7 64.3745 75.2957C64.944 75.3701 65.52 75.2492 66.0285 74.9488C67.7497 74.0538 69.1408 71.7331 69.1408 69.7836Z" fill="#1E8EFF"/>
<path opacity="0.6" d="M69.1408 69.7836C69.1572 69.46 69.1128 69.1362 69.0106 68.8336C68.9083 68.531 68.7505 68.2565 68.5477 68.0283L64.1697 70.8937C64.2064 72.2188 64.2675 73.7 64.3745 75.2957C64.944 75.3701 65.52 75.2492 66.0285 74.9488C67.7497 74.0538 69.1408 71.7331 69.1408 69.7836Z" fill="white"/>
<path d="M77.8145 77.6441C77.0013 76.482 75.3474 72.8917 74.6411 71.3272C74.6134 71.2653 74.5699 71.2144 74.5164 71.1808C74.4628 71.1473 74.4016 71.1328 74.3407 71.1392C74.2798 71.1455 74.222 71.1724 74.1747 71.2165C74.1274 71.2605 74.0929 71.3196 74.0755 71.3862C73.3115 74.3495 72.868 77.4072 72.7548 80.4921C71.7366 79.5749 70.8613 78.4703 70.1653 77.2244C70.1357 77.1761 70.0944 77.1384 70.0465 77.1159C69.9986 77.0933 69.946 77.0867 69.895 77.0969C69.8439 77.1071 69.7964 77.1337 69.7582 77.1735C69.72 77.2133 69.6926 77.2646 69.6792 77.3215C68.3463 83.1458 69.0158 88.8765 69.0158 88.8765L78.851 82.4312C78.4413 80.8216 78.1019 79.219 77.8145 77.6441Z" fill="#1E8EFF"/>
<path opacity="0.6" d="M77.8145 77.6441C77.0013 76.482 75.3474 72.8917 74.6411 71.3272C74.6134 71.2653 74.5699 71.2144 74.5164 71.1808C74.4628 71.1473 74.4016 71.1328 74.3407 71.1392C74.2798 71.1455 74.222 71.1724 74.1747 71.2165C74.1274 71.2605 74.0929 71.3196 74.0755 71.3862C73.3115 74.3495 72.868 77.4072 72.7548 80.4921C71.7366 79.5749 70.8613 78.4703 70.1653 77.2244C70.1357 77.1761 70.0944 77.1384 70.0465 77.1159C69.9986 77.0933 69.946 77.0867 69.895 77.0969C69.8439 77.1071 69.7964 77.1337 69.7582 77.1735C69.72 77.2133 69.6926 77.2646 69.6792 77.3215C68.3463 83.1458 69.0158 88.8765 69.0158 88.8765L78.851 82.4312C78.4413 80.8216 78.1019 79.219 77.8145 77.6441Z" fill="white"/>
</svg>
