<svg width="272" height="287" viewBox="0 0 272 287" fill="none" xmlns="http://www.w3.org/2000/svg">
<path d="M238.61 63.6978L237.149 61.2931C224.813 40.9673 202.515 28.7153 179.003 30.2062C175.971 30.3966 172.957 30.8085 169.985 31.4386C148.607 36.0136 130.007 52.1792 122.3 72.8837C117.767 85.0576 116.499 99.077 107.872 108.744C96.7138 121.315 77.7046 121.723 60.9619 121.188C44.2191 120.653 25.246 121.122 14.1062 133.747C7.1265 141.652 4.90816 152.9 5.46725 163.487C6.95817 191.532 26.5084 216.601 51.3491 229.063C76.1897 241.526 105.449 242.632 132.646 237.149C170.743 229.466 206.97 208.377 228.744 175.829C250.519 143.282 256.032 98.8786 238.61 63.6978Z" fill="#F5F5F5"/>
<path d="M143.797 30.3594H132.183V48.4788H143.797V30.3594Z" fill="#263238"/>
<path d="M150.019 35.7569H126.104V16.2427C134.473 14.1806 142.475 14.0544 150.019 16.2427V35.7569Z" fill="#FFAC00"/>
<path d="M150.302 16.3266C150.026 16.5074 149.729 16.6548 149.418 16.7655C148.609 17.1338 147.778 17.453 146.93 17.7213C145.659 18.1152 144.364 18.4225 143.052 18.6411C141.441 18.8975 139.814 19.0361 138.182 19.0559C136.552 19.0539 134.925 18.9313 133.313 18.6892C131.998 18.4833 130.698 18.1881 129.423 17.8055C128.565 17.5541 127.722 17.253 126.898 16.9037C126.59 16.7931 126.293 16.6501 126.015 16.4769C126.015 16.4048 127.331 16.9458 129.507 17.529C130.777 17.8668 132.066 18.1298 133.367 18.3165C134.961 18.5334 136.568 18.6439 138.176 18.6471C139.786 18.6324 141.393 18.5059 142.986 18.2684C144.288 18.0711 145.576 17.7961 146.845 17.4448C148.986 16.8136 150.272 16.2545 150.302 16.3266Z" fill="#263238"/>
<path d="M134.004 35.7567C133.89 35.7567 133.8 32.0054 133.8 27.3824C133.8 22.7593 133.89 19.002 134.004 19.002C134.118 19.002 134.209 22.7533 134.209 27.3824C134.209 32.0114 134.118 35.7567 134.004 35.7567Z" fill="#263238"/>
<path d="M138.555 35.8349C138.441 35.8349 138.351 32.0715 138.351 27.4184C138.351 22.7653 138.441 19.002 138.555 19.002C138.669 19.002 138.759 22.7653 138.759 27.4184C138.759 32.0715 138.669 35.8349 138.555 35.8349Z" fill="#263238"/>
<path d="M143.107 35.7548C142.993 35.7548 142.902 31.9854 142.902 27.3383C142.902 22.6913 142.993 18.9219 143.107 18.9219C143.221 18.9219 143.311 22.6852 143.311 27.3383C143.311 31.9915 143.221 35.7548 143.107 35.7548Z" fill="#263238"/>
<path d="M146.894 35.7579C146.78 35.7579 146.689 31.6879 146.689 26.6621C146.689 21.6362 146.78 17.5723 146.894 17.5723C147.008 17.5723 147.098 21.6422 147.098 26.6621C147.098 31.6819 147.008 35.7579 146.894 35.7579Z" fill="#263238"/>
<path d="M129.7 35.6486C129.586 35.6486 129.496 31.5727 129.496 26.5528C129.496 21.533 129.586 17.457 129.7 17.457C129.815 17.457 129.905 21.533 129.905 26.5528C129.905 31.5727 129.815 35.6486 129.7 35.6486Z" fill="#263238"/>
<path d="M209.92 59.7378L204.117 53.666L194.642 62.7205L200.445 68.7923L209.92 59.7378Z" fill="#263238"/>
<path d="M210.191 65.7072L198.246 53.1907L208.466 43.4336C213.732 46.7761 217.79 50.8942 220.417 55.9381L210.191 65.7072Z" fill="#FFAC00"/>
<path d="M200.242 55.294C200.175 55.2219 202.49 52.8893 205.412 50.0518C208.333 47.2142 210.762 44.9959 210.822 45.062C210.882 45.1281 208.574 47.4667 205.652 50.3042C202.73 53.1418 200.308 55.3662 200.242 55.294Z" fill="#263238"/>
<path d="M202.521 57.6808C202.997 57.1152 203.517 56.5885 204.078 56.1057C205.063 55.1679 206.446 53.8874 207.979 52.4986L211.929 48.9277L213.131 47.8515C213.42 47.5991 213.564 47.4668 213.576 47.4668C213.708 47.587 211.286 49.9557 208.214 52.7571C206.681 54.1639 205.274 55.4143 204.24 56.3041C203.705 56.8083 203.13 57.2686 202.521 57.6808Z" fill="#263238"/>
<path d="M205.55 60.8483C206.036 60.282 206.565 59.7535 207.131 59.2672C208.129 58.3234 209.536 57.0369 211.093 55.6241L215.109 52.017L216.311 50.9469C216.458 50.8136 216.612 50.6891 216.774 50.5742C216.333 51.1772 215.82 51.7243 215.247 52.2034C214.255 53.1593 212.842 54.4518 211.297 55.8646C209.752 57.2773 208.291 58.5278 207.263 59.4295C206.732 59.9486 206.159 60.4231 205.55 60.8483Z" fill="#263238"/>
<path d="M208.388 63.7417C208.322 63.6695 210.667 61.337 213.63 58.5355C216.594 55.734 219.041 53.5096 219.107 53.5818C219.173 53.6539 216.829 55.9865 213.865 58.788C210.901 61.5895 208.454 63.8078 208.388 63.7417Z" fill="#263238"/>
<path d="M63.5976 58.8509L57.3008 64.4082L65.9728 74.2344L72.2697 68.6771L63.5976 58.8509Z" fill="#263238"/>
<path d="M69.5647 58.8187L56.5973 70.241L47.249 59.6724C50.808 54.5503 55.0643 50.6547 60.2224 48.25L69.5647 58.8187Z" fill="#FFAC00"/>
<path d="M58.7676 68.3477C58.6954 68.4139 56.447 66.0092 53.7357 62.9732C51.0244 59.9373 48.9263 57.4304 48.9684 57.3702C49.0105 57.3101 51.2889 59.7088 54.0002 62.7448C56.7115 65.7807 58.8397 68.2876 58.7676 68.3477Z" fill="#263238"/>
<path d="M61.2382 66.164C60.7058 65.6645 60.2114 65.126 59.7593 64.5528C58.8635 63.5248 57.6371 62.094 56.2965 60.5069L52.8818 56.4189L51.8237 55.1745C51.5833 54.8739 51.457 54.7296 51.457 54.7116C51.5833 54.5853 53.8617 57.1163 56.537 60.2785C57.8776 61.8716 59.0679 63.3264 59.9216 64.3905C60.408 64.9448 60.8483 65.538 61.2382 66.164Z" fill="#263238"/>
<path d="M64.5326 63.2602C63.9842 62.7551 63.4757 62.2084 63.0116 61.625C62.1098 60.5849 60.8774 59.1361 59.5308 57.5189L56.1101 53.3648L55.0881 52.0903C54.9551 51.9414 54.8364 51.7804 54.7334 51.6094C55.3142 52.0783 55.8387 52.6129 56.2965 53.2025C57.2163 54.2365 58.4547 55.6793 59.8013 57.2965C61.148 58.9137 62.3503 60.3865 63.204 61.4687C63.6928 62.0303 64.137 62.6293 64.5326 63.2602Z" fill="#263238"/>
<path d="M67.5328 60.5417C67.4607 60.6018 65.2183 58.137 62.5371 55.1311C59.8558 52.1252 57.7276 49.5221 57.8058 49.462C57.8839 49.4019 60.1143 51.8307 62.7956 54.8726C65.4768 57.9146 67.605 60.4756 67.5328 60.5417Z" fill="#263238"/>
<path d="M203.424 203.528C240.807 166.145 240.807 105.535 203.423 68.1518C166.04 30.7687 105.43 30.7687 68.0474 68.1518C30.6643 105.535 30.6644 166.145 68.0474 203.528C105.431 240.911 166.04 240.911 203.424 203.528Z" fill="#FFAC00"/>
<path d="M197.922 198.027C232.267 163.682 232.267 107.998 197.922 73.6525C163.577 39.3074 107.893 39.3074 73.5477 73.6525C39.2026 107.998 39.2026 163.682 73.5477 198.027C107.893 232.372 163.577 232.372 197.922 198.027Z" fill="white"/>
<path d="M135.736 224.079C87.0767 224.079 47.4893 184.492 47.4893 135.833C47.4893 87.1734 87.0767 47.5859 135.736 47.5859C184.395 47.5859 223.983 87.1734 223.983 135.833C223.983 184.492 184.395 224.079 135.736 224.079ZM135.736 48.1871C87.4074 48.1871 48.0904 87.5041 48.0904 135.833C48.0904 184.161 87.4134 223.478 135.736 223.478C184.059 223.478 223.382 184.161 223.382 135.833C223.382 87.5041 184.065 48.1871 135.736 48.1871Z" fill="#263238"/>
<path d="M80.5479 100.714C84.209 89.3396 91.7177 81.6445 101.667 75.0256C111.617 68.4066 125.179 65.9178 137.089 66.9277V137.806L80.5479 100.714Z" fill="#FFAC00"/>
<g opacity="0.8">
<path d="M80.5479 100.714C84.209 89.3396 91.7177 81.6445 101.667 75.0256C111.617 68.4066 125.179 65.9178 137.089 66.9277V137.806L80.5479 100.714Z" fill="white"/>
</g>
<path d="M129.477 137.422L89.9141 106.689L136.247 128.049L137.605 136.165L129.477 137.422Z" fill="#FFAC00"/>
<g opacity="0.4">
<path d="M89.9141 106.689L131.227 130.977L136.247 128.049L89.9141 106.689Z" fill="black"/>
</g>
<path d="M140.748 143.93C144.954 142.206 146.965 137.398 145.24 133.193C143.515 128.987 138.708 126.976 134.502 128.701C130.297 130.426 128.286 135.233 130.011 139.439C131.735 143.644 136.543 145.655 140.748 143.93Z" fill="#FAFAFA"/>
<path d="M137.63 128.066C136.961 128.142 136.297 128.254 135.64 128.403C134.146 128.799 132.795 129.612 131.744 130.747C130.694 131.881 129.987 133.291 129.706 134.811C129.455 136.222 129.581 137.674 130.073 139.019C130.332 139.75 130.703 140.436 131.173 141.051C131.647 141.707 132.224 142.281 132.881 142.753C134.257 143.764 135.919 144.31 137.627 144.31C139.335 144.31 140.997 143.764 142.373 142.753C143.033 142.283 143.612 141.708 144.087 141.051C144.555 140.434 144.926 139.749 145.187 139.019C145.677 137.673 145.802 136.221 145.547 134.811C145.326 133.574 144.815 132.406 144.057 131.403C142.957 129.931 141.394 128.872 139.62 128.397C138.963 128.249 138.299 128.136 137.63 128.06C138.311 128.011 138.995 128.072 139.656 128.24C141.208 128.612 142.621 129.424 143.724 130.577C144.828 131.731 145.576 133.178 145.878 134.745C146.161 136.222 146.042 137.748 145.535 139.164C144.967 140.729 143.951 142.092 142.614 143.083C141.169 144.145 139.423 144.718 137.63 144.718C135.837 144.718 134.091 144.145 132.646 143.083C131.952 142.583 131.343 141.974 130.843 141.28C130.356 140.631 129.973 139.911 129.706 139.146C129.198 137.73 129.077 136.205 129.358 134.727C129.66 133.16 130.408 131.713 131.512 130.559C132.615 129.405 134.028 128.594 135.58 128.222C136.25 128.06 136.943 128.008 137.63 128.066Z" fill="#263238"/>
<path d="M137.629 130.17C138.842 130.169 140.028 130.527 141.037 131.2C142.046 131.873 142.833 132.831 143.298 133.951C143.763 135.072 143.886 136.305 143.65 137.495C143.414 138.684 142.83 139.778 141.973 140.636C141.116 141.494 140.023 142.079 138.833 142.316C137.644 142.553 136.411 142.432 135.29 141.968C134.169 141.504 133.211 140.718 132.537 139.709C131.863 138.701 131.503 137.515 131.503 136.302C131.503 134.677 132.148 133.118 133.297 131.968C134.446 130.818 136.004 130.172 137.629 130.17Z" fill="#263238"/>
<path d="M137.221 133.885C137.221 133.885 135.537 80.8791 137.99 69.6973C137.99 69.6973 142.12 101.83 137.221 133.885Z" fill="#263238"/>
<path d="M132.43 217.137H132.328L132.562 210.524H132.749L132.43 217.137ZM165.428 211.774L162.964 205.642L163.144 205.57L165.519 211.744L165.428 211.774ZM99.9784 208.624L99.8762 208.57L102.822 202.648L102.984 202.732L99.9784 208.624ZM193.461 193.414L188.748 188.779L188.874 188.653L193.546 193.33L193.461 193.414ZM73.8272 187.661L73.725 187.535L78.853 183.326L78.9372 183.435L73.8272 187.661ZM211.659 165.231L205.461 162.929L205.527 162.754L211.701 165.129L211.659 165.231ZM58.4311 157.867L58.383 157.698L64.7735 155.991V156.099L58.4311 157.867ZM210.18 132.449V132.347L216.793 131.95V132.136L210.18 132.449ZM210.18 132.335V132.184L216.793 131.788V131.944L210.18 132.335ZM63.024 125.379L56.4893 124.387V124.237L63.0301 125.235L63.024 125.379ZM202.082 102.618L202.022 102.498L207.896 99.4563L207.968 99.5946L202.082 102.618ZM73.8993 96.6067L68.3385 92.9997L68.4106 92.8854L73.9835 96.4444L73.8993 96.6067ZM182.598 78.7999L182.484 78.7097L186.614 73.5456L186.728 73.6358L182.598 78.7999ZM95.5357 74.6818L91.9286 69.145L92.0308 69.0849L95.698 74.5856L95.5357 74.6818ZM155.1 64.9187L154.974 64.8887L156.633 58.4861L156.796 58.5282L155.1 64.9187ZM124.218 63.4819L123.142 56.9531H123.286L124.356 63.4819H124.218Z" fill="#263238"/>
<path d="M242.997 214.123C242.997 214.207 234.845 214.279 224.794 214.279C214.742 214.279 206.584 214.207 206.584 214.123C206.584 214.039 214.736 213.967 224.794 213.967C234.851 213.967 242.997 214.033 242.997 214.123Z" fill="#263238"/>
<path d="M254.455 210.041C254.455 210.131 246.303 210.197 236.252 210.197C226.2 210.197 218.042 210.131 218.042 210.041C218.042 209.951 226.188 209.885 236.252 209.885C246.315 209.885 254.455 209.957 254.455 210.041Z" fill="#263238"/>
<path d="M35.2064 187.143C35.2064 187.233 27.6436 187.299 18.3194 187.299C8.99511 187.299 1.44434 187.251 1.44434 187.143C1.44434 187.034 9.00714 186.986 18.3374 186.986C27.6677 186.986 35.2064 187.058 35.2064 187.143Z" fill="#263238"/>
<path d="M45.8358 183.043C45.8358 183.127 38.273 183.199 28.9487 183.199C19.6245 183.199 12.0557 183.127 12.0557 183.043C12.0557 182.959 19.6185 182.887 28.9487 182.887C38.279 182.887 45.8358 182.983 45.8358 183.043Z" fill="#263238"/>
<path d="M175.1 106.002C175.538 105.636 176.078 105.415 176.647 105.37C177.216 105.325 177.784 105.457 178.274 105.749C179.082 105.524 179.943 105.577 180.718 105.898C181.492 106.22 182.137 106.792 182.549 107.523C183.12 107.431 183.705 107.489 184.247 107.69C184.789 107.892 185.269 108.231 185.641 108.673C186.014 109.116 186.265 109.647 186.371 110.216C186.477 110.784 186.434 111.37 186.246 111.917C186.818 112.045 187.335 112.35 187.724 112.787C188.113 113.225 188.355 113.774 188.416 114.357C188.476 114.939 188.352 115.526 188.061 116.035C187.77 116.543 187.326 116.947 186.793 117.19C187.305 117.613 187.641 118.212 187.738 118.869C187.835 119.527 187.684 120.196 187.316 120.749C186.947 121.302 186.387 121.699 185.743 121.863C185.099 122.028 184.417 121.947 183.829 121.638L174.421 109.098C174.2 108.575 174.147 107.996 174.269 107.442C174.391 106.887 174.681 106.384 175.1 106.002Z" fill="#263238"/>
<path d="M184.052 122.131C184.877 119.39 184.642 116.44 183.395 113.864C182.149 111.288 179.98 109.273 177.319 108.22L176.766 108.003C170.706 106.02 165.638 110.059 163.828 116.173L156.927 136.229L156.765 139.03L162.915 148.3L168.151 145.896L171.157 140.281C171.157 140.281 177.169 141.633 179.507 135.97C180.595 133.241 182.453 127.421 184.052 122.131Z" fill="#FFBF9D"/>
<path d="M171.198 140.3C168.55 139.262 166.255 137.486 164.585 135.184C164.585 135.184 164.345 140.264 170.23 141.989L171.198 140.3Z" fill="#FF9A6C"/>
<path d="M180.331 126.756C180.251 126.97 180.09 127.144 179.883 127.239C179.676 127.335 179.439 127.345 179.225 127.267C179.119 127.235 179.02 127.182 178.934 127.111C178.849 127.04 178.778 126.953 178.727 126.854C178.676 126.755 178.646 126.647 178.637 126.537C178.629 126.426 178.642 126.314 178.678 126.209C178.758 125.995 178.918 125.821 179.125 125.725C179.332 125.628 179.569 125.616 179.784 125.692C179.891 125.725 179.99 125.779 180.075 125.85C180.161 125.922 180.231 126.01 180.282 126.109C180.333 126.208 180.363 126.316 180.372 126.428C180.38 126.539 180.366 126.65 180.331 126.756Z" fill="#263238"/>
<path d="M181.683 124.731C181.544 124.797 181.082 124.129 180.228 123.757C179.374 123.384 178.539 123.6 178.491 123.456C178.442 123.312 178.641 123.24 178.996 123.143C179.474 123.031 179.976 123.069 180.433 123.25C180.889 123.432 181.28 123.749 181.551 124.159C181.737 124.496 181.755 124.731 181.683 124.731Z" fill="#263238"/>
<path d="M172.689 124.182C172.61 124.396 172.449 124.57 172.241 124.665C172.034 124.761 171.798 124.771 171.583 124.693C171.477 124.661 171.378 124.608 171.292 124.537C171.206 124.466 171.136 124.379 171.084 124.281C171.033 124.182 171.001 124.074 170.992 123.963C170.983 123.853 170.996 123.741 171.03 123.635C171.111 123.422 171.272 123.249 171.479 123.153C171.685 123.056 171.921 123.044 172.136 123.118C172.243 123.151 172.342 123.205 172.428 123.276C172.513 123.348 172.584 123.435 172.636 123.535C172.687 123.634 172.718 123.742 172.728 123.853C172.737 123.964 172.724 124.076 172.689 124.182Z" fill="#263238"/>
<path d="M173.381 121.339C173.243 121.405 172.78 120.708 171.926 120.365C171.073 120.022 170.237 120.209 170.189 120.065C170.141 119.92 170.333 119.848 170.694 119.758C171.176 119.644 171.683 119.682 172.143 119.866C172.598 120.044 172.986 120.362 173.249 120.774C173.417 121.081 173.435 121.309 173.381 121.339Z" fill="#263238"/>
<path d="M173.693 128.939C174.213 128.972 174.727 129.073 175.22 129.239C175.449 129.306 175.677 129.342 175.779 129.209C175.886 128.985 175.924 128.734 175.888 128.488C175.888 127.887 175.888 127.207 175.888 126.522C175.924 123.745 176.044 121.49 176.158 121.49C176.272 121.49 176.333 123.751 176.296 126.534C176.296 127.219 176.266 127.869 176.254 128.494C176.291 128.82 176.21 129.148 176.026 129.42C175.963 129.485 175.886 129.535 175.8 129.567C175.715 129.598 175.623 129.609 175.533 129.6C175.395 129.585 175.26 129.553 175.13 129.504C174.63 129.373 174.148 129.184 173.693 128.939Z" fill="#263238"/>
<path d="M174.066 118.717C173.898 118.927 173.17 118.512 172.215 118.278C171.259 118.043 170.411 118.037 170.375 117.779C170.375 117.652 170.579 117.484 170.976 117.37C171.47 117.236 171.991 117.236 172.485 117.37C172.977 117.488 173.428 117.737 173.79 118.091C174.048 118.392 174.144 118.644 174.066 118.717Z" fill="#263238"/>
<path d="M179.67 120.479C179.892 120.329 180.439 120.744 181.173 120.996C181.906 121.249 182.585 121.309 182.657 121.597C182.688 121.724 182.519 121.892 182.183 121.994C181.74 122.101 181.275 122.075 180.847 121.919C180.42 121.763 180.047 121.484 179.778 121.116C179.579 120.792 179.567 120.551 179.67 120.479Z" fill="#263238"/>
<path d="M184.533 119.319C184.533 119.319 184.437 115.165 183.042 113.656C181.359 111.853 179.561 113.765 177.8 112.454C176.038 111.143 174.427 109.37 171.788 110.109C168.915 110.915 169.486 112.514 168.355 114.973C163.762 124.958 160.757 127.135 162.139 122.085C162.29 121.532 160.985 120.534 161.646 118.219C162.506 115.213 163.774 111.654 165.253 109.851C166.456 108.336 167.935 107.524 170.225 106.905C173.832 105.919 177.698 107.386 180.199 108.673C182.7 109.959 186.529 114.937 184.533 119.319Z" fill="#263238"/>
<path d="M162.56 122.072C162.635 121.86 162.667 121.635 162.653 121.411C162.639 121.186 162.58 120.967 162.479 120.767C162.378 120.566 162.237 120.388 162.065 120.243C161.893 120.099 161.693 119.991 161.478 119.925C160.378 119.613 158.959 119.751 158.165 121.969C156.758 125.913 161.009 126.508 161.051 126.4C161.093 126.292 161.989 123.725 162.56 122.072Z" fill="#FFBF9D"/>
<path d="M160.756 124.609C160.756 124.609 160.672 124.609 160.533 124.645C160.345 124.655 160.16 124.593 160.016 124.47C159.82 124.218 159.694 123.918 159.652 123.601C159.61 123.284 159.653 122.962 159.776 122.667C159.886 122.326 160.071 122.013 160.317 121.753C160.398 121.643 160.504 121.555 160.626 121.495C160.749 121.435 160.884 121.406 161.02 121.41C161.108 121.418 161.189 121.456 161.252 121.517C161.314 121.579 161.354 121.66 161.363 121.747C161.363 121.873 161.321 121.945 161.363 121.957C161.405 121.969 161.471 121.921 161.495 121.747C161.509 121.642 161.486 121.536 161.429 121.446C161.391 121.386 161.34 121.335 161.281 121.295C161.223 121.254 161.156 121.226 161.086 121.212C160.914 121.184 160.737 121.202 160.573 121.265C160.41 121.327 160.265 121.431 160.155 121.567C159.863 121.845 159.646 122.192 159.523 122.577C159.379 122.921 159.339 123.3 159.408 123.666C159.478 124.033 159.654 124.371 159.914 124.639C160.01 124.706 160.119 124.752 160.235 124.772C160.35 124.793 160.468 124.788 160.582 124.759C160.684 124.729 160.756 124.621 160.756 124.609Z" fill="#FF9A6C"/>
<path d="M165.601 114.563C165.929 115.137 166.394 115.62 166.954 115.97C167.238 116.136 167.572 116.193 167.895 116.131C168.218 116.069 168.507 115.892 168.709 115.634C168.866 115.381 168.92 115.032 169.178 114.9C169.437 114.768 169.852 114.966 170.164 115.129C170.716 115.397 171.344 115.468 171.942 115.328C172.54 115.187 173.072 114.845 173.447 114.359C173.545 114.621 173.737 114.837 173.987 114.964C174.236 115.09 174.524 115.119 174.793 115.044C175.325 114.876 175.831 114.636 176.296 114.329C176.531 114.176 176.799 114.083 177.078 114.058C177.357 114.033 177.637 114.076 177.895 114.185C178.166 114.335 178.37 114.612 178.671 114.702C179.2 114.858 179.681 114.359 179.957 113.878C180.234 113.397 180.529 112.838 181.07 112.73C181.584 112.73 182.082 112.91 182.476 113.241C182.921 113.493 183.571 113.62 183.871 113.241C183.94 113.125 183.984 112.997 184.002 112.864C184.019 112.73 184.01 112.595 183.973 112.465C183.851 111.863 183.526 111.321 183.054 110.928C182.582 110.534 181.991 110.313 181.376 110.301C181.437 109.579 181.284 108.855 180.935 108.22C180.585 107.585 180.056 107.068 179.413 106.733C178.771 106.398 178.043 106.261 177.323 106.339C176.602 106.416 175.921 106.705 175.364 107.169C175.098 106.631 174.706 106.166 174.222 105.812C173.737 105.459 173.175 105.227 172.582 105.138C171.989 105.048 171.383 105.103 170.815 105.297C170.248 105.492 169.736 105.82 169.323 106.255C168.896 105.943 168.386 105.763 167.858 105.738C167.329 105.713 166.805 105.844 166.351 106.114C165.896 106.384 165.531 106.782 165.3 107.258C165.07 107.734 164.984 108.268 165.054 108.792C164.621 108.83 164.205 108.977 163.844 109.22C163.483 109.463 163.19 109.794 162.992 110.181C162.662 110.98 163.13 112.087 163.99 112.183C163.713 112.44 163.544 112.792 163.516 113.169C163.488 113.546 163.603 113.919 163.839 114.214C164.075 114.509 164.414 114.704 164.787 114.76C165.161 114.816 165.542 114.729 165.854 114.515" fill="#263238"/>
<path d="M163.708 112.104C163.636 112.231 163.594 112.372 163.585 112.518C163.576 112.664 163.599 112.81 163.654 112.945C163.748 113.271 163.963 113.548 164.255 113.721C164.441 113.828 164.648 113.894 164.862 113.914C165.075 113.933 165.291 113.907 165.493 113.835L165.337 113.745C165.4 114.188 165.534 114.619 165.734 115.019C165.866 115.291 166.048 115.535 166.269 115.741C166.485 115.93 166.746 116.06 167.026 116.119C167.256 116.187 167.498 116.204 167.734 116.169C167.971 116.134 168.197 116.047 168.397 115.915C168.653 115.731 168.87 115.498 169.034 115.23C169.104 115.14 169.155 115.038 169.185 114.929C169.185 114.929 169.094 115.013 168.956 115.176C168.773 115.409 168.554 115.612 168.307 115.777C168.097 115.884 167.867 115.947 167.632 115.962C167.396 115.976 167.16 115.942 166.939 115.86C166.717 115.779 166.515 115.653 166.345 115.489C166.175 115.326 166.041 115.129 165.95 114.911C165.762 114.532 165.632 114.127 165.566 113.709V113.564L165.433 113.618C165.262 113.684 165.079 113.711 164.896 113.699C164.714 113.686 164.536 113.634 164.375 113.546C164.118 113.405 163.92 113.177 163.816 112.903C163.727 112.647 163.69 112.375 163.708 112.104Z" fill="#455A64"/>
<path d="M174.583 106.092C174.583 106.092 174.673 106.164 174.817 106.303C175.027 106.505 175.167 106.768 175.22 107.054V107.15L175.304 107.096C176.052 106.629 176.907 106.36 177.787 106.315C178.353 106.283 178.919 106.373 179.447 106.579C180.03 106.809 180.537 107.196 180.913 107.697C181.203 108.09 181.408 108.538 181.515 109.014C181.62 109.454 181.62 109.914 181.515 110.354L181.479 110.487H181.605C182.143 110.543 182.644 110.788 183.02 111.177C183.396 111.566 183.623 112.075 183.661 112.615C183.674 113.042 183.602 113.467 183.45 113.865C183.521 113.774 183.578 113.673 183.619 113.565C183.746 113.263 183.805 112.936 183.793 112.609C183.78 112.099 183.605 111.606 183.294 111.202C182.881 110.686 182.284 110.35 181.629 110.264L181.725 110.409C181.859 109.935 181.875 109.435 181.773 108.954C181.647 108.37 181.378 107.826 180.989 107.371C180.601 106.917 180.106 106.566 179.549 106.351C178.989 106.139 178.39 106.05 177.793 106.092C176.882 106.154 176.004 106.459 175.25 106.976L175.353 107.018C175.282 106.712 175.11 106.439 174.866 106.242C174.784 106.171 174.687 106.12 174.583 106.092Z" fill="#455A64"/>
<path d="M173.561 132.274C173.198 131.815 172.809 131.377 172.395 130.963C171.667 130.332 170.886 130.116 170.91 130.02C171.546 130.027 172.154 130.286 172.599 130.741C173.107 131.107 173.452 131.657 173.561 132.274Z" fill="#263238"/>
<path d="M215.264 161.745C215.932 161.558 222.443 162.622 222.443 162.622C222.486 162.801 222.484 162.987 222.439 163.164C222.393 163.342 222.305 163.506 222.182 163.642C222.059 163.777 221.904 163.881 221.731 163.943C221.559 164.006 221.374 164.025 221.192 163.999C219.689 163.951 214.753 163.56 214.753 163.56L211.579 164.955L210.533 164.498L215.264 161.745Z" fill="#FF9A6C"/>
<path d="M201.913 162.975L211.159 163.853L212.602 164.027C212.602 164.027 216.011 162.789 216.636 162.68C217.261 162.572 222.996 165.686 222.996 165.686C222.996 165.686 223.213 167.015 221.614 166.672C220.39 166.357 219.203 165.914 218.073 165.35C218.073 165.35 212.885 167.754 211.851 168.241C210.817 168.728 204.636 168.674 204.636 168.674L202.448 170.105L201.913 162.975Z" fill="#FFBF9D"/>
<path d="M205.55 177.162L209.319 174.758L222.287 170.141C222.287 170.141 223.423 169.101 222.84 168.686C222.256 168.271 208.447 170.339 208.447 170.339L205.55 171.974V177.162Z" fill="#FFBF9D"/>
<path d="M168.944 167.959C168.944 168.68 157.672 187.274 154.462 191.922C149.712 198.811 144.951 199.671 144.951 199.671L138.633 194.392L164.652 166.209L172.377 160.576L168.944 167.959Z" fill="#455A64"/>
<path d="M163.113 176.389C163.113 176.389 173.237 180.958 177.031 181.614C181.491 182.377 205.965 180.652 205.965 180.652L205.502 170.913L169.738 170.095L165.464 168.965L163.113 176.389Z" fill="#455A64"/>
<g opacity="0.3">
<path d="M166.455 168.695C165.716 169.031 165.295 170.985 164.736 171.568C158.808 177.79 154.468 184.794 148.348 190.445C145.709 192.85 142.721 194.942 139.138 194.768L142.793 197.87C145.841 197.81 147.855 196.379 150.151 194.377C152.448 192.375 153.428 189.501 155.195 187.025C159.235 181.385 163.185 175.073 167.219 169.428C167.02 168.647 167.195 168.364 166.455 168.695Z" fill="black"/>
</g>
<path d="M140.19 194.701C140.19 194.701 145.474 195.104 147.47 193.871C149.875 192.392 170.97 164.702 170.97 164.702L171.157 143.06L159.241 131.691L158.009 133.561L132.669 162.484L116.438 177.91L135.928 188.382L140.19 194.701Z" fill="#E0E0E0"/>
<path d="M166.197 164.065C165.565 164.822 166.575 175.727 152.37 177.248C140.382 178.529 115.391 177.194 107.883 176.749C106.962 176.71 106.094 176.31 105.467 175.634C104.84 174.959 104.505 174.063 104.534 173.142C104.564 172.711 104.687 172.291 104.895 171.911C105.102 171.531 105.389 171.201 105.736 170.942C108.394 168.772 111.183 169.445 112.836 164.984C114.489 160.524 113.732 158.876 116.636 157.109C120.742 154.614 130.799 159.189 130.799 159.189C133.324 155.366 134.653 151.975 138.206 147.43C141.074 143.745 144.963 138.695 148.119 136.909C149.995 135.995 151.939 135.227 153.933 134.613L155.881 134.27L157.149 132.545C159.061 134.493 166.209 141.082 167.471 143.366L168.92 151.783L166.197 164.065Z" fill="#455A64"/>
<g opacity="0.3">
<path d="M199.574 172.607C190.165 171.951 180.384 171.296 168.757 168.861L168.042 170.424C174.745 174.633 179.386 174.759 184.466 175.126C189.546 175.492 194.271 174.711 199.183 174.711C199.559 174.078 199.698 173.332 199.574 172.607Z" fill="black"/>
</g>
<g opacity="0.3">
<path d="M147.603 150.578L143.785 150.819C145.372 155.995 147.933 157.744 152.292 160.954C156.65 164.165 157.354 165.103 162.289 167.315C162.764 167.525 166.498 169.858 166.612 169.359C158.135 164.153 153.248 158.76 147.603 150.578Z" fill="black"/>
</g>
<path d="M143.863 147.195C142.481 151.048 144.987 152.822 144.987 152.822C144.987 152.822 165.428 171.386 173.682 172.324C181.936 173.262 203.572 172.113 203.572 172.113V162.038L177.217 159.206C177.217 159.206 166.612 146.708 160.744 140.443" fill="#455A64"/>
<path d="M160.756 140.443C160.756 140.443 160.871 140.546 161.075 140.756L161.971 141.706C162.752 142.541 163.901 143.786 165.343 145.397C168.241 148.619 172.353 153.315 177.325 159.128L177.241 159.086L203.602 161.887H203.741V172.252H203.596L198.865 172.468C192.174 172.733 185.711 172.907 179.627 172.787L177.361 172.715C176.61 172.666 175.87 172.636 175.131 172.582C174.395 172.536 173.662 172.448 172.936 172.318C172.582 172.234 172.227 172.137 171.884 172.035C171.542 171.933 171.199 171.807 170.868 171.668C168.357 170.585 165.955 169.262 163.696 167.719C159.842 165.125 156.12 162.34 152.544 159.374C149.43 156.813 146.881 154.565 144.97 152.852C144.276 152.278 143.787 151.496 143.575 150.621C143.418 149.992 143.387 149.338 143.485 148.698C143.533 148.307 143.622 147.922 143.749 147.549C143.833 147.297 143.881 147.177 143.881 147.177C143.881 147.177 143.881 147.309 143.785 147.561C143.669 147.933 143.59 148.316 143.551 148.704C143.468 149.335 143.508 149.976 143.671 150.591C143.886 151.44 144.369 152.197 145.048 152.749C146.971 154.463 149.533 156.669 152.665 159.206C155.797 161.743 159.494 164.617 163.828 167.496C166.08 169.031 168.473 170.346 170.976 171.422C171.301 171.554 171.644 171.656 171.974 171.777C172.305 171.897 172.66 171.975 173.002 172.053C173.716 172.178 174.437 172.263 175.161 172.306C175.894 172.366 176.634 172.39 177.379 172.438L179.639 172.504C185.723 172.618 192.186 172.438 198.877 172.173L203.602 171.957L203.452 172.113C203.452 168.651 203.452 165.266 203.452 162.038L203.59 162.188L177.235 159.326H177.187V159.29C172.239 153.465 168.169 148.746 165.289 145.463L161.965 141.73L161.093 140.756C160.841 140.564 160.756 140.443 160.756 140.443Z" fill="#263238"/>
<path d="M168.121 170.256C167.954 170.57 167.765 170.871 167.555 171.158L165.968 173.562C164.64 175.618 162.842 178.492 160.87 181.672C158.899 184.852 157.107 187.726 155.778 189.788C155.111 190.822 154.576 191.652 154.179 192.193C154 192.496 153.799 192.785 153.578 193.058C153.728 192.735 153.903 192.423 154.101 192.127L155.61 189.65L160.63 181.48C162.602 178.3 164.429 175.468 165.806 173.412C166.497 172.396 167.069 171.608 167.477 171.037C167.672 170.761 167.887 170.5 168.121 170.256Z" fill="#263238"/>
<path d="M229.333 167.817L204.642 171.623C204.53 171.642 204.415 171.638 204.304 171.612C204.194 171.585 204.089 171.537 203.997 171.47C203.906 171.403 203.828 171.318 203.77 171.22C203.711 171.123 203.672 171.014 203.656 170.901L203.614 170.649C203.58 170.421 203.637 170.189 203.773 170.003C203.91 169.817 204.114 169.693 204.342 169.657L230.553 165.773L230.228 167.036C230.174 167.241 230.059 167.424 229.9 167.563C229.74 167.703 229.543 167.791 229.333 167.817Z" fill="#E0E0E0"/>
<path d="M229.333 167.817C229.566 167.762 229.776 167.635 229.932 167.454C230.089 167.272 230.184 167.046 230.204 166.807C230.277 166.495 230.361 166.134 230.457 165.737L230.529 165.815C226.165 166.519 216.311 168.016 204.865 169.711C204.632 169.737 204.401 169.777 204.173 169.831C204.081 169.87 203.997 169.927 203.928 170C203.859 170.072 203.805 170.158 203.771 170.252C203.741 170.347 203.728 170.447 203.735 170.547C203.735 170.643 203.765 170.787 203.783 170.883C203.803 170.981 203.842 171.073 203.899 171.155C203.956 171.236 204.029 171.306 204.113 171.358C204.297 171.46 204.512 171.486 204.715 171.43L205.412 171.322L206.801 171.112L212.097 170.312L221.061 168.972L227.114 168.1L228.762 167.877L229.188 167.823H229.339L229.194 167.859L228.768 167.944L227.132 168.226L221.121 169.2L212.163 170.601L206.873 171.418L205.484 171.635L204.781 171.743C204.511 171.806 204.228 171.765 203.987 171.629C203.865 171.556 203.76 171.458 203.678 171.342C203.597 171.226 203.54 171.095 203.512 170.955C203.512 170.817 203.47 170.721 203.452 170.577C203.44 170.434 203.458 170.291 203.506 170.156C203.558 170.019 203.638 169.894 203.742 169.791C203.846 169.687 203.97 169.607 204.107 169.555C204.356 169.489 204.609 169.443 204.865 169.416C216.287 167.715 226.177 166.29 230.559 165.701H230.655V165.797L230.367 166.861C230.324 167.135 230.196 167.387 230 167.583C229.879 167.699 229.73 167.782 229.567 167.823C229.387 167.823 229.333 167.823 229.333 167.817Z" fill="#263238"/>
<path d="M228.617 165.988L236.024 141.069C236.055 140.957 236.109 140.852 236.182 140.76C236.255 140.669 236.345 140.593 236.447 140.537C236.55 140.481 236.663 140.446 236.779 140.434C236.895 140.422 237.012 140.434 237.124 140.468L237.34 140.534C237.452 140.566 237.557 140.621 237.647 140.693C237.738 140.766 237.814 140.857 237.87 140.959C237.926 141.061 237.961 141.173 237.973 141.289C237.985 141.405 237.975 141.522 237.941 141.634L230.126 167.178L228.617 165.988Z" fill="#E0E0E0"/>
<path d="M228.617 165.99L228.725 166.062L229.019 166.284L230.162 167.15H230.072C231.184 163.29 234.28 153.172 237.809 141.437C237.817 141.335 237.804 141.232 237.771 141.135C237.738 141.038 237.685 140.948 237.616 140.872C237.449 140.721 237.239 140.625 237.015 140.596C236.916 140.573 236.814 140.571 236.714 140.589C236.614 140.607 236.519 140.646 236.435 140.702C236.35 140.758 236.278 140.831 236.223 140.916C236.168 141.002 236.13 141.097 236.113 141.197C235.837 142.123 235.566 143.037 235.296 143.932L233.751 149.096C232.759 152.385 231.863 155.355 231.106 157.85C230.348 160.344 229.729 162.346 229.302 163.771C229.086 164.451 228.917 164.974 228.797 165.382C228.737 165.557 228.695 165.695 228.653 165.809C228.642 165.86 228.623 165.908 228.599 165.953C228.599 165.953 228.599 165.911 228.599 165.815C228.599 165.719 228.665 165.569 228.713 165.4L229.158 163.801C229.573 162.376 230.15 160.357 230.865 157.88C231.58 155.403 232.476 152.379 233.444 149.066C233.931 147.407 234.448 145.67 234.977 143.86C235.248 142.958 235.518 142.057 235.795 141.113C235.852 140.835 236.013 140.59 236.246 140.428C236.365 140.347 236.5 140.292 236.642 140.267C236.784 140.242 236.93 140.248 237.069 140.283C237.213 140.325 237.298 140.343 237.448 140.397C237.582 140.458 237.702 140.543 237.803 140.65C237.901 140.757 237.977 140.883 238.024 141.021C238.072 141.158 238.091 141.304 238.079 141.45C238.04 141.653 237.988 141.854 237.923 142.051L237.755 142.598C237.64 142.964 237.532 143.331 237.418 143.692C237.201 144.413 236.979 145.129 236.763 145.832L235.542 149.98C234.725 152.637 233.955 155.12 233.27 157.357C231.881 161.781 230.799 165.232 230.18 167.216V167.294L230.114 167.24L228.995 166.314C228.859 166.218 228.733 166.109 228.617 165.99Z" fill="#263238"/>
<path d="M165.968 144.958C165.926 144.958 165.463 144.302 164.657 143.238C163.609 141.86 162.487 140.54 161.297 139.283C159.902 137.804 158.555 136.547 157.581 135.64C157.03 135.176 156.509 134.676 156.024 134.143C156.197 134.234 156.358 134.345 156.505 134.473C156.8 134.702 157.221 135.044 157.708 135.477C159.035 136.609 160.3 137.814 161.495 139.084C162.703 140.344 163.813 141.695 164.814 143.124C165.198 143.671 165.487 144.128 165.673 144.453C165.794 144.607 165.894 144.777 165.968 144.958Z" fill="#263238"/>
<g opacity="0.3">
<path d="M157.106 176.244C155.357 176.707 141.524 175.769 134.586 173.551C129.609 171.958 124.775 169.871 121.463 167.395C118.9 165.524 116.697 163.206 114.958 160.553C114.158 160.096 113.635 162.501 113.317 163.493C112.998 164.485 112.337 167.1 110.503 168.302C108.255 169.763 104.804 170.244 104.491 173.232C104.293 175.102 105.994 176.653 107.876 176.743C113.798 177.031 130.12 177.819 134.496 177.813C139.847 177.783 151.305 178.09 157.106 176.244Z" fill="black"/>
</g>
<path d="M159.313 175.228C159.193 175.347 159.064 175.457 158.928 175.559C158.512 175.822 158.061 176.024 157.588 176.16C155.833 176.536 154.032 176.65 152.243 176.496C149.977 176.388 147.302 176.052 144.344 175.631C141.127 175.205 137.939 174.585 134.797 173.773C131.648 172.956 128.601 171.786 125.713 170.286C123.358 169.05 121.173 167.512 119.215 165.711C117.893 164.5 116.712 163.145 115.692 161.671C115.337 161.148 115.091 160.734 114.916 160.439C114.825 160.297 114.745 160.148 114.676 159.994C114.788 160.122 114.886 160.261 114.97 160.409C115.145 160.692 115.421 161.094 115.794 161.611C116.845 163.046 118.042 164.367 119.365 165.555C121.328 167.316 123.506 168.823 125.846 170.04C128.732 171.498 131.77 172.633 134.905 173.424C138.037 174.232 141.212 174.856 144.416 175.294C147.374 175.733 150.037 176.094 152.285 176.232C154.055 176.399 155.84 176.318 157.588 175.991C158.054 175.876 158.502 175.7 158.922 175.468C159.048 175.381 159.179 175.301 159.313 175.228Z" fill="#263238"/>
<path d="M162.121 171.808C162.061 171.868 161.646 171.525 161.201 171.044C160.756 170.563 160.444 170.124 160.51 170.07C160.576 170.016 160.985 170.353 161.43 170.834C161.874 171.315 162.187 171.753 162.121 171.808Z" fill="#263238"/>
<path d="M158.129 139.801C158.129 139.855 157.275 139.47 155.844 139.236C153.977 138.919 152.06 139.093 150.28 139.74C148.5 140.387 146.918 141.485 145.69 142.927C144.747 144.033 144.356 144.863 144.302 144.833C144.356 144.621 144.441 144.418 144.554 144.232C144.83 143.717 145.154 143.23 145.522 142.777C146.734 141.256 148.343 140.099 150.171 139.434C151.998 138.769 153.974 138.621 155.88 139.007C156.453 139.12 157.015 139.285 157.558 139.5C157.764 139.567 157.957 139.669 158.129 139.801Z" fill="#263238"/>
<path d="M152.526 167.716C152.455 167.759 152.378 167.792 152.298 167.812C152.078 167.898 151.853 167.97 151.624 168.028C150.778 168.241 149.906 168.336 149.033 168.311C147.737 168.265 146.454 168.037 145.222 167.631C143.721 167.13 142.28 166.467 140.923 165.654C139.48 164.794 138.17 163.88 136.98 163.057C135.789 162.233 134.719 161.499 133.787 160.928C132.855 160.357 132.08 159.93 131.539 159.654C131.247 159.528 130.966 159.379 130.697 159.209C130.778 159.224 130.857 159.248 130.932 159.281C131.082 159.341 131.31 159.419 131.587 159.546C132.382 159.9 133.155 160.302 133.902 160.748C135.819 161.824 138.236 163.67 141.08 165.389C142.412 166.188 143.822 166.848 145.288 167.361C146.491 167.775 147.745 168.022 149.015 168.094C150.197 168.128 151.378 168 152.526 167.716Z" fill="#263238"/>
<path d="M158.129 175.228C157.977 175.238 157.824 175.238 157.672 175.228L156.361 175.156C155.796 175.126 155.099 175.078 154.293 174.994C153.488 174.91 152.568 174.844 151.558 174.699C150.548 174.555 149.436 174.435 148.257 174.224C147.079 174.014 145.817 173.786 144.494 173.515C141.633 172.903 138.81 172.122 136.041 171.177C133.279 170.203 130.586 169.044 127.98 167.708C126.777 167.058 125.659 166.463 124.649 165.814C124.144 165.489 123.639 165.213 123.182 164.888L121.866 163.974C121.012 163.415 120.309 162.814 119.665 162.327C119.347 162.075 119.064 161.846 118.782 161.624L118.066 161.023L117.086 160.145C116.969 160.047 116.86 159.938 116.762 159.82C116.89 159.904 117.013 159.996 117.128 160.097L118.144 160.926L118.872 161.528C119.142 161.744 119.473 161.961 119.768 162.207C120.423 162.682 121.132 163.265 121.992 163.812L123.315 164.702C123.771 165.014 124.276 165.303 124.787 165.61C125.797 166.247 126.934 166.812 128.112 167.473C130.713 168.786 133.396 169.931 136.144 170.9C138.903 171.841 141.713 172.627 144.56 173.257C145.877 173.533 147.127 173.798 148.305 173.984C149.484 174.17 150.584 174.357 151.594 174.501C152.604 174.645 153.518 174.736 154.317 174.838C155.117 174.94 155.814 175 156.379 175.054L157.684 175.18C157.833 175.181 157.983 175.197 158.129 175.228Z" fill="#263238"/>
<path d="M150.837 270.412L149.857 286.698L174.506 286.884C174.379 284.528 161.653 279.67 161.653 279.67L162.031 270.839L150.837 270.412Z" fill="#FFAC00"/>
<path d="M154.054 278.577C153.816 278.647 153.613 278.803 153.483 279.014C153.353 279.224 153.306 279.476 153.35 279.719C153.41 279.96 153.561 280.167 153.77 280.3C153.979 280.432 154.232 280.478 154.474 280.429C154.724 280.353 154.937 280.19 155.074 279.968C155.211 279.747 155.263 279.483 155.22 279.226C155.129 278.983 154.947 278.785 154.713 278.673C154.478 278.56 154.21 278.544 153.963 278.625" fill="#E0E0E0"/>
<path d="M149.857 286.699V284.643L173.574 285.725C173.574 285.725 174.668 286.218 174.53 286.993L149.857 286.699Z" fill="#263238"/>
<path d="M162.074 279.58C162.074 279.701 161.472 279.749 160.871 280.133C160.27 280.518 159.957 281.017 159.849 280.969C159.741 280.921 159.921 280.23 160.649 279.767C161.376 279.304 162.104 279.466 162.074 279.58Z" fill="#E0E0E0"/>
<path d="M164.652 280.668C164.652 280.782 164.159 280.987 163.744 281.492C163.329 281.997 163.209 282.538 163.089 282.532C162.969 282.526 162.896 281.84 163.426 281.221C163.955 280.602 164.652 280.554 164.652 280.668Z" fill="#E0E0E0"/>
<path d="M166.101 283.776C165.993 283.776 165.83 283.175 166.143 282.537C166.455 281.9 167.021 281.624 167.075 281.726C167.129 281.828 166.774 282.177 166.522 282.718C166.269 283.259 166.221 283.764 166.101 283.776Z" fill="#E0E0E0"/>
<path d="M161.88 276.671C161.826 276.779 161.279 276.611 160.594 276.671C159.908 276.731 159.391 276.924 159.319 276.822C159.247 276.719 159.77 276.293 160.576 276.256C161.381 276.22 161.958 276.575 161.88 276.671Z" fill="#E0E0E0"/>
<path d="M161.315 273.738C160.91 273.848 160.482 273.848 160.077 273.738C159.633 273.653 159.201 273.516 158.79 273.329C158.545 273.218 158.308 273.089 158.081 272.945C157.942 272.869 157.816 272.771 157.708 272.656C157.63 272.569 157.583 272.459 157.575 272.343C157.566 272.226 157.596 272.11 157.66 272.013C157.72 271.929 157.799 271.86 157.891 271.813C157.984 271.766 158.086 271.742 158.189 271.742C158.346 271.74 158.502 271.762 158.652 271.808C159.362 271.985 160.016 272.339 160.552 272.836C161.123 273.365 161.315 273.822 161.273 273.84C161.231 273.858 160.942 273.504 160.359 273.059C160.021 272.814 159.654 272.612 159.265 272.458C159.035 272.364 158.798 272.287 158.556 272.229C158.297 272.163 158.075 272.157 158.009 272.271C157.943 272.386 157.979 272.337 158.009 272.41C158.088 272.494 158.179 272.567 158.279 272.626C158.488 272.764 158.705 272.891 158.929 273.005C159.314 273.197 159.717 273.354 160.131 273.474C160.532 273.532 160.928 273.621 161.315 273.738Z" fill="#E0E0E0"/>
<path d="M161.153 273.911C160.922 273.555 160.813 273.133 160.841 272.709C160.805 271.976 160.978 271.249 161.34 270.611C161.408 270.45 161.517 270.31 161.657 270.205C161.796 270.1 161.96 270.032 162.133 270.01C162.242 270.016 162.347 270.052 162.437 270.113C162.527 270.175 162.599 270.259 162.644 270.358C162.705 270.503 162.748 270.654 162.77 270.809C162.809 271.087 162.809 271.368 162.77 271.645C162.697 272.106 162.511 272.542 162.229 272.913C161.742 273.551 161.237 273.689 161.231 273.653C161.225 273.617 161.61 273.358 161.983 272.751C162.198 272.397 162.335 272.002 162.386 271.591C162.418 271.354 162.418 271.113 162.386 270.875C162.35 270.611 162.253 270.401 162.151 270.425C162.049 270.449 161.821 270.623 161.718 270.827C161.597 271.041 161.492 271.264 161.406 271.495C161.265 271.892 161.182 272.307 161.159 272.727C161.093 273.436 161.219 273.893 161.153 273.911Z" fill="#E0E0E0"/>
<path d="M66.9729 231.498L51.0598 227.891L46.8516 252.202C49.1962 252.461 56.0255 240.684 56.0255 240.684L64.6764 242.487L66.9729 231.498Z" fill="#FFAC00"/>
<path d="M58.4187 233.351C58.3878 233.105 58.2679 232.88 58.0817 232.717C57.8956 232.554 57.6561 232.465 57.4087 232.467C57.1616 232.488 56.9321 232.604 56.7677 232.789C56.6032 232.975 56.5164 233.217 56.525 233.465C56.5576 233.726 56.6856 233.965 56.8843 234.137C57.083 234.309 57.3383 234.402 57.6011 234.397C57.8575 234.348 58.0849 234.202 58.2353 233.989C58.3857 233.775 58.4471 233.512 58.4067 233.254" fill="#E0E0E0"/>
<path d="M51.0836 227.891L53.1397 228.221L48.222 251.451C48.222 251.451 47.5607 252.443 46.8213 252.184L51.0836 227.891Z" fill="#263238"/>
<path d="M56.1514 241.099C56.0371 241.099 56.0852 240.497 55.8027 239.824C55.5201 239.151 55.0752 238.778 55.1414 238.676C55.2075 238.574 55.8628 238.868 56.1874 239.662C56.5121 240.455 56.2355 241.147 56.1514 241.099Z" fill="#E0E0E0"/>
<path d="M54.6368 243.468C54.5165 243.468 54.4023 242.927 53.9694 242.44C53.5366 241.953 53.0256 241.742 53.0496 241.622C53.0737 241.502 53.759 241.544 54.2881 242.163C54.8171 242.782 54.751 243.486 54.6368 243.468Z" fill="#E0E0E0"/>
<path d="M51.3418 244.393C51.3418 244.279 51.943 244.218 52.5441 244.633C53.1453 245.048 53.3076 245.649 53.1994 245.685C53.0912 245.721 52.8027 245.313 52.3097 244.976C51.8167 244.639 51.3418 244.513 51.3418 244.393Z" fill="#E0E0E0"/>
<path d="M59.0314 241.356C58.9292 241.284 59.1877 240.755 59.2599 240.093C59.332 239.432 59.2058 238.849 59.32 238.807C59.4342 238.765 59.7709 239.342 59.6747 240.135C59.5785 240.929 59.1156 241.452 59.0314 241.356Z" fill="#E0E0E0"/>
<path d="M62.0126 241.296C61.98 240.883 62.0546 240.469 62.229 240.093C62.3815 239.67 62.5833 239.267 62.8302 238.891C62.9797 238.668 63.1444 238.455 63.3232 238.254C63.4238 238.132 63.5412 238.024 63.6719 237.935C63.7691 237.872 63.8844 237.844 63.9997 237.853C64.115 237.863 64.2238 237.911 64.3091 237.989C64.3827 238.063 64.4378 238.153 64.4702 238.253C64.5026 238.352 64.5112 238.457 64.4955 238.56C64.4693 238.715 64.4207 238.865 64.3512 239.005C64.2453 239.254 64.1144 239.492 63.9604 239.715C63.7069 240.094 63.3943 240.431 63.0346 240.713C62.7274 241.003 62.3398 241.193 61.9224 241.26C61.8924 241.2 62.3072 240.989 62.8362 240.484C63.1454 240.195 63.4143 239.865 63.6358 239.504C63.7682 239.295 63.8809 239.073 63.9724 238.843C64.0867 238.596 64.1227 238.38 64.0205 238.296C63.9183 238.212 63.9664 238.254 63.8823 238.296C63.7857 238.362 63.6987 238.441 63.6238 238.53C63.4527 238.72 63.294 238.921 63.1488 239.131C62.896 239.477 62.6766 239.845 62.4936 240.232C62.3603 240.598 62.1995 240.954 62.0126 241.296Z" fill="#E0E0E0"/>
<path d="M61.875 241.111C62.2542 240.949 62.6744 240.909 63.0774 240.997C63.5315 241.051 63.9728 241.183 64.3819 241.387C64.6258 241.511 64.8573 241.658 65.0733 241.826C65.2212 241.921 65.3429 242.052 65.427 242.207C65.511 242.361 65.5548 242.534 65.5542 242.71C65.5308 242.817 65.4787 242.915 65.4035 242.995C65.3283 243.074 65.2328 243.132 65.1274 243.161C64.9741 243.199 64.8162 243.215 64.6584 243.209C64.3788 243.201 64.1016 243.155 63.8348 243.071C63.3921 242.922 62.9919 242.668 62.6685 242.331C62.1215 241.73 62.0674 241.225 62.1034 241.225C62.1395 241.225 62.3319 241.646 62.8729 242.115C63.1821 242.393 63.5499 242.599 63.9491 242.716C64.1794 242.784 64.4183 242.818 64.6584 242.818C64.923 242.818 65.1454 242.758 65.1394 242.662C65.1334 242.566 65.0011 242.301 64.8148 242.163C64.6277 242.006 64.4264 241.867 64.2136 241.748C63.8371 241.541 63.4319 241.391 63.0112 241.303C62.3439 241.129 61.881 241.183 61.875 241.111Z" fill="#E0E0E0"/>
<path d="M114.003 179.953C113.12 181.36 103.994 186.169 104.21 200.471L98.2345 231.738L62.6208 228.402L59.3203 242.698L104.523 250.153C104.523 250.153 110.901 251.692 114.641 244.213C118.38 236.734 128.383 209.489 128.6 208.828C128.816 208.166 134.978 192.109 134.978 192.109L114.003 179.953Z" fill="#263238"/>
<path d="M107.402 190.607C107.324 191.028 104.961 200.087 114.291 206.839C123.622 213.59 150.915 230.97 150.915 230.97L151.636 233.844L149.19 276.226L164.658 276.527C164.658 276.527 169.173 234.841 169.299 230.537C169.425 226.233 168.962 220.317 163.449 215.568L134.545 190.607C134.545 190.607 115.091 179.84 115.307 179.954C115.524 180.068 108.55 184.289 107.402 190.607Z" fill="#263238"/>
<path d="M114.003 179.953L116.071 177.182C116.071 177.182 125.089 180.861 130.968 185.105C134.701 187.804 140.154 191.424 139.667 195.259L114.003 179.953Z" fill="#263238"/>
<path d="M150.915 230.962C150.86 230.939 150.807 230.911 150.759 230.877L150.314 230.607L148.606 229.543L142.384 225.581C137.142 222.214 129.898 217.573 121.986 212.301C120.002 210.984 118.139 209.602 116.281 208.339C114.483 207.139 112.786 205.794 111.207 204.317C109.753 202.976 108.606 201.335 107.847 199.508C107.241 197.898 106.942 196.19 106.963 194.47C106.957 191.986 107.54 189.537 108.664 187.322C108.972 186.726 109.332 186.159 109.74 185.627L110.077 185.224C110.114 185.177 110.154 185.133 110.197 185.092C110.197 185.092 110.167 185.146 110.101 185.242L109.795 185.663C109.411 186.207 109.07 186.78 108.773 187.376C107.701 189.586 107.158 192.015 107.185 194.47C107.178 196.159 107.484 197.834 108.087 199.412C108.845 201.193 109.977 202.79 111.406 204.095C112.981 205.557 114.672 206.89 116.462 208.081C118.313 209.337 120.183 210.72 122.161 212.031C130.096 217.309 137.31 221.98 142.505 225.395L148.673 229.441L150.344 230.553L150.777 230.853C150.873 230.919 150.921 230.956 150.915 230.962Z" fill="#455A64"/>
<path d="M152.34 205.973C152.243 205.919 152.152 205.855 152.069 205.781L151.342 205.18L148.733 202.992L140.112 195.621C137.299 193.095 134.283 190.805 131.094 188.774C129.892 187.974 128.894 187.349 128.209 186.916L127.421 186.411C127.241 186.297 127.151 186.231 127.157 186.219C127.259 186.255 127.357 186.302 127.451 186.357C127.643 186.459 127.92 186.61 128.269 186.808C128.978 187.211 129.988 187.812 131.214 188.611C134.447 190.59 137.494 192.858 140.316 195.387L148.871 202.823L151.438 205.102L152.129 205.733C152.274 205.889 152.34 205.961 152.34 205.973Z" fill="#455A64"/>
<path d="M103.687 240.678C102.631 239.315 101.661 237.887 100.783 236.404C99.8136 234.977 98.9303 233.493 98.1377 231.961C99.1927 233.326 100.164 234.753 101.047 236.235C102.012 237.664 102.893 239.147 103.687 240.678Z" fill="#455A64"/>
<path d="M106.242 237.919C104.957 237.072 103.731 236.138 102.574 235.124C101.347 234.194 100.186 233.18 99.0996 232.088C100.386 232.936 101.613 233.87 102.773 234.883C103.998 235.814 105.157 236.828 106.242 237.919Z" fill="#455A64"/>
<path d="M158.472 228.209C158.472 228.299 156.669 228.81 154.486 229.508C152.304 230.205 150.513 230.836 150.477 230.752C150.823 230.527 151.197 230.347 151.589 230.217C152.298 229.928 153.284 229.562 154.39 229.207C155.496 228.852 156.512 228.606 157.252 228.413C157.648 228.292 158.058 228.223 158.472 228.209Z" fill="#455A64"/>
<path d="M159.446 233.283C158.185 233.437 156.917 233.528 155.646 233.554C154.382 233.688 153.112 233.758 151.841 233.764C153.08 233.449 154.35 233.273 155.628 233.241C156.898 233.11 158.179 233.124 159.446 233.283Z" fill="#455A64"/>
<path d="M55.4668 274.617C61.719 268.178 68.6926 264.661 77.6562 263.88C75.546 260.592 71.7947 254.183 69.6846 250.895C58.4486 250.949 49.7195 257.285 43.834 266.73C47.9701 269.717 51.3427 271.629 55.4668 274.617Z" fill="#E0E0E0"/>
<path d="M55.4671 274.615L55.2627 274.489L54.6615 274.074L52.335 272.517C50.309 271.164 47.2971 269.343 43.7562 266.818L43.666 266.758L43.7261 266.668C44.8146 264.921 46.0197 263.25 47.3332 261.666C48.8486 259.879 50.5404 258.249 52.3831 256.802C54.4038 255.21 56.6276 253.894 58.996 252.889C61.5397 251.825 64.229 251.15 66.9736 250.887C67.4204 250.829 67.8699 250.795 68.3203 250.784L69.6489 250.736H69.739L69.7811 250.814C72.6908 255.407 75.2518 259.88 77.7467 263.812L77.873 264.004H77.6385C74.2457 264.272 70.9101 265.034 67.7371 266.265C65.2721 267.242 62.9362 268.518 60.7815 270.064C59.3836 271.072 58.0485 272.164 56.7837 273.335L55.7797 274.29L55.5272 274.525C55.4671 274.581 55.437 274.605 55.437 274.597L55.5212 274.501L55.7677 274.242C55.9841 274.02 56.2907 273.683 56.7176 273.268C57.9626 272.068 59.2861 270.951 60.6793 269.926C62.8287 268.344 65.1699 267.041 67.6469 266.048C70.8365 264.785 74.1954 264.001 77.6145 263.722L77.5062 263.938C74.9933 260.012 72.4203 255.522 69.5226 250.959L69.6549 251.031L68.3323 251.079C67.8934 251.079 67.4486 251.115 67.0037 251.175C64.3039 251.447 61.6596 252.119 59.1583 253.171C56.8059 254.159 54.5961 255.457 52.5875 257.031C50.756 258.464 49.0705 260.075 47.5556 261.84C46.2491 263.411 45.0443 265.063 43.9486 266.788V266.631C47.4654 269.168 50.4653 271.026 52.4612 272.409C53.4712 273.094 54.2648 273.647 54.7577 274.02L55.3589 274.453L55.4671 274.615Z" fill="#263238"/>
<path d="M48.9736 264.289C50.3827 265.166 51.7359 266.13 53.0256 267.175C54.3767 268.141 55.6677 269.189 56.8911 270.313C55.4788 269.441 54.1252 268.477 52.8392 267.427C51.488 266.461 50.1971 265.413 48.9736 264.289Z" fill="#263238"/>
<path d="M51.2773 261.373C52.6054 262.37 53.8684 263.45 55.0587 264.607C56.3178 265.689 57.5084 266.847 58.6237 268.076C57.2984 267.079 56.0374 265.998 54.8483 264.842C53.5866 263.761 52.3939 262.603 51.2773 261.373Z" fill="#263238"/>
<path d="M54.709 258.645C55.0809 258.953 55.4212 259.297 55.725 259.673C56.3262 260.328 57.1678 261.224 58.1297 262.21C59.0916 263.195 59.9031 264.103 60.4683 264.795C60.8026 265.144 61.0896 265.536 61.3219 265.961C60.9508 265.654 60.6105 265.312 60.3059 264.939L57.9012 262.426C56.9634 261.44 56.1398 260.514 55.5807 259.817C55.2438 259.463 54.9511 259.069 54.709 258.645Z" fill="#263238"/>
<path d="M64.208 264.908C63.8387 264.597 63.5078 264.244 63.2221 263.856C62.657 263.17 61.9115 262.19 61.1601 261.06C60.4086 259.93 59.7774 258.884 59.3265 258.114C59.0584 257.715 58.8346 257.288 58.6592 256.84C59.6498 258.139 60.5709 259.489 61.4186 260.886C62.17 262.01 62.8794 263.008 63.3965 263.723C63.7065 264.089 63.9785 264.486 64.208 264.908Z" fill="#263238"/>
<path d="M66.907 263.779C66.5973 263.465 66.3249 263.116 66.0954 262.739C65.6265 262.066 65.0193 261.116 64.4121 260.028C63.8049 258.94 63.312 257.93 62.9813 257.184C62.7786 256.79 62.6251 256.372 62.5244 255.94C62.6086 255.904 63.4743 257.743 64.6886 259.878C65.903 262.012 66.9731 263.725 66.907 263.779Z" fill="#263238"/>
<path d="M70.5204 262.604C70.2018 262.285 69.9214 261.93 69.6848 261.546C69.2098 260.867 68.5726 259.905 67.9113 258.823C67.25 257.741 66.7089 256.737 66.3062 255.997C66.0712 255.621 65.8834 255.217 65.7471 254.795C66.0376 255.139 66.2896 255.514 66.4985 255.913L68.1818 258.685C68.783 259.707 69.3842 260.632 69.8711 261.45C70.134 261.807 70.3521 262.194 70.5204 262.604Z" fill="#263238"/>
<path d="M104.847 198.587C95.0542 198.797 86.9203 196.182 79.3815 189.918C78.5038 194.09 76.5019 201.942 75.6182 206.12C84.4074 214.68 96.0161 216.454 107.853 213.646C106.909 208.14 105.773 204.088 104.847 198.587Z" fill="#FAFAFA"/>
<path d="M104.848 198.586C104.848 198.586 104.848 198.67 104.908 198.844C104.968 199.019 104.998 199.295 105.064 199.632C105.202 200.335 105.407 201.339 105.665 202.638C106.194 205.241 107.132 208.962 107.956 213.639V213.747H107.847C105.672 214.264 103.465 214.635 101.241 214.86C98.6929 215.084 96.1292 215.053 93.5875 214.769C90.7935 214.45 88.0542 213.76 85.4416 212.719C82.6519 211.598 80.0476 210.061 77.7165 208.162C77.3248 207.867 76.9514 207.547 76.5983 207.207L75.5222 206.227L75.4561 206.173V206.082C76.7245 200.287 78.1613 194.852 79.2375 189.887L79.2916 189.658L79.4719 189.808C82.3127 192.202 85.4885 194.166 88.8984 195.64C91.5599 196.782 94.3526 197.589 97.2126 198.045C99.0721 198.332 100.947 198.507 102.828 198.568H104.337H104.715H104.848H104.709H104.319C103.976 198.568 103.483 198.598 102.834 198.568C100.946 198.547 99.0621 198.398 97.1946 198.123C94.314 197.701 91.4983 196.918 88.8142 195.79C85.3712 194.324 82.1626 192.359 79.2916 189.959L79.526 189.881C78.4619 194.858 77.0311 200.299 75.7687 206.082L75.7266 205.938L76.7907 206.912C77.1454 207.237 77.5061 207.561 77.8968 207.856C80.2063 209.734 82.7839 211.256 85.5438 212.371C88.1306 213.405 90.8438 214.091 93.6116 214.409C96.1322 214.702 98.6758 214.742 101.204 214.529C103.429 214.317 105.638 213.964 107.817 213.471L107.733 213.597C106.946 208.932 106.038 205.181 105.545 202.59C105.286 201.285 105.112 200.269 104.998 199.584C104.944 199.253 104.908 198.982 104.878 198.802C104.863 198.731 104.853 198.658 104.848 198.586Z" fill="#263238"/>
<path d="M101.961 211.583C101.552 209.819 101.245 208.033 101.042 206.233C100.738 204.442 100.537 202.636 100.44 200.822C100.85 202.587 101.157 204.373 101.36 206.173C101.664 207.963 101.865 209.77 101.961 211.583Z" fill="#263238"/>
<path d="M97.9398 212.089C97.6919 210.295 97.5454 208.489 97.501 206.678C97.3527 204.879 97.3106 203.072 97.3747 201.268C97.6235 203.061 97.77 204.868 97.8136 206.678C97.958 208.478 98.0001 210.284 97.9398 212.089Z" fill="#263238"/>
<path d="M93.1848 211.579C93.1324 211.053 93.1324 210.523 93.1848 209.998C93.2209 209.03 93.257 207.689 93.281 206.204C93.3051 204.719 93.3532 203.379 93.4373 202.405C93.4541 201.877 93.5287 201.353 93.6598 200.842C93.7054 201.366 93.7054 201.893 93.6598 202.417C93.6598 203.499 93.6177 204.786 93.5936 206.21C93.5696 207.635 93.4974 209.042 93.4013 210.016C93.3834 210.543 93.3109 211.067 93.1848 211.579Z" fill="#263238"/>
<path d="M90.606 199.43C90.6515 199.953 90.6353 200.479 90.5579 200.999C90.4387 202.258 90.2561 203.51 90.0108 204.75C89.7343 206.205 89.4096 207.503 89.1812 208.447C89.0804 208.961 88.9315 209.464 88.7363 209.95C88.7564 209.425 88.833 208.903 88.9648 208.393C89.1752 207.341 89.4277 206.085 89.7042 204.69C89.9808 203.295 90.1972 201.931 90.3355 200.975C90.381 200.453 90.4715 199.936 90.606 199.43Z" fill="#263238"/>
<path d="M87.6425 198.236C87.6423 198.719 87.5838 199.199 87.4681 199.667C87.3118 200.545 87.0533 201.747 86.6926 203.058C86.3319 204.368 85.9411 205.535 85.6285 206.364C85.4834 206.826 85.2815 207.269 85.0273 207.681C85.1104 207.207 85.2372 206.742 85.4061 206.292C85.6646 205.444 86.0073 204.278 86.38 202.974C86.7527 201.669 87.0293 200.485 87.2397 199.619C87.3253 199.145 87.4603 198.682 87.6425 198.236Z" fill="#263238"/>
<path d="M83.9381 196.371C83.9345 196.863 83.876 197.353 83.7638 197.832C83.6135 198.728 83.367 199.96 83.0544 201.307C82.7418 202.653 82.4051 203.862 82.1406 204.727C82.0282 205.208 81.8608 205.674 81.6416 206.116C81.685 205.627 81.7797 205.143 81.9242 204.673C82.1646 203.681 82.4412 202.515 82.7478 201.235C83.0544 199.954 83.3189 198.782 83.5473 197.79C83.6286 197.305 83.7595 196.829 83.9381 196.371Z" fill="#263238"/>
<path d="M120.231 249.662C114.923 257.039 108.43 261.607 99.5869 263.712C102.19 266.717 106.897 272.567 109.5 275.549C120.754 273.823 128.558 266.176 133.078 255.842C128.473 253.456 124.836 252.043 120.231 249.662Z" fill="#EBEBEB"/>
<path d="M120.232 249.661C120.309 249.687 120.383 249.719 120.455 249.757L121.128 250.082L123.689 251.284C125.913 252.342 129.202 253.725 133.128 255.727L133.23 255.775L133.182 255.871C132.342 257.783 131.376 259.637 130.29 261.42C129.035 263.436 127.581 265.322 125.95 267.047C124.154 268.95 122.112 270.604 119.878 271.965C117.487 273.408 114.893 274.484 112.183 275.157C111.743 275.279 111.298 275.378 110.848 275.452L109.519 275.704H109.435L109.381 275.638C105.774 271.43 102.552 267.36 99.4737 263.795L99.3174 263.615L99.5458 263.56C102.908 262.79 106.138 261.53 109.135 259.821C111.463 258.48 113.616 256.855 115.543 254.982C116.797 253.766 117.974 252.473 119.066 251.11L119.926 250.01L120.148 249.733C120.196 249.673 120.22 249.643 120.226 249.649L120.154 249.757L119.944 250.052C119.757 250.31 119.505 250.689 119.132 251.17C118.066 252.56 116.907 253.875 115.663 255.108C113.74 257.009 111.587 258.663 109.255 260.032C106.253 261.765 103.012 263.047 99.636 263.837L99.7142 263.609C102.81 267.173 106.051 271.267 109.64 275.434L109.495 275.38L110.812 275.133C111.256 275.059 111.695 274.961 112.128 274.838C114.811 274.175 117.378 273.114 119.745 271.688C121.956 270.348 123.978 268.719 125.757 266.843C127.381 265.138 128.831 263.275 130.086 261.282C131.17 259.512 132.14 257.675 132.989 255.781L133.043 255.931C129.142 253.912 125.865 252.493 123.653 251.405C122.541 250.864 121.687 250.431 121.116 250.13L120.479 249.775L120.232 249.661Z" fill="#263238"/>
<path d="M128.293 259.053C126.754 258.376 125.257 257.61 123.808 256.757C122.311 255.99 120.864 255.13 119.474 254.184C121.013 254.859 122.511 255.626 123.958 256.48C125.455 257.247 126.903 258.106 128.293 259.053Z" fill="#263238"/>
<path d="M126.393 262.311C124.917 261.506 123.491 260.61 122.125 259.629C120.703 258.733 119.337 257.749 118.037 256.684C119.507 257.499 120.924 258.404 122.281 259.395C123.711 260.281 125.085 261.254 126.393 262.311Z" fill="#263238"/>
<path d="M123.357 265.558C122.938 265.305 122.547 265.008 122.191 264.674C121.487 264.109 120.513 263.333 119.431 262.492C118.349 261.65 117.369 260.856 116.696 260.249C116.311 259.945 115.965 259.594 115.668 259.203C116.085 259.456 116.478 259.748 116.84 260.075L119.624 262.245C120.712 263.093 121.668 263.898 122.335 264.506C122.717 264.813 123.061 265.166 123.357 265.558Z" fill="#263238"/>
<path d="M112.909 260.686C113.324 260.942 113.708 261.247 114.051 261.593C114.921 262.382 115.749 263.215 116.534 264.088C117.46 265.11 118.248 266.072 118.807 266.769C119.137 267.137 119.425 267.54 119.666 267.972C119.594 268.038 118.127 266.361 116.3 264.323C115.386 263.313 114.496 262.417 113.895 261.78C113.531 261.449 113.2 261.082 112.909 260.686Z" fill="#263238"/>
<path d="M110.372 262.227C110.732 262.491 111.057 262.8 111.34 263.146C111.905 263.748 112.656 264.613 113.426 265.611C114.195 266.609 114.845 267.553 115.284 268.25C115.55 268.621 115.766 269.025 115.927 269.453C115.849 269.501 114.724 267.812 113.179 265.846C111.634 263.88 110.3 262.287 110.372 262.227Z" fill="#263238"/>
<path d="M106.922 263.934C107.289 264.205 107.622 264.52 107.914 264.871C108.515 265.473 109.272 266.35 110.096 267.336C110.92 268.322 111.629 269.248 112.128 269.927C112.423 270.277 112.672 270.663 112.868 271.076C112.527 270.773 112.221 270.434 111.954 270.066L109.856 267.535C109.074 266.603 108.371 265.731 107.752 265.022C107.439 264.688 107.161 264.324 106.922 263.934Z" fill="#263238"/>
<path d="M183.229 249.973C190.66 244.754 198.259 242.584 207.312 243.498C205.84 239.831 203.321 232.749 201.848 229.07C190.672 227.002 180.807 231.649 173.142 239.891C176.707 243.684 179.67 246.215 183.229 249.973Z" fill="#FAFAFA"/>
<path d="M183.228 249.975C183.166 249.927 183.107 249.872 183.054 249.813L182.519 249.284L180.505 247.294C178.75 245.569 176.104 243.188 173.057 240.008L172.984 239.93L173.057 239.852C174.476 238.324 175.996 236.894 177.607 235.571C179.453 234.083 181.443 232.782 183.547 231.688C185.862 230.488 188.326 229.602 190.875 229.055C193.607 228.475 196.41 228.313 199.19 228.574C199.643 228.602 200.094 228.654 200.542 228.73L201.877 228.928H201.961V229.012C203.981 234.134 205.682 239.064 207.414 243.441L207.504 243.657H207.269C203.847 243.282 200.387 243.41 197.001 244.036C194.365 244.538 191.8 245.364 189.366 246.495C187.785 247.229 186.25 248.062 184.773 248.99L183.571 249.747L183.277 249.933C183.21 249.975 183.174 249.994 183.174 249.987L183.277 249.909L183.571 249.699C183.83 249.519 184.172 249.242 184.701 248.911C186.164 247.952 187.691 247.092 189.27 246.338C191.721 245.156 194.313 244.291 196.983 243.765C200.392 243.116 203.879 242.972 207.33 243.338L207.179 243.531C205.43 239.154 203.717 234.225 201.703 229.103L201.817 229.193L200.494 229C200.053 228.921 199.607 228.869 199.16 228.844C196.412 228.59 193.642 228.748 190.942 229.313C188.417 229.853 185.975 230.724 183.679 231.904C181.589 232.984 179.61 234.267 177.77 235.734C176.168 237.039 174.65 238.445 173.225 239.942V239.786C176.231 242.972 178.87 245.382 180.595 247.138C181.467 248.01 182.128 248.701 182.567 249.176L183.06 249.711C183.123 249.794 183.18 249.883 183.228 249.975Z" fill="#263238"/>
<path d="M178.732 238.48C179.965 239.621 181.128 240.836 182.213 242.118C183.376 243.332 184.46 244.619 185.46 245.971C184.226 244.829 183.064 243.612 181.979 242.328C180.817 241.115 179.733 239.83 178.732 238.48Z" fill="#263238"/>
<path d="M181.569 236.021C182.701 237.263 183.751 238.577 184.713 239.953C185.761 241.265 186.727 242.64 187.605 244.071C186.478 242.826 185.428 241.513 184.461 240.14C183.416 238.826 182.45 237.451 181.569 236.021Z" fill="#263238"/>
<path d="M185.501 233.953C185.809 234.328 186.08 234.73 186.313 235.155C186.787 235.925 187.449 236.959 188.194 238.125C188.94 239.292 189.601 240.344 190.034 241.131C190.3 241.545 190.512 241.992 190.665 242.46C190.358 242.084 190.084 241.682 189.847 241.257L187.93 238.306C187.184 237.145 186.547 236.069 186.126 235.3C185.866 234.877 185.656 234.425 185.501 233.953Z" fill="#263238"/>
<path d="M193.755 241.96C193.449 241.591 193.187 241.188 192.974 240.758C192.541 239.97 191.988 238.852 191.453 237.59C190.918 236.327 190.491 235.185 190.191 234.313C189.999 233.867 189.856 233.401 189.764 232.924C189.86 232.882 190.689 234.944 191.742 237.469C192.277 238.726 192.788 239.874 193.172 240.656C193.408 241.071 193.604 241.507 193.755 241.96Z" fill="#263238"/>
<path d="M196.653 241.361C196.406 240.985 196.204 240.582 196.051 240.159C195.715 239.407 195.294 238.355 194.897 237.153C194.5 235.951 194.2 234.857 194.013 234.057C193.881 233.628 193.806 233.183 193.791 232.734C193.875 232.734 194.392 234.682 195.192 237.057C195.991 239.431 196.737 241.361 196.653 241.361Z" fill="#263238"/>
<path d="M200.465 240.884C200.22 240.507 200.018 240.104 199.864 239.682C199.515 238.918 199.064 237.848 198.613 236.646C198.162 235.443 197.796 234.337 197.555 233.532C197.391 233.106 197.282 232.662 197.23 232.209C197.452 232.608 197.629 233.029 197.759 233.465L198.908 236.531C199.341 237.668 199.725 238.702 200.068 239.597C200.249 240.01 200.382 240.441 200.465 240.884Z" fill="#263238"/>
<path d="M120.376 240.825C123.532 243.17 127.933 243.23 131.66 241.98C135.387 240.729 138.61 238.372 141.796 236.04C144.982 233.707 148.283 231.429 152.076 230.383L143.227 212.66C143.227 212.66 134.75 215.991 129.087 222.411C124.506 227.605 114.058 225.243 114.058 225.243L120.376 240.825Z" fill="#FAFAFA"/>
<path d="M120.376 240.825C120.376 240.825 120.328 240.741 120.25 240.561C120.172 240.38 120.058 240.104 119.913 239.767L118.633 236.683C117.527 233.984 115.94 230.07 113.974 225.261L113.896 225.062L114.106 225.104C116.4 225.562 118.745 225.716 121.08 225.561C122.362 225.463 123.63 225.225 124.861 224.852C126.152 224.45 127.345 223.78 128.36 222.886C128.859 222.423 129.346 221.906 129.839 221.371C130.332 220.836 130.867 220.349 131.408 219.85C132.527 218.853 133.704 217.922 134.931 217.061C137.51 215.252 140.273 213.721 143.173 212.492L143.299 212.432L143.365 212.564C143.732 213.291 144.123 214.079 144.513 214.866C147.225 220.277 149.828 225.513 152.208 230.293L152.287 230.449L152.112 230.497C149.746 231.213 147.499 232.277 145.445 233.653C143.449 234.934 141.646 236.304 139.89 237.537C138.26 238.724 136.549 239.794 134.768 240.741C133.239 241.561 131.605 242.168 129.911 242.545C128.529 242.842 127.111 242.933 125.703 242.815C124.657 242.724 123.629 242.487 122.649 242.112C122.039 241.878 121.454 241.582 120.905 241.228L120.496 240.933C120.406 240.867 120.358 240.831 120.364 240.825C121.087 241.316 121.866 241.72 122.685 242.028C123.653 242.377 124.664 242.595 125.691 242.677C127.081 242.777 128.478 242.674 129.839 242.37C131.516 241.989 133.134 241.382 134.648 240.567C136.414 239.619 138.109 238.546 139.722 237.356C141.465 236.118 143.269 234.741 145.277 233.443C147.348 232.043 149.618 230.962 152.01 230.238L151.92 230.449L144.237 215.029C143.84 214.241 143.449 213.46 143.089 212.726L143.287 212.804C140.411 214.02 137.669 215.531 135.105 217.313C133.886 218.167 132.718 219.09 131.606 220.079C131.071 220.572 130.542 221.065 130.049 221.582C129.556 222.099 129.081 222.622 128.552 223.109C127.504 224.025 126.275 224.711 124.945 225.122C123.692 225.498 122.402 225.736 121.098 225.832C118.737 225.976 116.368 225.809 114.052 225.333L114.184 225.183C116.108 229.992 117.659 233.888 118.741 236.605C119.27 237.946 119.679 239.01 119.943 239.713C120.076 240.062 120.178 240.314 120.256 240.531C120.334 240.747 120.376 240.825 120.376 240.825Z" fill="#263238"/>
<path d="M125.708 239.701C125.63 239.731 124.452 237.188 123.081 234.02C121.71 230.852 120.676 228.243 120.742 228.213C121.713 230.061 122.59 231.957 123.369 233.894C124.74 237.068 125.786 239.665 125.708 239.701Z" fill="#263238"/>
<path d="M129.537 239.285C128.454 237.534 127.462 235.728 126.567 233.874C125.004 230.869 123.802 228.386 123.874 228.35C124.957 230.1 125.948 231.906 126.844 233.76C127.835 235.555 128.734 237.399 129.537 239.285Z" fill="#263238"/>
<path d="M132.381 238.148C132.061 237.651 131.782 237.128 131.546 236.585C131.059 235.612 130.374 234.271 129.592 232.804C128.81 231.337 128.065 230.027 127.524 229.077C127.208 228.577 126.931 228.055 126.694 227.514C127.08 227.963 127.422 228.448 127.716 228.963C128.318 229.882 129.081 231.181 129.869 232.654C130.656 234.127 131.305 235.491 131.744 236.495C132.013 237.023 132.227 237.577 132.381 238.148Z" fill="#263238"/>
<path d="M135.345 235.594C134.99 235.156 134.674 234.687 134.401 234.193L132.219 230.767L129.977 227.376C129.637 226.927 129.337 226.448 129.081 225.945C129.482 226.344 129.842 226.781 130.157 227.25C130.758 228.086 131.612 229.258 132.484 230.598C133.355 231.939 134.083 233.171 134.594 234.079C134.893 234.559 135.145 235.066 135.345 235.594Z" fill="#263238"/>
<path d="M138.207 233.473C137.8 233.071 137.432 232.632 137.106 232.162C136.457 231.327 135.591 230.148 134.702 228.814C133.812 227.479 133.006 226.247 132.459 225.339C132.139 224.862 131.863 224.357 131.636 223.83C132.011 224.264 132.348 224.728 132.646 225.219C133.295 226.181 134.083 227.347 134.96 228.633L137.299 232.03C137.643 232.484 137.946 232.967 138.207 233.473Z" fill="#263238"/>
<path d="M140.582 231.295C140.17 230.896 139.799 230.457 139.475 229.985C138.826 229.149 137.96 227.965 137.071 226.636C136.181 225.308 135.375 224.069 134.828 223.161C134.505 222.687 134.231 222.182 134.011 221.652C134.386 222.084 134.722 222.549 135.015 223.041L137.329 226.456C138.213 227.742 139.013 228.903 139.674 229.852C140.017 230.307 140.32 230.79 140.582 231.295Z" fill="#263238"/>
<path d="M143.185 229.511C141.941 228.019 140.777 226.461 139.698 224.845C138.537 223.289 137.459 221.671 136.47 220C137.716 221.491 138.88 223.048 139.957 224.665C141.118 226.222 142.195 227.839 143.185 229.511Z" fill="#263238"/>
<path d="M145.409 228.651C145.065 228.147 144.77 227.612 144.525 227.052C143.978 225.946 143.323 224.588 142.547 223.079C141.772 221.57 141.038 220.151 140.461 219.177C139.884 218.203 139.487 217.62 139.529 217.59C139.962 218.03 140.337 218.523 140.648 219.057C141.445 220.311 142.174 221.607 142.83 222.94C143.605 224.491 144.261 225.946 144.73 226.956C144.995 227.505 145.222 228.071 145.409 228.651Z" fill="#263238"/>
<path d="M26.6949 222.8C29.851 225.145 34.2517 225.205 37.9789 223.948C41.7062 222.692 44.9346 220.341 48.1148 218.009C51.295 215.676 54.6015 213.398 58.3949 212.352L49.5396 194.629C49.5396 194.629 41.1231 197.965 35.4239 204.38C30.843 209.574 20.3945 207.212 20.3945 207.212L26.6949 222.8Z" fill="#FAFAFA"/>
<path d="M26.6945 222.802L26.5743 222.537L26.2316 221.738C25.9371 221.022 25.5042 219.988 24.9571 218.66L20.292 207.237L20.2139 207.039L20.4243 207.081C22.7195 207.533 25.0634 207.686 27.3979 207.538C28.6801 207.437 29.9478 207.199 31.1793 206.828C32.4685 206.421 33.6596 205.752 34.6782 204.863C35.1832 204.4 35.6641 203.877 36.1571 203.348C36.65 202.819 37.1851 202.326 37.7261 201.827C38.847 200.829 40.0232 199.896 41.249 199.031C43.8459 197.225 46.6244 195.696 49.5393 194.468L49.6715 194.414L49.7376 194.546L50.8859 196.843C53.5912 202.253 56.1943 207.496 58.5749 212.269L58.6531 212.431L58.4787 212.479C56.1136 213.191 53.8683 214.253 51.8177 215.63C49.8218 216.91 48.0123 218.281 46.2568 219.519C44.6236 220.708 42.9079 221.778 41.1228 222.723C39.5905 223.541 37.9544 224.148 36.2593 224.527C34.8769 224.819 33.4592 224.909 32.051 224.792C31.0079 224.7 29.9823 224.465 29.0031 224.094C28.3904 223.864 27.8056 223.565 27.2597 223.204L26.8448 222.91L26.7126 222.808C27.4375 223.296 28.2162 223.699 29.0331 224.01C30.002 224.357 31.0129 224.574 32.039 224.653C33.429 224.756 34.8264 224.654 36.1871 224.353C37.8646 223.972 39.4826 223.366 40.9965 222.549C42.7607 221.599 44.4562 220.526 46.0705 219.339C47.8139 218.1 49.6234 216.718 51.6253 215.425C53.6971 214.025 55.9666 212.943 58.3585 212.215L58.2683 212.425L50.5613 197.005L49.413 194.709L49.6114 194.781C46.735 196.006 43.9931 197.525 41.4294 199.314C40.2129 200.17 39.0448 201.093 37.9305 202.079C37.3955 202.572 36.8665 203.065 36.3735 203.576C35.8805 204.087 35.4056 204.616 34.8766 205.103C33.828 206.02 32.5994 206.708 31.2695 207.123C30.0158 207.494 28.7259 207.73 27.422 207.826C25.0639 207.973 22.6968 207.807 20.3822 207.333L20.5145 207.177L25.0654 218.599C25.5944 219.94 26.0092 221.004 26.2677 221.713L26.5803 222.525C26.624 222.615 26.6621 222.707 26.6945 222.802Z" fill="#263238"/>
<path d="M32.0517 221.672C31.0781 219.825 30.2012 217.929 29.4245 215.991C28.5463 214.097 27.7657 212.158 27.0859 210.184C27.1641 210.154 28.3364 212.697 29.7131 215.865C31.0898 219.033 32.1058 221.642 32.0517 221.672Z" fill="#263238"/>
<path d="M35.8748 221.255C34.7962 219.513 33.807 217.717 32.911 215.875C31.9173 214.079 31.0183 212.233 30.2178 210.344C31.2998 212.095 32.291 213.901 33.1876 215.754C34.1766 217.541 35.0735 219.377 35.8748 221.255Z" fill="#263238"/>
<path d="M38.7185 220.119C38.3966 219.624 38.1151 219.103 37.8769 218.562C37.3899 217.588 36.7106 216.241 35.9231 214.775C35.1355 213.308 34.4021 211.997 33.861 211.053C33.5424 210.555 33.263 210.032 33.0254 209.49C33.4148 209.937 33.7573 210.422 34.0474 210.939C34.6486 211.859 35.4121 213.157 36.1996 214.63C36.9871 216.103 37.6424 217.468 38.0813 218.466C38.3457 218.995 38.5591 219.549 38.7185 220.119Z" fill="#263238"/>
<path d="M41.6882 217.569C41.333 217.129 41.0153 216.661 40.7384 216.168L38.5561 212.736L36.3137 209.351C35.9737 208.899 35.674 208.418 35.418 207.914C35.8191 208.312 36.1796 208.749 36.4941 209.219C37.0953 210.054 37.9549 211.233 38.8206 212.567C39.6863 213.902 40.4258 215.14 40.9308 216.054C41.2345 216.532 41.4883 217.039 41.6882 217.569Z" fill="#263238"/>
<path d="M44.5494 215.45C44.1378 215.051 43.7673 214.612 43.4432 214.139C42.7939 213.297 41.9343 212.119 41.0385 210.784C40.1428 209.45 39.3432 208.217 38.7961 207.316C38.4731 206.842 38.1992 206.336 37.9785 205.807C38.3538 206.239 38.6898 206.704 38.9825 207.195C39.6318 208.151 40.4253 209.318 41.297 210.61L43.6416 214.007C43.9843 214.461 44.288 214.944 44.5494 215.45Z" fill="#263238"/>
<path d="M46.9185 213.268C46.5052 212.871 46.1345 212.431 45.8124 211.957C45.1691 211.122 44.3034 209.943 43.4076 208.609C42.5119 207.274 41.7123 206.042 41.1653 205.134C40.8476 204.659 40.5739 204.156 40.3477 203.631C40.7221 204.062 41.058 204.524 41.3516 205.014L43.6662 208.434L46.0107 211.831C46.3551 212.282 46.6589 212.763 46.9185 213.268Z" fill="#263238"/>
<path d="M49.5394 211.481C48.2965 209.99 47.1346 208.432 46.0585 206.816C44.8968 205.258 43.8172 203.641 42.8242 201.971C44.0707 203.461 45.2347 205.018 46.311 206.636C47.4747 208.191 48.5525 209.808 49.5394 211.481Z" fill="#263238"/>
<path d="M51.7459 210.626C51.3939 210.121 51.09 209.583 50.8381 209.021L48.8542 205.053C48.0787 203.502 47.3452 202.119 46.7681 201.146C46.191 200.172 45.8002 199.595 45.8363 199.564C46.2719 200.004 46.6497 200.497 46.9605 201.031C47.755 202.284 48.4814 203.578 49.1368 204.909C49.9123 206.466 50.5676 207.915 51.0365 208.925C51.3209 209.471 51.5582 210.04 51.7459 210.626Z" fill="#263238"/>
</svg>
