<svg width="319" height="213" viewBox="0 0 319 213" fill="none" xmlns="http://www.w3.org/2000/svg">
<path d="M292.176 97.5328L291.176 96.812C282.742 90.7191 271.672 89.5743 262.437 94.179C261.249 94.7703 260.107 95.4491 259.019 96.2099C251.18 101.696 246.435 111.381 246.851 121.039C247.097 126.721 248.971 132.589 247.152 137.953C244.777 144.932 237.179 148.328 230.349 150.965C223.518 153.603 215.933 157.02 213.584 164.008C212.117 168.387 213.138 173.297 215.169 177.474C220.546 188.523 232.693 195.307 244.849 196.1C257.005 196.893 268.979 192.36 279.011 185.5C293.062 175.918 304.078 161.243 307.309 144.402C310.54 127.56 305.189 108.743 292.176 97.5328Z" fill="#F5F5F5"/>
<path d="M30.2673 95.5695L31.0347 96.5362C37.5134 104.677 47.8718 108.764 57.9969 106.822C59.3011 106.573 60.5851 106.227 61.8383 105.788C70.8653 102.621 78.0478 94.5731 80.2526 85.1603C81.5501 79.6228 81.3254 73.4664 84.5266 68.7939C88.6945 62.7137 96.9286 61.4926 104.213 60.793C111.497 60.0934 119.736 58.8553 123.878 52.737C126.469 48.921 126.812 43.9136 125.998 39.3471C123.785 27.2716 113.901 17.4814 102.453 13.428C91.0053 9.37453 78.209 10.5193 66.7058 14.4032C50.5938 19.8431 36.0252 30.9985 28.3678 46.3473C20.7103 61.6961 20.757 81.268 30.2673 95.5695Z" fill="#F5F5F5"/>
<path d="M297.128 51.4628C298.97 40.2822 291.401 29.7246 280.22 27.8817C269.04 26.0388 258.482 33.6084 256.639 44.789C254.796 55.9696 262.366 66.5272 273.546 68.3701C284.727 70.213 295.285 62.6433 297.128 51.4628Z" fill="#F5F5F5"/>
<path d="M66.4898 167.58C69.0928 156.552 62.2626 145.502 51.2341 142.899C40.2057 140.296 29.1553 147.126 26.5524 158.154C23.9495 169.183 30.7796 180.233 41.8081 182.836C52.8365 185.439 63.8869 178.609 66.4898 167.58Z" fill="#F5F5F5"/>
<path d="M19.2517 202.308C19.2517 202.248 80.8038 202.197 156.717 202.197C232.63 202.197 294.199 202.248 294.199 202.308C294.199 202.367 232.659 202.418 156.717 202.418C80.7741 202.418 19.2517 202.367 19.2517 202.308Z" fill="#263238"/>
<path d="M49.36 22.5309L50.208 24.2863C50.2312 24.3314 50.2648 24.3704 50.3061 24.3999C50.3474 24.4294 50.3952 24.4486 50.4454 24.4559L52.3831 24.7357C52.4408 24.7451 52.4948 24.7703 52.5392 24.8084C52.5835 24.8466 52.6165 24.8962 52.6345 24.9519C52.6525 25.0075 52.6547 25.0671 52.641 25.1239C52.6274 25.1808 52.5983 25.2328 52.557 25.2742L51.1578 26.6395C51.1205 26.674 51.0925 26.7173 51.0762 26.7654C51.0599 26.8136 51.0559 26.865 51.0645 26.9151L51.3952 28.8443C51.4049 28.9018 51.3983 28.9608 51.3763 29.0148C51.3543 29.0688 51.3177 29.1156 51.2706 29.1499C51.2235 29.1843 51.1678 29.2048 51.1096 29.2092C51.0515 29.2136 50.9933 29.2018 50.9415 29.175L49.2074 28.2634C49.162 28.2403 49.1119 28.2283 49.0611 28.2283C49.0102 28.2283 48.9601 28.2403 48.9148 28.2634L47.1849 29.175C47.1331 29.2018 47.0749 29.2136 47.0168 29.2092C46.9586 29.2048 46.9029 29.1843 46.8558 29.1499C46.8087 29.1156 46.7721 29.0688 46.75 29.0148C46.728 28.9608 46.7215 28.9018 46.7312 28.8443L47.0619 26.9151C47.0705 26.865 47.0665 26.8136 47.0502 26.7654C47.0339 26.7173 47.0059 26.674 46.9686 26.6395L45.5694 25.2742C45.5265 25.2335 45.496 25.1814 45.4814 25.1241C45.4668 25.0668 45.4687 25.0065 45.4869 24.9502C45.505 24.8939 45.5387 24.8439 45.5841 24.806C45.6295 24.768 45.6847 24.7437 45.7433 24.7357L47.681 24.4559C47.7308 24.449 47.7782 24.4299 47.8188 24.4003C47.8595 24.3707 47.8923 24.3316 47.9142 24.2863L48.7622 22.5309C48.7824 22.4675 48.8222 22.4122 48.876 22.3729C48.9297 22.3337 48.9945 22.3125 49.0611 22.3125C49.1276 22.3125 49.1924 22.3337 49.2462 22.3729C49.2999 22.4122 49.3398 22.4675 49.36 22.5309Z" fill="#FFAC00"/>
<path d="M27.4052 46.4365L27.1889 47.5262C27.1825 47.5548 27.1834 47.5845 27.1915 47.6127C27.1997 47.6409 27.2148 47.6665 27.2356 47.6873L28.0115 48.4844C28.0348 48.5084 28.0508 48.5386 28.0577 48.5713C28.0647 48.604 28.0623 48.6381 28.0507 48.6695C28.0392 48.7009 28.0191 48.7284 27.9927 48.7489C27.9662 48.7695 27.9346 48.7821 27.9013 48.7854L26.7989 48.9169C26.7702 48.9196 26.7427 48.9296 26.7189 48.9459C26.6952 48.9623 26.676 48.9844 26.6632 49.0102L26.1332 49.9938C26.1183 50.0233 26.0956 50.048 26.0675 50.0653C26.0395 50.0826 26.0071 50.0917 25.9742 50.0917C25.9412 50.0917 25.9089 50.0826 25.8808 50.0653C25.8527 50.048 25.83 50.0233 25.8152 49.9938L25.3488 48.9847C25.3378 48.9577 25.3199 48.934 25.2968 48.9161C25.2737 48.8982 25.2463 48.8868 25.2173 48.883L24.1234 48.6922C24.0901 48.6867 24.059 48.672 24.0338 48.6496C24.0085 48.6272 23.9901 48.598 23.9808 48.5656C23.9715 48.5332 23.9716 48.4987 23.981 48.4664C23.9905 48.434 24.009 48.4049 24.0344 48.3826L24.8612 47.6237C24.8819 47.6036 24.8976 47.5789 24.9072 47.5517C24.9167 47.5245 24.9199 47.4954 24.9163 47.4668L24.7594 46.3644C24.7553 46.3318 24.7603 46.2987 24.7739 46.2687C24.7874 46.2388 24.809 46.2131 24.8362 46.1947C24.8634 46.1763 24.8952 46.1657 24.9281 46.1642C24.9609 46.1628 24.9935 46.1704 25.0223 46.1863L25.9721 46.7375C25.9974 46.7512 26.0259 46.7584 26.0547 46.7584C26.0836 46.7584 26.112 46.7512 26.1374 46.7375L27.1338 46.2457C27.1637 46.2259 27.1988 46.2155 27.2347 46.216C27.2705 46.2165 27.3053 46.2278 27.3346 46.2484C27.3639 46.269 27.3864 46.298 27.3989 46.3316C27.4115 46.3651 27.4137 46.4017 27.4052 46.4365Z" fill="#FFAC00"/>
<path d="M158.307 18.5504L158.09 19.6401C158.085 19.6688 158.087 19.6982 158.095 19.7262C158.103 19.7542 158.117 19.7799 158.137 19.8012L158.913 20.5984C158.936 20.6221 158.952 20.6519 158.959 20.6843C158.967 20.7167 158.964 20.7505 158.953 20.7818C158.942 20.8131 158.923 20.8407 158.897 20.8615C158.871 20.8822 158.84 20.8954 158.807 20.8994L157.7 21.0308C157.671 21.0328 157.644 21.0424 157.62 21.0588C157.596 21.0753 157.577 21.0978 157.565 21.1241L157.047 22.1078C157.032 22.1371 157.009 22.1616 156.98 22.1787C156.952 22.1958 156.919 22.2048 156.886 22.2048C156.853 22.2048 156.821 22.1958 156.792 22.1787C156.764 22.1616 156.741 22.1371 156.725 22.1078L156.259 21.0944C156.246 21.0683 156.228 21.0454 156.205 21.0277C156.182 21.01 156.156 20.998 156.127 20.9927L155.029 20.7976C154.996 20.7922 154.965 20.7775 154.94 20.7551C154.914 20.7327 154.896 20.7035 154.887 20.6711C154.877 20.6387 154.877 20.6042 154.887 20.5718C154.896 20.5394 154.915 20.5104 154.94 20.4881L155.754 19.7334C155.775 19.7144 155.791 19.6905 155.801 19.6639C155.81 19.6373 155.813 19.6088 155.809 19.5808L155.652 18.4784C155.647 18.4454 155.652 18.4117 155.665 18.3811C155.678 18.3505 155.7 18.3242 155.727 18.3052C155.754 18.2862 155.787 18.2753 155.82 18.2736C155.853 18.272 155.886 18.2798 155.915 18.296L156.886 18.843C156.912 18.8554 156.94 18.8618 156.969 18.8618C156.998 18.8618 157.026 18.8554 157.052 18.843L158.052 18.3512C158.083 18.3357 158.117 18.3292 158.15 18.3325C158.184 18.3357 158.216 18.3486 158.243 18.3695C158.27 18.3905 158.29 18.4187 158.301 18.4507C158.313 18.4828 158.314 18.5174 158.307 18.5504Z" fill="#FFAC00"/>
<path d="M275.233 56.3974L275.017 57.4871C275.011 57.5151 275.012 57.5441 275.02 57.5716C275.028 57.599 275.043 57.6239 275.063 57.644L275.835 58.4411C275.858 58.4649 275.874 58.4947 275.881 58.5271C275.889 58.5595 275.887 58.5932 275.876 58.6245C275.864 58.6558 275.845 58.6834 275.819 58.7042C275.793 58.725 275.762 58.7381 275.729 58.7422L274.627 58.8736C274.598 58.8774 274.57 58.8878 274.546 58.904C274.522 58.9202 274.501 58.9417 274.487 58.9669L273.97 59.9506C273.955 59.9811 273.932 60.007 273.904 60.0251C273.875 60.0432 273.842 60.0528 273.808 60.0528C273.775 60.0528 273.742 60.0432 273.713 60.0251C273.684 60.007 273.662 59.9811 273.647 59.9506L273.185 58.9414C273.173 58.9151 273.155 58.892 273.132 58.8743C273.109 58.8565 273.082 58.8447 273.054 58.8397L271.96 58.6489C271.927 58.6435 271.896 58.6291 271.871 58.6072C271.846 58.5853 271.828 58.5569 271.818 58.5252C271.809 58.4934 271.808 58.4596 271.816 58.4275C271.825 58.3954 271.842 58.3664 271.866 58.3436L272.685 57.5889C272.706 57.5692 272.722 57.5446 272.732 57.5173C272.741 57.4899 272.744 57.4607 272.74 57.432L272.583 56.3338C272.578 56.3009 272.582 56.2672 272.595 56.2366C272.609 56.206 272.63 56.1797 272.658 56.1607C272.685 56.1417 272.717 56.1307 272.75 56.1291C272.784 56.1275 272.817 56.1353 272.846 56.1515L273.817 56.6942C273.842 56.708 273.871 56.7152 273.9 56.7152C273.928 56.7152 273.957 56.708 273.982 56.6942L274.979 56.2024C275.009 56.189 275.042 56.184 275.074 56.1878C275.107 56.1916 275.138 56.2042 275.164 56.2242C275.19 56.2442 275.21 56.2708 275.222 56.3013C275.234 56.3318 275.238 56.365 275.233 56.3974Z" fill="#FFAC00"/>
<path d="M271.358 30.6266L270.722 30.9277C270.705 30.9353 270.69 30.9471 270.679 30.9619C270.668 30.9768 270.661 30.9941 270.658 31.0125L270.548 31.7078C270.544 31.7286 270.535 31.7479 270.521 31.7637C270.507 31.7795 270.489 31.7911 270.469 31.7972C270.448 31.8033 270.427 31.8038 270.406 31.7985C270.386 31.7932 270.367 31.7824 270.353 31.7672L269.869 31.2584C269.858 31.2442 269.843 31.2335 269.826 31.2275C269.808 31.2215 269.79 31.2204 269.772 31.2245L269.077 31.3347C269.056 31.3378 269.035 31.3351 269.015 31.3269C268.996 31.3187 268.979 31.3053 268.967 31.2882C268.955 31.2712 268.947 31.251 268.946 31.2301C268.944 31.2091 268.948 31.1881 268.958 31.1694L269.293 30.5503C269.301 30.5339 269.305 30.5157 269.305 30.4973C269.305 30.4789 269.301 30.4608 269.293 30.4443L268.971 29.8168C268.962 29.7979 268.958 29.7769 268.961 29.7562C268.963 29.7354 268.971 29.7157 268.983 29.6991C268.996 29.6825 269.013 29.6697 269.032 29.662C269.052 29.6544 269.073 29.6522 269.094 29.6557L269.785 29.7829C269.803 29.7865 269.821 29.7857 269.839 29.7805C269.857 29.7754 269.873 29.766 269.886 29.7532L270.383 29.2529C270.398 29.2388 270.417 29.2291 270.437 29.225C270.458 29.2208 270.479 29.2223 270.498 29.2293C270.518 29.2363 270.535 29.2485 270.549 29.2646C270.562 29.2807 270.57 29.3001 270.573 29.3207L270.667 30.0161C270.669 30.0344 270.676 30.052 270.686 30.0674C270.696 30.0828 270.71 30.0957 270.726 30.1051L271.353 30.4231C271.372 30.4324 271.388 30.4466 271.4 30.4643C271.411 30.4821 271.417 30.5026 271.418 30.5236C271.418 30.5446 271.413 30.5654 271.402 30.5835C271.392 30.6017 271.376 30.6166 271.358 30.6266Z" fill="#FFAC00"/>
<path d="M61.9356 51.8258L61.2996 52.1269C61.2833 52.1347 61.2693 52.1467 61.2589 52.1615C61.2485 52.1764 61.2421 52.1936 61.2403 52.2117L61.13 52.907C61.1263 52.9278 61.1169 52.9471 61.1029 52.9629C61.0889 52.9786 61.0708 52.9902 61.0507 52.9964C61.0305 53.0025 61.009 53.003 60.9886 52.9977C60.9682 52.9924 60.9496 52.9815 60.935 52.9664L60.4516 52.4576C60.4395 52.443 60.4236 52.4321 60.4056 52.4261C60.3876 52.4201 60.3683 52.4193 60.3499 52.4237L59.6545 52.5339C59.6336 52.5378 59.612 52.5355 59.5924 52.5274C59.5728 52.5193 59.5559 52.5057 59.5438 52.4882C59.5317 52.4708 59.5249 52.4502 59.5242 52.4289C59.5236 52.4077 59.529 52.3867 59.54 52.3685L59.875 51.7495C59.8832 51.733 59.8875 51.7149 59.8875 51.6965C59.8875 51.6781 59.8832 51.66 59.875 51.6435L59.557 51.016C59.5469 50.9975 59.5422 50.9766 59.5436 50.9556C59.545 50.9346 59.5524 50.9144 59.5648 50.8975C59.5773 50.8805 59.5944 50.8675 59.614 50.8599C59.6337 50.8524 59.6551 50.8506 59.6757 50.8549L60.3711 50.9821C60.3876 50.9907 60.406 50.9949 60.4246 50.9941C60.4433 50.9934 60.4613 50.9878 60.4771 50.9778L60.9774 50.4775C60.9927 50.4634 61.0116 50.4537 61.032 50.4496C61.0525 50.4454 61.0736 50.4469 61.0932 50.4539C61.1129 50.4609 61.1302 50.4731 61.1434 50.4892C61.1566 50.5053 61.1652 50.5247 61.1682 50.5453L61.2615 51.2407C61.2633 51.2587 61.2697 51.276 61.2801 51.2908C61.2905 51.3057 61.3045 51.3176 61.3208 51.3255L61.9484 51.6477C61.9609 51.6594 61.9707 51.6737 61.977 51.6896C61.9833 51.7056 61.9859 51.7227 61.9847 51.7398C61.9835 51.7569 61.9784 51.7735 61.9699 51.7884C61.9614 51.8033 61.9497 51.8161 61.9356 51.8258Z" fill="#FFAC00"/>
<path d="M246.346 38.1103L246.015 39.7512C246.008 39.7943 246.01 39.8386 246.023 39.8806C246.035 39.9226 246.057 39.961 246.087 39.9929L247.253 41.1928C247.289 41.2285 247.313 41.2735 247.324 41.3226C247.335 41.3717 247.332 41.4229 247.315 41.4703C247.299 41.5177 247.269 41.5593 247.229 41.5905C247.19 41.6217 247.142 41.6411 247.092 41.6465L245.43 41.8415C245.387 41.8467 245.347 41.8622 245.311 41.8865C245.276 41.9109 245.247 41.9434 245.227 41.9814L244.442 43.4612C244.42 43.5059 244.386 43.5435 244.344 43.5699C244.301 43.5962 244.253 43.6101 244.203 43.6101C244.153 43.6101 244.104 43.5962 244.062 43.5699C244.019 43.5435 243.985 43.5059 243.963 43.4612L243.263 41.9433C243.246 41.9032 243.218 41.8683 243.183 41.8416C243.148 41.815 243.108 41.7974 243.064 41.7906L241.415 41.5065C241.365 41.4975 241.319 41.4749 241.282 41.4411C241.244 41.4073 241.217 41.3638 241.203 41.3153C241.189 41.2669 241.188 41.2155 241.202 41.1669C241.215 41.1182 241.242 41.0744 241.279 41.0401L242.509 39.9081C242.541 39.8781 242.565 39.8409 242.58 39.7996C242.595 39.7583 242.599 39.7141 242.594 39.6706L242.373 38.0043C242.366 37.955 242.373 37.9048 242.393 37.8592C242.413 37.8136 242.445 37.7745 242.486 37.7463C242.527 37.7181 242.575 37.7019 242.625 37.6995C242.675 37.6972 242.724 37.7087 242.767 37.7329L244.23 38.5513C244.269 38.571 244.312 38.5813 244.355 38.5813C244.399 38.5813 244.442 38.571 244.48 38.5513L245.964 37.8347C246.008 37.8136 246.056 37.8046 246.104 37.8088C246.152 37.813 246.198 37.8301 246.238 37.8584C246.277 37.8866 246.308 37.925 246.327 37.9694C246.346 38.0137 246.352 38.0624 246.346 38.1103Z" fill="#FFAC00"/>
<path d="M49.5465 177.012C50.2184 177.069 50.8719 177.261 51.4679 177.576C52.0638 177.892 52.59 178.324 53.0148 178.848C53.8574 179.901 54.449 181.132 54.7448 182.447C55.385 184.97 54.9313 187.93 54.1808 190.419C51.4757 189.414 49.8348 186.488 49.0928 184.957C47.9268 182.528 47.2866 177.436 49.5423 177.012" fill="#455A64"/>
<path d="M58.0562 193.515C57.657 192.876 57.4335 192.144 57.4082 191.391C57.3829 190.638 57.5567 189.892 57.9121 189.228C58.2788 188.571 58.7729 187.994 59.3655 187.53C59.9582 187.066 60.6374 186.725 61.3634 186.528C62.0291 186.332 62.8008 186.256 63.3732 186.646C63.6297 186.848 63.8281 187.114 63.948 187.417C64.0679 187.72 64.1052 188.05 64.0558 188.372C63.9456 189.015 63.6677 189.617 63.2502 190.119C61.9062 191.891 60.2822 193.358 58.0562 193.511" fill="#455A64"/>
<path d="M58.2471 201.921C58.1948 201.749 58.1565 201.574 58.1326 201.396C58.0647 201.022 57.9757 200.548 57.8739 199.962C57.5334 198.378 57.4533 196.748 57.6365 195.137C57.8463 193.522 58.4814 191.992 59.4767 190.702C59.7841 190.319 60.1356 189.973 60.5239 189.672C60.6286 189.591 60.7376 189.516 60.8504 189.447C60.9268 189.396 60.9691 189.375 60.9734 189.379C60.0907 190.086 59.3576 190.961 58.8167 191.954C58.2758 192.947 57.9381 194.038 57.8231 195.163C57.6471 196.752 57.7085 198.358 58.0054 199.929C58.0944 200.535 58.1665 201.031 58.2047 201.374C58.2379 201.555 58.2521 201.738 58.2471 201.921Z" fill="#263238"/>
<path d="M50.3733 180.85C50.418 180.914 50.4537 180.984 50.4793 181.057C50.5514 181.214 50.6404 181.418 50.7549 181.664C50.9881 182.198 51.3146 182.965 51.7131 183.924C52.506 185.836 53.566 188.494 54.6811 191.458C55.7963 194.422 56.7248 197.123 57.3778 199.09C57.7043 200.074 57.9629 200.871 58.1325 201.426L58.3275 202.062C58.3506 202.137 58.369 202.214 58.3827 202.291C58.3432 202.223 58.3118 202.151 58.2894 202.075C58.23 201.914 58.1579 201.706 58.0647 201.448L57.2506 199.132C56.5679 197.178 55.6097 194.468 54.5031 191.522C53.3964 188.575 52.3576 185.899 51.5987 183.975C51.2213 183.029 50.916 182.253 50.6955 181.693C50.5938 181.439 50.5175 181.231 50.4539 181.07C50.4214 180.999 50.3945 180.925 50.3733 180.85Z" fill="#263238"/>
<path d="M55.0924 196.318C54.292 194.946 53.1766 193.784 51.8385 192.929C50.5003 192.074 48.9778 191.549 47.3968 191.399C46.5954 191.331 45.6245 191.454 45.2768 192.171C44.9291 192.887 45.3743 193.752 45.917 194.35C47.0661 195.584 48.5547 196.45 50.1952 196.838C51.8356 197.227 53.5545 197.121 55.1348 196.534" fill="#455A64"/>
<path d="M48.6052 193.564C48.7724 193.559 48.9398 193.567 49.1055 193.59C49.302 193.602 49.4975 193.628 49.6907 193.666C49.9504 193.705 50.208 193.757 50.4623 193.823C50.7706 193.894 51.0749 193.982 51.3739 194.086C51.7203 194.209 52.06 194.351 52.3915 194.51C53.1453 194.864 53.8565 195.302 54.5115 195.816C55.1657 196.338 55.7563 196.936 56.2711 197.596C56.4932 197.885 56.6985 198.187 56.8859 198.5C57.0542 198.773 57.2057 199.056 57.3396 199.348C57.4558 199.582 57.5591 199.823 57.6491 200.068C57.7264 200.25 57.7916 200.437 57.8442 200.628C57.9023 200.786 57.9435 200.949 57.9671 201.116C57.929 201.116 57.7424 200.433 57.2209 199.42C57.0783 199.142 56.9212 198.871 56.7503 198.61C56.561 198.304 56.3543 198.01 56.1312 197.728C55.6177 197.086 55.0363 196.502 54.3971 195.985C53.7468 195.481 53.0446 195.048 52.3025 194.692C51.9797 194.533 51.6485 194.391 51.3103 194.268C50.9966 194.145 50.6913 194.065 50.4157 193.984C49.3091 193.653 48.6052 193.607 48.6052 193.564Z" fill="#263238"/>
<path d="M241.525 169.668C242.204 170.163 242.776 170.79 243.207 171.511C243.638 172.232 243.918 173.033 244.031 173.866C244.247 175.534 244.079 177.229 243.539 178.822C242.589 181.922 240.19 184.784 237.781 186.951C235.551 184.122 235.695 179.95 235.903 177.839C236.234 174.498 238.871 168.659 241.525 169.668Z" fill="#455A64"/>
<path d="M239.91 192.756C239.897 191.816 240.133 190.89 240.594 190.071C241.055 189.252 241.724 188.569 242.534 188.092C243.351 187.631 244.252 187.336 245.183 187.226C246.115 187.117 247.06 187.193 247.961 187.452C248.809 187.676 249.657 188.096 250.022 188.885C250.165 189.265 250.204 189.676 250.136 190.076C250.067 190.476 249.893 190.851 249.632 191.162C249.098 191.775 248.412 192.237 247.643 192.502C245.061 193.515 242.373 194.028 239.91 192.752" fill="#455A64"/>
<path d="M234.673 201.824C234.726 201.607 234.798 201.395 234.89 201.192C235.059 200.768 235.275 200.179 235.538 199.496C236.111 198.08 236.882 196.045 238.409 194.217C239.678 192.632 241.346 191.415 243.242 190.689C243.816 190.478 244.412 190.336 245.019 190.265C245.235 190.236 245.405 190.24 245.515 190.232C245.573 190.222 245.631 190.222 245.689 190.232C244.874 190.351 244.073 190.551 243.297 190.829C241.457 191.59 239.837 192.802 238.587 194.353C237.094 196.146 236.301 198.148 235.695 199.547C235.394 200.251 235.152 200.819 234.974 201.213C234.895 201.426 234.794 201.631 234.673 201.824Z" fill="#263238"/>
<path d="M239.931 174.289C239.944 174.385 239.944 174.482 239.931 174.577C239.905 174.794 239.871 175.065 239.829 175.404C239.732 176.121 239.583 177.155 239.405 178.432C239.011 180.976 238.417 184.503 237.675 188.374C236.933 192.245 236.183 195.731 235.602 198.249C235.314 199.521 235.072 200.526 234.894 201.217C234.809 201.548 234.741 201.815 234.686 202.023C234.666 202.118 234.636 202.21 234.597 202.299C234.601 202.201 234.616 202.105 234.639 202.01L234.805 201.196L235.441 198.207C235.979 195.663 236.713 192.19 237.446 188.319C238.18 184.448 238.803 180.942 239.24 178.393C239.452 177.143 239.63 176.121 239.757 175.383C239.816 175.044 239.863 174.772 239.901 174.565C239.903 174.472 239.913 174.38 239.931 174.289Z" fill="#263238"/>
<path d="M234.936 193.819C234.973 191.84 234.538 189.881 233.668 188.103C232.797 186.325 231.515 184.781 229.929 183.597C229.119 183.003 228.004 182.507 227.147 183.033C226.291 183.559 226.232 184.78 226.418 185.772C226.843 187.83 227.868 189.717 229.363 191.193C230.859 192.67 232.758 193.671 234.822 194.07" fill="#455A64"/>
<path d="M229.797 186.684C229.983 186.783 230.157 186.901 230.319 187.036C230.518 187.177 230.709 187.33 230.891 187.493C231.103 187.688 231.366 187.892 231.612 188.159C231.893 188.436 232.159 188.727 232.409 189.033C232.702 189.38 232.977 189.742 233.232 190.118C233.812 190.986 234.292 191.916 234.665 192.891C235.018 193.874 235.257 194.894 235.377 195.931C235.427 196.383 235.451 196.837 235.449 197.292C235.452 197.687 235.432 198.082 235.39 198.475C235.363 198.8 235.317 199.122 235.254 199.442C235.22 199.686 235.167 199.927 235.097 200.163C235.058 200.369 234.997 200.571 234.915 200.765C234.864 200.765 235.118 199.891 235.224 198.462C235.256 198.073 235.266 197.682 235.254 197.292C235.248 196.844 235.218 196.397 235.165 195.952C235.032 194.94 234.791 193.945 234.444 192.984C234.078 192.028 233.612 191.112 233.054 190.254C232.786 189.864 232.532 189.49 232.261 189.168C231.989 188.846 231.735 188.549 231.493 188.286C230.501 187.239 229.768 186.722 229.797 186.684Z" fill="#263238"/>
<path d="M110.509 60.6913L104.641 60.0044C101.329 63.3567 96.8835 65.3489 92.1773 65.5897C87.4712 65.8304 82.8452 64.3022 79.2086 61.3055C75.5719 58.3087 73.1877 54.0601 72.5244 49.3947C71.8611 44.7293 72.9669 39.9846 75.6242 36.093C78.2816 32.2015 82.2984 29.4446 86.8852 28.3642C91.4719 27.2838 96.2969 27.9581 100.412 30.2545C104.527 32.5508 107.634 36.3033 109.123 40.7742C110.611 45.2452 110.374 50.1113 108.457 54.4161L110.509 60.6913Z" fill="white"/>
<path d="M110.509 60.6918L110.365 60.2678L109.941 59.0637C109.585 58.0037 109.059 56.4434 108.381 54.3997L108.483 54.4209C108.477 54.4265 108.47 54.431 108.463 54.4341C108.456 54.4371 108.448 54.4387 108.44 54.4387C108.432 54.4387 108.424 54.4371 108.417 54.4341C108.41 54.431 108.403 54.4265 108.398 54.4209C108.391 54.4103 108.387 54.3977 108.387 54.3848C108.387 54.372 108.391 54.3594 108.398 54.3488C110.062 50.5672 110.434 46.3429 109.458 42.3284C109.196 41.324 108.86 40.3405 108.453 39.3858C107.565 37.303 106.305 35.3993 104.734 33.7678C102.827 31.7828 100.504 30.2435 97.9324 29.2598C95.3608 28.2761 92.6038 27.8723 89.8581 28.0772C87.1125 28.2822 84.446 29.0908 82.049 30.4454C79.6519 31.7999 77.5836 33.667 75.9915 35.9133C74.2238 38.3968 73.0939 41.277 72.7013 44.3C72.3259 47.1836 72.616 50.1149 73.5493 52.869C74.4385 55.4583 75.8943 57.8165 77.8105 59.7718C81.2066 63.2588 85.8222 65.2938 90.6873 65.4491H91.4929C91.7561 65.4619 92.0198 65.4534 92.2816 65.4237L93.8207 65.288C94.7829 65.1347 95.7357 64.9266 96.6742 64.6647C99.6558 63.7773 102.37 62.163 104.573 59.9668C104.588 59.9616 104.605 59.9616 104.62 59.9668L108.966 60.5095L110.094 60.6537L110.484 60.7088L110.115 60.6749L109 60.5562L104.607 60.077H104.654C102.453 62.3308 99.7207 63.9945 96.7081 64.9149C95.7615 65.1844 94.8003 65.3995 93.8292 65.5594L92.2773 65.7035C92.0114 65.7347 91.7435 65.7447 91.476 65.7332H90.6661C85.7403 65.5975 81.0609 63.549 77.6196 60.0219C75.6765 58.0441 74.1978 55.6587 73.2906 53.0386C72.334 50.2488 72.0308 47.2765 72.4045 44.3509C72.7976 41.2694 73.9436 38.3322 75.7413 35.7988C75.9537 35.4806 76.1859 35.1761 76.4367 34.8872L77.1745 34.018L77.98 33.2124C78.2427 32.9353 78.5262 32.6788 78.828 32.445L79.676 31.7242C79.9601 31.4782 80.2909 31.3002 80.5919 31.0797C80.8929 30.8592 81.2024 30.6557 81.5247 30.4691L82.5253 29.9349C85.0881 28.595 87.9273 27.8692 90.8188 27.8149C94.5999 27.7339 98.3183 28.7894 101.493 30.8446C104.668 32.8999 107.153 35.8605 108.627 39.3434C109.034 40.3065 109.368 41.2986 109.627 42.3114C109.858 43.2629 110.013 44.2313 110.09 45.2074C110.341 48.3651 109.793 51.5352 108.495 54.4251L108.389 54.37C108.394 54.3645 108.401 54.3601 108.408 54.3571C108.415 54.3541 108.422 54.3525 108.43 54.3525C108.437 54.3525 108.445 54.3541 108.452 54.3571C108.458 54.3601 108.465 54.3645 108.47 54.37C108.479 54.378 108.487 54.3882 108.491 54.3997L109.996 59.1061C110.162 59.6276 110.285 60.0262 110.374 60.3018C110.463 60.5774 110.509 60.6918 110.509 60.6918Z" fill="#263238"/>
<path d="M82.2751 47.4877L84.5944 45.0073L89.3687 48.9675L98.1667 39.9023L100.477 42.2301L89.1821 53.6103L82.2751 47.4877Z" fill="#FFAC00"/>
<path d="M151.323 110.533C150.503 110.629 149.676 110.651 148.852 110.597C148.025 110.617 147.197 110.565 146.38 110.44C147.202 110.347 148.03 110.326 148.856 110.376C149.681 110.356 150.507 110.408 151.323 110.533Z" fill="#263238"/>
<path d="M72.8794 108.643C72.8794 108.643 74.5245 117.971 76.0806 119.938C77.6367 121.905 78.6246 128.083 78.6246 128.083L91.3446 123.499L90.4966 118.835L91.2725 107.036C91.2725 107.036 86.9138 99.764 87.0834 100.014C87.253 100.264 72.8794 108.643 72.8794 108.643Z" fill="#FFBF9D"/>
<path d="M78.6373 128.074C78.6373 128.015 77.6112 121.892 76.0933 119.938C75.2877 118.912 74.4609 115.893 73.9097 113.54C73.3076 110.996 72.8963 108.659 72.8921 108.634C72.9302 108.634 76.5003 106.535 80.0195 104.441C86.1675 100.777 87.1088 100.09 87.1173 100.01C87.1173 100.01 87.1173 100.01 87.1385 100.01C87.3251 100.353 91.281 106.959 91.3234 107.027L90.5305 118.818L91.3785 123.482L78.6373 128.074ZM72.8921 108.642C72.9472 108.948 74.5881 117.996 76.0891 119.925C76.8947 120.951 77.5476 123.114 77.9547 124.746C78.3617 126.378 78.6288 127.913 78.6542 128.066L91.3742 123.487L90.5262 118.823L91.2979 107.027C91.2513 106.942 90.2167 105.221 89.1991 103.516C88.5886 102.499 88.1052 101.685 87.7575 101.099C87.5498 100.756 87.3929 100.485 87.2827 100.302C87.1724 100.12 87.1427 100.069 87.1215 100.027C86.7018 100.586 73.5493 108.244 72.8921 108.642Z" fill="#FF9A6C"/>
<path d="M114.813 104.686C114.813 104.686 108.237 106.7 107.223 113.623C106.753 116.829 101.953 146.356 101.953 146.356L94.516 125.241L74.9866 132.483C74.9866 132.483 82.1013 154.361 82.5253 155.646C86.1802 166.314 89.2203 181.345 105.845 179.67C123.128 177.923 119.88 144.347 119.88 144.347L114.813 104.686Z" fill="#455A64"/>
<path d="M182.208 20.0536L64.604 121.102L65.607 122.269L183.211 21.221L182.208 20.0536Z" fill="#E0E0E0"/>
<path d="M65.6035 122.27C65.6511 122.214 65.7036 122.163 65.7604 122.117L66.214 121.693L67.9948 120.12L74.834 114.154L99.9602 92.3818C121.173 74.0481 150.45 48.7734 182.916 20.8742L182.865 21.5145L181.869 20.3527L182.505 20.4036C120.859 73.3654 70.0852 116.753 64.6325 121.138V121.074C65.0311 121.566 65.2728 121.858 65.4169 122.032C65.482 122.108 65.5429 122.187 65.5992 122.27C65.5992 122.27 65.5568 122.236 65.4084 122.075L64.5604 121.133L64.5308 121.099L64.5647 121.07C69.729 116.338 120.261 72.6786 181.911 19.7167L182.254 19.4199L182.551 19.7634L183.548 20.9209L183.844 21.2643L183.501 21.5611C150.895 49.5748 121.372 74.824 100.049 93.0178L74.8212 114.51C71.8532 117.025 69.5467 118.979 67.9779 120.302L66.2013 121.786C66.0135 121.961 65.8138 122.123 65.6035 122.27Z" fill="#263238"/>
<path d="M86.7653 93.0298C86.8882 93.1061 88.6054 94.8064 90.259 96.1208C91.9126 97.4352 92.4256 97.5285 92.8836 99.5128C93.3415 101.497 94.092 107.946 93.9012 109.388C93.7104 110.829 88.7877 120.174 88.7877 120.174C88.7877 120.174 84.0983 121.87 83.7761 115.659C83.4538 109.447 88.8641 105.483 88.8641 105.483L88.1433 100.692C88.1433 100.692 85.5314 98.1984 85.2346 96.1971C84.9378 94.1958 85.8197 92.4532 86.7653 93.0298Z" fill="#FFBF9D"/>
<path d="M76.3392 105.249C74.287 104.219 73.3712 105.351 73.0108 106.008C72.6729 106.694 72.6019 107.482 72.8115 108.217C73.0111 108.899 73.3536 109.531 73.8164 110.07C74.41 110.808 75.1562 111.456 76.0381 111.516C76.92 111.575 77.9885 110.477 78.0988 109.426" fill="#FFBF9D"/>
<path d="M78.0987 109.442C78.0987 109.442 78.0987 109.493 78.0987 109.587C78.0839 109.731 78.0511 109.874 78.0012 110.011C77.8242 110.5 77.5126 110.929 77.1023 111.249C76.8169 111.488 76.4608 111.626 76.0889 111.643C75.6695 111.624 75.2627 111.494 74.9102 111.266C74.5299 111.018 74.1884 110.715 73.8968 110.367C73.5712 110.005 73.2868 109.608 73.0488 109.184C72.8139 108.771 72.664 108.315 72.6079 107.843C72.5518 107.371 72.5907 106.893 72.7224 106.436C72.8302 106.059 73.0325 105.716 73.31 105.44C73.5875 105.163 73.931 104.962 74.3081 104.855C74.8209 104.754 75.3524 104.813 75.8303 105.024C75.9584 105.076 76.083 105.135 76.2034 105.202C76.2882 105.249 76.3306 105.279 76.3264 105.283C76.1472 105.236 75.9715 105.176 75.8006 105.105C75.3354 104.933 74.8309 104.898 74.3463 105.003C74.0022 105.114 73.6912 105.308 73.4416 105.57C73.192 105.831 73.0118 106.151 72.9174 106.5C72.7997 106.93 72.768 107.379 72.824 107.821C72.88 108.264 73.0227 108.691 73.2439 109.078C73.4716 109.482 73.7401 109.861 74.0452 110.21C74.3247 110.536 74.6487 110.822 75.0077 111.058C75.3264 111.274 75.6965 111.401 76.0804 111.427C76.4133 111.414 76.7338 111.297 76.9963 111.092C77.3949 110.796 77.7092 110.402 77.9079 109.947C78.0605 109.637 78.0775 109.438 78.0987 109.442Z" fill="#FF9A6C"/>
<path d="M79.0145 101.213C78.4622 100.99 77.865 100.902 77.2719 100.954C76.9522 100.999 76.6482 101.121 76.386 101.309C76.1238 101.498 75.9112 101.747 75.7667 102.035C75.5441 102.594 75.4697 103.2 75.5505 103.795C75.7667 106.534 77.026 109.048 78.9001 110.554C79.1562 110.767 79.4772 110.887 79.8106 110.895C80.144 110.903 80.4702 110.797 80.736 110.596C81.1091 110.32 81.4695 109.926 81.7578 108.285" fill="#FFBF9D"/>
<path d="M81.7578 108.285C81.768 108.345 81.768 108.407 81.7578 108.467C81.7578 108.586 81.7154 108.76 81.6687 108.98C81.6137 109.252 81.5356 109.519 81.4355 109.777C81.3109 110.135 81.0801 110.445 80.7741 110.668C80.5874 110.808 80.3716 110.905 80.1426 110.95C79.9136 110.996 79.6773 110.989 79.4512 110.931C79.2015 110.865 78.9706 110.741 78.7771 110.57C78.5729 110.404 78.3775 110.227 78.1919 110.04C77.3708 109.203 76.7162 108.217 76.2627 107.136C75.808 106.057 75.5343 104.911 75.4529 103.744C75.3988 103.227 75.4507 102.705 75.6055 102.209C75.7588 101.775 76.0587 101.407 76.4535 101.17C76.7761 100.976 77.1453 100.872 77.522 100.869C77.8011 100.868 78.0791 100.904 78.3488 100.975C78.5169 101.02 78.6825 101.074 78.8449 101.136C78.958 101.179 79.0131 101.204 79.0103 101.213C79.0103 101.213 78.7686 101.149 78.3319 101.06C77.7241 100.902 77.0787 100.989 76.5341 101.302C76.1751 101.526 75.9042 101.868 75.7667 102.268C75.6275 102.741 75.5857 103.237 75.6437 103.727C75.7333 104.871 76.0068 105.994 76.4535 107.051C76.8957 108.113 77.5311 109.083 78.3276 109.913C78.5099 110.1 78.7007 110.273 78.8915 110.435C79.063 110.59 79.2674 110.704 79.4894 110.77C79.691 110.823 79.9019 110.832 80.1072 110.794C80.3124 110.757 80.5068 110.675 80.6766 110.553C80.9653 110.354 81.187 110.071 81.3126 109.743C81.4196 109.493 81.5075 109.235 81.5755 108.972C81.6772 108.527 81.7408 108.281 81.7578 108.285Z" fill="#FF9A6C"/>
<path d="M82.7373 99.1315C82.4543 98.8388 82.1052 98.6182 81.7194 98.4883C81.3335 98.3585 80.9221 98.3231 80.5197 98.3853C80.0846 98.4959 79.6918 98.7322 79.3901 99.0648C79.0885 99.3973 78.8915 99.8113 78.8237 100.255C78.7704 100.812 78.8339 101.374 79.0103 101.904C79.515 103.826 80.1963 105.697 81.0455 107.493C81.2146 107.93 81.4849 108.321 81.8341 108.633C82.136 108.825 82.4929 108.911 82.8489 108.878C83.205 108.845 83.54 108.695 83.8015 108.451C84.3951 107.98 84.7979 107.302 85.0438 105.907" fill="#FFBF9D"/>
<path d="M85.0398 105.912C85.0492 105.978 85.0492 106.045 85.0398 106.111C85.0148 106.295 84.9795 106.478 84.9338 106.658C84.8679 106.95 84.7712 107.234 84.6454 107.506C84.4793 107.872 84.2363 108.197 83.9331 108.46C83.5657 108.799 83.0843 108.986 82.5848 108.986C82.301 108.978 82.0262 108.885 81.7962 108.719C81.5645 108.54 81.3725 108.314 81.2322 108.057C80.6587 106.947 80.1628 105.798 79.7482 104.619C79.5235 103.995 79.3242 103.376 79.1504 102.774C78.9665 102.197 78.8248 101.608 78.7264 101.01C78.6459 100.448 78.7612 99.8745 79.0529 99.3866C79.3109 98.9664 79.6911 98.635 80.1426 98.4368C80.518 98.2809 80.9315 98.2411 81.3298 98.3223C81.629 98.3841 81.9157 98.4959 82.1778 98.653C82.3381 98.7515 82.4886 98.8651 82.6272 98.9922C82.6784 99.0343 82.724 99.0828 82.7629 99.1364C82.7629 99.1364 82.5551 98.9626 82.1354 98.7124C81.8808 98.575 81.606 98.4791 81.3213 98.4283C80.9488 98.3654 80.5661 98.411 80.2189 98.5598C79.8025 98.7523 79.4549 99.0674 79.2225 99.4629C78.9602 99.9196 78.8615 100.452 78.9426 100.972C79.0432 101.557 79.1849 102.133 79.3666 102.698C79.5447 103.296 79.7398 103.906 79.9645 104.525C80.3742 105.687 80.86 106.82 81.4188 107.917C81.5415 108.155 81.7119 108.364 81.9191 108.532C82.1177 108.678 82.3556 108.761 82.6018 108.77C83.0572 108.773 83.4978 108.608 83.8398 108.308C84.3428 107.857 84.6988 107.267 84.8617 106.612C84.9719 106.175 85.0186 105.912 85.0398 105.912Z" fill="#FF9A6C"/>
<path d="M87.2996 99.678C87.6845 100.665 87.9424 101.696 88.067 102.748C88.2123 103.782 87.9838 104.835 87.4226 105.716C87.1736 106.102 86.783 106.374 86.3349 106.475C85.8868 106.576 85.4171 106.497 85.027 106.254C84.5465 105.843 84.1861 105.31 83.9839 104.711C83.5285 103.57 83.1558 102.398 82.8688 101.204C82.6869 100.602 82.5759 99.9799 82.5381 99.3515C82.5024 98.7486 82.5934 98.1448 82.8052 97.5792C83.0342 97.0153 84.2341 96.0528 85.3492 96.8457C86.2587 97.5821 86.936 98.5656 87.2996 99.678Z" fill="#FFBF9D"/>
<path d="M87.2997 99.6788C87.2997 99.6788 87.164 99.3608 86.8757 98.8308C86.6965 98.4973 86.4894 98.1796 86.2566 97.8811C85.9609 97.4839 85.6012 97.1386 85.1924 96.8592C84.9418 96.7119 84.6538 96.6403 84.3634 96.6531C84.073 96.6659 83.7924 96.7625 83.5557 96.9313C83.2776 97.0965 83.0525 97.3378 82.907 97.6267C82.7794 97.9527 82.6994 98.2954 82.6696 98.6443C82.6119 99.4071 82.6923 100.174 82.907 100.908C83.1063 101.684 83.331 102.49 83.5812 103.3C83.8145 104.087 84.1344 104.847 84.5352 105.564C84.722 105.893 85.0024 106.158 85.3408 106.327C85.6702 106.467 86.039 106.484 86.3796 106.374C86.6961 106.259 86.9824 106.074 87.2168 105.832C87.4511 105.591 87.6274 105.299 87.7321 104.979C87.9403 104.416 88.0396 103.819 88.0247 103.219C87.9963 102.341 87.8538 101.47 87.6007 100.629L87.3929 99.9417C87.3595 99.8634 87.3381 99.7805 87.3293 99.6958C87.3707 99.7692 87.4062 99.8457 87.4353 99.9247C87.4947 100.082 87.5837 100.306 87.6813 100.603C87.9756 101.445 88.1511 102.324 88.2028 103.215C88.2296 103.838 88.1345 104.46 87.9229 105.047C87.805 105.378 87.6268 105.684 87.3972 105.95C87.1447 106.235 86.8215 106.448 86.4601 106.569C86.073 106.698 85.6518 106.68 85.2772 106.518C84.8984 106.332 84.584 106.036 84.3741 105.67C83.962 104.937 83.6335 104.161 83.3946 103.355C83.1317 102.537 82.9155 101.731 82.7162 100.947C82.6144 100.559 82.5393 100.165 82.4915 99.7679C82.4534 99.3844 82.4534 98.9981 82.4915 98.6146C82.5243 98.2448 82.6115 97.882 82.7501 97.5376C82.9161 97.2157 83.1706 96.948 83.4837 96.7659C83.7629 96.5831 84.0871 96.4804 84.4207 96.4691C84.7312 96.4622 85.0367 96.5478 85.2984 96.7151C85.7188 97.01 86.0847 97.3758 86.3796 97.7963C86.6071 98.1046 86.8072 98.4324 86.9774 98.7757C87.0853 98.9918 87.1801 99.214 87.2615 99.4414C87.2814 99.5192 87.2941 99.5987 87.2997 99.6788Z" fill="#FF9A6C"/>
<path d="M88.1179 100.723C88.1592 100.833 88.1877 100.949 88.2027 101.066C88.2451 101.325 88.3044 101.647 88.3765 102.041C88.5164 102.919 88.7115 104.102 88.9362 105.501V105.577L88.8599 105.607C88.2643 105.83 87.7087 106.148 87.2147 106.548C86.6723 106.996 86.1931 107.515 85.7901 108.092C84.2425 110.046 83.9542 112.332 83.8439 113.926C83.8076 114.559 83.8204 115.194 83.8821 115.826C83.933 116.271 84.0008 116.512 83.9796 116.517C83.9584 116.521 83.9499 116.462 83.916 116.347C83.8665 116.184 83.8269 116.019 83.7973 115.851C83.6984 115.217 83.6615 114.575 83.6871 113.934C83.7197 112.982 83.8505 112.036 84.0771 111.111C84.2116 110.56 84.4064 110.025 84.658 109.516C84.9407 108.983 85.258 108.469 85.6078 107.977C86.0244 107.383 86.5209 106.85 87.0833 106.392C87.5932 105.983 88.1659 105.659 88.7793 105.433L88.7157 105.544C88.5207 104.14 88.3553 102.953 88.2366 102.071C88.1857 101.677 88.1475 101.35 88.1136 101.087C88.1008 100.966 88.1023 100.844 88.1179 100.723Z" fill="#FF9A6C"/>
<path d="M104.658 162.16C104.594 161.959 104.546 161.754 104.514 161.545C104.433 161.121 104.327 160.536 104.2 159.849C103.937 158.382 103.585 156.428 103.195 154.27C102.805 152.111 102.475 150.114 102.258 148.677C102.148 147.96 102.063 147.38 102.012 146.981C101.971 146.775 101.951 146.564 101.953 146.354C102.018 146.554 102.066 146.76 102.097 146.968L102.411 148.664C102.674 150.131 103.026 152.086 103.416 154.244C103.806 156.402 104.137 158.399 104.353 159.832C104.463 160.553 104.548 161.134 104.599 161.528C104.641 161.736 104.661 161.948 104.658 162.16Z" fill="#263238"/>
<path d="M75.9958 132.111L74.092 125.628L91.7813 120.01L93.3968 125.59L75.9958 132.111Z" fill="#E0E0E0"/>
<path d="M75.9957 132.11L76.0847 132.068L76.3434 131.966L77.3228 131.585L80.9523 130.19L93.3627 125.492L93.2949 125.619C92.7819 123.851 92.2391 121.977 91.6752 120.043L91.8151 120.115L91.3911 120.255L74.1344 125.699L74.181 125.606C74.7534 127.607 75.2113 129.223 75.5335 130.351C75.6862 130.902 75.8091 131.334 75.8939 131.644C75.9321 131.784 75.9618 131.898 75.9872 131.987C76.0018 132.027 76.0103 132.068 76.0127 132.11L75.9745 132.004L75.8727 131.682L75.4827 130.41L74.0368 125.644L74.0156 125.572L74.0877 125.551L91.3275 120.039L91.7515 119.903L91.8618 119.865L91.8915 119.975L93.5069 125.555L93.5324 125.653L93.4391 125.687L80.9268 130.321L77.2974 131.648L76.3307 131.996L76.0847 132.081L75.9957 132.11Z" fill="#263238"/>
<g opacity="0.3">
<path d="M101.953 146.378C105.222 152.348 106.702 159.522 106.778 166.306C106.778 166.9 106.583 167.697 105.99 167.684C105.396 167.672 105.243 166.997 105.18 166.463C104.417 160.035 102.716 152.789 101.953 146.361" fill="black"/>
</g>
<path d="M228.475 49.388C221.763 42.7651 221.92 30.9482 216.781 23.0449C210.679 13.666 199.274 12.1905 188.28 14.2808C187.981 14.3393 187.703 14.4753 187.474 14.6751L151.824 45.6907C151.515 45.9329 151.299 46.2749 151.214 46.6583C151.129 47.0418 151.179 47.443 151.357 47.7934C151.534 48.1437 151.828 48.4215 152.188 48.5794C152.548 48.7372 152.951 48.7652 153.329 48.6587C161.004 46.9627 170.671 47.3062 175.801 52.7249C181.029 58.2369 185.1 73.5518 189.34 79.9202C196.06 90.0284 203.705 97.0414 217.256 98.0886C217.502 98.1073 217.75 98.0718 217.981 97.9847C218.213 97.8975 218.422 97.7608 218.595 97.5841L220.152 96.011C220.186 95.9771 220.215 95.939 220.245 95.905C230.595 83.5836 239.613 72.0338 249.806 59.8057C250.009 59.5732 250.144 59.2899 250.198 58.9862C250.251 58.6825 250.221 58.3699 250.11 58.0821C250 57.7943 249.813 57.5421 249.569 57.3528C249.326 57.1634 249.035 57.0439 248.729 57.0073C241.292 55.96 233.783 54.6286 228.475 49.388Z" fill="#FFAC00"/>
<path d="M198.973 79.275C198.959 79.2395 198.949 79.2025 198.943 79.1648C198.943 79.0757 198.905 78.9655 198.875 78.8298C198.816 78.5203 198.735 78.0878 198.634 77.5578C198.583 77.2737 198.528 76.9642 198.464 76.625C198.4 76.2858 198.375 75.9085 198.324 75.5099C198.231 74.7043 198.087 73.8139 198.048 72.7793C198.015 72.2705 197.981 71.7363 197.947 71.1851C197.913 70.6339 197.947 70.053 197.917 69.4552C197.879 68.2553 197.964 66.979 198.023 65.6392C198.235 62.7283 198.67 59.838 199.325 56.9938C200.018 54.1559 200.927 51.3748 202.043 48.6749C202.594 47.4496 203.09 46.2709 203.662 45.2193C203.942 44.6893 204.188 44.1636 204.464 43.6845L205.269 42.3065C205.765 41.4161 206.299 40.6656 206.74 39.9872C206.965 39.6522 207.164 39.3342 207.368 39.0544L207.94 38.2997C208.275 37.8757 208.542 37.5068 208.733 37.2566L208.941 36.9895C208.992 36.9301 209.017 36.9005 209.022 36.9047C209.006 36.9395 208.986 36.9722 208.962 37.0022L208.767 37.2821L208.029 38.3336L207.478 39.0968C207.283 39.3809 207.084 39.7031 206.868 40.0381C206.444 40.7207 205.909 41.4754 205.426 42.3658L204.637 43.7693C204.362 44.2526 204.12 44.7741 203.849 45.3041C203.285 46.3557 202.793 47.5344 202.25 48.7597C201.148 51.4454 200.245 54.209 199.549 57.0277C198.899 59.8617 198.459 62.7401 198.235 65.6392C198.167 66.9748 198.078 68.2468 198.108 69.4552C198.108 70.0488 198.108 70.6254 198.108 71.1766C198.108 71.7278 198.167 72.2621 198.193 72.7666C198.227 73.7842 198.358 74.6916 198.434 75.4929C198.481 75.9169 198.515 76.2689 198.561 76.6081C198.608 76.9473 198.663 77.261 198.71 77.5409C198.795 78.0921 198.863 78.5245 198.909 78.8129C198.93 78.9528 198.943 79.063 198.956 79.1521C198.97 79.1914 198.976 79.2333 198.973 79.275Z" fill="#263238"/>
<g opacity="0.3">
<path d="M237.709 71.2032L228.5 66.1619C226.113 64.856 223.603 63.5161 220.868 63.444C217.374 63.355 214.008 65.5301 212.333 68.5956C210.658 71.6612 210.59 75.4772 211.807 78.7716C213.024 82.0661 215.437 84.8052 218.32 86.7852C219.317 87.3875 220.253 88.0862 221.114 88.8713C221.928 89.7193 222.513 90.8641 222.335 92.0174L223.183 92.3948L238.905 73.1112L237.709 71.2032Z" fill="black"/>
</g>
<path d="M190.582 15.9941C190.507 16.0897 190.423 16.1778 190.332 16.257L189.581 16.9863C188.924 17.6138 187.966 18.5127 186.774 19.6193C184.391 21.8241 181.063 24.8345 177.319 28.0993C173.575 31.3641 170.111 34.2177 167.601 36.2613C166.329 37.2874 165.311 38.1057 164.595 38.6654L163.772 39.3099C163.68 39.3908 163.579 39.4605 163.471 39.5177C163.556 39.4298 163.647 39.3477 163.743 39.2717L164.544 38.6018L167.512 36.1426C170.009 34.065 173.448 31.1776 177.188 27.934C180.927 24.6904 184.273 21.6969 186.681 19.5218L189.534 16.9397L190.302 16.2104C190.389 16.1306 190.483 16.0583 190.582 15.9941Z" fill="#263238"/>
<g opacity="0.3">
<path d="M187.338 18.9797L162.11 40.6503C170.527 35.8337 180.664 29.1005 188.911 17.5508C188.784 17.6907 187.465 18.8397 187.338 18.9797Z" fill="black"/>
</g>
<path d="M175.852 134.409L166.227 88.5871L162.466 82.6172L137.484 90.6732C137.484 90.6732 135.678 94.3577 135.682 94.8029L126.083 101.366L130.013 151.89L126.621 167.464L127.94 202.3H181.741L175.852 134.409Z" fill="#E0E0E0"/>
<path d="M133.075 96.2227C132.443 96.6467 114.453 104.851 114.453 104.851L119.117 178.686L115.682 202.43L130.751 202.316C130.751 202.316 133.007 191.114 133.639 172.174C134.27 153.234 133.075 96.2227 133.075 96.2227Z" fill="#455A64"/>
<path d="M165.277 86.9199C165.277 86.9199 163.085 165.966 164.357 171.44C165.629 176.914 171.481 202.303 171.481 202.303H204.107L190.221 164.677L192.765 126.814L190.221 90.5027L174.224 90.0787L165.277 86.9199Z" fill="#455A64"/>
<path d="M114.113 115.426C114.127 115.479 114.136 115.533 114.139 115.587L114.19 116.066C114.228 116.49 114.283 117.118 114.355 117.906C114.495 119.509 114.686 121.824 114.902 124.69C115.118 127.556 115.36 130.965 115.589 134.752C115.699 136.647 115.809 138.64 115.89 140.688C115.971 142.736 115.992 144.89 116.123 147.073C116.356 151.449 116.725 155.604 117.077 159.369C117.429 163.134 117.79 166.547 118.099 169.401C118.409 172.254 118.667 174.548 118.841 176.16C118.93 176.948 118.998 177.563 119.045 177.995L119.095 178.475C119.1 178.53 119.1 178.585 119.095 178.64C119.078 178.588 119.067 178.534 119.062 178.479C119.062 178.36 119.023 178.203 118.994 178C118.934 177.576 118.854 176.957 118.748 176.168C118.544 174.574 118.26 172.271 117.934 169.418C117.607 166.564 117.234 163.164 116.865 159.386C116.496 155.608 116.132 151.449 115.894 147.069C115.763 144.881 115.75 142.74 115.665 140.679C115.58 138.619 115.483 136.626 115.377 134.743C115.161 130.957 114.932 127.535 114.737 124.682C114.542 121.828 114.376 119.513 114.262 117.898C114.207 117.105 114.164 116.486 114.135 116.053C114.135 115.85 114.135 115.693 114.109 115.574C114.084 115.455 114.113 115.426 114.113 115.426Z" fill="#263238"/>
<path d="M169.746 88.5859C169.764 88.6158 169.78 88.647 169.793 88.6792L169.92 88.9633C170.035 89.2219 170.2 89.5951 170.408 90.0784C170.832 91.0579 171.417 92.4995 172.104 94.3523C174.035 99.4592 175.63 104.687 176.878 110.002L176.899 110.091L176.814 110.117L173.923 111.007V110.812C174.608 110.984 175.224 111.359 175.691 111.889C176.165 112.428 176.516 113.063 176.721 113.75C177.145 115.15 176.946 116.659 176.632 118.101C175.949 120.98 175.237 123.973 174.512 127.043C171.722 138.669 169.195 149.193 167.363 156.82C166.443 160.636 165.693 163.698 165.176 165.839C164.913 166.895 164.709 167.717 164.569 168.285C164.499 168.568 164.444 168.78 164.404 168.921C164.366 169.065 164.34 169.137 164.34 169.137C164.34 169.137 164.34 169.061 164.383 168.917L164.523 168.277C164.654 167.704 164.845 166.878 165.091 165.818C165.595 163.676 166.32 160.59 167.211 156.782C169.03 149.15 171.531 138.622 174.296 126.992C175.029 123.922 175.742 120.933 176.416 118.054C176.725 116.625 176.903 115.154 176.509 113.814C176.318 113.156 175.983 112.548 175.53 112.033C175.092 111.533 174.512 111.178 173.868 111.016L173.507 110.927L173.863 110.821L176.755 109.939L176.691 110.053C175.453 104.741 173.886 99.5117 171.998 94.3947C171.311 92.5376 170.726 91.0918 170.336 90.1039L169.878 88.9803C169.827 88.8573 169.793 88.7598 169.763 88.6877C169.753 88.6547 169.747 88.6205 169.746 88.5859Z" fill="#263238"/>
<path d="M132.379 171.441C132.379 171.441 132.379 171.369 132.354 171.234C132.328 171.098 132.316 170.882 132.29 170.623C132.239 170.076 132.167 169.288 132.074 168.274C131.883 166.235 131.599 163.284 131.226 159.642C130.48 152.353 129.327 142.3 128.131 131.187C127.813 128.219 127.512 125.327 127.245 122.546C127.113 121.164 126.944 119.764 127.274 118.433C127.436 117.777 127.743 117.165 128.173 116.644C128.593 116.126 129.169 115.758 129.814 115.592L129.852 115.787L126.49 116.245L126.342 116.266L126.388 116.122C128.169 110.275 129.657 105.395 130.7 101.965C131.226 100.269 131.642 98.9247 131.926 98.0004C132.07 97.551 132.18 97.2033 132.256 96.9574L132.345 96.6903C132.354 96.661 132.365 96.6326 132.379 96.6055C132.379 96.6055 132.379 96.6352 132.358 96.6945C132.337 96.7539 132.316 96.8556 132.286 96.9659C132.214 97.216 132.112 97.5637 131.985 98.0174C131.709 98.9459 131.315 100.29 130.811 101.999L126.571 116.177L126.465 116.054L129.823 115.588L129.861 115.787C129.258 115.946 128.721 116.294 128.33 116.779C127.924 117.274 127.634 117.854 127.482 118.475C127.164 119.747 127.329 121.134 127.482 122.516C127.766 125.293 128.063 128.185 128.368 131.153C129.568 142.266 130.696 152.323 131.404 159.616C131.756 163.263 132.015 166.214 132.18 168.257C132.256 169.271 132.316 170.063 132.358 170.61C132.375 170.873 132.388 171.077 132.396 171.221C132.395 171.295 132.389 171.368 132.379 171.441Z" fill="#263238"/>
<path d="M144.362 105.56L146.337 110.376H151.51L153.41 104.801L149.157 99.7383L147.771 99.9248L144.362 105.56Z" fill="#FFAC00"/>
<path d="M148.491 98.8007C148.469 98.862 148.439 98.9204 148.402 98.9746L148.114 99.4579L147.028 101.239C146.104 102.757 144.836 104.889 143.463 107.366L143.382 107.514L143.28 107.378C142.822 106.759 142.352 106.106 141.885 105.449C140.201 103.076 138.663 100.602 137.281 98.0418C136.746 97.0623 136.348 96.2525 136.076 95.6928L135.775 95.0398C135.734 94.9667 135.703 94.8882 135.682 94.8066C135.732 94.8733 135.776 94.9443 135.814 95.0186C135.903 95.184 136.013 95.396 136.153 95.6504C136.45 96.2016 136.869 96.9987 137.425 97.9654C138.85 100.494 140.407 102.947 142.089 105.313C142.555 105.979 143.026 106.619 143.479 107.238H143.297C144.684 104.766 145.977 102.642 146.931 101.141C147.41 100.395 147.8 99.7971 148.076 99.3943L148.394 98.9322C148.421 98.8849 148.454 98.8408 148.491 98.8007Z" fill="#263238"/>
<path d="M164.357 88.5859C164.327 88.6857 164.287 88.7822 164.239 88.8743L163.861 89.6841L162.428 92.6521L157.628 102.404L155.453 106.746L155.39 106.877L155.284 106.776C153.494 105.012 151.802 103.15 150.217 101.2C149.64 100.471 149.204 99.8728 148.92 99.4573C148.775 99.2495 148.669 99.0842 148.602 98.9739C148.561 98.9202 148.527 98.8619 148.5 98.8001C148.55 98.8446 148.595 98.896 148.631 98.9527L148.975 99.4149C149.28 99.8389 149.729 100.403 150.319 101.111C151.493 102.548 153.287 104.469 155.432 106.623L155.267 106.648C155.937 105.296 156.666 103.816 157.429 102.281C159.32 98.4991 161.033 95.0731 162.284 92.5715L163.781 89.6417L164.205 88.8488C164.249 88.7575 164.3 88.6696 164.357 88.5859Z" fill="#263238"/>
<g opacity="0.3">
<path d="M148.462 195.888C148.775 195.29 158.112 182.867 158.112 182.867L151.383 111.537L148.462 195.888Z" fill="black"/>
</g>
<path d="M146.435 110.377C146.435 110.377 140.253 182.097 141.326 186.387L148.462 195.889L155.877 181.804C156.043 181.13 151.324 110.377 151.324 110.377H146.435Z" fill="#FFAC00"/>
<path d="M174.376 178.627C174.376 178.852 178.383 185.933 178.383 185.933L199.74 185.818L195.004 178.576L174.376 178.627Z" fill="#455A64"/>
<path d="M174.376 178.627H174.47H174.758H175.89L180.16 178.589L195 178.5H195.059L195.089 178.547L199.829 185.784L199.939 185.954H199.549L178.396 186.034H178.349L178.328 185.992C177.056 183.741 176.06 181.913 175.36 180.65C175.021 180.014 174.762 179.522 174.597 179.183C174.508 179.013 174.453 178.882 174.41 178.793C174.393 178.747 174.379 178.7 174.368 178.653L174.432 178.784L174.635 179.161C174.822 179.505 175.093 179.988 175.436 180.607C176.149 181.879 177.175 183.677 178.443 185.92L178.375 185.878L199.528 185.733H199.732L199.638 185.903L194.911 178.657L194.996 178.704H180.223H175.928H174.775H174.474L174.376 178.627Z" fill="#263238"/>
<path d="M151.93 103.07C151.689 103.448 151.42 103.807 151.124 104.143C150.611 104.788 149.903 105.686 149.136 106.687C148.368 107.688 147.694 108.608 147.206 109.273C146.96 109.649 146.684 110.003 146.38 110.333C146.578 109.931 146.811 109.547 147.075 109.184C147.533 108.493 148.194 107.556 148.962 106.551C149.729 105.546 150.459 104.665 151.005 104.041C151.284 103.69 151.593 103.365 151.93 103.07Z" fill="#263238"/>
<g opacity="0.3">
<path d="M149.034 99.569C149.034 99.569 153.511 107.625 155.436 108.27C157.361 108.914 160.732 95.8633 160.732 95.8633L155.356 106.425L149.034 99.569Z" fill="black"/>
</g>
<g opacity="0.3">
<path d="M165.277 165.595C165.277 165.595 175.352 132.679 177.501 123.407C179.651 114.134 176.861 111.535 176.861 111.535L178.845 110.33L172.88 96.6055L176.802 110.025L173.91 110.911C173.91 110.911 176.183 111.081 176.776 114.422C177.37 117.763 165.277 165.595 165.277 165.595Z" fill="black"/>
</g>
<path d="M219.728 68.1492C219.728 68.1492 218.608 67.0722 216.628 68.111C216.628 68.111 214.563 69.2007 214.271 70.108C213.978 71.0154 214.44 72.2577 214.822 73.1778C215.203 74.0979 217.485 77.4984 217.485 77.4984C217.599 79.5917 218.258 81.6187 219.397 83.3792C221.318 86.3939 224.536 86.4829 225.146 88.6623C225.757 90.8416 225.994 91.4946 225.621 92.9913L224.654 97.0532L237.205 103.464C237.205 103.464 238.006 94.4329 237.769 89.1032C237.531 83.7736 237.523 78.4269 237.858 76.697C238.193 74.9671 237.743 72.4316 237.205 72.1644C237.205 72.1644 238.672 68.535 236.883 67.5004C235.093 66.4659 223.645 62.9976 222.407 63.4555C221.169 63.9134 220.711 64.5409 220.385 65.8935C220.208 66.6572 219.989 67.4103 219.728 68.1492Z" fill="#FFBF9D"/>
<path d="M230.425 77.2656C230.3 77.1432 230.198 76.9997 230.124 76.8416C230.008 76.6108 229.952 76.3543 229.963 76.0961C229.973 75.838 230.049 75.5868 230.183 75.3661L230.209 75.4593L228.568 74.8445L228.674 74.747L229.149 76.0911V76.0572C229.339 76.251 229.507 76.4658 229.649 76.6974C229.8 76.955 229.883 77.2468 229.891 77.5454C229.886 77.8647 229.791 78.1762 229.617 78.444C229.443 78.7118 229.197 78.925 228.907 79.0591C228.601 79.2042 228.257 79.2502 227.923 79.1905C227.757 79.1577 227.596 79.108 227.44 79.0421C227.287 78.987 227.135 78.9192 226.982 78.8513C226.359 78.5663 225.775 78.203 225.244 77.7701C224.875 77.477 224.538 77.1459 224.239 76.7822L224.315 76.8246C223.53 76.7536 222.788 76.436 222.195 75.9173C221.933 75.6687 221.723 75.3705 221.578 75.04C221.432 74.7095 221.354 74.3534 221.347 73.9923L221.419 74.0898C220.938 73.9498 220.487 73.7227 220.088 73.4199C219.9 73.2774 219.739 73.1022 219.613 72.9026C219.516 72.6955 219.464 72.47 219.46 72.2412C219.453 71.5173 219.517 70.7944 219.651 70.083C219.753 69.4894 219.85 69.0273 219.922 68.7135C219.955 68.5509 219.999 68.3909 220.054 68.2344C220.044 68.3999 220.022 68.5643 219.986 68.7262C219.931 69.0442 219.85 69.5064 219.766 70.1C219.653 70.8008 219.605 71.5104 219.621 72.22C219.626 72.4209 219.672 72.6188 219.757 72.8009C219.87 72.9809 220.014 73.1401 220.181 73.2715C220.566 73.5516 220.996 73.7625 221.453 73.8948L221.525 73.916V73.9923C221.554 74.6635 221.845 75.2967 222.335 75.7561C222.894 76.2382 223.589 76.5346 224.324 76.6041H224.37L224.4 76.6381C224.689 76.9869 225.013 77.3051 225.367 77.5878C225.885 78.0083 226.455 78.3616 227.063 78.6393C227.211 78.7072 227.359 78.7708 227.512 78.8301C227.649 78.8888 227.791 78.9356 227.936 78.9701C228.224 79.0178 228.519 78.9779 228.784 78.8556C229.039 78.7394 229.256 78.5536 229.411 78.3197C229.565 78.0857 229.651 77.813 229.657 77.5327C229.614 77.0121 229.373 76.528 228.983 76.1801L228.53 74.8276L228.474 74.6665L228.631 74.7301L230.255 75.3788L230.327 75.4042L230.285 75.4678C230.135 75.6985 230.057 75.9686 230.06 76.2437C230.06 76.4511 230.104 76.6561 230.187 76.8458C230.319 77.1045 230.442 77.2656 230.425 77.2656Z" fill="#FF9A6C"/>
<path d="M234.411 70.9406C234.205 70.9291 234.001 70.8993 233.8 70.8515L232.155 70.5251L229.721 70.0163L228.288 69.711C227.796 69.5683 227.282 69.511 226.77 69.5414C226.525 69.579 226.292 69.6759 226.093 69.8236C225.893 69.9714 225.733 70.1656 225.625 70.3894C225.405 70.8174 225.236 71.27 225.121 71.7377C224.909 72.5348 224.751 73.345 224.646 74.163C224.553 74.8626 224.498 75.435 224.451 75.8251C224.44 76.0297 224.408 76.2328 224.358 76.4314C224.339 76.2269 224.339 76.0211 224.358 75.8166C224.358 75.4223 224.409 74.8499 224.485 74.1418C224.564 73.3125 224.705 72.4904 224.909 71.6826C225.02 71.1962 225.192 70.726 225.422 70.2834C225.55 70.0413 225.726 69.8278 225.939 69.6559C226.166 69.4806 226.435 69.368 226.719 69.3294C227.259 69.2957 227.799 69.356 228.318 69.5075L229.751 69.8297L232.172 70.3809L233.804 70.7752C234.012 70.8093 234.215 70.8647 234.411 70.9406Z" fill="#FF9A6C"/>
<path d="M232.409 68.3274C232.197 68.3013 231.987 68.2588 231.782 68.2002L230.086 67.7762C229.374 67.6066 228.525 67.4116 227.576 67.2293C227.101 67.1402 226.601 67.0512 226.083 66.9876C225.561 66.902 225.027 66.9338 224.519 67.0809C224.028 67.2668 223.609 67.602 223.319 68.0391C223.039 68.4506 222.814 68.8967 222.649 69.3662C222.356 70.1689 222.112 70.9887 221.92 71.8212C221.754 72.5293 221.652 73.1144 221.585 73.5172C221.562 73.7278 221.522 73.9362 221.466 74.1405C221.455 73.9279 221.467 73.7147 221.5 73.5045C221.542 73.0805 221.619 72.5081 221.767 71.8085C221.94 70.9639 222.171 70.1323 222.458 69.3196C222.623 68.8306 222.853 68.3657 223.141 67.9373C223.453 67.4589 223.911 67.0933 224.447 66.8943C224.987 66.7351 225.557 66.7003 226.113 66.7925C226.639 66.8646 227.139 66.9579 227.614 67.0512C228.568 67.242 229.416 67.4752 230.124 67.6448C230.832 67.8144 231.396 68.0052 231.79 68.1239C232.003 68.1706 232.21 68.2387 232.409 68.3274Z" fill="#FF9A6C"/>
<path d="M237.192 69.7051C237.154 69.7602 236.543 69.2811 235.661 68.9801C234.779 68.679 234.016 68.6366 234.021 68.5561C234.601 68.4896 235.188 68.5571 235.738 68.7533C236.288 68.9496 236.785 69.2694 237.192 69.6882V69.7051Z" fill="#FF9A6C"/>
<path d="M226.113 65.114C225.954 65.1321 225.793 65.1321 225.634 65.114C225.21 65.0894 224.786 65.0894 224.362 65.114C223.735 65.1487 223.125 65.335 222.585 65.6568C222.275 65.8483 222.014 66.1097 221.822 66.42C221.628 66.7635 221.486 67.1334 221.398 67.5181C221.008 69.1336 220.758 70.626 220.597 71.7072C220.52 72.2118 220.461 72.64 220.41 72.9792C220.395 73.1386 220.366 73.2961 220.321 73.4499C220.299 73.291 220.299 73.1297 220.321 72.9708C220.321 72.6655 220.372 72.2245 220.436 71.6988C220.6 70.2719 220.849 68.856 221.182 67.4588C221.277 67.0512 221.434 66.6608 221.648 66.3012C221.863 65.965 222.154 65.6834 222.496 65.4787C223.068 65.1484 223.714 64.9676 224.375 64.9529C224.81 64.9399 225.245 64.9612 225.676 65.0165C225.825 65.0319 225.972 65.0647 226.113 65.114Z" fill="#FF9A6C"/>
<path d="M232.13 66.6665C231.118 66.5571 230.127 66.3044 229.187 65.916C229.696 65.9322 230.2 66.0222 230.684 66.1831C231.186 66.2744 231.673 66.4371 232.13 66.6665Z" fill="#FF9A6C"/>
<path d="M221.491 74.6543C220.874 74.9374 220.28 75.2691 219.715 75.6465C219.198 76.0876 218.717 76.5697 218.277 77.0881C218.575 76.4515 219.023 75.897 219.583 75.4729C220.143 75.0488 220.798 74.7678 221.491 74.6543Z" fill="#FF9A6C"/>
<path d="M219.664 72.823C219.664 72.823 219.524 72.9926 219.219 73.158C218.814 73.3731 218.362 73.4811 217.904 73.4717C217.452 73.4541 217.008 73.352 216.594 73.1707C216.28 73.0308 216.102 72.912 216.115 72.8866C216.128 72.8612 216.908 73.2088 217.908 73.2512C218.909 73.2936 219.63 72.7509 219.664 72.823Z" fill="#FF9A6C"/>
<path d="M232.443 78.297C231.823 78.3605 231.207 78.4596 230.599 78.5938C229.137 78.9503 227.804 79.7092 226.751 80.7846C225.698 81.86 224.967 83.2088 224.642 84.6782C224.522 85.289 224.437 85.9063 224.387 86.5269C224.353 86.361 224.34 86.1914 224.349 86.0223C224.351 85.5595 224.398 85.098 224.489 84.6443C224.783 83.1295 225.515 81.7343 226.594 80.6317C227.673 79.529 229.053 78.7674 230.561 78.4412C231.012 78.3404 231.472 78.2836 231.934 78.2716C232.104 78.2585 232.275 78.267 232.443 78.297Z" fill="#FF9A6C"/>
<path d="M234.457 90.7414C234.096 90.8722 233.717 90.9466 233.334 90.9619C232.41 91.0531 231.478 91.0145 230.565 90.8474C229.653 90.6865 228.767 90.4012 227.932 89.9994C227.579 89.8475 227.251 89.6447 226.957 89.3973C226.957 89.3676 227.355 89.5796 228 89.8552C229.676 90.5811 231.497 90.9105 233.321 90.8177C234.021 90.7753 234.453 90.7075 234.457 90.7414Z" fill="#FF9A6C"/>
<path d="M219.053 115.515L198.455 99.6408C198.455 99.6408 194.563 90.4358 190.26 90.5036V127.968L209.183 139.276C210.785 140.396 218.184 144.903 225.117 146.188C228.89 146.887 234.313 145.382 236.297 142.104C236.87 141.159 238.519 137.055 238.668 135.855C239.27 131.059 240.444 94.4426 240.444 94.4426L219.838 90.4824L219.053 115.515Z" fill="#455A64"/>
<path d="M221.487 138.614C221.424 138.556 221.37 138.489 221.326 138.415C221.212 138.262 221.072 138.063 220.902 137.821L220.597 137.397C220.491 137.232 220.389 137.05 220.27 136.855C220.046 136.465 219.761 136.032 219.52 135.515C219.393 135.26 219.257 134.993 219.121 134.714C218.986 134.434 218.871 134.128 218.74 133.823C218.464 133.208 218.248 132.526 218.006 131.809C217.534 130.242 217.211 128.633 217.039 127.005C216.897 125.374 216.905 123.733 217.065 122.104C217.167 121.353 217.243 120.641 217.4 119.984C217.468 119.657 217.518 119.335 217.599 119.034C217.68 118.733 217.764 118.449 217.836 118.186C217.976 117.631 218.171 117.151 218.316 116.723C218.396 116.511 218.46 116.299 218.536 116.13L218.748 115.646C218.875 115.375 218.977 115.154 219.053 114.981C219.083 114.9 219.124 114.824 219.176 114.756C219.156 114.839 219.129 114.919 219.096 114.998C219.028 115.176 218.939 115.4 218.829 115.68C218.769 115.829 218.701 115.994 218.634 116.168C218.566 116.342 218.506 116.549 218.434 116.766C218.299 117.19 218.116 117.673 218.01 118.224C217.938 118.5 217.866 118.788 217.786 119.072C217.705 119.356 217.667 119.691 217.599 120.018C217.455 120.671 217.383 121.379 217.29 122.138C216.964 125.376 217.281 128.647 218.222 131.762C218.46 132.475 218.646 133.153 218.93 133.764C219.058 134.073 219.164 134.374 219.295 134.654L219.681 135.456C219.91 135.977 220.181 136.41 220.397 136.808C220.508 137.003 220.605 137.19 220.707 137.351L220.995 137.775L221.385 138.39C221.426 138.461 221.46 138.537 221.487 138.614Z" fill="#263238"/>
<path d="M194.461 101.379C194.467 101.432 194.467 101.486 194.461 101.54C194.461 101.663 194.461 101.82 194.44 102.023C194.419 102.447 194.385 103.075 194.338 103.868C194.241 105.483 194.097 107.798 193.914 110.652C193.541 116.393 193.024 124.3 192.456 133.035C191.888 141.769 191.324 149.677 190.934 155.413C190.726 158.267 190.56 160.578 190.446 162.197C190.382 162.986 190.336 163.605 190.302 164.038C190.302 164.241 190.268 164.398 190.259 164.517C190.251 164.635 190.259 164.682 190.259 164.682C190.255 164.627 190.255 164.572 190.259 164.517L190.281 164.038C190.306 163.614 190.34 162.982 190.387 162.193C190.484 160.578 190.624 158.263 190.811 155.409C191.184 149.673 191.701 141.765 192.269 133.026C192.837 124.288 193.401 116.389 193.791 110.652C193.999 107.798 194.164 105.483 194.279 103.868C194.343 103.075 194.389 102.456 194.423 102.023C194.423 101.82 194.457 101.663 194.465 101.544C194.46 101.489 194.459 101.434 194.461 101.379Z" fill="#263238"/>
<g opacity="0.3">
<path d="M219.087 133.913C218.041 131.624 217.375 129.179 217.116 126.675C216.73 123.762 217.277 119.327 218.388 116.609C214.631 121.986 213.448 129.643 215.975 135.689C216.297 136.461 216.823 137.318 217.671 137.385C218.4 137.432 219.028 136.788 219.214 136.084C219.411 135.366 219.367 134.603 219.087 133.913Z" fill="black"/>
</g>
<path d="M163.314 67.2045C164.76 62.9348 166.189 58.6312 166.88 54.175C167.571 49.7187 167.491 45.0632 165.973 40.8147C165.744 40.1703 163.764 35.8497 163.085 35.9048C162.598 35.9472 163.798 39.9752 163.548 40.395C161.152 44.3933 160.452 49.2311 160.77 53.8867C161.121 58.4067 161.974 62.8736 163.314 67.2045Z" fill="#263238"/>
<path d="M147.012 28.8027L145.964 28.8451C140.888 29.0543 136.076 31.167 132.486 34.763C128.896 38.3589 126.792 43.1745 126.592 48.2516C126.21 58.0503 125.909 68.875 126.193 74.1156C126.774 84.9488 137.688 86.1699 137.688 86.1699L137.734 90.7407L148.534 97.9487L162.721 82.6847L163.972 50.0027C164.476 38.7074 158.32 28.9935 147.012 28.8027Z" fill="#FFBF9D"/>
<path d="M137.688 86.1694C137.688 86.1694 144.54 86.2881 151.633 81.4121C151.633 81.4121 148.576 89.7055 137.713 89.1755L137.688 86.1694Z" fill="#FF9A6C"/>
<path d="M131.595 57.3079C131.608 57.7114 131.778 58.0938 132.068 58.374C132.359 58.6542 132.747 58.8102 133.151 58.8089C133.348 58.8146 133.545 58.7808 133.729 58.7095C133.913 58.6383 134.081 58.531 134.223 58.394C134.365 58.257 134.479 58.093 134.557 57.9116C134.635 57.7302 134.676 57.5351 134.677 57.3376C134.665 56.9338 134.495 56.5508 134.205 56.2704C133.914 55.9899 133.525 55.8343 133.121 55.8367C132.924 55.8304 132.727 55.8638 132.542 55.9349C132.358 56.0059 132.19 56.1132 132.048 56.2503C131.905 56.3874 131.792 56.5517 131.714 56.7333C131.636 56.915 131.596 57.1103 131.595 57.3079Z" fill="#263238"/>
<path d="M129.098 52.9456C129.297 53.1406 130.433 52.2248 132.099 52.1569C133.766 52.0891 135.025 52.8777 135.195 52.6657C135.279 52.5724 135.072 52.2163 134.521 51.8474C133.777 51.38 132.909 51.1521 132.032 51.1944C131.166 51.2272 130.333 51.5346 129.653 52.0721C129.165 52.4876 129 52.8608 129.098 52.9456Z" fill="#263238"/>
<path d="M146.549 57.3077C146.561 57.7115 146.731 58.0946 147.022 58.375C147.313 58.6555 147.701 58.8111 148.105 58.8087C148.303 58.8155 148.5 58.7829 148.685 58.7127C148.869 58.6425 149.038 58.5363 149.182 58.4001C149.325 58.2639 149.44 58.1006 149.519 57.9196C149.599 57.7386 149.641 57.5436 149.645 57.3459C149.632 56.9421 149.463 56.5591 149.172 56.2786C148.881 55.9982 148.492 55.8425 148.088 55.8449C147.891 55.837 147.693 55.8688 147.508 55.9386C147.323 56.0083 147.153 56.1145 147.01 56.2509C146.866 56.3873 146.751 56.5511 146.672 56.7327C146.593 56.9142 146.551 57.1098 146.549 57.3077Z" fill="#263238"/>
<path d="M145.447 52.6742C145.646 52.8693 146.787 51.9534 148.453 51.8856C150.12 51.8178 151.375 52.6064 151.544 52.3944C151.629 52.3011 151.421 51.945 150.87 51.5803C150.13 51.1095 149.262 50.8799 148.385 50.9231C147.518 50.955 146.683 51.2624 146.002 51.8008C145.511 52.1994 145.35 52.5725 145.447 52.6742Z" fill="#263238"/>
<path d="M139.999 65.7075C139.999 65.6142 138.96 65.4785 137.272 65.3301C136.848 65.3047 136.424 65.2369 136.356 64.9485C136.289 64.6602 136.399 64.1811 136.585 63.6765C136.946 62.6293 137.319 61.5565 137.709 60.3863C139.269 55.7011 140.376 51.8554 140.185 51.7918C139.994 51.7282 138.582 55.4806 137.026 60.1658C136.653 61.3191 136.293 62.4215 135.954 63.473C135.814 63.9649 135.559 64.5245 135.801 65.169C135.869 65.3165 135.969 65.4467 136.095 65.5495C136.221 65.6524 136.368 65.7253 136.526 65.7626C136.765 65.817 137.01 65.8412 137.255 65.8347C138.947 65.8389 139.994 65.8177 139.999 65.7075Z" fill="#263238"/>
<path d="M144.692 47.4673C144.938 47.8913 146.537 47.3698 148.508 47.2468C150.48 47.1239 152.129 47.3571 152.324 46.9119C152.405 46.6999 152.053 46.331 151.349 46.013C150.414 45.638 149.405 45.4813 148.4 45.5547C147.395 45.6282 146.42 45.93 145.549 46.437C144.874 46.8525 144.582 47.268 144.692 47.4673Z" fill="#263238"/>
<path d="M128.818 48.0481C129.174 48.417 130.514 47.9887 132.154 47.9294C133.795 47.87 135.173 48.1032 135.483 47.7004C135.614 47.5011 135.39 47.128 134.775 46.7888C133.933 46.3615 132.99 46.1709 132.048 46.2376C131.107 46.2736 130.193 46.5669 129.407 47.0856C128.839 47.4757 128.661 47.87 128.818 48.0481Z" fill="#263238"/>
<path d="M163.416 58.072C163.598 57.9872 170.777 55.5619 170.844 62.9862C170.912 70.4104 163.446 68.9476 163.433 68.7356C163.42 68.5236 163.416 58.072 163.416 58.072Z" fill="#FFBF9D"/>
<path d="M165.672 65.8978C165.706 65.8766 165.803 65.9868 166.024 66.0843C166.333 66.2116 166.681 66.2116 166.99 66.0843C167.771 65.7875 168.419 64.5367 168.445 63.2011C168.458 62.5641 168.328 61.9322 168.063 61.3525C167.992 61.1213 167.866 60.9109 167.695 60.7395C167.525 60.5681 167.315 60.4408 167.084 60.3688C166.934 60.3306 166.777 60.3457 166.637 60.4115C166.498 60.4773 166.386 60.5896 166.321 60.7292C166.223 60.937 166.274 61.0854 166.236 61.0981C166.198 61.1108 166.075 60.9751 166.13 60.6741C166.171 60.4894 166.272 60.3238 166.418 60.2034C166.622 60.0492 166.877 59.9793 167.13 60.0084C167.436 60.0661 167.723 60.2012 167.962 60.4009C168.201 60.6005 168.384 60.8581 168.496 61.149C168.815 61.7897 168.975 62.498 168.962 63.2138C168.928 64.7106 168.173 66.114 167.105 66.4363C166.906 66.4959 166.697 66.51 166.492 66.4777C166.287 66.4454 166.093 66.3675 165.922 66.2497C165.689 66.0758 165.629 65.9105 165.672 65.8978Z" fill="#FF9A6C"/>
<path d="M131.387 35.951C130.187 35.2895 133.791 31.3972 136.742 30.0574C141.203 28.0307 148.016 26.7799 152.133 27.9374C157.086 29.3408 161.203 31.8043 163.692 36.3114C166.181 40.8185 167.118 46.0634 166.978 51.215C166.935 52.788 166.77 54.4247 165.935 55.7518C164.9 57.3927 162.907 58.4272 162.996 60.6914C163.025 61.1014 162.971 61.513 162.84 61.9024C162.708 62.2917 162.5 62.6511 162.229 62.9598C160.872 64.4056 159.206 63.0488 158.443 61.6878C156.81 58.7791 156.628 55.3278 156.479 51.9782C156.378 49.6123 156.28 47.1912 156.946 44.9186C157.31 43.6805 157.891 42.5103 158.184 41.2552C158.476 40.0002 158.438 38.5755 157.658 37.5495C157.475 37.3279 157.272 37.1236 157.052 36.9389C156.016 36.0365 154.759 35.4259 153.41 35.1695C152.061 34.9132 150.667 35.0205 149.373 35.4803C145.193 36.9855 138.069 39.1819 136.191 37.7615C133.507 35.722 132.863 34.3695 132.863 34.3695L131.387 35.951Z" fill="#263238"/>
<path d="M145.231 66.7425C144.976 66.7425 144.968 68.4385 143.501 69.6341C142.034 70.8298 140.223 70.639 140.211 70.8765C140.185 70.9867 140.613 71.2114 141.381 71.2369C142.379 71.2551 143.352 70.9203 144.128 70.2914C144.872 69.6872 145.353 68.8176 145.468 67.8661C145.536 67.1537 145.349 66.7297 145.231 66.7425Z" fill="#263238"/>
</svg>
