<svg width="187" height="176" viewBox="0 0 187 176" fill="none" xmlns="http://www.w3.org/2000/svg">
<path d="M93.5739 142.429C98.2389 103.134 123.081 66.7848 157.984 48.1504" stroke="#EA9D00" stroke-opacity="0.1" stroke-miterlimit="10"/>
<path d="M153.073 50.9359C159.898 39.4718 173.196 32.171 186.539 32.5766C179.943 43.8282 167.067 51.1123 153.073 50.9359Z" fill="#F9B935" fill-opacity="0.1"/>
<path d="M141.776 57.9658C147.086 53.8731 150.418 47.6129 152.032 41.1048C153.646 34.5967 153.655 27.7977 153.319 21.1035C145.657 31.7122 141.22 44.6322 141.776 57.9658Z" fill="#F9B935" fill-opacity="0.1"/>
<path d="M126.82 71.7834C134.104 60.2743 134.58 44.7899 128.028 32.8496C123.257 44.8163 122.631 58.3792 126.82 71.7834Z" fill="#F9B935" fill-opacity="0.1"/>
<path d="M114.879 86.6722C118.24 71.9717 113.786 55.7104 103.397 44.7754C99.8527 60.587 104.316 77.9947 114.879 86.6722Z" fill="#F9B935" fill-opacity="0.1"/>
<path d="M103.769 105.356C104.792 89.5364 96.2733 73.4779 82.6046 65.4434C83.8921 80.7788 91.3085 95.5066 103.769 105.356Z" fill="#F9B935" fill-opacity="0.1"/>
<path d="M96.6163 126.803C93.3006 112.429 81.1398 100.48 66.7039 97.4375C72.63 110.515 82.7095 121.68 96.6163 126.803Z" fill="#F9B935" fill-opacity="0.1"/>
<path d="M147.897 54.3846C153.788 53.1509 159.978 53.9878 165.657 55.9896C171.337 57.9914 176.539 61.1211 181.504 64.5259C169.625 68.1062 155.798 63.9968 147.897 54.3846Z" fill="#F9B935" fill-opacity="0.1"/>
<path d="M132.394 66.7833C139.078 64.076 146.705 65.0372 153.126 68.1943C159.555 71.3513 164.908 76.5189 169.546 82.1892C156.503 82.7968 143.39 77.974 132.394 66.7833Z" fill="#F9B935" fill-opacity="0.1"/>
<path d="M119.378 80.6016C134.395 81.8794 149.035 87.8583 159.888 97.1548C152.182 98.4414 143.901 97.5419 136.626 94.623C129.351 91.7041 123.116 86.7745 119.378 80.6016Z" fill="#F9B935" fill-opacity="0.1"/>
<path d="M107.939 98.8202C123.646 97.5944 140.066 102.99 151.415 113.106C136.539 116.052 119.765 110.955 107.939 98.8202Z" fill="#F9B935" fill-opacity="0.1"/>
<path d="M100.179 115.922C114.8 112.677 129.818 121.504 137.279 137.713C123.504 139.202 109.924 131.019 100.179 115.922Z" fill="#F9B935" fill-opacity="0.1"/>
<path d="M47.7539 175.789C33.4326 128.583 32.1972 77.5948 44.2353 30.4863" stroke="#EA9D00" stroke-opacity="0.1" stroke-miterlimit="10"/>
<path d="M42.6658 36.6425C38.6013 24.0056 42.3659 9.28751 51.8644 0.689453C54.509 13.7497 50.9014 27.8152 42.6658 36.6425Z" fill="#F9B935" fill-opacity="0.1"/>
<path d="M39.8259 51.7665C37.3303 38.5476 29.1467 26.4221 17.9207 19.3047C18.7673 32.648 27.5673 45.3378 39.8259 51.7665Z" fill="#F9B935" fill-opacity="0.1"/>
<path d="M36.897 76.5098C33.4666 69.5255 29.9745 62.4354 24.8607 56.6152C19.745 50.7941 12.6999 46.2975 5.17773 46.1035C8.79333 52.5675 12.4442 59.102 17.3826 64.5862C22.3209 70.0634 28.7223 74.4894 36.897 76.5098Z" fill="#F9B935" fill-opacity="0.1"/>
<path d="M35.5666 100.56C28.7587 87.8081 15.9639 78.5222 2.10915 76.2734C8.43202 89.5894 21.8979 99.1751 35.5666 100.56Z" fill="#F9B935" fill-opacity="0.1"/>
<path d="M37.7538 126.876C28.4679 115.297 14.3848 107.907 0 107.053C8.41375 119.071 23.1063 126.179 37.7538 126.876Z" fill="#F9B935" fill-opacity="0.1"/>
<path d="M41.581 43.5646C46.9427 34.2787 56.2982 27.611 66.7041 25.6621C63.1511 36.3334 52.7893 44.0496 41.581 43.5646Z" fill="#F9B935" fill-opacity="0.1"/>
<path d="M37.9036 66.5286C44.738 54.4825 58.2048 46.8536 71.9343 47.268C65.0647 59.5707 51.7399 67.675 37.9036 66.5286Z" fill="#F9B935" fill-opacity="0.1"/>
<path d="M35.7872 90.7268C43.6445 78.9462 57.5689 71.8023 71.6345 72.3323C62.1369 82.2787 49.6949 89.1915 35.7872 90.7268Z" fill="#F9B935" fill-opacity="0.1"/>
<path d="M36.7486 116.169C43.3713 103.796 57.04 95.9116 70.9388 96.4584C62.9748 107.632 50.0645 114.836 36.7486 116.169Z" fill="#F9B935" fill-opacity="0.1"/>
<path d="M39.6929 140.825C46.0863 127.041 60.3458 117.685 75.3373 117.43C70.443 122.306 65.5135 127.209 59.844 131.116C54.1728 135.013 47.6833 137.924 39.6929 140.825Z" fill="#F9B935" fill-opacity="0.1"/>
</svg>
