<svg width="29" height="26" viewBox="0 0 29 26" fill="none" xmlns="http://www.w3.org/2000/svg">
<g clip-path="url(#clip0_429_3592)">
<path d="M0.25 3.4873C0.25 1.76123 1.64893 0.362305 3.375 0.362305H11.1875V6.6123C11.1875 7.47656 11.8857 8.1748 12.75 8.1748H19V10.0596C15.3916 11.0801 12.75 14.3955 12.75 18.3311C12.75 21.2168 14.1709 23.7656 16.3486 25.3281C16.1973 25.3477 16.0361 25.3623 15.875 25.3623H3.375C1.64893 25.3623 0.25 23.9609 0.25 22.2373V3.4873ZM12.75 6.6123V0.362305L19 6.6123H12.75ZM14.3125 18.3311C14.3125 14.4492 17.4619 11.2998 21.3438 11.2998C25.2256 11.2998 28.375 14.4492 28.375 18.3311C28.375 22.2129 25.2256 25.3623 21.3438 25.3623C17.4619 25.3623 14.3125 22.2129 14.3125 18.3311ZM21.3438 23.0186C21.9932 23.0186 22.5156 22.4961 22.5156 21.8467C22.5156 21.1973 21.9932 20.6748 21.3438 20.6748C20.6943 20.6748 20.1719 21.1973 20.1719 21.8467C20.1719 22.4961 20.6943 23.0186 21.3438 23.0186ZM20.5186 14.4248V18.3311C20.5186 18.7607 20.9141 19.1123 21.2998 19.1123C21.7734 19.1123 22.0811 18.7607 22.0811 18.3311V14.4248C22.0811 13.9951 21.7734 13.6436 21.2998 13.6436C20.9141 13.6436 20.5186 13.9951 20.5186 14.4248Z" fill="#A2A2A2"/>
</g>
<defs>
<clipPath id="clip0_429_3592">
<rect width="28.125" height="25" fill="white" transform="translate(0.25 0.362305)"/>
</clipPath>
</defs>
</svg>
