<svg width="28" height="26" viewBox="0 0 28 26" fill="none" xmlns="http://www.w3.org/2000/svg">
<g clip-path="url(#clip0_429_3582)">
<path d="M0.25 3.4873C0.25 1.76123 1.61784 0.362305 3.30556 0.362305H10.9444V6.6123C10.9444 7.47656 11.6272 8.1748 12.4722 8.1748H18.5833V10.0596C15.0551 11.0801 12.4722 14.3955 12.4722 18.3311C12.4722 21.2168 13.8615 23.7656 15.9909 25.3281C15.8429 25.3477 15.6853 25.3623 15.5278 25.3623H3.30556C1.61784 25.3623 0.25 23.9609 0.25 22.2373V3.4873ZM12.4722 6.6123V0.362305L18.5833 6.6123H12.4722ZM27.75 18.3311C27.75 22.2129 24.6706 25.3623 20.875 25.3623C17.0794 25.3623 14 22.2129 14 18.3311C14 14.4492 17.0794 11.2998 20.875 11.2998C24.6706 11.2998 27.75 14.4492 27.75 18.3311ZM23.0091 16.2168L20.1111 19.1807L18.7409 17.7793C18.4449 17.4717 17.9579 17.4717 17.6619 17.7793C17.3611 18.082 17.3611 18.5801 17.6619 18.8828L19.5716 20.8359C19.8676 21.1436 20.3546 21.1436 20.6506 20.8359L24.0881 17.3203C24.3889 17.0176 24.3889 16.5195 24.0881 16.2168C23.7921 15.9092 23.3051 15.9092 23.0091 16.2168Z" fill="#007BFF"/>
</g>
<defs>
<clipPath id="clip0_429_3582">
<rect width="27.5" height="25" fill="white" transform="translate(0.25 0.362305)"/>
</clipPath>
</defs>
</svg>
