<svg width="75" height="66" viewBox="0 0 75 66" fill="none" xmlns="http://www.w3.org/2000/svg">
<path fill-rule="evenodd" clip-rule="evenodd" d="M47.3136 19.1847L65.798 0.700335C65.7176 0.690958 65.6373 0.679108 65.5565 0.667194L65.5564 0.667185C65.3747 0.640391 65.1908 0.613281 65 0.613281H52.5136L33.9422 19.1847H47.3136ZM24.0993 19.1847L42.6708 0.613281H29.2935L10.7221 19.1847H24.0993ZM72.2109 4.12299L57.1507 19.1847H74.2857V9.899C74.2857 7.70379 73.4877 5.71317 72.2109 4.12299ZM19.4565 0.613281H9.28571C4.15681 0.613281 0 4.77009 0 9.899V19.1847H0.879531L19.4565 0.613281ZM0 56.3276C0 61.4565 4.15681 65.6133 9.28571 65.6133H65C70.1289 65.6133 74.2857 61.4565 74.2857 56.3276V23.8276H0V56.3276ZM22.815 59.6127H20.855V51.8567H22.815V59.6127ZM23.053 49.7847C23.053 50.4287 22.535 50.9327 21.849 50.9327C21.149 50.9327 20.645 50.4287 20.645 49.7847C20.645 49.1407 21.149 48.6367 21.849 48.6367C22.535 48.6367 23.053 49.1407 23.053 49.7847ZM9.63286 54.7127C9.63286 51.7867 11.7889 49.7147 14.6169 49.7147C16.8009 49.7147 18.5369 50.8207 19.1669 52.7807H16.9129C16.4649 51.9547 15.6529 51.5207 14.6169 51.5207C12.8669 51.5207 11.6489 52.7667 11.6489 54.7127C11.6489 56.7007 12.8809 57.9327 14.7009 57.9327C16.2129 57.9327 17.1789 57.0647 17.4729 55.6787H14.1129V54.1807H19.4049V55.8887C19.0129 57.8767 17.2349 59.6967 14.6309 59.6967C11.7889 59.6967 9.63286 57.6387 9.63286 54.7127ZM30.7714 57.4007C30.7386 55.736 29.2503 55.349 28.0229 55.0299C27.1549 54.8042 26.4174 54.6124 26.4174 54.0267C26.4174 53.5787 26.7954 53.2847 27.5234 53.2847C28.2934 53.2847 28.7694 53.6907 28.8254 54.2927H30.7014C30.5894 52.7527 29.4554 51.7307 27.5794 51.7307C25.6614 51.7307 24.5134 52.7667 24.5134 54.0547C24.5134 55.7281 26.0327 56.1104 27.282 56.4248C28.1545 56.6444 28.8954 56.8308 28.8954 57.4007C28.8954 57.8487 28.4754 58.1987 27.7054 58.1987C26.9214 58.1987 26.3754 57.7507 26.3054 57.1627H24.3314C24.4154 58.6047 25.7734 59.7387 27.7194 59.7387C29.6094 59.7387 30.7714 58.7307 30.7714 57.4007ZM35.1663 59.6127C33.6823 59.6127 32.6883 58.9827 32.6883 57.2047V53.4667H31.7643V51.8567H32.6883V49.9387H34.6623V51.8567H36.3983V53.4667H34.6623V57.2187C34.6623 57.7367 34.8723 57.9607 35.4883 57.9607H36.3983V59.6127H35.1663ZM45.1301 51.8567H43.1561V56.1267C43.1561 57.3727 42.4841 58.0447 41.4201 58.0447C40.3841 58.0447 39.6981 57.3727 39.6981 56.1267V51.8567H37.7381V56.4067C37.7381 58.5347 39.0401 59.7107 40.8461 59.7107C41.8121 59.7107 42.6661 59.2907 43.1561 58.6327V59.6127H45.1301V51.8567ZM49.0239 49.2527V52.9907C49.4999 52.2767 50.4099 51.7307 51.5859 51.7307C53.5739 51.7307 55.1279 53.2847 55.1279 55.7067C55.1279 58.1287 53.5739 59.7387 51.5859 59.7387C50.3679 59.7387 49.4999 59.1787 49.0239 58.5067V59.6127H47.0639V49.2527H49.0239ZM51.0679 58.0167C52.1319 58.0167 53.1259 57.1767 53.1259 55.7067C53.1259 54.2367 52.1319 53.4527 51.0679 53.4527C50.0179 53.4527 49.0239 54.2647 49.0239 55.7347C49.0239 57.2047 50.0179 58.0167 51.0679 58.0167ZM59.8842 53.3407C60.8922 53.3407 61.7042 53.9847 61.7322 55.0067H58.0502C58.2042 53.9427 58.9462 53.3407 59.8842 53.3407ZM63.5662 57.1767H61.4522C61.2002 57.6947 60.7382 58.1147 59.8982 58.1147C58.9182 58.1147 58.1342 57.4707 58.0362 56.3227H63.7062C63.7482 56.0707 63.7622 55.8187 63.7622 55.5667C63.7622 53.2567 62.1802 51.7307 59.9402 51.7307C57.6442 51.7307 56.0482 53.2847 56.0482 55.7347C56.0482 58.1707 57.6862 59.7387 59.9402 59.7387C61.8582 59.7387 63.1462 58.6047 63.5662 57.1767ZM23.8789 36.6995C23.8789 36.1112 23.5724 35.5652 23.0686 35.2552L12.9242 29.0566C12.4022 28.7378 11.7487 28.7255 11.2154 29.0246C10.6819 29.324 10.3516 29.888 10.3516 30.4995V42.8995C10.3516 43.5125 10.6819 44.0761 11.2154 44.3756C11.7487 44.675 12.4022 44.6609 12.9242 44.3122L23.0686 38.1122C23.5724 37.8339 23.8789 37.2878 23.8789 36.6995Z" fill="white"/>
</svg>
