<svg width="75" height="65" viewBox="0 0 75 65" fill="none" xmlns="http://www.w3.org/2000/svg">
<path fill-rule="evenodd" clip-rule="evenodd" d="M47.3136 18.5714L65.798 0.0870534C65.7176 0.0776765 65.6373 0.0658263 65.5565 0.0539131L65.5564 0.0539041C65.3747 0.0271098 65.1908 0 65 0H52.5136L33.9422 18.5714H47.3136ZM24.0993 18.5714L42.6708 0H29.2935L10.7221 18.5714H24.0993ZM72.2109 3.50971L57.1507 18.5714H74.2857V9.28571C74.2857 7.09051 73.4877 5.09989 72.2109 3.50971ZM19.4565 0H9.28571C4.15681 0 0 4.15681 0 9.28571V18.5714H0.879531L19.4565 0ZM0 55.7143C0 60.8432 4.15681 65 9.28571 65H65C70.1289 65 74.2857 60.8432 74.2857 55.7143V23.2143H0V55.7143ZM22.815 58.9994H20.855V51.2434H22.815V58.9994ZM23.053 49.1714C23.053 49.8154 22.535 50.3194 21.849 50.3194C21.149 50.3194 20.645 49.8154 20.645 49.1714C20.645 48.5274 21.149 48.0234 21.849 48.0234C22.535 48.0234 23.053 48.5274 23.053 49.1714ZM9.63286 54.0994C9.63286 51.1734 11.7889 49.1014 14.6169 49.1014C16.8009 49.1014 18.5369 50.2074 19.1669 52.1674H16.9129C16.4649 51.3414 15.6529 50.9074 14.6169 50.9074C12.8669 50.9074 11.6489 52.1534 11.6489 54.0994C11.6489 56.0874 12.8809 57.3194 14.7009 57.3194C16.2129 57.3194 17.1789 56.4514 17.4729 55.0654H14.1129V53.5674H19.4049V55.2754C19.0129 57.2634 17.2349 59.0834 14.6309 59.0834C11.7889 59.0834 9.63286 57.0254 9.63286 54.0994ZM30.7714 56.7874C30.7386 55.1227 29.2503 54.7357 28.0229 54.4166C27.1549 54.1909 26.4174 53.9992 26.4174 53.4134C26.4174 52.9654 26.7954 52.6714 27.5234 52.6714C28.2934 52.6714 28.7694 53.0774 28.8254 53.6794H30.7014C30.5894 52.1394 29.4554 51.1174 27.5794 51.1174C25.6614 51.1174 24.5134 52.1534 24.5134 53.4414C24.5134 55.1148 26.0327 55.4971 27.282 55.8115C28.1545 56.0311 28.8954 56.2175 28.8954 56.7874C28.8954 57.2354 28.4754 57.5854 27.7054 57.5854C26.9214 57.5854 26.3754 57.1374 26.3054 56.5494H24.3314C24.4154 57.9914 25.7734 59.1254 27.7194 59.1254C29.6094 59.1254 30.7714 58.1174 30.7714 56.7874ZM35.1663 58.9994C33.6823 58.9994 32.6883 58.3694 32.6883 56.5914V52.8534H31.7643V51.2434H32.6883V49.3254H34.6623V51.2434H36.3983V52.8534H34.6623V56.6054C34.6623 57.1234 34.8723 57.3474 35.4883 57.3474H36.3983V58.9994H35.1663ZM45.1301 51.2434H43.1561V55.5134C43.1561 56.7594 42.4841 57.4314 41.4201 57.4314C40.3841 57.4314 39.6981 56.7594 39.6981 55.5134V51.2434H37.7381V55.7934C37.7381 57.9214 39.0401 59.0974 40.8461 59.0974C41.8121 59.0974 42.6661 58.6774 43.1561 58.0194V58.9994H45.1301V51.2434ZM49.0239 48.6394V52.3774C49.4999 51.6634 50.4099 51.1174 51.5859 51.1174C53.5739 51.1174 55.1279 52.6714 55.1279 55.0934C55.1279 57.5154 53.5739 59.1254 51.5859 59.1254C50.3679 59.1254 49.4999 58.5654 49.0239 57.8934V58.9994H47.0639V48.6394H49.0239ZM51.0679 57.4034C52.1319 57.4034 53.1259 56.5634 53.1259 55.0934C53.1259 53.6234 52.1319 52.8394 51.0679 52.8394C50.0179 52.8394 49.0239 53.6514 49.0239 55.1214C49.0239 56.5914 50.0179 57.4034 51.0679 57.4034ZM59.8842 52.7274C60.8922 52.7274 61.7042 53.3714 61.7322 54.3934H58.0502C58.2042 53.3294 58.9462 52.7274 59.8842 52.7274ZM63.5662 56.5634H61.4522C61.2002 57.0814 60.7382 57.5014 59.8982 57.5014C58.9182 57.5014 58.1342 56.8574 58.0362 55.7094H63.7062C63.7482 55.4574 63.7622 55.2054 63.7622 54.9534C63.7622 52.6434 62.1802 51.1174 59.9402 51.1174C57.6442 51.1174 56.0482 52.6714 56.0482 55.1214C56.0482 57.5574 57.6862 59.1254 59.9402 59.1254C61.8582 59.1254 63.1462 57.9914 63.5662 56.5634ZM23.8789 36.0863C23.8789 35.498 23.5724 34.9519 23.0686 34.6419L12.9242 28.4433C12.4022 28.1245 11.7487 28.1122 11.2154 28.4113C10.6819 28.7107 10.3516 29.2747 10.3516 29.8863V42.2863C10.3516 42.8992 10.6819 43.4629 11.2154 43.7623C11.7487 44.0617 12.4022 44.0476 12.9242 43.6989L23.0686 37.4989C23.5724 37.2206 23.8789 36.6746 23.8789 36.0863Z" fill="#007BFF"/>
</svg>
