<svg width="141" height="61" viewBox="0 0 141 61" fill="none" xmlns="http://www.w3.org/2000/svg">
<g clip-path="url(#clip0_342_3750)">
<path d="M78.0439 16.4134C78.9853 11.9517 82.2167 9.97815 83.7147 9.54912C77.7861 7.0968 74.8897 10.0379 74.1799 12.0815C48.0086 -14.4443 19.3866 12.6145 21.4504 28.7728L18.1543 31.5741L20.2873 34.1548C28.613 69.2989 65.3218 64.9794 74.9162 47.96V58.8783C76.0785 61.2036 78.787 60.2239 79.0828 58.8783V39.5801H122.138L126.305 32.2786C138.332 31.0281 139.016 27.3247 137.927 24.731C131.741 17.2018 119.84 28.7033 118.985 35.742H33.4357L30.0928 39.5801H74.8338C54.4877 72.8778 27.0332 47.0842 29.6067 35.742H24.6866V33.4711H44.8448C45.9239 32.3896 45.2943 31.1142 44.8448 30.6117H43.0021V19.5497H44.6849C45.4174 18.5896 45.1973 17.6894 44.6849 17.1584H35.9853C35.1695 17.976 35.6453 18.861 35.9853 19.2012H38.1542V30.6117H24.6866V28.7728H29.6067C28.7396 27.569 28.5828 25.5373 28.613 24.6719C36.6361 -0.307305 59.0182 2.256 71.5175 16.4134H78.0439Z" fill="#FFAE00"/>
<path d="M40.6695 17.0089C42.0818 17.0089 43.2267 15.8612 43.2267 14.4455C43.2267 13.0298 42.0818 11.8821 40.6695 11.8821C39.2572 11.8821 38.1123 13.0298 38.1123 14.4455C38.1123 15.8612 39.2572 17.0089 40.6695 17.0089Z" fill="#FFAE00"/>
<path d="M87.4984 42.2843V44.3876H87.3359C87.1398 43.8127 86.8457 43.3754 86.4537 43.0764C86.0614 42.7771 85.6328 42.6275 85.1674 42.6275C84.7226 42.6275 84.3524 42.7536 84.0569 43.006C83.7612 43.2552 83.5521 43.6043 83.429 44.0532C83.3063 44.5019 83.2448 44.9625 83.2448 45.4349C83.2448 46.0069 83.3122 46.5085 83.4468 46.9399C83.5814 47.371 83.7979 47.6878 84.0964 47.8904C84.3978 48.0927 84.7548 48.1939 85.1674 48.1939C85.3108 48.1939 85.4572 48.1792 85.6065 48.1498C85.7586 48.1176 85.9136 48.072 86.0716 48.0135V46.7727C86.0716 46.5379 86.0555 46.3868 86.0234 46.3195C85.9912 46.249 85.924 46.1859 85.8216 46.1302C85.722 46.0745 85.6006 46.0465 85.4572 46.0465H85.3034V45.8838H88.1963V46.0465C87.9768 46.0612 87.8232 46.092 87.7355 46.139C87.6505 46.1829 87.5845 46.2578 87.5379 46.3633C87.5114 46.4191 87.4984 46.5554 87.4984 46.7727V48.0135C87.118 48.1837 86.7213 48.3113 86.3087 48.3962C85.8989 48.4842 85.4733 48.5283 85.0314 48.5283C84.4664 48.5283 83.9968 48.452 83.6223 48.2995C83.2507 48.1441 82.9213 47.9416 82.6346 47.6924C82.3507 47.44 82.1283 47.1569 81.9675 46.8431C81.7626 46.438 81.6602 45.9848 81.6602 45.4833C81.6602 44.5856 81.9748 43.8272 82.6039 43.2082C83.2332 42.5893 84.0247 42.2798 84.9786 42.2798C85.2744 42.2798 85.5405 42.3033 85.7775 42.3502C85.9062 42.3737 86.1142 42.4413 86.4009 42.5527C86.6907 42.6611 86.8618 42.7154 86.9145 42.7154C86.9964 42.7154 87.0726 42.6863 87.1428 42.6275C87.2131 42.5658 87.2775 42.4515 87.3359 42.2843H87.4984ZM92.0329 46.689H89.9302L89.6799 47.2697C89.598 47.4635 89.5571 47.6233 89.5571 47.7495C89.5571 47.9167 89.6243 48.0398 89.7589 48.119C89.8379 48.1659 90.0326 48.2013 90.3428 48.2248V48.3875H88.3631V48.2248C88.5767 48.1925 88.7523 48.1045 88.8897 47.9606C89.0274 47.814 89.197 47.5133 89.3991 47.0587L91.528 42.2976H91.6113L93.758 47.1905C93.9627 47.6542 94.1311 47.9461 94.2626 48.0663C94.3622 48.1572 94.5028 48.2101 94.6842 48.2248V48.3875H91.8046V48.2248H91.9231C92.1543 48.2248 92.3166 48.1925 92.4102 48.1278C92.4746 48.081 92.5068 48.0135 92.5068 47.9255C92.5068 47.8726 92.498 47.8183 92.4805 47.7625C92.4746 47.7362 92.4308 47.6262 92.349 47.4327L92.0329 46.689ZM91.8836 46.3633L90.9969 44.3084L90.0837 46.3633H91.8836ZM97.1775 45.668V47.3402C97.1775 47.6629 97.1964 47.8669 97.2345 47.9518C97.2754 48.0341 97.3457 48.1 97.4453 48.1498C97.5447 48.1999 97.7306 48.2248 98.0027 48.2248V48.3875H94.9563V48.2248C95.2314 48.2248 95.4171 48.1999 95.5137 48.1498C95.6133 48.0972 95.6821 48.0296 95.7202 47.9475C95.7611 47.8652 95.7815 47.6629 95.7815 47.3402V43.4679C95.7815 43.1452 95.7611 42.9429 95.7202 42.8608C95.6821 42.7757 95.6133 42.7081 95.5137 42.6583C95.4143 42.6085 95.2283 42.5836 94.9563 42.5836V42.4207H97.7216C98.4415 42.4207 98.9684 42.4705 99.302 42.5703C99.6355 42.6699 99.9078 42.8549 100.118 43.1248C100.329 43.3916 100.434 43.7056 100.434 44.0665C100.434 44.5064 100.276 44.8702 99.9604 45.1576C99.7586 45.3395 99.4761 45.4759 99.1132 45.567L100.544 47.5866C100.732 47.8477 100.865 48.0106 100.944 48.0751C101.064 48.1659 101.203 48.216 101.361 48.2248V48.3875H99.4863L97.5681 45.668H97.1775ZM97.1775 42.742V45.3557H97.4276C97.8345 45.3557 98.1387 45.3189 98.3408 45.2456C98.5426 45.1695 98.7006 45.0346 98.8149 44.8408C98.9317 44.6442 98.9904 44.389 98.9904 44.0753C98.9904 43.6204 98.8835 43.2846 98.6698 43.0676C98.4593 42.8504 98.1184 42.742 97.6471 42.742H97.1775ZM105.57 46.3546L107.186 42.4207H109.609V42.5836H109.416C109.24 42.5836 109.1 42.6142 108.994 42.6758C108.921 42.7169 108.863 42.7859 108.819 42.8826C108.787 42.9531 108.771 43.1364 108.771 43.4328V47.3667C108.771 47.6717 108.787 47.8624 108.819 47.9388C108.851 48.0149 108.917 48.0825 109.016 48.141C109.116 48.1968 109.249 48.2248 109.416 48.2248H109.609V48.3875H106.501V48.2248H106.694C106.87 48.2248 107.01 48.1939 107.115 48.1323C107.189 48.0912 107.247 48.0208 107.291 47.921C107.323 47.8508 107.339 47.6658 107.339 47.3667V42.9443L105.057 48.3875H104.951L102.634 42.9839V47.1863C102.634 47.4796 102.641 47.6599 102.656 47.7275C102.694 47.874 102.776 47.9945 102.901 48.0882C103.03 48.1792 103.231 48.2248 103.503 48.2248V48.3875H101.466V48.2248H101.527C101.659 48.2276 101.782 48.207 101.896 48.1631C102.01 48.1161 102.097 48.0545 102.155 47.9784C102.214 47.902 102.259 47.795 102.291 47.657C102.297 47.6248 102.3 47.4751 102.3 47.2083V43.4328C102.3 43.1307 102.284 42.9429 102.252 42.8696C102.22 42.7932 102.154 42.7273 102.054 42.6716C101.955 42.6127 101.822 42.5836 101.655 42.5836H101.466V42.4207H103.898L105.57 46.3546ZM112.225 42.7638V45.193H112.344C112.721 45.193 112.995 45.0742 113.164 44.8365C113.334 44.5989 113.442 44.2482 113.489 43.7848H113.656V46.909H113.489C113.454 46.5687 113.38 46.2901 113.265 46.0728C113.154 45.8558 113.024 45.7107 112.875 45.6374C112.725 45.561 112.509 45.5229 112.225 45.5229V47.2038C112.225 47.5323 112.238 47.7334 112.265 47.8067C112.294 47.8799 112.346 47.9402 112.423 47.9871C112.499 48.0341 112.622 48.0576 112.791 48.0576H113.147C113.703 48.0576 114.148 47.9283 114.481 47.6703C114.818 47.412 115.059 47.0191 115.206 46.4909H115.368L115.1 48.3875H109.956V48.2248H110.153C110.326 48.2248 110.465 48.1939 110.57 48.1323C110.646 48.0912 110.705 48.0208 110.746 47.921C110.778 47.8508 110.794 47.6658 110.794 47.3667V43.4416C110.794 43.1717 110.787 43.0059 110.772 42.9443C110.743 42.8416 110.689 42.7624 110.61 42.7067C110.498 42.6246 110.346 42.5836 110.153 42.5836H109.956V42.4207H114.938V44.1851H114.771C114.686 43.7539 114.566 43.4444 114.411 43.2566C114.259 43.069 114.042 42.931 113.761 42.843C113.598 42.7904 113.29 42.7638 112.84 42.7638H112.225ZM118.011 42.4207L120.947 46.1214V43.5559C120.947 43.198 120.896 42.9561 120.794 42.83C120.653 42.6597 120.417 42.5776 120.087 42.5836V42.4207H122.053V42.5836C121.802 42.6158 121.632 42.6583 121.544 42.7112C121.459 42.761 121.392 42.8444 121.342 42.9618C121.295 43.0764 121.272 43.2744 121.272 43.5559V48.5238H121.123L117.098 43.5559V47.349C117.098 47.6924 117.175 47.9241 117.33 48.0443C117.488 48.1645 117.668 48.2248 117.87 48.2248H118.011V48.3875H115.899V48.2248C116.227 48.2217 116.455 48.1543 116.584 48.0222C116.713 47.8904 116.777 47.6658 116.777 47.349V43.1378L116.65 42.9794C116.524 42.8212 116.413 42.7169 116.316 42.6671C116.22 42.6173 116.081 42.5893 115.899 42.5836V42.4207H118.011Z" fill="#FFAE00"/>
<path d="M128.255 44.0002V35.8518H131.859C132.584 35.8518 133.134 35.9258 133.511 36.074C133.888 36.2187 134.19 36.4762 134.415 36.8467C134.641 37.2173 134.753 37.6267 134.753 38.0751C134.753 38.6531 134.567 39.1404 134.193 39.5369C133.82 39.9335 133.243 40.1853 132.463 40.2928C132.748 40.4301 132.964 40.5652 133.112 40.6985C133.426 40.9876 133.724 41.349 134.005 41.7826L135.419 44.0002H134.066L132.99 42.305C132.676 41.8158 132.417 41.4415 132.214 41.1821C132.011 40.9229 131.827 40.7412 131.665 40.6376C131.506 40.5337 131.343 40.4614 131.177 40.4206C131.055 40.3947 130.855 40.3817 130.578 40.3817H129.331V44.0002H128.255ZM129.331 39.448H131.643C132.134 39.448 132.519 39.398 132.796 39.2979C133.073 39.1943 133.284 39.0311 133.428 38.8089C133.572 38.5826 133.644 38.3381 133.644 38.0751C133.644 37.6898 133.504 37.3729 133.223 37.1246C132.946 36.8763 132.506 36.7523 131.903 36.7523H129.331V39.448Z" fill="#FFAE00"/>
<path d="M2.7598 32.3883V34.217C2.7598 34.5737 2.78083 34.799 2.82287 34.8931C2.86815 34.984 2.94577 35.0568 3.05575 35.112C3.16896 35.1671 3.37433 35.1946 3.67192 35.1946V35.3746H0.329102V35.1946C0.633139 35.1946 0.838528 35.1671 0.945265 35.112C1.05524 35.0537 1.13125 34.979 1.17329 34.8882C1.21858 34.7976 1.24122 34.5737 1.24122 34.217V29.9371C1.24122 29.5804 1.21858 29.3568 1.17329 29.266C1.13125 29.172 1.05524 29.0973 0.945265 29.0423C0.835294 28.9873 0.629905 28.9595 0.329102 28.9595V28.7798H3.19645C4.14091 28.7798 4.81851 28.9482 5.22931 29.2854C5.64008 29.6226 5.84547 30.0443 5.84547 30.5499C5.84547 30.978 5.71285 31.3444 5.44762 31.6491C5.18239 31.9539 4.81691 32.1614 4.35116 32.2716C4.03741 32.3494 3.50695 32.3883 2.7598 32.3883ZM2.7598 29.159V32.0091C2.86654 32.0155 2.9474 32.0188 3.00238 32.0188C3.39699 32.0188 3.70102 31.9022 3.91451 31.6686C4.12797 31.4319 4.23471 31.0671 4.23471 30.5743C4.23471 30.0846 4.12797 29.7265 3.91451 29.4995C3.70102 29.2726 3.38242 29.159 2.95871 29.159H2.7598ZM6.48104 33.8767C6.70744 33.8767 6.89829 33.9562 7.05353 34.115C7.21201 34.2739 7.29127 34.4651 7.29127 34.689C7.29127 34.9126 7.21201 35.104 7.05353 35.2626C6.89505 35.4184 6.7042 35.4962 6.48104 35.4962C6.25785 35.4962 6.06703 35.4184 5.90854 35.2626C5.75328 35.104 5.67566 34.9126 5.67566 34.689C5.67566 34.4651 5.75328 34.2739 5.90854 34.115C6.06703 33.9562 6.25785 33.8767 6.48104 33.8767ZM13.9914 28.7798V30.5646H13.8168C13.7133 30.1529 13.5984 29.8577 13.4723 29.6793C13.3462 29.4979 13.1731 29.3535 12.9532 29.2465C12.8303 29.1882 12.6152 29.159 12.3079 29.159H11.8179V34.2462C11.8179 34.5834 11.8357 34.7943 11.8713 34.8784C11.9101 34.9629 11.9828 35.0373 12.0896 35.1023C12.1996 35.1637 12.3483 35.1946 12.5359 35.1946H12.7543V35.3746H9.30956V35.1946H9.52789C9.71871 35.1946 9.87235 35.1607 9.98879 35.0926C10.0729 35.0471 10.1392 34.9693 10.1877 34.859C10.2233 34.7812 10.2411 34.577 10.2411 34.2462V29.159H9.76563C9.3225 29.159 9.00068 29.2531 8.80013 29.4412C8.51875 29.7037 8.34084 30.0782 8.26646 30.5646H8.0821V28.7798H13.9914ZM14.855 33.8767C15.0814 33.8767 15.2723 33.9562 15.4275 34.115C15.586 34.2739 15.6653 34.4651 15.6653 34.689C15.6653 34.9126 15.586 35.104 15.4275 35.2626C15.2691 35.4184 15.0782 35.4962 14.855 35.4962C14.6319 35.4962 14.441 35.4184 14.2825 35.2626C14.1273 35.104 14.0497 34.9126 14.0497 34.689C14.0497 34.4651 14.1273 34.2739 14.2825 34.115C14.441 33.9562 14.6319 33.8767 14.855 33.8767Z" fill="#FFAE00"/>
<path d="M58.8602 17.2939L58.9936 22.7897H58.4963C58.2619 21.4117 57.6837 20.3053 56.7618 19.4704C55.8481 18.6273 54.8575 18.2059 53.7901 18.2059C52.9654 18.2059 52.3103 18.4288 51.8251 18.8746C51.3482 19.3123 51.1097 19.8189 51.1097 20.3944C51.1097 20.7592 51.1944 21.0834 51.3643 21.3671C51.5987 21.7481 51.9749 22.125 52.4923 22.4979C52.8724 22.7654 53.7497 23.2396 55.1244 23.9205C57.049 24.8688 58.3466 25.7645 59.0178 26.6076C59.6809 27.4507 60.0123 28.4152 60.0123 29.5014C60.0123 30.8795 59.4746 32.0669 58.3993 33.0639C57.3319 34.0528 55.9735 34.5473 54.3238 34.5473C53.8064 34.5473 53.3172 34.4946 52.8561 34.3891C52.3953 34.2838 51.8171 34.0853 51.1218 33.7934C50.7335 33.6314 50.4142 33.5503 50.1636 33.5503C49.9533 33.5503 49.7309 33.6314 49.4965 33.7934C49.262 33.9556 49.0718 34.2027 48.9263 34.5352H48.4775V28.3099H48.9263C49.2821 30.0606 49.9654 31.3981 50.9763 32.3223C51.995 33.2382 53.0908 33.6961 54.2633 33.6961C55.1689 33.6961 55.8886 33.4488 56.4223 32.9546C56.964 32.4601 57.2349 31.8845 57.2349 31.2278C57.2349 30.8389 57.1296 30.4618 56.9196 30.0971C56.7173 29.7323 56.4059 29.3878 55.9855 29.0636C55.5652 28.7313 54.8211 28.3016 53.7537 27.7749C52.2578 27.0371 51.1823 26.4089 50.5275 25.8902C49.8724 25.3713 49.3671 24.792 49.0113 24.1515C48.6635 23.5111 48.4896 22.8059 48.4896 22.0359C48.4896 20.7227 48.9708 19.6041 49.933 18.68C50.8954 17.756 52.1083 17.2939 53.5718 17.2939C54.1055 17.2939 54.6231 17.3588 55.1244 17.4885C55.5044 17.5857 55.9652 17.7681 56.5072 18.0356C57.057 18.295 57.441 18.4247 57.6593 18.4247C57.8697 18.4247 58.0353 18.3599 58.1566 18.2302C58.278 18.1005 58.3911 17.7884 58.4963 17.2939H58.8602ZM76.6901 17.6709V22.1331H76.2533C75.9948 21.1037 75.7076 20.3661 75.3922 19.9202C75.0768 19.4663 74.6444 19.1056 74.0943 18.8381C73.7873 18.6922 73.2495 18.6192 72.4814 18.6192H71.2561V31.3374C71.2561 32.1803 71.3006 32.7072 71.3896 32.918C71.4866 33.1286 71.6685 33.3153 71.9353 33.4772C72.2102 33.6314 72.5824 33.7082 73.0513 33.7082H73.5971V34.1581H64.9854V33.7082H65.5312C66.0084 33.7082 66.3923 33.6231 66.6836 33.4531C66.8936 33.3395 67.0595 33.145 67.1809 32.8694C67.2698 32.6747 67.3143 32.1641 67.3143 31.3374V18.6192H66.1255C65.0178 18.6192 64.2132 18.8543 63.7119 19.3245C63.0083 19.981 62.5636 20.9173 62.3776 22.1331H61.9168V17.6709H76.6901ZM84.3556 18.6192V25.331H84.6833C85.7264 25.331 86.4825 25.0025 86.9514 24.346C87.4203 23.6894 87.7195 22.7208 87.8489 21.4401H88.3098V30.0729H87.8489C87.7519 29.1326 87.5456 28.3625 87.2303 27.7625C86.923 27.1628 86.5631 26.7615 86.1508 26.559C85.7384 26.3482 85.1401 26.2429 84.3556 26.2429V30.8875C84.3556 31.7954 84.3921 32.3505 84.4649 32.5533C84.5458 32.7558 84.6913 32.9221 84.9017 33.0518C85.1117 33.1815 85.4515 33.2463 85.9204 33.2463H86.9029C88.4392 33.2463 89.6682 32.8896 90.5902 32.1762C91.5201 31.4629 92.187 30.3767 92.5914 28.9177H93.0401L92.3004 34.1581H78.0849V33.7082H78.6307C79.1079 33.7082 79.4919 33.6231 79.7831 33.4531C79.9932 33.3395 80.155 33.145 80.2683 32.8694C80.3573 32.6747 80.4017 32.1641 80.4017 31.3374V20.4917C80.4017 19.746 80.3814 19.288 80.3409 19.1178C80.26 18.834 80.1105 18.6152 79.8921 18.4612C79.5848 18.2342 79.1644 18.1207 78.6307 18.1207H78.0849V17.6709H91.8516V22.5465H91.3907C91.156 21.355 90.8246 20.4998 90.3962 19.981C89.9755 19.4622 89.3772 19.0813 88.601 18.8381C88.1482 18.6922 87.2991 18.6192 86.0538 18.6192H84.3556ZM104.648 24.4919L109.184 31.2402C109.936 32.3586 110.47 33.0395 110.785 33.2828C111.109 33.5178 111.489 33.6596 111.925 33.7082V34.1581H103.908V33.7082C104.547 33.6596 104.959 33.5624 105.145 33.4165C105.331 33.2707 105.424 33.0923 105.424 32.8815C105.424 32.7357 105.396 32.6059 105.339 32.4923C105.226 32.2493 104.943 31.7954 104.49 31.1306L102.089 27.5681L99.578 30.6442C98.8259 31.5765 98.45 32.2087 98.45 32.541C98.45 32.7762 98.5469 32.9949 98.7409 33.1976C98.9349 33.4002 99.2221 33.5463 99.6021 33.6354C99.7719 33.684 100.12 33.7082 100.645 33.7082V34.1581H94.3259V33.7082C95.0456 33.6029 95.6117 33.4085 96.0241 33.1246C96.5659 32.7518 97.322 31.9737 98.2922 30.7903L101.555 26.8021L97.3704 20.6376C96.683 19.6244 96.291 19.061 96.1937 18.9475C95.9756 18.68 95.7613 18.4896 95.5509 18.3761C95.3406 18.2626 95.0496 18.1775 94.6777 18.1207V17.6709H102.841V18.1207H102.428C101.959 18.1207 101.632 18.1977 101.446 18.3517C101.26 18.4976 101.167 18.6841 101.167 18.9111C101.167 19.0894 101.195 19.2434 101.252 19.3731L102.089 20.6376L104.126 23.7503L105.861 21.6225C106.75 20.5282 107.195 19.7622 107.195 19.3245C107.195 19.1056 107.13 18.9029 107.001 18.7165C106.88 18.5301 106.702 18.3842 106.467 18.2788C106.233 18.1734 105.869 18.1207 105.376 18.1207V17.6709H111.428V18.1207C110.951 18.1288 110.567 18.1896 110.276 18.3031C109.985 18.4085 109.673 18.6111 109.342 18.9111C109.132 19.1056 108.606 19.7095 107.765 20.7227L104.648 24.4919Z" fill="#FFAE00"/>
<path d="M93.2247 57.8541V58.017H90.1123V57.8541H90.3098C90.4825 57.8541 90.6217 57.8232 90.7269 57.7618C90.8031 57.7205 90.8615 57.6501 90.9025 57.5505C90.9346 57.4801 90.9507 57.2953 90.9507 56.996V53.0709C90.9507 52.7659 90.9346 52.5752 90.9025 52.4989C90.8703 52.4227 90.8045 52.3566 90.7049 52.3008C90.6084 52.2423 90.4766 52.2129 90.3098 52.2129H90.1123V52.0502H93.2247V52.2129H93.0272C92.8545 52.2129 92.7154 52.2437 92.6101 52.3054C92.5339 52.3464 92.4741 52.4168 92.4301 52.5164C92.3979 52.5869 92.3818 52.7718 92.3818 53.0709V56.996C92.3818 57.301 92.3979 57.4919 92.4301 57.568C92.4653 57.6444 92.5311 57.7118 92.6276 57.7706C92.7272 57.8263 92.8604 57.8541 93.0272 57.8541H93.2247ZM95.674 52.0502L98.6106 55.7507V53.1854C98.6106 52.8276 98.5595 52.5854 98.4571 52.4593C98.3166 52.2892 98.0809 52.2069 97.7504 52.2129V52.0502H99.7169V52.2129C99.4651 52.2451 99.2955 52.2876 99.2078 52.3405C99.1228 52.3903 99.0554 52.474 99.0057 52.5914C98.9589 52.7057 98.9355 52.9037 98.9355 53.1854V58.1533H98.7862L94.761 53.1854V56.9785C94.761 57.3216 94.8386 57.5533 94.9936 57.6736C95.1516 57.7941 95.3317 57.8541 95.5335 57.8541H95.674V58.017H93.5626V57.8541C93.8904 57.8512 94.1187 57.7836 94.2474 57.6518C94.3761 57.5197 94.4405 57.2953 94.4405 56.9785V52.7673L94.3132 52.6089C94.1874 52.4505 94.0762 52.3464 93.9796 52.2966C93.8831 52.2465 93.744 52.2188 93.5626 52.2129V52.0502H95.674ZM100.05 58.017V57.8541H100.248C100.421 57.8541 100.552 57.8277 100.643 57.7748C100.737 57.7191 100.806 57.6444 100.849 57.5505C100.876 57.4888 100.889 57.3041 100.889 56.996V53.0709C100.889 52.7659 100.873 52.5752 100.841 52.4989C100.808 52.4227 100.743 52.3566 100.643 52.3008C100.547 52.2423 100.415 52.2129 100.248 52.2129H100.05V52.0502H102.715C103.426 52.0502 103.998 52.1469 104.431 52.3405C104.961 52.5781 105.362 52.9374 105.634 53.4186C105.909 53.8997 106.047 54.4438 106.047 55.0511C106.047 55.4707 105.979 55.8579 105.845 56.2127C105.71 56.5649 105.536 56.8566 105.322 57.0885C105.109 57.3171 104.861 57.5021 104.581 57.643C104.303 57.7808 103.962 57.8877 103.558 57.9641C103.379 57.9992 103.098 58.017 102.715 58.017H100.05ZM102.32 52.3888V57.0444C102.32 57.2908 102.332 57.4419 102.355 57.4976C102.378 57.5533 102.418 57.596 102.473 57.6252C102.552 57.6693 102.667 57.6914 102.816 57.6914C103.305 57.6914 103.678 57.5242 103.935 57.1895C104.286 56.7378 104.462 56.0367 104.462 55.0862C104.462 54.3207 104.342 53.7091 104.102 53.2514C103.912 52.8935 103.667 52.6499 103.369 52.5209C103.158 52.4299 102.809 52.386 102.32 52.3888ZM109.901 51.9665C110.849 51.9314 111.619 52.2086 112.21 52.7982C112.804 53.3877 113.101 54.1255 113.101 55.0115C113.101 55.7683 112.88 56.4342 112.438 57.0093C111.853 57.772 111.026 58.1533 109.958 58.1533C108.887 58.1533 108.059 57.7895 107.473 57.062C107.011 56.4871 106.78 55.805 106.78 55.0158C106.78 54.13 107.08 53.3922 107.68 52.8024C108.282 52.21 109.023 51.9314 109.901 51.9665ZM109.954 52.2482C109.409 52.2482 108.995 52.5269 108.711 53.0842C108.48 53.5419 108.364 54.1988 108.364 55.0554C108.364 56.0735 108.543 56.826 108.9 57.3129C109.149 57.6532 109.497 57.8232 109.945 57.8232C110.246 57.8232 110.498 57.7499 110.7 57.6034C110.957 57.4156 111.158 57.1163 111.301 56.7055C111.444 56.2919 111.516 55.7536 111.516 55.0907C111.516 54.3015 111.443 53.7119 111.297 53.3218C111.15 52.9286 110.963 52.6514 110.735 52.4901C110.51 52.3288 110.249 52.2482 109.954 52.2482ZM115.664 52.0502L118.601 55.7507V53.1854C118.601 52.8276 118.55 52.5854 118.447 52.4593C118.307 52.2892 118.071 52.2069 117.741 52.2129V52.0502H119.707V52.2129C119.455 52.2451 119.286 52.2876 119.198 52.3405C119.113 52.3903 119.046 52.474 118.996 52.5914C118.949 52.7057 118.926 52.9037 118.926 53.1854V58.1533H118.776L114.751 53.1854V56.9785C114.751 57.3216 114.829 57.5533 114.984 57.6736C115.142 57.7941 115.322 57.8541 115.524 57.8541H115.664V58.017H113.553V57.8541C113.881 57.8512 114.109 57.7836 114.238 57.6518C114.366 57.5197 114.431 57.2953 114.431 56.9785V52.7673L114.304 52.6089C114.178 52.4505 114.066 52.3464 113.97 52.2966C113.873 52.2465 113.734 52.2188 113.553 52.2129V52.0502H115.664ZM122.372 52.3933V54.8223H122.49C122.868 54.8223 123.141 54.7035 123.311 54.4658C123.481 54.2282 123.589 53.8777 123.636 53.4141H123.803V56.5383H123.636C123.601 56.198 123.526 55.9194 123.412 55.7024C123.301 55.4854 123.171 55.34 123.021 55.2667C122.872 55.1903 122.656 55.1524 122.372 55.1524V56.8331C122.372 57.1618 122.385 57.3627 122.411 57.436C122.44 57.5095 122.493 57.5695 122.569 57.6164C122.645 57.6634 122.768 57.6869 122.938 57.6869H123.293C123.85 57.6869 124.294 57.5578 124.628 57.2996C124.964 57.0416 125.206 56.6484 125.352 56.1205H125.515L125.247 58.017H120.102V57.8541H120.3C120.473 57.8541 120.611 57.8232 120.717 57.7618C120.793 57.7205 120.852 57.6501 120.892 57.5505C120.925 57.4801 120.941 57.2953 120.941 56.996V53.0709C120.941 52.801 120.933 52.6352 120.919 52.5738C120.889 52.4711 120.835 52.3919 120.756 52.3362C120.645 52.2539 120.493 52.2129 120.3 52.2129H120.102V52.0502H125.085V53.8146H124.918C124.833 53.3835 124.713 53.074 124.558 52.8861C124.406 52.6983 124.189 52.5605 123.908 52.4725C123.744 52.4197 123.437 52.3933 122.986 52.3933H122.372ZM130.141 51.9136L130.19 53.9026H130.01C129.925 53.4039 129.716 53.0035 129.382 52.7014C129.051 52.3962 128.693 52.2437 128.307 52.2437C128.008 52.2437 127.771 52.3243 127.595 52.4856C127.423 52.644 127.336 52.8276 127.336 53.0358C127.336 53.1676 127.367 53.285 127.429 53.3877C127.514 53.5257 127.65 53.6621 127.837 53.7971C127.974 53.8938 128.292 54.0655 128.789 54.3119C129.486 54.6551 129.955 54.9793 130.198 55.2843C130.438 55.5895 130.558 55.9386 130.558 56.3315C130.558 56.8303 130.364 57.26 129.975 57.6209C129.588 57.9788 129.097 58.1576 128.5 58.1576C128.312 58.1576 128.135 58.1386 127.968 58.1005C127.802 58.0623 127.592 57.9904 127.341 57.8849C127.2 57.8263 127.085 57.7969 126.994 57.7969C126.918 57.7969 126.837 57.8263 126.752 57.8849C126.668 57.9435 126.599 58.0331 126.546 58.1533H126.384V55.9004H126.546C126.675 56.5341 126.922 57.0181 127.288 57.3525C127.657 57.684 128.053 57.8498 128.478 57.8498C128.805 57.8498 129.066 57.7601 129.259 57.5813C129.455 57.4023 129.553 57.1941 129.553 56.9564C129.553 56.8156 129.515 56.6792 129.439 56.5471C129.366 56.4152 129.253 56.2905 129.101 56.1731C128.949 56.0529 128.68 55.8975 128.293 55.7066C127.752 55.4398 127.363 55.2124 127.126 55.0248C126.889 54.837 126.706 54.6271 126.577 54.3954C126.451 54.1637 126.388 53.9085 126.388 53.6299C126.388 53.1546 126.562 52.7498 126.91 52.4154C127.259 52.0808 127.698 51.9136 128.228 51.9136C128.421 51.9136 128.608 51.9371 128.789 51.984C128.927 52.0193 129.094 52.0853 129.29 52.182C129.489 52.2759 129.628 52.3229 129.707 52.3229C129.783 52.3229 129.843 52.2994 129.887 52.2525C129.931 52.2055 129.972 52.0926 130.01 51.9136H130.141ZM134.215 57.8541V58.017H131.103V57.8541H131.3C131.473 57.8541 131.612 57.8232 131.717 57.7618C131.793 57.7205 131.852 57.6501 131.893 57.5505C131.925 57.4801 131.941 57.2953 131.941 56.996V53.0709C131.941 52.7659 131.925 52.5752 131.893 52.4989C131.861 52.4227 131.795 52.3566 131.695 52.3008C131.599 52.2423 131.467 52.2129 131.3 52.2129H131.103V52.0502H134.215V52.2129H134.017C133.845 52.2129 133.706 52.2437 133.6 52.3054C133.524 52.3464 133.464 52.4168 133.42 52.5164C133.388 52.5869 133.372 52.7718 133.372 53.0709V56.996C133.372 57.301 133.388 57.4919 133.42 57.568C133.455 57.6444 133.521 57.7118 133.618 57.7706C133.717 57.8263 133.85 57.8541 134.017 57.8541H134.215ZM138.166 56.3185H136.063L135.813 56.8993C135.731 57.0928 135.69 57.2526 135.69 57.3788C135.69 57.546 135.757 57.6693 135.892 57.7485C135.971 57.7955 136.165 57.8306 136.476 57.8541V58.017H134.496V57.8541C134.709 57.8218 134.885 57.7338 135.022 57.5901C135.16 57.4433 135.33 57.1426 135.532 56.688L137.661 51.9269H137.744L139.891 56.8201C140.095 57.2835 140.264 57.5754 140.395 57.6956C140.495 57.7867 140.636 57.8394 140.817 57.8541V58.017H137.937V57.8541H138.056C138.287 57.8541 138.449 57.8218 138.543 57.7573C138.607 57.7103 138.64 57.643 138.64 57.5548C138.64 57.5021 138.631 57.4478 138.613 57.3921C138.607 57.3658 138.564 57.2557 138.481 57.062L138.166 56.3185ZM138.016 55.9929L137.13 53.9377L136.216 55.9929H138.016Z" fill="#FFAE00"/>
<mask id="mask0_342_3750" style="mask-type:alpha" maskUnits="userSpaceOnUse" x="123" y="32" width="16" height="16">
<path fill-rule="evenodd" clip-rule="evenodd" d="M131.465 47.5938C135.601 47.5938 138.954 44.2329 138.954 40.087C138.954 35.941 135.601 32.5801 131.465 32.5801C127.329 32.5801 123.977 35.941 123.977 40.087C123.977 44.2329 127.329 47.5938 131.465 47.5938ZM131.465 45.896C134.666 45.896 137.26 43.2952 137.26 40.087C137.26 36.8787 134.666 34.2779 131.465 34.2779C128.265 34.2779 125.67 36.8787 125.67 40.087C125.67 43.2952 128.265 45.896 131.465 45.896Z" fill="white"/>
</mask>
<g mask="url(#mask0_342_3750)">
<path fill-rule="evenodd" clip-rule="evenodd" d="M131.465 47.5938C135.601 47.5938 138.954 44.2329 138.954 40.087C138.954 35.941 135.601 32.5801 131.465 32.5801C127.329 32.5801 123.977 35.941 123.977 40.087C123.977 44.2329 127.329 47.5938 131.465 47.5938ZM131.465 45.896C134.666 45.896 137.26 43.2952 137.26 40.087C137.26 36.8787 134.666 34.2779 131.465 34.2779C128.265 34.2779 125.67 36.8787 125.67 40.087C125.67 43.2952 128.265 45.896 131.465 45.896Z" fill="#FFAE00"/>
<path d="M138.717 40.087C138.717 44.1021 135.471 47.3568 131.465 47.3568V47.8311C135.732 47.8311 139.191 44.3639 139.191 40.087H138.717ZM131.465 32.8173C135.471 32.8173 138.717 36.072 138.717 40.087H139.191C139.191 35.8102 135.732 32.343 131.465 32.343V32.8173ZM124.213 40.087C124.213 36.072 127.46 32.8173 131.465 32.8173V32.343C127.199 32.343 123.74 35.8102 123.74 40.087H124.213ZM131.465 47.3568C127.46 47.3568 124.213 44.1021 124.213 40.087H123.74C123.74 44.3639 127.199 47.8311 131.465 47.8311V47.3568ZM137.024 40.087C137.024 43.1644 134.535 45.659 131.466 45.659V46.1333C134.797 46.1333 137.497 43.4264 137.497 40.087H137.024ZM131.466 34.5151C134.535 34.5151 137.024 37.0097 137.024 40.087H137.497C137.497 36.7479 134.797 34.0408 131.466 34.0408V34.5151ZM125.907 40.087C125.907 37.0097 128.396 34.5151 131.466 34.5151V34.0408C128.135 34.0408 125.434 36.7479 125.434 40.087H125.907ZM131.466 45.659C128.396 45.659 125.907 43.1644 125.907 40.087H125.434C125.434 43.4264 128.135 46.1333 131.466 46.1333V45.659Z" fill="#FFAE00"/>
</g>
</g>
<defs>
<clipPath id="clip0_342_3750">
<rect width="141" height="60" fill="white" transform="translate(0 0.859863)"/>
</clipPath>
</defs>
</svg>
