<svg width="58" height="90" viewBox="0 0 58 90" fill="none" xmlns="http://www.w3.org/2000/svg">
<path d="M18.6057 25.0464C18.6057 28.3859 21.3608 31.141 24.7003 31.141C28.1233 31.141 30.7949 28.3859 30.7949 25.0464C30.7949 21.7069 28.0398 18.9518 24.7003 18.9518C21.2773 18.8683 18.6057 21.6234 18.6057 25.0464ZM0.655762 0H57.3441V67.2078H43.9025L43.1511 56.5213C42.8172 51.9295 41.8988 49.9258 40.8969 47.5046L37.4739 39.7403H43.652L48.4944 47.6716C48.9953 48.59 49.9971 49.2579 51.0825 49.2579C52.6687 49.2579 54.0046 47.9221 54.0046 46.3358C54.0046 45.8349 53.8376 45.4174 53.6706 45C52.6687 43.0798 49.9971 38.321 48.6613 35.9833C47.3255 33.6456 44.8209 32.9777 41.8153 32.9777H28.5407C24.8673 32.9777 22.3626 35.3154 21.1103 37.2356C19.858 39.0724 15.6836 45.2505 15.6836 45.2505H6.75038C4.99714 45.2505 3.66133 46.5863 3.66133 48.3395C3.66133 50.0093 4.99714 51.4286 6.75038 51.4286H16.9359C18.5222 51.4286 19.3571 51.0946 20.2754 49.6753C21.2773 48.256 24.4498 43.9147 24.4498 43.9147L28.9582 54.1837L16.9359 81.3172C16.7689 81.6512 16.7689 82.0686 16.7689 82.4861C16.7689 84.4063 18.2717 85.9091 20.1919 85.9091C21.4443 85.9091 22.6131 85.1577 23.1975 84.1558L35.5537 58.2746L36.5556 69.7959C36.806 72.4675 38.4758 73.9703 40.9804 73.9703H57.3441V90H0.655762V0Z" fill="white"/>
</svg>
