<svg width="23" height="31" viewBox="0 0 23 31" fill="none" xmlns="http://www.w3.org/2000/svg">
<g clip-path="url(#clip0_7949_13772)">
<path d="M3.75 0.898193C1.68164 0.898193 0 2.57983 0 4.64819V27.1482C0 29.2166 1.68164 30.8982 3.75 30.8982H18.75C20.8184 30.8982 22.5 29.2166 22.5 27.1482V10.2732H15C13.9629 10.2732 13.125 9.4353 13.125 8.39819V0.898193H3.75ZM15 0.898193V8.39819H22.5L15 0.898193ZM3.75 14.0232H5.15625C6.9668 14.0232 8.4375 15.4939 8.4375 17.3044C8.4375 19.115 6.9668 20.5857 5.15625 20.5857H4.6875V22.4607C4.6875 22.9763 4.26562 23.3982 3.75 23.3982C3.23438 23.3982 2.8125 22.9763 2.8125 22.4607V19.6482V14.9607C2.8125 14.4451 3.23438 14.0232 3.75 14.0232ZM5.15625 18.7107C5.93555 18.7107 6.5625 18.0837 6.5625 17.3044C6.5625 16.5251 5.93555 15.8982 5.15625 15.8982H4.6875V18.7107H5.15625ZM9.375 14.9607C9.375 14.4451 9.79688 14.0232 10.3125 14.0232H11.7188C13.2715 14.0232 14.5312 15.283 14.5312 16.8357V20.5857C14.5312 22.1384 13.2715 23.3982 11.7188 23.3982H10.3125C9.79688 23.3982 9.375 22.9763 9.375 22.4607V14.9607ZM11.25 21.5232H11.7188C12.2344 21.5232 12.6562 21.1013 12.6562 20.5857V16.8357C12.6562 16.3201 12.2344 15.8982 11.7188 15.8982H11.25V21.5232ZM16.875 14.0232H19.6875C20.2031 14.0232 20.625 14.4451 20.625 14.9607C20.625 15.4763 20.2031 15.8982 19.6875 15.8982H17.8125V17.7732H19.6875C20.2031 17.7732 20.625 18.1951 20.625 18.7107C20.625 19.2263 20.2031 19.6482 19.6875 19.6482H17.8125V22.4607C17.8125 22.9763 17.3906 23.3982 16.875 23.3982C16.3594 23.3982 15.9375 22.9763 15.9375 22.4607V18.7107V14.9607C15.9375 14.4451 16.3594 14.0232 16.875 14.0232Z" fill="#FB5B5B"/>
</g>
<defs>
<clipPath id="clip0_7949_13772">
<rect width="22.5" height="30" fill="white" transform="translate(0 0.898193)"/>
</clipPath>
</defs>
</svg>
