<svg width="125" height="90" viewBox="0 0 125 90" fill="none" xmlns="http://www.w3.org/2000/svg">
<path d="M118.655 0.44109L63.2971 13.0863C59.2876 14.002 57.8436 19.0884 60.7483 22.0626L70.7578 32.3124L57.2906 46.1029L24.5157 12.5418C22.4818 10.4591 19.1841 10.4591 17.1502 12.5418L1.52556 28.5415C-0.533723 30.6499 -0.504426 34.0779 1.5905 36.1493L53.6728 87.6467C55.7164 89.6674 58.9644 89.6384 60.9734 87.5812L92.8523 54.9372L105.419 67.8056C108.381 70.8383 113.449 69.2326 114.221 65.0169L124.908 6.62896C125.597 2.86604 122.304 -0.392392 118.655 0.44109ZM105.802 53.1132L96.535 43.6239C94.5012 41.5412 91.2034 41.5412 89.1695 43.6239L57.2266 76.3332L12.6391 32.2459L20.8332 23.8551L53.6078 57.4164C55.6417 59.4991 58.9395 59.4991 60.9734 57.4164L81.8061 36.0836C83.84 34.0009 83.84 30.6239 81.8061 28.5412L74.8161 21.3834L113.215 12.6121L105.802 53.1132Z" fill="#A6ADB5"/>
</svg>
