<svg width="100" height="90" viewBox="0 0 100 90" fill="none" xmlns="http://www.w3.org/2000/svg">
<path d="M30 45H40V65H30V45ZM30 70H40V80H30V70ZM45 55H55V75H45V55ZM45 80H55V90H45V80ZM60 45H70V65H60V45ZM60 70H70V80H60V70Z" fill="white"/>
<path d="M84.72 30.56C82.535 13.35 67.8 0 50 0C36.22 0 24.25 8.055 18.785 20.75C8.045 23.96 0 34.095 0 45C0 58.785 11.215 70 25 70V60C16.73 60 10 53.27 10 45C10 37.985 15.995 31.22 23.365 29.925L26.27 29.41L27.23 26.615C30.745 16.365 39.475 10 50 10C63.785 10 75 21.215 75 35V40H80C85.515 40 90 44.485 90 50C90 55.515 85.515 60 80 60H75V70H80C91.03 70 100 61.03 100 50C100 40.595 93.475 32.69 84.72 30.56Z" fill="white"/>
</svg>
