<svg width="36" height="90" viewBox="0 0 36 90" fill="none" xmlns="http://www.w3.org/2000/svg">
<path d="M2.125 30.5C2.125 24.3333 7.125 19.3333 13.2917 19.3333H19.5417C25.7083 19.3333 30.7083 24.3333 30.7083 30.5V84.9167H2.125V30.5ZM7.625 37.1667V67H25.125V37.1667H7.625ZM16.375 48.4167C16.375 48.4167 12.375 51.8333 12.375 55.8333C12.375 57.5833 13.4583 59.0833 15.0417 59.6667C14.5417 59.25 14.125 58.5833 14.125 57.8333C14.125 55.5833 16.375 53.6667 16.375 53.6667C16.375 53.6667 18.7083 55.5833 18.7083 57.8333C18.7083 58.5833 18.375 59.25 17.7917 59.6667C19.375 59.0833 20.4583 57.5833 20.4583 55.8333C20.4583 51.9167 16.375 48.4167 16.375 48.4167ZM16.375 42.9167C16.375 42.9167 22.9583 48.4167 22.9583 54.75C22.9583 58.3333 20.125 61.3333 16.5417 61.3333C12.9583 61.3333 9.95833 58.4167 9.95833 54.75C9.875 48.4167 16.375 42.9167 16.375 42.9167ZM11.0417 13.75H21.7917V17.3333H11.0417V13.75ZM21.125 4.91667L35.875 0V14.5L21.125 9.58333V4.91667ZM0.125 88C0.125 87.4167 0.624999 86.9167 1.20833 86.9167H31.4583C32.125 86.9167 32.5417 87.4167 32.5417 88V88.9167C32.5417 89.5 32.0417 90 31.4583 90H1.29166C0.708331 90 0.208332 89.5 0.208332 88.9167V88H0.125ZM10.625 4.75C9.54167 4.75 8.625 5.66667 8.625 6.75C8.625 7.83333 9.54167 8.75 10.625 8.75C11.7083 8.75 12.625 7.83333 12.625 6.75C12.625 5.66667 11.7083 4.75 10.625 4.75ZM13.5417 3.5C13.5417 1.91667 14.7917 0.75 16.2917 0.75C17.9583 0.75 19.2083 2 19.2083 3.5V11.75H13.4583V9.41667C12.7083 10.1667 11.7083 10.6667 10.5417 10.6667C8.375 10.6667 6.54167 8.91667 6.54167 6.66667C6.54167 4.5 8.29166 2.66667 10.5417 2.66667C11.7083 2.66667 12.7083 3.16667 13.4583 4V3.5H13.5417Z" fill="white"/>
</svg>
