<svg width="89" height="78" viewBox="0 0 89 78" fill="none" xmlns="http://www.w3.org/2000/svg">
<path d="M85.8514 72.5674H82.2028V15.162C82.2028 11.9998 79.6487 9.56738 76.6082 9.56738H68.2163C65.0541 9.56738 62.6217 12.1214 62.6217 15.162V72.689H54.8379V41.189C54.8379 38.0268 52.2839 35.5944 49.2433 35.5944H40.8514C37.6893 35.5944 35.2568 38.1485 35.2568 41.189V72.689H27.4731V57.8512C27.4731 54.689 24.919 52.2566 21.8785 52.2566H13.4866C10.3244 52.2566 7.89198 54.8106 7.89198 57.8512V72.5674H3.14874C1.8109 72.5674 0.716309 73.662 0.716309 74.9998C0.716309 76.3377 1.8109 77.4323 3.14874 77.4323H85.8514C87.1893 77.4323 88.2839 76.3377 88.2839 74.9998C88.2839 73.662 87.1893 72.5674 85.8514 72.5674ZM67.365 15.162C67.365 14.6755 67.7298 14.4322 68.0947 14.4322H76.4866C76.9731 14.4322 77.2163 14.7971 77.2163 15.162V72.689H67.2433V15.162H67.365ZM40.0001 41.189C40.0001 40.7025 40.365 40.4593 40.7298 40.4593H49.1217C49.6082 40.4593 49.8514 40.8241 49.8514 41.189V72.689H39.8785V41.189H40.0001ZM12.5136 57.8512C12.5136 57.3647 12.8785 57.1214 13.2433 57.1214H21.6352C22.1217 57.1214 22.365 57.4863 22.365 57.8512V72.5674H12.392V57.8512H12.5136Z" fill="white"/>
<path d="M13.6082 42.6485C14.2163 42.6485 14.8244 42.4053 15.3109 41.9188L48.392 8.83769V16.2566C48.392 17.5944 49.4866 18.689 50.8244 18.689C52.1623 18.689 53.2569 17.5944 53.2569 16.2566V2.87823C53.2569 1.5404 52.1623 0.445801 50.8244 0.445801H37.4461C36.1082 0.445801 35.0136 1.5404 35.0136 2.87823C35.0136 4.21607 36.1082 5.31067 37.4461 5.31067H44.865L11.9055 38.5134C10.9325 39.4863 10.9325 40.9458 11.9055 41.9188C12.392 42.4053 13.0001 42.6485 13.6082 42.6485Z" fill="white"/>
</svg>
