<svg width="84" height="90" viewBox="0 0 84 90" fill="none" xmlns="http://www.w3.org/2000/svg">
<path d="M80.7897 34.0574H70.3543C69.0997 29.2077 66.6395 24.8457 63.2936 21.3113L68.8532 13.584C69.6384 12.4936 69.3901 10.9732 68.2997 10.1892C67.2081 9.40404 65.69 9.65348 64.9049 10.7427L59.6434 18.0557C55.3702 14.8318 50.2009 12.749 44.5657 12.2783V2.43267C44.5657 1.08924 43.4764 0 42.133 0C40.7896 0 39.7003 1.08924 39.7003 2.43267V12.2774C33.9924 12.7509 28.7557 14.8805 24.4454 18.1791L19.0951 10.7427C18.3087 9.65229 16.7895 9.40047 15.7003 10.1892C14.6098 10.9732 14.3616 12.4936 15.1467 13.584L20.8177 21.4661C17.5423 24.9733 15.1291 29.2771 13.8905 34.0574H3.21026C1.86683 34.0574 0.777588 35.1466 0.777588 36.4901C0.777588 37.8335 1.86683 38.9228 3.21026 38.9228H13.0526C12.9861 39.7241 12.9295 40.5285 12.9295 41.3465V65.8934C13.7224 65.7597 14.5314 65.6738 15.3617 65.6738H68.8805C69.7111 65.6738 70.5205 65.7597 71.3136 65.8936V41.3465C71.3136 40.5285 71.2572 39.7241 71.1908 38.9228H80.7897C82.1331 38.9228 83.2224 37.8335 83.2224 36.4901C83.2224 35.1466 82.1331 34.0574 80.7897 34.0574ZM37.2677 29.1921C33.2433 29.1921 29.9697 32.4657 29.9697 36.4901C29.9697 37.8335 28.8804 38.9228 27.537 38.9228C26.1935 38.9228 25.1043 37.8335 25.1043 36.4901C25.1043 29.7836 30.5612 24.3267 37.2677 24.3267C38.6111 24.3267 39.7003 25.416 39.7003 26.7594C39.7003 28.1028 38.6111 29.1921 37.2677 29.1921Z" fill="white"/>
<path d="M68.8811 70.5391H15.3623C10.0105 70.5391 5.63159 74.9178 5.63159 80.2698C5.63159 85.646 10.0105 90.0004 15.3623 90.0004H68.8811C74.2573 90.0004 78.6117 85.646 78.6117 80.2698C78.6117 74.9178 74.2573 70.5391 68.8811 70.5391Z" fill="white"/>
</svg>
