<svg width="40" height="41" viewBox="0 0 40 41" fill="none" xmlns="http://www.w3.org/2000/svg">
<path d="M0 20.0156C0 8.96993 8.9543 0.015625 20 0.015625V0.015625C31.0457 0.015625 40 8.96993 40 20.0156V20.0156C40 31.0613 31.0457 40.0156 20 40.0156V40.0156C8.9543 40.0156 0 31.0613 0 20.0156V20.0156Z" fill="white"/>
<path d="M12.4268 20.0003C12.4268 24.1825 15.8025 27.5582 19.9847 27.5582C24.1669 27.5582 27.5426 24.1825 27.5426 20.0003C27.5426 15.8181 24.1669 12.4424 19.9847 12.4424C15.8323 12.4424 12.4268 15.8181 12.4268 20.0003ZM4.7793 20.0003C4.7793 11.606 11.5904 4.79492 19.9847 4.79492C28.379 4.79492 35.1901 11.606 35.1901 20.0003C35.1901 28.3946 28.379 35.2057 19.9847 35.2057C11.5904 35.2356 4.7793 28.4245 4.7793 20.0003Z" fill="#007BFF"/>
</svg>
