<svg width="90" height="90" viewBox="0 0 90 90" fill="none" xmlns="http://www.w3.org/2000/svg">
<path d="M0 45C0 20.1472 20.1472 0 45 0C69.8528 0 90 20.1472 90 45C90 69.8528 69.8528 90 45 90C20.1472 90 0 69.8528 0 45Z" fill="white"/>
<path d="M27.9613 44.9665C27.9613 54.3765 35.5565 61.9717 44.9665 61.9717C54.3765 61.9717 61.9717 54.3765 61.9717 44.9665C61.9717 35.5565 54.3765 27.9613 44.9665 27.9613C35.6237 27.9613 27.9613 35.5565 27.9613 44.9665ZM10.7544 44.9665C10.7544 26.0793 26.0793 10.7544 44.9665 10.7544C63.8537 10.7544 79.1786 26.0793 79.1786 44.9665C79.1786 63.8537 63.8537 79.1786 44.9665 79.1786C26.0793 79.2458 10.7544 63.9209 10.7544 44.9665Z" fill="#F8B82E"/>
</svg>
