<svg width="8" height="21" viewBox="0 0 8 21" fill="none" xmlns="http://www.w3.org/2000/svg">
<path d="M1.11914 16.6735H1.90039V11.0306H1.11914C0.687656 11.0306 0.337891 10.6808 0.337891 10.2494V8.3833C0.337891 7.95182 0.687656 7.60205 1.11914 7.60205H5.49414C5.92562 7.60205 6.27539 7.95182 6.27539 8.3833V16.6735H7.05664C7.48812 16.6735 7.83789 17.0233 7.83789 17.4547V19.3208C7.83789 19.7523 7.48812 20.1021 7.05664 20.1021H1.11914C0.687656 20.1021 0.337891 19.7523 0.337891 19.3208V17.4547C0.337891 17.0233 0.687656 16.6735 1.11914 16.6735ZM4.08789 0.102051C2.53457 0.102051 1.27539 1.36123 1.27539 2.91455C1.27539 4.46787 2.53457 5.72705 4.08789 5.72705C5.64121 5.72705 6.90039 4.46787 6.90039 2.91455C6.90039 1.36123 5.64117 0.102051 4.08789 0.102051Z" fill="white"/>
</svg>
