<svg width="126" height="126" viewBox="0 0 126 126" fill="none" xmlns="http://www.w3.org/2000/svg">
<g clip-path="url(#clip0_1022_4009)">
<path d="M34.2768 8.9735C34.0047 8.70038 33.6813 8.48367 33.3251 8.3358C32.969 8.18793 32.5872 8.11182 32.2017 8.11182C31.8161 8.11182 31.4343 8.18793 31.0782 8.3358C30.7221 8.48367 30.3986 8.70038 30.1265 8.9735L14.5796 24.43L9.03759 19.0297C8.76541 18.7565 8.44199 18.5398 8.08589 18.392C7.72978 18.2441 7.34798 18.168 6.96239 18.168C6.57681 18.168 6.19501 18.2441 5.8389 18.392C5.48279 18.5398 5.15938 18.7565 4.8872 19.0297L1.05419 22.8675C0.781065 23.1397 0.564356 23.4631 0.416488 23.8192C0.268621 24.1754 0.192505 24.5572 0.192505 24.9427C0.192505 25.3283 0.268621 25.7101 0.416488 26.0662C0.564356 26.4223 0.781065 26.7458 1.05419 27.0179L12.6728 38.5902C13.2528 39.1415 14.0224 39.4489 14.8225 39.4489C15.6226 39.4489 16.3922 39.1415 16.9722 38.5902L20.7783 34.7767L38.4053 17.1522C38.9545 16.6026 39.2648 15.8585 39.2689 15.0815C39.273 14.3045 38.9706 13.5573 38.4272 13.0018L34.2768 8.9735ZM34.2768 47.8382C34.0047 47.5651 33.6813 47.3484 33.3251 47.2005C32.969 47.0527 32.5872 46.9766 32.2017 46.9766C31.8161 46.9766 31.4343 47.0527 31.0782 47.2005C30.7221 47.3484 30.3986 47.5651 30.1265 47.8382L14.5796 63.3949L9.03759 57.9994C8.76541 57.7262 8.44199 57.5095 8.08589 57.3617C7.72978 57.2138 7.34798 57.1377 6.96239 57.1377C6.57681 57.1377 6.19501 57.2138 5.8389 57.3617C5.48279 57.5095 5.15938 57.7262 4.8872 57.9994L1.05419 61.8299C0.781065 62.1021 0.564356 62.4255 0.416488 62.7816C0.268621 63.1378 0.192505 63.5195 0.192505 63.9051C0.192505 64.2907 0.268621 64.6725 0.416488 65.0286C0.564356 65.3847 0.781065 65.7082 1.05419 65.9803L12.6435 77.577C13.2231 78.1281 13.9922 78.4355 14.792 78.4355C15.5917 78.4355 16.3609 78.1281 16.9404 77.577L20.7734 73.7464L38.4004 56.1146C38.9475 55.5688 39.2568 54.8289 39.2609 54.0561C39.265 53.2834 38.9636 52.5402 38.4224 51.9886L34.2768 47.8382ZM15.8174 90.1502C9.35009 90.1502 3.95458 95.3993 3.95458 101.869C3.95458 108.339 9.35497 113.588 15.8174 113.588C18.9254 113.588 21.9061 112.353 24.1038 110.155C26.3015 107.958 27.5361 104.977 27.5361 101.869C27.5361 98.761 26.3015 95.7803 24.1038 93.5826C21.9061 91.3849 18.9254 90.1502 15.8174 90.1502ZM121.286 94.0565H50.9736C49.9376 94.0565 48.9441 94.468 48.2115 95.2006C47.4789 95.9332 47.0674 96.9267 47.0674 97.9627V105.775C47.0674 106.811 47.4789 107.805 48.2115 108.537C48.9441 109.27 49.9376 109.681 50.9736 109.681H121.286C122.322 109.681 123.316 109.27 124.048 108.537C124.781 107.805 125.192 106.811 125.192 105.775V97.9627C125.192 96.9267 124.781 95.9332 124.048 95.2006C123.316 94.468 122.322 94.0565 121.286 94.0565ZM121.286 15.9315H50.9736C49.9376 15.9315 48.9441 16.3431 48.2115 17.0756C47.4789 17.8082 47.0674 18.8018 47.0674 19.8378V27.6503C47.0674 28.6863 47.4789 29.6798 48.2115 30.4124C48.9441 31.145 49.9376 31.5565 50.9736 31.5565H121.286C122.322 31.5565 123.316 31.145 124.048 30.4124C124.781 29.6798 125.192 28.6863 125.192 27.6503V19.8378C125.192 18.8018 124.781 17.8082 124.048 17.0756C123.316 16.3431 122.322 15.9315 121.286 15.9315V15.9315ZM121.286 54.994H50.9736C49.9376 54.994 48.9441 55.4056 48.2115 56.1381C47.4789 56.8707 47.0674 57.8643 47.0674 58.9003V66.7128C47.0674 67.7488 47.4789 68.7423 48.2115 69.4749C48.9441 70.2075 49.9376 70.619 50.9736 70.619H121.286C122.322 70.619 123.316 70.2075 124.048 69.4749C124.781 68.7423 125.192 67.7488 125.192 66.7128V58.9003C125.192 57.8643 124.781 56.8707 124.048 56.1381C123.316 55.4056 122.322 54.994 121.286 54.994Z" fill="#A6ADB5"/>
</g>
<defs>
<clipPath id="clip0_1022_4009">
<rect width="125" height="125" fill="white" transform="translate(0.192383 0.306641)"/>
</clipPath>
</defs>
</svg>
