<svg width="125" height="118" viewBox="0 0 125 118" fill="none" xmlns="http://www.w3.org/2000/svg">
<path d="M124.628 92.1636V0.262207H0.116211V92.1636H54.9606V106.492H36.185V117.362H88.559V106.492H69.7834V92.1636H124.628ZM8.5158 8.6618H115.734V83.2699H8.5158V8.6618ZM82.8201 64.8896C82.8848 65.4722 82.8201 66.1619 82.6689 66.8092L77.1691 61.7408L72.2084 67.1546L77.7729 72.2012C77.1256 72.4172 76.5006 72.5679 75.8533 72.5679C73.9338 72.6326 72.2944 72.05 70.8926 70.7778C69.4909 69.4407 68.7359 67.8878 68.6712 65.9683C68.6712 65.2997 68.7359 64.5448 68.8871 63.8975L67.5501 62.6252L59.5483 55.3136L46.0037 70.2387C45.184 71.3386 43.9117 72.0935 42.4447 72.0935C40.0721 72.0935 38.1525 70.174 38.1525 67.8013C38.1525 66.529 38.6486 65.364 39.619 64.5448L53.6814 49.9646L45.184 42.1786C44.5155 42.4805 43.7605 42.6317 43.1132 42.6317C41.1937 42.6964 39.5543 42.1139 38.1525 40.8416C36.7508 39.5693 35.9958 38.0164 35.9311 36.0968C35.8663 35.5143 35.9311 34.8245 36.0823 34.1773L41.6468 39.224L46.5645 33.8319L41 28.7852C41.5825 28.5693 42.2723 28.4186 42.9195 28.4186C44.8391 28.3539 46.4785 28.9364 47.8802 30.2087C49.282 31.4598 50.037 33.0987 50.1017 35.0182C50.1664 35.6655 50.1017 36.2905 49.9505 36.9378L58.7073 44.9609L65.1132 38.0376L55.5372 29.6044L64.2293 19.7048L88.8386 41.3589L80.1465 51.2586L70.3116 42.5882L64.1216 49.8998L73.7411 58.6996C74.3884 58.4837 75.0134 58.333 75.6606 58.333C77.5802 58.2683 79.2196 58.8508 80.6213 60.1231C82.0221 61.3742 82.7771 62.9271 82.8201 64.8896Z" fill="#A6ADB5"/>
</svg>
