<svg width="44" height="31" viewBox="0 0 44 31" fill="none" xmlns="http://www.w3.org/2000/svg">
<path d="M12.8722 4.60986C12.8722 6.67906 11.1875 8.35986 9.11359 8.35986C7.03763 8.35986 5.35497 6.67906 5.35497 4.60986C5.35497 2.53866 7.03763 0.859863 9.11359 0.859863C11.1875 0.859863 12.8722 2.53866 12.8722 4.60986ZM14.5099 11.8621C12.5165 13.63 11.2614 16.2081 11.2614 19.0741C11.2614 21.371 12.0064 23.4804 13.4092 25.1344V26.5741C13.4092 27.7594 12.4494 28.717 11.2614 28.717H6.96581C5.77983 28.717 4.81803 27.7594 4.81803 26.5741V24.7795C2.27827 23.5741 0.522461 20.996 0.522461 18.0027C0.522461 13.8576 3.88777 10.5027 8.0397 10.5027H10.1875C11.7379 10.5027 13.2883 11.005 14.5099 11.8621ZM4.81803 15.1701C4.14953 15.9201 3.74414 16.9179 3.74414 18.0027C3.74414 19.0875 4.14953 20.0853 4.81803 20.8353V15.1701ZM30.5914 26.5741V25.1344C31.9338 23.4804 32.7392 21.371 32.7392 19.0741C32.7392 16.2081 31.4841 13.63 29.4907 11.8621C30.7122 11.005 32.2023 10.5027 33.8131 10.5027H35.9609C40.1155 10.5027 43.4781 13.8576 43.4781 18.0027C43.4781 20.996 41.7196 23.5741 39.1826 24.7795V26.5741C39.1826 27.7594 38.2228 28.717 37.0348 28.717H32.7392C31.5512 28.717 30.5914 27.7594 30.5914 26.5741ZM39.1826 20.8353C39.7933 20.0853 40.2565 19.0875 40.2565 18.0027C40.2565 16.9179 39.7933 15.9201 39.1826 15.1701V20.8353ZM38.6456 4.60986C38.6456 6.67906 36.9609 8.35986 34.887 8.35986C32.813 8.35986 31.1284 6.67906 31.1284 4.60986C31.1284 2.53866 32.813 0.859863 34.887 0.859863C36.9609 0.859863 38.6456 2.53866 38.6456 4.60986ZM17.7047 5.14558C17.7047 2.77839 19.631 0.859863 22.0003 0.859863C24.3696 0.859863 26.2959 2.77839 26.2959 5.14558C26.2959 7.50942 24.3696 9.43129 22.0003 9.43129C19.631 9.43129 17.7047 7.50942 17.7047 5.14558ZM30.5914 19.0741C30.5914 22.0675 28.8329 24.6456 26.2959 25.8509V28.717C26.2959 29.9023 25.3361 30.8599 24.1481 30.8599H19.8525C18.6645 30.8599 17.7047 29.9023 17.7047 28.717V25.8509C15.1677 24.6456 13.4092 22.0675 13.4092 19.0741C13.4092 14.9291 16.7718 11.5741 20.9264 11.5741H23.0742C27.2288 11.5741 30.5914 14.9291 30.5914 19.0741ZM17.7047 21.9067V16.2416C17.0335 16.9916 16.6308 17.9893 16.6308 19.0741C16.6308 20.159 17.0335 21.1567 17.7047 21.9067ZM26.2959 16.2416V21.9067C26.9066 21.15 27.3698 20.159 27.3698 19.0741C27.3698 17.9893 26.9066 16.9916 26.2959 16.2416Z" fill="white"/>
</svg>
