<svg width="30" height="31" viewBox="0 0 30 31" fill="none" xmlns="http://www.w3.org/2000/svg">
<g clip-path="url(#clip0_342_3680)">
<path d="M20.6246 3.67236C20.6246 2.11904 21.8844 0.859863 23.4371 0.859863C24.9898 0.859863 26.2496 2.11904 26.2496 3.67236C26.2496 5.22568 24.9898 6.48486 23.4371 6.48486C21.8844 6.48486 20.6246 5.22568 20.6246 3.67236ZM17.8473 12.895C16.9566 13.2935 16.2535 14.02 15.8902 14.9282L15.8023 15.1509C15.4156 16.1118 14.3258 16.5806 13.3648 16.1938C12.4039 15.8071 11.9352 14.7173 12.3219 13.7563L12.4098 13.5337C13.1363 11.7231 14.5426 10.2642 16.3297 9.46729L16.9742 9.18018C18.193 8.64111 19.4586 8.35986 20.8414 8.35986C23.4547 8.35986 25.8102 9.93018 26.8121 12.3384L27.6617 14.4946L28.9625 15.1216C29.8883 15.5845 30.2633 16.7095 29.8004 17.6353C29.3375 18.561 28.2125 18.936 27.2867 18.4731L25.7223 17.6938C25.1187 17.3892 24.6441 16.8794 24.3863 16.2583L23.8238 14.9106L22.693 18.7485L25.5934 21.9185C25.9098 22.2642 26.1383 22.6802 26.2496 23.1372L27.5973 28.5278C27.8492 29.5356 27.2398 30.5552 26.2379 30.8013C25.2301 31.0532 24.2105 30.4438 23.9117 29.4419L22.6695 24.2739L18.5328 19.7563C17.6656 18.813 17.2906 17.4946 17.6715 16.2583L18.6617 12.5376C18.609 12.561 18.5504 12.5845 18.4977 12.6079L17.8473 12.895ZM17.15 21.0278L19.5348 23.6294L18.6852 25.7505C18.5445 26.1079 18.3336 26.4302 18.0641 26.6938L14.4488 30.3091C13.7164 31.0415 12.5328 31.0415 11.8004 30.3091C11.068 29.5767 11.068 28.3931 11.8004 27.6606L15.275 24.1802L16.7398 20.5239C16.8629 20.6997 17.0035 20.8638 17.15 21.0278ZM13.0719 16.9204C13.5758 17.1841 13.7281 17.7524 13.4703 18.1509L10.9039 22.645C10.8629 22.8032 10.7984 22.9614 10.7164 23.1079L6.9664 29.606C6.44492 30.5024 5.29882 30.8071 4.40234 30.2915L1.15449 28.4165C0.257828 27.895 -0.049443 26.7524 0.468297 25.856L4.16562 19.3579C4.73632 18.4614 5.88242 18.1567 6.7789 18.6196L9.9664 20.5122L11.8414 17.2134C12.1051 16.8149 12.6734 16.6626 13.0719 16.9204Z" fill="white"/>
</g>
<defs>
<clipPath id="clip0_342_3680">
<rect width="30" height="30" fill="white" transform="translate(0 0.859863)"/>
</clipPath>
</defs>
</svg>
