<svg width="30" height="21" viewBox="0 0 30 21" fill="none" xmlns="http://www.w3.org/2000/svg">
<path d="M8.91481 3.35986C8.91481 4.73933 7.7917 5.85986 6.40906 5.85986C5.02508 5.85986 3.90332 4.73933 3.90332 3.35986C3.90332 1.97906 5.02508 0.859863 6.40906 0.859863C7.7917 0.859863 8.91481 1.97906 8.91481 3.35986ZM10.0066 8.19468C8.67766 9.37326 7.84092 11.092 7.84092 13.0027C7.84092 14.534 8.33759 15.9402 9.27277 17.0429V18.0027C9.27277 18.7929 8.63291 19.4313 7.84092 19.4313H4.97721C4.18655 19.4313 3.54535 18.7929 3.54535 18.0027V16.8063C1.85218 16.0027 0.681641 14.284 0.681641 12.2884C0.681641 9.52504 2.92518 7.28843 5.69313 7.28843H7.12499C8.15861 7.28843 9.19223 7.62326 10.0066 8.19468ZM3.54535 10.4C3.09969 10.9 2.82942 11.5652 2.82942 12.2884C2.82942 13.0116 3.09969 13.6768 3.54535 14.1768V10.4ZM20.7276 18.0027V17.0429C21.6225 15.9402 22.1595 14.534 22.1595 13.0027C22.1595 11.092 21.3227 9.37326 19.9938 8.19468C20.8082 7.62326 21.8015 7.28843 22.8754 7.28843H24.3073C27.077 7.28843 29.3187 9.52504 29.3187 12.2884C29.3187 14.284 28.1464 16.0027 26.455 16.8063V18.0027C26.455 18.7929 25.8152 19.4313 25.0232 19.4313H22.1595C21.3675 19.4313 20.7276 18.7929 20.7276 18.0027ZM26.455 14.1768C26.8622 13.6768 27.171 13.0116 27.171 12.2884C27.171 11.5652 26.8622 10.9 26.455 10.4V14.1768ZM26.0971 3.35986C26.0971 4.73933 24.974 5.85986 23.5913 5.85986C22.2087 5.85986 21.0856 4.73933 21.0856 3.35986C21.0856 1.97906 22.2087 0.859863 23.5913 0.859863C24.974 0.859863 26.0971 1.97906 26.0971 3.35986ZM12.1365 3.71701C12.1365 2.13888 13.4207 0.859863 15.0002 0.859863C16.5797 0.859863 17.8639 2.13888 17.8639 3.71701C17.8639 5.2929 16.5797 6.57415 15.0002 6.57415C13.4207 6.57415 12.1365 5.2929 12.1365 3.71701ZM20.7276 13.0027C20.7276 14.9983 19.5553 16.717 17.8639 17.5206V19.4313C17.8639 20.2215 17.224 20.8599 16.4321 20.8599H13.5683C12.7763 20.8599 12.1365 20.2215 12.1365 19.4313V17.5206C10.4451 16.717 9.27277 14.9983 9.27277 13.0027C9.27277 10.2393 11.5145 8.00272 14.2843 8.00272H15.7161C18.4859 8.00272 20.7276 10.2393 20.7276 13.0027ZM12.1365 14.8911V11.1143C11.689 11.6143 11.4206 12.2795 11.4206 13.0027C11.4206 13.7259 11.689 14.3911 12.1365 14.8911ZM17.8639 11.1143V14.8911C18.2711 14.3866 18.5798 13.7259 18.5798 13.0027C18.5798 12.2795 18.2711 11.6143 17.8639 11.1143Z" fill="#F9B935"/>
</svg>
