<svg width="20" height="21" viewBox="0 0 20 21" fill="none" xmlns="http://www.w3.org/2000/svg">
<g clip-path="url(#clip0_342_3732)">
<path d="M13.7497 2.73486C13.7497 1.69932 14.5896 0.859863 15.6247 0.859863C16.6599 0.859863 17.4997 1.69932 17.4997 2.73486C17.4997 3.77041 16.6599 4.60986 15.6247 4.60986C14.5896 4.60986 13.7497 3.77041 13.7497 2.73486ZM11.8982 8.8833C11.3044 9.14893 10.8357 9.6333 10.5935 10.2388L10.5349 10.3872C10.2771 11.0278 9.55052 11.3403 8.90989 11.0825C8.26927 10.8247 7.95677 10.0981 8.21458 9.45752L8.27318 9.30908C8.75755 8.10205 9.69505 7.12939 10.8865 6.59814L11.3161 6.40674C12.1286 6.04736 12.9724 5.85986 13.8943 5.85986C15.6365 5.85986 17.2068 6.90674 17.8747 8.51221L18.4411 9.94971L19.3083 10.3677C19.9255 10.6763 20.1755 11.4263 19.8669 12.0435C19.5583 12.6606 18.8083 12.9106 18.1911 12.6021L17.1482 12.0825C16.7458 11.8794 16.4294 11.5396 16.2576 11.1255L15.8826 10.2271L15.1286 12.7856L17.0622 14.8989C17.2732 15.1294 17.4255 15.4067 17.4997 15.7114L18.3982 19.3052C18.5661 19.9771 18.1599 20.6567 17.4919 20.8208C16.8201 20.9888 16.1404 20.5825 15.9411 19.9146L15.113 16.4692L12.3552 13.4575C11.7771 12.8286 11.5271 11.9497 11.781 11.1255L12.4411 8.64502C12.406 8.66064 12.3669 8.67627 12.3318 8.69189L11.8982 8.8833ZM11.4333 14.3052L13.0232 16.0396L12.4568 17.4536C12.363 17.6919 12.2224 17.9067 12.0427 18.0825L9.63255 20.4927C9.14427 20.981 8.35521 20.981 7.86693 20.4927C7.37864 20.0044 7.37864 19.2153 7.86693 18.7271L10.1833 16.4067L11.1599 13.9692C11.2419 14.0864 11.3357 14.1958 11.4333 14.3052ZM8.71458 11.5669C9.05052 11.7427 9.15208 12.1216 8.98021 12.3872L7.26927 15.3833C7.24193 15.4888 7.19896 15.5942 7.14427 15.6919L4.64427 20.0239C4.29661 20.6216 3.53255 20.8247 2.93489 20.481L0.769659 19.231C0.171886 18.8833 -0.032962 18.1216 0.312198 17.5239L2.77708 13.1919C3.15755 12.5942 3.92161 12.3911 4.51927 12.6997L6.64427 13.9614L7.89427 11.7622C8.07005 11.4966 8.44896 11.395 8.71458 11.5669Z" fill="#FB5B5B"/>
</g>
<defs>
<clipPath id="clip0_342_3732">
<rect width="20" height="20" fill="white" transform="translate(0 0.859863)"/>
</clipPath>
</defs>
</svg>
