<svg width="26" height="26" viewBox="0 0 26 26" fill="none" xmlns="http://www.w3.org/2000/svg">
<path d="M0.0463867 12.752C0.0463867 5.84839 5.64283 0.251953 12.5464 0.251953C19.4499 0.251953 25.0464 5.84839 25.0464 12.752C25.0464 19.6555 19.4499 25.252 12.5464 25.252C5.64283 25.252 0.0463867 19.6555 0.0463867 12.752Z" fill="white"/>
<path d="M7.81338 12.7426C7.81338 15.3565 9.92316 17.4663 12.5371 17.4663C15.1509 17.4663 17.2607 15.3565 17.2607 12.7426C17.2607 10.1287 15.1509 8.01894 12.5371 8.01894C9.94183 8.01894 7.81338 10.1287 7.81338 12.7426ZM3.03369 12.7426C3.03369 7.49617 7.2906 3.23926 12.5371 3.23926C17.7835 3.23926 22.0404 7.49617 22.0404 12.7426C22.0404 17.9891 17.7835 22.246 12.5371 22.246C7.2906 22.2647 3.03369 18.0077 3.03369 12.7426Z" fill="#007BFF"/>
</svg>
