<svg width="17" height="26" viewBox="0 0 17 26" fill="none" xmlns="http://www.w3.org/2000/svg">
<path d="M5.65894 7.20928C5.65894 8.13693 6.42424 8.90223 7.35189 8.90223C8.30272 8.90223 9.04484 8.13693 9.04484 7.20928C9.04484 6.28164 8.27953 5.51633 7.35189 5.51633C6.40105 5.49314 5.65894 6.25845 5.65894 7.20928ZM0.672852 0.251953H16.4196V18.9208H12.6858L12.4771 15.9523C12.3844 14.6768 12.1293 14.1202 11.851 13.4477L10.9001 11.2909H12.6163L13.9613 13.4941C14.1005 13.7492 14.3788 13.9347 14.6803 13.9347C15.1209 13.9347 15.492 13.5636 15.492 13.123C15.492 12.9839 15.4456 12.8679 15.3992 12.752C15.1209 12.2186 14.3788 10.8967 14.0077 10.2473C13.6367 9.59796 12.9409 9.41244 12.1061 9.41244H8.41868C7.39827 9.41244 6.70254 10.0618 6.35467 10.5952C6.0068 11.1054 4.84725 12.8215 4.84725 12.8215H2.3658C1.87879 12.8215 1.50773 13.1926 1.50773 13.6796C1.50773 14.1434 1.87879 14.5377 2.3658 14.5377H5.19511C5.63575 14.5377 5.86766 14.4449 6.12276 14.0507C6.40105 13.6564 7.28231 12.4505 7.28231 12.4505L8.53463 15.303L5.19511 22.8401C5.14873 22.9328 5.14873 23.0488 5.14873 23.1648C5.14873 23.6982 5.56617 24.1156 6.09957 24.1156C6.44743 24.1156 6.77211 23.9069 6.93445 23.6286L10.3667 16.4393L10.645 19.6397C10.7146 20.3818 11.1784 20.7993 11.8742 20.7993H16.4196V25.252H0.672852V0.251953Z" fill="white"/>
</svg>
