<svg width="23" height="26" viewBox="0 0 23 26" fill="none" xmlns="http://www.w3.org/2000/svg">
<path d="M22.3216 9.71246H19.4228C19.0743 8.36529 18.3909 7.15361 17.4615 6.17182L19.0058 4.02533C19.2239 3.72243 19.155 3.30009 18.8521 3.08232C18.5488 2.86422 18.1272 2.93351 17.9091 3.23608L16.4475 5.2675C15.2605 4.37195 13.8246 3.79338 12.2592 3.66263V0.927704C12.2592 0.554523 11.9566 0.251953 11.5835 0.251953C11.2103 0.251953 10.9077 0.554523 10.9077 0.927704V3.66238C9.32215 3.79391 7.8675 4.38548 6.67017 5.30177L5.18396 3.23608C4.96553 2.93318 4.54352 2.86323 4.24095 3.08232C3.93805 3.30009 3.86908 3.72243 4.08719 4.02533L5.66248 6.21484C4.75262 7.18908 4.08228 8.38459 3.73822 9.71246H0.771454C0.398273 9.71246 0.0957031 10.015 0.0957031 10.3882C0.0957031 10.7614 0.398273 11.064 0.771454 11.064H3.50547C3.48699 11.2866 3.47128 11.51 3.47128 11.7372V18.5559C3.69153 18.5188 3.91627 18.4949 4.14691 18.4949H19.0134C19.2441 18.4949 19.469 18.5188 19.6893 18.556V11.7372C19.6893 11.51 19.6736 11.2866 19.6552 11.064H22.3216C22.6947 11.064 22.9973 10.7614 22.9973 10.3882C22.9973 10.015 22.6947 9.71246 22.3216 9.71246ZM10.232 8.36096C9.11407 8.36096 8.20471 9.27032 8.20471 10.3882C8.20471 10.7614 7.90214 11.064 7.52896 11.064C7.15578 11.064 6.85321 10.7614 6.85321 10.3882C6.85321 8.52528 8.36903 7.00946 10.232 7.00946C10.6051 7.00946 10.9077 7.31203 10.9077 7.68521C10.9077 8.05839 10.6051 8.36096 10.232 8.36096Z" fill="white"/>
<path d="M19.0134 19.8457H4.14685C2.66023 19.8457 1.44385 21.062 1.44385 22.5487C1.44385 24.0421 2.66023 25.2517 4.14685 25.2517H19.0134C20.5068 25.2517 21.7164 24.0421 21.7164 22.5487C21.7164 21.062 20.5068 19.8457 19.0134 19.8457Z" fill="white"/>
</svg>
