<svg width="11" height="26" viewBox="0 0 11 26" fill="none" xmlns="http://www.w3.org/2000/svg">
<path d="M1.13661 8.72418C1.13661 7.01121 2.5255 5.62232 4.23846 5.62232H5.97457C7.68754 5.62232 9.07643 7.01121 9.07643 8.72418V23.8399H1.13661V8.72418ZM2.66439 10.576V18.8631H7.5255V10.576H2.66439ZM5.09494 13.701C5.09494 13.701 3.98383 14.6501 3.98383 15.7612C3.98383 16.2473 4.28476 16.664 4.72457 16.826C4.58568 16.7103 4.46994 16.5251 4.46994 16.3168C4.46994 15.6918 5.09494 15.1594 5.09494 15.1594C5.09494 15.1594 5.74309 15.6918 5.74309 16.3168C5.74309 16.5251 5.6505 16.7103 5.48846 16.826C5.92828 16.664 6.2292 16.2473 6.2292 15.7612C6.2292 14.6733 5.09494 13.701 5.09494 13.701ZM5.09494 12.1733C5.09494 12.1733 6.92365 13.701 6.92365 15.4603C6.92365 16.4557 6.13661 17.289 5.14124 17.289C4.14587 17.289 3.31254 16.4788 3.31254 15.4603C3.28939 13.701 5.09494 12.1733 5.09494 12.1733ZM3.61346 4.0714H6.59957V5.06677H3.61346V4.0714ZM6.41439 1.61769L10.5116 0.251953V4.27973L6.41439 2.91399V1.61769ZM0.581055 24.6964C0.581055 24.5344 0.719943 24.3955 0.88198 24.3955H9.28476C9.46994 24.3955 9.58568 24.5344 9.58568 24.6964V24.951C9.58568 25.1131 9.4468 25.252 9.28476 25.252H0.905128C0.743091 25.252 0.604202 25.1131 0.604202 24.951V24.6964H0.581055ZM3.49772 1.5714C3.1968 1.5714 2.94217 1.82603 2.94217 2.12695C2.94217 2.42788 3.1968 2.68251 3.49772 2.68251C3.79865 2.68251 4.05328 2.42788 4.05328 2.12695C4.05328 1.82603 3.79865 1.5714 3.49772 1.5714ZM4.30791 1.22418C4.30791 0.78436 4.65513 0.460286 5.07179 0.460286C5.53476 0.460286 5.88198 0.807508 5.88198 1.22418V3.51584H4.28476V2.86769C4.07642 3.07603 3.79865 3.21492 3.47457 3.21492C2.87272 3.21492 2.36346 2.72881 2.36346 2.10381C2.36346 1.50195 2.84957 0.992694 3.47457 0.992694C3.79865 0.992694 4.07642 1.13158 4.28476 1.36306V1.22418H4.30791Z" fill="white"/>
</svg>
