<svg width="29" height="26" viewBox="0 0 29 26" fill="none" xmlns="http://www.w3.org/2000/svg">
<path d="M8.99109 12.752H11.7689V18.3075H8.99109V12.752ZM8.99109 19.6964H11.7689V22.4742H8.99109V19.6964ZM13.1578 15.5297H15.9355V21.0853H13.1578V15.5297ZM13.1578 22.4742H15.9355V25.252H13.1578V22.4742ZM17.3244 12.752H20.1022V18.3075H17.3244V12.752ZM17.3244 19.6964H20.1022V22.4742H17.3244V19.6964Z" fill="white"/>
<path d="M24.191 8.74084C23.5841 3.96029 19.491 0.251953 14.5466 0.251953C10.7188 0.251953 7.39383 2.48945 5.87577 6.01584C2.89244 6.90751 0.657715 9.72279 0.657715 12.752C0.657715 16.5811 3.77299 19.6964 7.60216 19.6964V16.9186C5.30494 16.9186 3.43549 15.0492 3.43549 12.752C3.43549 10.8033 5.10077 8.92418 7.14799 8.56445L7.95494 8.4214L8.2216 7.64501C9.19799 4.79779 11.623 3.02973 14.5466 3.02973C18.3758 3.02973 21.491 6.14501 21.491 9.97418V11.3631H22.8799C24.4119 11.3631 25.6577 12.6089 25.6577 14.1408C25.6577 15.6728 24.4119 16.9186 22.8799 16.9186H21.491V19.6964H22.8799C25.9438 19.6964 28.4355 17.2047 28.4355 14.1408C28.4355 11.5283 26.623 9.33251 24.191 8.74084Z" fill="white"/>
</svg>
