<svg width="31" height="27" viewBox="0 0 31 27" fill="none" xmlns="http://www.w3.org/2000/svg">
<path d="M19.8423 20.328L19.8409 20.3292C19.2581 20.8332 18.3424 20.421 18.3424 19.6434V14.5434V14.0362L17.8353 14.0434C15.5474 14.0759 13.5595 14.2421 11.9075 14.6154C10.2573 14.9883 8.90511 15.5758 7.92513 16.4783C5.91652 18.3281 5.67484 21.2814 7.01693 25.5734C7.08763 25.7996 6.99906 25.9987 6.80872 26.1233C6.61317 26.2513 6.35629 26.2654 6.14433 26.111L6.1441 26.1109C3.67921 24.3181 1.4668 20.8937 1.4668 17.4848C1.4668 15.326 1.91801 13.6279 2.71064 12.2869C3.50261 10.9471 4.65451 9.93145 6.10825 9.16678C9.03814 7.62567 13.1528 7.12426 17.8477 7.06871L18.3418 7.06287V6.56875V1.88242C18.3418 1.10631 19.2564 0.692597 19.8407 1.19687L19.8417 1.19773L30.1449 10.0433C30.5871 10.4663 30.5617 11.1219 30.154 11.4752C30.1538 11.4754 30.1536 11.4755 30.1534 11.4757L19.8423 20.328Z" stroke="black"/>
</svg>
