<svg width="13" height="10" viewBox="0 0 13 10" fill="none" xmlns="http://www.w3.org/2000/svg">
<path fill-rule="evenodd" clip-rule="evenodd" d="M8.00074 9.12554C8.00074 9.25815 8.05342 9.38533 8.14719 9.4791C8.24096 9.57287 8.36814 9.62554 8.50074 9.62554H12.5007C12.6334 9.62554 12.7605 9.57287 12.8543 9.4791C12.9481 9.38533 13.0007 9.25815 13.0007 9.12554V5.12554C13.0007 4.99293 12.9481 4.86576 12.8543 4.77199C12.7605 4.67822 12.6334 4.62554 12.5007 4.62554C12.3681 4.62554 12.241 4.67822 12.1472 4.77199C12.0534 4.86576 12.0007 4.99293 12.0007 5.12554V7.72554L8.38774 3.30854C8.34351 3.25456 8.28847 3.21043 8.22616 3.179C8.16385 3.14757 8.09565 3.12953 8.02594 3.12604C7.95624 3.12256 7.88658 3.1337 7.82144 3.15876C7.75631 3.18382 7.69714 3.22224 7.64774 3.27154L5.06074 5.85854L1.40474 0.831543C1.32477 0.729846 1.20848 0.663109 1.08033 0.645356C0.952173 0.627604 0.822126 0.660218 0.717516 0.736345C0.612905 0.812473 0.541876 0.926186 0.519354 1.05359C0.496833 1.18099 0.524572 1.31217 0.596744 1.41954L4.59674 6.91954C4.6392 6.97803 4.69383 7.02662 4.75687 7.06196C4.81992 7.0973 4.88987 7.11855 4.96191 7.12425C5.03396 7.12995 5.10639 7.11997 5.1742 7.09499C5.24202 7.07001 5.30361 7.03062 5.35474 6.97954L7.96374 4.36954L11.4457 8.62554H8.50074C8.36814 8.62554 8.24096 8.67822 8.14719 8.77199C8.05342 8.86576 8.00074 8.99294 8.00074 9.12554Z" fill="#FB5B5B"/>
</svg>
