<svg width="16" height="11" viewBox="0 0 16 11" fill="none" xmlns="http://www.w3.org/2000/svg">
<path fill-rule="evenodd" clip-rule="evenodd" d="M10.0974 1.24325C10.0974 1.08964 10.1584 0.942321 10.267 0.833703C10.3756 0.725084 10.523 0.664062 10.6766 0.664062H15.3101C15.4637 0.664062 15.611 0.725084 15.7196 0.833703C15.8282 0.942321 15.8892 1.08964 15.8892 1.24325V5.87675C15.8892 6.03036 15.8282 6.17768 15.7196 6.2863C15.611 6.39492 15.4637 6.45594 15.3101 6.45594C15.1564 6.45594 15.0091 6.39492 14.9005 6.2863C14.7919 6.17768 14.7309 6.03036 14.7309 5.87675V2.86497L10.5457 7.98152C10.4944 8.04405 10.4307 8.09517 10.3585 8.13158C10.2863 8.16799 10.2073 8.18888 10.1266 8.19292C10.0458 8.19696 9.96513 8.18405 9.88968 8.15502C9.81422 8.12599 9.74568 8.08149 9.68847 8.02438L6.69175 5.02766L1.03446 10.4429C0.941814 10.5607 0.807113 10.638 0.658662 10.6586C0.510211 10.6791 0.359568 10.6414 0.23839 10.5532C0.117212 10.465 0.0349334 10.3333 0.00884495 10.1857C-0.0172435 10.0381 0.0148894 9.88617 0.098491 9.76178L6.15426 3.79862C6.20344 3.73088 6.26673 3.6746 6.33975 3.63366C6.41278 3.59272 6.49381 3.5681 6.57727 3.56149C6.66072 3.55489 6.74462 3.56645 6.82318 3.59539C6.90174 3.62433 6.97309 3.66995 7.03231 3.72912L10.0545 6.75248L14.088 1.82244H10.6766C10.523 1.82244 10.3756 1.76142 10.267 1.6528C10.1584 1.54418 10.0974 1.39686 10.0974 1.24325Z" fill="#00DB76"/>
</svg>
