<svg width="16" height="10" viewBox="0 0 16 10" fill="none" xmlns="http://www.w3.org/2000/svg">
<path fill-rule="evenodd" clip-rule="evenodd" d="M10.1678 9.42081C10.1678 9.57442 10.2292 9.72174 10.3386 9.83036C10.448 9.93898 10.5963 10 10.751 10H15.4168C15.5715 10 15.7198 9.93898 15.8292 9.83036C15.9386 9.72174 16 9.57442 16 9.42081V4.78731C16 4.6337 15.9386 4.48638 15.8292 4.37777C15.7198 4.26915 15.5715 4.20813 15.4168 4.20813C15.2621 4.20813 15.1137 4.26915 15.0044 4.37777C14.895 4.48638 14.8336 4.6337 14.8336 4.78731V7.79909L10.6192 2.68255C10.5676 2.62001 10.5034 2.56889 10.4307 2.53248C10.358 2.49607 10.2785 2.47518 10.1972 2.47114C10.1158 2.4671 10.0346 2.48002 9.95861 2.50904C9.88264 2.53807 9.81362 2.58257 9.756 2.63969L6.7384 5.6364L1.04167 0.221155C0.948379 0.103351 0.812739 0.0260439 0.663253 0.00547981C0.513768 -0.0150843 0.362075 0.0226958 0.240052 0.11088C0.118029 0.199064 0.0351769 0.330787 0.00890661 0.478368C-0.0173637 0.625948 0.0149931 0.777896 0.0991775 0.90228L6.19716 6.86544C6.24669 6.93319 6.31041 6.98947 6.38395 7.0304C6.45748 7.07134 6.53908 7.09596 6.62312 7.10257C6.70715 7.10917 6.79164 7.09761 6.87074 7.06867C6.94985 7.03973 7.02169 6.99411 7.08133 6.93494L10.1246 3.91158L14.1862 8.84163H10.751C10.5963 8.84163 10.448 8.90265 10.3386 9.01127C10.2292 9.11988 10.1678 9.2672 10.1678 9.42081Z" fill="#FB5B5B"/>
</svg>
