<svg width="13" height="10" viewBox="0 0 13 10" fill="none" xmlns="http://www.w3.org/2000/svg">
<path fill-rule="evenodd" clip-rule="evenodd" d="M7.99977 1.12549C7.99977 0.99288 8.05245 0.865703 8.14621 0.771935C8.23998 0.678167 8.36716 0.625488 8.49977 0.625488H12.4998C12.6324 0.625488 12.7596 0.678167 12.8533 0.771935C12.9471 0.865703 12.9998 0.99288 12.9998 1.12549V5.12549C12.9998 5.2581 12.9471 5.38527 12.8533 5.47904C12.7596 5.57281 12.6324 5.62549 12.4998 5.62549C12.3672 5.62549 12.24 5.57281 12.1462 5.47904C12.0524 5.38527 11.9998 5.2581 11.9998 5.12549V2.52549L8.38677 6.94249C8.34254 6.99647 8.2875 7.0406 8.22518 7.07203C8.16287 7.10347 8.09467 7.1215 8.02497 7.12499C7.95526 7.12847 7.8856 7.11733 7.82047 7.09227C7.75533 7.06721 7.69616 7.02879 7.64677 6.97949L5.05977 4.39249L1.40377 9.41949C1.32379 9.52118 1.20751 9.58792 1.07935 9.60568C0.951196 9.62343 0.82115 9.59081 0.716539 9.51469C0.611929 9.43856 0.540899 9.32485 0.518378 9.19744C0.495856 9.07004 0.523596 8.93887 0.595767 8.83149L4.59577 3.33149C4.63822 3.273 4.69286 3.22442 4.7559 3.18908C4.81894 3.15374 4.88889 3.13248 4.96094 3.12678C5.03298 3.12108 5.10541 3.13106 5.17323 3.15604C5.24104 3.18102 5.30264 3.22041 5.35377 3.27149L7.96277 5.88149L11.4448 1.62549H8.49977C8.36716 1.62549 8.23998 1.57281 8.14621 1.47904C8.05245 1.38527 7.99977 1.2581 7.99977 1.12549Z" fill="#007BFF"/>
</svg>
