<svg width="36" height="36" viewBox="0 0 36 36" fill="none" xmlns="http://www.w3.org/2000/svg">
<path d="M13.626 15.564C13.626 14.3526 12.6457 13.3737 11.4385 13.3737L10.4062 13.3765C7.99043 13.3765 6.03125 15.3356 6.03125 17.7569V21.0238C6.03125 23.4458 7.99316 25.4077 10.4062 25.4077H11.5C12.7072 25.4077 13.6875 24.4261 13.6875 23.2161L13.626 15.564ZM18.0625 0.251465C8.28027 0.251465 0.875791 8.39307 0.563922 17.7515L0.5625 20.4858C0.5625 21.395 1.29736 22.1265 2.1416 22.1265C2.98584 22.1265 3.84375 21.395 3.84375 20.4858V17.7515C3.84375 9.91064 10.2244 3.54639 18.0625 3.54639C25.9033 3.54639 32.2812 9.91064 32.2812 17.7515V27.5952C32.2812 29.1053 31.0569 30.3296 29.5469 30.3296H21.9795C21.4121 29.3521 20.3662 28.689 19.1562 28.689H17.0918C15.5052 28.689 14.0498 29.7615 13.7511 31.3201C13.3457 33.4194 14.9453 35.2515 16.9072 35.2515H19.1562C20.3676 35.2515 21.4142 34.5876 21.9822 33.6108H29.5469C32.8691 33.6108 35.5625 30.9175 35.5625 27.5952V17.7515C35.248 8.39307 27.8447 0.251465 18.0625 0.251465ZM25.7188 25.4077C28.1346 25.4077 30.0938 23.4458 30.0938 21.0238V17.7583C30.0938 15.3384 28.1318 13.3765 25.7188 13.3765H24.625C23.4178 13.3765 22.4375 14.3567 22.4375 15.5667V23.2134C22.4375 24.4302 23.415 25.4077 24.625 25.4077H25.7188Z" fill="white"/>
</svg>
