<svg width="68" height="69" viewBox="0 0 68 69" fill="none" xmlns="http://www.w3.org/2000/svg">
<g filter="url(#filter0_d_4044_12261)">
<path d="M4.01334 34.1464C4.01176 39.4807 5.40552 44.6894 8.05599 49.2804L3.75977 64.9673L19.8128 60.758C24.2356 63.1686 29.2152 64.4406 34.2831 64.4424H34.2966C50.9854 64.4424 64.5706 50.8617 64.5775 34.17C64.5809 26.0814 61.4338 18.4758 55.716 12.7539C49.9993 7.03202 42.3961 3.87925 34.2955 3.87564C17.6047 3.87564 4.02011 17.4552 4.01334 34.1465" fill="url(#paint0_linear_4044_12261)"/>
<path d="M2.92745 34.136C2.92542 39.6628 4.36949 45.0578 7.11426 49.8134L2.66406 66.0623L19.293 61.7021C23.8745 64.2006 29.0328 65.5174 34.2824 65.5193H34.296C51.5838 65.5193 65.6567 51.4504 65.6641 34.1615C65.667 25.782 62.4071 17.9034 56.485 11.9762C50.5622 6.0492 42.6866 2.78364 34.296 2.7798C17.0054 2.7798 2.93433 16.8465 2.92734 34.136H2.92745ZM12.8301 48.9945L12.2093 48.0087C9.59936 43.8587 8.22151 39.0628 8.22377 34.1382C8.22929 19.7675 19.9245 8.07634 34.3059 8.07634C41.2702 8.07916 47.8154 10.7937 52.7385 15.72C57.661 20.646 60.3698 27.1948 60.3677 34.1594C60.3617 48.5305 48.666 60.2234 34.2961 60.2234H34.2859C29.6068 60.2209 25.018 58.9646 21.0159 56.5896L20.0634 56.0252L10.1955 58.6122L12.8301 48.9945Z" fill="url(#paint1_linear_4044_12261)"/>
<path fill-rule="evenodd" clip-rule="evenodd" d="M26.4605 21.0276C25.8734 19.7225 25.2553 19.6962 24.6968 19.6733C24.2399 19.6538 23.7169 19.655 23.1947 19.655C22.6722 19.655 21.8229 19.8513 21.1049 20.6356C20.3863 21.4199 18.3613 23.3159 18.3613 27.1721C18.3613 31.0287 21.1702 34.7547 21.5617 35.2781C21.9536 35.8008 26.984 43.9669 34.9504 47.1086C41.5714 49.7195 42.9186 49.2002 44.3557 49.0695C45.7928 48.9389 48.9929 47.1739 49.6461 45.3437C50.2993 43.5138 50.2993 41.9453 50.1033 41.6174C49.9073 41.2907 49.3848 41.0948 48.601 40.7028C47.817 40.3108 43.9637 38.4144 43.2452 38.1532C42.5267 37.8919 42.0041 37.7613 41.4816 38.5459C40.959 39.3299 39.4579 41.0948 39.0004 41.6175C38.5432 42.1412 38.086 42.2065 37.3021 41.8146C36.5182 41.4214 33.9939 40.5946 30.9993 37.9246C28.6693 35.8473 27.0964 33.2818 26.6388 32.4971C26.1817 31.7132 26.59 31.2886 26.9831 30.8979C27.335 30.5467 27.7671 29.983 28.1589 29.5253C28.55 29.0677 28.6808 28.741 28.942 28.2184C29.2032 27.695 29.0726 27.2373 28.8767 26.8454C28.6808 26.4534 27.1575 22.5773 26.4605 21.0276" fill="white"/>
</g>
<defs>
<filter id="filter0_d_4044_12261" x="0.664062" y="0.779785" width="67" height="67.2825" filterUnits="userSpaceOnUse" color-interpolation-filters="sRGB">
<feFlood flood-opacity="0" result="BackgroundImageFix"/>
<feColorMatrix in="SourceAlpha" type="matrix" values="0 0 0 0 0 0 0 0 0 0 0 0 0 0 0 0 0 0 127 0" result="hardAlpha"/>
<feOffset/>
<feGaussianBlur stdDeviation="1"/>
<feComposite in2="hardAlpha" operator="out"/>
<feColorMatrix type="matrix" values="0 0 0 0 0 0 0 0 0 0 0 0 0 0 0 0 0 0 0.15 0"/>
<feBlend mode="normal" in2="BackgroundImageFix" result="effect1_dropShadow_4044_12261"/>
<feBlend mode="normal" in="SourceGraphic" in2="effect1_dropShadow_4044_12261" result="shape"/>
</filter>
<linearGradient id="paint0_linear_4044_12261" x1="34.1685" y1="64.9673" x2="34.1685" y2="3.87558" gradientUnits="userSpaceOnUse">
<stop stop-color="#20B038"/>
<stop offset="1" stop-color="#60D66A"/>
</linearGradient>
<linearGradient id="paint1_linear_4044_12261" x1="34.1642" y1="66.0624" x2="34.1642" y2="2.77984" gradientUnits="userSpaceOnUse">
<stop stop-color="#F9F9F9"/>
<stop offset="1" stop-color="white"/>
</linearGradient>
</defs>
</svg>
