<svg width="697" height="727" viewBox="0 0 697 727" fill="none" xmlns="http://www.w3.org/2000/svg">
<path d="M104.879 546.184C103.038 543.422 101.406 541.205 100.266 539.677C99.6802 538.914 99.2094 538.307 98.9061 537.909C98.6237 537.481 98.4668 537.261 98.4668 537.261C98.4668 537.261 97.9124 538.202 97.1383 539.855C96.3538 541.497 95.3078 543.861 94.2199 546.801C92.0232 552.679 89.7115 560.849 89.0734 569.918C88.655 574.541 89.178 578.998 90.0567 583.621C90.9981 588.213 92.5672 592.795 94.8894 597.125C95.4647 598.213 96.1028 599.27 96.7618 600.326C97.4626 601.341 98.2785 602.282 99.1153 603.245C100.789 605.148 102.672 606.947 104.774 608.611C108.958 611.937 114.011 614.73 119.973 616.707C127.525 610.274 129.189 601.906 127.933 593.307C127.295 589.008 125.904 584.625 124.053 580.347C123.592 579.27 123.09 578.213 122.567 577.136C122.107 576.048 121.647 574.939 121.155 573.862C120.161 571.696 119.105 569.562 117.975 567.491C115.758 563.349 113.289 559.468 110.935 555.933C108.822 552.219 106.741 548.924 104.879 546.184Z" fill="#F9B935" fill-opacity="0.2"/>
<path d="M71.5821 528.506L70.829 525.295C69.7934 521.027 68.5172 516.979 67.1678 513.308C66.5193 511.477 65.7766 509.761 65.1908 508.098C64.6678 506.393 64.1134 504.814 63.6113 503.37C61.5611 497.596 59.8143 493.998 59.8143 493.998C59.8143 493.998 56.99 497.188 53.4544 502.439C51.6657 505.096 49.7096 508.266 47.8372 511.874C45.9962 515.452 44.0611 519.563 42.9523 523.674C41.7598 527.847 40.923 532.283 40.6824 536.812C40.5569 539.071 40.5778 541.352 40.7765 543.632C40.8811 544.762 40.9962 545.933 41.2263 547.032C41.4774 548.119 41.7912 549.218 42.1468 550.285C43.5694 554.605 45.7975 558.789 48.9565 562.586C50.5674 564.437 52.2724 566.331 54.49 567.879C56.6971 569.448 59.1762 570.86 61.8854 572.126C70.5465 566.896 73.6637 559.291 74.2599 551.059C74.6888 546.833 74.4587 542.471 73.7892 538.13C73.4335 535.944 72.9838 533.789 72.4503 531.665C72.1783 530.609 71.8959 529.542 71.5821 528.506Z" fill="#F9B935" fill-opacity="0.2"/>
<path d="M8.82015 517.983C10.5147 519.803 12.4917 521.529 14.7302 523.14C24.1654 519.458 29.1654 512.648 31.6759 504.97C32.2512 503.077 32.8684 501.026 33.3496 498.955C33.8098 496.884 34.155 494.771 34.3851 492.658C34.8558 488.422 34.8454 484.185 34.678 480.064C34.7617 475.849 34.5839 471.79 34.2178 468.077C33.883 464.363 33.2868 461.026 33.1403 458.045C32.6069 452.177 31.8119 448.443 31.8119 448.443C31.8119 448.443 28.3704 451.068 23.7261 455.608C21.362 457.878 18.7365 460.639 16.0796 463.809C14.7721 465.388 13.3495 467.093 12.1674 468.83C10.9645 470.577 9.78249 472.397 8.69462 474.29C6.50841 478.087 4.58374 482.198 3.21344 486.476C2.53352 488.621 1.9791 490.786 1.58161 492.993C1.33056 495.148 1.25737 497.303 1.3829 499.478C1.63394 503.809 2.66949 508.108 4.69878 512.209C5.64021 514.28 7.10466 516.173 8.82015 517.983Z" fill="#F9B935" fill-opacity="0.2"/>
<path d="M-26.1575 463.745C-24.986 465.722 -23.5425 467.647 -21.827 469.519C-11.9211 467.438 -5.49847 461.716 -1.23067 454.781C-0.686735 453.913 -0.195103 453.013 0.296532 452.113C0.809086 451.182 1.3007 450.241 1.78188 449.279C2.70238 447.354 3.52875 445.388 4.25051 443.379C5.69403 439.383 6.72962 435.293 7.48276 431.297C8.45557 427.239 9.21914 423.243 9.71077 419.582C9.97228 417.741 10.1606 415.984 10.3279 414.331C10.4639 412.678 10.5685 411.13 10.7986 409.645C11.5413 403.808 11.5936 400 11.5936 400C11.5936 400 7.75473 402.124 2.31538 405.931C-0.404301 407.845 -3.52148 410.168 -6.74325 412.877C-10.0069 415.597 -13.0194 418.588 -16.0111 421.956C-18.9714 425.335 -21.7119 428.996 -24.0132 432.898C-25.1429 434.844 -26.2412 436.862 -27.0048 438.902C-27.7371 440.91 -28.3229 442.95 -28.7308 445.042C-29.5258 449.185 -29.5886 453.442 -28.6367 457.626C-28.281 459.76 -27.2663 461.747 -26.1575 463.745Z" fill="#F9B935" fill-opacity="0.2"/>
<path d="M-18.126 397.259C-15.4481 394.194 -12.7389 390.638 -10.5736 386.925C-8.38742 383.222 -6.55688 379.33 -5.02967 375.523C-1.7556 367.803 0.733963 360.209 2.06242 354.571C3.70469 348.88 4.49969 345.104 4.49969 345.104C4.49969 345.104 0.420177 346.799 -5.45851 349.947C-8.35601 351.516 -11.8707 353.483 -15.2912 355.753C-18.7431 358.033 -22.331 360.648 -25.7933 363.577C-32.7285 369.425 -39.3603 376.558 -42.4043 384.32C-44.0256 388.222 -44.9566 392.301 -44.9357 396.412C-44.8206 400.513 -43.4085 404.623 -40.9608 408.661C-31.0862 408.013 -23.7222 403.42 -18.126 397.259Z" fill="#F9B935" fill-opacity="0.2"/>
<path d="M-28.5863 225.282C-21.6406 221.213 -14.8937 215.575 -9.45437 209.853C-8.08407 208.441 -6.82886 206.987 -5.56316 205.575C-4.22424 204.226 -2.96901 202.866 -1.78699 201.548C0.566574 198.922 2.56451 196.454 4.21723 194.32C5.79674 192.186 7.22979 190.481 8.22352 189.278C9.17541 188.065 9.71932 187.374 9.71932 187.374C9.71932 187.374 5.63984 187.719 -0.584042 188.849C-6.78699 189.948 -14.6845 192.019 -22.8645 195.261C-26.9022 196.872 -31.0549 198.786 -34.7892 201.046C-38.4189 203.337 -41.8081 205.952 -44.6533 208.87C-46.0759 210.335 -47.3625 211.872 -48.4922 213.473C-49.6219 215.073 -50.5947 216.747 -51.1805 218.515C-52.4881 222.04 -52.9588 225.847 -52.3625 229.822C-43.7223 231.527 -35.6784 229.299 -28.5863 225.282Z" fill="#F9B935" fill-opacity="0.2"/>
<path d="M27.7313 140.48C24.6874 140.543 21.0786 140.741 17.156 141.118C13.1915 141.505 9.22704 142.175 4.99062 143.095C0.816957 144.005 -3.45085 145.208 -7.5722 146.756C-9.63288 147.541 -11.6517 148.377 -13.5973 149.329C-15.522 150.292 -17.2166 151.369 -18.8798 152.541C-25.4174 157.216 -30.7313 163.304 -30.9614 171.055C-23.1162 173.848 -15.1141 172.855 -7.60357 170.177C0.273039 167.583 7.5848 163.252 14.0074 158.775C20.9112 154.434 26.4761 149.821 30.7543 146.348C35.1686 142.938 37.7732 140.553 37.7732 140.553C37.7732 140.553 33.8401 140.302 27.7313 140.48Z" fill="#F9B935" fill-opacity="0.2"/>
<path d="M66.7723 95.3011C60.8413 94.7886 52.6823 94.4225 44.3872 95.1861C36.019 95.9183 26.9813 97.6024 19.3976 101.023C12.1277 104.548 5.92474 109.642 3.40381 116.755C6.7511 118.68 10.3599 119.695 14.0838 120.071C17.9018 120.469 21.9081 120.218 25.883 119.527C29.8683 118.837 33.8851 117.718 37.7659 116.305C41.6676 114.904 45.381 113.241 49.2513 111.556C56.8559 108.178 63.3204 104.339 68.2786 101.42C73.3309 98.5543 76.4271 96.4518 76.4271 96.4518C76.4271 96.4518 72.6928 95.8032 66.7723 95.3011Z" fill="#F9B935" fill-opacity="0.2"/>
<path d="M61.0066 53.587C53.8727 56.9866 47.7534 61.8297 45.1802 68.7021C57.607 76.2022 75.4313 70.6164 89.6678 63.5452C96.9795 60.0306 103.716 56.1498 108.444 53.0849C113.235 50.041 116.132 47.8443 116.132 47.8443C116.132 47.8443 101.582 45.8778 85.128 47.5932C76.9272 48.451 68.0987 50.156 61.0066 53.587Z" fill="#F9B935" fill-opacity="0.2"/>
<path d="M449.386 616.718C455.338 614.73 460.38 611.927 464.595 608.601C466.677 606.937 468.549 605.138 470.244 603.235C471.07 602.283 471.886 601.32 472.587 600.316C473.267 599.26 473.884 598.203 474.48 597.115C476.813 592.785 478.35 588.203 479.302 583.621C480.181 578.998 480.714 574.531 480.275 569.908C479.658 560.839 477.325 552.659 475.15 546.801C474.051 543.851 472.995 541.487 472.242 539.845C471.436 538.203 470.903 537.251 470.903 537.251C470.903 537.251 470.746 537.471 470.453 537.899C470.16 538.297 469.689 538.904 469.104 539.667C467.963 541.195 466.321 543.412 464.491 546.174C462.618 548.914 460.547 552.209 458.444 555.912C456.08 559.448 453.633 563.328 451.405 567.471C450.285 569.552 449.208 571.686 448.225 573.852C447.744 574.939 447.252 576.027 446.802 577.126C446.311 578.203 445.788 579.26 445.327 580.347C443.476 584.626 442.095 588.998 441.446 593.297C440.181 601.896 441.834 610.264 449.386 616.718Z" fill="#F9B935" fill-opacity="0.2"/>
<path d="M515.912 502.429C512.356 497.167 509.542 493.987 509.542 493.987C509.542 493.987 507.795 497.575 505.745 503.36C505.232 504.803 504.699 506.393 504.176 508.088C503.59 509.761 502.827 511.466 502.189 513.307C500.85 516.99 499.573 521.038 498.517 525.295L497.774 528.506C497.471 529.563 497.178 530.609 496.906 531.665C496.373 533.789 495.923 535.944 495.588 538.14C494.898 542.471 494.657 546.833 495.086 551.059C495.693 559.301 498.81 566.896 507.481 572.136C510.201 570.881 512.659 569.458 514.877 567.889C517.105 566.341 518.799 564.458 520.389 562.607C523.569 558.789 525.797 554.615 527.22 550.295C527.555 549.228 527.889 548.13 528.14 547.042C528.371 545.944 528.486 544.772 528.59 543.642C528.799 541.362 528.82 539.071 528.695 536.822C528.454 532.282 527.617 527.858 526.425 523.684C525.306 519.573 523.381 515.462 521.551 511.885C519.647 508.255 517.691 505.075 515.912 502.429Z" fill="#F9B935" fill-opacity="0.2"/>
<path d="M560.662 474.302C559.564 472.398 558.393 470.578 557.19 468.831C555.987 467.084 554.585 465.379 553.288 463.799C550.631 460.63 547.995 457.879 545.652 455.599C540.997 451.059 537.535 448.433 537.535 448.433C537.535 448.433 536.761 452.168 536.217 458.036C536.07 461.028 535.464 464.354 535.139 468.067C534.794 471.791 534.595 475.839 534.679 480.055C534.522 484.176 534.501 488.402 534.972 492.649C535.213 494.762 535.558 496.864 536.018 498.946C536.499 501.028 537.106 503.057 537.681 504.961C540.192 512.628 545.181 519.448 554.637 523.12C556.886 521.509 558.842 519.793 560.547 517.984C562.252 516.164 563.717 514.27 564.658 512.189C566.698 508.088 567.723 503.789 567.964 499.459C568.1 497.293 568.037 495.128 567.775 492.984C567.388 490.777 566.834 488.601 566.154 486.456C564.763 482.199 562.859 478.099 560.662 474.302Z" fill="#F9B935" fill-opacity="0.2"/>
<path d="M570.581 454.791C574.849 461.737 581.282 467.459 591.167 469.53C592.903 467.658 594.336 465.733 595.497 463.756C596.627 461.758 597.631 459.77 598.029 457.647C598.939 453.473 598.907 449.206 598.102 445.063C597.694 442.971 597.119 440.921 596.386 438.923C595.602 436.894 594.503 434.864 593.374 432.919C591.093 429.028 588.332 425.346 585.361 421.998C582.37 418.609 579.388 415.607 576.104 412.887C572.892 410.178 569.765 407.856 567.056 405.952C561.627 402.134 557.777 400.011 557.777 400.011C557.777 400.011 557.83 403.829 558.562 409.655C558.803 411.141 558.907 412.689 559.043 414.341C559.21 415.994 559.388 417.751 559.65 419.592C560.141 423.254 560.915 427.249 561.888 431.318C562.631 435.304 563.656 439.404 565.11 443.4C565.842 445.408 566.658 447.375 567.61 449.289C568.081 450.252 568.572 451.193 569.095 452.124C569.566 453.013 570.058 453.923 570.581 454.791Z" fill="#F9B935" fill-opacity="0.2"/>
<path d="M614.284 396.402C614.326 392.291 613.395 388.222 611.763 384.32C608.709 376.548 602.056 369.404 595.173 363.567C591.69 360.638 588.112 358.023 584.66 355.764C581.24 353.483 577.736 351.527 574.828 349.937C568.939 346.789 564.87 345.094 564.87 345.094C564.87 345.094 565.644 348.891 567.307 354.561C568.656 360.199 571.104 367.793 574.409 375.513C575.926 379.331 577.757 383.212 579.953 386.915C582.108 390.617 584.807 394.184 587.495 397.26C593.092 403.41 600.456 408.003 610.341 408.641C612.767 404.613 614.159 400.513 614.284 396.402Z" fill="#F9B935" fill-opacity="0.2"/>
<path d="M626.019 341.079C625.454 337.125 623.833 333.317 621.647 329.708C619.45 326.12 616.605 322.742 613.414 319.635C610.14 316.507 606.427 313.599 602.682 310.984C595.172 305.765 587.337 301.717 581.385 298.955C575.402 296.204 571.249 294.802 571.249 294.802C571.249 294.802 572.473 298.505 574.596 304.196C575.684 307.02 577.054 310.315 578.728 313.85C579.554 315.608 580.454 317.438 581.416 319.279C582.358 321.099 583.299 322.878 584.345 324.708C586.448 328.328 588.854 331.978 591.584 335.388C592.912 337.093 594.377 338.746 595.883 340.325C597.306 341.863 598.833 343.338 600.444 344.698C606.898 350.106 614.764 353.736 624.325 353.275C625.988 349.133 626.469 345.033 626.019 341.079Z" fill="#F9B935" fill-opacity="0.2"/>
<path d="M623.425 271.725C620.904 268.409 617.818 265.334 614.419 262.541C612.693 261.15 610.925 259.811 609.053 258.556C607.159 257.321 605.203 256.16 603.258 255.072C595.433 250.7 587.442 247.52 581.427 245.459C578.425 244.434 575.935 243.671 574.094 243.2C572.253 242.729 571.249 242.478 571.249 242.478C571.249 242.478 571.667 243.304 572.4 244.737C573.08 246.202 574.126 248.283 575.465 250.783C576.824 253.283 578.498 256.191 580.485 259.298C582.546 262.374 584.502 265.846 586.971 269.204C589.387 272.593 592.096 275.961 595.078 279.089C597.975 282.259 601.082 285.198 604.534 287.635C611.375 292.531 619.387 295.47 628.53 294.34C630.674 286.077 628.582 278.357 623.425 271.725Z" fill="#F9B935" fill-opacity="0.2"/>
<path d="M617.851 213.483C616.732 211.872 615.435 210.345 614.002 208.881C611.156 205.962 607.778 203.347 604.148 201.056C600.424 198.797 596.261 196.883 592.223 195.272C584.033 192.04 576.146 189.958 569.932 188.86C563.719 187.74 559.629 187.385 559.629 187.385C559.629 187.385 560.173 188.075 561.125 189.289C562.118 190.491 563.562 192.207 565.131 194.351C566.763 196.475 568.803 198.933 571.146 201.569C572.307 202.876 573.583 204.236 574.911 205.575C576.177 206.987 577.432 208.441 578.813 209.853C584.263 215.575 591.01 221.213 597.935 225.293C605.037 229.299 613.071 231.527 621.753 229.843C622.338 225.868 621.868 222.061 620.55 218.535C619.943 216.768 619.002 215.084 617.851 213.483Z" fill="#F9B935" fill-opacity="0.2"/>
<path d="M588.236 152.53C586.563 151.38 584.878 150.281 582.954 149.319C581.008 148.367 578.979 147.53 576.929 146.746C572.807 145.197 568.529 143.995 564.355 143.085C560.14 142.164 556.165 141.495 552.2 141.128C548.278 140.731 544.679 140.543 541.625 140.469C535.516 140.292 531.573 140.543 531.573 140.543C531.573 140.543 534.188 142.938 538.612 146.348C542.87 149.8 548.435 154.423 555.328 158.765C561.751 163.231 569.073 167.562 576.96 170.156C584.47 172.834 592.452 173.838 600.307 171.034C600.088 163.294 594.763 157.216 588.236 152.53Z" fill="#F9B935" fill-opacity="0.2"/>
<path d="M549.953 101.014C542.359 97.6144 533.342 95.9198 524.974 95.1876C516.679 94.424 508.499 94.8006 502.579 95.3131C496.679 95.8048 492.903 96.4742 492.903 96.4742C492.903 96.4742 495.999 98.5558 501.062 101.422C506.03 104.34 512.485 108.19 520.079 111.558C523.949 113.232 527.683 114.905 531.554 116.307C535.455 117.709 539.462 118.849 543.478 119.529C547.443 120.219 551.439 120.481 555.257 120.073C559.001 119.696 562.6 118.692 565.947 116.757C563.426 109.644 557.213 104.55 549.953 101.014Z" fill="#F9B935" fill-opacity="0.2"/>
<path d="M479.691 63.5464C493.928 70.6176 511.731 76.2034 524.168 68.7138C521.595 61.8309 515.465 56.9878 508.342 53.5882C501.26 50.1572 492.432 48.4522 484.231 47.584C467.756 45.8685 453.206 47.835 453.206 47.835C453.206 47.835 456.114 50.0317 460.904 53.0861C465.643 56.151 472.39 60.0317 479.691 63.5464Z" fill="#F9B935" fill-opacity="0.2"/>
<path d="M635.497 416.057C644.493 417.647 652.986 415.189 660.737 410.116C664.953 407.459 668.426 404.08 671.846 400.304C675.225 396.538 678.332 392.375 681.114 388.097C686.428 379.572 690.099 370.66 692.715 363.892C695.026 357.155 696.041 352.574 696.041 352.574C696.041 352.574 691.825 354.457 685.706 357.773C682.62 359.404 679.168 361.413 675.288 363.714C671.407 366.015 667.317 368.599 663.3 371.444C655.246 377.114 647.704 383.714 641.888 391.057C641.616 391.413 641.407 391.748 641.124 392.114C643.949 378.986 646.281 365.743 648.018 352.448C655.549 352.124 662.139 349.028 667.84 344.164C669.545 342.689 671.208 341.068 672.746 339.342C674.252 337.595 675.612 335.743 676.919 333.819C679.535 329.948 681.815 325.743 683.802 321.465C684.786 319.331 685.696 317.176 686.522 315.084C687.286 313.023 687.997 310.994 688.625 309.028C689.89 305.084 690.884 301.381 691.648 298.201C693.248 291.862 693.687 287.521 693.687 287.521C693.687 287.521 689.901 289.571 684.315 293.065C678.687 296.548 671.355 301.507 664.419 307.459C660.947 310.429 657.641 313.62 654.608 317.061C653.321 318.484 652.118 319.948 650.988 321.444C651.637 310.22 651.825 298.965 651.438 287.751C656.804 286.287 661.417 283.306 665.371 279.32C668.311 276.318 670.947 272.772 673.133 268.933C675.214 265.063 676.961 260.889 678.405 256.663C679.817 252.458 681.145 248.253 681.815 244.195C682.526 240.167 683.018 236.36 683.363 233.117C683.698 229.843 683.886 227.123 683.98 225.22C684.033 223.316 683.959 222.197 683.959 222.197C683.959 222.197 683.164 222.793 681.689 223.87C680.267 224.958 678.143 226.517 675.654 228.452C670.696 232.375 664.263 237.866 658.3 244.184C656.825 245.764 655.371 247.395 653.98 249.08C652.557 250.753 651.124 252.458 649.827 254.226C649.461 254.697 649.158 255.178 648.792 255.68C647.359 244.937 645.35 234.257 642.714 223.64C647.725 221.757 651.762 218.431 654.963 214.069C659.942 207.636 662.286 199.027 663.551 190.324C663.855 188.159 664.137 185.983 664.263 183.839C664.304 181.705 664.304 179.592 664.242 177.552C664.116 173.462 663.813 169.634 663.468 166.36C663.185 163.075 662.599 160.355 662.16 158.473C661.7 156.579 661.438 155.491 661.438 155.491C661.438 155.491 658.76 158.232 655.078 162.699C651.396 167.165 646.187 173.378 641.836 180.24C639.597 183.692 637.62 187.27 635.852 190.983C635.141 192.353 634.545 193.745 633.959 195.125C629.555 182.908 624.744 171.642 619.461 161.129C624.921 158.713 628.708 154.487 631.062 149.09C633.76 142.29 634.21 133.567 633.227 125.041C631.857 116.694 629.472 108.326 627.076 102.301C624.534 96.3698 622.463 92.4576 622.463 92.4576C622.463 92.4576 620.559 95.4388 618.112 100.209C616.888 102.594 615.538 105.407 614.189 108.514C612.882 111.6 611.323 115.125 610.089 118.723C608.812 122.332 607.725 126.077 607.013 129.853C606.668 131.736 606.386 133.629 606.25 135.512C606.218 136.182 606.145 136.883 606.093 137.552C598.405 125.46 589.932 114.194 580.57 103.274C583.153 101.935 585.277 100.219 586.867 98.1376C588.833 95.5539 589.994 92.4681 590.486 89.058C591.009 85.648 590.884 81.8927 590.287 78.012C589.702 74.1207 588.687 70.083 587.16 66.3383C584.199 58.7859 580.35 51.38 576.982 46.1499C573.551 41.0034 570.957 37.698 570.957 37.698C570.957 37.698 569.67 40.6896 568.216 45.4281C566.762 50.1666 565.172 56.5579 564.157 63.7232C563.195 70.8466 563.174 78.3467 565.151 85.3551C565.277 85.8467 565.402 86.3279 565.559 86.8091C554.639 75.4178 542.651 64.1207 529.555 52.2796C542.526 44.9679 539.011 29.6331 531.751 15.7313C528.038 8.87984 523.352 2.63505 519.67 -2.00932C515.967 -6.63277 513.226 -9.57211 513.226 -9.57211C513.226 -9.57211 509.576 2.24805 509.712 15.6686C509.785 22.3946 510.904 29.4134 513.666 36.0034C514.251 37.3319 514.921 38.6185 515.674 39.8528C515.653 39.8424 515.653 39.8423 515.632 39.8319C503.697 29.267 482.923 18.3464 482.923 18.3464C565.622 87.6145 628.76 171.37 638.175 267.406C641.574 302.281 637.38 337.093 631.951 371.685C625.842 410.733 615.999 449.656 595.769 485.859C564.513 541.811 522.787 586.581 466.04 621.56C466.04 621.56 380.851 664.28 289.564 665.222V665.18C287.378 665.211 285.192 665.201 282.985 665.201C281.928 665.201 280.893 665.201 279.836 665.18V665.19C189.658 663.883 103.35 621.539 103.35 621.539C46.5925 586.55 4.8768 541.769 -26.3995 485.828C-46.6297 449.645 -56.4728 410.691 -62.5816 371.664C-68.0001 337.072 -72.2261 302.26 -68.816 267.385C-59.3808 171.36 3.7471 87.5936 86.4462 18.3255C86.4462 18.3255 65.672 29.2461 53.7159 39.811C53.7159 39.8214 53.7055 39.8214 53.695 39.8214C54.4586 38.5766 55.1281 37.3109 55.7034 35.9825C58.4649 29.382 59.5842 22.3632 59.6574 15.6372C59.7724 2.2271 56.1322 -9.59302 56.1322 -9.59302C56.1322 -9.59302 53.3812 -6.65368 49.6887 -2.03023C46.0067 2.61414 41.2996 8.8694 37.5862 15.7C30.3267 29.6226 26.833 44.9469 39.8038 52.2587C26.6865 64.0893 14.72 75.3969 3.77849 86.7777C3.93539 86.307 4.07135 85.8258 4.19687 85.3237C6.16341 78.3258 6.1425 70.8257 5.19061 63.7023C4.17596 56.537 2.586 50.1353 1.13201 45.4072C-0.321968 40.6687 -1.60856 37.6666 -1.60856 37.6666C-1.60856 37.6666 -4.20271 40.9825 -7.62323 46.1394C-10.981 51.3696 -14.8513 58.7755 -17.8116 66.3278C-19.3388 70.0621 -20.3639 74.1103 -20.9392 78.0015C-21.5355 81.8823 -21.6505 85.6166 -21.1589 89.0476C-20.6359 92.4576 -19.4852 95.5434 -17.5082 98.1167C-15.9182 100.209 -13.8158 101.914 -11.2007 103.263C-20.5627 114.184 -29.0564 125.46 -36.7342 137.541C-36.7866 136.862 -36.8388 136.182 -36.8911 135.502C-37.0376 133.629 -37.2782 131.726 -37.6548 129.843C-38.3661 126.067 -39.4435 122.322 -40.7196 118.713C-41.9749 115.125 -43.5335 111.6 -44.841 108.514C-46.1694 105.397 -47.5293 102.594 -48.7531 100.209C-51.1904 95.4388 -53.0941 92.4576 -53.0941 92.4576C-53.0941 92.4576 -55.1653 96.3488 -57.7072 102.301C-60.113 108.326 -62.4875 116.684 -63.8683 125.041C-64.8411 133.567 -64.3913 142.29 -61.7134 149.09C-59.339 154.477 -55.5732 158.703 -50.092 161.119C-55.3954 171.642 -60.2071 182.908 -64.59 195.125C-65.1549 193.724 -65.793 192.353 -66.4834 190.973C-68.2511 187.27 -70.2386 183.682 -72.4666 180.24C-76.8286 173.368 -82.0273 167.165 -85.7094 162.699C-89.4018 158.232 -92.0901 155.491 -92.0901 155.491C-92.0901 155.491 -92.3412 156.579 -92.8119 158.483C-93.2512 160.366 -93.837 163.075 -94.1194 166.37C-94.4646 169.634 -94.7575 173.462 -94.8831 177.563C-94.9458 179.602 -94.9458 181.715 -94.904 183.849C-94.7784 186.004 -94.5065 188.169 -94.2031 190.335C-92.906 199.038 -90.5734 207.636 -85.6048 214.079C-82.3935 218.441 -78.3453 221.757 -73.3453 223.651C-75.9917 234.257 -77.9897 244.937 -79.4332 255.691C-79.7575 255.199 -80.1026 254.718 -80.4583 254.237C-81.7658 252.469 -83.178 250.753 -84.611 249.09C-85.9918 247.406 -87.4458 245.785 -88.9416 244.184C-94.8831 237.877 -101.337 232.395 -106.285 228.462C-108.753 226.506 -110.887 224.948 -112.31 223.849C-113.774 222.793 -114.601 222.186 -114.601 222.186C-114.601 222.186 -114.674 223.316 -114.622 225.22C-114.507 227.123 -114.339 229.843 -113.994 233.107C-113.659 236.37 -113.168 240.167 -112.435 244.195C-111.776 248.253 -110.448 252.458 -109.046 256.663C-107.592 260.889 -105.835 265.063 -103.743 268.933C-101.557 272.772 -98.9416 276.329 -95.9814 279.32C-92.0588 283.306 -87.4248 286.276 -82.0587 287.751C-82.4457 298.965 -82.2575 310.21 -81.6089 321.433C-82.7491 319.948 -83.9625 318.484 -85.2282 317.061C-88.2617 313.62 -91.5776 310.429 -95.04 307.459C-101.975 301.517 -109.318 296.548 -114.935 293.076C-120.532 289.561 -124.297 287.511 -124.297 287.511C-124.297 287.511 -123.869 291.873 -122.299 298.212C-121.515 301.392 -120.521 305.095 -119.256 309.028C-118.617 311.005 -117.938 313.034 -117.153 315.095C-116.337 317.187 -115.406 319.341 -114.423 321.475C-112.435 325.733 -110.166 329.959 -107.55 333.829C-106.243 335.764 -104.883 337.605 -103.398 339.331C-101.829 341.078 -100.186 342.699 -98.4709 344.153C-92.7701 349.038 -86.1591 352.124 -78.6591 352.459C-76.8913 365.754 -74.5691 378.996 -71.7762 392.124C-72.0168 391.758 -72.2469 391.413 -72.5084 391.068C-78.3244 383.714 -85.8662 377.124 -93.9311 371.444C-97.9374 368.609 -102.038 366.026 -105.919 363.725C-109.81 361.423 -113.241 359.404 -116.348 357.783C-122.488 354.457 -126.672 352.584 -126.672 352.584C-126.672 352.584 -125.668 357.166 -123.366 363.902C-120.73 370.67 -117.069 379.561 -111.745 388.107C-108.942 392.375 -105.845 396.549 -102.477 400.315C-99.0672 404.08 -95.5734 407.469 -91.3788 410.126C-83.6278 415.189 -75.134 417.658 -66.1277 416.057C-65.7093 417.731 -65.2699 419.384 -64.8306 421.036C-61.7239 432.783 -57.9373 444.394 -53.4184 455.806C-54.2553 454.938 -55.1339 454.081 -56.0335 453.233C-57.885 451.528 -59.8933 449.928 -61.9749 448.359C-64.067 446.79 -66.0649 445.252 -68.2616 443.798C-72.6235 440.869 -77.2888 438.17 -81.9959 435.744C-86.6403 433.285 -91.5253 431.099 -95.7512 429.122C-100.019 427.166 -104.057 425.482 -107.509 424.091C-114.444 421.329 -119.099 419.802 -119.099 419.802C-119.099 419.802 -117.122 424.509 -113.534 431.319C-111.787 434.729 -109.099 438.631 -106.327 442.721C-103.46 446.821 -100.291 451.12 -96.7345 455.21C-92.9165 459.311 -88.8056 463.233 -84.496 466.696C-82.3516 468.432 -80.1654 470.043 -77.9373 471.497C-76.8181 472.208 -75.6989 472.909 -74.5796 473.558C-73.3767 474.196 -72.1842 474.792 -71.0022 475.325C-61.7971 479.52 -52.4874 480.796 -43.6485 477.794C-37.3096 490.587 -29.9351 503.077 -21.4099 515.158C-22.7593 514.144 -24.161 513.171 -25.6254 512.261C-27.9476 510.828 -30.3953 509.489 -32.9058 508.223C-35.2907 506.895 -37.8012 505.671 -40.3744 504.499C-45.4895 502.167 -50.9079 500.127 -56.3055 498.296C-59.0042 497.407 -61.6925 496.549 -64.339 495.733C-66.9436 494.949 -69.4436 494.185 -71.8285 493.464C-76.6403 492.041 -81.1487 490.848 -84.998 489.886C-92.7282 487.972 -97.8537 487.03 -97.8537 487.03C-97.8537 487.03 -94.6947 491.633 -89.36 498.212C-86.8181 501.518 -83.2198 505.158 -79.2867 508.966C-75.3641 512.784 -71.0022 516.717 -66.3996 520.451C-61.5147 524.07 -56.2636 527.459 -51.0126 530.315C-48.387 531.759 -45.7301 533.056 -43.0941 534.196C-40.479 535.347 -37.843 536.33 -35.0815 537.02C-24.4329 539.855 -14.527 539.625 -6.30524 534.918C2.00023 545.273 10.7764 555.713 20.0652 565.922C19.6781 565.755 19.3015 565.598 18.925 565.441C17.5547 564.897 16.1635 564.416 14.7618 563.924C13.381 563.443 12.0526 562.92 10.6509 562.46C7.86844 561.518 5.0128 560.692 2.10484 559.907C-3.71108 558.391 -9.73621 557.198 -15.6881 556.225C-21.7446 555.315 -27.2363 554.363 -32.5501 553.704C-37.8116 553.035 -42.7071 552.522 -46.8808 552.135C-55.2176 551.393 -60.6883 551.215 -60.6883 551.215C-60.6883 551.215 -56.2427 555.42 -49.0774 561.257C-47.2991 562.711 -45.3326 564.269 -43.2406 565.891C-41.1067 567.481 -38.6485 569.039 -36.1589 570.661C-31.1484 573.882 -25.6882 577.135 -20.0187 580.169C-18.5856 580.901 -17.1944 581.665 -15.7091 582.345C-14.2028 583.014 -12.686 583.652 -11.1588 584.28C-8.11488 585.525 -5.03955 586.675 -2.00607 587.679C4.09229 589.73 10.0965 591.215 15.7764 591.916C25.4627 592.941 34.2075 591.675 40.9753 587.554C48.5904 594.907 56.5193 601.979 64.7829 608.663C62.2829 608.297 59.7411 607.972 57.1678 607.711C50.9126 607.083 44.333 606.989 38.3393 606.728C26.1635 606.351 14.5003 606.874 5.86006 607.481C1.5295 607.774 -2.01653 608.108 -4.4747 608.349C-6.93287 608.589 -8.28223 608.726 -8.28223 608.726C-8.28223 608.726 -7.9475 608.945 -7.33035 609.374C-6.70273 609.813 -5.70901 610.368 -4.4747 611.09C-2.00607 612.554 1.57138 614.594 5.94379 616.905C10.3057 619.249 15.4522 621.874 21.0694 624.489C26.8853 626.895 33.2242 629.27 39.6991 631.372C42.9314 632.418 46.2264 633.391 49.4691 634.259C51.1218 634.709 52.7536 635.106 54.3854 635.504C56.0486 635.828 57.7222 636.131 59.3645 636.393C66.0172 637.449 72.4608 638.004 78.4022 637.836C86.5194 637.617 93.601 635.985 99.1868 632.627C102.283 634.437 105.411 636.184 108.591 637.847C109.292 638.224 109.856 638.339 110.275 638.265C153.183 661.885 206.279 676.414 249.983 681.634C214.982 688.14 173.852 695.316 130.17 701.969L83.0257 742.063C83.0257 742.063 189.104 706.728 288.048 684.218C386.991 706.728 493.069 742.063 493.069 742.063L445.925 701.969C401.123 695.148 359.01 687.774 323.435 681.142C377.556 674.981 422.985 659.102 459.429 638.265C459.806 638.224 460.203 638.129 460.716 637.857C463.896 636.184 467.023 634.437 470.119 632.627C475.674 635.985 482.787 637.617 490.894 637.836C496.825 637.993 503.279 637.449 509.921 636.383C511.574 636.111 513.258 635.818 514.921 635.493C516.563 635.096 518.185 634.698 519.827 634.259C523.09 633.38 526.375 632.397 529.607 631.362C536.072 629.259 542.421 626.885 548.237 624.489C553.854 621.874 559.011 619.249 563.373 616.895C567.735 614.583 571.302 612.554 573.802 611.079C575.036 610.357 576.019 609.792 576.647 609.374C577.275 608.935 577.589 608.715 577.589 608.715C577.589 608.715 576.25 608.59 573.802 608.338C571.333 608.098 567.766 607.774 563.446 607.47C554.816 606.864 543.164 606.351 530.977 606.717C524.984 606.979 518.415 607.073 512.138 607.721C509.586 607.962 507.034 608.286 504.534 608.663C512.787 601.979 520.726 594.907 528.341 587.554C535.109 591.675 543.854 592.93 553.53 591.905C559.21 591.205 565.224 589.719 571.302 587.679C574.356 586.675 577.432 585.514 580.465 584.269C582.003 583.663 583.52 583.014 585.026 582.345C586.511 581.654 587.902 580.891 589.335 580.158C595.005 577.125 600.465 573.872 605.476 570.661C607.955 569.039 610.402 567.491 612.547 565.891C614.649 564.269 616.616 562.711 618.405 561.257C625.559 555.42 629.995 551.215 629.995 551.215C629.995 551.215 624.545 551.393 616.218 552.146C612.024 552.533 607.139 553.035 601.888 553.704C596.574 554.374 591.082 555.305 585.026 556.225C579.084 557.198 573.049 558.391 567.222 559.907C564.314 560.692 561.459 561.518 558.687 562.46C557.285 562.92 555.957 563.443 554.565 563.935C553.164 564.416 551.783 564.907 550.423 565.451C550.026 565.598 549.66 565.755 549.273 565.922C558.572 555.713 567.337 545.284 575.643 534.918C583.886 539.625 593.792 539.855 604.419 537.02C607.191 536.33 609.806 535.347 612.453 534.206C615.078 533.056 617.735 531.759 620.35 530.315C625.601 527.459 630.863 524.07 635.727 520.451C640.329 516.727 644.712 512.794 648.645 508.976C652.568 505.179 656.166 501.518 658.698 498.212C664.022 491.654 667.191 487.03 667.191 487.03C667.191 487.03 662.055 487.982 654.346 489.886C650.486 490.848 645.988 492.041 641.177 493.464C638.781 494.185 636.281 494.959 633.666 495.733C631.02 496.549 628.342 497.397 625.654 498.307C620.246 500.116 614.838 502.177 609.712 504.499C607.139 505.681 604.639 506.905 602.243 508.223C599.743 509.489 597.285 510.838 594.984 512.261C593.499 513.181 592.107 514.144 590.737 515.158C599.262 503.077 606.658 490.587 612.976 477.794C621.836 480.796 631.135 479.52 640.319 475.336C641.522 474.792 642.714 474.206 643.917 473.558C645.047 472.909 646.156 472.219 647.275 471.497C649.513 470.053 651.7 468.432 653.844 466.696C658.133 463.254 662.254 459.321 666.083 455.21C669.65 451.11 672.809 446.811 675.664 442.721C678.436 438.62 681.135 434.719 682.861 431.319C686.459 424.52 688.436 419.802 688.436 419.802C688.436 419.802 683.771 421.329 676.857 424.091C673.384 425.482 669.367 427.166 665.089 429.122C660.863 431.099 655.978 433.306 651.323 435.744C646.626 438.181 641.951 440.859 637.61 443.798C635.403 445.252 633.394 446.79 631.313 448.359C629.21 449.928 627.202 451.549 625.361 453.244C624.451 454.091 623.582 454.938 622.756 455.806C627.275 444.405 631.062 432.783 634.179 421.036C634.639 419.363 635.068 417.71 635.497 416.057Z" fill="#F9B935" fill-opacity="0.2"/>
</svg>
