<svg width="119" height="50" viewBox="0 0 119 50" fill="none" xmlns="http://www.w3.org/2000/svg">
<g clip-path="url(#clip0_4408_11380)">
<path d="M65.8331 12.9612C66.6235 9.24312 69.3365 7.59853 70.5942 7.241C65.6166 5.19741 63.1848 7.6483 62.5889 9.3513C40.6157 -12.7535 16.5849 9.79553 18.3176 23.2607L15.5503 25.5951L17.3411 27.7457C24.3314 57.0325 55.1517 53.4329 63.2071 39.2501V48.3487C64.1829 50.2864 66.457 49.47 66.7053 48.3487V32.2669H102.854L106.352 26.1823C116.451 25.1402 117.025 22.054 116.111 19.8925C110.917 13.6182 100.925 23.2028 100.207 29.0684H28.3804L25.5738 32.2669H63.1379C46.0555 60.0149 23.0049 38.5202 25.1656 29.0684H21.0347V27.1759H37.9594C38.8654 26.2748 38.3368 25.2119 37.9594 24.7931H36.4123V15.5748H37.8252C38.4401 14.7747 38.2554 14.0246 37.8252 13.5821H30.521C29.8361 14.2634 30.2356 15.0009 30.521 15.2844H32.342V24.7931H21.0347V23.2607H25.1656C24.4376 22.2576 24.3059 20.5645 24.3314 19.8433C31.0674 -0.97268 49.8592 1.16341 60.3536 12.9612H65.8331Z" fill="white"/>
<path d="M34.4539 13.4574C35.6396 13.4574 36.6009 12.501 36.6009 11.3212C36.6009 10.1415 35.6396 9.18506 34.4539 9.18506C33.2681 9.18506 32.3069 10.1415 32.3069 11.3212C32.3069 12.501 33.2681 13.4574 34.4539 13.4574Z" fill="white"/>
<path d="M73.7714 34.5204V36.2731H73.6349C73.4703 35.7941 73.2234 35.4296 72.8942 35.1804C72.5649 34.931 72.205 34.8063 71.8143 34.8063C71.4409 34.8063 71.13 34.9115 70.8819 35.1217C70.6336 35.3294 70.4581 35.6204 70.3548 35.9945C70.2517 36.3684 70.2 36.7522 70.2 37.1458C70.2 37.6225 70.2566 38.0405 70.3697 38.4C70.4827 38.7593 70.6644 39.0233 70.9151 39.1921C71.1682 39.3607 71.4679 39.4451 71.8143 39.4451C71.9347 39.4451 72.0576 39.4328 72.1829 39.4083C72.3107 39.3814 72.4408 39.3435 72.5734 39.2947V38.2607C72.5734 38.065 72.5599 37.9391 72.5329 37.883C72.5059 37.8243 72.4495 37.7717 72.3635 37.7253C72.2799 37.6789 72.178 37.6555 72.0576 37.6555H71.9285V37.52H74.3573V37.6555C74.173 37.6678 74.0441 37.6935 73.9704 37.7326C73.8991 37.7692 73.8437 37.8316 73.8045 37.9196C73.7823 37.966 73.7714 38.0796 73.7714 38.2607V39.2947C73.452 39.4366 73.1189 39.5429 72.7725 39.6136C72.4284 39.687 72.0711 39.7237 71.7001 39.7237C71.2258 39.7237 70.8315 39.6601 70.5171 39.533C70.205 39.4036 69.9285 39.2348 69.6878 39.0271C69.4494 38.8168 69.2627 38.5808 69.1276 38.3194C68.9556 37.9818 68.8696 37.6042 68.8696 37.1862C68.8696 36.4381 69.1338 35.8061 69.662 35.2903C70.1903 34.7745 70.8549 34.5166 71.6558 34.5166C71.9041 34.5166 72.1275 34.5362 72.3266 34.5753C72.4346 34.5949 72.6092 34.6512 72.8499 34.7441C73.0933 34.8344 73.2369 34.8796 73.2812 34.8796C73.3499 34.8796 73.4138 34.8553 73.4728 34.8063C73.5318 34.7549 73.5859 34.6597 73.6349 34.5204H73.7714ZM77.5785 38.1909H75.8131L75.6029 38.6749C75.5342 38.8364 75.4998 38.9696 75.4998 39.0747C75.4998 39.214 75.5562 39.3166 75.6693 39.3826C75.7356 39.4217 75.8991 39.4512 76.1595 39.4708V39.6063H74.4974V39.4708C74.6767 39.4439 74.8241 39.3706 74.9395 39.2506C75.0551 39.1285 75.1975 38.8779 75.3672 38.499L77.1546 34.5314H77.2245L79.0269 38.6089C79.1987 38.9953 79.3401 39.2385 79.4505 39.3387C79.5342 39.4144 79.6522 39.4585 79.8045 39.4708V39.6063H77.3868V39.4708H77.4863C77.6804 39.4708 77.8166 39.4439 77.8953 39.3899C77.9493 39.351 77.9763 39.2947 77.9763 39.2213C77.9763 39.1773 77.969 39.132 77.9543 39.0856C77.9493 39.0636 77.9126 38.9719 77.8438 38.8107L77.5785 38.1909ZM77.4531 37.9196L76.7087 36.2071L75.942 37.9196H77.4531ZM81.8978 37.3401V38.7336C81.8978 39.0026 81.9137 39.1725 81.9457 39.2433C81.9801 39.3119 82.0391 39.3668 82.1227 39.4083C82.2061 39.45 82.3622 39.4708 82.5907 39.4708V39.6063H80.0329V39.4708C80.2639 39.4708 80.4198 39.45 80.5009 39.4083C80.5845 39.3644 80.6423 39.3081 80.6743 39.2397C80.7087 39.1711 80.7257 39.0026 80.7257 38.7336V35.5067C80.7257 35.2377 80.7087 35.0692 80.6743 35.0008C80.6423 34.9298 80.5845 34.8735 80.5009 34.832C80.4175 34.7905 80.2613 34.7698 80.0329 34.7698V34.634H82.3547C82.9591 34.634 83.4015 34.6755 83.6815 34.7587C83.9616 34.8417 84.1902 34.9958 84.367 35.2207C84.544 35.4431 84.6324 35.7047 84.6324 36.0055C84.6324 36.3721 84.4997 36.6753 84.2343 36.9148C84.0649 37.0664 83.8277 37.18 83.523 37.2559L84.7245 38.9389C84.8818 39.1565 84.9937 39.2923 85.06 39.346C85.1607 39.4217 85.2773 39.4634 85.41 39.4708V39.6063H83.8363L82.2258 37.3401H81.8978ZM81.8978 34.9018V37.0798H82.1078C82.4494 37.0798 82.7049 37.0492 82.8745 36.9881C83.0439 36.9247 83.1766 36.8123 83.2725 36.6508C83.3707 36.487 83.4199 36.2743 83.4199 36.0128C83.4199 35.6338 83.3301 35.354 83.1508 35.1731C82.974 34.9921 82.6878 34.9018 82.2921 34.9018H81.8978ZM88.9444 37.9123L90.3006 34.634H92.3352V34.7698H92.1729C92.0255 34.7698 91.9075 34.7953 91.8191 34.8466C91.7577 34.8808 91.7085 34.9383 91.6717 35.019C91.6447 35.0777 91.6312 35.2304 91.6312 35.4775V38.7557C91.6312 39.0099 91.6447 39.1688 91.6717 39.2324C91.6988 39.2959 91.754 39.3522 91.8376 39.401C91.921 39.4474 92.0328 39.4708 92.1729 39.4708H92.3352V39.6063H89.7258V39.4708H89.8879C90.0352 39.4708 90.1532 39.4451 90.2416 39.3937C90.3032 39.3595 90.3523 39.3008 90.3892 39.2176C90.4162 39.1591 90.4297 39.0049 90.4297 38.7557V35.0704L88.5132 39.6063H88.4248L86.4788 35.1034V38.6053C86.4788 38.8498 86.485 39 86.4973 39.0563C86.5293 39.1785 86.598 39.2789 86.7037 39.3569C86.8117 39.4328 86.9801 39.4708 87.2086 39.4708V39.6063H85.4986V39.4708H85.55C85.6607 39.4731 85.7639 39.4559 85.8597 39.4194C85.9554 39.3802 86.0279 39.3289 86.0772 39.2654C86.1262 39.2018 86.1644 39.1126 86.1914 38.9976C86.1964 38.9708 86.1987 38.846 86.1987 38.6237V35.4775C86.1987 35.2257 86.1852 35.0692 86.1582 35.0081C86.1312 34.9445 86.076 34.8895 85.9924 34.8431C85.9087 34.7941 85.7971 34.7698 85.6569 34.7698H85.4986V34.634H87.5403L88.9444 37.9123ZM94.5316 34.92V36.9443H94.6311C94.9481 36.9443 95.1777 36.8453 95.3203 36.6472C95.4628 36.4492 95.5537 36.1569 95.5931 35.7708H95.7331V38.3743H95.5931C95.5635 38.0907 95.5009 37.8585 95.4051 37.6775C95.3118 37.4966 95.2023 37.3757 95.077 37.3146C94.9517 37.251 94.7699 37.2192 94.5316 37.2192V38.62C94.5316 38.8937 94.5427 39.0613 94.5648 39.1223C94.5894 39.1834 94.6335 39.2336 94.6974 39.2727C94.7614 39.3119 94.8645 39.3314 95.0071 39.3314H95.3056C95.7724 39.3314 96.1458 39.2237 96.4259 39.0087C96.7085 38.7935 96.9111 38.466 97.0341 38.0259H97.1704L96.9455 39.6063H92.6261V39.4708H92.792C92.937 39.4708 93.0538 39.4451 93.1422 39.3937C93.2061 39.3595 93.2552 39.3008 93.2896 39.2176C93.3166 39.1591 93.3301 39.0049 93.3301 38.7557V35.4848C93.3301 35.2599 93.3239 35.1217 93.3118 35.0704C93.2872 34.9848 93.2417 34.9188 93.1753 34.8723C93.082 34.804 92.9543 34.7698 92.792 34.7698H92.6261V34.634H96.8093V36.1043H96.6692C96.5979 35.7451 96.4972 35.4872 96.3669 35.3306C96.2392 35.1743 96.0574 35.0593 95.8215 34.986C95.684 34.9421 95.426 34.92 95.0476 34.92H94.5316ZM99.389 34.634L101.855 37.718V35.58C101.855 35.2818 101.812 35.0802 101.726 34.9751C101.608 34.8332 101.41 34.7648 101.132 34.7698V34.634H102.783V34.7698C102.572 34.7966 102.43 34.832 102.356 34.8761C102.285 34.9176 102.228 34.9872 102.186 35.085C102.147 35.1804 102.127 35.3455 102.127 35.58V39.72H102.002L98.6225 35.58V38.7409C98.6225 39.0271 98.6877 39.2202 98.8178 39.3204C98.9505 39.4206 99.1016 39.4708 99.2711 39.4708H99.389V39.6063H97.6163V39.4708C97.8916 39.4682 98.0833 39.4121 98.1913 39.302C98.2994 39.1921 98.3534 39.0049 98.3534 38.7409V35.2316L98.2465 35.0996C98.1409 34.9678 98.0475 34.8808 97.9665 34.8393C97.8854 34.7978 97.7686 34.7745 97.6163 34.7698V34.634H99.389Z" fill="white"/>
<path d="M107.99 35.95V29.1597H111.016C111.625 29.1597 112.087 29.2213 112.404 29.3448C112.72 29.4654 112.973 29.68 113.163 29.9887C113.352 30.2976 113.447 30.6387 113.447 31.0124C113.447 31.4941 113.29 31.9002 112.976 32.2306C112.663 32.5611 112.179 32.7709 111.524 32.8605C111.763 32.9749 111.944 33.0875 112.069 33.1986C112.332 33.4395 112.582 33.7407 112.818 34.102L114.005 35.95H112.869L111.966 34.5373C111.702 34.1296 111.485 33.8178 111.314 33.6016C111.144 33.3856 110.99 33.2342 110.854 33.1478C110.72 33.0613 110.584 33.001 110.444 32.967C110.341 32.9454 110.174 32.9346 109.941 32.9346H108.894V35.95H107.99ZM108.894 32.1565H110.835C111.248 32.1565 111.57 32.1148 111.803 32.0314C112.036 31.945 112.213 31.8091 112.334 31.6239C112.455 31.4354 112.515 31.2316 112.515 31.0124C112.515 30.6913 112.397 30.4273 112.162 30.2203C111.929 30.0134 111.56 29.9101 111.054 29.9101H108.894V32.1565Z" fill="white"/>
<path d="M2.62599 26.2737V27.7976C2.62599 28.0949 2.64365 28.2826 2.67895 28.3611C2.71697 28.4368 2.78214 28.4974 2.87448 28.5435C2.96952 28.5893 3.14195 28.6123 3.3918 28.6123V28.7623H0.585205V28.6123C0.840472 28.6123 1.01291 28.5893 1.10253 28.5435C1.19486 28.4949 1.25868 28.4326 1.29398 28.3569C1.332 28.2814 1.35101 28.0949 1.35101 27.7976V24.231C1.35101 23.9338 1.332 23.7474 1.29398 23.6717C1.25868 23.5935 1.19486 23.5312 1.10253 23.4854C1.0102 23.4395 0.837757 23.4164 0.585205 23.4164V23.2666H2.9926C3.78556 23.2666 4.35448 23.4069 4.69937 23.6879C5.04425 23.969 5.2167 24.3204 5.2167 24.7417C5.2167 25.0984 5.10535 25.4038 4.88267 25.6577C4.65999 25.9117 4.35312 26.0846 3.96209 26.1765C3.69866 26.2413 3.2533 26.2737 2.62599 26.2737ZM2.62599 23.5826V25.9577C2.71561 25.963 2.78351 25.9658 2.82967 25.9658C3.16098 25.9658 3.41624 25.8686 3.59548 25.6739C3.7747 25.4767 3.86432 25.1727 3.86432 24.7621C3.86432 24.354 3.7747 24.0555 3.59548 23.8664C3.41624 23.6773 3.14874 23.5826 2.793 23.5826H2.62599ZM5.75031 27.514C5.9404 27.514 6.10063 27.5802 6.23097 27.7126C6.36404 27.8451 6.43058 28.0043 6.43058 28.1909C6.43058 28.3773 6.36404 28.5368 6.23097 28.669C6.09791 28.7988 5.93768 28.8636 5.75031 28.8636C5.56293 28.8636 5.40272 28.7988 5.26965 28.669C5.13929 28.5368 5.07412 28.3773 5.07412 28.1909C5.07412 28.0043 5.13929 27.8451 5.26965 27.7126C5.40272 27.5802 5.56293 27.514 5.75031 27.514ZM12.056 23.2666V24.754H11.9093C11.8224 24.4109 11.726 24.1648 11.6201 24.0162C11.5142 23.865 11.3689 23.7447 11.1843 23.6555C11.0811 23.6069 10.9005 23.5826 10.6425 23.5826H10.2311V27.8219C10.2311 28.103 10.246 28.2787 10.2759 28.3488C10.3085 28.4192 10.3696 28.4812 10.4592 28.5354C10.5515 28.5866 10.6764 28.6123 10.8339 28.6123H11.0173V28.7623H8.12511V28.6123H8.30843C8.46864 28.6123 8.59763 28.584 8.69539 28.5273C8.766 28.4893 8.82168 28.4245 8.86242 28.3326C8.89227 28.2678 8.90721 28.0976 8.90721 27.8219V23.5826H8.50803C8.13598 23.5826 7.86578 23.6611 7.69741 23.8178C7.46116 24.0366 7.31179 24.3486 7.24934 24.754H7.09455V23.2666H12.056ZM12.7811 27.514C12.9711 27.514 13.1314 27.5802 13.2617 27.7126C13.3948 27.8451 13.4613 28.0043 13.4613 28.1909C13.4613 28.3773 13.3948 28.5368 13.2617 28.669C13.1287 28.7988 12.9684 28.8636 12.7811 28.8636C12.5937 28.8636 12.4335 28.7988 12.3004 28.669C12.17 28.5368 12.1049 28.3773 12.1049 28.1909C12.1049 28.0043 12.17 27.8451 12.3004 27.7126C12.4335 27.5802 12.5937 27.514 12.7811 27.514Z" fill="white"/>
<path d="M49.727 13.6953L49.839 18.2751H49.4215C49.2246 17.1268 48.7392 16.2047 47.9651 15.509C47.198 14.8065 46.3664 14.4552 45.4702 14.4552C44.7777 14.4552 44.2277 14.641 43.8204 15.0125C43.4199 15.3773 43.2197 15.7994 43.2197 16.279C43.2197 16.583 43.2908 16.8532 43.4334 17.0896C43.6303 17.4071 43.9461 17.7212 44.3805 18.0319C44.6997 18.2549 45.4362 18.65 46.5904 19.2174C48.2063 20.0077 49.2957 20.7541 49.8592 21.4567C50.416 22.1593 50.6943 22.963 50.6943 23.8682C50.6943 25.0166 50.2428 26.0061 49.34 26.8369C48.4438 27.661 47.3033 28.0731 45.9183 28.0731C45.4839 28.0731 45.0731 28.0292 44.686 27.9413C44.299 27.8535 43.8136 27.6881 43.2298 27.4448C42.9039 27.3099 42.6357 27.2423 42.4254 27.2423C42.2488 27.2423 42.0621 27.3099 41.8653 27.4448C41.6684 27.58 41.5087 27.7859 41.3866 28.063H41.0098V22.8753H41.3866C41.6853 24.3342 42.2589 25.4488 43.1077 26.219C43.963 26.9822 44.883 27.3638 45.8674 27.3638C46.6278 27.3638 47.232 27.1577 47.6801 26.7458C48.135 26.3338 48.3624 25.8541 48.3624 25.3069C48.3624 24.9828 48.274 24.6686 48.0976 24.3646C47.9278 24.0606 47.6664 23.7735 47.3134 23.5033C46.9605 23.2265 46.3358 22.8684 45.4396 22.4294C44.1836 21.8146 43.2807 21.2911 42.7309 20.8589C42.1809 20.4265 41.7566 19.9437 41.4579 19.4099C41.1659 18.8763 41.0199 18.2886 41.0199 17.6469C41.0199 16.5526 41.4239 15.6205 42.2317 14.8504C43.0397 14.0803 44.0581 13.6953 45.2868 13.6953C45.7349 13.6953 46.1695 13.7493 46.5904 13.8574C46.9094 13.9385 47.2963 14.0905 47.7514 14.3134C48.213 14.5295 48.5354 14.6376 48.7187 14.6376C48.8953 14.6376 49.0343 14.5836 49.1362 14.4755C49.2381 14.3674 49.3331 14.1073 49.4215 13.6953H49.727ZM64.6968 14.0094V17.728H64.3301C64.113 16.8701 63.8719 16.2554 63.6071 15.8839C63.3423 15.5056 62.9792 15.205 62.5174 14.9821C62.2596 14.8605 61.8081 14.7997 61.1632 14.7997H60.1345V25.3982C60.1345 26.1006 60.1718 26.5397 60.2465 26.7154C60.3279 26.8909 60.4807 27.0464 60.7047 27.1814C60.9355 27.3099 61.248 27.3739 61.6417 27.3739H62.0999V27.7488H54.8696V27.3739H55.3279C55.7285 27.3739 56.0509 27.3029 56.2954 27.1612C56.4718 27.0666 56.611 26.9045 56.7129 26.6749C56.7876 26.5126 56.8249 26.0871 56.8249 25.3982V14.7997H55.8268C54.8968 14.7997 54.2213 14.9956 53.8004 15.3874C53.2097 15.9345 52.8363 16.7147 52.6802 17.728H52.2932V14.0094H64.6968ZM71.1327 14.7997V20.3929H71.4078C72.2836 20.3929 72.9184 20.1191 73.3121 19.5721C73.7057 19.0249 73.957 18.2177 74.0657 17.1504H74.4526V24.3444H74.0657C73.9842 23.5608 73.811 22.9191 73.5462 22.4191C73.2882 21.9193 72.9861 21.585 72.6399 21.4162C72.2937 21.2405 71.7914 21.1527 71.1327 21.1527V25.0233C71.1327 25.7798 71.1633 26.2425 71.2245 26.4114C71.2924 26.5802 71.4146 26.7188 71.5911 26.8269C71.7675 26.935 72.0528 26.9889 72.4464 26.9889H73.2713C74.5612 26.9889 75.5931 26.6917 76.3672 26.0972C77.148 25.5027 77.7079 24.5976 78.0474 23.3818H78.4241L77.803 27.7488H65.8679V27.3739H66.3261C66.7267 27.3739 67.0491 27.3029 67.2936 27.1612C67.47 27.0666 67.6059 26.9045 67.701 26.6749C67.7757 26.5126 67.813 26.0871 67.813 25.3982V16.3601C67.813 15.7387 67.796 15.357 67.762 15.2152C67.6941 14.9787 67.5685 14.7964 67.3852 14.668C67.1272 14.4789 66.7742 14.3843 66.3261 14.3843H65.8679V14.0094H77.4262V18.0725H77.0393C76.8423 17.0795 76.564 16.3669 76.2043 15.9345C75.8511 15.5022 75.3488 15.1848 74.6971 14.9821C74.3169 14.8605 73.604 14.7997 72.5585 14.7997H71.1327ZM88.1698 19.6936L91.9785 25.3172C92.61 26.2492 93.0581 26.8166 93.3228 27.0193C93.5944 27.2152 93.9134 27.3334 94.28 27.3739V27.7488H87.5487V27.3739C88.085 27.3334 88.4312 27.2523 88.5873 27.1308C88.7435 27.0093 88.8217 26.8606 88.8217 26.685C88.8217 26.5634 88.7979 26.4553 88.7504 26.3606C88.6553 26.1581 88.4177 25.7798 88.0375 25.2259L86.0211 22.2571L83.9132 24.8205C83.2818 25.5974 82.9662 26.1243 82.9662 26.4012C82.9662 26.5972 83.0476 26.7794 83.2105 26.9484C83.3734 27.1172 83.6145 27.2389 83.9335 27.3132C84.0761 27.3537 84.3681 27.3739 84.8092 27.3739V27.7488H79.5037V27.3739C80.1079 27.2861 80.5832 27.1241 80.9294 26.8875C81.3843 26.5769 82.0191 25.9284 82.8337 24.9423L85.5732 21.6188L82.0598 16.4817C81.4826 15.6373 81.1535 15.1679 81.0719 15.0733C80.8887 14.8504 80.7088 14.6917 80.5322 14.5971C80.3556 14.5025 80.1113 14.4316 79.7991 14.3843V14.0094H86.6525V14.3843H86.3063C85.9126 14.3843 85.6375 14.4485 85.4814 14.5768C85.3253 14.6984 85.2472 14.8538 85.2472 15.0429C85.2472 15.1915 85.2711 15.3199 85.3185 15.4279L86.0211 16.4817L87.7321 19.0756L89.1882 17.3024C89.935 16.3905 90.3085 15.7522 90.3085 15.3874C90.3085 15.205 90.254 15.0361 90.1456 14.8808C90.0437 14.7254 89.8943 14.6038 89.6975 14.516C89.5006 14.4282 89.195 14.3843 88.7808 14.3843V14.0094H93.8625V14.3843C93.4619 14.3911 93.1395 14.4417 92.895 14.5363C92.6507 14.6241 92.3893 14.793 92.111 15.0429C91.9344 15.205 91.4931 15.7083 90.7872 16.5526L88.1698 19.6936Z" fill="white"/>
<path d="M78.5792 47.4953V47.6311H75.9661V47.4953H76.1319C76.2769 47.4953 76.3937 47.4696 76.4821 47.4184C76.5461 47.3841 76.5951 47.3254 76.6295 47.2424C76.6565 47.1837 76.67 47.0297 76.67 46.7803V43.5093C76.67 43.2552 76.6565 43.0963 76.6295 43.0327C76.6025 42.9692 76.5473 42.9141 76.4636 42.8677C76.3826 42.8188 76.272 42.7943 76.1319 42.7943H75.9661V42.6588H78.5792V42.7943H78.4134C78.2684 42.7943 78.1516 42.82 78.0632 42.8714C77.9992 42.9056 77.949 42.9643 77.912 43.0473C77.885 43.106 77.8715 43.2601 77.8715 43.5093V46.7803C77.8715 47.0344 77.885 47.1935 77.912 47.257C77.9416 47.3206 77.9968 47.3767 78.0779 47.4258C78.1615 47.4722 78.2733 47.4953 78.4134 47.4953H78.5792ZM80.6356 42.6588L83.1012 45.7426V43.6048C83.1012 43.3066 83.0583 43.1048 82.9723 42.9997C82.8543 42.858 82.6565 42.7894 82.379 42.7943V42.6588H84.03V42.7943C83.8186 42.8212 83.6762 42.8566 83.6025 42.9007C83.5312 42.9422 83.4746 43.0119 83.4329 43.1097C83.3936 43.205 83.3739 43.37 83.3739 43.6048V47.7447H83.2486L79.8691 43.6048V46.7657C79.8691 47.0516 79.9343 47.2447 80.0644 47.3449C80.197 47.4453 80.3482 47.4953 80.5176 47.4953H80.6356V47.6311H78.8629V47.4953C79.1382 47.4929 79.3298 47.4366 79.4379 47.3267C79.5459 47.2167 79.6 47.0297 79.6 46.7657V43.2564L79.4931 43.1244C79.3874 42.9924 79.2941 42.9056 79.213 42.8641C79.132 42.8224 79.0152 42.7993 78.8629 42.7943V42.6588H80.6356ZM84.31 47.6311V47.4953H84.4759C84.6209 47.4953 84.7315 47.4734 84.8076 47.4293C84.8863 47.3829 84.9441 47.3206 84.9808 47.2424C85.0028 47.191 85.014 47.037 85.014 46.7803V43.5093C85.014 43.2552 85.0005 43.0963 84.9734 43.0327C84.9464 42.9692 84.8912 42.9141 84.8076 42.8677C84.7266 42.8188 84.6159 42.7943 84.4759 42.7943H84.31V42.6588H86.5472C87.1443 42.6588 87.6245 42.7394 87.9882 42.9007C88.433 43.0987 88.7694 43.3981 88.9981 43.7991C89.2291 44.2001 89.3445 44.6534 89.3445 45.1595C89.3445 45.5092 89.2879 45.8319 89.1748 46.1275C89.0618 46.421 88.9156 46.6641 88.7363 46.8574C88.5569 47.0479 88.3493 47.202 88.1136 47.3194C87.8802 47.4343 87.5938 47.5234 87.2547 47.587C87.1049 47.6163 86.869 47.6311 86.5472 47.6311H84.31ZM86.2155 42.941V46.8206C86.2155 47.026 86.2252 47.1518 86.2449 47.1983C86.2645 47.2447 86.2977 47.2803 86.3444 47.3046C86.4107 47.3414 86.5067 47.3597 86.632 47.3597C87.0422 47.3597 87.3556 47.2204 87.5717 46.9416C87.8665 46.5651 88.0141 45.9809 88.0141 45.1888C88.0141 44.5509 87.9133 44.0412 87.7117 43.6597C87.552 43.3615 87.3469 43.1586 87.0964 43.051C86.9194 42.9752 86.6258 42.9386 86.2155 42.941ZM92.5803 42.589C93.3764 42.5597 94.0225 42.7908 94.5189 43.2821C95.0177 43.7734 95.267 44.3882 95.267 45.1265C95.267 45.7572 95.0814 46.3121 94.7106 46.7914C94.2192 47.4269 93.525 47.7447 92.6282 47.7447C91.729 47.7447 91.0336 47.4416 90.5422 46.8352C90.1541 46.3562 89.96 45.7878 89.96 45.1301C89.96 44.392 90.2117 43.7771 90.7154 43.2856C91.2215 42.792 91.8432 42.5597 92.5803 42.589ZM92.6246 42.8238C92.1676 42.8238 91.8198 43.056 91.5816 43.5204C91.3874 43.9018 91.2904 44.4493 91.2904 45.1631C91.2904 46.0115 91.4402 46.6386 91.7399 47.0443C91.9489 47.3279 92.2413 47.4696 92.6171 47.4696C92.8703 47.4696 93.0814 47.4086 93.2511 47.2864C93.4672 47.1299 93.6356 46.8805 93.756 46.5382C93.8764 46.1935 93.9365 45.7449 93.9365 45.1926C93.9365 44.5348 93.8752 44.0435 93.7522 43.7184C93.6295 43.3908 93.4722 43.1597 93.2805 43.0254C93.0914 42.891 92.8727 42.8238 92.6246 42.8238ZM97.4193 42.6588L99.8849 45.7426V43.6048C99.8849 43.3066 99.842 43.1048 99.7559 42.9997C99.638 42.858 99.4401 42.7894 99.1626 42.7943V42.6588H100.814V42.7943C100.602 42.8212 100.46 42.8566 100.386 42.9007C100.315 42.9422 100.258 43.0119 100.217 43.1097C100.177 43.205 100.158 43.37 100.158 43.6048V47.7447H100.032L96.6528 43.6048V46.7657C96.6528 47.0516 96.7179 47.2447 96.848 47.3449C96.9807 47.4453 97.1319 47.4953 97.3013 47.4953H97.4193V47.6311H95.6465V47.4953C95.9218 47.4929 96.1135 47.4366 96.2216 47.3267C96.3296 47.2167 96.3836 47.0297 96.3836 46.7657V43.2564L96.2768 43.1244C96.1711 42.9924 96.0778 42.9056 95.9967 42.8641C95.9157 42.8224 95.7989 42.7993 95.6465 42.7943V42.6588H97.4193ZM103.051 42.9447V44.9688H103.15C103.467 44.9688 103.697 44.8698 103.839 44.6718C103.982 44.4738 104.073 44.1817 104.112 43.7953H104.252V46.3989H104.112C104.083 46.1153 104.02 45.8831 103.924 45.7022C103.831 45.5214 103.722 45.4003 103.596 45.3392C103.471 45.2756 103.289 45.2439 103.051 45.2439V46.6445C103.051 46.9184 103.062 47.0858 103.084 47.1469C103.108 47.2082 103.153 47.2582 103.217 47.2973C103.28 47.3364 103.384 47.356 103.526 47.356H103.825C104.292 47.356 104.665 47.2485 104.945 47.0333C105.228 46.8182 105.43 46.4906 105.553 46.0507H105.69L105.465 47.6311H101.145V47.4953H101.311C101.456 47.4953 101.573 47.4696 101.661 47.4184C101.725 47.3841 101.774 47.3254 101.809 47.2424C101.836 47.1837 101.849 47.0297 101.849 46.7803V43.5093C101.849 43.2844 101.843 43.1463 101.831 43.0951C101.806 43.0095 101.761 42.9435 101.695 42.8971C101.601 42.8285 101.473 42.7943 101.311 42.7943H101.145V42.6588H105.328V44.1291H105.188C105.117 43.7698 105.016 43.5119 104.886 43.3554C104.758 43.1989 104.576 43.0841 104.341 43.0107C104.203 42.9667 103.945 42.9447 103.567 42.9447H103.051ZM109.574 42.5449L109.615 44.2024H109.464C109.392 43.7868 109.217 43.4532 108.937 43.2014C108.659 42.9471 108.358 42.82 108.034 42.82C107.783 42.82 107.584 42.8872 107.436 43.0216C107.292 43.1536 107.219 43.3066 107.219 43.4801C107.219 43.59 107.245 43.6878 107.296 43.7734C107.368 43.8884 107.482 44.002 107.639 44.1145C107.755 44.1951 108.021 44.3382 108.439 44.5435C109.024 44.8295 109.418 45.0997 109.622 45.3538C109.823 45.6082 109.924 45.8991 109.924 46.2265C109.924 46.6422 109.761 47.0003 109.434 47.3011C109.11 47.5993 108.697 47.7483 108.196 47.7483C108.038 47.7483 107.89 47.7325 107.75 47.7007C107.61 47.6688 107.434 47.609 107.223 47.521C107.105 47.4722 107.008 47.4477 106.932 47.4477C106.868 47.4477 106.8 47.4722 106.729 47.521C106.658 47.5698 106.6 47.6445 106.556 47.7447H106.419V45.8673H106.556C106.664 46.3953 106.871 46.7987 107.178 47.0773C107.488 47.3536 107.821 47.4918 108.177 47.4918C108.452 47.4918 108.671 47.4171 108.833 47.268C108.998 47.1188 109.08 46.9453 109.08 46.7473C109.08 46.6299 109.048 46.5163 108.984 46.4062C108.923 46.2963 108.828 46.1924 108.701 46.0945C108.573 45.9943 108.347 45.8649 108.022 45.7058C107.568 45.4835 107.241 45.2939 107.042 45.1376C106.843 44.9811 106.689 44.8062 106.581 44.6131C106.476 44.42 106.423 44.2074 106.423 43.9752C106.423 43.5791 106.569 43.2418 106.861 42.9631C107.154 42.6843 107.523 42.5449 107.967 42.5449C108.129 42.5449 108.287 42.5645 108.439 42.6036C108.554 42.6331 108.694 42.688 108.859 42.7686C109.026 42.8469 109.143 42.886 109.209 42.886C109.273 42.886 109.323 42.8665 109.36 42.8273C109.397 42.7882 109.432 42.6941 109.464 42.5449H109.574ZM112.994 47.4953V47.6311H110.381V47.4953H110.547C110.692 47.4953 110.809 47.4696 110.897 47.4184C110.961 47.3841 111.01 47.3254 111.045 47.2424C111.072 47.1837 111.085 47.0297 111.085 46.7803V43.5093C111.085 43.2552 111.072 43.0963 111.045 43.0327C111.018 42.9692 110.962 42.9141 110.879 42.8677C110.798 42.8188 110.687 42.7943 110.547 42.7943H110.381V42.6588H112.994V42.7943H112.828C112.683 42.7943 112.567 42.82 112.478 42.8714C112.414 42.9056 112.364 42.9643 112.327 43.0473C112.3 43.106 112.287 43.2601 112.287 43.5093V46.7803C112.287 47.0344 112.3 47.1935 112.327 47.257C112.357 47.3206 112.412 47.3767 112.493 47.4258C112.576 47.4722 112.688 47.4953 112.828 47.4953H112.994ZM116.311 46.2157H114.546L114.336 46.6997C114.267 46.8609 114.233 46.9941 114.233 47.0993C114.233 47.2386 114.289 47.3414 114.402 47.4074C114.468 47.4465 114.632 47.4758 114.892 47.4953V47.6311H113.23V47.4953C113.409 47.4684 113.557 47.3951 113.672 47.2754C113.788 47.153 113.93 46.9024 114.1 46.5236L115.887 42.556H115.957L117.76 46.6337C117.931 47.0198 118.073 47.2631 118.183 47.3633C118.267 47.4392 118.385 47.4831 118.537 47.4953V47.6311H116.12V47.4953H116.219C116.413 47.4953 116.549 47.4684 116.628 47.4147C116.682 47.3756 116.709 47.3194 116.709 47.2459C116.709 47.202 116.702 47.1568 116.687 47.1103C116.682 47.0884 116.645 46.9967 116.576 46.8352L116.311 46.2157ZM116.186 45.9443L115.441 44.2317L114.675 45.9443H116.186Z" fill="white"/>
<mask id="mask0_4408_11380" style="mask-type:alpha" maskUnits="userSpaceOnUse" x="104" y="26" width="13" height="13">
<path fill-rule="evenodd" clip-rule="evenodd" d="M110.685 38.9451C114.158 38.9451 116.973 36.1443 116.973 32.6893C116.973 29.2344 114.158 26.4336 110.685 26.4336C107.213 26.4336 104.398 29.2344 104.398 32.6893C104.398 36.1443 107.213 38.9451 110.685 38.9451ZM110.686 37.5302C113.373 37.5302 115.551 35.3628 115.551 32.6893C115.551 30.0158 113.373 27.8484 110.686 27.8484C107.998 27.8484 105.82 30.0158 105.82 32.6893C105.82 35.3628 107.998 37.5302 110.686 37.5302Z" fill="white"/>
</mask>
<g mask="url(#mask0_4408_11380)">
<path fill-rule="evenodd" clip-rule="evenodd" d="M110.685 38.9451C114.158 38.9451 116.973 36.1443 116.973 32.6893C116.973 29.2344 114.158 26.4336 110.685 26.4336C107.213 26.4336 104.398 29.2344 104.398 32.6893C104.398 36.1443 107.213 38.9451 110.685 38.9451ZM110.686 37.5302C113.373 37.5302 115.551 35.3628 115.551 32.6893C115.551 30.0158 113.373 27.8484 110.686 27.8484C107.998 27.8484 105.82 30.0158 105.82 32.6893C105.82 35.3628 107.998 37.5302 110.686 37.5302Z" fill="white"/>
<path d="M116.774 32.6892C116.774 36.0351 114.048 38.7473 110.685 38.7473V39.1426C114.268 39.1426 117.171 36.2532 117.171 32.6892H116.774ZM110.685 26.6311C114.048 26.6311 116.774 29.3434 116.774 32.6892H117.171C117.171 29.1252 114.268 26.2358 110.685 26.2358V26.6311ZM104.597 32.6892C104.597 29.3434 107.323 26.6311 110.685 26.6311V26.2358C107.103 26.2358 104.199 29.1252 104.199 32.6892H104.597ZM110.685 38.7473C107.323 38.7473 104.597 36.0351 104.597 32.6892H104.199C104.199 36.2532 107.103 39.1426 110.685 39.1426V38.7473ZM115.352 32.6892C115.352 35.2536 113.263 37.3325 110.686 37.3325V37.7277C113.483 37.7277 115.75 35.472 115.75 32.6892H115.352ZM110.686 28.0459C113.263 28.0459 115.352 30.1248 115.352 32.6892H115.75C115.75 29.9066 113.483 27.6507 110.686 27.6507V28.0459ZM106.019 32.6892C106.019 30.1248 108.108 28.0459 110.686 28.0459V27.6507C107.889 27.6507 105.622 29.9066 105.622 32.6892H106.019ZM110.686 37.3325C108.108 37.3325 106.019 35.2536 106.019 32.6892H105.622C105.622 35.472 107.889 37.7277 110.686 37.7277V37.3325Z" fill="white"/>
</g>
</g>
<defs>
<clipPath id="clip0_4408_11380">
<rect width="118.382" height="50" fill="white" transform="translate(0.308594)"/>
</clipPath>
</defs>
</svg>
