<svg width="596" height="253" viewBox="0 0 596 253" fill="none" xmlns="http://www.w3.org/2000/svg">
<path d="M329.886 65.5835C333.865 46.7699 347.524 38.4483 353.856 36.6392C328.796 26.2986 316.553 38.7001 313.553 47.3173C202.928 -64.533 81.9442 49.5651 90.6677 117.699L76.7354 129.511L85.7514 140.393C120.944 288.584 276.11 270.37 316.665 198.605V244.644C321.578 254.449 333.027 250.318 334.277 244.644V163.27H516.269L533.882 132.482C584.721 127.209 587.613 111.593 583.01 100.656C556.86 68.9079 506.556 117.406 502.941 147.086H141.329L127.199 163.27H316.317C230.315 303.675 114.266 194.912 125.144 147.086H104.347V137.51H189.555C194.116 132.95 191.455 127.572 189.555 125.453H181.766V78.8081H188.879C191.975 74.7599 191.045 70.9641 188.879 68.7252H152.106C148.658 72.1727 150.669 75.9041 152.106 77.3389H161.274V125.453H104.347V117.699H125.144C121.479 112.623 120.816 104.056 120.944 100.407C154.857 -4.92204 249.465 5.88657 302.299 65.5835H329.886Z" fill="#FFAE00"/>
<circle cx="171.906" cy="57.2856" r="10.8091" fill="#FFAE00"/>
<path d="M369.851 174.673V183.542H369.164C368.335 181.118 367.092 179.274 365.435 178.013C363.777 176.751 361.965 176.12 359.998 176.12C358.118 176.12 356.553 176.652 355.304 177.716C354.054 178.767 353.17 180.239 352.65 182.132C352.131 184.024 351.871 185.966 351.871 187.958C351.871 190.37 352.156 192.485 352.725 194.304C353.294 196.122 354.209 197.458 355.471 198.312C356.745 199.165 358.254 199.592 359.998 199.592C360.604 199.592 361.223 199.53 361.854 199.406C362.497 199.27 363.152 199.078 363.82 198.831V193.599C363.82 192.609 363.752 191.972 363.616 191.688C363.48 191.391 363.196 191.125 362.763 190.89C362.342 190.655 361.829 190.537 361.223 190.537H360.573V189.851H372.801V190.537C371.873 190.599 371.224 190.729 370.853 190.927C370.494 191.112 370.215 191.428 370.018 191.873C369.906 192.108 369.851 192.683 369.851 193.599V198.831C368.243 199.549 366.566 200.087 364.822 200.445C363.09 200.816 361.291 201.002 359.423 201.002C357.035 201.002 355.05 200.68 353.467 200.037C351.896 199.382 350.504 198.528 349.292 197.477C348.092 196.413 347.152 195.219 346.472 193.896C345.606 192.188 345.173 190.277 345.173 188.162C345.173 184.377 346.503 181.179 349.162 178.569C351.822 175.959 355.168 174.654 359.2 174.654C360.45 174.654 361.575 174.753 362.577 174.951C363.121 175.05 364 175.335 365.212 175.805C366.437 176.262 367.16 176.491 367.383 176.491C367.729 176.491 368.051 176.368 368.348 176.12C368.645 175.86 368.917 175.378 369.164 174.673H369.851ZM389.018 193.246H380.13L379.072 195.695C378.726 196.512 378.553 197.186 378.553 197.718C378.553 198.423 378.837 198.942 379.406 199.276C379.74 199.474 380.563 199.623 381.874 199.722V200.408H373.506V199.722C374.409 199.586 375.151 199.215 375.732 198.608C376.314 197.99 377.031 196.722 377.885 194.805L386.884 174.729H387.236L396.31 195.361C397.175 197.316 397.887 198.547 398.443 199.054C398.864 199.437 399.458 199.66 400.225 199.722V200.408H388.053V199.722H388.554C389.531 199.722 390.217 199.586 390.613 199.313C390.885 199.116 391.021 198.831 391.021 198.46C391.021 198.237 390.984 198.008 390.91 197.773C390.885 197.662 390.7 197.198 390.354 196.382L389.018 193.246ZM388.387 191.873L384.639 183.208L380.779 191.873H388.387ZM410.764 188.941V195.992C410.764 197.353 410.844 198.213 411.005 198.571C411.178 198.918 411.475 199.196 411.896 199.406C412.316 199.617 413.102 199.722 414.252 199.722V200.408H401.375V199.722C402.538 199.722 403.323 199.617 403.731 199.406C404.152 199.184 404.443 198.899 404.604 198.553C404.777 198.206 404.863 197.353 404.863 195.992V179.664C404.863 178.303 404.777 177.45 404.604 177.104C404.443 176.745 404.152 176.46 403.731 176.25C403.311 176.04 402.525 175.935 401.375 175.935V175.248H413.064C416.107 175.248 418.334 175.458 419.744 175.879C421.154 176.299 422.305 177.079 423.195 178.217C424.086 179.342 424.531 180.666 424.531 182.188C424.531 184.043 423.863 185.577 422.527 186.789C421.674 187.556 420.48 188.131 418.946 188.515L424.995 197.031C425.787 198.132 426.35 198.819 426.684 199.091C427.191 199.474 427.778 199.685 428.446 199.722V200.408H420.523L412.415 188.941H410.764ZM410.764 176.603V187.624H411.821C413.541 187.624 414.827 187.469 415.681 187.16C416.534 186.839 417.202 186.27 417.685 185.453C418.179 184.624 418.427 183.548 418.427 182.225C418.427 180.307 417.975 178.891 417.072 177.976C416.182 177.06 414.741 176.603 412.749 176.603H410.764ZM446.24 191.836L453.068 175.248H463.311V175.935H462.494C461.752 175.935 461.158 176.064 460.713 176.324C460.404 176.497 460.156 176.788 459.971 177.196C459.835 177.493 459.767 178.266 459.767 179.516V196.104C459.767 197.39 459.835 198.194 459.971 198.516C460.107 198.837 460.385 199.122 460.806 199.369C461.226 199.604 461.789 199.722 462.494 199.722H463.311V200.408H450.174V199.722H450.99C451.732 199.722 452.326 199.592 452.771 199.332C453.081 199.159 453.328 198.862 453.514 198.441C453.65 198.145 453.718 197.365 453.718 196.104V177.456L444.069 200.408H443.624L433.827 177.623V195.343C433.827 196.58 433.858 197.34 433.92 197.625C434.081 198.243 434.427 198.751 434.959 199.146C435.503 199.53 436.351 199.722 437.501 199.722V200.408H428.892V199.722H429.151C429.708 199.734 430.228 199.647 430.71 199.462C431.192 199.264 431.557 199.004 431.805 198.683C432.052 198.361 432.244 197.91 432.38 197.328C432.405 197.192 432.417 196.561 432.417 195.436V179.516C432.417 178.242 432.349 177.45 432.213 177.141C432.077 176.819 431.799 176.541 431.378 176.306C430.957 176.058 430.395 175.935 429.689 175.935H428.892V175.248H439.171L446.24 191.836ZM474.369 176.695V186.938H474.87C476.466 186.938 477.622 186.437 478.34 185.435C479.057 184.433 479.515 182.954 479.713 181H480.418V194.174H479.713C479.564 192.739 479.249 191.564 478.767 190.648C478.297 189.733 477.746 189.121 477.115 188.812C476.484 188.49 475.569 188.329 474.369 188.329V195.417C474.369 196.802 474.425 197.65 474.536 197.959C474.66 198.268 474.882 198.522 475.204 198.72C475.526 198.918 476.045 199.017 476.763 199.017H478.266C480.616 199.017 482.496 198.472 483.906 197.384C485.329 196.295 486.349 194.638 486.968 192.411H487.654L486.522 200.408H464.776V199.722H465.611C466.341 199.722 466.929 199.592 467.374 199.332C467.696 199.159 467.943 198.862 468.116 198.441C468.252 198.145 468.32 197.365 468.32 196.104V179.553C468.32 178.415 468.289 177.716 468.228 177.456C468.104 177.023 467.875 176.689 467.541 176.454C467.071 176.108 466.428 175.935 465.611 175.935H464.776V175.248H485.836V182.688H485.131C484.772 180.87 484.265 179.565 483.609 178.773C482.966 177.982 482.051 177.4 480.863 177.029C480.171 176.807 478.872 176.695 476.967 176.695H474.369ZM498.824 175.248L511.237 190.853V180.035C511.237 178.526 511.021 177.506 510.588 176.974C509.994 176.256 508.998 175.91 507.601 175.935V175.248H515.913V175.935C514.849 176.071 514.132 176.25 513.761 176.473C513.402 176.683 513.118 177.035 512.907 177.53C512.709 178.013 512.61 178.848 512.61 180.035V200.983H511.979L494.965 180.035V196.029C494.965 197.477 495.293 198.454 495.948 198.961C496.616 199.468 497.377 199.722 498.23 199.722H498.824V200.408H489.899V199.722C491.285 199.709 492.25 199.425 492.794 198.868C493.338 198.312 493.61 197.365 493.61 196.029V178.272L493.072 177.604C492.54 176.937 492.07 176.497 491.662 176.287C491.254 176.077 490.666 175.959 489.899 175.935V175.248H498.824Z" fill="#FFAE00"/>
<path d="M542.128 181.908V147.549H557.362C560.425 147.549 562.753 147.861 564.347 148.486C565.94 149.096 567.214 150.182 568.167 151.744C569.12 153.307 569.597 155.033 569.597 156.924C569.597 159.361 568.808 161.416 567.229 163.088C565.651 164.76 563.214 165.822 559.917 166.275C561.12 166.854 562.034 167.424 562.659 167.986C563.987 169.205 565.245 170.729 566.433 172.557L572.409 181.908H566.69L562.144 174.76C560.815 172.697 559.722 171.119 558.862 170.025C558.003 168.932 557.229 168.166 556.542 167.729C555.87 167.291 555.183 166.986 554.479 166.814C553.964 166.705 553.12 166.65 551.948 166.65H546.675V181.908H542.128ZM546.675 162.713H556.448C558.526 162.713 560.151 162.502 561.323 162.08C562.495 161.643 563.386 160.955 563.995 160.018C564.604 159.064 564.909 158.033 564.909 156.924C564.909 155.299 564.315 153.963 563.128 152.916C561.956 151.869 560.097 151.346 557.55 151.346H546.675V162.713Z" fill="#FFAE00"/>
<path d="M11.667 132.945V140.656C11.667 142.16 11.7559 143.11 11.9336 143.507C12.125 143.89 12.4531 144.197 12.918 144.43C13.3965 144.662 14.2646 144.778 15.5225 144.778V145.537H1.39258V144.778C2.67773 144.778 3.5459 144.662 3.99707 144.43C4.46191 144.184 4.7832 143.869 4.96094 143.486C5.15234 143.104 5.24805 142.16 5.24805 140.656V122.609C5.24805 121.105 5.15234 120.162 4.96094 119.779C4.7832 119.383 4.46191 119.068 3.99707 118.836C3.53223 118.604 2.66406 118.487 1.39258 118.487V117.729H13.5127C17.5049 117.729 20.3691 118.439 22.1055 119.861C23.8418 121.283 24.71 123.061 24.71 125.193C24.71 126.998 24.1494 128.543 23.0283 129.828C21.9072 131.113 20.3623 131.988 18.3936 132.453C17.0674 132.781 14.8252 132.945 11.667 132.945ZM11.667 119.328V131.346C12.1182 131.373 12.46 131.387 12.6924 131.387C14.3604 131.387 15.6455 130.895 16.5479 129.91C17.4502 128.912 17.9014 127.374 17.9014 125.296C17.9014 123.231 17.4502 121.721 16.5479 120.764C15.6455 119.807 14.2988 119.328 12.5078 119.328H11.667ZM27.3965 139.221C28.3535 139.221 29.1602 139.556 29.8164 140.226C30.4863 140.896 30.8213 141.702 30.8213 142.646C30.8213 143.589 30.4863 144.396 29.8164 145.065C29.1465 145.722 28.3398 146.05 27.3965 146.05C26.4531 146.05 25.6465 145.722 24.9766 145.065C24.3203 144.396 23.9922 143.589 23.9922 142.646C23.9922 141.702 24.3203 140.896 24.9766 140.226C25.6465 139.556 26.4531 139.221 27.3965 139.221ZM59.1426 117.729V125.255H58.4043C57.9668 123.519 57.4814 122.274 56.9482 121.522C56.415 120.757 55.6836 120.148 54.7539 119.697C54.2344 119.451 53.3252 119.328 52.0264 119.328H49.9551V140.779C49.9551 142.201 50.0303 143.09 50.1807 143.445C50.3447 143.801 50.6523 144.115 51.1035 144.389C51.5684 144.648 52.1973 144.778 52.9902 144.778H53.9131V145.537H39.3525V144.778H40.2754C41.082 144.778 41.7314 144.635 42.2236 144.348C42.5791 144.156 42.8594 143.828 43.0645 143.363C43.2148 143.035 43.29 142.174 43.29 140.779V119.328H41.2803C39.4072 119.328 38.0469 119.725 37.1992 120.518C36.0098 121.625 35.2578 123.204 34.9434 125.255H34.1641V117.729H59.1426ZM62.793 139.221C63.75 139.221 64.5566 139.556 65.2129 140.226C65.8828 140.896 66.2178 141.702 66.2178 142.646C66.2178 143.589 65.8828 144.396 65.2129 145.065C64.543 145.722 63.7363 146.05 62.793 146.05C61.8496 146.05 61.043 145.722 60.373 145.065C59.7168 144.396 59.3887 143.589 59.3887 142.646C59.3887 141.702 59.7168 140.896 60.373 140.226C61.043 139.556 61.8496 139.221 62.793 139.221Z" fill="#FFAE00"/>
<path d="M248.799 69.2974L249.363 92.4712H247.261C246.27 86.6606 243.826 81.9951 239.929 78.4746C236.067 74.9199 231.88 73.1426 227.368 73.1426C223.882 73.1426 221.113 74.0825 219.062 75.9624C217.046 77.8081 216.038 79.9443 216.038 82.3711C216.038 83.9092 216.396 85.2764 217.114 86.4727C218.105 88.0791 219.695 89.6685 221.882 91.2407C223.489 92.3687 227.197 94.3682 233.008 97.2393C241.143 101.238 246.628 105.015 249.465 108.57C252.268 112.125 253.669 116.192 253.669 120.772C253.669 126.583 251.396 131.59 246.851 135.794C242.339 139.964 236.597 142.049 229.624 142.049C227.437 142.049 225.369 141.827 223.42 141.382C221.472 140.938 219.028 140.101 216.089 138.87C214.448 138.187 213.098 137.845 212.039 137.845C211.15 137.845 210.21 138.187 209.219 138.87C208.228 139.554 207.424 140.596 206.809 141.998H204.912V115.748H206.809C208.313 123.13 211.201 128.77 215.474 132.667C219.78 136.529 224.412 138.46 229.368 138.46C233.196 138.46 236.238 137.417 238.494 135.333C240.784 133.248 241.929 130.821 241.929 128.052C241.929 126.412 241.484 124.822 240.596 123.284C239.741 121.746 238.425 120.293 236.648 118.926C234.871 117.525 231.726 115.713 227.214 113.492C220.891 110.381 216.345 107.732 213.577 105.545C210.808 103.357 208.672 100.914 207.168 98.2134C205.698 95.5132 204.963 92.5396 204.963 89.2925C204.963 83.7554 206.997 79.0386 211.064 75.1421C215.132 71.2456 220.259 69.2974 226.445 69.2974C228.701 69.2974 230.889 69.5708 233.008 70.1177C234.614 70.5278 236.562 71.2969 238.853 72.4248C241.177 73.5186 242.8 74.0654 243.723 74.0654C244.612 74.0654 245.312 73.792 245.825 73.2451C246.338 72.6982 246.816 71.3823 247.261 69.2974H248.799ZM324.165 70.8867V89.7026H322.319C321.226 85.3618 320.012 82.2515 318.679 80.3716C317.346 78.4575 315.518 76.9365 313.193 75.8086C311.895 75.1934 309.622 74.8857 306.375 74.8857H301.196V128.514C301.196 132.068 301.384 134.29 301.76 135.179C302.17 136.067 302.939 136.854 304.067 137.537C305.229 138.187 306.802 138.511 308.784 138.511H311.091V140.408H274.69V138.511H276.997C279.014 138.511 280.637 138.152 281.868 137.435C282.756 136.956 283.457 136.136 283.97 134.974C284.346 134.153 284.534 132 284.534 128.514V74.8857H279.509C274.827 74.8857 271.426 75.877 269.307 77.8594C266.333 80.6279 264.453 84.5757 263.667 89.7026H261.719V70.8867H324.165ZM356.567 74.8857V103.187H357.952C362.361 103.187 365.557 101.802 367.539 99.0337C369.521 96.2651 370.786 92.1807 371.333 86.7803H373.281V123.182H371.333C370.923 119.217 370.051 115.97 368.718 113.44C367.419 110.911 365.898 109.219 364.155 108.365C362.412 107.476 359.883 107.032 356.567 107.032V126.617C356.567 130.445 356.721 132.786 357.029 133.641C357.371 134.495 357.986 135.196 358.875 135.743C359.763 136.29 361.199 136.563 363.181 136.563H367.334C373.828 136.563 379.023 135.059 382.92 132.051C386.851 129.043 389.67 124.463 391.379 118.311H393.276L390.149 140.408H330.061V138.511H332.368C334.385 138.511 336.008 138.152 337.239 137.435C338.127 136.956 338.811 136.136 339.29 134.974C339.666 134.153 339.854 132 339.854 128.514V82.7812C339.854 79.6367 339.768 77.7056 339.597 76.9878C339.255 75.7915 338.623 74.8687 337.7 74.2192C336.401 73.2622 334.624 72.7837 332.368 72.7837H330.061V70.8867H388.252V91.4458H386.304C385.312 86.4214 383.911 82.8154 382.1 80.6279C380.322 78.4404 377.793 76.834 374.512 75.8086C372.598 75.1934 369.009 74.8857 363.745 74.8857H356.567ZM442.341 99.6489L461.516 128.104C464.695 132.82 466.951 135.691 468.284 136.717C469.651 137.708 471.257 138.306 473.103 138.511V140.408H439.214V138.511C441.914 138.306 443.657 137.896 444.443 137.281C445.229 136.666 445.623 135.914 445.623 135.025C445.623 134.41 445.503 133.863 445.264 133.384C444.785 132.359 443.589 130.445 441.675 127.642L431.523 112.62L420.911 125.591C417.732 129.522 416.143 132.188 416.143 133.589C416.143 134.581 416.553 135.503 417.373 136.358C418.193 137.212 419.407 137.828 421.013 138.204C421.731 138.409 423.201 138.511 425.422 138.511V140.408H398.711V138.511C401.753 138.067 404.146 137.247 405.889 136.05C408.179 134.478 411.375 131.197 415.476 126.207L429.268 109.39L411.58 83.3965C408.674 79.124 407.017 76.7485 406.606 76.27C405.684 75.1421 404.778 74.3389 403.889 73.8604C403 73.3818 401.77 73.0229 400.198 72.7837V70.8867H434.702V72.7837H432.959C430.977 72.7837 429.592 73.1084 428.806 73.7578C428.02 74.373 427.627 75.1592 427.627 76.1162C427.627 76.8682 427.747 77.5176 427.986 78.0645L431.523 83.3965L440.137 96.5215L447.468 87.5493C451.228 82.9351 453.108 79.7051 453.108 77.8594C453.108 76.9365 452.834 76.082 452.288 75.2959C451.775 74.5098 451.023 73.8945 450.032 73.4502C449.041 73.0059 447.502 72.7837 445.417 72.7837V70.8867H471.001V72.7837C468.984 72.8179 467.361 73.0742 466.13 73.5527C464.9 73.9971 463.584 74.8516 462.183 76.1162C461.294 76.9365 459.072 79.4829 455.518 83.7554L442.341 99.6489Z" fill="#FFAE00"/>
<path d="M394.056 240.326V241.013H380.9V240.326H381.735C382.465 240.326 383.053 240.196 383.498 239.937C383.82 239.763 384.067 239.466 384.24 239.046C384.376 238.749 384.444 237.97 384.444 236.708V220.157C384.444 218.871 384.376 218.067 384.24 217.745C384.104 217.424 383.826 217.145 383.405 216.91C382.997 216.663 382.44 216.539 381.735 216.539H380.9V215.853H394.056V216.539H393.221C392.491 216.539 391.903 216.669 391.458 216.929C391.136 217.102 390.883 217.399 390.697 217.819C390.561 218.116 390.493 218.896 390.493 220.157V236.708C390.493 237.994 390.561 238.799 390.697 239.12C390.846 239.442 391.124 239.726 391.532 239.974C391.953 240.209 392.516 240.326 393.221 240.326H394.056ZM404.409 215.853L416.822 231.457V220.64C416.822 219.131 416.606 218.11 416.173 217.578C415.579 216.861 414.583 216.514 413.186 216.539V215.853H421.498V216.539C420.434 216.675 419.717 216.854 419.346 217.077C418.987 217.287 418.702 217.64 418.492 218.135C418.294 218.617 418.195 219.452 418.195 220.64V241.588H417.564L400.55 220.64V236.634C400.55 238.081 400.878 239.058 401.533 239.565C402.201 240.073 402.962 240.326 403.815 240.326H404.409V241.013H395.484V240.326C396.87 240.314 397.835 240.029 398.379 239.473C398.923 238.916 399.195 237.97 399.195 236.634V218.877L398.657 218.209C398.125 217.541 397.655 217.102 397.247 216.892C396.839 216.681 396.251 216.564 395.484 216.539V215.853H404.409ZM422.908 241.013V240.326H423.743C424.473 240.326 425.03 240.215 425.413 239.992C425.809 239.757 426.1 239.442 426.285 239.046C426.396 238.786 426.452 238.007 426.452 236.708V220.157C426.452 218.871 426.384 218.067 426.248 217.745C426.112 217.424 425.834 217.145 425.413 216.91C425.005 216.663 424.448 216.539 423.743 216.539H422.908V215.853H434.171C437.177 215.853 439.595 216.261 441.426 217.077C443.665 218.079 445.359 219.594 446.51 221.623C447.673 223.652 448.254 225.946 448.254 228.507C448.254 230.276 447.969 231.909 447.4 233.405C446.831 234.89 446.095 236.12 445.192 237.098C444.289 238.062 443.244 238.842 442.057 239.436C440.882 240.017 439.44 240.468 437.733 240.79C436.979 240.938 435.791 241.013 434.171 241.013H422.908ZM432.501 217.281V236.912C432.501 237.951 432.55 238.588 432.649 238.823C432.748 239.058 432.915 239.238 433.15 239.361C433.484 239.547 433.967 239.64 434.598 239.64C436.663 239.64 438.241 238.935 439.329 237.524C440.813 235.619 441.556 232.663 441.556 228.655C441.556 225.427 441.049 222.848 440.034 220.918C439.23 219.409 438.197 218.382 436.936 217.838C436.045 217.454 434.567 217.269 432.501 217.281ZM464.545 215.5C468.553 215.352 471.806 216.521 474.305 219.007C476.816 221.493 478.071 224.604 478.071 228.34C478.071 231.531 477.137 234.339 475.27 236.764C472.796 239.98 469.301 241.588 464.786 241.588C460.259 241.588 456.758 240.054 454.284 236.986C452.33 234.562 451.353 231.686 451.353 228.358C451.353 224.623 452.62 221.512 455.156 219.025C457.704 216.527 460.834 215.352 464.545 215.5ZM464.768 216.688C462.467 216.688 460.716 217.863 459.517 220.213C458.539 222.143 458.051 224.913 458.051 228.525C458.051 232.818 458.805 235.991 460.314 238.044C461.366 239.479 462.838 240.196 464.73 240.196C466.005 240.196 467.068 239.887 467.922 239.269C469.01 238.477 469.858 237.215 470.464 235.483C471.07 233.739 471.373 231.469 471.373 228.674C471.373 225.346 471.064 222.86 470.445 221.215C469.827 219.557 469.035 218.388 468.07 217.708C467.118 217.028 466.017 216.688 464.768 216.688ZM488.907 215.853L501.32 231.457V220.64C501.32 219.131 501.104 218.11 500.671 217.578C500.077 216.861 499.081 216.514 497.684 216.539V215.853H505.996V216.539C504.932 216.675 504.215 216.854 503.844 217.077C503.485 217.287 503.201 217.64 502.99 218.135C502.792 218.617 502.693 219.452 502.693 220.64V241.588H502.062L485.048 220.64V236.634C485.048 238.081 485.376 239.058 486.031 239.565C486.699 240.073 487.46 240.326 488.313 240.326H488.907V241.013H479.982V240.326C481.368 240.314 482.333 240.029 482.877 239.473C483.421 238.916 483.693 237.97 483.693 236.634V218.877L483.155 218.209C482.623 217.541 482.153 217.102 481.745 216.892C481.337 216.681 480.749 216.564 479.982 216.539V215.853H488.907ZM517.259 217.3V227.542H517.76C519.355 227.542 520.512 227.041 521.229 226.039C521.947 225.037 522.405 223.559 522.603 221.604H523.308V234.778H522.603C522.454 233.343 522.139 232.168 521.656 231.253C521.186 230.338 520.636 229.725 520.005 229.416C519.374 229.094 518.459 228.934 517.259 228.934V236.021C517.259 237.407 517.314 238.254 517.426 238.563C517.549 238.873 517.772 239.126 518.094 239.324C518.415 239.522 518.935 239.621 519.652 239.621H521.155C523.506 239.621 525.386 239.077 526.796 237.988C528.218 236.9 529.239 235.242 529.857 233.016H530.544L529.412 241.013H507.666V240.326H508.501C509.231 240.326 509.818 240.196 510.264 239.937C510.585 239.763 510.833 239.466 511.006 239.046C511.142 238.749 511.21 237.97 511.21 236.708V220.157C511.21 219.019 511.179 218.32 511.117 218.061C510.993 217.628 510.765 217.294 510.431 217.059C509.961 216.712 509.317 216.539 508.501 216.539H507.666V215.853H528.726V223.293H528.021C527.662 221.475 527.155 220.17 526.499 219.378C525.856 218.586 524.94 218.005 523.753 217.634C523.06 217.411 521.761 217.3 519.856 217.3H517.259ZM550.101 215.277L550.305 223.664H549.544C549.185 221.561 548.301 219.873 546.891 218.599C545.493 217.312 543.978 216.669 542.345 216.669C541.083 216.669 540.081 217.009 539.339 217.689C538.609 218.357 538.244 219.131 538.244 220.009C538.244 220.565 538.374 221.06 538.634 221.493C538.993 222.075 539.568 222.65 540.359 223.219C540.941 223.627 542.283 224.351 544.386 225.39C547.33 226.837 549.315 228.204 550.342 229.49C551.356 230.777 551.863 232.249 551.863 233.906C551.863 236.009 551.041 237.821 549.396 239.343C547.763 240.852 545.685 241.606 543.161 241.606C542.369 241.606 541.621 241.526 540.916 241.365C540.211 241.204 539.326 240.901 538.263 240.456C537.669 240.209 537.18 240.085 536.797 240.085C536.475 240.085 536.135 240.209 535.776 240.456C535.418 240.703 535.127 241.081 534.904 241.588H534.218V232.088H534.904C535.449 234.76 536.494 236.801 538.04 238.211C539.599 239.609 541.275 240.308 543.068 240.308C544.454 240.308 545.555 239.93 546.371 239.176C547.2 238.421 547.614 237.543 547.614 236.541C547.614 235.947 547.453 235.372 547.132 234.815C546.823 234.259 546.346 233.733 545.703 233.238C545.06 232.731 543.922 232.076 542.289 231.271C540.001 230.146 538.355 229.187 537.354 228.396C536.352 227.604 535.578 226.719 535.034 225.742C534.502 224.765 534.236 223.689 534.236 222.514C534.236 220.51 534.972 218.803 536.444 217.393C537.916 215.982 539.772 215.277 542.011 215.277C542.827 215.277 543.619 215.376 544.386 215.574C544.967 215.723 545.672 216.001 546.501 216.409C547.342 216.805 547.93 217.003 548.264 217.003C548.585 217.003 548.839 216.904 549.024 216.706C549.21 216.508 549.383 216.032 549.544 215.277H550.101ZM567.319 240.326V241.013H554.164V240.326H554.999C555.729 240.326 556.316 240.196 556.762 239.937C557.083 239.763 557.331 239.466 557.504 239.046C557.64 238.749 557.708 237.97 557.708 236.708V220.157C557.708 218.871 557.64 218.067 557.504 217.745C557.368 217.424 557.09 217.145 556.669 216.91C556.261 216.663 555.704 216.539 554.999 216.539H554.164V215.853H567.319V216.539H566.484C565.755 216.539 565.167 216.669 564.722 216.929C564.4 217.102 564.146 217.399 563.961 217.819C563.825 218.116 563.757 218.896 563.757 220.157V236.708C563.757 237.994 563.825 238.799 563.961 239.12C564.109 239.442 564.388 239.726 564.796 239.974C565.216 240.209 565.779 240.326 566.484 240.326H567.319ZM584.019 233.851H575.131L574.073 236.3C573.727 237.116 573.554 237.79 573.554 238.322C573.554 239.027 573.838 239.547 574.407 239.881C574.741 240.079 575.564 240.227 576.875 240.326V241.013H568.507V240.326C569.41 240.19 570.152 239.819 570.733 239.213C571.315 238.594 572.032 237.326 572.886 235.409L581.885 215.333H582.237L591.311 235.966C592.176 237.92 592.888 239.151 593.444 239.658C593.865 240.042 594.459 240.264 595.226 240.326V241.013H583.054V240.326H583.555C584.532 240.326 585.218 240.19 585.614 239.918C585.886 239.72 586.022 239.436 586.022 239.064C586.022 238.842 585.985 238.613 585.911 238.378C585.886 238.267 585.701 237.803 585.354 236.986L584.019 233.851ZM583.388 232.478L579.64 223.812L575.78 232.478H583.388Z" fill="#FFAE00"/>
<mask id="path-8-inside-1_342_3737" fill="white">
<path fill-rule="evenodd" clip-rule="evenodd" d="M555.696 197.062C573.178 197.062 587.35 182.89 587.35 165.408C587.35 147.926 573.178 133.754 555.696 133.754C538.214 133.754 524.042 147.926 524.042 165.408C524.042 182.89 538.214 197.062 555.696 197.062ZM555.697 189.903C569.226 189.903 580.192 178.936 580.192 165.408C580.192 151.88 569.226 140.913 555.697 140.913C542.169 140.913 531.202 151.88 531.202 165.408C531.202 178.936 542.169 189.903 555.697 189.903Z"/>
</mask>
<path fill-rule="evenodd" clip-rule="evenodd" d="M555.696 197.062C573.178 197.062 587.35 182.89 587.35 165.408C587.35 147.926 573.178 133.754 555.696 133.754C538.214 133.754 524.042 147.926 524.042 165.408C524.042 182.89 538.214 197.062 555.696 197.062ZM555.697 189.903C569.226 189.903 580.192 178.936 580.192 165.408C580.192 151.88 569.226 140.913 555.697 140.913C542.169 140.913 531.202 151.88 531.202 165.408C531.202 178.936 542.169 189.903 555.697 189.903Z" fill="#F8B92C"/>
<path d="M586.35 165.408C586.35 182.338 572.626 196.062 555.696 196.062V198.062C573.731 198.062 588.35 183.442 588.35 165.408H586.35ZM555.696 134.754C572.626 134.754 586.35 148.478 586.35 165.408H588.35C588.35 147.374 573.731 132.754 555.696 132.754V134.754ZM525.042 165.408C525.042 148.478 538.766 134.754 555.696 134.754V132.754C537.662 132.754 523.042 147.374 523.042 165.408H525.042ZM555.696 196.062C538.766 196.062 525.042 182.338 525.042 165.408H523.042C523.042 183.442 537.662 198.062 555.696 198.062V196.062ZM579.192 165.408C579.192 178.384 568.673 188.903 555.697 188.903V190.903C569.778 190.903 581.192 179.489 581.192 165.408H579.192ZM555.697 141.913C568.673 141.913 579.192 152.432 579.192 165.408H581.192C581.192 151.328 569.778 139.913 555.697 139.913V141.913ZM532.202 165.408C532.202 152.432 542.721 141.913 555.697 141.913V139.913C541.617 139.913 530.202 151.328 530.202 165.408H532.202ZM555.697 188.903C542.721 188.903 532.202 178.384 532.202 165.408H530.202C530.202 179.489 541.617 190.903 555.697 190.903V188.903Z" fill="#FFAE00" mask="url(#path-8-inside-1_342_3737)"/>
</svg>
