<svg width="281" height="180" viewBox="0 0 281 180" fill="none" xmlns="http://www.w3.org/2000/svg">
<path fill-rule="evenodd" clip-rule="evenodd" d="M76.8628 4.72705H123.115C126.475 4.72705 129.223 7.47549 129.223 10.835V36.0254V37.8888V53.9236C129.223 54.2054 129.063 54.446 128.803 54.5534C128.542 54.6613 128.259 54.6048 128.06 54.4056L117.651 43.9971H76.8628C73.5029 43.9971 70.754 41.2487 70.754 37.8888V10.835C70.754 7.47549 73.5029 4.72705 76.8628 4.72705Z" fill="#D3EBFA"/>
<path fill-rule="evenodd" clip-rule="evenodd" d="M34.1485 167.074C34.1485 167.074 11.4407 139.996 37.9326 116.547C37.9326 116.547 14.1437 90.0389 29.2824 59.963C44.4206 29.8872 73.616 32.4364 96.8646 38.5535C120.113 44.6706 150.39 41.6118 173.637 17.653C196.886 -6.30576 223.919 -1.20827 234.191 10.0063C244.463 21.2213 247.166 44.1605 235.813 67.1002C224.459 90.0394 230.946 104.822 240.679 116.037C250.411 127.252 251.492 158.469 228.243 167.074H34.1485V167.074ZM40.9868 176.666C40.9868 176.666 16.7223 162.067 22.6075 136.855C22.6075 136.855 22.7797 136.21 22.2159 136.105C21.6517 136 9.59522 155.395 26.4416 173.148L40.9868 176.666Z" fill="#D3EBFA"/>
<path fill-rule="evenodd" clip-rule="evenodd" d="M169.529 108.249C197.516 105.611 192.3 134.534 174.252 152.767C170.945 156.109 165.67 160.682 159.18 166.091H102.993C124.732 135.579 150.307 110.061 169.529 108.249Z" fill="#99C8EC"/>
<path fill-rule="evenodd" clip-rule="evenodd" d="M124.183 166.09C151.723 138.671 176.691 120.518 176.844 120.405C177.348 120.035 178.056 120.145 178.425 120.649C178.795 121.153 178.685 121.861 178.181 122.231C178.032 122.34 154.121 139.723 127.368 166.09H124.183V166.09Z" fill="#89BBE6"/>
<path fill-rule="evenodd" clip-rule="evenodd" d="M150.205 42.3532C161.692 38.7357 162.102 51.3197 156.18 60.5777C150.564 69.3556 125.909 96.6049 120.327 110.62L117.3 109.008C118.935 88.0956 135.499 46.9843 150.205 42.3532Z" fill="#99C8EC"/>
<path fill-rule="evenodd" clip-rule="evenodd" d="M118.413 109.6C125.452 79.0148 154.262 46.8984 154.36 46.7887C154.538 46.5885 154.845 46.5706 155.045 46.7487C155.244 46.9269 155.262 47.2335 155.084 47.4337C154.987 47.5425 126.142 79.6956 119.288 110.067L118.413 109.6Z" fill="#89BBE6"/>
<path fill-rule="evenodd" clip-rule="evenodd" d="M156.589 61.338C167.973 59.8906 166.228 71.7616 159.105 79.4414C153.204 85.8045 131.269 102.941 120.757 115.301L115.934 113.482C122.975 93.5756 143.149 63.0466 156.589 61.338Z" fill="#B6DAF4"/>
<path fill-rule="evenodd" clip-rule="evenodd" d="M117.696 114.146C130.912 88.6167 159.631 66.2826 159.734 66.2013C159.935 66.0443 160.225 66.0797 160.383 66.2803C160.54 66.4809 160.505 66.771 160.304 66.9285C160.201 67.0093 131.667 89.1992 118.553 114.47L117.696 114.146Z" fill="#99C8EC"/>
<path fill-rule="evenodd" clip-rule="evenodd" d="M10.5268 166.091H268.912C270.606 166.091 271.993 167.477 271.993 169.172V169.172C271.993 170.867 270.607 172.254 268.912 172.254H258.515C257.573 172.254 256.803 173.025 256.803 173.966C256.803 174.908 257.574 175.678 258.515 175.678H262.318C263.495 175.678 264.459 176.641 264.459 177.818C264.459 178.995 263.496 179.958 262.318 179.958H17.4606C16.2831 179.958 15.3204 178.995 15.3204 177.818C15.3204 176.641 16.2835 175.678 17.4606 175.678H20.4564C21.398 175.678 22.1683 174.907 22.1683 173.966C22.1683 173.025 21.398 172.254 20.4564 172.254H10.5268C8.83191 172.254 7.44507 170.867 7.44507 169.172V169.172C7.44507 167.478 8.83283 166.091 10.5268 166.091ZM12.1317 179.958C13.2615 179.958 14.186 179.034 14.186 177.903V177.732C14.186 176.602 13.2615 175.678 12.1317 175.678C11.0019 175.678 10.0769 176.602 10.0769 177.732V177.903C10.0769 179.034 11.0019 179.958 12.1317 179.958Z" fill="#170839"/>
<path fill-rule="evenodd" clip-rule="evenodd" d="M246.345 87.1279C247.225 86.2493 248.439 85.7053 249.781 85.7053C251.122 85.7053 252.336 86.2493 253.215 87.1279C254.094 88.0075 254.638 89.2217 254.638 90.5631C254.638 91.9041 254.094 93.1188 253.215 93.9983C252.336 94.8765 251.121 95.421 249.781 95.421C248.438 95.421 247.225 94.8765 246.345 93.9983C245.467 93.1188 244.923 91.9041 244.923 90.5631C244.923 89.2217 245.467 88.0075 246.345 87.1279ZM247.395 82.3132C246.722 82.5074 246.084 82.7815 245.492 83.1239C244.884 83.4756 244.323 83.8988 243.821 84.3827C243.723 84.4768 243.577 84.491 243.465 84.4263L241.208 83.123L241.196 83.1157C241.067 83.045 240.919 83.0321 240.785 83.0684C240.646 83.1056 240.521 83.1951 240.444 83.3282L240.435 83.3434L238.847 86.0941C238.77 86.2268 238.755 86.3796 238.793 86.5192C238.83 86.6578 238.919 86.7822 239.052 86.8589L239.067 86.8686L241.306 88.1613C241.424 88.2288 241.477 88.3651 241.447 88.4904H241.448C241.365 88.8233 241.302 89.1657 241.259 89.5165C241.217 89.8585 241.196 90.2078 241.196 90.5631C241.196 90.9185 241.217 91.2678 241.259 91.6093C241.302 91.9601 241.365 92.303 241.448 92.6354C241.482 92.774 241.413 92.9131 241.29 92.9737L239.052 94.266L239.052 94.2664C238.919 94.3431 238.83 94.4675 238.793 94.6066C238.755 94.7462 238.77 94.899 238.847 95.0312L240.444 97.7976C240.521 97.9303 240.646 98.0198 240.785 98.057C240.923 98.0942 241.076 98.079 241.208 98.0023L241.225 97.9936L243.467 96.699C243.584 96.632 243.728 96.6531 243.821 96.7422C244.323 97.2265 244.884 97.6507 245.492 98.0014C246.088 98.3462 246.731 98.6216 247.409 98.8154C247.539 98.853 247.626 98.9728 247.626 99.1023V101.707C247.626 101.86 247.689 102 247.79 102.101C247.891 102.202 248.03 102.265 248.184 102.265H251.38C251.532 102.265 251.672 102.202 251.773 102.101C251.875 101.999 251.937 101.86 251.937 101.707V99.1023C251.937 98.9613 252.036 98.8433 252.167 98.8117C252.84 98.617 253.478 98.3434 254.071 98.001C254.678 97.6498 255.239 97.226 255.741 96.7417C255.844 96.6435 255.999 96.6329 256.112 96.7087L258.354 98.0023C258.487 98.0785 258.639 98.0937 258.779 98.0565C258.918 98.0193 259.042 97.9298 259.119 97.7971L259.128 97.782L260.717 95.0299H260.716C260.793 94.8977 260.808 94.7453 260.77 94.6062C260.733 94.4666 260.643 94.3422 260.512 94.266L258.256 92.9641C258.138 92.8966 258.085 92.7607 258.115 92.6344C258.198 92.3016 258.261 91.9592 258.304 91.6084C258.345 91.2669 258.366 90.9175 258.366 90.5622C258.366 90.2069 258.345 89.8575 258.304 89.5151C258.261 89.1648 258.198 88.8223 258.115 88.4895C258.081 88.3509 258.149 88.2113 258.273 88.1507L260.512 86.858C260.643 86.7818 260.733 86.6574 260.77 86.5183C260.808 86.3792 260.793 86.2268 260.716 86.0941L260.707 86.0776L259.119 83.3268L259.118 83.3273C259.041 83.1942 258.917 83.1047 258.778 83.0675C258.639 83.0298 258.487 83.045 258.354 83.1212V83.1221L256.097 84.4254C255.976 84.4952 255.828 84.4708 255.735 84.3758C255.234 83.8938 254.675 83.4728 254.071 83.123C253.474 82.7783 252.832 82.5033 252.154 82.3086C252.023 82.271 251.937 82.1516 251.937 82.0217V79.4174C251.937 79.2641 251.874 79.125 251.773 79.0231C251.671 78.9216 251.532 78.8592 251.379 78.8592H248.184C248.03 78.8592 247.89 78.9216 247.789 79.0231C247.688 79.125 247.625 79.2641 247.625 79.4174V82.0217C247.625 82.1636 247.527 82.2815 247.395 82.3132Z" fill="#D3EBFA"/>
<path fill-rule="evenodd" clip-rule="evenodd" d="M259.613 48.6585C260.278 47.9937 261.075 47.4571 261.961 47.0898C262.813 46.7368 263.746 46.5417 264.724 46.5417C265.7 46.5417 266.633 46.7368 267.486 47.0898C268.372 47.4571 269.169 47.9937 269.833 48.6585C270.498 49.3232 271.036 50.1201 271.402 51.0066C271.756 51.8586 271.95 52.7919 271.95 53.7688C271.95 54.7453 271.755 55.679 271.402 56.531C271.035 57.4179 270.498 58.2144 269.833 58.8792C269.169 59.5434 268.373 60.0801 267.487 60.4473C266.635 60.8013 265.701 60.9959 264.724 60.9959C263.746 60.9959 262.814 60.8013 261.961 60.4478C261.074 60.0805 260.278 59.5439 259.613 58.8792C258.949 58.2144 258.412 57.4179 258.045 56.5315C257.691 55.679 257.497 54.7457 257.497 53.7688C257.497 52.7919 257.691 51.8586 258.045 51.0066C258.412 50.1206 258.949 49.3237 259.613 48.6585ZM262.215 47.7073C261.414 48.0387 260.692 48.5267 260.087 49.1322C259.48 49.7382 258.993 50.4608 258.662 51.26C258.342 52.0317 258.166 52.8791 258.166 53.7693C258.166 54.6594 258.342 55.5068 258.662 56.2785C258.993 57.0782 259.48 57.8004 260.087 58.4059C260.692 59.0118 261.415 59.4994 262.215 59.8308C262.986 60.1508 263.833 60.3266 264.724 60.3266C265.613 60.3266 266.46 60.1508 267.231 59.8308C268.032 59.4998 268.754 59.0118 269.36 58.4059C269.966 57.8004 270.454 57.0782 270.785 56.2785C271.105 55.5068 271.281 54.6594 271.281 53.7693C271.281 52.8791 271.105 52.0317 270.785 51.26C270.454 50.4608 269.966 49.7382 269.36 49.1322C268.755 48.5267 268.032 48.0387 267.232 47.7077C266.461 47.3878 265.614 47.2115 264.724 47.2115C263.833 47.2115 262.985 47.3873 262.215 47.7073ZM261.415 42.3894C260.964 42.5198 260.519 42.6796 260.084 42.8641C259.643 43.0523 259.215 43.2658 258.805 43.5031C258.388 43.7446 257.986 44.0113 257.6 44.3019C257.212 44.5939 256.845 44.9079 256.499 45.2416C256.376 45.3591 256.224 45.4285 256.067 45.4477C255.906 45.4675 255.74 45.4344 255.596 45.3509C254.534 44.738 253.419 44.132 252.379 43.4935C252.328 43.4673 252.276 43.4512 252.223 43.4453C252.162 43.4389 252.102 43.4434 252.045 43.4586C251.986 43.4747 251.93 43.5017 251.883 43.538C251.836 43.5734 251.796 43.6183 251.765 43.6716C250.991 44.8422 250.215 46.3544 249.498 47.5962C249.468 47.649 249.449 47.7054 249.442 47.7624C249.434 47.8225 249.44 47.8845 249.456 47.9455C249.471 48.0043 249.497 48.0598 249.534 48.1076C249.569 48.1539 249.615 48.1943 249.668 48.2251C250.623 48.8563 251.853 49.488 252.865 50.0729C253.013 50.1573 253.122 50.2849 253.183 50.43C253.205 50.481 253.221 50.5338 253.231 50.5884L253.297 50.61L253.223 50.9084C253.165 51.1429 253.114 51.3771 253.071 51.6103C253.03 51.838 252.994 52.0758 252.964 52.3237C252.934 52.5651 252.912 52.8057 252.898 53.0421C252.884 53.2739 252.877 53.5163 252.877 53.7693C252.877 54.0218 252.884 54.2641 252.898 54.4951C252.912 54.7324 252.934 54.9729 252.964 55.2149C252.994 55.4623 253.031 55.7001 253.071 55.9274C253.115 56.161 253.166 56.3956 253.223 56.6302C253.266 56.8042 253.246 56.9791 253.175 57.1292C253.107 57.2793 252.987 57.4055 252.833 57.484L250.003 59.1188L250.004 59.1197L249.669 59.3134C249.615 59.3442 249.569 59.3846 249.535 59.431C249.498 59.4787 249.471 59.5342 249.456 59.5935C249.44 59.6541 249.434 59.716 249.442 59.7762C249.45 59.8326 249.468 59.8896 249.499 59.9428L251.595 63.5745L251.595 63.5736L251.765 63.8669C251.795 63.9202 251.836 63.9652 251.883 64.0005C251.93 64.0368 251.986 64.0639 252.045 64.0799C252.105 64.0956 252.168 64.1006 252.227 64.0933C252.283 64.0859 252.339 64.0671 252.392 64.0363C253.406 63.3996 254.551 62.7918 255.597 62.1877C255.746 62.1023 255.91 62.0724 256.064 62.0913C256.225 62.111 256.378 62.1812 256.498 62.296L256.499 62.2969C256.845 62.6311 257.213 62.9451 257.6 63.2366C257.985 63.5272 258.388 63.7939 258.804 64.035C259.217 64.2737 259.648 64.489 260.092 64.6776C260.529 64.8631 260.981 65.0238 261.448 65.1578C261.612 65.2047 261.749 65.3024 261.845 65.4296C261.942 65.5581 261.997 65.7188 261.997 65.8868L261.999 69.581C261.999 69.6429 262.011 69.7022 262.033 69.7545C262.055 69.8091 262.091 69.8601 262.134 69.9032C262.176 69.9468 262.227 69.9813 262.282 70.0042C262.336 70.0263 262.394 70.0387 262.456 70.0387H266.99C267.053 70.0387 267.11 70.0263 267.164 70.0042C267.22 69.9813 267.271 69.9468 267.313 69.9041C267.356 69.8601 267.391 69.8091 267.413 69.7545C267.436 69.7022 267.447 69.6429 267.447 69.581V65.8868C267.447 65.7106 267.509 65.5476 267.611 65.4177C267.716 65.2855 267.863 65.1881 268.03 65.1487C268.482 65.0187 268.927 64.8594 269.362 64.6744C269.803 64.4862 270.231 64.2728 270.641 64.035C271.058 63.7939 271.46 63.5272 271.846 63.2366C272.233 62.9451 272.601 62.6307 272.947 62.2969C273.075 62.1739 273.237 62.1046 273.402 62.0894C273.571 62.0743 273.743 62.1151 273.889 62.2111L277.052 64.0368C277.104 64.0671 277.161 64.0859 277.219 64.0933C277.278 64.1006 277.341 64.0956 277.401 64.0799C277.46 64.0639 277.516 64.0368 277.564 64.0005C277.61 63.9652 277.65 63.9207 277.681 63.8669C278.432 62.5568 279.195 61.2525 279.948 59.9424C279.978 59.8891 279.997 59.8326 280.004 59.7753C280.012 59.7156 280.007 59.6536 279.99 59.5935C279.975 59.5333 279.948 59.4773 279.912 59.43C279.877 59.3832 279.833 59.3437 279.781 59.3134L276.581 57.4661C276.432 57.3808 276.324 57.2536 276.263 57.1085C276.246 57.0691 276.232 57.0282 276.223 56.9869L276.139 56.9699L276.223 56.6306C276.28 56.3961 276.331 56.1615 276.374 55.9283C276.415 55.701 276.452 55.4628 276.482 55.2153C276.511 54.9729 276.534 54.7324 276.548 54.4951C276.562 54.2641 276.569 54.0218 276.569 53.7693C276.569 53.5168 276.562 53.2749 276.548 53.043C276.534 52.8061 276.512 52.566 276.482 52.3246C276.452 52.0735 276.415 51.8348 276.374 51.6094C276.331 51.3761 276.28 51.1425 276.223 50.9084C276.179 50.7335 276.201 50.5585 276.271 50.408C276.34 50.2583 276.459 50.1325 276.61 50.0545L279.779 48.2251C279.831 48.1957 279.876 48.1553 279.912 48.1085C279.947 48.0621 279.974 48.0057 279.99 47.9455C280.006 47.8849 280.011 47.823 280.003 47.7633C279.996 47.7064 279.978 47.649 279.947 47.5962C279.173 46.4457 278.398 44.9088 277.681 43.6716C277.65 43.6183 277.609 43.5734 277.563 43.538C277.516 43.5017 277.46 43.4747 277.401 43.4586C277.34 43.4425 277.277 43.4379 277.218 43.4453C277.163 43.4522 277.106 43.4714 277.052 43.5022L273.85 45.3504C273.699 45.4386 273.53 45.4679 273.37 45.4459C273.209 45.4243 273.056 45.3504 272.937 45.2329C272.589 44.8978 272.223 44.5851 271.841 44.2978C271.461 44.0113 271.06 43.7455 270.64 43.5031C270.228 43.2644 269.797 43.0496 269.353 42.8609C268.916 42.6754 268.464 42.5148 267.997 42.3812C267.834 42.3339 267.697 42.2361 267.601 42.1089C267.503 41.9804 267.448 41.8197 267.448 41.6522L267.447 37.9576C267.447 37.8956 267.435 37.8368 267.413 37.784C267.39 37.729 267.355 37.6785 267.312 37.6349C267.27 37.5917 267.219 37.5577 267.163 37.5343C267.11 37.5123 267.052 37.4999 266.989 37.4999H262.456C262.393 37.4999 262.335 37.5123 262.282 37.5343C262.226 37.5573 262.175 37.5917 262.132 37.6344C262.049 37.7184 261.998 37.8327 261.998 37.9576V41.6522C261.998 41.8289 261.937 41.9919 261.835 42.1209C261.729 42.2531 261.583 42.3499 261.415 42.3894ZM259.822 42.2499C259.356 42.4482 258.905 42.674 258.47 42.9256C258.026 43.1818 257.601 43.4636 257.197 43.7689C256.791 44.0747 256.403 44.4061 256.036 44.7601C256.022 44.7738 256.005 44.7816 255.985 44.7835C255.966 44.7858 255.946 44.7825 255.93 44.7734C254.854 44.1518 253.776 43.5325 252.701 42.9082C252.574 42.8389 252.436 42.7971 252.297 42.7815C252.154 42.7649 252.009 42.776 251.873 42.8131C251.731 42.8508 251.596 42.9164 251.477 43.0073C251.363 43.0946 251.264 43.2056 251.188 43.3369C250.408 44.6003 249.667 45.9692 248.921 47.2611C248.845 47.3923 248.799 47.5347 248.781 47.6788C248.762 47.828 248.772 47.9777 248.81 48.1181C248.847 48.2595 248.913 48.394 249.004 48.5129C249.092 48.6277 249.203 48.7269 249.334 48.8026C250.364 49.4384 251.48 50.0421 252.534 50.6504C252.55 50.66 252.563 50.6751 252.57 50.6921C252.578 50.7096 252.58 50.7298 252.575 50.7481L252.502 51.0465L252.506 51.0484C252.474 51.193 252.444 51.3403 252.416 51.4905C252.369 51.7462 252.331 51.9982 252.3 52.2452C252.272 52.4898 252.248 52.7432 252.233 53.0031C252.217 53.2643 252.209 53.52 252.209 53.7693C252.209 54.0181 252.217 54.2733 252.233 54.5345C252.248 54.7944 252.272 55.0478 252.3 55.2934C252.331 55.5399 252.369 55.7919 252.417 56.0476C252.463 56.3024 252.517 56.5498 252.576 56.7899C252.581 56.8097 252.579 56.8303 252.57 56.8482C252.561 56.8675 252.547 56.8827 252.531 56.8909C251.354 57.5189 250.161 58.2576 248.999 58.9292L249.041 58.9811L249.005 59.0251C248.914 59.1445 248.848 59.2795 248.811 59.4204C248.773 59.5609 248.762 59.711 248.782 59.8597C248.8 60.0039 248.846 60.1457 248.922 60.277L251.358 64.4954L251.404 64.4683C251.428 64.4904 251.453 64.5115 251.478 64.5312C251.598 64.6217 251.733 64.6873 251.874 64.7259C252.014 64.763 252.164 64.7736 252.312 64.7548C252.452 64.7369 252.59 64.6923 252.719 64.6212C253.784 64.0556 254.881 63.3725 255.932 62.7647C255.948 62.7565 255.968 62.7537 255.987 62.7555C256.006 62.7578 256.025 62.7666 256.039 62.7799C256.406 63.1338 256.794 63.4648 257.199 63.7701C257.603 64.0749 258.028 64.3568 258.471 64.6129C258.909 64.8659 259.364 65.0931 259.832 65.2923C260.298 65.4902 260.778 65.6605 261.267 65.801C261.285 65.8065 261.302 65.818 261.313 65.8327C261.325 65.8487 261.332 65.8685 261.331 65.8868V69.581C261.331 69.732 261.362 69.8775 261.417 70.0107C261.475 70.1497 261.559 70.2737 261.664 70.377C261.767 70.4807 261.892 70.5647 262.029 70.6217C262.162 70.6772 262.307 70.708 262.459 70.708H266.992C267.143 70.708 267.289 70.6772 267.422 70.6217C267.559 70.5647 267.683 70.4803 267.789 70.377C267.892 70.2737 267.975 70.1497 268.033 70.0107C268.088 69.8775 268.12 69.732 268.12 69.581V65.8868C268.12 65.8643 268.126 65.8446 268.137 65.8308C268.148 65.8161 268.166 65.8051 268.187 65.7996L268.202 65.7946C268.693 65.6527 269.169 65.4833 269.626 65.2887C270.092 65.0904 270.544 64.8645 270.979 64.6129C271.422 64.3568 271.847 64.0749 272.251 63.7701C272.657 63.4643 273.045 63.1329 273.412 62.7785C273.427 62.7638 273.447 62.7551 273.464 62.7537C273.485 62.7519 273.505 62.7565 273.522 62.7679L276.722 64.6148C276.853 64.691 276.995 64.7364 277.137 64.7548C277.286 64.7741 277.435 64.763 277.576 64.7259C277.717 64.6873 277.853 64.6221 277.971 64.5312C278.083 64.4463 278.18 64.3384 278.255 64.2108C279.096 62.8597 279.89 61.3788 280.692 59.991L280.649 59.9653C280.657 59.93 280.663 59.8946 280.667 59.8588C280.687 59.7101 280.676 59.5609 280.638 59.4204C280.601 59.279 280.535 59.144 280.444 59.0251C280.356 58.9104 280.245 58.8112 280.115 58.7359L276.914 56.8882C276.898 56.879 276.885 56.8638 276.878 56.8469C276.87 56.8285 276.868 56.8078 276.873 56.7886L276.957 56.4507L276.952 56.4498C276.98 56.318 277.007 56.1844 277.032 56.0485C277.079 55.7928 277.118 55.5408 277.148 55.2934C277.177 55.0478 277.2 54.7948 277.216 54.5345C277.232 54.2733 277.24 54.0181 277.24 53.7693C277.24 53.5205 277.232 53.2652 277.216 53.004C277.2 52.7437 277.177 52.4898 277.148 52.2433C277.118 51.9986 277.08 51.7466 277.032 51.4886C276.985 51.2352 276.932 50.9882 276.873 50.7486C276.868 50.7293 276.87 50.7082 276.879 50.6894C276.887 50.6715 276.902 50.6563 276.919 50.6476L280.115 48.8022C280.247 48.7259 280.358 48.6268 280.444 48.5125C280.535 48.3927 280.601 48.2582 280.638 48.1181C280.676 47.9781 280.686 47.8285 280.667 47.6797C280.65 47.5397 280.605 47.4011 280.532 47.2721C279.771 45.8614 278.898 44.4387 278.092 43.0436L278.046 43.0702C278.022 43.0482 277.997 43.0271 277.971 43.0073C277.853 42.9164 277.717 42.8508 277.576 42.8131C277.436 42.7755 277.286 42.7649 277.137 42.7838C276.993 42.8017 276.852 42.8476 276.722 42.9219L276.486 43.0578L276.486 43.0606L273.518 44.7734C273.501 44.7835 273.48 44.7867 273.461 44.7844C273.442 44.7821 273.425 44.7729 273.411 44.7591L273.403 44.7513C273.04 44.4015 272.652 44.0714 272.245 43.7643C271.838 43.4586 271.415 43.1786 270.978 42.9256C270.541 42.6727 270.085 42.445 269.617 42.2462C269.151 42.0483 268.672 41.878 268.183 41.7375C268.164 41.732 268.148 41.7206 268.137 41.7063C268.125 41.6898 268.117 41.6705 268.119 41.6522V37.9576C268.119 37.8065 268.087 37.661 268.032 37.5279C267.974 37.3893 267.89 37.2648 267.786 37.1616C267.682 37.0578 267.558 36.9742 267.421 36.9169C267.288 36.8613 267.143 36.8306 266.991 36.8306H262.458C262.307 36.8306 262.161 36.8613 262.028 36.9169C261.891 36.9742 261.766 37.0578 261.661 37.1616C261.458 37.3658 261.33 37.6482 261.33 37.9576V41.6522C261.33 41.6733 261.323 41.693 261.312 41.7082C261.301 41.7229 261.283 41.7339 261.262 41.7385L261.248 41.744C260.754 41.8858 260.279 42.0557 259.822 42.2499Z" fill="#D3EBFA"/>
<path fill-rule="evenodd" clip-rule="evenodd" d="M79.9538 2.37103H126.206C129.566 2.37103 132.315 5.11947 132.315 8.4794V33.6699V35.5332V51.568C132.315 51.8499 132.154 52.0904 131.894 52.1983C131.633 52.3057 131.35 52.2497 131.15 52.0505L120.742 41.6411H79.9538C76.5944 41.6411 73.8455 38.8927 73.8455 35.5332V8.47985C73.8455 5.11993 76.5944 2.37103 79.9538 2.37103Z" fill="#E84A5B"/>
<path fill-rule="evenodd" clip-rule="evenodd" d="M84.826 33.9243H108.82C109.913 33.9243 110.807 33.03 110.807 31.937V13.7211C110.807 12.6281 109.913 11.7338 108.82 11.7338H107.845V10.8088C107.845 10.5081 107.599 10.2625 107.297 10.2625H100.049C99.7476 10.2625 99.5015 10.5086 99.5015 10.8088V11.7338H84.826C83.733 11.7338 82.8383 12.6285 82.8383 13.7211V31.9374C82.8383 33.0305 83.733 33.9243 84.826 33.9243Z" fill="#F9B532"/>
<path fill-rule="evenodd" clip-rule="evenodd" d="M101.57 33.9242H86.4083C85.5177 33.9242 84.7887 33.1957 84.7887 32.3051V16.8299C84.7887 15.9393 85.5177 15.2108 86.4083 15.2108H101.57C102.461 15.2108 103.189 15.9393 103.189 16.8299V32.3051C103.189 33.1957 102.461 33.9242 101.57 33.9242Z" fill="white"/>
<path fill-rule="evenodd" clip-rule="evenodd" d="M87.2177 33.9243H109.371C110.465 33.9243 111.757 33.03 112.244 31.937L119.228 16.2598C119.715 15.1672 119.218 14.2725 118.125 14.2725H116.961L117.399 13.2887C117.577 12.8898 117.396 12.5634 116.997 12.5634H108.911C108.512 12.5634 108.04 12.8898 107.862 13.2887L107.424 14.2725H95.9716C94.8781 14.2725 93.5863 15.1672 93.0992 16.2598L86.1159 31.937C85.6288 33.0305 86.1251 33.9243 87.2177 33.9243Z" fill="#FCC749"/>
<path fill-rule="evenodd" clip-rule="evenodd" d="M98.4555 18.9361C99.9626 17.4294 101.938 16.6756 103.913 16.6756C105.888 16.6756 107.863 17.4294 109.37 18.9361C110.877 20.4432 111.631 22.4181 111.63 24.3935C111.63 26.3684 110.877 28.3433 109.37 29.8509C107.863 31.3575 105.888 32.1109 103.913 32.1109C101.938 32.1109 99.9626 31.3575 98.4555 29.8509C96.9489 28.3433 96.1951 26.3684 96.1951 24.3935C96.1951 22.4181 96.9489 20.4432 98.4555 18.9361ZM103.913 17.781C102.221 17.781 100.528 18.4265 99.2369 19.7174C97.946 21.0087 97.3005 22.7013 97.3005 24.3935C97.3005 26.0856 97.946 27.7777 99.2369 29.0691C100.528 30.36 102.221 31.0059 103.913 31.0059C105.605 31.0059 107.298 30.36 108.589 29.0691C109.88 27.7777 110.525 26.0856 110.525 24.3935C110.525 22.7013 109.88 21.0087 108.589 19.7174C107.298 18.4265 105.605 17.781 103.913 17.781Z" fill="#170839"/>
<path fill-rule="evenodd" clip-rule="evenodd" d="M108.589 29.8504C108.373 29.6342 108.373 29.2844 108.589 29.0686C108.804 28.8529 109.154 28.8529 109.37 29.0686L111.197 30.8953C111.412 31.111 111.412 31.4608 111.197 31.677C110.981 31.8928 110.631 31.8928 110.415 31.677L108.589 29.8504Z" fill="#170839"/>
<path fill-rule="evenodd" clip-rule="evenodd" d="M110.49 32.5332C110.059 32.1017 110.059 31.4016 110.49 30.9701C110.921 30.5381 111.621 30.5381 112.053 30.9701L117.94 36.8572C118.372 37.2887 118.372 37.9888 117.94 38.4203C117.509 38.8523 116.809 38.8523 116.377 38.4203L110.49 32.5332Z" fill="#170839"/>
<path fill-rule="evenodd" clip-rule="evenodd" d="M107.727 20.5796C107.585 20.4372 107.585 20.2059 107.727 20.0636C107.87 19.9208 108.101 19.9208 108.243 20.0636C108.828 20.6484 109.271 21.3251 109.571 22.0486C109.881 22.7969 110.035 23.5947 110.035 24.3935H110.037C110.037 24.9637 109.957 25.5357 109.798 26.0893C109.743 26.2826 109.541 26.395 109.347 26.3399C109.154 26.2849 109.041 26.0833 109.096 25.8896C109.237 25.4021 109.307 24.898 109.307 24.3935H109.308C109.308 23.6897 109.171 22.9864 108.897 22.3249C108.636 21.6919 108.245 21.0978 107.727 20.5796ZM108.454 27.3081C108.562 27.1387 108.788 27.0896 108.957 27.1984C109.126 27.3072 109.175 27.5326 109.067 27.7015C108.95 27.8829 108.822 28.0605 108.683 28.2327C108.543 28.4062 108.396 28.5701 108.243 28.723C108.101 28.8657 107.87 28.8657 107.727 28.723C107.585 28.5807 107.585 28.3493 107.727 28.2074C107.87 28.0647 107.999 27.921 108.115 27.7768C108.237 27.6262 108.35 27.4692 108.454 27.3081ZM100.1 28.2074C100.242 28.3493 100.242 28.5807 100.1 28.723C99.9568 28.8657 99.7259 28.8657 99.5832 28.723C98.9983 28.1381 98.5558 27.4619 98.256 26.7384C97.9452 25.9878 97.79 25.1895 97.79 24.3935C97.79 24.0221 97.8245 23.6466 97.8933 23.2729C97.9617 22.907 98.0636 22.5453 98.1995 22.1913C98.2711 22.004 98.4814 21.9104 98.6687 21.982C98.856 22.0536 98.9501 22.2639 98.878 22.4512C98.7591 22.7601 98.6696 23.0792 98.6095 23.4037C98.5498 23.7269 98.52 24.0584 98.52 24.3935C98.52 25.0986 98.6563 25.8028 98.929 26.4616C99.1911 27.0946 99.5813 27.6891 100.1 28.2074ZM99.5336 21.2415C99.4161 21.4045 99.1888 21.4417 99.0259 21.3242C98.8629 21.2071 98.8257 20.9799 98.9432 20.8164C99.041 20.6815 99.1425 20.5515 99.2485 20.4276L99.2659 20.4083C99.3757 20.2802 99.4817 20.1646 99.5832 20.0636C99.7259 19.9208 99.9568 19.9208 100.1 20.0636C100.242 20.2059 100.242 20.4372 100.1 20.5796C99.9917 20.687 99.8976 20.7875 99.8177 20.8802L99.8012 20.9004C99.7053 21.0138 99.6153 21.1277 99.5336 21.2415Z" fill="white"/>
<path fill-rule="evenodd" clip-rule="evenodd" d="M107.983 7.37262H125.427C125.649 7.37262 125.832 7.55487 125.832 7.77706C125.832 7.99971 125.649 8.18196 125.427 8.18196H107.983C107.76 8.18196 107.578 7.99971 107.578 7.77706C107.578 7.55487 107.76 7.37262 107.983 7.37262Z" fill="#EFEEF8"/>
<path fill-rule="evenodd" clip-rule="evenodd" d="M107.983 9.91174H125.427C125.649 9.91174 125.832 10.0935 125.832 10.3162C125.832 10.5388 125.649 10.7211 125.427 10.7211H107.983C107.76 10.7211 107.578 10.5388 107.578 10.3162C107.578 10.0935 107.76 9.91174 107.983 9.91174Z" fill="#EFEEF8"/>
<path fill-rule="evenodd" clip-rule="evenodd" d="M122.133 12.7084H125.427C125.649 12.7084 125.832 12.8902 125.832 13.1133C125.832 13.3359 125.649 13.5182 125.427 13.5182H122.133C121.91 13.5182 121.729 13.3359 121.729 13.1133C121.729 12.8902 121.91 12.7084 122.133 12.7084Z" fill="#EFEEF8"/>
<path fill-rule="evenodd" clip-rule="evenodd" d="M122.133 15.5789H125.427C125.649 15.5789 125.832 15.7607 125.832 15.9834C125.832 16.2065 125.649 16.3883 125.427 16.3883H122.133C121.91 16.3883 121.729 16.2065 121.729 15.9834C121.729 15.7607 121.91 15.5789 122.133 15.5789Z" fill="#EFEEF8"/>
<path fill-rule="evenodd" clip-rule="evenodd" d="M122.133 18.4495H125.427C125.649 18.4495 125.832 18.6318 125.832 18.8544C125.832 19.0771 125.649 19.2593 125.427 19.2593H122.133C121.91 19.2593 121.729 19.0771 121.729 18.8544C121.729 18.6318 121.91 18.4495 122.133 18.4495Z" fill="#EFEEF8"/>
<path fill-rule="evenodd" clip-rule="evenodd" d="M122.133 21.3201H125.427C125.649 21.3201 125.832 21.5023 125.832 21.725C125.832 21.9476 125.649 22.1294 125.427 22.1294H122.133C121.91 22.1294 121.729 21.9476 121.729 21.725C121.729 21.5023 121.91 21.3201 122.133 21.3201Z" fill="#EFEEF8"/>
<path fill-rule="evenodd" clip-rule="evenodd" d="M122.133 24.1906H125.427C125.649 24.1906 125.832 24.3723 125.832 24.595C125.832 24.8181 125.649 24.9999 125.427 24.9999H122.133C121.91 24.9999 121.729 24.8181 121.729 24.595C121.729 24.3723 121.91 24.1906 122.133 24.1906Z" fill="#EFEEF8"/>
<path fill-rule="evenodd" clip-rule="evenodd" d="M122.133 27.0607H125.427C125.649 27.0607 125.832 27.2425 125.832 27.4651C125.832 27.6882 125.649 27.8705 125.427 27.8705H122.133C121.91 27.8705 121.729 27.6882 121.729 27.4651C121.729 27.2425 121.91 27.0607 122.133 27.0607Z" fill="#EFEEF8"/>
<path fill-rule="evenodd" clip-rule="evenodd" d="M117.072 29.9313H125.427C125.649 29.9313 125.832 30.1135 125.832 30.3362C125.832 30.5588 125.649 30.7411 125.427 30.7411H117.072C116.85 30.7411 116.668 30.5588 116.668 30.3362C116.668 30.1135 116.85 29.9313 117.072 29.9313Z" fill="#EFEEF8"/>
<path fill-rule="evenodd" clip-rule="evenodd" d="M117.9 27.0607H120.367C120.589 27.0607 120.771 27.2425 120.771 27.4651C120.771 27.6882 120.589 27.8705 120.367 27.8705H117.9C117.678 27.8705 117.495 27.6882 117.495 27.4651C117.495 27.2425 117.678 27.0607 117.9 27.0607Z" fill="#EFEEF8"/>
<path fill-rule="evenodd" clip-rule="evenodd" d="M119.005 24.1906H120.247C120.47 24.1906 120.652 24.3723 120.652 24.595C120.652 24.8181 120.47 24.9999 120.247 24.9999H119.005C118.782 24.9999 118.6 24.8181 118.6 24.595C118.6 24.3723 118.782 24.1906 119.005 24.1906Z" fill="#EFEEF8"/>
<path fill-rule="evenodd" clip-rule="evenodd" d="M119.871 21.3201H120.78C121.003 21.3201 121.185 21.5023 121.185 21.725C121.185 21.9476 121.003 22.1294 120.78 22.1294H119.871C119.647 22.1294 119.466 21.9476 119.466 21.725C119.466 21.5023 119.647 21.3201 119.871 21.3201Z" fill="#EFEEF8"/>
<path fill-rule="evenodd" clip-rule="evenodd" d="M85.6331 52.3774H87.585C87.9422 52.3774 88.2351 52.6698 88.2351 53.0274V54.9789C88.2351 55.3361 87.9422 55.6294 87.585 55.6294H85.6331C85.2755 55.6294 84.983 55.3361 84.983 54.9789V53.0274C84.983 52.6698 85.2759 52.3774 85.6331 52.3774Z" fill="#80BBE7"/>
<path fill-rule="evenodd" clip-rule="evenodd" d="M92.2991 52.3774H94.2506C94.6077 52.3774 94.9006 52.6698 94.9006 53.0274V54.9789C94.9006 55.3361 94.6077 55.6294 94.2506 55.6294H92.2991C91.941 55.6294 91.649 55.3361 91.649 54.9789V53.0274C91.649 52.6698 91.941 52.3774 92.2991 52.3774Z" fill="white"/>
<path fill-rule="evenodd" clip-rule="evenodd" d="M98.9652 52.3774H100.917C101.274 52.3774 101.567 52.6698 101.567 53.0274V54.9789C101.567 55.3361 101.274 55.6294 100.917 55.6294H98.9652C98.6076 55.6294 98.3147 55.3361 98.3147 54.9789V53.0274C98.3147 52.6698 98.6076 52.3774 98.9652 52.3774Z" fill="#80BBE7"/>
<path fill-rule="evenodd" clip-rule="evenodd" d="M105.631 52.3774H107.583C107.941 52.3774 108.233 52.6698 108.233 53.0274V54.9789C108.233 55.3361 107.941 55.6294 107.583 55.6294H105.631C105.273 55.6294 104.981 55.3361 104.981 54.9789V53.0274C104.981 52.6698 105.274 52.3774 105.631 52.3774Z" fill="#80BBE7"/>
<path fill-rule="evenodd" clip-rule="evenodd" d="M34.0089 23.6833C33.7628 23.6833 33.5626 23.3977 33.5626 23.0461C33.5626 22.6949 33.7628 22.4094 34.0089 22.4094H54.8969C55.143 22.4094 55.3427 22.6949 55.3427 23.0461C55.3427 23.3977 55.143 23.6833 54.8969 23.6833H34.0089ZM31.1773 22.4094C31.4238 22.4094 31.6231 22.6949 31.6231 23.0461C31.6231 23.3977 31.4238 23.6833 31.1773 23.6833H29.4375C29.1909 23.6833 28.9917 23.3977 28.9917 23.0461C28.9917 22.6949 29.1909 22.4094 29.4375 22.4094H31.1773Z" fill="#80BBE7"/>
<path fill-rule="evenodd" clip-rule="evenodd" d="M58.9754 47.654C58.9754 47.5053 59.0952 47.385 59.2444 47.385C59.3931 47.385 59.5138 47.5053 59.5138 47.654V48.866C59.5138 49.0147 59.3931 49.1354 59.2444 49.1354C59.0952 49.1354 58.9754 49.0147 58.9754 48.866V47.654ZM57.1386 48.6378C57.0335 48.5327 57.0335 48.3619 57.1386 48.2568C57.2437 48.1517 57.4145 48.1517 57.5196 48.2568L58.3767 49.1139C58.4819 49.219 58.4819 49.3893 58.3767 49.4944C58.2716 49.5996 58.1004 49.5996 57.9952 49.4944L57.1386 48.6378ZM56.5359 50.6311C56.3871 50.6311 56.2668 50.5108 56.2668 50.3621C56.2668 50.2133 56.3871 50.0926 56.5359 50.0926H57.7478C57.8965 50.0926 58.0168 50.2133 58.0168 50.3621C58.0168 50.5108 57.8965 50.6311 57.7478 50.6311H56.5359ZM57.5196 52.4674C57.4145 52.5725 57.2437 52.5725 57.1386 52.4674C57.0335 52.3622 57.0335 52.1915 57.1386 52.0868L57.9952 51.2297C58.1004 51.125 58.2716 51.125 58.3767 51.2297C58.4819 51.3348 58.4819 51.5056 58.3767 51.6107L57.5196 52.4674ZM59.5138 53.0701C59.5138 53.2193 59.3931 53.3396 59.2444 53.3396C59.0952 53.3396 58.9754 53.2193 58.9754 53.0701V51.8586C58.9754 51.7099 59.0952 51.5892 59.2444 51.5892C59.3931 51.5892 59.5138 51.7099 59.5138 51.8586V53.0701ZM61.3497 52.0872C61.4552 52.1919 61.4552 52.3627 61.3497 52.4678C61.2445 52.5729 61.0738 52.5729 60.9686 52.4678L60.112 51.6112C60.0069 51.5061 60.0069 51.3353 60.112 51.2302C60.2171 51.1255 60.3874 51.1255 60.493 51.2302L61.3497 52.0872ZM61.9529 50.0931C62.1016 50.0931 62.2219 50.2138 62.2219 50.3625C62.2219 50.5113 62.1016 50.6315 61.9529 50.6315H60.7405C60.5922 50.6315 60.4715 50.5113 60.4715 50.3625C60.4715 50.2138 60.5922 50.0931 60.7405 50.0931H61.9529ZM60.9686 48.2568C61.0738 48.1517 61.2445 48.1517 61.3497 48.2568C61.4552 48.3619 61.4552 48.5327 61.3497 48.6378L60.493 49.4944C60.3874 49.5996 60.2171 49.5996 60.112 49.4944C60.0069 49.3893 60.0069 49.219 60.112 49.1139L60.9686 48.2568Z" fill="#80BBE7"/>
<path fill-rule="evenodd" clip-rule="evenodd" d="M217.611 15.3095C217.611 15.1607 217.732 15.0405 217.881 15.0405C218.03 15.0405 218.15 15.1607 218.15 15.3095V16.5214C218.15 16.6702 218.03 16.7904 217.881 16.7904C217.732 16.7904 217.611 16.6702 217.611 16.5214V15.3095ZM215.776 16.2937C215.67 16.1886 215.67 16.0178 215.776 15.9127C215.88 15.8076 216.051 15.8076 216.156 15.9127L217.013 16.7698C217.118 16.8749 217.118 17.0452 217.013 17.1503C216.908 17.2559 216.737 17.2559 216.631 17.1503L215.776 16.2937ZM215.173 18.287C215.024 18.287 214.903 18.1667 214.903 18.018C214.903 17.8688 215.024 17.7485 215.173 17.7485H216.384C216.533 17.7485 216.654 17.8688 216.654 18.018C216.654 18.1667 216.533 18.287 216.384 18.287H215.173ZM216.156 20.1233C216.051 20.2284 215.88 20.2284 215.776 20.1233C215.67 20.0181 215.67 19.8474 215.776 19.7427L216.631 18.8856C216.737 18.7805 216.908 18.7805 217.013 18.8856C217.118 18.9907 217.118 19.1615 217.013 19.2666L216.156 20.1233ZM218.15 20.726C218.15 20.8748 218.029 20.9955 217.88 20.9955C217.732 20.9955 217.611 20.8748 217.611 20.726V19.5141C217.611 19.3654 217.732 19.2451 217.88 19.2451C218.029 19.2451 218.15 19.3654 218.15 19.5141V20.726ZM219.986 19.7427C220.091 19.8474 220.091 20.0181 219.986 20.1233C219.881 20.2284 219.709 20.2284 219.605 20.1233L218.748 19.2666C218.643 19.1615 218.643 18.9907 218.748 18.8856C218.853 18.7805 219.024 18.7805 219.13 18.8856L219.986 19.7427ZM220.589 17.7485C220.738 17.7485 220.858 17.8688 220.858 18.018C220.858 18.1667 220.738 18.287 220.589 18.287H219.377C219.229 18.287 219.107 18.1667 219.107 18.018C219.107 17.8688 219.229 17.7485 219.377 17.7485H220.589ZM219.605 15.9122C219.71 15.8071 219.881 15.8071 219.986 15.9122C220.091 16.0174 220.091 16.1881 219.986 16.2933L219.13 17.1499C219.024 17.2555 218.853 17.2555 218.748 17.1499C218.643 17.0448 218.643 16.8744 218.748 16.7693L219.605 15.9122Z" fill="#80BBE7"/>
<path fill-rule="evenodd" clip-rule="evenodd" d="M238.219 138.37C238.219 138.221 238.34 138.1 238.488 138.1C238.637 138.1 238.758 138.221 238.758 138.37V139.582C238.758 139.73 238.637 139.851 238.488 139.851C238.34 139.851 238.219 139.73 238.219 139.582V138.37ZM236.383 139.354C236.278 139.248 236.278 139.078 236.383 138.972C236.488 138.868 236.659 138.868 236.764 138.972L237.621 139.83C237.726 139.935 237.726 140.105 237.621 140.21C237.516 140.315 237.345 140.315 237.24 140.21L236.383 139.354ZM235.781 141.348C235.633 141.348 235.511 141.226 235.511 141.078C235.511 140.93 235.633 140.809 235.781 140.809H236.992C237.141 140.809 237.262 140.93 237.262 141.078C237.262 141.226 237.141 141.348 236.992 141.348H235.781ZM236.764 143.184C236.659 143.289 236.488 143.289 236.383 143.184C236.278 143.078 236.278 142.908 236.383 142.802L237.24 141.946C237.345 141.841 237.516 141.841 237.621 141.946C237.726 142.051 237.726 142.222 237.621 142.327L236.764 143.184ZM238.758 143.786C238.758 143.935 238.637 144.056 238.488 144.056C238.34 144.056 238.219 143.935 238.219 143.786V142.574C238.219 142.426 238.34 142.305 238.488 142.305C238.637 142.305 238.758 142.426 238.758 142.574V143.786ZM240.594 142.802C240.699 142.908 240.699 143.078 240.594 143.184C240.489 143.289 240.318 143.289 240.213 143.184L239.356 142.327C239.251 142.222 239.251 142.05 239.356 141.946C239.462 141.841 239.633 141.841 239.738 141.946L240.594 142.802ZM241.197 140.809C241.346 140.809 241.467 140.93 241.467 141.078C241.467 141.226 241.346 141.348 241.197 141.348H239.985C239.836 141.348 239.716 141.226 239.716 141.078C239.716 140.93 239.836 140.809 239.985 140.809H241.197ZM240.213 138.972C240.318 138.868 240.489 138.868 240.594 138.972C240.699 139.078 240.699 139.248 240.594 139.354L239.738 140.21C239.632 140.315 239.461 140.315 239.356 140.21C239.251 140.105 239.251 139.934 239.356 139.83L240.213 138.972Z" fill="#80BBE7"/>
<path fill-rule="evenodd" clip-rule="evenodd" d="M6.80949 95.5859C6.80949 95.4371 6.93022 95.3164 7.07896 95.3164C7.2277 95.3164 7.34843 95.4371 7.34843 95.5859V96.7978C7.34843 96.9461 7.2277 97.0673 7.07896 97.0673C6.93022 97.0673 6.80949 96.9461 6.80949 96.7978V95.5859ZM4.97321 96.5701C4.86854 96.4645 4.86854 96.2933 4.97321 96.1886C5.07834 96.0835 5.24911 96.0835 5.35424 96.1886L6.21132 97.0453C6.31645 97.1508 6.31645 97.3221 6.21132 97.4263C6.10619 97.5314 5.93542 97.5314 5.83029 97.4263L4.97321 96.5701ZM4.37046 98.5634C4.22218 98.5634 4.10144 98.4422 4.10144 98.2939C4.10144 98.1456 4.22218 98.0244 4.37046 98.0244H5.5824C5.73114 98.0244 5.85187 98.1456 5.85187 98.2939C5.85187 98.4422 5.73114 98.5634 5.5824 98.5634H4.37046ZM5.35424 100.4C5.24911 100.504 5.07834 100.504 4.97321 100.4C4.86854 100.295 4.86854 100.124 4.97321 100.018L5.83029 99.162C5.93542 99.0569 6.10619 99.0569 6.21132 99.162C6.31645 99.2667 6.31645 99.4379 6.21132 99.5426L5.35424 100.4ZM7.34889 101.002C7.34889 101.151 7.22815 101.272 7.07942 101.272C6.93068 101.272 6.80994 101.151 6.80994 101.002V99.7905C6.80994 99.6422 6.93068 99.521 7.07942 99.521C7.22815 99.521 7.34889 99.6422 7.34889 99.7905V101.002ZM9.18517 100.018C9.28983 100.124 9.28983 100.295 9.18517 100.4C9.08004 100.504 8.90926 100.504 8.80414 100.4L7.94706 99.5426C7.84239 99.4375 7.84239 99.2662 7.94706 99.162C8.05218 99.0569 8.22296 99.0569 8.32808 99.162L9.18517 100.018ZM9.78792 98.0249C9.9362 98.0249 10.0574 98.1461 10.0574 98.2944C10.0574 98.4427 9.9362 98.5639 9.78792 98.5639H8.57598C8.42724 98.5639 8.30651 98.4427 8.30651 98.2944C8.30651 98.1461 8.42724 98.0249 8.57598 98.0249H9.78792ZM8.80414 96.1886C8.90926 96.0835 9.08004 96.0835 9.18517 96.1886C9.28983 96.2938 9.28983 96.4645 9.18517 96.5701L8.32808 97.4263C8.22296 97.5314 8.05218 97.5314 7.94706 97.4263C7.84239 97.3216 7.84239 97.1508 7.94706 97.0453L8.80414 96.1886Z" fill="#80BBE7"/>
<path fill-rule="evenodd" clip-rule="evenodd" d="M272.607 120.976C272.607 120.827 272.727 120.707 272.876 120.707C273.024 120.707 273.145 120.827 273.145 120.976V122.188C273.145 122.336 273.024 122.457 272.876 122.457C272.727 122.457 272.607 122.336 272.607 122.188V120.976ZM270.77 121.959C270.665 121.854 270.665 121.683 270.77 121.578C270.875 121.473 271.046 121.473 271.151 121.578L272.008 122.434C272.113 122.54 272.113 122.71 272.008 122.816C271.903 122.921 271.732 122.921 271.627 122.816L270.77 121.959ZM270.167 123.953C270.019 123.953 269.897 123.832 269.897 123.684C269.897 123.535 270.019 123.414 270.167 123.414H271.379C271.528 123.414 271.648 123.535 271.648 123.684C271.648 123.832 271.528 123.953 271.379 123.953H270.167ZM271.151 125.789C271.046 125.894 270.875 125.894 270.77 125.789C270.665 125.684 270.665 125.513 270.77 125.408L271.627 124.552C271.732 124.447 271.903 124.447 272.008 124.552C272.113 124.657 272.113 124.828 272.008 124.932L271.151 125.789ZM273.145 126.392C273.145 126.541 273.024 126.662 272.875 126.662C272.726 126.662 272.606 126.541 272.606 126.392V125.181C272.606 125.032 272.726 124.911 272.875 124.911C273.024 124.911 273.145 125.032 273.145 125.181V126.392ZM274.981 125.408C275.086 125.513 275.086 125.684 274.981 125.789C274.876 125.894 274.705 125.894 274.6 125.789L273.743 124.932C273.638 124.827 273.638 124.656 273.743 124.552C273.848 124.447 274.019 124.447 274.124 124.552L274.981 125.408ZM275.584 123.414C275.732 123.414 275.853 123.535 275.853 123.684C275.853 123.832 275.732 123.953 275.584 123.953H274.372C274.223 123.953 274.103 123.832 274.103 123.684C274.103 123.535 274.223 123.414 274.372 123.414H275.584ZM274.6 121.578C274.705 121.473 274.876 121.473 274.981 121.578C275.086 121.683 275.086 121.854 274.981 121.959L274.124 122.816C274.019 122.921 273.848 122.921 273.743 122.816C273.638 122.71 273.638 122.54 273.743 122.434L274.6 121.578Z" fill="#80BBE7"/>
<path fill-rule="evenodd" clip-rule="evenodd" d="M254.809 15.8719H256.761C257.118 15.8719 257.411 16.1639 257.411 16.5219V18.4734C257.411 18.8306 257.118 19.1235 256.761 19.1235H254.809C254.451 19.1235 254.159 18.8306 254.159 18.4734V16.5219C254.159 16.1639 254.451 15.8719 254.809 15.8719Z" fill="#80BBE7"/>
<path fill-rule="evenodd" clip-rule="evenodd" d="M261.475 15.8719H263.427C263.783 15.8719 264.076 16.1639 264.076 16.5219V18.4734C264.076 18.8306 263.783 19.1235 263.427 19.1235H261.475C261.117 19.1235 260.825 18.8306 260.825 18.4734V16.5219C260.825 16.1639 261.117 15.8719 261.475 15.8719Z" fill="white"/>
<path fill-rule="evenodd" clip-rule="evenodd" d="M268.141 15.8719H270.093C270.45 15.8719 270.743 16.1639 270.743 16.5219V18.4734C270.743 18.8306 270.45 19.1235 270.093 19.1235H268.141C267.783 19.1235 267.491 18.8306 267.491 18.4734V16.5219C267.491 16.1639 267.783 15.8719 268.141 15.8719Z" fill="#80BBE7"/>
<path fill-rule="evenodd" clip-rule="evenodd" d="M274.807 15.8719H276.759C277.116 15.8719 277.409 16.1639 277.409 16.5219V18.4734C277.409 18.8306 277.116 19.1235 276.759 19.1235H274.807C274.45 19.1235 274.157 18.8306 274.157 18.4734V16.5219C274.157 16.1639 274.45 15.8719 274.807 15.8719Z" fill="#80BBE7"/>
<path fill-rule="evenodd" clip-rule="evenodd" d="M8.26574 35.5544C9.14485 34.6753 10.3591 34.1318 11.7009 34.1318C13.0423 34.1318 14.2566 34.6753 15.1362 35.5544C16.0148 36.4331 16.5588 37.6478 16.5588 38.9896C16.5588 40.3306 16.0148 41.5453 15.1362 42.4244C14.2566 43.3035 13.0423 43.8475 11.7009 43.8475C10.3591 43.8475 9.14485 43.3035 8.26574 42.4244C7.38662 41.5453 6.84263 40.3306 6.84263 38.9896C6.84263 37.6478 7.38662 36.4331 8.26574 35.5544ZM9.31517 30.7392C8.64217 30.9334 8.00361 31.2075 7.41141 31.5495C6.8036 31.9011 6.24262 32.3249 5.74086 32.8087C5.64262 32.9028 5.4971 32.9175 5.38463 32.8523L3.12739 31.5486L3.11545 31.5417C2.98554 31.4715 2.83863 31.4581 2.70367 31.4944C2.56457 31.5316 2.44016 31.6211 2.3635 31.7538L2.35386 31.7694L0.765938 34.5201C0.689273 34.6528 0.674126 34.8057 0.711769 34.9448C0.748495 35.0839 0.83847 35.2083 0.971141 35.2849L0.986292 35.2946L3.22563 36.5873C3.34315 36.6548 3.39686 36.7907 3.3661 36.9165H3.36656C3.28393 37.2493 3.22103 37.5918 3.17788 37.9425C3.13657 38.2845 3.11499 38.6338 3.11499 38.9896C3.11499 39.3445 3.13657 39.6938 3.17788 40.0358C3.22103 40.3866 3.28439 40.729 3.36656 41.0619C3.40099 41.2005 3.33213 41.3401 3.20956 41.4006L0.970682 42.6929L0.971141 42.6934C0.83847 42.77 0.748495 42.8949 0.711769 43.0336C0.674126 43.1726 0.689273 43.326 0.765938 43.4582L2.36304 46.2245H2.3635C2.44016 46.3572 2.56457 46.4472 2.70367 46.4844C2.84276 46.5211 2.99518 46.5064 3.12739 46.4297L3.14437 46.421L5.386 45.1264C5.50352 45.059 5.64767 45.0805 5.74086 45.1696C6.24262 45.6535 6.80314 46.0772 7.41095 46.4288C8.00728 46.7731 8.64998 47.0481 9.3271 47.2428C9.45886 47.2804 9.5447 47.3998 9.5447 47.5297V50.134C9.5447 50.2873 9.6076 50.4268 9.70859 50.5278C9.8105 50.6298 9.95006 50.6926 10.1029 50.6926H13.298C13.4518 50.6926 13.5914 50.6298 13.6924 50.5278C13.7938 50.4268 13.8572 50.2873 13.8572 50.134V47.5297C13.8572 47.3887 13.955 47.2708 14.0863 47.2391C14.7597 47.0449 15.3978 46.7713 15.9905 46.4288C16.5987 46.0772 17.1588 45.6535 17.661 45.1696C17.7634 45.0714 17.9181 45.0603 18.0315 45.1356L20.2736 46.4297C20.4063 46.5064 20.5591 46.5216 20.6982 46.4844C20.8369 46.4472 20.9613 46.3572 21.0379 46.2245L21.0476 46.2089L22.636 43.4577V43.4573C22.7122 43.3251 22.7273 43.1722 22.6901 43.0331C22.6529 42.8945 22.5634 42.7696 22.4317 42.6934L20.1763 41.391C20.0583 41.324 20.0046 41.1876 20.0358 41.0623H20.0349C20.1175 40.729 20.1809 40.3866 20.2236 40.0358C20.2653 39.6938 20.2864 39.3449 20.2864 38.9896C20.2864 38.6338 20.2653 38.2845 20.2236 37.9425C20.1809 37.5918 20.1175 37.2493 20.0349 36.9165C20.0009 36.7778 20.0698 36.6383 20.1928 36.5777L22.4317 35.2849C22.5634 35.2087 22.6529 35.0843 22.6901 34.9448C22.7273 34.8061 22.7122 34.6537 22.636 34.5215L22.6268 34.5045L21.0389 31.7538H21.0379C20.9613 31.6211 20.8369 31.5316 20.6982 31.4944C20.5591 31.4572 20.4063 31.4724 20.2736 31.5486H20.2745L18.0168 32.8523C17.8965 32.9217 17.7473 32.8978 17.6546 32.8028C17.1542 32.3212 16.5955 31.8993 15.9905 31.5495C15.3946 31.2052 14.7519 30.9302 14.0739 30.7356C13.943 30.6984 13.8572 30.579 13.8572 30.4487V27.8448C13.8572 27.6915 13.7938 27.5519 13.6924 27.4505C13.5914 27.349 13.4518 27.2861 13.298 27.2861H10.1029C9.95006 27.2861 9.8105 27.349 9.70859 27.4505C9.6076 27.5519 9.5447 27.6915 9.5447 27.8448V30.4487C9.5447 30.5896 9.44646 30.7085 9.31517 30.7392Z" fill="#D3EBFA"/>
<path fill-rule="evenodd" clip-rule="evenodd" d="M159.346 79.6089C156.509 82.193 156.066 82.5001 156.066 82.5001C156.066 82.5001 154.193 86.057 154.913 86.0542C155.634 86.0519 156.209 85.4005 156.209 85.4005C156.209 85.4005 156.911 86.297 157.542 85.9229C158.173 85.5492 158.506 85.4092 158.506 85.4092C158.506 85.4092 159.23 86.1281 159.827 85.6599C160.425 85.1916 163.277 82.1136 163.277 82.1136L167.045 79.6429L165.543 78.2891L159.346 79.6089Z" fill="#E98DAF"/>
<path fill-rule="evenodd" clip-rule="evenodd" d="M205.308 155.552C205.251 155.95 204.786 157.952 204.794 158.002C204.876 158.592 205.021 159.773 205.021 159.773C205.021 159.773 203.867 161.1 202.796 161.293C201.726 161.486 196.866 161.703 196.805 161.437C196.743 161.172 198.019 159.074 198.019 159.074C198.019 159.074 199.399 157.916 199.584 155.239C199.769 152.561 205.308 155.552 205.308 155.552Z" fill="#F3C6D4"/>
<path fill-rule="evenodd" clip-rule="evenodd" d="M198.997 159.617L199.593 159.403C199.593 159.403 200.941 160.113 202.638 159.535C204.335 158.954 204.794 158.002 204.794 158.002C204.794 158.002 204.877 157.808 205.06 157.808H205.459C205.619 157.808 206.06 157.878 206.243 158.313C206.425 158.747 206.808 161.399 206.287 162.868C205.766 164.337 205.036 164.144 205.036 164.144C205.036 164.144 202.137 163.288 200.181 163.978C198.225 164.668 196.435 165.386 196.435 165.386C196.435 165.386 196.528 161.493 198.997 159.617Z" fill="#0E0226"/>
<path fill-rule="evenodd" clip-rule="evenodd" d="M185.796 164.988L185.58 164.355V163.586C185.58 163.298 185.701 162.432 186.537 162.432H189.741C190.484 162.432 194.501 160.39 197.589 157.878C197.589 157.878 197.807 157.622 198.131 157.809C198.454 157.996 199.439 158.782 199.539 158.864C199.639 158.948 199.651 159.286 199.592 159.403C199.532 159.52 196.675 165.179 196.675 165.179C196.675 165.179 188.263 166.283 185.796 164.988Z" fill="#1A0F44"/>
<path fill-rule="evenodd" clip-rule="evenodd" d="M185.58 164.355C185.58 164.355 185.391 164.511 185.391 164.686V165.303C185.391 165.441 185.763 166.088 186.592 166.088H195.486C196.645 166.088 197.869 165.793 198.662 165.396C199.453 164.999 200.952 164.557 200.952 164.557C200.952 164.557 201.164 164.486 201.164 164.85V165.557C201.164 165.733 201.056 166.214 201.781 166.214H206.108C206.438 166.214 206.815 166.026 206.815 165.352V163.619C206.815 163.2 206.56 162.868 206.287 162.868H202.96C201.565 162.868 200.453 163.21 198.718 164.027C196.985 164.845 195.401 165.088 193.591 165.088H188.614C187.737 165.087 186.173 164.888 185.58 164.355Z" fill="#0E0226"/>
<path fill-rule="evenodd" clip-rule="evenodd" d="M224.172 155.552C224.114 155.95 223.65 157.952 223.658 158.002C223.74 158.592 223.884 159.773 223.884 159.773C223.884 159.773 222.731 161.1 221.66 161.293C220.589 161.486 215.73 161.703 215.668 161.437C215.606 161.172 216.883 159.074 216.883 159.074C216.883 159.074 218.262 157.916 218.447 155.239C218.633 152.561 224.172 155.552 224.172 155.552Z" fill="#F3C6D4"/>
<path fill-rule="evenodd" clip-rule="evenodd" d="M217.861 159.617L218.456 159.403C218.456 159.403 219.805 160.113 221.501 159.535C223.198 158.954 223.658 158.002 223.658 158.002C223.658 158.002 223.741 157.808 223.923 157.808H224.323C224.482 157.808 224.925 157.878 225.107 158.313C225.289 158.747 225.672 161.399 225.15 162.868C224.629 164.337 223.899 164.144 223.899 164.144C223.899 164.144 221.001 163.288 219.045 163.978C217.089 164.668 215.298 165.386 215.298 165.386C215.298 165.386 215.392 161.493 217.861 159.617Z" fill="#0E0226"/>
<path fill-rule="evenodd" clip-rule="evenodd" d="M204.659 164.988L204.443 164.355V163.586C204.443 163.298 204.564 162.432 205.4 162.432H208.605C209.347 162.432 213.365 160.39 216.452 157.878C216.452 157.878 216.67 157.622 216.994 157.809C217.318 157.995 218.302 158.782 218.402 158.864C218.502 158.948 218.514 159.286 218.455 159.403C218.396 159.52 215.539 165.179 215.539 165.179C215.539 165.179 207.127 166.283 204.659 164.988Z" fill="#1A0F44"/>
<path fill-rule="evenodd" clip-rule="evenodd" d="M204.444 164.355C204.444 164.355 204.255 164.511 204.255 164.686V165.303C204.255 165.441 204.626 166.088 205.456 166.088H214.349C215.509 166.088 216.733 165.793 217.525 165.396C218.318 164.999 219.815 164.557 219.815 164.557C219.815 164.557 220.028 164.486 220.028 164.85V165.557C220.028 165.733 219.92 166.214 220.645 166.214H224.972C225.301 166.214 225.678 166.026 225.678 165.352V163.619C225.678 163.2 225.424 162.868 225.15 162.868H221.823C220.429 162.868 219.316 163.21 217.582 164.027C215.848 164.845 214.264 165.088 212.455 165.088H207.477C206.601 165.087 205.036 164.888 204.444 164.355Z" fill="#0E0226"/>
<path fill-rule="evenodd" clip-rule="evenodd" d="M171.391 34.6978C171.391 34.6978 169.386 38.0618 170.645 45.7108C171.902 53.3593 180.582 83.1281 174.688 98.662C174.688 98.662 174.324 99.7271 175.337 100.314C176.35 100.9 190.668 103.385 201.136 98.9265C211.604 94.4662 193.219 36.966 171.391 34.6978Z" fill="#1B7FC2"/>
<path fill-rule="evenodd" clip-rule="evenodd" d="M199.226 156.941C199.226 156.941 201.571 158.365 205.538 157.505C205.538 157.505 206.548 157.131 206.773 156.083C206.997 155.035 214.41 92.6468 215.307 81.5714C216.205 70.4963 209.438 63.7333 199.072 56.6238C188.706 49.5146 197.381 55.5174 196.577 55.0615C194.007 64.5771 190.989 70.6974 190.989 70.6974L190.966 75.3877C190.964 75.7114 191.125 76.0107 191.202 76.3169C194.362 88.8733 194.734 98.8925 195.209 111.523C195.228 111.892 195.024 102.042 195.252 112.626C195.48 123.212 197.879 153.648 198.029 154.846C198.179 156.043 198.702 156.829 199.226 156.941Z" fill="#170839"/>
<path fill-rule="evenodd" clip-rule="evenodd" d="M173.302 46.6216L176.298 51.484C176.298 51.484 188.994 73.2939 190.753 76.4C192.513 79.5065 200.038 79.0653 200.038 79.0653L183.965 32.3487C183.965 32.3487 178.351 31.4604 176.173 31.5063C173.996 31.5527 172.598 34.8855 172.598 34.8855L173.302 46.6216Z" fill="#170839"/>
<path fill-rule="evenodd" clip-rule="evenodd" d="M171.391 34.6978C171.391 34.6978 169.386 38.0618 170.645 45.7108C171.617 51.6222 177.021 70.7456 176.705 86.2998L176.707 86.3012C179.472 57.9895 174.377 40.079 172.598 34.8855C172.198 34.8066 171.795 34.7395 171.391 34.6978Z" fill="#428FCD"/>
<path fill-rule="evenodd" clip-rule="evenodd" d="M217.914 156.984C217.914 156.984 220.092 158.202 224.058 157.341C224.058 157.341 225.068 156.967 225.293 155.92C225.516 154.871 228.484 133.954 229.381 122.879C230.279 111.803 237.806 70.2521 217.935 56.6233C198.064 42.9949 193.781 66.5089 193.781 66.5089C193.781 66.5089 212.319 74.3126 212.767 95.1157C213.217 115.919 216.565 153.691 216.715 154.888C216.865 156.085 217.389 156.872 217.914 156.984Z" fill="#221758"/>
<path fill-rule="evenodd" clip-rule="evenodd" d="M219.546 157.495C220.585 157.685 222.105 157.766 224.058 157.342C224.058 157.342 225.068 156.968 225.293 155.92C225.517 154.873 228.484 133.954 229.381 122.879C230.062 114.476 234.556 88.5309 228.008 70.5469C227.918 70.6093 217.689 77.7777 211.802 87.8336C212.364 90.0605 212.711 92.4839 212.768 95.1162C212.844 98.6267 213.003 102.621 213.214 106.841C215.739 104.131 219.096 100.484 220.798 98.4385C223.743 94.906 227.055 96.1569 228.233 97.85C229.41 99.543 224.92 142.157 224.332 147.603C223.916 151.437 221.15 155.452 219.546 157.495Z" fill="#22134F"/>
<path fill-rule="evenodd" clip-rule="evenodd" d="M168.241 22.8653C168.271 22.8616 168.359 23.2293 168.724 23.8449L166.92 25.7441C166.92 25.7441 167.379 26.3271 168.041 26.9904C167.221 27.2737 166.516 27.7649 166.069 28.4214C166.069 28.4214 164.132 34.3865 164.695 34.9649C164.675 34.9897 164.654 35.0136 164.634 35.0384C161.147 39.1553 159.006 37.7919 158.57 37.4228C158.134 37.0532 155.992 35.0889 155.761 35.0434C155.53 34.998 154.703 35.9753 154.145 35.502C153.586 35.0296 150.878 31.7175 147.93 27.0634C144.98 22.408 146.645 17.0466 146.645 17.0466C153.834 11.2104 159.806 22.2005 160.529 20.3564C161.252 18.5119 163.314 18.3411 164.458 20.3881C164.618 20.6741 168.199 22.5591 168.241 22.8653Z" fill="#F3C6D4"/>
<path fill-rule="evenodd" clip-rule="evenodd" d="M168.241 22.8653C168.271 22.8616 168.359 23.2293 168.724 23.8449L166.92 25.7441C166.92 25.7441 167.379 26.3271 168.041 26.9905C167.839 27.0607 167.643 27.1429 167.457 27.2379C167.425 26.8931 167.367 26.637 167.275 26.5309C166.785 25.9654 165.808 24.753 165.808 24.753C165.808 24.753 164.441 25.3897 164.184 23.8807C163.926 22.3722 162.767 20.9 161.553 21.1392C160.339 21.3784 161.036 22.9589 161.036 22.9589L163.908 27.1011L163.43 32.0324C163.43 32.0324 158.941 32.8417 159.862 30.9293C160.783 29.0168 158.425 27.5427 155.702 24.4514C152.979 21.36 151.469 21.6914 150.77 22.1698C150.334 22.4682 148.309 23.8266 146.846 24.8062C146.105 22.667 146.104 20.5823 146.261 19.1129C147.905 17.8522 150.237 16.4929 152.413 15.4738C156.818 16.4429 160.014 21.6735 160.53 20.3565C161.254 18.5119 163.316 18.3412 164.459 20.3881C164.618 20.6741 168.199 22.5591 168.241 22.8653Z" fill="#E98DAF"/>
<path fill-rule="evenodd" clip-rule="evenodd" d="M169.208 22.8588C169.208 22.8588 170.608 22.9516 171.674 22.9979C172.74 23.0438 173.616 29.2637 173.616 29.2637L171.799 32.0255L171.376 32.6691L170.001 34.7602L169.871 34.1152C169.871 34.1152 168.431 32.9996 167.525 34.2547C166.619 35.5098 164.35 32.1476 164.35 32.1476C164.35 32.1476 163.937 24.775 169.208 22.8588Z" fill="#F3C6D4"/>
<path fill-rule="evenodd" clip-rule="evenodd" d="M169.209 22.8588C169.209 22.8588 170.608 22.9516 171.674 22.9979C172.74 23.0438 173.616 29.2642 173.616 29.2642L171.8 32.0255L171.376 32.6691L170.001 34.7602L169.871 34.1152C169.871 34.1152 168.431 32.9996 167.525 34.2547C167.3 34.5669 166.99 34.5935 166.652 34.4567L167.275 31.8671C167.275 31.8671 167.764 27.096 167.275 26.5309C166.977 26.1866 166.498 25.6027 166.169 25.1987C166.877 24.2034 167.854 23.3514 169.209 22.8588Z" fill="#E98DAF"/>
<path fill-rule="evenodd" clip-rule="evenodd" d="M158.03 22.8432C158.026 22.8446 154.745 24.4463 152.148 19.5182C152.148 19.5182 148.785 23.0824 146.592 23.9743C146.549 23.9922 146.503 24.0065 146.456 24.0202L146.592 23.9743C146.592 23.9743 145.656 24.0078 144.628 23.5547C143.321 23.0888 141.66 22.1059 140.624 20.0355C138.711 16.2083 140.993 14.2577 143.053 14.5152C143.053 14.5152 146.144 7.7807 147.874 5.79339C149.604 3.80654 153.651 4.6526 153.651 4.6526C153.651 4.6526 153.062 2.92283 153.762 2.5184C154.46 2.1135 158.25 2.8627 159.723 7.25369C159.723 7.25369 162.667 6.77304 164.215 8.27236C165.758 9.768 169.19 22.7904 169.209 22.8588C169.283 23.6897 168.954 24.5266 168.117 24.5564C166.834 24.5592 165.468 24.1722 164.497 22.8652C164.497 22.8652 163.408 18.9792 161.493 19.5673C161.493 19.5673 159.865 19.5824 160.627 22.3176C160.627 22.3176 161.286 23.5033 162.19 24.2929C163.096 25.0816 165.567 26.726 167.288 30.7442C169.007 34.7624 165.373 37.3025 164.375 38.48C163.378 39.657 161.703 40.5752 160.499 39.5556C159.295 38.5364 156.58 36.236 156.167 35.8881C155.756 35.5387 155.66 35.1563 155.76 35.0438C155.76 35.0438 157.512 33.1846 158.842 31.9075C160.172 30.6285 161.21 29.8004 161.211 28.3401C161.212 26.8807 161.177 25.7275 159.837 24.2328C159.287 23.6186 158.647 23.1645 158.03 22.8432Z" fill="#170839"/>
<path fill-rule="evenodd" clip-rule="evenodd" d="M152.147 19.5182C152.147 19.5182 148.784 23.0828 146.592 23.9748C146.549 23.9922 146.502 24.0065 146.455 24.0202L146.592 23.9748C146.592 23.9748 145.656 24.0078 144.628 23.5547C143.321 23.0888 141.659 22.1059 140.624 20.0355C138.71 16.2083 140.992 14.2582 143.053 14.5157C143.053 14.5157 146.144 7.7807 147.873 5.79385C149.604 3.80654 153.651 4.65306 153.651 4.65306C153.651 4.65306 153.062 2.92329 153.761 2.5184C154.46 2.1135 158.25 2.8627 159.722 7.25369C159.722 7.25369 159.734 11.6405 152.147 19.5182Z" fill="#201049"/>
<path fill-rule="evenodd" clip-rule="evenodd" d="M140.218 19.0789C139.107 15.8856 141.172 14.2798 143.052 14.5153C143.052 14.5153 154.977 17.3234 156.596 3.17169C156.778 3.28049 156.962 3.4026 157.145 3.53941C157.303 9.3939 155.557 20.2275 140.218 19.0789Z" fill="#22185A"/>
<path fill-rule="evenodd" clip-rule="evenodd" d="M153.512 29.3652C153.832 29.0944 154.315 29.1347 154.586 29.4547L155.228 30.2136C155.498 30.5335 155.459 31.0169 155.138 31.2873C154.818 31.5582 154.335 31.5173 154.064 31.1978L153.423 30.4385C153.152 30.119 153.192 29.6356 153.512 29.3652Z" fill="#170839"/>
<path fill-rule="evenodd" clip-rule="evenodd" d="M155.833 31.3397C156.307 30.938 157.019 30.9972 157.421 31.4724C157.822 31.9471 157.762 32.6577 157.288 33.0598C156.812 33.4615 156.102 33.4018 155.7 32.9272C155.298 32.452 155.358 31.7414 155.833 31.3397Z" fill="#ED7792"/>
<path fill-rule="evenodd" clip-rule="evenodd" d="M153.664 27.8733C153.789 27.8452 153.867 27.7218 153.839 27.5978C153.811 27.4734 153.688 27.3949 153.564 27.4229C153.559 27.4238 152.037 27.7254 151.549 29.0723C151.506 29.1922 151.568 29.3253 151.688 29.3684C151.808 29.412 151.94 29.3501 151.984 29.2303C152.382 28.128 153.66 27.8742 153.664 27.8733Z" fill="#170839"/>
<path fill-rule="evenodd" clip-rule="evenodd" d="M176.429 77.5413C176.429 77.5413 166.716 81.1656 165.699 81.6559C164.682 82.1462 163.568 78.0986 163.474 77.4394C163.379 76.7806 164.075 76.008 165.392 75.2537C166.71 74.499 174.031 70.2559 174.031 70.2559L176.429 77.5413Z" fill="white"/>
<path fill-rule="evenodd" clip-rule="evenodd" d="M177.954 77.2461C174.4 78.5801 168.242 80.9062 167.366 81.329C166.125 81.9276 164.764 76.9853 164.648 76.1806C164.532 75.3758 165.382 74.4324 166.991 73.5111C167.9 72.99 171.153 71.1074 173.81 69.5691C173.81 69.5691 176.182 67.921 176.537 64.2866C176.893 60.6521 178.144 43.9778 178.144 43.9778L187.877 48.3064L189.603 50.8515C189.603 50.8515 185.954 66.6388 184.523 70.3086C183.092 73.978 181.103 76.0598 177.954 77.2461Z" fill="#170839"/>
<path fill-rule="evenodd" clip-rule="evenodd" d="M227.604 55.2571C227.604 55.2571 234.521 67.2246 235.828 85.1475C235.828 85.1475 235.941 85.7544 235.248 86.0496C234.555 86.3443 228.761 86.0661 221.954 94.4225C215.147 102.779 204.268 110.287 198.03 109.308C198.03 109.308 197.356 109.304 197.272 108.212C197.189 107.119 195.883 58.0868 175.844 40.3672C175.844 40.3672 173.899 38.7706 173.97 36.0547C174.041 33.3384 205.364 22.2249 227.604 55.2571Z" fill="#0065AA"/>
<path fill-rule="evenodd" clip-rule="evenodd" d="M221.96 67.5074L220.509 72.3657C220.509 72.3657 217.418 72.5163 209.402 56.4333C209.402 56.4333 206.212 50.2372 197.003 48.344L201.105 42.507C201.105 42.507 218.609 45.5988 218.519 47.0926C218.427 48.5864 221.96 67.5074 221.96 67.5074Z" fill="#1B7FC2"/>
<path fill-rule="evenodd" clip-rule="evenodd" d="M181.015 54.7141L186.792 50.8345C187.373 50.4443 188.236 50.554 188.711 51.0783L198.808 62.2359C199.282 62.7602 199.195 63.5084 198.614 63.8982L192.837 67.7778C192.255 68.168 191.392 68.0578 190.918 67.534L180.82 56.3764C180.346 55.8521 180.433 55.1043 181.015 54.7141Z" fill="#170839"/>
<path fill-rule="evenodd" clip-rule="evenodd" d="M180.176 55.2773L185.954 51.3977C186.534 51.0075 187.397 51.1173 187.871 51.642L197.969 62.7996C198.443 63.3234 198.356 64.0717 197.775 64.4615L191.998 68.3415C191.416 68.7312 190.552 68.6215 190.078 68.0973L179.982 56.9396C179.507 56.4154 179.594 55.6671 180.176 55.2773Z" fill="#221758"/>
<path fill-rule="evenodd" clip-rule="evenodd" d="M180.998 56.6426L181.928 56.0182C182.021 55.9553 182.16 55.9732 182.237 56.0572L184.736 58.8185C184.813 58.9026 184.799 59.0233 184.706 59.0862L183.776 59.7105C183.682 59.7734 183.543 59.7555 183.467 59.671L180.967 56.9102C180.89 56.8257 180.904 56.7055 180.998 56.6426Z" fill="#674F9B"/>
<path fill-rule="evenodd" clip-rule="evenodd" d="M181.781 56.644C182.026 56.4796 182.38 56.5297 182.572 56.7551C182.765 56.9809 182.722 57.2968 182.478 57.4611C182.233 57.625 181.879 57.5754 181.687 57.3496C181.494 57.1237 181.537 56.8079 181.781 56.644Z" fill="#D3EBFA"/>
<path fill-rule="evenodd" clip-rule="evenodd" d="M182.737 57.715C182.981 57.5506 183.336 57.6002 183.528 57.8261C183.72 58.0519 183.678 58.3678 183.433 58.5317C183.189 58.696 182.835 58.6464 182.642 58.4206C182.45 58.1947 182.492 57.8784 182.737 57.715Z" fill="#D3EBFA"/>
<path fill-rule="evenodd" clip-rule="evenodd" d="M182.888 57.8917C183.027 57.7985 183.227 57.8266 183.336 57.9546C183.445 58.0827 183.421 58.2617 183.282 58.3549C183.144 58.4477 182.943 58.4197 182.834 58.292C182.725 58.164 182.749 57.9845 182.888 57.8917Z" fill="white"/>
<path fill-rule="evenodd" clip-rule="evenodd" d="M181.92 56.8065C182.067 56.7078 182.28 56.7376 182.396 56.8735C182.512 57.0094 182.486 57.1994 182.339 57.2986C182.192 57.3973 181.979 57.367 181.863 57.2311C181.748 57.0957 181.773 56.9052 181.92 56.8065Z" fill="white"/>
<path fill-rule="evenodd" clip-rule="evenodd" d="M183.649 58.7355C183.796 58.6368 184.009 58.6666 184.125 58.8025C184.24 58.9379 184.215 59.128 184.068 59.2272C183.921 59.3259 183.707 59.2955 183.592 59.1601C183.477 59.0242 183.503 58.8337 183.649 58.7355Z" fill="#D3EBFA"/>
<path fill-rule="evenodd" clip-rule="evenodd" d="M174.558 18.7318C174.441 18.7998 172.042 19.4213 171.637 19.6031C171.233 19.7845 171.106 20.6392 171.017 22.0959C170.928 23.552 169.744 34.3507 169.688 34.9658C169.632 35.5815 169.852 35.951 170.385 36.1333C170.918 36.3155 177.062 38.5273 177.062 38.5273L174.558 18.7318Z" fill="#170839"/>
<path fill-rule="evenodd" clip-rule="evenodd" d="M207.814 49.1542C207.814 49.1542 198.529 55.3067 197.461 55.8805C196.393 56.4539 199.207 59.9791 199.72 60.4776C200.232 60.9757 201.344 60.8591 202.831 60.1907C204.319 59.5218 212.63 55.8392 212.63 55.8392L207.814 49.1542Z" fill="white"/>
<path fill-rule="evenodd" clip-rule="evenodd" d="M211.959 45.5543C211.959 45.5543 199.818 53.6013 198.42 54.3514C197.023 55.1015 200.703 59.7115 201.374 60.3638C202.045 61.0152 203.497 60.8624 205.443 59.9883C207.389 59.1142 218.259 54.2972 218.259 54.2972L211.959 45.5543Z" fill="#221758"/>
<path fill-rule="evenodd" clip-rule="evenodd" d="M186.198 46.6753C186.198 46.6753 191.928 48.0557 198.725 48.4703C205.522 48.8848 219.635 49.8204 220.509 72.3652C220.509 72.3652 220.615 72.4841 220.978 72.3565C221.342 72.2289 231.17 63.5126 232.55 59.3236C233.931 55.1341 225.948 39.7282 221.571 37.7368C217.194 35.7453 209.047 34.1244 200.144 25.1845C191.243 16.2446 178.996 17.3156 178.996 17.3156L176.332 27.1814C176.332 27.1814 177.548 44.1238 186.198 46.6753Z" fill="#428FCD"/>
<path fill-rule="evenodd" clip-rule="evenodd" d="M218.032 59.93C219.395 63.093 220.307 67.1502 220.509 72.3657C220.509 72.3657 220.615 72.4841 220.978 72.3565C221.342 72.2289 231.17 63.5126 232.55 59.3236C233.103 57.6466 232.154 54.171 230.537 50.4792C230.531 53.1799 230.176 56.1716 228.826 57.6617C226.933 59.7528 221.412 59.9933 218.032 59.93ZM222.299 38.1674C222.048 37.9893 221.805 37.8428 221.572 37.7368C217.194 35.7458 209.047 34.1244 200.145 25.1845C199.961 24.9995 199.774 24.82 199.587 24.6432C199.653 24.7924 205.335 37.6615 191.138 40.5151C191.138 40.5151 190.218 40.6992 190.476 41.4722C190.733 42.2444 216.575 34.5219 222.299 38.1674Z" fill="#3388C9"/>
<path fill-rule="evenodd" clip-rule="evenodd" d="M179.507 17.2885C179.176 17.3 178.996 17.3156 178.996 17.3156L177.369 23.3418L179.731 39.8159L181.805 40.6693C181.805 40.6693 181.461 38.362 181.644 38.1963C181.828 38.0311 186.171 35.8964 186.723 35.6021C187.275 35.3074 187.165 34.774 187.165 34.774C186.74 33.8912 180.813 20.2894 179.507 17.2885Z" fill="#1B7FC2"/>
<path fill-rule="evenodd" clip-rule="evenodd" d="M174.636 16.8248C174.636 16.8248 174.078 17.0534 173.908 17.6989C173.738 18.3443 173.983 31.8359 174.041 33.3384C174.099 34.8419 180.154 42.5207 181.657 44.2992C183.161 46.0776 185.383 46.5128 186.198 46.6753C186.198 46.6753 186.269 46.6702 186.278 46.6005C186.287 46.5307 183.919 45.5524 183.198 44.4585C182.478 43.3654 181.227 38.6783 181.081 37.9948C181.081 37.9948 185.243 35.99 185.961 35.5833C186.679 35.1775 186.792 34.8469 186.521 34.381C186.25 33.9146 179.485 17.9078 178.996 17.3156C178.508 16.7238 176.736 16.5783 174.636 16.8248Z" fill="#D3EBFA"/>
<path fill-rule="evenodd" clip-rule="evenodd" d="M155.095 4.86891C155.188 4.93502 155.211 5.0654 155.145 5.15905C155.078 5.25315 154.949 5.27565 154.854 5.20954C154.848 5.20495 152.569 3.56746 148.903 4.25009C148.79 4.27121 148.682 4.19638 148.661 4.08345C148.641 3.97006 148.715 3.86172 148.828 3.84106C152.669 3.12583 155.087 4.86432 155.095 4.86891Z" fill="#201049"/>
<path fill-rule="evenodd" clip-rule="evenodd" d="M146.357 23.1825C146.46 23.132 146.585 23.1737 146.635 23.2775C146.686 23.3799 146.644 23.5047 146.541 23.5557C146.53 23.5612 142.633 25.5572 140.181 20.9987C140.127 20.8972 140.165 20.7714 140.266 20.7163C140.367 20.6622 140.493 20.7003 140.548 20.8017C142.807 25.0013 146.347 23.1875 146.357 23.1825Z" fill="#201049"/>
<path fill-rule="evenodd" clip-rule="evenodd" d="M197.24 56.1803C196.626 55.9613 195.348 55.2658 195.01 55.0969C194.629 54.9068 191.443 54.193 191.443 54.193L193.155 56.0954C193.155 56.0954 187.922 58.3792 186.78 59.2827C185.639 60.1866 186.352 60.6144 187.351 60.6144H188.35C188.35 60.6144 188.16 62.3272 189.445 62.3745C190.728 62.4222 190.823 62.3745 190.823 62.3745C190.823 62.3745 191.299 63.8018 192.346 63.659C193.392 63.5162 195.201 63.0884 197.292 61.8989C198.985 60.9376 199.433 60.4427 199.542 60.2885C198.854 59.5108 197.024 57.115 197.24 56.1803Z" fill="#F2BBC9"/>
<path fill-rule="evenodd" clip-rule="evenodd" d="M197.24 56.1803C197.066 56.1188 196.84 56.0187 196.598 55.9035C196.489 57.7884 197.95 59.2868 195.624 60.53C193.063 61.8989 191.385 61.5459 188.47 58.7635C188.335 58.6712 188.204 58.5845 188.075 58.5005C187.507 58.8034 187.039 59.0784 186.781 59.2827C185.64 60.1866 186.353 60.6145 187.352 60.6145H188.351C188.351 60.6145 188.16 62.3272 189.446 62.3745C190.729 62.4223 190.824 62.3745 190.824 62.3745C190.824 62.3745 191.3 63.8018 192.347 63.659C193.392 63.5162 195.201 63.0884 197.293 61.8989C198.986 60.9376 199.434 60.4428 199.543 60.2885C198.854 59.5109 197.025 57.115 197.24 56.1803Z" fill="#E98DAF"/>
<path fill-rule="evenodd" clip-rule="evenodd" d="M121.184 62.8176H55.0736C51.7798 62.8176 49.0851 65.0711 49.0851 67.8246V166.09H127.172V67.8246C127.172 65.0707 124.477 62.8176 121.184 62.8176Z" fill="#3889C9"/>
<path fill-rule="evenodd" clip-rule="evenodd" d="M132.038 62.8176H76.6541C73.8942 62.8176 71.6365 64.7053 71.6365 67.0121V166.09H137.056V67.0121C137.056 64.7053 134.798 62.8176 132.038 62.8176Z" fill="#80BBE7"/>
<path fill-rule="evenodd" clip-rule="evenodd" d="M132.038 65.4016H76.6541C76.0495 65.4016 75.5542 65.8152 75.5542 66.3207V166.09H133.138V66.3207C133.138 65.8152 132.643 65.4016 132.038 65.4016Z" fill="white"/>
<path fill-rule="evenodd" clip-rule="evenodd" d="M96.7961 65.4012H111.896C112.601 65.4012 113.177 65.8828 113.177 66.4722V66.4731C113.177 67.0626 112.601 67.5441 111.896 67.5441H96.7961C96.0915 67.5441 95.5149 67.0626 95.5149 66.4731V66.4722C95.5149 65.8828 96.0915 65.4012 96.7961 65.4012Z" fill="#221758"/>
<path fill-rule="evenodd" clip-rule="evenodd" d="M76.6541 65.4016H132.038C132.643 65.4016 133.138 65.8152 133.138 66.3211V66.4726H75.5542V66.3211C75.5542 65.8152 76.0495 65.4016 76.6541 65.4016Z" fill="#221758"/>
<path fill-rule="evenodd" clip-rule="evenodd" d="M96.7961 141.681H111.896C112.601 141.681 113.177 142.163 113.177 142.752V142.753C113.177 143.342 112.601 143.824 111.896 143.824H96.7961C96.0915 143.824 95.5149 143.342 95.5149 142.753V142.752C95.5149 142.163 96.0915 141.681 96.7961 141.681Z" fill="#221758"/>
<path fill-rule="evenodd" clip-rule="evenodd" d="M76.6541 141.681H132.038C132.643 141.681 133.138 142.095 133.138 142.6V142.753H75.5542V142.6C75.5542 142.095 76.0495 141.681 76.6541 141.681Z" fill="#221758"/>
<path d="M88.6812 81.5113H75.5546V102.138H88.6812V81.5113Z" fill="#F9B532"/>
<path d="M88.6812 84.564H75.5546V102.138H88.6812V84.564Z" fill="#F59F3A"/>
<path d="M88.6812 86.4237H75.5546V102.137H88.6812V86.4237Z" fill="white"/>
<path d="M88.6812 86.4237H75.5546V102.137H88.6812V86.4237Z" fill="#FFF2D1"/>
<path fill-rule="evenodd" clip-rule="evenodd" d="M88.6812 85.0989H78.9668C77.5318 85.0989 76.066 86.1896 75.5546 87.5829V102.138H88.6812V85.0989Z" fill="#FCC749"/>
<path d="M88.6811 81.5113H79.7026V99.7455H88.6811V81.5113Z" fill="#F18D3D"/>
<path d="M88.6811 84.564H79.7026V99.7454H88.6811V84.564Z" fill="#EE7E40"/>
<path d="M88.6811 86.4237H79.7026V99.7454H88.6811V86.4237Z" fill="#F2BCC2"/>
<path d="M88.6811 86.4237H79.7026V99.7454H88.6811V86.4237Z" fill="#F2B2A5"/>
<path d="M88.6811 85.0989H79.7026V99.7454H88.6811V85.0989Z" fill="#F39A4C"/>
<path fill-rule="evenodd" clip-rule="evenodd" d="M105.977 81.5113H85.9134C84.3695 81.5113 83.1057 82.7746 83.1057 84.319V102.137H105.977V81.5113Z" fill="#F9B532"/>
<path fill-rule="evenodd" clip-rule="evenodd" d="M105.977 84.564H87.4736C85.9297 84.564 84.6659 85.8274 84.6659 87.3721V102.138H105.977V84.564Z" fill="#F59F3A"/>
<path fill-rule="evenodd" clip-rule="evenodd" d="M85.8617 102.138V88.7117C85.8617 87.4534 86.8909 86.4242 88.1492 86.4242H105.977V102.138H85.8617Z" fill="white"/>
<path fill-rule="evenodd" clip-rule="evenodd" d="M87.2577 102.138L90.8292 87.9065C90.9656 87.363 91.2497 86.8548 91.628 86.4242H105.977V102.138H87.2577Z" fill="#FFF2D1"/>
<path fill-rule="evenodd" clip-rule="evenodd" d="M105.977 85.0989H96.2622C94.7179 85.0989 93.1373 86.3622 92.7499 87.9065L89.1779 102.138H105.977V85.0989Z" fill="#FCC749"/>
<path d="M105.977 81.5113H96.998V99.7455H105.977V81.5113Z" fill="#F18D3D"/>
<path d="M105.977 84.564H96.998V99.7454H105.977V84.564Z" fill="#EE7E40"/>
<path d="M105.977 86.4237H96.998V99.7454H105.977V86.4237Z" fill="#F2BCC2"/>
<path d="M105.977 86.4237H96.998V99.7454H105.977V86.4237Z" fill="#F2B2A5"/>
<path d="M105.977 85.0989H96.998V99.7454H105.977V85.0989Z" fill="#F39A4C"/>
<path fill-rule="evenodd" clip-rule="evenodd" d="M123.272 81.5113H103.209C101.664 81.5113 100.401 82.7746 100.401 84.319V102.137H123.272V81.5113Z" fill="#F9B532"/>
<path fill-rule="evenodd" clip-rule="evenodd" d="M123.272 84.564H104.769C103.225 84.564 101.961 85.8274 101.961 87.3721V102.138H123.272V84.564Z" fill="#F59F3A"/>
<path fill-rule="evenodd" clip-rule="evenodd" d="M103.157 102.138V88.7117C103.157 87.4534 104.186 86.4242 105.445 86.4242H123.272V102.138H103.157Z" fill="white"/>
<path fill-rule="evenodd" clip-rule="evenodd" d="M104.553 102.138L108.124 87.9065C108.261 87.363 108.545 86.8548 108.923 86.4242H123.272V102.138H104.553Z" fill="#FFF2D1"/>
<path fill-rule="evenodd" clip-rule="evenodd" d="M123.272 85.0989H113.557C112.013 85.0989 110.433 86.3622 110.045 87.9065L106.473 102.138H123.272V85.0989Z" fill="#FCC749"/>
<path d="M123.272 81.5113H114.294V99.7455H123.272V81.5113Z" fill="#F18D3D"/>
<path d="M123.272 84.564H114.294V99.7454H123.272V84.564Z" fill="#EE7E40"/>
<path d="M123.272 86.4237H114.294V99.7454H123.272V86.4237Z" fill="#F2BCC2"/>
<path d="M123.272 86.4237H114.294V99.7454H123.272V86.4237Z" fill="#F2B2A5"/>
<path d="M123.272 85.0989H114.294V99.7454H123.272V85.0989Z" fill="#F39A4C"/>
<path fill-rule="evenodd" clip-rule="evenodd" d="M119.991 112.865H153.893C155.437 112.865 156.7 111.601 156.7 110.057V84.3189C156.7 82.7742 155.437 81.5113 153.893 81.5113H152.515V80.2039C152.515 79.7788 152.167 79.4308 151.742 79.4308H141.498C141.074 79.4308 140.726 79.7788 140.726 80.2039V81.5113H119.99C118.446 81.5113 117.182 82.7751 117.182 84.3189V110.057C117.183 111.601 118.446 112.865 119.991 112.865Z" fill="#F9B532"/>
<path fill-rule="evenodd" clip-rule="evenodd" d="M119.991 112.865H153.893C155.437 112.865 156.7 111.601 156.7 110.057V84.8583C156.324 84.6701 155.9 84.5641 155.453 84.5641H154.074V83.2571C154.074 82.832 153.727 82.4845 153.302 82.4845H143.059C142.634 82.4845 142.286 82.832 142.286 83.2571V84.5641H121.55C120.006 84.5641 118.742 85.8274 118.742 87.3722V112.57C119.119 112.759 119.543 112.865 119.991 112.865Z" fill="#F59F3A"/>
<path fill-rule="evenodd" clip-rule="evenodd" d="M143.649 112.865H122.226C120.968 112.865 119.939 111.835 119.939 110.577V88.7122C119.939 87.4539 120.968 86.4242 122.226 86.4242H143.649C144.907 86.4242 145.937 87.4539 145.937 88.7122V110.577C145.938 111.835 144.907 112.865 143.649 112.865Z" fill="white"/>
<path fill-rule="evenodd" clip-rule="evenodd" d="M143.649 112.865H122.226C120.968 112.865 119.939 111.835 119.939 110.577V107.698L124.906 87.9065C125.042 87.363 125.326 86.8548 125.704 86.4237H143.649C144.907 86.4237 145.937 87.4534 145.937 88.7117V110.577C145.938 111.835 144.907 112.865 143.649 112.865Z" fill="#FFF2D1"/>
<path fill-rule="evenodd" clip-rule="evenodd" d="M123.371 112.865H154.673C156.217 112.865 157.798 111.601 158.185 110.057L163.744 87.9065C164.132 86.3622 163.185 85.0989 161.641 85.0989H159.996L160.345 83.7079C160.486 83.1442 160.141 82.6828 159.577 82.6828H148.152C147.588 82.6828 147.011 83.1442 146.869 83.7079L146.521 85.0989H130.339C128.795 85.0989 127.215 86.3622 126.827 87.9065L121.267 110.057C120.88 111.601 121.826 112.865 123.371 112.865Z" fill="#FCC749"/>
<path fill-rule="evenodd" clip-rule="evenodd" d="M156.701 89.13L152.258 106.833C151.869 108.377 150.289 109.641 148.745 109.641H145.938H121.372L121.267 110.057C120.88 111.6 121.826 112.864 123.371 112.864H143.649H153.893H154.672C156.217 112.864 157.798 111.6 158.185 110.057L163.744 87.9061C164.131 86.3622 163.185 85.0989 161.64 85.0989H159.995L160.344 83.7079C160.486 83.1437 160.141 82.6828 159.577 82.6828H157.476C157.867 83.1933 158.012 83.9021 157.817 84.6825L156.701 89.13Z" fill="#F9B532"/>
<path d="M171.735 91.899H114.152V116.255H171.735V91.899Z" fill="white"/>
<path fill-rule="evenodd" clip-rule="evenodd" d="M96.7961 116.254H111.896C112.601 116.254 113.177 116.736 113.177 117.325V117.327C113.177 117.916 112.601 118.397 111.896 118.397H96.7961C96.0915 118.397 95.5149 117.916 95.5149 117.327V117.325C95.5149 116.736 96.0915 116.254 96.7961 116.254Z" fill="#221758"/>
<path fill-rule="evenodd" clip-rule="evenodd" d="M76.6541 116.255H132.038C132.643 116.255 133.138 116.668 133.138 117.174V117.327H75.5542V117.174C75.5542 116.668 76.0495 116.255 76.6541 116.255Z" fill="#221758"/>
<path fill-rule="evenodd" clip-rule="evenodd" d="M115.252 90.8281H135.377H135.394H150.493H150.51H170.635C171.24 90.8281 171.735 91.2417 171.735 91.7471V91.8991H151.775V91.8995C151.775 92.4885 151.198 92.971 150.494 92.971H135.394C134.689 92.971 134.113 92.4885 134.113 91.8995V91.8991H114.152V91.7471C114.152 91.2417 114.648 90.8281 115.252 90.8281Z" fill="#221758"/>
<path fill-rule="evenodd" clip-rule="evenodd" d="M114.152 116.255V91.899H75.5542V117.174C75.5542 116.669 76.0495 116.255 76.6541 116.255H96.7733C96.7806 116.254 96.7884 116.254 96.7962 116.254H111.896C111.904 116.254 111.911 116.254 111.919 116.255H114.152Z" fill="#D3EBFA"/>
<path fill-rule="evenodd" clip-rule="evenodd" d="M50.513 89.5119C43.9199 82.2058 39.0152 91.4864 39.6997 100.803C40.3492 109.635 47.345 139.941 46.0477 152.69H48.7263C55.2791 136.341 58.9534 98.865 50.513 89.5119Z" fill="#E84A5B"/>
<path fill-rule="evenodd" clip-rule="evenodd" d="M47.7415 152.69C54.1194 126.921 46.0457 91.3014 46.0182 91.1806C45.9691 90.9594 45.7643 90.8235 45.561 90.8767C45.3576 90.9309 45.2332 91.154 45.2823 91.3744C45.3094 91.4965 53.3931 127.156 46.9671 152.69H47.7415Z" fill="#D8364B"/>
<path fill-rule="evenodd" clip-rule="evenodd" d="M34.2476 105.613C27.2996 101.606 25.5478 110.348 28.2563 117.579C30.5011 123.572 40.4175 141.3 44.1667 152.689H47.6983C47.999 136.95 42.4488 110.342 34.2476 105.613Z" fill="#80BBE7"/>
<path fill-rule="evenodd" clip-rule="evenodd" d="M46.4085 152.69C44.1104 131.402 31.1017 108.262 31.0549 108.178C30.9645 108.016 30.7694 107.963 30.6202 108.062C30.471 108.161 30.4232 108.373 30.5137 108.535C30.5605 108.619 43.4851 131.608 45.7804 152.69H46.4085Z" fill="#428FCD"/>
<path fill-rule="evenodd" clip-rule="evenodd" d="M63.6114 115.716C70.3451 112.515 71.4128 120.795 68.4211 127.327C66.3971 131.747 59.1025 143.064 54.1904 152.69H48.5834C50.5009 138.126 56.651 119.026 63.6114 115.716Z" fill="#FCC749"/>
<path fill-rule="evenodd" clip-rule="evenodd" d="M50.5859 152.69C55.3667 135.046 66.377 118.419 66.421 118.352C66.5161 118.207 66.7011 118.173 66.8337 118.277C66.9669 118.38 66.9976 118.581 66.9026 118.726C66.859 118.793 55.9648 135.247 51.1951 152.69H50.5859Z" fill="#F9B532"/>
<path fill-rule="evenodd" clip-rule="evenodd" d="M39.9557 146.864H59.685C60.2754 146.864 60.7574 147.389 60.7574 148.032V153.333C60.7574 153.976 60.2754 154.501 59.685 154.501H39.9557C39.3653 154.501 38.8828 153.976 38.8828 153.333V148.032C38.8828 147.389 39.3653 146.864 39.9557 146.864Z" fill="#28256C"/>
<path fill-rule="evenodd" clip-rule="evenodd" d="M43.3399 151.177H56.3008L59.6851 154.501L56.9206 166.09H49.8206H42.7202L39.9557 154.501L43.3399 151.177Z" fill="#28256C"/>
<path fill-rule="evenodd" clip-rule="evenodd" d="M59.6851 154.501L59.1172 156.884H40.5245L39.9557 154.501H59.6851Z" fill="#221758"/>
<path fill-rule="evenodd" clip-rule="evenodd" d="M163.468 77.2401C163.115 77.4995 162.924 77.6707 162.924 77.6707C162.924 77.6707 159.832 77.3898 158.895 78.4672C157.958 79.5451 155.896 82.1687 155.006 82.5901C154.116 83.0124 155.1 83.7621 156.973 83.1061C158.848 82.4501 160.956 80.8567 160.956 80.8567C160.956 80.8567 162.902 81.3222 164.423 80.4036C163.913 79.2935 163.527 77.8153 163.473 77.4398C163.464 77.3742 163.462 77.3076 163.468 77.2401Z" fill="#F2BBC9"/>
</svg>
