<svg width="106" height="44" viewBox="0 0 106 44" fill="none" xmlns="http://www.w3.org/2000/svg">
<path fill-rule="evenodd" clip-rule="evenodd" d="M7.93536 6.42071C8.10361 6.47459 8.47203 6.52418 8.75407 6.53092C9.3026 6.54402 9.63567 6.78809 9.105 6.78809C8.93284 6.78809 8.79188 6.8465 8.79188 6.91777C8.79188 6.98904 8.7247 7.00594 8.6426 6.95512C8.43068 6.82409 6.35204 6.79948 6.27324 6.92708C6.23727 6.98537 5.93589 7.03301 5.60332 7.03301C4.9328 7.03301 4.79428 7.21351 5.3679 7.33965C5.59733 7.3901 5.80301 7.5482 5.91106 7.75724C6.09056 8.10465 6.03378 8.08678 8.4932 8.56853C8.63183 8.59572 10.6966 8.76129 13.0817 8.93653C16.7416 9.20545 17.5184 9.23153 18.0601 9.1043C18.6223 8.97216 18.7296 8.97865 18.9255 9.15597C19.1121 9.32509 19.4309 9.35706 20.8532 9.34922C21.7905 9.34407 23.9889 9.39685 25.7386 9.46641C73.5515 9.37702 77.8463 9.46898 81.3458 9.51184C87.7011 9.58961 87.7096 9.58948 88.6262 9.31419C89.1309 9.16259 89.891 9.01515 90.3152 8.98649C91.2161 8.92563 91.2932 8.69222 90.4518 8.57319C90.1543 8.53118 89.6356 8.43113 89.2991 8.35104C88.9627 8.27083 88.5339 8.1747 88.3465 8.13735C88.1059 8.08959 87.9547 7.94766 87.8327 7.65547C87.6853 7.30266 87.5996 7.24143 87.2526 7.24143C87.0285 7.24143 86.7257 7.15767 86.5797 7.05529C86.1305 6.74045 81.3008 6.60844 18.3359 6.60844C15.9468 6.5859 13.1112 6.50716 12.0344 6.43332C9.76928 6.27804 7.4682 6.27094 7.93536 6.42071ZM5.7329 8.84811C5.7329 8.91926 5.9945 9.01368 6.31411 9.05813C6.63383 9.10258 7.25321 9.21757 7.69065 9.31383C8.6081 9.51564 10.9218 9.83073 11.7285 9.86379C12.0888 9.87849 12.1648 9.90372 11.9485 9.93678C11.6115 9.98809 11.3655 10.4003 11.5634 10.5819C11.7789 10.7796 12.5624 10.9374 13.6862 11.0097C15.3015 11.1134 15.8362 11.2002 15.633 11.326C15.3366 11.5093 15.6439 11.6227 16.8471 11.774C17.9857 11.9172 17.9429 11.9204 15.7052 11.8587C10.6149 11.7185 7.69627 11.5691 6.5625 11.3907C5.45747 11.217 5.3471 11.2187 5.00327 11.4145C4.79979 11.5305 4.63289 11.6577 4.6324 11.6974C4.63142 11.7977 5.21043 12.052 5.46334 12.0624C5.61715 12.0688 4.51151 12.519 4.2898 12.5403C4.2701 12.5421 4.2701 12.6367 4.2898 12.7504C4.31525 12.8968 4.2099 12.9815 3.92884 13.0409C3.71055 13.0871 3.46277 13.1817 3.37822 13.2514C3.29367 13.3211 2.95865 13.4176 2.63367 13.4661C2.16883 13.5353 2.01343 13.6189 1.90441 13.8582C1.78229 14.1265 1.8042 14.1903 2.08917 14.3981C2.36876 14.6019 2.40278 14.6953 2.34074 15.0889C2.2568 15.6213 2.13983 17.021 1.6105 17.0236C1.39576 17.0245 1.18959 17.0747 1.15239 17.135C1.0753 17.2598 1.35844 17.3928 1.7008 17.3928C1.82744 17.3928 1.9881 16.2016 2.05785 16.3319C2.22156 16.6382 2.2196 16.6547 1.99324 16.8812C1.82194 17.0527 1.82133 17.1002 1.98749 17.3375C2.23404 17.6899 2.06188 19.297 1.56376 19.3968C1.27291 19.455 1.19778 19.5225 1.25566 19.6733C1.29775 19.7832 1.26753 19.9511 1.18848 20.0464C1.08301 20.1735 1.08093 20.256 1.18065 20.3558C1.34412 20.5194 1.176 20.8908 0.800729 21.195C0.561516 21.389 0.570203 21.3989 1.09402 21.5312C1.39099 21.6061 1.74399 20.4579 1.87859 20.5655C2.12037 20.7588 2.12013 22.058 1.85338 21.9848C1.70484 21.944 1.38952 21.9471 1.15251 21.9916C0.777113 22.062 0.737469 22.1022 0.8449 22.3031C0.9445 22.4894 1.01045 22.5072 1.18873 22.3958C1.35685 22.2907 1.55238 22.3034 2.0111 22.4494C2.84192 22.714 3.75509 22.9 5.12111 23.0831C5.76043 23.1688 6.10928 23.2461 5.89649 23.2549C5.68359 23.2636 4.5656 23.1593 3.41199 23.0229C2.25839 22.8865 1.26153 22.8076 1.19693 22.8476C0.961508 22.9932 1.23204 23.1484 1.72124 23.1484C2.2059 23.1484 2.21544 23.156 2.01196 23.3812C1.89621 23.5092 1.84641 23.6413 1.90123 23.6747C2.10483 23.7988 4.39894 24.2507 4.84372 24.2542C5.23698 24.2574 5.27075 24.2776 5.07424 24.3919C4.9071 24.4891 4.53806 24.4872 3.72829 24.3854C3.11478 24.3081 2.38357 24.2159 2.10361 24.1806C1.80456 24.1429 1.56107 24.1703 1.51359 24.2472C1.41693 24.4037 2.16467 24.7404 2.60883 24.7404C2.9321 24.7404 3.02965 27.6685 2.76523 27.7759C2.64507 27.8247 2.64691 27.8624 2.77343 27.9515C3.07566 28.1643 2.22856 28.4118 1.76837 28.2452C1.46969 28.1372 1.2853 28.1388 0.985519 28.2521C0.503057 28.4343 0.49804 28.5265 0.947954 28.947L1.30243 29.2785L0.947954 29.561C0.498407 29.9192 0.499019 30.0609 0.950401 30.0609C1.47985 30.0609 1.67538 30.1693 1.60833 30.4257C1.54054 30.6851 1.80655 30.8623 2.51317 31.0287C2.88759 31.1169 2.9161 31.1409 2.65768 31.1508C2.30639 31.1642 2.00783 31.6659 2.08247 32.1173C2.10474 32.2515 2.01346 32.4825 1.87972 32.6305C1.65189 32.8828 1.64981 32.9092 1.84668 33.0534C2.23346 33.3364 3.83734 33.4967 9.34203 33.8027C10.0823 33.8438 10.9835 33.959 11.3446 34.0586C12.0763 34.2604 13.8354 34.42 16.5 34.5263C19.3216 34.639 20.6305 34.7128 22.0062 34.8375C22.7128 34.9014 71.0886 34.8784 73.2085 34.9805C75.3283 35.0826 77.3931 35.1959 77.7969 35.2323C78.2007 35.2687 81.3117 35.3788 84.7102 35.4771C88.1087 35.5754 91.4538 35.6913 92.1435 35.7345L93.3977 35.8132V35.4875C93.3977 35.0203 93.8041 34.9075 95.1599 34.9985C96.0232 35.0564 96.4557 35.0274 96.975 34.8763C97.35 34.7672 97.7997 34.6779 97.9744 34.6779C98.1492 34.6779 98.2921 34.631 98.2921 34.5736C98.2921 34.5163 97.4523 34.431 96.4261 34.3844C95.3999 34.3376 94.1196 34.2754 93.5813 34.246C93.0429 34.2166 91.5011 34.1346 90.1552 34.0638C86.8352 33.889 84.4836 33.7007 83.9724 33.5687C83.5362 33.4559 84.6331 33.4885 88.5645 33.705C91.1308 33.8463 102.84 34.0859 102.927 33.9989C103.078 33.8475 102.708 33.5183 102.199 33.352C101.538 33.136 101.613 33.2037 101.521 32.7402L101.443 32.3512H102.549C103.654 32.3512 104.043 32.2875 104.043 32.1065C104.043 32.0537 103.864 31.9802 103.645 31.9431C103.138 31.857 101.752 31.533 101.535 31.4499C101.299 31.3592 101.449 30.9059 101.746 30.8115C101.882 30.7684 102.399 30.7713 102.895 30.8179C103.759 30.8989 103.798 30.8913 103.798 30.6442C103.798 30.4737 103.913 30.3438 104.135 30.2627C104.829 30.0088 104.831 29.9813 104.165 29.8672C103.057 29.677 102.062 29.2828 102.145 29.0665C102.255 28.7778 101.976 28.6813 101.025 28.6792C100.089 28.6772 99.7199 28.597 99.8295 28.4196C99.8667 28.3593 100.696 28.31 101.671 28.31C103.424 28.31 103.915 28.171 102.679 28.0245C101.848 27.9261 101.758 25.0659 102.14 24.6119C102.312 24.4073 102.453 24.1031 102.453 23.9358C102.453 23.7685 102.523 23.5737 102.608 23.5028C102.85 23.302 104.375 23.075 104.909 23.1604C105.173 23.2026 105.389 23.1873 105.389 23.1265C105.389 22.9687 105.071 22.867 104.577 22.867C104.063 22.867 103.144 22.6603 102.618 22.4262C102.406 22.3318 101.883 22.2499 101.455 22.2439C101.028 22.238 100.403 22.1903 100.067 22.1379C99.5675 22.0601 99.7172 22.0395 100.88 22.0262C102.059 22.0126 102.317 21.9762 102.379 21.815C102.534 21.4118 102.19 19.9915 100.556 19.8678L99.5773 19.7936L99.4392 19.365L99.301 18.9364L97.5426 18.8751C95.6347 18.8087 95.4964 18.6708 97.2525 18.5858C98.4317 18.5288 99.5823 18.3598 99.7183 18.2238C99.8976 18.0443 99.6441 18.0247 98.7724 18.1505C97.3385 18.3578 95.7026 18.4223 94.408 18.3229C92.8491 18.203 93.2296 18.0398 95.1112 18.0211C97.0182 18.0022 98.1785 17.8538 98.5995 17.5751C98.7913 17.4482 99.2274 17.231 99.5686 17.0925C100.24 16.8199 100.477 16.392 100.034 16.2513C99.9076 16.2111 99.6518 16.0194 99.466 15.8252L99.1281 15.4722L99.578 15.3236C100.557 15.0004 99.2695 14.7184 96.6783 14.6884C95.5808 14.6756 95.0133 14.6479 95.4171 14.6268C99.3024 14.4232 99.9503 14.2939 99.8596 13.7399C99.8422 13.6345 99.8728 13.4769 99.9274 13.3897C99.9838 13.2995 99.9629 13.1544 99.8788 13.0529C99.7974 12.9548 99.779 12.8742 99.8377 12.8739C99.8963 12.8734 100.038 12.7084 100.152 12.5071C100.357 12.1473 100.355 12.1386 100.053 11.98L99.7454 11.8187L100.059 11.6758C100.407 11.517 100.436 11.3781 100.237 10.8074C99.969 10.0377 99.9102 10.0311 94.7699 10.1845C90.2032 10.3208 87.8525 10.2701 87.5547 10.0287C87.3597 9.87078 83.984 9.72872 76.7573 9.5743C60.9676 9.2368 13.4443 9.33832 6.49765 8.78039C6.00393 8.74071 5.7329 8.76471 5.7329 8.84811ZM10.1149 9.93323C10.2032 9.96862 10.3088 9.96421 10.3494 9.92355C10.39 9.8829 10.3178 9.854 10.1889 9.85926C10.0463 9.86514 10.0173 9.89416 10.1149 9.93323ZM14.3871 10.0614C14.1332 10.0879 13.7478 10.0875 13.5306 10.0605C13.3133 10.0334 13.5211 10.0117 13.9921 10.0122C14.4632 10.0128 14.6409 10.0349 14.3871 10.0614ZM19.4065 12.0158C19.2887 12.0466 19.0961 12.0466 18.9783 12.0158C18.8604 11.985 18.9569 11.9598 19.1924 11.9598C19.4279 11.9598 19.5244 11.985 19.4065 12.0158ZM6.25525 12.2567C6.17241 12.2902 6.00723 12.2923 5.88817 12.2612C5.76912 12.2301 5.83691 12.2027 6.0388 12.2002C6.24069 12.1978 6.33809 12.2231 6.25525 12.2567ZM7.17209 12.3829C7.05511 12.4135 6.83487 12.4146 6.68265 12.3854C6.53044 12.3561 6.62612 12.331 6.89531 12.3297C7.1645 12.3283 7.28906 12.3523 7.17209 12.3829ZM8.91424 12.5444C9.0377 12.6249 8.83752 12.6386 8.30244 12.5867C7.86501 12.5442 7.48423 12.4896 7.45608 12.4653C7.33434 12.36 8.74881 12.4368 8.91424 12.5444ZM7.10944 23.3573C6.95796 23.3865 6.71031 23.3865 6.55883 23.3573C6.40747 23.328 6.53129 23.3042 6.83413 23.3042C7.13697 23.3042 7.26092 23.328 7.10944 23.3573ZM9.12837 23.4777C9.01053 23.5085 8.81794 23.5085 8.70011 23.4777C8.58228 23.447 8.6787 23.4217 8.91424 23.4217C9.14978 23.4217 9.2462 23.447 9.12837 23.4777ZM4.84323 23.5897C4.8026 23.6304 4.69701 23.6348 4.60879 23.5994C4.51115 23.5603 4.54014 23.5313 4.68269 23.5254C4.81166 23.5202 4.88385 23.5491 4.84323 23.5897ZM5.82467 23.7226C5.70684 23.7535 5.51425 23.7535 5.39641 23.7226C5.27858 23.6919 5.375 23.6666 5.61054 23.6666C5.84608 23.6666 5.9425 23.6919 5.82467 23.7226ZM2.30638 33.6107C2.20544 33.6692 2.02655 33.7469 1.90872 33.7832C1.79089 33.8197 1.69459 33.9547 1.69459 34.0833C1.69459 34.2118 1.60894 34.3882 1.50432 34.475C0.884939 34.9895 1.04596 35.3911 1.91484 35.4997C2.64189 35.5905 9.41361 36.0244 11.6057 36.1206C13.4396 36.2012 15.394 36.3474 18.1519 36.6102C24.6845 37.2329 80.9974 37.4279 81.1304 37.0353C81.1628 36.9395 81.0665 36.8822 80.8733 36.8822C80.4673 36.8822 80.3566 36.6839 80.6689 36.5167C80.9774 36.3515 81.0023 35.9026 80.703 35.9023C80.5034 35.9021 79.721 35.8565 74.4321 35.5361C69.1953 35.2188 21.9462 35.2891 18.519 34.958C15.048 34.6228 10.7549 34.2786 6.22188 33.9722C5.11147 33.8971 3.82768 33.7579 3.36907 33.6627C2.91035 33.5676 2.52492 33.493 2.51256 33.497C2.50008 33.501 2.40733 33.5521 2.30638 33.6107Z" fill="#C2E0FF"/>
<path d="M38.151 36.4445C37.047 36.3725 36.207 36.1565 35.631 35.7965C35.055 35.4605 34.767 35.0285 34.767 34.5005C34.767 34.3565 34.779 34.0925 34.803 33.7085C34.851 33.3485 34.935 32.7845 35.055 32.0165C35.199 31.2245 35.391 30.1565 35.631 28.8125C35.751 28.3085 35.871 27.7205 35.991 27.0485C36.111 26.3525 36.231 25.6805 36.351 25.0325C35.871 24.9845 35.379 24.9485 34.875 24.9245C34.371 24.9005 34.023 24.8885 33.831 24.8885C33.591 24.8885 33.195 24.9005 32.643 24.9245C32.091 24.9485 31.467 24.9845 30.771 25.0325C30.075 25.0565 29.379 25.1045 28.683 25.1765C28.011 25.2245 27.423 25.2845 26.919 25.3565C26.439 25.4045 26.127 25.4645 25.983 25.5365C25.983 24.9125 26.163 24.3845 26.523 23.9525C26.883 23.5205 27.303 23.0765 27.783 22.6205C28.647 21.8285 29.691 20.8445 30.915 19.6685C32.163 18.4685 33.483 17.1725 34.875 15.7805C36.267 14.3885 37.599 12.9725 38.871 11.5325C40.143 10.0685 41.247 8.6885 42.183 7.3925C42.375 7.4885 42.567 7.6325 42.759 7.8245C42.975 7.9925 43.083 8.2685 43.083 8.6525C43.083 9.2285 42.843 9.8885 42.363 10.6325C42.243 11.1845 42.063 12.0365 41.823 13.1885C41.583 14.3405 41.307 15.7325 40.995 17.3645C40.683 18.9725 40.347 20.7365 39.987 22.6565C40.083 22.6565 40.179 22.6565 40.275 22.6565C40.371 22.6565 40.455 22.6565 40.527 22.6565C41.439 22.6565 42.135 22.6325 42.615 22.5845C43.119 22.5125 43.635 22.4045 44.163 22.2605C43.587 23.0525 42.915 23.7125 42.147 24.2405C41.379 24.7445 40.599 25.0205 39.807 25.0685C39.783 25.0685 39.747 25.0685 39.699 25.0685C39.651 25.0685 39.603 25.0685 39.555 25.0685C39.531 25.1405 39.495 25.3325 39.447 25.6445C39.399 25.9325 39.339 26.3165 39.267 26.7965C39.171 27.4445 39.051 28.2005 38.907 29.0645C38.787 29.9045 38.667 30.7805 38.547 31.6925C38.427 32.6045 38.331 33.4805 38.259 34.3205C38.187 35.1605 38.151 35.8685 38.151 36.4445ZM30.159 22.5845C30.639 22.5365 31.143 22.5125 31.671 22.5125C32.199 22.4885 32.775 22.4765 33.399 22.4765C34.023 22.4765 34.623 22.4885 35.199 22.5125C35.799 22.5125 36.363 22.5245 36.891 22.5485C37.203 21.0845 37.503 19.6925 37.791 18.3725C38.103 17.0525 38.439 15.8045 38.799 14.6285C38.079 15.3005 37.311 15.9965 36.495 16.7165C35.703 17.4365 34.911 18.1565 34.119 18.8765C33.327 19.5965 32.559 20.2925 31.815 20.9645C31.527 21.2525 31.239 21.5285 30.951 21.7925C30.687 22.0565 30.423 22.3205 30.159 22.5845ZM46.7483 36.4445C45.9083 36.4445 45.1883 36.2645 44.5883 35.9045C43.9882 35.5685 43.4362 35.0765 42.9322 34.4285C43.3402 34.4525 43.6762 34.4765 43.9402 34.5005C44.1803 34.5245 44.4683 34.5365 44.8043 34.5365C45.3323 34.5365 45.9323 34.5005 46.6043 34.4285C47.2763 34.3565 47.9243 34.2725 48.5483 34.1765C48.9563 33.2165 49.3523 32.0285 49.7363 30.6125C50.1203 29.1965 50.4803 27.6845 50.8163 26.0765C51.1523 24.4445 51.4643 22.8125 51.7523 21.1805C52.0403 19.5485 52.3163 18.0245 52.5803 16.6085C52.8443 15.1925 53.0843 13.9925 53.3003 13.0085C52.0283 13.8485 51.1163 14.4005 50.5643 14.6645C50.0363 14.9285 49.6043 15.0605 49.2683 15.0605C48.9563 15.0605 48.7043 14.9645 48.5123 14.7725C48.3203 14.5565 48.2243 14.1605 48.2243 13.5845C48.7043 13.3445 49.3883 12.9245 50.2763 12.3245C51.1883 11.7005 52.1843 10.9685 53.2643 10.1285C54.3443 9.2645 55.3763 8.3645 56.3603 7.4285C56.5283 7.5725 56.6483 7.7765 56.7203 8.0405C56.7923 8.2805 56.8283 8.5445 56.8283 8.8325C56.8283 9.3845 56.7203 9.9605 56.5043 10.5605C56.3123 11.1605 56.1563 11.8805 56.0363 12.7205C55.7963 14.3045 55.5203 15.9845 55.2083 17.7605C54.9203 19.5125 54.5723 21.3125 54.1643 23.1605C53.7803 25.0085 53.3123 26.8445 52.7603 28.6685C52.2323 30.4685 51.6083 32.1965 50.8883 33.8525C51.1043 33.8285 51.3083 33.8045 51.5003 33.7805C51.6923 33.7805 51.9083 33.7805 52.1483 33.7805C53.0603 33.7805 53.8643 33.9365 54.5603 34.2485C55.2803 34.5845 55.7603 35.2805 56.0003 36.3365C55.4003 36.2645 54.8123 36.2045 54.2363 36.1565C53.6842 36.1325 53.1683 36.1205 52.6883 36.1205C51.9923 36.1205 51.2603 36.1445 50.4923 36.1925C49.7243 36.2405 49.0043 36.2885 48.3323 36.3365C47.6603 36.4085 47.1323 36.4445 46.7483 36.4445ZM65.572 36.4445C64.468 36.4445 63.532 36.2525 62.764 35.8685C61.996 35.4845 61.612 34.8845 61.612 34.0685C61.612 33.6845 61.744 33.3125 62.008 32.9525C62.296 32.5685 62.86 32.2565 63.7 32.0165C63.7 32.1845 63.7 32.3765 63.7 32.5925C63.724 32.7845 63.748 32.9765 63.772 33.1685C63.844 33.6725 64.012 34.1165 64.276 34.5005C64.54 34.9085 64.996 35.1125 65.644 35.1125C66.772 35.1125 67.804 34.7405 68.74 33.9965C69.7 33.2525 70.552 32.2565 71.296 31.0085C72.064 29.7605 72.724 28.3805 73.276 26.8685C73.828 25.3565 74.26 23.8325 74.572 22.2965C73.78 22.8965 72.868 23.3645 71.836 23.7005C70.804 24.0365 69.748 24.2045 68.668 24.2045C67.3 24.2045 66.052 23.9285 64.924 23.3765C63.82 22.8245 62.932 21.9965 62.26 20.8925C61.612 19.7645 61.288 18.3845 61.288 16.7525C61.288 14.9285 61.672 13.3205 62.44 11.9285C63.232 10.5125 64.324 9.4085 65.716 8.6165C67.132 7.8005 68.788 7.3925 70.684 7.3925C72.748 7.3925 74.392 7.8605 75.616 8.7965C76.84 9.7085 77.716 10.9325 78.244 12.4685C78.796 13.9805 79.072 15.6365 79.072 17.4365C79.072 19.0445 78.868 20.7365 78.46 22.5125C78.076 24.2645 77.5 25.9685 76.732 27.6245C75.988 29.2565 75.064 30.7445 73.96 32.0885C72.88 33.4085 71.632 34.4645 70.216 35.2565C68.824 36.0485 67.276 36.4445 65.572 36.4445ZM70.108 22.4765C71.86 22.4765 73.144 21.9245 73.96 20.8205C74.8 19.6925 75.22 18.2045 75.22 16.3565C75.22 15.6365 75.148 14.8565 75.004 14.0165C74.86 13.1525 74.608 12.3485 74.248 11.6045C73.912 10.8605 73.432 10.2485 72.808 9.7685C72.208 9.2885 71.452 9.0485 70.54 9.0485C69.676 9.0485 68.896 9.2765 68.2 9.7325C67.504 10.1645 66.916 10.7645 66.436 11.5325C65.98 12.2765 65.62 13.1165 65.356 14.0525C65.116 14.9645 64.996 15.9005 64.996 16.8605C64.996 18.1085 65.212 19.1525 65.644 19.9925C66.076 20.8325 66.676 21.4565 67.444 21.8645C68.212 22.2725 69.1 22.4765 70.108 22.4765Z" fill="#007BFF"/>
</svg>
