<svg width="105" height="44" viewBox="0 0 105 44" fill="none" xmlns="http://www.w3.org/2000/svg">
<path fill-rule="evenodd" clip-rule="evenodd" d="M7.43536 6.42071C7.60361 6.47459 7.97203 6.52418 8.25407 6.53092C8.8026 6.54402 9.13567 6.78809 8.605 6.78809C8.43284 6.78809 8.29188 6.8465 8.29188 6.91777C8.29188 6.98904 8.2247 7.00594 8.1426 6.95512C7.93068 6.82409 5.85204 6.79948 5.77324 6.92708C5.73727 6.98537 5.43589 7.03301 5.10332 7.03301C4.4328 7.03301 4.29428 7.21351 4.8679 7.33965C5.09733 7.3901 5.30301 7.5482 5.41106 7.75724C5.59056 8.10465 5.53378 8.08678 7.9932 8.56853C8.13183 8.59572 10.1966 8.76129 12.5817 8.93653C16.2416 9.20545 17.0184 9.23153 17.5601 9.1043C18.1223 8.97216 18.2296 8.97865 18.4255 9.15597C18.6121 9.32509 18.9309 9.35706 20.3532 9.34922C21.2905 9.34407 23.4889 9.39685 25.2386 9.46641C73.0515 9.37702 77.3463 9.46898 80.8458 9.51184C87.2011 9.58961 87.2096 9.58948 88.1262 9.31419C88.6309 9.16259 89.391 9.01515 89.8152 8.98649C90.7161 8.92563 90.7932 8.69222 89.9518 8.57319C89.6543 8.53118 89.1356 8.43113 88.7991 8.35104C88.4627 8.27083 88.0339 8.1747 87.8465 8.13735C87.6059 8.08959 87.4547 7.94766 87.3327 7.65547C87.1853 7.30266 87.0996 7.24143 86.7526 7.24143C86.5285 7.24143 86.2257 7.15767 86.0797 7.05529C85.6305 6.74045 80.8008 6.60844 17.8359 6.60844C15.4468 6.5859 12.6112 6.50716 11.5344 6.43332C9.26928 6.27804 6.9682 6.27094 7.43536 6.42071ZM5.2329 8.84811C5.2329 8.91926 5.4945 9.01368 5.81411 9.05813C6.13383 9.10258 6.75321 9.21757 7.19065 9.31383C8.1081 9.51564 10.4218 9.83073 11.2285 9.86379C11.5888 9.87849 11.6648 9.90372 11.4485 9.93678C11.1115 9.98809 10.8655 10.4003 11.0634 10.5819C11.2789 10.7796 12.0624 10.9374 13.1862 11.0097C14.8015 11.1134 15.3362 11.2002 15.133 11.326C14.8366 11.5093 15.1439 11.6227 16.3471 11.774C17.4857 11.9172 17.4429 11.9204 15.2052 11.8587C10.1149 11.7185 7.19627 11.5691 6.0625 11.3907C4.95747 11.217 4.8471 11.2187 4.50327 11.4145C4.29979 11.5305 4.13289 11.6577 4.1324 11.6974C4.13142 11.7977 4.71043 12.052 4.96334 12.0624C5.11715 12.0688 4.01151 12.519 3.7898 12.5403C3.7701 12.5421 3.7701 12.6367 3.7898 12.7504C3.81525 12.8968 3.7099 12.9815 3.42884 13.0409C3.21055 13.0871 2.96277 13.1817 2.87822 13.2514C2.79367 13.3211 2.45865 13.4176 2.13367 13.4661C1.66883 13.5353 1.51343 13.6189 1.40441 13.8582C1.28229 14.1265 1.3042 14.1903 1.58917 14.3981C1.86876 14.6019 1.90278 14.6953 1.84074 15.0889C1.7568 15.6213 1.63983 17.021 1.1105 17.0236C0.89576 17.0245 0.689586 17.0747 0.652389 17.135C0.575302 17.2598 0.858441 17.3928 1.2008 17.3928C1.32744 17.3928 1.4881 16.2016 1.55785 16.3319C1.72156 16.6382 1.7196 16.6547 1.49324 16.8812C1.32194 17.0527 1.32133 17.1002 1.48749 17.3375C1.73404 17.6899 1.56188 19.297 1.06376 19.3968C0.772912 19.455 0.697783 19.5225 0.755659 19.6733C0.797751 19.7832 0.767528 19.9511 0.688484 20.0464C0.583011 20.1735 0.58093 20.256 0.680653 20.3558C0.844125 20.5194 0.676004 20.8908 0.300729 21.195C0.0615165 21.389 0.0702034 21.3989 0.594023 21.5312C0.890988 21.6061 1.24399 20.4579 1.37859 20.5655C1.62037 20.7588 1.62013 22.058 1.35338 21.9848C1.20484 21.944 0.88952 21.9471 0.652511 21.9916C0.277113 22.062 0.237469 22.1022 0.3449 22.3031C0.4445 22.4894 0.510452 22.5072 0.688729 22.3958C0.85685 22.2907 1.05238 22.3034 1.5111 22.4494C2.34192 22.714 3.25509 22.9 4.62111 23.0831C5.26043 23.1688 5.60928 23.2461 5.39649 23.2549C5.18359 23.2636 4.0656 23.1593 2.91199 23.0229C1.75839 22.8865 0.761533 22.8076 0.696927 22.8476C0.461508 22.9932 0.732044 23.1484 1.22124 23.1484C1.7059 23.1484 1.71544 23.156 1.51196 23.3812C1.39621 23.5092 1.34641 23.6413 1.40123 23.6747C1.60483 23.7988 3.89894 24.2507 4.34372 24.2542C4.73698 24.2574 4.77075 24.2776 4.57424 24.3919C4.4071 24.4891 4.03806 24.4872 3.22829 24.3854C2.61478 24.3081 1.88357 24.2159 1.60361 24.1806C1.30456 24.1429 1.06107 24.1703 1.01359 24.2472C0.916928 24.4037 1.66467 24.7404 2.10883 24.7404C2.4321 24.7404 2.52965 27.6685 2.26523 27.7759C2.14507 27.8247 2.14691 27.8624 2.27343 27.9515C2.57566 28.1643 1.72856 28.4118 1.26837 28.2452C0.969693 28.1372 0.785298 28.1388 0.485519 28.2521C0.00305668 28.4343 -0.00195992 28.5265 0.447954 28.947L0.802428 29.2785L0.447954 29.561C-0.00159284 29.9192 -0.00098145 30.0609 0.450401 30.0609C0.979849 30.0609 1.17538 30.1693 1.10833 30.4257C1.04054 30.6851 1.30655 30.8623 2.01317 31.0287C2.38759 31.1169 2.4161 31.1409 2.15768 31.1508C1.80639 31.1642 1.50783 31.6659 1.58247 32.1173C1.60474 32.2515 1.51346 32.4825 1.37972 32.6305C1.15189 32.8828 1.14981 32.9092 1.34668 33.0534C1.73346 33.3364 3.33734 33.4967 8.84203 33.8027C9.58231 33.8438 10.4835 33.959 10.8446 34.0586C11.5763 34.2604 13.3354 34.42 16 34.5263C18.8216 34.639 20.1305 34.7128 21.5062 34.8375C22.2128 34.9014 70.5886 34.8784 72.7085 34.9805C74.8283 35.0826 76.8931 35.1959 77.2969 35.2323C77.7007 35.2687 80.8117 35.3788 84.2102 35.4771C87.6087 35.5754 90.9538 35.6913 91.6435 35.7345L92.8977 35.8132V35.4875C92.8977 35.0203 93.3041 34.9075 94.6599 34.9985C95.5232 35.0564 95.9557 35.0274 96.475 34.8763C96.85 34.7672 97.2997 34.6779 97.4744 34.6779C97.6492 34.6779 97.7921 34.631 97.7921 34.5736C97.7921 34.5163 96.9523 34.431 95.9261 34.3844C94.8999 34.3376 93.6196 34.2754 93.0813 34.246C92.5429 34.2166 91.0011 34.1346 89.6552 34.0638C86.3352 33.889 83.9836 33.7007 83.4724 33.5687C83.0362 33.4559 84.1331 33.4885 88.0645 33.705C90.6308 33.8463 102.34 34.0859 102.427 33.9989C102.578 33.8475 102.208 33.5183 101.699 33.352C101.038 33.136 101.113 33.2037 101.021 32.7402L100.943 32.3512H102.049C103.154 32.3512 103.543 32.2875 103.543 32.1065C103.543 32.0537 103.364 31.9802 103.145 31.9431C102.638 31.857 101.252 31.533 101.035 31.4499C100.799 31.3592 100.949 30.9059 101.246 30.8115C101.382 30.7684 101.899 30.7713 102.395 30.8179C103.259 30.8989 103.298 30.8913 103.298 30.6442C103.298 30.4737 103.413 30.3438 103.635 30.2627C104.329 30.0088 104.331 29.9813 103.665 29.8672C102.557 29.677 101.562 29.2828 101.645 29.0665C101.755 28.7778 101.476 28.6813 100.525 28.6792C99.5893 28.6772 99.2199 28.597 99.3295 28.4196C99.3667 28.3593 100.196 28.31 101.171 28.31C102.924 28.31 103.415 28.171 102.179 28.0245C101.348 27.9261 101.258 25.0659 101.64 24.6119C101.812 24.4073 101.953 24.1031 101.953 23.9358C101.953 23.7685 102.023 23.5737 102.108 23.5028C102.35 23.302 103.875 23.075 104.409 23.1604C104.673 23.2026 104.889 23.1873 104.889 23.1265C104.889 22.9687 104.571 22.867 104.077 22.867C103.563 22.867 102.644 22.6603 102.118 22.4262C101.906 22.3318 101.383 22.2499 100.955 22.2439C100.528 22.238 99.9032 22.1903 99.5667 22.1379C99.0675 22.0601 99.2172 22.0395 100.38 22.0262C101.559 22.0126 101.817 21.9762 101.879 21.815C102.034 21.4118 101.69 19.9915 100.056 19.8678L99.0773 19.7936L98.9392 19.365L98.801 18.9364L97.0426 18.8751C95.1347 18.8087 94.9964 18.6708 96.7525 18.5858C97.9317 18.5288 99.0823 18.3598 99.2183 18.2238C99.3976 18.0443 99.1441 18.0247 98.2724 18.1505C96.8385 18.3578 95.2026 18.4223 93.908 18.3229C92.3491 18.203 92.7296 18.0398 94.6112 18.0211C96.5182 18.0022 97.6785 17.8538 98.0995 17.5751C98.2913 17.4482 98.7274 17.231 99.0686 17.0925C99.7404 16.8199 99.9771 16.392 99.5342 16.2513C99.4076 16.2111 99.1518 16.0194 98.966 15.8252L98.6281 15.4722L99.078 15.3236C100.057 15.0004 98.7695 14.7184 96.1783 14.6884C95.0808 14.6756 94.5133 14.6479 94.9171 14.6268C98.8024 14.4232 99.4503 14.2939 99.3596 13.7399C99.3422 13.6345 99.3728 13.4769 99.4274 13.3897C99.4838 13.2995 99.4629 13.1544 99.3788 13.0529C99.2974 12.9548 99.279 12.8742 99.3377 12.8739C99.3963 12.8734 99.538 12.7084 99.6524 12.5071C99.857 12.1473 99.8553 12.1386 99.5529 11.98L99.2454 11.8187L99.559 11.6758C99.9074 11.517 99.9358 11.3781 99.7371 10.8074C99.469 10.0377 99.4102 10.0311 94.2699 10.1845C89.7032 10.3208 87.3525 10.2701 87.0547 10.0287C86.8597 9.87078 83.484 9.72872 76.2573 9.5743C60.4676 9.2368 12.9443 9.33832 5.99765 8.78039C5.50393 8.74071 5.2329 8.76471 5.2329 8.84811ZM9.61495 9.93323C9.70317 9.96862 9.80876 9.96421 9.84939 9.92355C9.89001 9.8829 9.81782 9.854 9.68885 9.85926C9.5463 9.86514 9.51731 9.89416 9.61495 9.93323ZM13.8871 10.0614C13.6332 10.0879 13.2478 10.0875 13.0306 10.0605C12.8133 10.0334 13.0211 10.0117 13.4921 10.0122C13.9632 10.0128 14.1409 10.0349 13.8871 10.0614ZM18.9065 12.0158C18.7887 12.0466 18.5961 12.0466 18.4783 12.0158C18.3604 11.985 18.4569 11.9598 18.6924 11.9598C18.9279 11.9598 19.0244 11.985 18.9065 12.0158ZM5.75525 12.2567C5.67241 12.2902 5.50723 12.2923 5.38817 12.2612C5.26912 12.2301 5.33691 12.2027 5.5388 12.2002C5.74069 12.1978 5.83809 12.2231 5.75525 12.2567ZM6.67209 12.3829C6.55511 12.4135 6.33487 12.4146 6.18265 12.3854C6.03044 12.3561 6.12612 12.331 6.39531 12.3297C6.6645 12.3283 6.78906 12.3523 6.67209 12.3829ZM8.41424 12.5444C8.5377 12.6249 8.33752 12.6386 7.80244 12.5867C7.36501 12.5442 6.98423 12.4896 6.95608 12.4653C6.83434 12.36 8.24881 12.4368 8.41424 12.5444ZM6.60944 23.3573C6.45796 23.3865 6.21031 23.3865 6.05883 23.3573C5.90747 23.328 6.03129 23.3042 6.33413 23.3042C6.63697 23.3042 6.76092 23.328 6.60944 23.3573ZM8.62837 23.4777C8.51053 23.5085 8.31794 23.5085 8.20011 23.4777C8.08228 23.447 8.1787 23.4217 8.41424 23.4217C8.64978 23.4217 8.7462 23.447 8.62837 23.4777ZM4.34323 23.5897C4.3026 23.6304 4.19701 23.6348 4.10879 23.5994C4.01115 23.5603 4.04014 23.5313 4.18269 23.5254C4.31166 23.5202 4.38385 23.5491 4.34323 23.5897ZM5.32467 23.7226C5.20684 23.7535 5.01425 23.7535 4.89641 23.7226C4.77858 23.6919 4.875 23.6666 5.11054 23.6666C5.34608 23.6666 5.4425 23.6919 5.32467 23.7226ZM1.80638 33.6107C1.70544 33.6692 1.52655 33.7469 1.40872 33.7832C1.29089 33.8197 1.19459 33.9547 1.19459 34.0833C1.19459 34.2118 1.10894 34.3882 1.00432 34.475C0.384939 34.9895 0.545964 35.3911 1.41484 35.4997C2.14189 35.5905 8.91361 36.0244 11.1057 36.1206C12.9396 36.2012 14.894 36.3474 17.6519 36.6102C24.1845 37.2329 80.4974 37.4279 80.6304 37.0353C80.6628 36.9395 80.5665 36.8822 80.3733 36.8822C79.9673 36.8822 79.8566 36.6839 80.1689 36.5167C80.4774 36.3515 80.5023 35.9026 80.203 35.9023C80.0034 35.9021 79.221 35.8565 73.9321 35.5361C68.6953 35.2188 21.4462 35.2891 18.019 34.958C14.548 34.6228 10.2549 34.2786 5.72188 33.9722C4.61147 33.8971 3.32768 33.7579 2.86907 33.6627C2.41035 33.5676 2.02492 33.493 2.01256 33.497C2.00008 33.501 1.90733 33.5521 1.80638 33.6107Z" fill="#C2E0FF"/>
<path d="M36.8151 36.4445C35.7111 36.3725 34.8711 36.1565 34.2951 35.7965C33.7191 35.4605 33.4311 35.0285 33.4311 34.5005C33.4311 34.3565 33.4431 34.0925 33.4671 33.7085C33.5151 33.3485 33.5991 32.7845 33.7191 32.0165C33.8631 31.2245 34.0551 30.1565 34.2951 28.8125C34.4151 28.3085 34.5351 27.7205 34.6551 27.0485C34.7751 26.3525 34.8951 25.6805 35.0151 25.0325C34.5351 24.9845 34.0431 24.9485 33.5391 24.9245C33.0351 24.9005 32.6871 24.8885 32.4951 24.8885C32.2551 24.8885 31.8591 24.9005 31.3071 24.9245C30.7551 24.9485 30.1311 24.9845 29.4351 25.0325C28.7391 25.0565 28.0431 25.1045 27.3471 25.1765C26.6751 25.2245 26.0871 25.2845 25.5831 25.3565C25.1031 25.4045 24.7911 25.4645 24.6471 25.5365C24.6471 24.9125 24.8271 24.3845 25.1871 23.9525C25.5471 23.5205 25.9671 23.0765 26.4471 22.6205C27.3111 21.8285 28.3551 20.8445 29.5791 19.6685C30.8271 18.4685 32.1471 17.1725 33.5391 15.7805C34.9311 14.3885 36.2631 12.9725 37.5351 11.5325C38.8071 10.0685 39.9111 8.6885 40.8471 7.3925C41.0391 7.4885 41.2311 7.6325 41.4231 7.8245C41.6391 7.9925 41.7471 8.2685 41.7471 8.6525C41.7471 9.2285 41.5071 9.8885 41.0271 10.6325C40.9071 11.1845 40.7271 12.0365 40.4871 13.1885C40.2471 14.3405 39.9711 15.7325 39.6591 17.3645C39.3471 18.9725 39.0111 20.7365 38.6511 22.6565C38.7471 22.6565 38.8431 22.6565 38.9391 22.6565C39.0351 22.6565 39.1191 22.6565 39.1911 22.6565C40.1031 22.6565 40.7991 22.6325 41.2791 22.5845C41.7831 22.5125 42.2991 22.4045 42.8271 22.2605C42.2511 23.0525 41.5791 23.7125 40.8111 24.2405C40.0431 24.7445 39.2631 25.0205 38.4711 25.0685C38.4471 25.0685 38.4111 25.0685 38.3631 25.0685C38.3151 25.0685 38.2671 25.0685 38.2191 25.0685C38.1951 25.1405 38.1591 25.3325 38.1111 25.6445C38.0631 25.9325 38.0031 26.3165 37.9311 26.7965C37.8351 27.4445 37.7151 28.2005 37.5711 29.0645C37.4511 29.9045 37.3311 30.7805 37.2111 31.6925C37.0911 32.6045 36.9951 33.4805 36.9231 34.3205C36.8511 35.1605 36.8151 35.8685 36.8151 36.4445ZM28.8231 22.5845C29.3031 22.5365 29.8071 22.5125 30.3351 22.5125C30.8631 22.4885 31.4391 22.4765 32.0631 22.4765C32.6871 22.4765 33.2871 22.4885 33.8631 22.5125C34.4631 22.5125 35.0271 22.5245 35.5551 22.5485C35.8671 21.0845 36.1671 19.6925 36.4551 18.3725C36.7671 17.0525 37.1031 15.8045 37.4631 14.6285C36.7431 15.3005 35.9751 15.9965 35.1591 16.7165C34.3671 17.4365 33.5751 18.1565 32.7831 18.8765C31.9911 19.5965 31.2231 20.2925 30.4791 20.9645C30.1911 21.2525 29.9031 21.5285 29.6151 21.7925C29.3511 22.0565 29.0871 22.3205 28.8231 22.5845ZM52.6483 36.4445C50.9443 36.4445 49.5283 36.0005 48.4003 35.1125C47.2963 34.2485 46.4683 33.0845 45.9163 31.6205C45.3643 30.1325 45.0883 28.4765 45.0883 26.6525C45.0883 25.0925 45.2803 23.4365 45.6643 21.6845C46.0723 19.9085 46.6483 18.1805 47.3923 16.5005C48.1603 14.8205 49.0843 13.2965 50.1643 11.9285C51.2683 10.5365 52.5163 9.4325 53.9083 8.6165C55.3003 7.8005 56.8363 7.3925 58.5163 7.3925C60.0763 7.3925 61.4443 7.7765 62.6203 8.5445C63.7963 9.3125 64.7083 10.4405 65.3563 11.9285C66.0043 13.4165 66.3283 15.2405 66.3283 17.4005C66.3283 19.1525 66.1003 20.9285 65.6443 22.7285C65.2123 24.5285 64.5883 26.2445 63.7723 27.8765C62.9563 29.5085 61.9843 30.9725 60.8563 32.2685C59.7283 33.5645 58.4683 34.5845 57.0763 35.3285C55.7083 36.0725 54.2323 36.4445 52.6483 36.4445ZM53.1523 34.7165C54.2323 34.7165 55.2643 34.3205 56.2483 33.5285C57.2563 32.7365 58.1683 31.6805 58.9843 30.3605C59.8003 29.0165 60.5083 27.5285 61.1083 25.8965C61.7323 24.2405 62.2123 22.5605 62.5483 20.8565C62.8843 19.1525 63.0523 17.5325 63.0523 15.9965C63.0523 14.6285 62.8963 13.4165 62.5843 12.3605C62.2963 11.2805 61.8163 10.4285 61.1443 9.8045C60.4963 9.1805 59.6203 8.8685 58.5163 8.8685C57.4363 8.8685 56.4403 9.1685 55.5283 9.7685C54.6403 10.3685 53.8243 11.1845 53.0803 12.2165C52.3603 13.2245 51.7243 14.3765 51.1723 15.6725C50.6203 16.9445 50.1643 18.2765 49.8043 19.6685C49.4443 21.0365 49.1683 22.3805 48.9763 23.7005C48.7843 24.9965 48.6883 26.1845 48.6883 27.2645C48.6883 29.5205 49.0843 31.3325 49.8763 32.7005C50.6683 34.0445 51.7603 34.7165 53.1523 34.7165ZM69.1779 36.4445C68.3379 36.4445 67.6179 36.2645 67.0179 35.9045C66.4179 35.5685 65.8659 35.0765 65.3619 34.4285C65.7699 34.4525 66.1059 34.4765 66.3699 34.5005C66.6099 34.5245 66.8979 34.5365 67.2339 34.5365C67.7619 34.5365 68.3619 34.5005 69.0339 34.4285C69.7059 34.3565 70.3539 34.2725 70.9779 34.1765C71.3859 33.2165 71.7819 32.0285 72.1659 30.6125C72.5499 29.1965 72.9099 27.6845 73.2459 26.0765C73.5819 24.4445 73.8939 22.8125 74.1819 21.1805C74.4699 19.5485 74.7459 18.0245 75.0099 16.6085C75.2739 15.1925 75.5139 13.9925 75.7299 13.0085C74.4579 13.8485 73.5459 14.4005 72.9939 14.6645C72.4659 14.9285 72.0339 15.0605 71.6979 15.0605C71.3859 15.0605 71.1339 14.9645 70.9419 14.7725C70.7499 14.5565 70.6539 14.1605 70.6539 13.5845C71.1339 13.3445 71.8179 12.9245 72.7059 12.3245C73.6179 11.7005 74.6139 10.9685 75.6939 10.1285C76.7739 9.2645 77.8059 8.3645 78.7899 7.4285C78.9579 7.5725 79.0779 7.7765 79.1499 8.0405C79.2219 8.2805 79.2579 8.5445 79.2579 8.8325C79.2579 9.3845 79.1499 9.9605 78.9339 10.5605C78.7419 11.1605 78.5859 11.8805 78.4659 12.7205C78.2259 14.3045 77.9499 15.9845 77.6379 17.7605C77.3499 19.5125 77.0019 21.3125 76.5939 23.1605C76.2099 25.0085 75.7419 26.8445 75.1899 28.6685C74.6619 30.4685 74.0379 32.1965 73.3179 33.8525C73.5339 33.8285 73.7379 33.8045 73.9299 33.7805C74.1219 33.7805 74.3379 33.7805 74.5779 33.7805C75.4899 33.7805 76.2939 33.9365 76.9899 34.2485C77.7099 34.5845 78.1899 35.2805 78.4299 36.3365C77.8299 36.2645 77.2419 36.2045 76.6659 36.1565C76.1139 36.1325 75.5979 36.1205 75.1179 36.1205C74.4219 36.1205 73.6899 36.1445 72.9219 36.1925C72.1539 36.2405 71.4339 36.2885 70.7619 36.3365C70.0899 36.4085 69.5619 36.4445 69.1779 36.4445Z" fill="#007BFF"/>
</svg>
