<svg width="105" height="44" viewBox="0 0 105 44" fill="none" xmlns="http://www.w3.org/2000/svg">
<path fill-rule="evenodd" clip-rule="evenodd" d="M7.43536 6.41289C7.60361 6.46678 7.97203 6.51637 8.25407 6.52311C8.8026 6.53621 9.13567 6.78027 8.605 6.78027C8.43284 6.78027 8.29188 6.83869 8.29188 6.90996C8.29188 6.98123 8.2247 6.99813 8.1426 6.94731C7.93068 6.81628 5.85204 6.79166 5.77324 6.91927C5.73727 6.97756 5.43589 7.02519 5.10332 7.02519C4.4328 7.02519 4.29428 7.2057 4.8679 7.33183C5.09733 7.38229 5.30301 7.54038 5.41106 7.74942C5.59056 8.09684 5.53378 8.07896 7.9932 8.56072C8.13183 8.58791 10.1966 8.75347 12.5817 8.92871C16.2416 9.19764 17.0184 9.22372 17.5601 9.09648C18.1223 8.96435 18.2296 8.97084 18.4255 9.14816C18.6121 9.31728 18.9309 9.34924 20.3532 9.34141C21.2905 9.33626 23.4889 9.38904 25.2386 9.4586C73.0515 9.3692 77.3463 9.46117 80.8458 9.50403C87.2011 9.58179 87.2096 9.58167 88.1262 9.30638C88.6309 9.15478 89.391 9.00733 89.8152 8.97868C90.7161 8.91782 90.7932 8.68441 89.9518 8.56538C89.6543 8.52337 89.1356 8.42332 88.7991 8.34323C88.4627 8.26302 88.0339 8.16689 87.8465 8.12954C87.6059 8.08178 87.4547 7.93985 87.3327 7.64766C87.1853 7.29485 87.0996 7.23362 86.7526 7.23362C86.5285 7.23362 86.2257 7.14986 86.0797 7.04748C85.6305 6.73264 80.8008 6.60062 17.8359 6.60062C15.4468 6.57809 12.6112 6.49935 11.5344 6.42551C9.26928 6.27023 6.9682 6.26312 7.43536 6.41289ZM5.2329 8.8403C5.2329 8.91145 5.4945 9.00586 5.81411 9.05032C6.13383 9.09477 6.75321 9.20976 7.19065 9.30601C8.1081 9.50783 10.4218 9.82292 11.2285 9.85598C11.5888 9.87068 11.6648 9.8959 11.4485 9.92897C11.1115 9.98028 10.8655 10.3925 11.0634 10.5741C11.2789 10.7717 12.0624 10.9296 13.1862 11.0018C14.8015 11.1056 15.3362 11.1924 15.133 11.3182C14.8366 11.5015 15.1439 11.6149 16.3471 11.7662C17.4857 11.9094 17.4429 11.9126 15.2052 11.8509C10.1149 11.7106 7.19627 11.5612 6.0625 11.3829C4.95747 11.2092 4.8471 11.2109 4.50327 11.4067C4.29979 11.5227 4.13289 11.6499 4.1324 11.6896C4.13142 11.7899 4.71043 12.0442 4.96334 12.0546C5.11715 12.061 4.01151 12.5112 3.7898 12.5325C3.7701 12.5343 3.7701 12.6288 3.7898 12.7426C3.81525 12.889 3.7099 12.9737 3.42884 13.0331C3.21055 13.0793 2.96277 13.1739 2.87822 13.2436C2.79367 13.3133 2.45865 13.4098 2.13367 13.4583C1.66883 13.5275 1.51343 13.6111 1.40441 13.8504C1.28229 14.1187 1.3042 14.1825 1.58917 14.3903C1.86876 14.5941 1.90278 14.6875 1.84074 15.0811C1.7568 15.6134 1.63983 17.0132 1.1105 17.0157C0.89576 17.0167 0.689586 17.0669 0.652389 17.1272C0.575302 17.252 0.858441 17.385 1.2008 17.385C1.32744 17.385 1.4881 16.1938 1.55785 16.3241C1.72156 16.6304 1.7196 16.6469 1.49324 16.8734C1.32194 17.0449 1.32133 17.0924 1.48749 17.3297C1.73404 17.682 1.56188 19.2892 1.06376 19.389C0.772912 19.4472 0.697783 19.5147 0.755659 19.6655C0.797751 19.7754 0.767528 19.9433 0.688484 20.0385C0.583011 20.1657 0.58093 20.2482 0.680653 20.348C0.844125 20.5116 0.676004 20.883 0.300729 21.1872C0.0615165 21.3812 0.0702034 21.3911 0.594023 21.5234C0.890988 21.5983 1.24399 20.4501 1.37859 20.5577C1.62037 20.751 1.62013 22.0502 1.35338 21.977C1.20484 21.9362 0.88952 21.9392 0.652511 21.9838C0.277113 22.0542 0.237469 22.0944 0.3449 22.2952C0.4445 22.4816 0.510452 22.4994 0.688729 22.3879C0.85685 22.2829 1.05238 22.2956 1.5111 22.4416C2.34192 22.7062 3.25509 22.8922 4.62111 23.0753C5.26043 23.161 5.60928 23.2383 5.39649 23.2471C5.18359 23.2558 4.0656 23.1515 2.91199 23.0151C1.75839 22.8786 0.761533 22.7998 0.696927 22.8398C0.461508 22.9854 0.732044 23.1406 1.22124 23.1406C1.7059 23.1406 1.71544 23.1482 1.51196 23.3734C1.39621 23.5013 1.34641 23.6335 1.40123 23.6669C1.60483 23.791 3.89894 24.2428 4.34372 24.2464C4.73698 24.2496 4.77075 24.2698 4.57424 24.384C4.4071 24.4813 4.03806 24.4794 3.22829 24.3776C2.61478 24.3003 1.88357 24.2081 1.60361 24.1728C1.30456 24.1351 1.06107 24.1625 1.01359 24.2394C0.916928 24.3959 1.66467 24.7326 2.10883 24.7326C2.4321 24.7326 2.52965 27.6607 2.26523 27.7681C2.14507 27.8169 2.14691 27.8546 2.27343 27.9437C2.57566 28.1564 1.72856 28.4039 1.26837 28.2374C0.969693 28.1294 0.785298 28.131 0.485519 28.2443C0.00305668 28.4265 -0.00195992 28.5187 0.447954 28.9392L0.802428 29.2707L0.447954 29.5532C-0.00159284 29.9114 -0.00098145 30.0531 0.450401 30.0531C0.979849 30.0531 1.17538 30.1615 1.10833 30.4179C1.04054 30.6773 1.30655 30.8545 2.01317 31.0209C2.38759 31.1091 2.4161 31.1331 2.15768 31.143C1.80639 31.1564 1.50783 31.6581 1.58247 32.1095C1.60474 32.2437 1.51346 32.4746 1.37972 32.6227C1.15189 32.875 1.14981 32.9014 1.34668 33.0455C1.73346 33.3286 3.33734 33.4889 8.84203 33.7949C9.58231 33.836 10.4835 33.9511 10.8446 34.0508C11.5763 34.2526 13.3354 34.4122 16 34.5185C18.8216 34.6312 20.1305 34.705 21.5062 34.8297C22.2128 34.8936 70.5886 34.8706 72.7085 34.9727C74.8283 35.0748 76.8931 35.1881 77.2969 35.2245C77.7007 35.2609 80.8117 35.3709 84.2102 35.4693C87.6087 35.5676 90.9538 35.6835 91.6435 35.7267L92.8977 35.8054V35.4797C92.8977 35.0125 93.3041 34.8997 94.6599 34.9907C95.5232 35.0486 95.9557 35.0196 96.475 34.8685C96.85 34.7594 97.2997 34.6701 97.4744 34.6701C97.6492 34.6701 97.7921 34.6232 97.7921 34.5658C97.7921 34.5085 96.9523 34.4232 95.9261 34.3766C94.8999 34.3298 93.6196 34.2676 93.0813 34.2382C92.5429 34.2088 91.0011 34.1267 89.6552 34.056C86.3352 33.8812 83.9836 33.6929 83.4724 33.5609C83.0362 33.4481 84.1331 33.4806 88.0645 33.6972C90.6308 33.8385 102.34 34.0781 102.427 33.9911C102.578 33.8397 102.208 33.5105 101.699 33.3442C101.038 33.1282 101.113 33.1959 101.021 32.7324L100.943 32.3434H102.049C103.154 32.3434 103.543 32.2797 103.543 32.0987C103.543 32.0459 103.364 31.9724 103.145 31.9353C102.638 31.8492 101.252 31.5252 101.035 31.4421C100.799 31.3514 100.949 30.8981 101.246 30.8037C101.382 30.7606 101.899 30.7635 102.395 30.81C103.259 30.8911 103.298 30.8835 103.298 30.6364C103.298 30.4659 103.413 30.336 103.635 30.2549C104.329 30.0009 104.331 29.9735 103.665 29.8594C102.557 29.6692 101.562 29.275 101.645 29.0587C101.755 28.77 101.476 28.6735 100.525 28.6714C99.5893 28.6694 99.2199 28.5892 99.3295 28.4118C99.3667 28.3515 100.196 28.3022 101.171 28.3022C102.924 28.3022 103.415 28.1632 102.179 28.0167C101.348 27.9183 101.258 25.0581 101.64 24.6041C101.812 24.3995 101.953 24.0953 101.953 23.928C101.953 23.7607 102.023 23.5659 102.108 23.495C102.35 23.2941 103.875 23.0672 104.409 23.1526C104.673 23.1948 104.889 23.1795 104.889 23.1187C104.889 22.9609 104.571 22.8592 104.077 22.8592C103.563 22.8592 102.644 22.6525 102.118 22.4184C101.906 22.324 101.383 22.2421 100.955 22.2361C100.528 22.2302 99.9032 22.1825 99.5667 22.13C99.0675 22.0523 99.2172 22.0317 100.38 22.0184C101.559 22.0048 101.817 21.9684 101.879 21.8072C102.034 21.404 101.69 19.9837 100.056 19.86L99.0773 19.7858L98.9392 19.3572L98.801 18.9286L97.0426 18.8673C95.1347 18.8008 94.9964 18.6629 96.7525 18.578C97.9317 18.521 99.0823 18.352 99.2183 18.216C99.3976 18.0364 99.1441 18.0168 98.2724 18.1427C96.8385 18.3499 95.2026 18.4145 93.908 18.315C92.3491 18.1952 92.7296 18.032 94.6112 18.0133C96.5182 17.9944 97.6785 17.846 98.0995 17.5673C98.2913 17.4404 98.7274 17.2232 99.0686 17.0847C99.7404 16.8121 99.9771 16.3842 99.5342 16.2435C99.4076 16.2033 99.1518 16.0116 98.966 15.8173L98.6281 15.4644L99.078 15.3157C100.057 14.9926 98.7695 14.7105 96.1783 14.6805C95.0808 14.6678 94.5133 14.6401 94.9171 14.6189C98.8024 14.4154 99.4503 14.2861 99.3596 13.7321C99.3422 13.6267 99.3728 13.469 99.4274 13.3819C99.4838 13.2917 99.4629 13.1466 99.3788 13.0451C99.2974 12.947 99.279 12.8664 99.3377 12.8661C99.3963 12.8656 99.538 12.7006 99.6524 12.4993C99.857 12.1395 99.8553 12.1308 99.5529 11.9722L99.2454 11.8109L99.559 11.668C99.9074 11.5092 99.9358 11.3703 99.7371 10.7995C99.469 10.0299 99.4102 10.0233 94.2699 10.1767C89.7032 10.313 87.3525 10.2623 87.0547 10.0209C86.8597 9.86296 83.484 9.72091 76.2573 9.56649C60.4676 9.22899 12.9443 9.3305 5.99765 8.77258C5.50393 8.7329 5.2329 8.7569 5.2329 8.8403ZM9.61495 9.92542C9.70317 9.96081 9.80876 9.9564 9.84939 9.91574C9.89001 9.87509 9.81782 9.84619 9.68885 9.85145C9.5463 9.85733 9.51731 9.88635 9.61495 9.92542ZM13.8871 10.0536C13.6332 10.0801 13.2478 10.0797 13.0306 10.0527C12.8133 10.0256 13.0211 10.0039 13.4921 10.0044C13.9632 10.005 14.1409 10.0271 13.8871 10.0536ZM18.9065 12.008C18.7887 12.0388 18.5961 12.0388 18.4783 12.008C18.3604 11.9772 18.4569 11.952 18.6924 11.952C18.9279 11.952 19.0244 11.9772 18.9065 12.008ZM5.75525 12.2489C5.67241 12.2824 5.50723 12.2845 5.38817 12.2534C5.26912 12.2223 5.33691 12.1948 5.5388 12.1924C5.74069 12.1899 5.83809 12.2153 5.75525 12.2489ZM6.67209 12.3751C6.55511 12.4057 6.33487 12.4068 6.18265 12.3776C6.03044 12.3483 6.12612 12.3232 6.39531 12.3218C6.6645 12.3205 6.78906 12.3445 6.67209 12.3751ZM8.41424 12.5366C8.5377 12.6171 8.33752 12.6308 7.80244 12.5789C7.36501 12.5364 6.98423 12.4818 6.95608 12.4575C6.83434 12.3522 8.24881 12.429 8.41424 12.5366ZM6.60944 23.3495C6.45796 23.3786 6.21031 23.3786 6.05883 23.3495C5.90747 23.3202 6.03129 23.2964 6.33413 23.2964C6.63697 23.2964 6.76092 23.3202 6.60944 23.3495ZM8.62837 23.4699C8.51053 23.5007 8.31794 23.5007 8.20011 23.4699C8.08228 23.4391 8.1787 23.4139 8.41424 23.4139C8.64978 23.4139 8.7462 23.4391 8.62837 23.4699ZM4.34323 23.5819C4.3026 23.6226 4.19701 23.627 4.10879 23.5916C4.01115 23.5525 4.04014 23.5235 4.18269 23.5176C4.31166 23.5124 4.38385 23.5413 4.34323 23.5819ZM5.32467 23.7148C5.20684 23.7457 5.01425 23.7457 4.89641 23.7148C4.77858 23.6841 4.875 23.6588 5.11054 23.6588C5.34608 23.6588 5.4425 23.6841 5.32467 23.7148ZM1.80638 33.6029C1.70544 33.6614 1.52655 33.739 1.40872 33.7754C1.29089 33.8119 1.19459 33.9469 1.19459 34.0754C1.19459 34.204 1.10894 34.3804 1.00432 34.4672C0.384939 34.9816 0.545964 35.3833 1.41484 35.4919C2.14189 35.5827 8.91361 36.0166 11.1057 36.1128C12.9396 36.1934 14.894 36.3396 17.6519 36.6024C24.1845 37.2251 80.4974 37.4201 80.6304 37.0275C80.6628 36.9317 80.5665 36.8744 80.3733 36.8744C79.9673 36.8744 79.8566 36.6761 80.1689 36.5088C80.4774 36.3436 80.5023 35.8948 80.203 35.8945C80.0034 35.8943 79.221 35.8487 73.9321 35.5283C68.6953 35.211 21.4462 35.2813 18.019 34.9502C14.548 34.615 10.2549 34.2708 5.72188 33.9644C4.61147 33.8893 3.32768 33.7501 2.86907 33.6549C2.41035 33.5598 2.02492 33.4852 2.01256 33.4892C2.00008 33.4931 1.90733 33.5443 1.80638 33.6029Z" fill="#C2E0FF"/>
<path d="M34.3873 36.4367C33.2833 36.3647 32.4433 36.1487 31.8673 35.7887C31.2913 35.4527 31.0033 35.0207 31.0033 34.4927C31.0033 34.3487 31.0153 34.0847 31.0393 33.7007C31.0873 33.3407 31.1713 32.7767 31.2913 32.0087C31.4353 31.2167 31.6273 30.1487 31.8673 28.8047C31.9873 28.3007 32.1073 27.7127 32.2273 27.0407C32.3473 26.3447 32.4673 25.6727 32.5873 25.0247C32.1073 24.9767 31.6153 24.9407 31.1113 24.9167C30.6073 24.8927 30.2593 24.8807 30.0673 24.8807C29.8273 24.8807 29.4313 24.8927 28.8793 24.9167C28.3273 24.9407 27.7033 24.9767 27.0073 25.0247C26.3113 25.0487 25.6153 25.0967 24.9193 25.1687C24.2473 25.2167 23.6593 25.2767 23.1553 25.3487C22.6753 25.3967 22.3633 25.4567 22.2193 25.5287C22.2193 24.9047 22.3993 24.3767 22.7593 23.9447C23.1193 23.5127 23.5393 23.0687 24.0193 22.6127C24.8833 21.8207 25.9273 20.8367 27.1513 19.6607C28.3993 18.4607 29.7193 17.1647 31.1113 15.7727C32.5033 14.3807 33.8353 12.9647 35.1073 11.5247C36.3793 10.0607 37.4833 8.68069 38.4193 7.38469C38.6113 7.48069 38.8033 7.62469 38.9953 7.81669C39.2113 7.98469 39.3193 8.26069 39.3193 8.64469C39.3193 9.22069 39.0793 9.88069 38.5993 10.6247C38.4793 11.1767 38.2993 12.0287 38.0593 13.1807C37.8193 14.3327 37.5433 15.7247 37.2313 17.3567C36.9193 18.9647 36.5833 20.7287 36.2233 22.6487C36.3193 22.6487 36.4153 22.6487 36.5113 22.6487C36.6073 22.6487 36.6913 22.6487 36.7633 22.6487C37.6753 22.6487 38.3713 22.6247 38.8513 22.5767C39.3553 22.5047 39.8713 22.3967 40.3993 22.2527C39.8233 23.0447 39.1513 23.7047 38.3833 24.2327C37.6153 24.7367 36.8353 25.0127 36.0433 25.0607C36.0193 25.0607 35.9833 25.0607 35.9353 25.0607C35.8873 25.0607 35.8393 25.0607 35.7913 25.0607C35.7673 25.1327 35.7313 25.3247 35.6833 25.6367C35.6353 25.9247 35.5753 26.3087 35.5033 26.7887C35.4073 27.4367 35.2873 28.1927 35.1433 29.0567C35.0233 29.8967 34.9033 30.7727 34.7833 31.6847C34.6633 32.5967 34.5673 33.4727 34.4953 34.3127C34.4233 35.1527 34.3873 35.8607 34.3873 36.4367ZM26.3953 22.5767C26.8753 22.5287 27.3793 22.5047 27.9073 22.5047C28.4353 22.4807 29.0113 22.4687 29.6353 22.4687C30.2593 22.4687 30.8593 22.4807 31.4353 22.5047C32.0353 22.5047 32.5993 22.5167 33.1273 22.5407C33.4393 21.0767 33.7393 19.6847 34.0273 18.3647C34.3393 17.0447 34.6753 15.7967 35.0353 14.6207C34.3153 15.2927 33.5473 15.9887 32.7313 16.7087C31.9393 17.4287 31.1473 18.1487 30.3553 18.8687C29.5633 19.5887 28.7953 20.2847 28.0513 20.9567C27.7633 21.2447 27.4753 21.5207 27.1873 21.7847C26.9233 22.0487 26.6593 22.3127 26.3953 22.5767ZM50.2206 36.4367C48.5166 36.4367 47.1006 35.9927 45.9726 35.1047C44.8686 34.2407 44.0406 33.0767 43.4886 31.6127C42.9366 30.1247 42.6606 28.4687 42.6606 26.6447C42.6606 25.0847 42.8526 23.4287 43.2366 21.6767C43.6446 19.9007 44.2206 18.1727 44.9646 16.4927C45.7326 14.8127 46.6566 13.2887 47.7366 11.9207C48.8406 10.5287 50.0886 9.42469 51.4806 8.60869C52.8726 7.79269 54.4086 7.38469 56.0886 7.38469C57.6486 7.38469 59.0166 7.76869 60.1926 8.53669C61.3686 9.30469 62.2806 10.4327 62.9286 11.9207C63.5766 13.4087 63.9006 15.2327 63.9006 17.3927C63.9006 19.1447 63.6726 20.9207 63.2166 22.7207C62.7846 24.5207 62.1606 26.2367 61.3446 27.8687C60.5286 29.5007 59.5566 30.9647 58.4286 32.2607C57.3006 33.5567 56.0406 34.5767 54.6486 35.3207C53.2806 36.0647 51.8046 36.4367 50.2206 36.4367ZM50.7246 34.7087C51.8046 34.7087 52.8366 34.3127 53.8206 33.5207C54.8286 32.7287 55.7406 31.6727 56.5566 30.3527C57.3726 29.0087 58.0806 27.5207 58.6806 25.8887C59.3046 24.2327 59.7846 22.5527 60.1206 20.8487C60.4566 19.1447 60.6246 17.5247 60.6246 15.9887C60.6246 14.6207 60.4686 13.4087 60.1566 12.3527C59.8686 11.2727 59.3886 10.4207 58.7166 9.79669C58.0686 9.17269 57.1926 8.86069 56.0886 8.86069C55.0086 8.86069 54.0126 9.16069 53.1006 9.76069C52.2126 10.3607 51.3966 11.1767 50.6526 12.2087C49.9326 13.2167 49.2966 14.3687 48.7446 15.6647C48.1926 16.9367 47.7366 18.2687 47.3766 19.6607C47.0166 21.0287 46.7406 22.3727 46.5486 23.6927C46.3566 24.9887 46.2606 26.1767 46.2606 27.2567C46.2606 29.5127 46.6566 31.3247 47.4486 32.6927C48.2406 34.0367 49.3326 34.7087 50.7246 34.7087ZM76.4342 36.4367C75.3302 36.3647 74.4902 36.1487 73.9142 35.7887C73.3382 35.4527 73.0502 35.0207 73.0502 34.4927C73.0502 34.3487 73.0622 34.0847 73.0862 33.7007C73.1342 33.3407 73.2182 32.7767 73.3382 32.0087C73.4822 31.2167 73.6742 30.1487 73.9142 28.8047C74.0342 28.3007 74.1542 27.7127 74.2742 27.0407C74.3942 26.3447 74.5142 25.6727 74.6342 25.0247C74.1542 24.9767 73.6622 24.9407 73.1582 24.9167C72.6542 24.8927 72.3062 24.8807 72.1142 24.8807C71.8742 24.8807 71.4782 24.8927 70.9262 24.9167C70.3742 24.9407 69.7502 24.9767 69.0542 25.0247C68.3582 25.0487 67.6622 25.0967 66.9662 25.1687C66.2942 25.2167 65.7062 25.2767 65.2022 25.3487C64.7222 25.3967 64.4102 25.4567 64.2662 25.5287C64.2662 24.9047 64.4462 24.3767 64.8062 23.9447C65.1662 23.5127 65.5862 23.0687 66.0662 22.6127C66.9302 21.8207 67.9742 20.8367 69.1982 19.6607C70.4462 18.4607 71.7662 17.1647 73.1582 15.7727C74.5502 14.3807 75.8822 12.9647 77.1542 11.5247C78.4262 10.0607 79.5302 8.68069 80.4662 7.38469C80.6582 7.48069 80.8502 7.62469 81.0422 7.81669C81.2582 7.98469 81.3662 8.26069 81.3662 8.64469C81.3662 9.22069 81.1262 9.88069 80.6462 10.6247C80.5262 11.1767 80.3462 12.0287 80.1062 13.1807C79.8662 14.3327 79.5902 15.7247 79.2782 17.3567C78.9662 18.9647 78.6302 20.7287 78.2702 22.6487C78.3662 22.6487 78.4622 22.6487 78.5582 22.6487C78.6542 22.6487 78.7382 22.6487 78.8102 22.6487C79.7222 22.6487 80.4182 22.6247 80.8982 22.5767C81.4022 22.5047 81.9182 22.3967 82.4462 22.2527C81.8702 23.0447 81.1982 23.7047 80.4302 24.2327C79.6622 24.7367 78.8822 25.0127 78.0902 25.0607C78.0662 25.0607 78.0302 25.0607 77.9822 25.0607C77.9342 25.0607 77.8862 25.0607 77.8382 25.0607C77.8142 25.1327 77.7782 25.3247 77.7302 25.6367C77.6822 25.9247 77.6222 26.3087 77.5502 26.7887C77.4542 27.4367 77.3342 28.1927 77.1902 29.0567C77.0702 29.8967 76.9502 30.7727 76.8302 31.6847C76.7102 32.5967 76.6142 33.4727 76.5422 34.3127C76.4702 35.1527 76.4342 35.8607 76.4342 36.4367ZM68.4422 22.5767C68.9222 22.5287 69.4262 22.5047 69.9542 22.5047C70.4822 22.4807 71.0582 22.4687 71.6822 22.4687C72.3062 22.4687 72.9062 22.4807 73.4822 22.5047C74.0822 22.5047 74.6462 22.5167 75.1742 22.5407C75.4862 21.0767 75.7862 19.6847 76.0742 18.3647C76.3862 17.0447 76.7222 15.7967 77.0822 14.6207C76.3622 15.2927 75.5942 15.9887 74.7782 16.7087C73.9862 17.4287 73.1942 18.1487 72.4022 18.8687C71.6102 19.5887 70.8422 20.2847 70.0982 20.9567C69.8102 21.2447 69.5222 21.5207 69.2342 21.7847C68.9702 22.0487 68.7062 22.3127 68.4422 22.5767Z" fill="#007BFF"/>
</svg>
