<svg width="105" height="44" viewBox="0 0 105 44" fill="none" xmlns="http://www.w3.org/2000/svg">
<path fill-rule="evenodd" clip-rule="evenodd" d="M7.43536 6.4168C7.60361 6.47068 7.97203 6.52028 8.25407 6.52701C8.8026 6.54012 9.13567 6.78418 8.605 6.78418C8.43284 6.78418 8.29188 6.84259 8.29188 6.91386C8.29188 6.98514 8.2247 7.00204 8.1426 6.95122C7.93068 6.82018 5.85204 6.79557 5.77324 6.92317C5.73727 6.98146 5.43589 7.0291 5.10332 7.0291C4.4328 7.0291 4.29428 7.20961 4.8679 7.33574C5.09733 7.38619 5.30301 7.54429 5.41106 7.75333C5.59056 8.10075 5.53378 8.08287 7.9932 8.56463C8.13183 8.59181 10.1966 8.75738 12.5817 8.93262C16.2416 9.20154 17.0184 9.22763 17.5601 9.10039C18.1223 8.96826 18.2296 8.97475 18.4255 9.15207C18.6121 9.32119 18.9309 9.35315 20.3532 9.34531C21.2905 9.34017 23.4889 9.39295 25.2386 9.46251C73.0515 9.37311 77.3463 9.46508 80.8458 9.50794C87.2011 9.5857 87.2096 9.58558 88.1262 9.31029C88.6309 9.15868 89.391 9.01124 89.8152 8.98258C90.7161 8.92172 90.7932 8.68831 89.9518 8.56928C89.6543 8.52728 89.1356 8.42723 88.7991 8.34714C88.4627 8.26693 88.0339 8.1708 87.8465 8.13345C87.6059 8.08569 87.4547 7.94375 87.3327 7.65156C87.1853 7.29876 87.0996 7.23753 86.7526 7.23753C86.5285 7.23753 86.2257 7.15377 86.0797 7.05139C85.6305 6.73654 80.8008 6.60453 17.8359 6.60453C15.4468 6.582 12.6112 6.50326 11.5344 6.42941C9.26928 6.27413 6.9682 6.26703 7.43536 6.4168ZM5.2329 8.8442C5.2329 8.91535 5.4945 9.00977 5.81411 9.05422C6.13383 9.09868 6.75321 9.21367 7.19065 9.30992C8.1081 9.51173 10.4218 9.82682 11.2285 9.85989C11.5888 9.87458 11.6648 9.89981 11.4485 9.93287C11.1115 9.98419 10.8655 10.3964 11.0634 10.578C11.2789 10.7756 12.0624 10.9335 13.1862 11.0057C14.8015 11.1095 15.3362 11.1963 15.133 11.3221C14.8366 11.5054 15.1439 11.6188 16.3471 11.7701C17.4857 11.9133 17.4429 11.9165 15.2052 11.8548C10.1149 11.7145 7.19627 11.5651 6.0625 11.3868C4.95747 11.2131 4.8471 11.2148 4.50327 11.4106C4.29979 11.5266 4.13289 11.6538 4.1324 11.6935C4.13142 11.7938 4.71043 12.0481 4.96334 12.0585C5.11715 12.0649 4.01151 12.5151 3.7898 12.5364C3.7701 12.5382 3.7701 12.6328 3.7898 12.7465C3.81525 12.8929 3.7099 12.9776 3.42884 13.037C3.21055 13.0832 2.96277 13.1778 2.87822 13.2475C2.79367 13.3172 2.45865 13.4137 2.13367 13.4622C1.66883 13.5314 1.51343 13.615 1.40441 13.8543C1.28229 14.1226 1.3042 14.1864 1.58917 14.3942C1.86876 14.598 1.90278 14.6914 1.84074 15.085C1.7568 15.6173 1.63983 17.0171 1.1105 17.0196C0.89576 17.0206 0.689586 17.0708 0.652389 17.1311C0.575302 17.2559 0.858441 17.3889 1.2008 17.3889C1.32744 17.3889 1.4881 16.1977 1.55785 16.328C1.72156 16.6343 1.7196 16.6508 1.49324 16.8773C1.32194 17.0488 1.32133 17.0963 1.48749 17.3336C1.73404 17.6859 1.56188 19.2931 1.06376 19.3929C0.772912 19.4511 0.697783 19.5186 0.755659 19.6694C0.797751 19.7793 0.767528 19.9472 0.688484 20.0425C0.583011 20.1696 0.58093 20.2521 0.680653 20.3519C0.844125 20.5155 0.676004 20.8869 0.300729 21.1911C0.0615165 21.3851 0.0702034 21.395 0.594023 21.5273C0.890988 21.6022 1.24399 20.454 1.37859 20.5616C1.62037 20.7549 1.62013 22.0541 1.35338 21.9809C1.20484 21.9401 0.88952 21.9432 0.652511 21.9877C0.277113 22.0581 0.237469 22.0983 0.3449 22.2991C0.4445 22.4855 0.510452 22.5033 0.688729 22.3918C0.85685 22.2868 1.05238 22.2995 1.5111 22.4455C2.34192 22.7101 3.25509 22.8961 4.62111 23.0792C5.26043 23.1649 5.60928 23.2422 5.39649 23.251C5.18359 23.2597 4.0656 23.1554 2.91199 23.019C1.75839 22.8825 0.761533 22.8037 0.696927 22.8437C0.461508 22.9893 0.732044 23.1445 1.22124 23.1445C1.7059 23.1445 1.71544 23.1521 1.51196 23.3773C1.39621 23.5053 1.34641 23.6374 1.40123 23.6708C1.60483 23.7949 3.89894 24.2467 4.34372 24.2503C4.73698 24.2535 4.77075 24.2737 4.57424 24.3879C4.4071 24.4852 4.03806 24.4833 3.22829 24.3815C2.61478 24.3042 1.88357 24.212 1.60361 24.1767C1.30456 24.139 1.06107 24.1664 1.01359 24.2433C0.916928 24.3998 1.66467 24.7365 2.10883 24.7365C2.4321 24.7365 2.52965 27.6646 2.26523 27.772C2.14507 27.8208 2.14691 27.8585 2.27343 27.9476C2.57566 28.1604 1.72856 28.4078 1.26837 28.2413C0.969693 28.1333 0.785298 28.1349 0.485519 28.2482C0.00305668 28.4304 -0.00195992 28.5226 0.447954 28.9431L0.802428 29.2746L0.447954 29.5571C-0.00159284 29.9153 -0.00098145 30.057 0.450401 30.057C0.979849 30.057 1.17538 30.1654 1.10833 30.4218C1.04054 30.6812 1.30655 30.8584 2.01317 31.0248C2.38759 31.113 2.4161 31.137 2.15768 31.1469C1.80639 31.1603 1.50783 31.662 1.58247 32.1134C1.60474 32.2476 1.51346 32.4785 1.37972 32.6266C1.15189 32.8789 1.14981 32.9053 1.34668 33.0495C1.73346 33.3325 3.33734 33.4928 8.84203 33.7988C9.58231 33.8399 10.4835 33.955 10.8446 34.0547C11.5763 34.2565 13.3354 34.4161 16 34.5224C18.8216 34.6351 20.1305 34.7089 21.5062 34.8336C22.2128 34.8975 70.5886 34.8745 72.7085 34.9766C74.8283 35.0787 76.8931 35.192 77.2969 35.2284C77.7007 35.2648 80.8117 35.3748 84.2102 35.4732C87.6087 35.5715 90.9538 35.6874 91.6435 35.7306L92.8977 35.8093V35.4836C92.8977 35.0164 93.3041 34.9036 94.6599 34.9946C95.5232 35.0525 95.9557 35.0235 96.475 34.8724C96.85 34.7633 97.2997 34.674 97.4744 34.674C97.6492 34.674 97.7921 34.6271 97.7921 34.5697C97.7921 34.5124 96.9523 34.4271 95.9261 34.3805C94.8999 34.3337 93.6196 34.2715 93.0813 34.2421C92.5429 34.2127 91.0011 34.1307 89.6552 34.0599C86.3352 33.8851 83.9836 33.6968 83.4724 33.5648C83.0362 33.452 84.1331 33.4846 88.0645 33.7011C90.6308 33.8424 102.34 34.082 102.427 33.995C102.578 33.8436 102.208 33.5144 101.699 33.3481C101.038 33.1321 101.113 33.1998 101.021 32.7363L100.943 32.3473H102.049C103.154 32.3473 103.543 32.2836 103.543 32.1026C103.543 32.0498 103.364 31.9763 103.145 31.9392C102.638 31.8531 101.252 31.5291 101.035 31.446C100.799 31.3553 100.949 30.902 101.246 30.8076C101.382 30.7645 101.899 30.7674 102.395 30.8139C103.259 30.895 103.298 30.8874 103.298 30.6403C103.298 30.4698 103.413 30.3399 103.635 30.2588C104.329 30.0049 104.331 29.9774 103.665 29.8633C102.557 29.6731 101.562 29.2789 101.645 29.0626C101.755 28.7739 101.476 28.6774 100.525 28.6753C99.5893 28.6733 99.2199 28.5931 99.3295 28.4157C99.3667 28.3554 100.196 28.3061 101.171 28.3061C102.924 28.3061 103.415 28.1671 102.179 28.0206C101.348 27.9222 101.258 25.062 101.64 24.608C101.812 24.4034 101.953 24.0992 101.953 23.9319C101.953 23.7646 102.023 23.5698 102.108 23.4989C102.35 23.2981 103.875 23.0711 104.409 23.1565C104.673 23.1987 104.889 23.1834 104.889 23.1226C104.889 22.9648 104.571 22.8631 104.077 22.8631C103.563 22.8631 102.644 22.6564 102.118 22.4223C101.906 22.3279 101.383 22.246 100.955 22.24C100.528 22.2341 99.9032 22.1864 99.5667 22.1339C99.0675 22.0562 99.2172 22.0356 100.38 22.0223C101.559 22.0087 101.817 21.9723 101.879 21.8111C102.034 21.4079 101.69 19.9876 100.056 19.8639L99.0773 19.7897L98.9392 19.3611L98.801 18.9325L97.0426 18.8712C95.1347 18.8047 94.9964 18.6669 96.7525 18.5819C97.9317 18.5249 99.0823 18.3559 99.2183 18.2199C99.3976 18.0403 99.1441 18.0208 98.2724 18.1466C96.8385 18.3538 95.2026 18.4184 93.908 18.3189C92.3491 18.1991 92.7296 18.0359 94.6112 18.0172C96.5182 17.9983 97.6785 17.8499 98.0995 17.5712C98.2913 17.4443 98.7274 17.2271 99.0686 17.0886C99.7404 16.816 99.9771 16.3881 99.5342 16.2474C99.4076 16.2072 99.1518 16.0155 98.966 15.8212L98.6281 15.4683L99.078 15.3196C100.057 14.9965 98.7695 14.7145 96.1783 14.6845C95.0808 14.6717 94.5133 14.644 94.9171 14.6229C98.8024 14.4193 99.4503 14.29 99.3596 13.736C99.3422 13.6306 99.3728 13.473 99.4274 13.3858C99.4838 13.2956 99.4629 13.1505 99.3788 13.049C99.2974 12.9509 99.279 12.8703 99.3377 12.87C99.3963 12.8695 99.538 12.7045 99.6524 12.5032C99.857 12.1434 99.8553 12.1347 99.5529 11.9761L99.2454 11.8148L99.559 11.6719C99.9074 11.5131 99.9358 11.3742 99.7371 10.8034C99.469 10.0338 99.4102 10.0272 94.2699 10.1806C89.7032 10.3169 87.3525 10.2662 87.0547 10.0248C86.8597 9.86687 83.484 9.72482 76.2573 9.57039C60.4676 9.23289 12.9443 9.33441 5.99765 8.77648C5.50393 8.73681 5.2329 8.76081 5.2329 8.8442ZM9.61495 9.92932C9.70317 9.96471 9.80876 9.96031 9.84939 9.91965C9.89001 9.87899 9.81782 9.85009 9.68885 9.85536C9.5463 9.86124 9.51731 9.89026 9.61495 9.92932ZM13.8871 10.0575C13.6332 10.084 13.2478 10.0836 13.0306 10.0566C12.8133 10.0295 13.0211 10.0078 13.4921 10.0083C13.9632 10.0089 14.1409 10.031 13.8871 10.0575ZM18.9065 12.0119C18.7887 12.0427 18.5961 12.0427 18.4783 12.0119C18.3604 11.9811 18.4569 11.9559 18.6924 11.9559C18.9279 11.9559 19.0244 11.9811 18.9065 12.0119ZM5.75525 12.2528C5.67241 12.2863 5.50723 12.2884 5.38817 12.2573C5.26912 12.2262 5.33691 12.1988 5.5388 12.1963C5.74069 12.1939 5.83809 12.2192 5.75525 12.2528ZM6.67209 12.379C6.55511 12.4096 6.33487 12.4107 6.18265 12.3815C6.03044 12.3522 6.12612 12.3271 6.39531 12.3257C6.6645 12.3244 6.78906 12.3484 6.67209 12.379ZM8.41424 12.5405C8.5377 12.621 8.33752 12.6347 7.80244 12.5828C7.36501 12.5403 6.98423 12.4857 6.95608 12.4614C6.83434 12.3561 8.24881 12.4329 8.41424 12.5405ZM6.60944 23.3534C6.45796 23.3825 6.21031 23.3825 6.05883 23.3534C5.90747 23.3241 6.03129 23.3003 6.33413 23.3003C6.63697 23.3003 6.76092 23.3241 6.60944 23.3534ZM8.62837 23.4738C8.51053 23.5046 8.31794 23.5046 8.20011 23.4738C8.08228 23.443 8.1787 23.4178 8.41424 23.4178C8.64978 23.4178 8.7462 23.443 8.62837 23.4738ZM4.34323 23.5858C4.3026 23.6265 4.19701 23.6309 4.10879 23.5955C4.01115 23.5564 4.04014 23.5274 4.18269 23.5215C4.31166 23.5163 4.38385 23.5452 4.34323 23.5858ZM5.32467 23.7187C5.20684 23.7496 5.01425 23.7496 4.89641 23.7187C4.77858 23.688 4.875 23.6627 5.11054 23.6627C5.34608 23.6627 5.4425 23.688 5.32467 23.7187ZM1.80638 33.6068C1.70544 33.6653 1.52655 33.7429 1.40872 33.7793C1.29089 33.8158 1.19459 33.9508 1.19459 34.0793C1.19459 34.2079 1.10894 34.3843 1.00432 34.4711C0.384939 34.9855 0.545964 35.3872 1.41484 35.4958C2.14189 35.5866 8.91361 36.0205 11.1057 36.1167C12.9396 36.1973 14.894 36.3435 17.6519 36.6063C24.1845 37.229 80.4974 37.424 80.6304 37.0314C80.6628 36.9356 80.5665 36.8783 80.3733 36.8783C79.9673 36.8783 79.8566 36.68 80.1689 36.5128C80.4774 36.3476 80.5023 35.8987 80.203 35.8984C80.0034 35.8982 79.221 35.8526 73.9321 35.5322C68.6953 35.2149 21.4462 35.2852 18.019 34.9541C14.548 34.6189 10.2549 34.2747 5.72188 33.9683C4.61147 33.8932 3.32768 33.754 2.86907 33.6588C2.41035 33.5637 2.02492 33.4891 2.01256 33.4931C2.00008 33.497 1.90733 33.5482 1.80638 33.6068Z" fill="#C2E0FF"/>
<path d="M26.1372 36.4406C24.4572 36.4406 23.1252 36.1526 22.1412 35.5766C21.1812 35.0246 20.4852 34.3406 20.0532 33.5246C19.6452 32.7086 19.4412 31.9046 19.4412 31.1126C19.4412 30.4886 19.5492 29.8646 19.7652 29.2406C20.0052 28.6166 20.3532 28.1006 20.8092 27.6926C21.2892 27.2846 21.8892 27.0806 22.6092 27.0806C22.7292 27.0806 22.8732 27.0926 23.0412 27.1166C23.2332 27.1166 23.5212 27.1526 23.9052 27.2246C23.4492 27.5846 23.0772 28.1006 22.7892 28.7726C22.5252 29.4206 22.3932 30.1046 22.3932 30.8246C22.3932 31.4726 22.5132 32.0966 22.7532 32.6966C23.0172 33.2966 23.4252 33.7886 23.9772 34.1726C24.5292 34.5806 25.2372 34.7846 26.1012 34.7846C27.0372 34.7846 27.8652 34.5566 28.5852 34.1006C29.3292 33.6446 29.9532 33.0446 30.4572 32.3006C30.9852 31.5566 31.3812 30.7406 31.6452 29.8526C31.9092 28.9406 32.0412 28.0406 32.0412 27.1526C32.0412 26.1926 31.8732 25.3046 31.5372 24.4886C31.2012 23.6486 30.6732 22.9766 29.9532 22.4726C29.2572 21.9446 28.3212 21.6806 27.1452 21.6806C26.6892 21.6806 26.1372 21.7286 25.4892 21.8246C24.8412 21.8966 24.1332 22.0046 23.3652 22.1486C23.4852 21.3566 23.6652 20.4326 23.9052 19.3766C24.1452 18.2966 24.4212 17.1806 24.7332 16.0286C25.0452 14.8766 25.3572 13.7606 25.6692 12.6806C26.0052 11.5766 26.2932 10.5806 26.5332 9.69259C26.7972 8.80459 27.0012 8.09659 27.1452 7.56859C27.9612 7.76059 28.7052 7.89259 29.3772 7.96459C30.0732 8.03659 30.7092 8.07259 31.2852 8.07259C32.3172 8.07259 33.3132 8.00059 34.2732 7.85659C35.2332 7.71259 36.2292 7.54459 37.2612 7.35259C37.3332 7.64059 37.3932 7.89259 37.4412 8.10859C37.4892 8.30059 37.5132 8.50459 37.5132 8.72059C37.5132 9.41659 37.2612 9.96859 36.7572 10.3766C36.2772 10.7846 35.6652 11.0726 34.9212 11.2406C34.1772 11.4086 33.4332 11.4926 32.6892 11.4926C31.8012 11.4926 31.0092 11.4206 30.3132 11.2766C29.6412 11.1326 29.0652 11.0606 28.5852 11.0606C28.4892 11.0606 28.3932 11.0966 28.2972 11.1686C28.2252 11.2406 28.1532 11.3366 28.0812 11.4566C27.8652 11.7686 27.6492 12.2366 27.4332 12.8606C27.2172 13.4846 27.0012 14.1686 26.7852 14.9126C26.5932 15.6566 26.4012 16.4006 26.2092 17.1446C26.0412 17.8886 25.8852 18.5606 25.7412 19.1606C25.5972 19.7366 25.4772 20.1686 25.3812 20.4566C25.8612 20.3606 26.3412 20.2886 26.8212 20.2406C27.3252 20.1926 27.8292 20.1686 28.3332 20.1686C30.0612 20.1686 31.5012 20.4806 32.6532 21.1046C33.8052 21.7046 34.6692 22.5326 35.2452 23.5886C35.8212 24.6446 36.1092 25.8566 36.1092 27.2246C36.1092 28.9046 35.6892 30.4526 34.8492 31.8686C34.0332 33.2606 32.8692 34.3646 31.3572 35.1806C29.8692 36.0206 28.1292 36.4406 26.1372 36.4406ZM47.4022 36.4406C45.6982 36.4406 44.2822 35.9966 43.1542 35.1086C42.0502 34.2446 41.2222 33.0806 40.6702 31.6166C40.1182 30.1286 39.8422 28.4726 39.8422 26.6486C39.8422 25.0886 40.0342 23.4326 40.4182 21.6806C40.8262 19.9046 41.4022 18.1766 42.1462 16.4966C42.9142 14.8166 43.8382 13.2926 44.9182 11.9246C46.0222 10.5326 47.2702 9.42859 48.6622 8.61259C50.0542 7.79659 51.5902 7.38859 53.2702 7.38859C54.8302 7.38859 56.1982 7.77259 57.3742 8.54059C58.5502 9.30859 59.4622 10.4366 60.1102 11.9246C60.7582 13.4126 61.0822 15.2366 61.0822 17.3966C61.0822 19.1486 60.8542 20.9246 60.3982 22.7246C59.9662 24.5246 59.3422 26.2406 58.5262 27.8726C57.7102 29.5046 56.7382 30.9686 55.6102 32.2646C54.4822 33.5606 53.2222 34.5806 51.8302 35.3246C50.4622 36.0686 48.9862 36.4406 47.4022 36.4406ZM47.9062 34.7126C48.9862 34.7126 50.0182 34.3166 51.0022 33.5246C52.0102 32.7326 52.9222 31.6766 53.7382 30.3566C54.5542 29.0126 55.2622 27.5246 55.8622 25.8926C56.4862 24.2366 56.9662 22.5566 57.3022 20.8526C57.6382 19.1486 57.8062 17.5286 57.8062 15.9926C57.8062 14.6246 57.6502 13.4126 57.3382 12.3566C57.0502 11.2766 56.5702 10.4246 55.8982 9.80059C55.2502 9.17659 54.3742 8.86459 53.2702 8.86459C52.1902 8.86459 51.1942 9.16459 50.2822 9.76459C49.3942 10.3646 48.5782 11.1806 47.8342 12.2126C47.1142 13.2206 46.4782 14.3726 45.9262 15.6686C45.3742 16.9406 44.9182 18.2726 44.5582 19.6646C44.1982 21.0326 43.9222 22.3766 43.7302 23.6966C43.5382 24.9926 43.4422 26.1806 43.4422 27.2606C43.4422 29.5166 43.8382 31.3286 44.6302 32.6966C45.4222 34.0406 46.5142 34.7126 47.9062 34.7126ZM71.1678 36.4406C69.4638 36.4406 68.0478 35.9966 66.9198 35.1086C65.8158 34.2446 64.9878 33.0806 64.4358 31.6166C63.8838 30.1286 63.6078 28.4726 63.6078 26.6486C63.6078 25.0886 63.7998 23.4326 64.1838 21.6806C64.5918 19.9046 65.1678 18.1766 65.9118 16.4966C66.6798 14.8166 67.6038 13.2926 68.6838 11.9246C69.7878 10.5326 71.0358 9.42859 72.4278 8.61259C73.8198 7.79659 75.3558 7.38859 77.0358 7.38859C78.5958 7.38859 79.9638 7.77259 81.1398 8.54059C82.3158 9.30859 83.2278 10.4366 83.8758 11.9246C84.5238 13.4126 84.8478 15.2366 84.8478 17.3966C84.8478 19.1486 84.6198 20.9246 84.1638 22.7246C83.7318 24.5246 83.1078 26.2406 82.2918 27.8726C81.4758 29.5046 80.5038 30.9686 79.3758 32.2646C78.2478 33.5606 76.9878 34.5806 75.5958 35.3246C74.2278 36.0686 72.7518 36.4406 71.1678 36.4406ZM71.6718 34.7126C72.7518 34.7126 73.7838 34.3166 74.7678 33.5246C75.7758 32.7326 76.6878 31.6766 77.5038 30.3566C78.3198 29.0126 79.0278 27.5246 79.6278 25.8926C80.2518 24.2366 80.7318 22.5566 81.0678 20.8526C81.4038 19.1486 81.5718 17.5286 81.5718 15.9926C81.5718 14.6246 81.4158 13.4126 81.1038 12.3566C80.8158 11.2766 80.3358 10.4246 79.6638 9.80059C79.0158 9.17659 78.1398 8.86459 77.0358 8.86459C75.9558 8.86459 74.9598 9.16459 74.0478 9.76459C73.1598 10.3646 72.3438 11.1806 71.5998 12.2126C70.8798 13.2206 70.2438 14.3726 69.6918 15.6686C69.1398 16.9406 68.6838 18.2726 68.3238 19.6646C67.9638 21.0326 67.6878 22.3766 67.4958 23.6966C67.3038 24.9926 67.2078 26.1806 67.2078 27.2606C67.2078 29.5166 67.6038 31.3286 68.3958 32.6966C69.1878 34.0406 70.2798 34.7126 71.6718 34.7126Z" fill="#007BFF"/>
</svg>
