<svg width="597" height="253" viewBox="0 0 597 253" fill="none" xmlns="http://www.w3.org/2000/svg">
<path d="M330.668 65.7691C334.647 46.9555 348.306 38.6338 354.639 36.8247C329.578 26.4841 317.336 38.8857 314.335 47.5028C203.711 -64.3475 82.7264 49.7506 91.4499 117.884L77.5176 129.696L86.5336 140.579C121.726 288.769 276.892 270.555 317.447 198.79V244.829C322.361 254.634 333.809 250.503 335.059 244.829V163.456H517.052L534.664 132.667C585.503 127.395 588.395 111.779 583.793 100.842C557.642 69.0934 507.338 117.592 503.723 147.272H142.111L127.982 163.456H317.099C231.097 303.861 115.048 195.097 125.927 147.272H105.129V137.696H190.337C194.898 133.135 192.237 127.758 190.337 125.639H182.548V78.9936H189.661C192.757 74.9455 191.828 71.1497 189.661 68.9108H152.888C149.441 72.3582 151.452 76.0896 152.888 77.5244H162.056V125.639H105.129V117.884H125.927C122.261 112.808 121.599 104.241 121.726 100.592C155.639 -4.7365 250.247 6.07211 303.081 65.7691H330.668Z" fill="#FFAE00"/>
<circle cx="172.688" cy="57.4712" r="10.8091" fill="#FFAE00"/>
<path d="M370.633 174.858V183.728H369.946C369.118 181.303 367.874 179.46 366.217 178.198C364.559 176.937 362.747 176.306 360.78 176.306C358.9 176.306 357.335 176.838 356.086 177.901C354.837 178.953 353.952 180.425 353.433 182.317C352.913 184.21 352.653 186.152 352.653 188.144C352.653 190.556 352.938 192.671 353.507 194.489C354.076 196.308 354.991 197.644 356.253 198.497C357.527 199.351 359.036 199.777 360.78 199.777C361.386 199.777 362.005 199.715 362.636 199.592C363.279 199.456 363.935 199.264 364.603 199.017V193.784C364.603 192.795 364.535 192.158 364.398 191.873C364.262 191.576 363.978 191.31 363.545 191.075C363.124 190.84 362.611 190.723 362.005 190.723H361.355V190.036H373.583V190.723C372.655 190.785 372.006 190.914 371.635 191.112C371.276 191.298 370.998 191.613 370.8 192.059C370.688 192.294 370.633 192.869 370.633 193.784V199.017C369.025 199.734 367.349 200.272 365.604 200.631C363.873 201.002 362.073 201.188 360.205 201.188C357.818 201.188 355.832 200.866 354.249 200.223C352.678 199.567 351.286 198.714 350.074 197.662C348.874 196.598 347.934 195.405 347.254 194.081C346.388 192.374 345.955 190.463 345.955 188.348C345.955 184.562 347.285 181.365 349.944 178.755C352.604 176.145 355.95 174.84 359.982 174.84C361.232 174.84 362.357 174.939 363.359 175.137C363.904 175.236 364.782 175.52 365.994 175.99C367.219 176.448 367.942 176.677 368.165 176.677C368.511 176.677 368.833 176.553 369.13 176.306C369.427 176.046 369.699 175.563 369.946 174.858H370.633ZM389.8 193.432H380.912L379.854 195.881C379.508 196.697 379.335 197.371 379.335 197.903C379.335 198.608 379.619 199.128 380.188 199.462C380.522 199.66 381.345 199.808 382.656 199.907V200.594H374.288V199.907C375.191 199.771 375.933 199.4 376.515 198.794C377.096 198.175 377.813 196.908 378.667 194.99L387.666 174.914H388.019L397.092 195.547C397.958 197.501 398.669 198.732 399.226 199.239C399.646 199.623 400.24 199.845 401.007 199.907V200.594H388.835V199.907H389.336C390.313 199.907 391 199.771 391.396 199.499C391.668 199.301 391.804 199.017 391.804 198.646C391.804 198.423 391.767 198.194 391.692 197.959C391.668 197.848 391.482 197.384 391.136 196.567L389.8 193.432ZM389.169 192.059L385.421 183.394L381.562 192.059H389.169ZM411.546 189.127V196.178C411.546 197.538 411.626 198.398 411.787 198.757C411.96 199.103 412.257 199.382 412.678 199.592C413.098 199.802 413.884 199.907 415.034 199.907V200.594H402.157V199.907C403.32 199.907 404.105 199.802 404.514 199.592C404.934 199.369 405.225 199.085 405.386 198.738C405.559 198.392 405.646 197.538 405.646 196.178V179.85C405.646 178.489 405.559 177.635 405.386 177.289C405.225 176.93 404.934 176.646 404.514 176.436C404.093 176.225 403.308 176.12 402.157 176.12V175.434H413.847C416.89 175.434 419.116 175.644 420.526 176.064C421.937 176.485 423.087 177.264 423.978 178.402C424.868 179.528 425.313 180.852 425.313 182.373C425.313 184.229 424.646 185.762 423.31 186.975C422.456 187.742 421.262 188.317 419.729 188.7L425.777 197.217C426.569 198.318 427.132 199.004 427.466 199.276C427.973 199.66 428.561 199.87 429.229 199.907V200.594H421.306L413.197 189.127H411.546ZM411.546 176.788V187.81H412.604C414.323 187.81 415.609 187.655 416.463 187.346C417.316 187.024 417.984 186.455 418.467 185.639C418.962 184.81 419.209 183.734 419.209 182.41C419.209 180.493 418.757 179.076 417.854 178.161C416.964 177.246 415.523 176.788 413.531 176.788H411.546ZM447.022 192.021L453.851 175.434H464.093V176.12H463.276C462.534 176.12 461.94 176.25 461.495 176.51C461.186 176.683 460.938 176.974 460.753 177.382C460.617 177.679 460.549 178.452 460.549 179.701V196.289C460.549 197.576 460.617 198.38 460.753 198.701C460.889 199.023 461.167 199.307 461.588 199.555C462.008 199.79 462.571 199.907 463.276 199.907H464.093V200.594H450.956V199.907H451.772C452.515 199.907 453.108 199.777 453.554 199.518C453.863 199.344 454.11 199.048 454.296 198.627C454.432 198.33 454.5 197.551 454.5 196.289V177.642L444.852 200.594H444.406L434.609 177.809V195.528C434.609 196.765 434.64 197.526 434.702 197.811C434.863 198.429 435.209 198.936 435.741 199.332C436.285 199.715 437.133 199.907 438.283 199.907V200.594H429.674V199.907H429.934C430.49 199.92 431.01 199.833 431.492 199.647C431.975 199.45 432.34 199.19 432.587 198.868C432.834 198.547 433.026 198.095 433.162 197.514C433.187 197.378 433.199 196.747 433.199 195.621V179.701C433.199 178.427 433.131 177.635 432.995 177.326C432.859 177.005 432.581 176.726 432.16 176.491C431.74 176.244 431.177 176.12 430.472 176.12H429.674V175.434H439.953L447.022 192.021ZM475.151 176.881V187.123H475.652C477.248 187.123 478.405 186.622 479.122 185.62C479.84 184.618 480.297 183.14 480.495 181.186H481.2V194.359H480.495C480.347 192.924 480.031 191.749 479.549 190.834C479.079 189.919 478.528 189.306 477.897 188.997C477.267 188.675 476.351 188.515 475.151 188.515V195.603C475.151 196.988 475.207 197.835 475.318 198.145C475.442 198.454 475.665 198.707 475.986 198.905C476.308 199.103 476.827 199.202 477.545 199.202H479.048C481.398 199.202 483.278 198.658 484.688 197.569C486.111 196.481 487.132 194.823 487.75 192.597H488.437L487.305 200.594H465.559V199.907H466.394C467.123 199.907 467.711 199.777 468.156 199.518C468.478 199.344 468.725 199.048 468.898 198.627C469.035 198.33 469.103 197.551 469.103 196.289V179.738C469.103 178.6 469.072 177.901 469.01 177.642C468.886 177.209 468.657 176.875 468.323 176.64C467.853 176.293 467.21 176.12 466.394 176.12H465.559V175.434H486.618V182.874H485.913C485.554 181.056 485.047 179.751 484.392 178.959C483.748 178.167 482.833 177.586 481.646 177.215C480.953 176.992 479.654 176.881 477.749 176.881H475.151ZM499.606 175.434L512.02 191.038V180.221C512.02 178.712 511.803 177.691 511.37 177.159C510.776 176.442 509.781 176.095 508.383 176.12V175.434H516.695V176.12C515.632 176.256 514.914 176.436 514.543 176.658C514.184 176.868 513.9 177.221 513.689 177.716C513.492 178.198 513.393 179.033 513.393 180.221V201.169H512.762L495.747 180.221V196.215C495.747 197.662 496.075 198.639 496.73 199.146C497.398 199.654 498.159 199.907 499.013 199.907H499.606V200.594H490.682V199.907C492.067 199.895 493.032 199.61 493.576 199.054C494.12 198.497 494.393 197.551 494.393 196.215V178.458L493.854 177.79C493.323 177.122 492.853 176.683 492.444 176.473C492.036 176.262 491.449 176.145 490.682 176.12V175.434H499.606Z" fill="#FFAE00"/>
<path d="M542.91 182.094V147.734H558.145C561.207 147.734 563.535 148.047 565.129 148.672C566.723 149.281 567.996 150.367 568.949 151.93C569.902 153.492 570.379 155.219 570.379 157.109C570.379 159.547 569.59 161.602 568.012 163.273C566.434 164.945 563.996 166.008 560.699 166.461C561.902 167.039 562.816 167.609 563.441 168.172C564.77 169.391 566.027 170.914 567.215 172.742L573.191 182.094H567.473L562.926 174.945C561.598 172.883 560.504 171.305 559.645 170.211C558.785 169.117 558.012 168.352 557.324 167.914C556.652 167.477 555.965 167.172 555.262 167C554.746 166.891 553.902 166.836 552.73 166.836H547.457V182.094H542.91ZM547.457 162.898H557.23C559.309 162.898 560.934 162.688 562.105 162.266C563.277 161.828 564.168 161.141 564.777 160.203C565.387 159.25 565.691 158.219 565.691 157.109C565.691 155.484 565.098 154.148 563.91 153.102C562.738 152.055 560.879 151.531 558.332 151.531H547.457V162.898Z" fill="#FFAE00"/>
<path d="M12.4492 133.131V140.842C12.4492 142.346 12.5381 143.296 12.7158 143.692C12.9072 144.075 13.2354 144.383 13.7002 144.615C14.1787 144.848 15.0469 144.964 16.3047 144.964V145.723H2.1748V144.964C3.45996 144.964 4.32812 144.848 4.7793 144.615C5.24414 144.369 5.56543 144.055 5.74316 143.672C5.93457 143.289 6.03027 142.346 6.03027 140.842V122.795C6.03027 121.291 5.93457 120.348 5.74316 119.965C5.56543 119.568 5.24414 119.254 4.7793 119.021C4.31445 118.789 3.44629 118.673 2.1748 118.673V117.914H14.2949C18.2871 117.914 21.1514 118.625 22.8877 120.047C24.624 121.469 25.4922 123.246 25.4922 125.379C25.4922 127.184 24.9316 128.729 23.8105 130.014C22.6895 131.299 21.1445 132.174 19.1758 132.639C17.8496 132.967 15.6074 133.131 12.4492 133.131ZM12.4492 119.514V131.531C12.9004 131.559 13.2422 131.572 13.4746 131.572C15.1426 131.572 16.4277 131.08 17.3301 130.096C18.2324 129.098 18.6836 127.56 18.6836 125.481C18.6836 123.417 18.2324 121.906 17.3301 120.949C16.4277 119.992 15.0811 119.514 13.29 119.514H12.4492ZM28.1787 139.406C29.1357 139.406 29.9424 139.741 30.5986 140.411C31.2686 141.081 31.6035 141.888 31.6035 142.831C31.6035 143.774 31.2686 144.581 30.5986 145.251C29.9287 145.907 29.1221 146.235 28.1787 146.235C27.2354 146.235 26.4287 145.907 25.7588 145.251C25.1025 144.581 24.7744 143.774 24.7744 142.831C24.7744 141.888 25.1025 141.081 25.7588 140.411C26.4287 139.741 27.2354 139.406 28.1787 139.406ZM59.9248 117.914V125.44H59.1865C58.749 123.704 58.2637 122.46 57.7305 121.708C57.1973 120.942 56.4658 120.334 55.5361 119.883C55.0166 119.637 54.1074 119.514 52.8086 119.514H50.7373V140.965C50.7373 142.387 50.8125 143.275 50.9629 143.631C51.127 143.986 51.4346 144.301 51.8857 144.574C52.3506 144.834 52.9795 144.964 53.7725 144.964H54.6953V145.723H40.1348V144.964H41.0576C41.8643 144.964 42.5137 144.82 43.0059 144.533C43.3613 144.342 43.6416 144.014 43.8467 143.549C43.9971 143.221 44.0723 142.359 44.0723 140.965V119.514H42.0625C40.1895 119.514 38.8291 119.91 37.9814 120.703C36.792 121.811 36.04 123.39 35.7256 125.44H34.9463V117.914H59.9248ZM63.5752 139.406C64.5322 139.406 65.3389 139.741 65.9951 140.411C66.665 141.081 67 141.888 67 142.831C67 143.774 66.665 144.581 65.9951 145.251C65.3252 145.907 64.5186 146.235 63.5752 146.235C62.6318 146.235 61.8252 145.907 61.1553 145.251C60.499 144.581 60.1709 143.774 60.1709 142.831C60.1709 141.888 60.499 141.081 61.1553 140.411C61.8252 139.741 62.6318 139.406 63.5752 139.406Z" fill="#FFAE00"/>
<path d="M249.581 69.4829L250.145 92.6567H248.043C247.052 86.8462 244.608 82.1807 240.711 78.6602C236.849 75.1055 232.662 73.3281 228.15 73.3281C224.664 73.3281 221.896 74.2681 219.845 76.1479C217.828 77.9937 216.82 80.1299 216.82 82.5566C216.82 84.0947 217.179 85.4619 217.896 86.6582C218.888 88.2646 220.477 89.854 222.665 91.4263C224.271 92.5542 227.979 94.5537 233.79 97.4248C241.925 101.424 247.411 105.201 250.248 108.755C253.05 112.31 254.452 116.377 254.452 120.958C254.452 126.768 252.179 131.775 247.633 135.979C243.121 140.149 237.379 142.234 230.406 142.234C228.219 142.234 226.151 142.012 224.203 141.568C222.254 141.124 219.811 140.286 216.871 139.056C215.23 138.372 213.88 138.03 212.821 138.03C211.932 138.03 210.992 138.372 210.001 139.056C209.01 139.739 208.207 140.782 207.591 142.183H205.694V115.933H207.591C209.095 123.316 211.983 128.956 216.256 132.852C220.562 136.714 225.194 138.646 230.15 138.646C233.978 138.646 237.02 137.603 239.276 135.518C241.566 133.433 242.711 131.006 242.711 128.238C242.711 126.597 242.267 125.008 241.378 123.47C240.523 121.932 239.208 120.479 237.43 119.112C235.653 117.71 232.508 115.899 227.997 113.677C221.673 110.567 217.127 107.918 214.359 105.73C211.59 103.543 209.454 101.099 207.95 98.3989C206.48 95.6987 205.746 92.7251 205.746 89.478C205.746 83.9409 207.779 79.2241 211.847 75.3276C215.914 71.4312 221.041 69.4829 227.228 69.4829C229.483 69.4829 231.671 69.7563 233.79 70.3032C235.396 70.7134 237.345 71.4824 239.635 72.6104C241.959 73.7041 243.583 74.251 244.505 74.251C245.394 74.251 246.095 73.9775 246.607 73.4307C247.12 72.8838 247.599 71.5679 248.043 69.4829H249.581ZM324.947 71.0723V89.8882H323.102C322.008 85.5474 320.794 82.437 319.461 80.5571C318.128 78.6431 316.3 77.1221 313.976 75.9941C312.677 75.3789 310.404 75.0713 307.157 75.0713H301.979V128.699C301.979 132.254 302.167 134.476 302.542 135.364C302.953 136.253 303.722 137.039 304.85 137.723C306.012 138.372 307.584 138.697 309.566 138.697H311.874V140.594H275.472V138.697H277.779C279.796 138.697 281.419 138.338 282.65 137.62C283.539 137.142 284.239 136.321 284.752 135.159C285.128 134.339 285.316 132.186 285.316 128.699V75.0713H280.292C275.609 75.0713 272.208 76.0625 270.089 78.0449C267.115 80.8135 265.235 84.7612 264.449 89.8882H262.501V71.0723H324.947ZM357.35 75.0713V103.372H358.734C363.143 103.372 366.339 101.988 368.321 99.2192C370.304 96.4507 371.568 92.3662 372.115 86.9658H374.063V123.367H372.115C371.705 119.402 370.833 116.155 369.5 113.626C368.202 111.097 366.681 109.405 364.938 108.55C363.194 107.662 360.665 107.217 357.35 107.217V126.802C357.35 130.63 357.503 132.972 357.811 133.826C358.153 134.681 358.768 135.381 359.657 135.928C360.545 136.475 361.981 136.749 363.963 136.749H368.116C374.61 136.749 379.806 135.245 383.702 132.237C387.633 129.229 390.453 124.649 392.162 118.497H394.059L390.931 140.594H330.843V138.697H333.15C335.167 138.697 336.791 138.338 338.021 137.62C338.91 137.142 339.593 136.321 340.072 135.159C340.448 134.339 340.636 132.186 340.636 128.699V82.9668C340.636 79.8223 340.55 77.8911 340.379 77.1733C340.038 75.9771 339.405 75.0542 338.482 74.4048C337.184 73.4478 335.406 72.9692 333.15 72.9692H330.843V71.0723H389.034V91.6313H387.086C386.095 86.6069 384.693 83.001 382.882 80.8135C381.104 78.626 378.575 77.0195 375.294 75.9941C373.38 75.3789 369.791 75.0713 364.527 75.0713H357.35ZM443.124 99.8345L462.298 128.289C465.477 133.006 467.733 135.877 469.066 136.902C470.433 137.894 472.04 138.492 473.885 138.697V140.594H439.996V138.697C442.696 138.492 444.439 138.082 445.226 137.466C446.012 136.851 446.405 136.099 446.405 135.21C446.405 134.595 446.285 134.048 446.046 133.57C445.567 132.544 444.371 130.63 442.457 127.828L432.306 112.806L421.693 125.777C418.514 129.708 416.925 132.374 416.925 133.775C416.925 134.766 417.335 135.689 418.155 136.543C418.976 137.398 420.189 138.013 421.795 138.389C422.513 138.594 423.983 138.697 426.205 138.697V140.594H399.493V138.697C402.535 138.252 404.928 137.432 406.671 136.236C408.961 134.664 412.157 131.382 416.258 126.392L430.05 109.576L412.362 83.582C409.457 79.3096 407.799 76.9341 407.389 76.4556C406.466 75.3276 405.56 74.5244 404.671 74.0459C403.783 73.5674 402.552 73.2085 400.98 72.9692V71.0723H435.484V72.9692H433.741C431.759 72.9692 430.375 73.2939 429.588 73.9434C428.802 74.5586 428.409 75.3447 428.409 76.3018C428.409 77.0537 428.529 77.7031 428.768 78.25L432.306 83.582L440.919 96.707L448.25 87.7349C452.01 83.1206 453.89 79.8906 453.89 78.0449C453.89 77.1221 453.617 76.2676 453.07 75.4814C452.557 74.6953 451.805 74.0801 450.814 73.6357C449.823 73.1914 448.285 72.9692 446.2 72.9692V71.0723H471.783V72.9692C469.767 73.0034 468.143 73.2598 466.913 73.7383C465.682 74.1826 464.366 75.0371 462.965 76.3018C462.076 77.1221 459.854 79.6685 456.3 83.9409L443.124 99.8345Z" fill="#FFAE00"/>
<path d="M394.838 240.512V241.198H381.683V240.512H382.518C383.247 240.512 383.835 240.382 384.28 240.122C384.602 239.949 384.849 239.652 385.022 239.231C385.159 238.935 385.227 238.155 385.227 236.894V220.343C385.227 219.056 385.159 218.252 385.022 217.931C384.886 217.609 384.608 217.331 384.188 217.096C383.779 216.848 383.223 216.725 382.518 216.725H381.683V216.038H394.838V216.725H394.003C393.273 216.725 392.686 216.854 392.24 217.114C391.919 217.287 391.665 217.584 391.479 218.005C391.343 218.302 391.275 219.081 391.275 220.343V236.894C391.275 238.18 391.343 238.984 391.479 239.306C391.628 239.627 391.906 239.912 392.314 240.159C392.735 240.394 393.298 240.512 394.003 240.512H394.838ZM405.191 216.038L417.604 231.643V220.825C417.604 219.316 417.388 218.296 416.955 217.764C416.361 217.046 415.366 216.7 413.968 216.725V216.038H422.28V216.725C421.216 216.861 420.499 217.04 420.128 217.263C419.769 217.473 419.485 217.826 419.274 218.32C419.076 218.803 418.978 219.638 418.978 220.825V241.773H418.347L401.332 220.825V236.819C401.332 238.267 401.66 239.244 402.315 239.751C402.983 240.258 403.744 240.512 404.598 240.512H405.191V241.198H396.267V240.512C397.652 240.499 398.617 240.215 399.161 239.658C399.705 239.102 399.978 238.155 399.978 236.819V219.062L399.439 218.395C398.908 217.727 398.438 217.287 398.029 217.077C397.621 216.867 397.034 216.749 396.267 216.725V216.038H405.191ZM423.69 241.198V240.512H424.525C425.255 240.512 425.812 240.4 426.195 240.178C426.591 239.943 426.882 239.627 427.067 239.231C427.179 238.972 427.234 238.192 427.234 236.894V220.343C427.234 219.056 427.166 218.252 427.03 217.931C426.894 217.609 426.616 217.331 426.195 217.096C425.787 216.848 425.23 216.725 424.525 216.725H423.69V216.038H434.953C437.959 216.038 440.377 216.446 442.208 217.263C444.447 218.265 446.142 219.78 447.292 221.809C448.455 223.837 449.036 226.132 449.036 228.692C449.036 230.461 448.752 232.094 448.183 233.591C447.614 235.075 446.878 236.306 445.975 237.283C445.072 238.248 444.026 239.027 442.839 239.621C441.664 240.202 440.223 240.654 438.516 240.976C437.761 241.124 436.574 241.198 434.953 241.198H423.69ZM433.283 217.467V237.098C433.283 238.137 433.333 238.774 433.432 239.009C433.531 239.244 433.698 239.423 433.933 239.547C434.267 239.732 434.749 239.825 435.38 239.825C437.446 239.825 439.023 239.12 440.111 237.71C441.596 235.805 442.338 232.849 442.338 228.841C442.338 225.612 441.831 223.033 440.816 221.104C440.012 219.594 438.979 218.568 437.718 218.023C436.827 217.64 435.349 217.454 433.283 217.467ZM465.327 215.686C469.335 215.537 472.588 216.706 475.087 219.192C477.598 221.679 478.854 224.79 478.854 228.525C478.854 231.717 477.92 234.525 476.052 236.949C473.578 240.165 470.083 241.773 465.568 241.773C461.041 241.773 457.54 240.24 455.066 237.172C453.112 234.747 452.135 231.871 452.135 228.544C452.135 224.808 453.403 221.697 455.938 219.211C458.487 216.712 461.616 215.537 465.327 215.686ZM465.55 216.873C463.249 216.873 461.499 218.048 460.299 220.398C459.322 222.328 458.833 225.099 458.833 228.711C458.833 233.003 459.588 236.176 461.097 238.229C462.148 239.664 463.62 240.382 465.513 240.382C466.787 240.382 467.851 240.073 468.704 239.454C469.793 238.662 470.64 237.401 471.246 235.669C471.852 233.925 472.155 231.655 472.155 228.859C472.155 225.532 471.846 223.046 471.228 221.4C470.609 219.743 469.817 218.574 468.853 217.894C467.9 217.213 466.799 216.873 465.55 216.873ZM489.689 216.038L502.103 231.643V220.825C502.103 219.316 501.886 218.296 501.453 217.764C500.859 217.046 499.864 216.7 498.466 216.725V216.038H506.778V216.725C505.715 216.861 504.997 217.04 504.626 217.263C504.267 217.473 503.983 217.826 503.772 218.32C503.575 218.803 503.476 219.638 503.476 220.825V241.773H502.845L485.83 220.825V236.819C485.83 238.267 486.158 239.244 486.813 239.751C487.481 240.258 488.242 240.512 489.096 240.512H489.689V241.198H480.765V240.512C482.15 240.499 483.115 240.215 483.659 239.658C484.203 239.102 484.476 238.155 484.476 236.819V219.062L483.938 218.395C483.406 217.727 482.936 217.287 482.527 217.077C482.119 216.867 481.532 216.749 480.765 216.725V216.038H489.689ZM518.041 217.485V227.728H518.542C520.138 227.728 521.294 227.227 522.012 226.225C522.729 225.223 523.187 223.744 523.385 221.79H524.09V234.964H523.385C523.236 233.529 522.921 232.354 522.438 231.438C521.968 230.523 521.418 229.911 520.787 229.602C520.156 229.28 519.241 229.119 518.041 229.119V236.207C518.041 237.592 518.097 238.44 518.208 238.749C518.332 239.058 518.554 239.312 518.876 239.51C519.198 239.708 519.717 239.807 520.435 239.807H521.938C524.288 239.807 526.168 239.262 527.578 238.174C529.001 237.085 530.021 235.428 530.64 233.201H531.326L530.194 241.198H508.448V240.512H509.283C510.013 240.512 510.601 240.382 511.046 240.122C511.368 239.949 511.615 239.652 511.788 239.231C511.924 238.935 511.992 238.155 511.992 236.894V220.343C511.992 219.205 511.961 218.506 511.899 218.246C511.776 217.813 511.547 217.479 511.213 217.244C510.743 216.898 510.1 216.725 509.283 216.725H508.448V216.038H529.508V223.479H528.803C528.444 221.66 527.937 220.355 527.281 219.563C526.638 218.772 525.723 218.19 524.535 217.819C523.842 217.597 522.544 217.485 520.639 217.485H518.041ZM550.883 215.463L551.087 223.85H550.326C549.967 221.747 549.083 220.058 547.673 218.784C546.275 217.498 544.76 216.854 543.127 216.854C541.865 216.854 540.863 217.195 540.121 217.875C539.391 218.543 539.026 219.316 539.026 220.194C539.026 220.751 539.156 221.246 539.416 221.679C539.775 222.26 540.35 222.835 541.142 223.404C541.723 223.812 543.065 224.536 545.168 225.575C548.112 227.022 550.097 228.389 551.124 229.676C552.138 230.962 552.646 232.434 552.646 234.092C552.646 236.195 551.823 238.007 550.178 239.528C548.545 241.037 546.467 241.792 543.943 241.792C543.152 241.792 542.403 241.712 541.698 241.551C540.993 241.39 540.109 241.087 539.045 240.642C538.451 240.394 537.963 240.271 537.579 240.271C537.257 240.271 536.917 240.394 536.559 240.642C536.2 240.889 535.909 241.266 535.687 241.773H535V232.273H535.687C536.231 234.945 537.276 236.986 538.822 238.396C540.381 239.794 542.057 240.493 543.851 240.493C545.236 240.493 546.337 240.116 547.153 239.361C547.982 238.607 548.396 237.729 548.396 236.727C548.396 236.133 548.236 235.558 547.914 235.001C547.605 234.444 547.129 233.919 546.485 233.424C545.842 232.917 544.704 232.261 543.071 231.457C540.783 230.331 539.138 229.373 538.136 228.581C537.134 227.789 536.361 226.905 535.816 225.928C535.285 224.951 535.019 223.874 535.019 222.699C535.019 220.695 535.755 218.988 537.227 217.578C538.699 216.168 540.554 215.463 542.793 215.463C543.609 215.463 544.401 215.562 545.168 215.76C545.749 215.908 546.454 216.187 547.283 216.595C548.124 216.991 548.712 217.188 549.046 217.188C549.368 217.188 549.621 217.09 549.807 216.892C549.992 216.694 550.165 216.217 550.326 215.463H550.883ZM568.102 240.512V241.198H554.946V240.512H555.781C556.511 240.512 557.099 240.382 557.544 240.122C557.866 239.949 558.113 239.652 558.286 239.231C558.422 238.935 558.49 238.155 558.49 236.894V220.343C558.49 219.056 558.422 218.252 558.286 217.931C558.15 217.609 557.872 217.331 557.451 217.096C557.043 216.848 556.486 216.725 555.781 216.725H554.946V216.038H568.102V216.725H567.267C566.537 216.725 565.949 216.854 565.504 217.114C565.182 217.287 564.929 217.584 564.743 218.005C564.607 218.302 564.539 219.081 564.539 220.343V236.894C564.539 238.18 564.607 238.984 564.743 239.306C564.892 239.627 565.17 239.912 565.578 240.159C565.999 240.394 566.562 240.512 567.267 240.512H568.102ZM584.801 234.036H575.913L574.855 236.485C574.509 237.302 574.336 237.976 574.336 238.508C574.336 239.213 574.62 239.732 575.189 240.066C575.523 240.264 576.346 240.413 577.657 240.512V241.198H569.289V240.512C570.192 240.376 570.934 240.005 571.516 239.398C572.097 238.78 572.814 237.512 573.668 235.595L582.667 215.519H583.02L592.093 236.151C592.959 238.106 593.67 239.337 594.227 239.844C594.647 240.227 595.241 240.45 596.008 240.512V241.198H583.836V240.512H584.337C585.314 240.512 586.001 240.376 586.396 240.104C586.669 239.906 586.805 239.621 586.805 239.25C586.805 239.027 586.768 238.799 586.693 238.563C586.669 238.452 586.483 237.988 586.137 237.172L584.801 234.036ZM584.17 232.663L580.422 223.998L576.562 232.663H584.17Z" fill="#FFAE00"/>
<mask id="path-8-inside-1_3214_12672" fill="white">
<path fill-rule="evenodd" clip-rule="evenodd" d="M556.478 197.248C573.96 197.248 588.132 183.076 588.132 165.594C588.132 148.111 573.96 133.939 556.478 133.939C538.996 133.939 524.824 148.111 524.824 165.594C524.824 183.076 538.996 197.248 556.478 197.248ZM556.479 190.089C570.008 190.089 580.975 179.122 580.975 165.594C580.975 152.065 570.008 141.099 556.479 141.099C542.951 141.099 531.984 152.065 531.984 165.594C531.984 179.122 542.951 190.089 556.479 190.089Z"/>
</mask>
<path fill-rule="evenodd" clip-rule="evenodd" d="M556.478 197.248C573.96 197.248 588.132 183.076 588.132 165.594C588.132 148.111 573.96 133.939 556.478 133.939C538.996 133.939 524.824 148.111 524.824 165.594C524.824 183.076 538.996 197.248 556.478 197.248ZM556.479 190.089C570.008 190.089 580.975 179.122 580.975 165.594C580.975 152.065 570.008 141.099 556.479 141.099C542.951 141.099 531.984 152.065 531.984 165.594C531.984 179.122 542.951 190.089 556.479 190.089Z" fill="#F8B92C"/>
<path d="M587.132 165.594C587.132 182.523 573.408 196.248 556.478 196.248V198.248C574.513 198.248 589.132 183.628 589.132 165.594H587.132ZM556.478 134.939C573.408 134.939 587.132 148.664 587.132 165.594H589.132C589.132 147.559 574.513 132.939 556.478 132.939V134.939ZM525.824 165.594C525.824 148.664 539.549 134.939 556.478 134.939V132.939C538.444 132.939 523.824 147.559 523.824 165.594H525.824ZM556.478 196.248C539.549 196.248 525.824 182.523 525.824 165.594H523.824C523.824 183.628 538.444 198.248 556.478 198.248V196.248ZM579.975 165.594C579.975 178.57 569.455 189.089 556.479 189.089V191.089C570.56 191.089 581.975 179.674 581.975 165.594H579.975ZM556.479 142.099C569.455 142.099 579.975 152.618 579.975 165.594H581.975C581.975 151.513 570.56 140.099 556.479 140.099V142.099ZM532.984 165.594C532.984 152.618 543.503 142.099 556.479 142.099V140.099C542.399 140.099 530.984 151.513 530.984 165.594H532.984ZM556.479 189.089C543.503 189.089 532.984 178.57 532.984 165.594H530.984C530.984 179.674 542.399 191.089 556.479 191.089V189.089Z" fill="#FFAE00" mask="url(#path-8-inside-1_3214_12672)"/>
</svg>
