<svg width="17" height="16" viewBox="0 0 17 16" fill="none" xmlns="http://www.w3.org/2000/svg">
<path fill-rule="evenodd" clip-rule="evenodd" d="M2.6175 2.2858C1.98632 2.2858 1.47464 2.79748 1.47464 3.42866V13.7144C1.47464 14.3456 1.98632 14.8572 2.6175 14.8572H14.0461C14.6773 14.8572 15.1889 14.3456 15.1889 13.7144V3.42866C15.1889 2.79748 14.6773 2.2858 14.0461 2.2858H2.6175ZM0.331787 3.42866C0.331787 2.16629 1.35514 1.14294 2.6175 1.14294H14.0461C15.3084 1.14294 16.3318 2.16629 16.3318 3.42866V13.7144C16.3318 14.9767 15.3084 16.0001 14.0461 16.0001H2.6175C1.35514 16.0001 0.331787 14.9767 0.331787 13.7144V3.42866Z" fill="white"/>
<path d="M9.76083 8.00005C10.2342 8.00005 10.618 7.6163 10.618 7.14291C10.618 6.66952 10.2342 6.28577 9.76083 6.28577C9.28744 6.28577 8.90369 6.66952 8.90369 7.14291C8.90369 7.6163 9.28744 8.00005 9.76083 8.00005Z" fill="white"/>
<path d="M12.617 8.00005C13.0904 8.00005 13.4742 7.6163 13.4742 7.14291C13.4742 6.66952 13.0904 6.28577 12.617 6.28577C12.1436 6.28577 11.7599 6.66952 11.7599 7.14291C11.7599 7.6163 12.1436 8.00005 12.617 8.00005Z" fill="white"/>
<path d="M9.76083 10.8572C10.2342 10.8572 10.618 10.4735 10.618 10.0001C10.618 9.5267 10.2342 9.14294 9.76083 9.14294C9.28744 9.14294 8.90369 9.5267 8.90369 10.0001C8.90369 10.4735 9.28744 10.8572 9.76083 10.8572Z" fill="white"/>
<path d="M12.617 10.8572C13.0904 10.8572 13.4742 10.4735 13.4742 10.0001C13.4742 9.5267 13.0904 9.14294 12.617 9.14294C12.1436 9.14294 11.7599 9.5267 11.7599 10.0001C11.7599 10.4735 12.1436 10.8572 12.617 10.8572Z" fill="white"/>
<path d="M4.04635 10.8572C4.51974 10.8572 4.90349 10.4735 4.90349 10.0001C4.90349 9.5267 4.51974 9.14294 4.04635 9.14294C3.57296 9.14294 3.18921 9.5267 3.18921 10.0001C3.18921 10.4735 3.57296 10.8572 4.04635 10.8572Z" fill="white"/>
<path d="M6.90341 10.8572C7.37679 10.8572 7.76055 10.4735 7.76055 10.0001C7.76055 9.5267 7.37679 9.14294 6.90341 9.14294C6.43002 9.14294 6.04626 9.5267 6.04626 10.0001C6.04626 10.4735 6.43002 10.8572 6.90341 10.8572Z" fill="white"/>
<path d="M4.04635 13.7143C4.51974 13.7143 4.90349 13.3305 4.90349 12.8571C4.90349 12.3838 4.51974 12 4.04635 12C3.57296 12 3.18921 12.3838 3.18921 12.8571C3.18921 13.3305 3.57296 13.7143 4.04635 13.7143Z" fill="white"/>
<path d="M6.90341 13.7143C7.37679 13.7143 7.76055 13.3305 7.76055 12.8571C7.76055 12.3838 7.37679 12 6.90341 12C6.43002 12 6.04626 12.3838 6.04626 12.8571C6.04626 13.3305 6.43002 13.7143 6.90341 13.7143Z" fill="white"/>
<path d="M9.76083 13.7143C10.2342 13.7143 10.618 13.3305 10.618 12.8571C10.618 12.3838 10.2342 12 9.76083 12C9.28744 12 8.90369 12.3838 8.90369 12.8571C8.90369 13.3305 9.28744 13.7143 9.76083 13.7143Z" fill="white"/>
<path fill-rule="evenodd" clip-rule="evenodd" d="M3.76064 0C4.07623 0 4.33207 0.255837 4.33207 0.571429V1.71429C4.33207 2.02988 4.07623 2.28571 3.76064 2.28571C3.44505 2.28571 3.18921 2.02988 3.18921 1.71429V0.571429C3.18921 0.255837 3.44505 0 3.76064 0ZM12.9035 0C13.2191 0 13.4749 0.255837 13.4749 0.571429V1.71429C13.4749 2.02988 13.2191 2.28571 12.9035 2.28571C12.5879 2.28571 12.3321 2.02988 12.3321 1.71429V0.571429C12.3321 0.255837 12.5879 0 12.9035 0Z" fill="white"/>
<path fill-rule="evenodd" clip-rule="evenodd" d="M0.902832 4H15.76V5.14286H0.902832V4Z" fill="white"/>
</svg>
