<svg width="711" height="1511" viewBox="0 0 711 1511" fill="none" xmlns="http://www.w3.org/2000/svg">
<path fill-rule="evenodd" clip-rule="evenodd" d="M785.627 0.712182C785.412 0.149795 784.782 -0.131793 784.219 0.0832373L272.778 195.634L0.720703 792.112C0.470825 792.66 0.712341 793.307 1.26019 793.557C1.80792 793.807 2.45459 793.565 2.70441 793.017L274.391 197.352L784.998 2.11982C785.56 1.90479 785.842 1.27457 785.627 0.712182Z" fill="url(#paint0_radial_42_13096)" fill-opacity="0.3"/>
<path fill-rule="evenodd" clip-rule="evenodd" d="M792.704 10.0192C792.489 9.4568 791.858 9.17521 791.296 9.39024L279.855 204.941L7.79761 801.419C7.54773 801.967 7.78925 802.614 8.3371 802.864C8.88483 803.114 9.53149 802.872 9.78131 802.324L281.468 206.659L792.075 11.4268C792.637 11.2118 792.919 10.5816 792.704 10.0192Z" fill="url(#paint1_radial_42_13096)" fill-opacity="0.3"/>
<path fill-rule="evenodd" clip-rule="evenodd" d="M799.781 19.3261C799.566 18.7637 798.935 18.4822 798.373 18.6972L286.932 214.248L14.8745 810.726C14.6246 811.274 14.8661 811.921 15.414 812.171C15.9617 812.42 16.6084 812.179 16.8582 811.631L288.545 215.966L799.152 20.7338C799.714 20.5187 799.996 19.8885 799.781 19.3261Z" fill="url(#paint2_radial_42_13096)" fill-opacity="0.3"/>
<path fill-rule="evenodd" clip-rule="evenodd" d="M806.857 28.6329C806.642 28.0705 806.012 27.7889 805.45 28.004L294.009 223.555L21.9514 820.033C21.7015 820.581 21.9431 821.228 22.4909 821.477C23.0386 821.727 23.6853 821.486 23.9351 820.938L295.622 225.272L806.229 30.0405C806.791 29.8255 807.073 29.1953 806.857 28.6329Z" fill="url(#paint3_radial_42_13096)" fill-opacity="0.3"/>
<path fill-rule="evenodd" clip-rule="evenodd" d="M813.934 37.9399C813.719 37.3775 813.089 37.0959 812.527 37.311L301.086 232.862L29.0283 829.34C28.7784 829.888 29.02 830.535 29.5678 830.784C30.1155 831.034 30.7622 830.793 31.012 830.245L302.699 234.579L813.305 39.3475C813.868 39.1325 814.149 38.5023 813.934 37.9399Z" fill="url(#paint4_radial_42_13096)" fill-opacity="0.3"/>
<path fill-rule="evenodd" clip-rule="evenodd" d="M821.011 47.247C820.796 46.6846 820.166 46.4031 819.604 46.6181L308.163 242.169L36.1052 838.647C35.8553 839.195 36.0969 839.842 36.6447 840.091C37.1924 840.341 37.8391 840.1 38.0889 839.552L309.776 243.887L820.382 48.6547C820.945 48.4396 821.226 47.8094 821.011 47.247Z" fill="url(#paint5_radial_42_13096)" fill-opacity="0.3"/>
<path fill-rule="evenodd" clip-rule="evenodd" d="M828.088 56.5539C827.873 55.9915 827.243 55.7099 826.681 55.925L315.24 251.476L43.1821 847.954C42.9323 848.502 43.1738 849.149 43.7216 849.398C44.2693 849.648 44.916 849.407 45.1658 848.859L316.853 253.193L827.459 57.9616C828.022 57.7465 828.303 57.1163 828.088 56.5539Z" fill="url(#paint6_radial_42_13096)" fill-opacity="0.3"/>
<path fill-rule="evenodd" clip-rule="evenodd" d="M835.165 65.8607C834.95 65.2983 834.32 65.0167 833.757 65.2317L322.317 260.783L50.259 857.261C50.0092 857.809 50.2507 858.455 50.7985 858.705C51.3463 858.955 51.9929 858.714 52.2427 858.166L323.93 262.5L834.536 67.2683C835.099 67.0533 835.38 66.4231 835.165 65.8607Z" fill="url(#paint7_radial_42_13096)" fill-opacity="0.3"/>
<path fill-rule="evenodd" clip-rule="evenodd" d="M842.242 75.1678C842.027 74.6054 841.397 74.3238 840.834 74.5389L329.393 270.09L57.3359 866.568C57.0861 867.116 57.3276 867.762 57.8754 868.012C58.4232 868.262 59.0698 868.021 59.3196 867.473L331.007 271.807L841.613 76.5754C842.175 76.3604 842.457 75.7302 842.242 75.1678Z" fill="url(#paint8_radial_42_13096)" fill-opacity="0.3"/>
<path fill-rule="evenodd" clip-rule="evenodd" d="M849.319 84.4748C849.104 83.9124 848.474 83.6308 847.911 83.8459L336.47 279.397L64.4128 875.875C64.163 876.423 64.4045 877.069 64.9523 877.319C65.5001 877.569 66.1467 877.328 66.3965 876.78L338.083 281.114L848.69 85.8825C849.252 85.6674 849.534 85.0372 849.319 84.4748Z" fill="url(#paint9_radial_42_13096)" fill-opacity="0.3"/>
<path fill-rule="evenodd" clip-rule="evenodd" d="M856.396 93.7816C856.181 93.2192 855.551 92.9376 854.988 93.1526L343.547 288.703L71.4897 885.182C71.2399 885.729 71.4814 886.376 72.0292 886.626C72.577 886.876 73.2236 886.634 73.4734 886.087L345.16 290.421L855.767 95.1892C856.329 94.9742 856.611 94.344 856.396 93.7816Z" fill="url(#paint10_radial_42_13096)" fill-opacity="0.3"/>
<path fill-rule="evenodd" clip-rule="evenodd" d="M863.473 103.089C863.258 102.526 862.627 102.245 862.065 102.46L350.624 298.01L78.5667 894.489C78.3168 895.036 78.5583 895.683 79.1061 895.933C79.6539 896.183 80.3005 895.941 80.5504 895.394L352.237 299.728L862.844 104.496C863.406 104.281 863.688 103.651 863.473 103.089Z" fill="url(#paint11_radial_42_13096)" fill-opacity="0.3"/>
<path fill-rule="evenodd" clip-rule="evenodd" d="M870.55 112.396C870.335 111.833 869.704 111.552 869.142 111.767L357.701 307.318L85.6436 903.796C85.3937 904.344 85.6352 904.99 86.183 905.24C86.7308 905.49 87.3774 905.248 87.6273 904.701L359.314 309.035L869.921 113.803C870.483 113.588 870.765 112.958 870.55 112.396Z" fill="url(#paint12_radial_42_13096)" fill-opacity="0.3"/>
<path fill-rule="evenodd" clip-rule="evenodd" d="M877.627 121.703C877.412 121.14 876.781 120.859 876.219 121.074L364.778 316.625L92.7205 913.103C92.4706 913.651 92.7121 914.297 93.2599 914.547C93.8077 914.797 94.4543 914.555 94.7042 914.008L366.391 318.342L876.998 123.11C877.56 122.895 877.842 122.265 877.627 121.703Z" fill="url(#paint13_radial_42_13096)" fill-opacity="0.3"/>
<path fill-rule="evenodd" clip-rule="evenodd" d="M884.703 131.009C884.488 130.447 883.858 130.166 883.296 130.381L371.855 325.931L99.7974 922.41C99.5475 922.957 99.789 923.604 100.337 923.854C100.885 924.104 101.531 923.862 101.781 923.314L373.468 327.649L884.075 132.417C884.637 132.202 884.918 131.572 884.703 131.009Z" fill="url(#paint14_radial_42_13096)" fill-opacity="0.3"/>
<path fill-rule="evenodd" clip-rule="evenodd" d="M891.78 140.316C891.565 139.754 890.935 139.472 890.373 139.687L378.932 335.238L106.874 931.717C106.624 932.264 106.866 932.911 107.414 933.161C107.961 933.411 108.608 933.169 108.858 932.621L380.545 336.956L891.151 141.724C891.714 141.509 891.995 140.879 891.78 140.316Z" fill="url(#paint15_radial_42_13096)" fill-opacity="0.3"/>
<path fill-rule="evenodd" clip-rule="evenodd" d="M898.857 149.623C898.642 149.061 898.012 148.779 897.45 148.994L386.009 344.545L113.951 941.024C113.701 941.571 113.943 942.218 114.491 942.468C115.038 942.718 115.685 942.476 115.935 941.928L387.622 346.263L898.228 151.031C898.791 150.816 899.072 150.186 898.857 149.623Z" fill="url(#paint16_radial_42_13096)" fill-opacity="0.3"/>
<path fill-rule="evenodd" clip-rule="evenodd" d="M905.934 158.93C905.719 158.368 905.089 158.086 904.527 158.301L393.086 353.852L121.028 950.331C120.778 950.878 121.02 951.525 121.568 951.775C122.115 952.025 122.762 951.783 123.012 951.235L394.699 355.57L905.305 160.338C905.868 160.123 906.149 159.493 905.934 158.93Z" fill="url(#paint17_radial_42_13096)" fill-opacity="0.3"/>
<path fill-rule="evenodd" clip-rule="evenodd" d="M913.011 168.237C912.796 167.675 912.166 167.393 911.603 167.608L400.162 363.159L128.105 959.637C127.855 960.185 128.097 960.832 128.644 961.082C129.192 961.332 129.839 961.09 130.089 960.542L401.776 364.877L912.382 169.645C912.945 169.43 913.226 168.8 913.011 168.237Z" fill="url(#paint18_radial_42_13096)" fill-opacity="0.3"/>
<path fill-rule="evenodd" clip-rule="evenodd" d="M920.088 177.544C919.873 176.982 919.243 176.7 918.68 176.915L407.239 372.466L135.182 968.944C134.932 969.492 135.174 970.139 135.721 970.388C136.269 970.638 136.916 970.397 137.166 969.849L408.852 374.184L919.459 178.952C920.021 178.737 920.303 178.106 920.088 177.544Z" fill="url(#paint19_radial_42_13096)" fill-opacity="0.3"/>
<path fill-rule="evenodd" clip-rule="evenodd" d="M927.165 186.851C926.95 186.289 926.32 186.007 925.757 186.222L414.316 381.773L142.259 978.251C142.009 978.799 142.25 979.446 142.798 979.696C143.346 979.945 143.993 979.704 144.242 979.156L415.929 383.491L926.536 188.259C927.098 188.044 927.38 187.414 927.165 186.851Z" fill="url(#paint20_radial_42_13096)" fill-opacity="0.3"/>
<path fill-rule="evenodd" clip-rule="evenodd" d="M934.242 196.158C934.027 195.596 933.397 195.314 932.834 195.529L421.393 391.08L149.336 987.558C149.086 988.106 149.327 988.753 149.875 989.003C150.423 989.253 151.07 989.011 151.319 988.463L423.006 392.798L933.613 197.566C934.175 197.351 934.457 196.721 934.242 196.158Z" fill="url(#paint21_radial_42_13096)" fill-opacity="0.3"/>
<path fill-rule="evenodd" clip-rule="evenodd" d="M941.319 205.465C941.104 204.903 940.473 204.621 939.911 204.836L428.47 400.387L156.413 996.865C156.163 997.413 156.404 998.06 156.952 998.31C157.5 998.559 158.146 998.318 158.396 997.77L430.083 402.105L940.69 206.873C941.252 206.658 941.534 206.027 941.319 205.465Z" fill="url(#paint22_radial_42_13096)" fill-opacity="0.3"/>
<path fill-rule="evenodd" clip-rule="evenodd" d="M948.396 214.772C948.181 214.21 947.55 213.928 946.988 214.143L435.547 409.694L163.49 1006.17C163.24 1006.72 163.481 1007.37 164.029 1007.62C164.577 1007.87 165.223 1007.62 165.473 1007.08L437.16 411.411L947.767 216.18C948.329 215.965 948.611 215.334 948.396 214.772Z" fill="url(#paint23_radial_42_13096)" fill-opacity="0.3"/>
<path fill-rule="evenodd" clip-rule="evenodd" d="M955.472 224.079C955.257 223.517 954.627 223.235 954.065 223.45L442.624 419.001L170.566 1015.48C170.317 1016.03 170.558 1016.67 171.106 1016.92C171.654 1017.17 172.3 1016.93 172.55 1016.38L444.237 420.719L954.844 225.487C955.406 225.272 955.688 224.641 955.472 224.079Z" fill="url(#paint24_radial_42_13096)" fill-opacity="0.3"/>
<path fill-rule="evenodd" clip-rule="evenodd" d="M962.549 233.386C962.334 232.824 961.704 232.542 961.142 232.757L449.701 428.308L177.643 1024.79C177.393 1025.33 177.635 1025.98 178.183 1026.23C178.731 1026.48 179.377 1026.24 179.627 1025.69L451.314 430.025L961.92 234.794C962.483 234.579 962.764 233.948 962.549 233.386Z" fill="url(#paint25_radial_42_13096)" fill-opacity="0.3"/>
<path fill-rule="evenodd" clip-rule="evenodd" d="M969.626 242.693C969.411 242.13 968.781 241.849 968.219 242.064L456.778 437.615L184.72 1034.09C184.47 1034.64 184.712 1035.29 185.26 1035.54C185.807 1035.79 186.454 1035.55 186.704 1035L458.391 439.332L968.997 244.1C969.56 243.885 969.841 243.255 969.626 242.693Z" fill="url(#paint26_radial_42_13096)" fill-opacity="0.3"/>
<path fill-rule="evenodd" clip-rule="evenodd" d="M976.703 252C976.488 251.437 975.858 251.156 975.296 251.371L463.855 446.922L191.797 1043.4C191.547 1043.95 191.789 1044.59 192.337 1044.84C192.884 1045.09 193.531 1044.85 193.781 1044.3L465.468 448.639L976.074 253.407C976.637 253.192 976.918 252.562 976.703 252Z" fill="url(#paint27_radial_42_13096)" fill-opacity="0.3"/>
<path fill-rule="evenodd" clip-rule="evenodd" d="M983.78 261.307C983.565 260.744 982.935 260.463 982.372 260.678L470.932 456.229L198.874 1052.71C198.624 1053.25 198.866 1053.9 199.414 1054.15C199.961 1054.4 200.608 1054.16 200.858 1053.61L472.545 457.946L983.151 262.714C983.714 262.499 983.995 261.869 983.78 261.307Z" fill="url(#paint28_radial_42_13096)" fill-opacity="0.3"/>
<path fill-rule="evenodd" clip-rule="evenodd" d="M990.857 270.614C990.642 270.051 990.012 269.77 989.449 269.985L478.008 465.536L205.951 1062.01C205.701 1062.56 205.943 1063.21 206.49 1063.46C207.038 1063.71 207.685 1063.47 207.935 1062.92L479.621 467.253L990.228 272.021C990.79 271.806 991.072 271.176 990.857 270.614Z" fill="url(#paint29_radial_42_13096)" fill-opacity="0.3"/>
<path fill-rule="evenodd" clip-rule="evenodd" d="M997.934 279.921C997.719 279.358 997.089 279.077 996.526 279.292L485.085 474.843L213.028 1071.32C212.778 1071.87 213.019 1072.52 213.567 1072.77C214.115 1073.01 214.762 1072.77 215.012 1072.23L486.698 476.56L997.305 281.328C997.867 281.113 998.149 280.483 997.934 279.921Z" fill="url(#paint30_radial_42_13096)" fill-opacity="0.3"/>
<path fill-rule="evenodd" clip-rule="evenodd" d="M1005.01 289.228C1004.8 288.665 1004.17 288.384 1003.6 288.599L492.162 484.149L220.105 1080.63C219.855 1081.18 220.096 1081.82 220.644 1082.07C221.192 1082.32 221.839 1082.08 222.088 1081.53L493.775 485.867L1004.38 290.635C1004.94 290.42 1005.23 289.79 1005.01 289.228Z" fill="url(#paint31_radial_42_13096)" fill-opacity="0.3"/>
<path fill-rule="evenodd" clip-rule="evenodd" d="M1012.09 298.535C1011.87 297.972 1011.24 297.691 1010.68 297.906L499.239 493.456L227.182 1089.93C226.932 1090.48 227.173 1091.13 227.721 1091.38C228.269 1091.63 228.916 1091.39 229.165 1090.84L500.852 495.174L1011.46 299.942C1012.02 299.727 1012.3 299.097 1012.09 298.535Z" fill="url(#paint32_radial_42_13096)" fill-opacity="0.3"/>
<path fill-rule="evenodd" clip-rule="evenodd" d="M1019.16 307.842C1018.95 307.279 1018.32 306.998 1017.76 307.213L506.316 502.763L234.259 1099.24C234.009 1099.79 234.25 1100.44 234.798 1100.69C235.346 1100.94 235.992 1100.69 236.242 1100.15L507.929 504.481L1018.54 309.249C1019.1 309.034 1019.38 308.404 1019.16 307.842Z" fill="url(#paint33_radial_42_13096)" fill-opacity="0.3"/>
<path fill-rule="evenodd" clip-rule="evenodd" d="M1026.24 317.148C1026.03 316.586 1025.4 316.304 1024.83 316.519L513.393 512.07L241.335 1108.55C241.086 1109.1 241.327 1109.74 241.875 1109.99C242.423 1110.24 243.069 1110 243.319 1109.45L515.006 513.788L1025.61 318.556C1026.17 318.341 1026.46 317.711 1026.24 317.148Z" fill="url(#paint34_radial_42_13096)" fill-opacity="0.3"/>
<path fill-rule="evenodd" clip-rule="evenodd" d="M1033.32 326.455C1033.1 325.893 1032.47 325.611 1031.91 325.826L520.47 521.377L248.412 1117.86C248.162 1118.4 248.404 1119.05 248.952 1119.3C249.5 1119.55 250.146 1119.31 250.396 1118.76L522.083 523.095L1032.69 327.863C1033.25 327.648 1033.53 327.018 1033.32 326.455Z" fill="url(#paint35_radial_42_13096)" fill-opacity="0.3"/>
<path fill-rule="evenodd" clip-rule="evenodd" d="M1040.4 335.762C1040.18 335.2 1039.55 334.918 1038.99 335.133L527.547 530.684L255.489 1127.16C255.239 1127.71 255.481 1128.36 256.029 1128.61C256.576 1128.86 257.223 1128.62 257.473 1128.07L529.16 532.402L1039.77 337.17C1040.33 336.955 1040.61 336.325 1040.4 335.762Z" fill="url(#paint36_radial_42_13096)" fill-opacity="0.3"/>
<path fill-rule="evenodd" clip-rule="evenodd" d="M1047.47 345.069C1047.26 344.507 1046.63 344.225 1046.06 344.44L534.624 539.991L262.566 1136.47C262.316 1137.02 262.558 1137.66 263.106 1137.91C263.653 1138.16 264.3 1137.92 264.55 1137.37L536.237 541.709L1046.84 346.477C1047.41 346.262 1047.69 345.632 1047.47 345.069Z" fill="url(#paint37_radial_42_13096)" fill-opacity="0.3"/>
<path fill-rule="evenodd" clip-rule="evenodd" d="M1054.55 354.376C1054.33 353.814 1053.7 353.532 1053.14 353.747L541.701 549.298L269.643 1145.78C269.393 1146.32 269.635 1146.97 270.183 1147.22C270.73 1147.47 271.377 1147.23 271.627 1146.68L543.314 551.016L1053.92 355.784C1054.48 355.569 1054.76 354.939 1054.55 354.376Z" fill="url(#paint38_radial_42_13096)" fill-opacity="0.3"/>
<path fill-rule="evenodd" clip-rule="evenodd" d="M1061.63 363.683C1061.41 363.121 1060.78 362.839 1060.22 363.054L548.777 558.605L276.72 1155.08C276.47 1155.63 276.712 1156.28 277.259 1156.53C277.807 1156.78 278.454 1156.54 278.704 1155.99L550.391 560.323L1061 365.091C1061.56 364.876 1061.84 364.245 1061.63 363.683Z" fill="url(#paint39_radial_42_13096)" fill-opacity="0.3"/>
<path fill-rule="evenodd" clip-rule="evenodd" d="M1068.7 372.99C1068.49 372.428 1067.86 372.146 1067.3 372.361L555.854 567.912L283.797 1164.39C283.547 1164.94 283.789 1165.58 284.336 1165.83C284.884 1166.08 285.531 1165.84 285.781 1165.3L557.467 569.63L1068.07 374.398C1068.64 374.183 1068.92 373.553 1068.7 372.99Z" fill="url(#paint40_radial_42_13096)" fill-opacity="0.3"/>
<path fill-rule="evenodd" clip-rule="evenodd" d="M1075.78 382.297C1075.56 381.735 1074.93 381.453 1074.37 381.668L562.931 577.219L290.874 1173.7C290.624 1174.25 290.865 1174.89 291.413 1175.14C291.961 1175.39 292.608 1175.15 292.857 1174.6L564.544 578.937L1075.15 383.705C1075.71 383.49 1075.99 382.86 1075.78 382.297Z" fill="url(#paint41_radial_42_13096)" fill-opacity="0.3"/>
<path fill-rule="evenodd" clip-rule="evenodd" d="M1082.86 391.604C1082.64 391.042 1082.01 390.76 1081.45 390.975L570.008 586.526L297.951 1183C297.701 1183.55 297.942 1184.2 298.49 1184.45C299.038 1184.7 299.685 1184.46 299.934 1183.91L571.621 588.243L1082.23 393.012C1082.79 392.797 1083.07 392.166 1082.86 391.604Z" fill="url(#paint42_radial_42_13096)" fill-opacity="0.3"/>
<path fill-rule="evenodd" clip-rule="evenodd" d="M1089.93 400.911C1089.72 400.348 1089.09 400.067 1088.53 400.282L577.085 595.833L305.028 1192.31C304.778 1192.86 305.019 1193.51 305.567 1193.76C306.115 1194.01 306.761 1193.76 307.011 1193.22L578.698 597.55L1089.3 402.318C1089.87 402.103 1090.15 401.473 1089.93 400.911Z" fill="url(#paint43_radial_42_13096)" fill-opacity="0.3"/>
<path fill-rule="evenodd" clip-rule="evenodd" d="M1097.01 410.218C1096.8 409.656 1096.17 409.374 1095.6 409.589L584.162 605.14L312.104 1201.62C311.855 1202.17 312.096 1202.81 312.644 1203.06C313.192 1203.31 313.838 1203.07 314.088 1202.52L585.775 606.857L1096.38 411.626C1096.94 411.411 1097.23 410.78 1097.01 410.218Z" fill="url(#paint44_radial_42_13096)" fill-opacity="0.3"/>
<path fill-rule="evenodd" clip-rule="evenodd" d="M1104.09 419.525C1103.87 418.963 1103.24 418.681 1102.68 418.896L591.239 614.447L319.181 1210.93C318.932 1211.47 319.173 1212.12 319.721 1212.37C320.269 1212.62 320.915 1212.38 321.165 1211.83L592.852 616.164L1103.46 420.933C1104.02 420.718 1104.3 420.087 1104.09 419.525Z" fill="url(#paint45_radial_42_13096)" fill-opacity="0.3"/>
<path fill-rule="evenodd" clip-rule="evenodd" d="M1111.16 428.832C1110.95 428.269 1110.32 427.988 1109.76 428.203L598.316 623.754L326.258 1220.23C326.008 1220.78 326.25 1221.43 326.798 1221.68C327.346 1221.93 327.992 1221.68 328.242 1221.14L599.929 625.471L1110.54 430.24C1111.1 430.024 1111.38 429.394 1111.16 428.832Z" fill="url(#paint46_radial_42_13096)" fill-opacity="0.3"/>
<path fill-rule="evenodd" clip-rule="evenodd" d="M1118.24 438.139C1118.03 437.576 1117.4 437.295 1116.83 437.51L605.393 633.061L333.335 1229.54C333.085 1230.09 333.327 1230.73 333.875 1230.98C334.422 1231.23 335.069 1230.99 335.319 1230.44L607.006 634.778L1117.61 439.546C1118.17 439.331 1118.46 438.701 1118.24 438.139Z" fill="url(#paint47_radial_42_13096)" fill-opacity="0.3"/>
<path fill-rule="evenodd" clip-rule="evenodd" d="M1125.32 447.446C1125.1 446.883 1124.47 446.602 1123.91 446.817L612.47 642.368L340.412 1238.85C340.162 1239.39 340.404 1240.04 340.952 1240.29C341.499 1240.54 342.146 1240.3 342.396 1239.75L614.083 644.085L1124.69 448.853C1125.25 448.638 1125.53 448.008 1125.32 447.446Z" fill="url(#paint48_radial_42_13096)" fill-opacity="0.3"/>
<path fill-rule="evenodd" clip-rule="evenodd" d="M1132.4 456.753C1132.18 456.19 1131.55 455.909 1130.99 456.124L619.547 651.675L347.489 1248.15C347.239 1248.7 347.481 1249.35 348.029 1249.6C348.576 1249.85 349.223 1249.61 349.473 1249.06L621.16 653.392L1131.77 458.16C1132.33 457.945 1132.61 457.315 1132.4 456.753Z" fill="url(#paint49_radial_42_13096)" fill-opacity="0.3"/>
<path fill-rule="evenodd" clip-rule="evenodd" d="M1139.47 466.06C1139.26 465.497 1138.63 465.216 1138.06 465.431L626.623 660.982L354.566 1257.46C354.316 1258.01 354.558 1258.65 355.105 1258.9C355.653 1259.15 356.3 1258.91 356.55 1258.36L628.236 662.699L1138.84 467.467C1139.41 467.252 1139.69 466.622 1139.47 466.06Z" fill="url(#paint50_radial_42_13096)" fill-opacity="0.3"/>
<path fill-rule="evenodd" clip-rule="evenodd" d="M1146.55 475.367C1146.33 474.804 1145.7 474.523 1145.14 474.738L633.7 670.288L361.643 1266.77C361.393 1267.31 361.634 1267.96 362.182 1268.21C362.73 1268.46 363.377 1268.22 363.627 1267.67L635.313 672.006L1145.92 476.774C1146.48 476.559 1146.76 475.929 1146.55 475.367Z" fill="url(#paint51_radial_42_13096)" fill-opacity="0.3"/>
<path fill-rule="evenodd" clip-rule="evenodd" d="M1153.63 484.674C1153.41 484.111 1152.78 483.83 1152.22 484.045L640.777 679.595L368.72 1276.07C368.47 1276.62 368.711 1277.27 369.259 1277.52C369.807 1277.77 370.454 1277.53 370.703 1276.98L642.39 681.313L1153 486.081C1153.56 485.866 1153.84 485.236 1153.63 484.674Z" fill="url(#paint52_radial_42_13096)" fill-opacity="0.3"/>
<path fill-rule="evenodd" clip-rule="evenodd" d="M1160.7 493.981C1160.49 493.418 1159.86 493.137 1159.3 493.352L647.854 688.902L375.797 1285.38C375.547 1285.93 375.788 1286.58 376.336 1286.83C376.884 1287.07 377.531 1286.83 377.78 1286.29L649.467 690.62L1160.07 495.388C1160.64 495.173 1160.92 494.543 1160.7 493.981Z" fill="url(#paint53_radial_42_13096)" fill-opacity="0.3"/>
<path fill-rule="evenodd" clip-rule="evenodd" d="M1167.78 503.287C1167.56 502.725 1166.93 502.443 1166.37 502.658L654.931 698.209L382.874 1294.69C382.624 1295.24 382.865 1295.88 383.413 1296.13C383.961 1296.38 384.607 1296.14 384.857 1295.59L656.544 699.927L1167.15 504.695C1167.71 504.48 1167.99 503.85 1167.78 503.287Z" fill="url(#paint54_radial_42_13096)" fill-opacity="0.3"/>
<path fill-rule="evenodd" clip-rule="evenodd" d="M1174.86 512.594C1174.64 512.032 1174.01 511.75 1173.45 511.965L662.008 707.516L389.95 1303.99C389.701 1304.54 389.942 1305.19 390.49 1305.44C391.038 1305.69 391.684 1305.45 391.934 1304.9L663.621 709.234L1174.23 514.002C1174.79 513.787 1175.07 513.157 1174.86 512.594Z" fill="url(#paint55_radial_42_13096)" fill-opacity="0.3"/>
<path fill-rule="evenodd" clip-rule="evenodd" d="M1181.93 521.901C1181.72 521.339 1181.09 521.057 1180.53 521.272L669.085 716.823L397.027 1313.3C396.777 1313.85 397.019 1314.5 397.567 1314.75C398.115 1315 398.761 1314.75 399.011 1314.21L670.698 718.541L1181.3 523.309C1181.87 523.094 1182.15 522.464 1181.93 521.901Z" fill="url(#paint56_radial_42_13096)" fill-opacity="0.3"/>
<path fill-rule="evenodd" clip-rule="evenodd" d="M1189.01 531.208C1188.8 530.646 1188.17 530.364 1187.6 530.579L676.162 726.13L404.104 1322.61C403.854 1323.16 404.096 1323.8 404.644 1324.05C405.191 1324.3 405.838 1324.06 406.088 1323.51L677.775 727.848L1188.38 532.616C1188.94 532.401 1189.23 531.771 1189.01 531.208Z" fill="url(#paint57_radial_42_13096)" fill-opacity="0.3"/>
<path fill-rule="evenodd" clip-rule="evenodd" d="M1196.09 540.515C1195.87 539.953 1195.24 539.671 1194.68 539.886L683.239 735.437L411.181 1331.92C410.931 1332.46 411.173 1333.11 411.721 1333.36C412.268 1333.61 412.915 1333.37 413.165 1332.82L684.852 737.155L1195.46 541.923C1196.02 541.708 1196.3 541.077 1196.09 540.515Z" fill="url(#paint58_radial_42_13096)" fill-opacity="0.3"/>
<path fill-rule="evenodd" clip-rule="evenodd" d="M1203.16 549.822C1202.95 549.26 1202.32 548.978 1201.76 549.193L690.316 744.744L418.258 1341.22C418.008 1341.77 418.25 1342.42 418.798 1342.67C419.345 1342.92 419.992 1342.67 420.242 1342.13L691.929 746.461L1202.54 551.23C1203.1 551.015 1203.38 550.384 1203.16 549.822Z" fill="url(#paint59_radial_42_13096)" fill-opacity="0.3"/>
<path fill-rule="evenodd" clip-rule="evenodd" d="M1210.24 559.129C1210.03 558.567 1209.4 558.285 1208.83 558.5L697.392 754.051L425.335 1350.53C425.085 1351.08 425.327 1351.72 425.874 1351.97C426.422 1352.22 427.069 1351.98 427.319 1351.43L699.006 755.768L1209.61 560.537C1210.17 560.322 1210.46 559.691 1210.24 559.129Z" fill="url(#paint60_radial_42_13096)" fill-opacity="0.3"/>
<path fill-rule="evenodd" clip-rule="evenodd" d="M1217.32 568.436C1217.1 567.874 1216.47 567.592 1215.91 567.807L704.469 763.358L432.412 1359.84C432.162 1360.38 432.404 1361.03 432.951 1361.28C433.499 1361.53 434.146 1361.29 434.396 1360.74L706.082 765.076L1216.69 569.844C1217.25 569.629 1217.53 568.999 1217.32 568.436Z" fill="url(#paint61_radial_42_13096)" fill-opacity="0.3"/>
<path fill-rule="evenodd" clip-rule="evenodd" d="M1224.39 577.743C1224.18 577.181 1223.55 576.899 1222.99 577.114L711.546 772.665L439.489 1369.14C439.239 1369.69 439.48 1370.34 440.028 1370.59C440.576 1370.84 441.223 1370.6 441.472 1370.05L713.159 774.382L1223.77 579.151C1224.33 578.936 1224.61 578.305 1224.39 577.743Z" fill="url(#paint62_radial_42_13096)" fill-opacity="0.3"/>
<path fill-rule="evenodd" clip-rule="evenodd" d="M1231.47 587.05C1231.26 586.487 1230.63 586.206 1230.06 586.421L718.623 781.972L446.566 1378.45C446.316 1379 446.557 1379.64 447.105 1379.89C447.653 1380.14 448.3 1379.9 448.549 1379.35L720.236 783.689L1230.84 588.457C1231.41 588.242 1231.69 587.612 1231.47 587.05Z" fill="url(#paint63_radial_42_13096)" fill-opacity="0.3"/>
<path fill-rule="evenodd" clip-rule="evenodd" d="M1238.55 596.357C1238.33 595.795 1237.7 595.513 1237.14 595.728L725.7 791.279L453.643 1387.76C453.393 1388.3 453.634 1388.95 454.182 1389.2C454.73 1389.45 455.376 1389.21 455.626 1388.66L727.313 792.996L1237.92 597.765C1238.48 597.55 1238.76 596.919 1238.55 596.357Z" fill="url(#paint64_radial_42_13096)" fill-opacity="0.3"/>
<path fill-rule="evenodd" clip-rule="evenodd" d="M1245.63 605.664C1245.41 605.102 1244.78 604.82 1244.22 605.035L732.777 800.586L460.719 1397.06C460.47 1397.61 460.711 1398.26 461.259 1398.51C461.807 1398.76 462.453 1398.52 462.703 1397.97L734.39 802.304L1245 607.072C1245.56 606.857 1245.84 606.226 1245.63 605.664Z" fill="url(#paint65_radial_42_13096)" fill-opacity="0.3"/>
<path fill-rule="evenodd" clip-rule="evenodd" d="M1252.7 614.971C1252.49 614.408 1251.86 614.127 1251.29 614.342L739.854 809.893L467.796 1406.37C467.547 1406.92 467.788 1407.57 468.336 1407.82C468.884 1408.07 469.53 1407.82 469.78 1407.28L741.467 811.61L1252.07 616.378C1252.64 616.163 1252.92 615.533 1252.7 614.971Z" fill="url(#paint66_radial_42_13096)" fill-opacity="0.3"/>
<path fill-rule="evenodd" clip-rule="evenodd" d="M1259.78 624.278C1259.56 623.715 1258.93 623.434 1258.37 623.649L746.931 819.199L474.873 1415.68C474.623 1416.23 474.865 1416.87 475.413 1417.12C475.961 1417.37 476.607 1417.13 476.857 1416.58L748.544 820.917L1259.15 625.685C1259.71 625.47 1259.99 624.84 1259.78 624.278Z" fill="url(#paint67_radial_42_13096)" fill-opacity="0.3"/>
<path fill-rule="evenodd" clip-rule="evenodd" d="M1266.86 633.585C1266.64 633.022 1266.01 632.741 1265.45 632.956L754.008 828.507L481.95 1424.98C481.7 1425.53 481.942 1426.18 482.49 1426.43C483.037 1426.68 483.684 1426.44 483.934 1425.89L755.621 830.224L1266.23 634.992C1266.79 634.777 1267.07 634.147 1266.86 633.585Z" fill="url(#paint68_radial_42_13096)" fill-opacity="0.3"/>
<path fill-rule="evenodd" clip-rule="evenodd" d="M1273.93 642.892C1273.72 642.329 1273.09 642.048 1272.53 642.263L761.085 837.813L489.027 1434.29C488.777 1434.84 489.019 1435.49 489.567 1435.74C490.114 1435.99 490.761 1435.74 491.011 1435.2L762.698 839.531L1273.3 644.299C1273.87 644.084 1274.15 643.454 1273.93 642.892Z" fill="url(#paint69_radial_42_13096)" fill-opacity="0.3"/>
<path fill-rule="evenodd" clip-rule="evenodd" d="M1281.01 652.199C1280.8 651.636 1280.16 651.355 1279.6 651.57L768.161 847.121L496.104 1443.6C495.854 1444.15 496.096 1444.79 496.643 1445.04C497.191 1445.29 497.838 1445.05 498.088 1444.5L769.775 848.838L1280.38 653.606C1280.94 653.391 1281.23 652.761 1281.01 652.199Z" fill="url(#paint70_radial_42_13096)" fill-opacity="0.3"/>
<path fill-rule="evenodd" clip-rule="evenodd" d="M1288.09 661.506C1287.87 660.943 1287.24 660.662 1286.68 660.877L775.238 856.428L503.181 1452.91C502.931 1453.45 503.173 1454.1 503.72 1454.35C504.268 1454.6 504.915 1454.36 505.165 1453.81L776.851 858.145L1287.46 662.913C1288.02 662.698 1288.3 662.068 1288.09 661.506Z" fill="url(#paint71_radial_42_13096)" fill-opacity="0.3"/>
<path fill-rule="evenodd" clip-rule="evenodd" d="M1295.16 670.813C1294.95 670.25 1294.32 669.969 1293.76 670.184L782.315 865.735L510.258 1462.21C510.008 1462.76 510.249 1463.41 510.797 1463.66C511.345 1463.91 511.992 1463.67 512.242 1463.12L783.928 867.452L1294.53 672.22C1295.1 672.005 1295.38 671.375 1295.16 670.813Z" fill="url(#paint72_radial_42_13096)" fill-opacity="0.3"/>
<path fill-rule="evenodd" clip-rule="evenodd" d="M1302.24 680.12C1302.03 679.557 1301.4 679.276 1300.83 679.491L789.392 875.042L517.335 1471.52C517.085 1472.07 517.326 1472.71 517.874 1472.96C518.422 1473.21 519.069 1472.97 519.318 1472.42L791.005 876.759L1301.61 681.527C1302.17 681.312 1302.46 680.682 1302.24 680.12Z" fill="url(#paint73_radial_42_13096)" fill-opacity="0.3"/>
<path fill-rule="evenodd" clip-rule="evenodd" d="M1309.32 689.427C1309.1 688.865 1308.47 688.583 1307.91 688.798L796.469 884.349L524.412 1480.83C524.162 1481.37 524.403 1482.02 524.951 1482.27C525.499 1482.52 526.146 1482.28 526.395 1481.73L798.082 886.066L1308.69 690.835C1309.25 690.62 1309.53 689.989 1309.32 689.427Z" fill="url(#paint74_radial_42_13096)" fill-opacity="0.3"/>
<path fill-rule="evenodd" clip-rule="evenodd" d="M1316.39 698.734C1316.18 698.171 1315.55 697.89 1314.99 698.105L803.546 893.656L531.489 1490.13C531.239 1490.68 531.48 1491.33 532.028 1491.58C532.576 1491.83 533.222 1491.59 533.472 1491.04L805.159 895.373L1315.77 700.141C1316.33 699.926 1316.61 699.296 1316.39 698.734Z" fill="url(#paint75_radial_42_13096)" fill-opacity="0.3"/>
<path fill-rule="evenodd" clip-rule="evenodd" d="M1323.47 708.041C1323.26 707.479 1322.63 707.197 1322.06 707.412L810.623 902.963L538.565 1499.44C538.316 1499.99 538.557 1500.64 539.105 1500.89C539.653 1501.14 540.299 1500.89 540.549 1500.35L812.236 904.68L1322.84 709.449C1323.4 709.234 1323.69 708.603 1323.47 708.041Z" fill="url(#paint76_radial_42_13096)" fill-opacity="0.3"/>
<path fill-rule="evenodd" clip-rule="evenodd" d="M1330.55 717.348C1330.33 716.785 1329.7 716.504 1329.14 716.719L817.7 912.27L545.642 1508.75C545.392 1509.3 545.634 1509.94 546.182 1510.19C546.73 1510.44 547.376 1510.2 547.626 1509.65L819.313 913.987L1329.92 718.755C1330.48 718.54 1330.76 717.91 1330.55 717.348Z" fill="url(#paint77_radial_42_13096)" fill-opacity="0.3"/>
<defs>
<radialGradient id="paint0_radial_42_13096" cx="0" cy="0" r="1" gradientUnits="userSpaceOnUse" gradientTransform="translate(269.797 183.601) rotate(42.2737) scale(636.105 629.219)">
<stop stop-color="#FFAE00"/>
<stop offset="1" stop-color="#FFAE00" stop-opacity="0"/>
</radialGradient>
<radialGradient id="paint1_radial_42_13096" cx="0" cy="0" r="1" gradientUnits="userSpaceOnUse" gradientTransform="translate(276.874 192.908) rotate(42.2737) scale(636.105 629.219)">
<stop stop-color="#FFAE00"/>
<stop offset="1" stop-color="#FFAE00" stop-opacity="0"/>
</radialGradient>
<radialGradient id="paint2_radial_42_13096" cx="0" cy="0" r="1" gradientUnits="userSpaceOnUse" gradientTransform="translate(283.951 202.215) rotate(42.2737) scale(636.105 629.219)">
<stop stop-color="#FFAE00"/>
<stop offset="1" stop-color="#FFAE00" stop-opacity="0"/>
</radialGradient>
<radialGradient id="paint3_radial_42_13096" cx="0" cy="0" r="1" gradientUnits="userSpaceOnUse" gradientTransform="translate(291.028 211.522) rotate(42.2737) scale(636.105 629.219)">
<stop stop-color="#FFAE00"/>
<stop offset="1" stop-color="#FFAE00" stop-opacity="0"/>
</radialGradient>
<radialGradient id="paint4_radial_42_13096" cx="0" cy="0" r="1" gradientUnits="userSpaceOnUse" gradientTransform="translate(298.104 220.829) rotate(42.2737) scale(636.105 629.219)">
<stop stop-color="#FFAE00"/>
<stop offset="1" stop-color="#FFAE00" stop-opacity="0"/>
</radialGradient>
<radialGradient id="paint5_radial_42_13096" cx="0" cy="0" r="1" gradientUnits="userSpaceOnUse" gradientTransform="translate(305.181 230.136) rotate(42.2737) scale(636.105 629.219)">
<stop stop-color="#FFAE00"/>
<stop offset="1" stop-color="#FFAE00" stop-opacity="0"/>
</radialGradient>
<radialGradient id="paint6_radial_42_13096" cx="0" cy="0" r="1" gradientUnits="userSpaceOnUse" gradientTransform="translate(312.258 239.443) rotate(42.2737) scale(636.105 629.219)">
<stop stop-color="#FFAE00"/>
<stop offset="1" stop-color="#FFAE00" stop-opacity="0"/>
</radialGradient>
<radialGradient id="paint7_radial_42_13096" cx="0" cy="0" r="1" gradientUnits="userSpaceOnUse" gradientTransform="translate(319.335 248.75) rotate(42.2737) scale(636.105 629.219)">
<stop stop-color="#FFAE00"/>
<stop offset="1" stop-color="#FFAE00" stop-opacity="0"/>
</radialGradient>
<radialGradient id="paint8_radial_42_13096" cx="0" cy="0" r="1" gradientUnits="userSpaceOnUse" gradientTransform="translate(326.412 258.057) rotate(42.2737) scale(636.105 629.219)">
<stop stop-color="#FFAE00"/>
<stop offset="1" stop-color="#FFAE00" stop-opacity="0"/>
</radialGradient>
<radialGradient id="paint9_radial_42_13096" cx="0" cy="0" r="1" gradientUnits="userSpaceOnUse" gradientTransform="translate(333.489 267.364) rotate(42.2737) scale(636.105 629.219)">
<stop stop-color="#FFAE00"/>
<stop offset="1" stop-color="#FFAE00" stop-opacity="0"/>
</radialGradient>
<radialGradient id="paint10_radial_42_13096" cx="0" cy="0" r="1" gradientUnits="userSpaceOnUse" gradientTransform="translate(340.566 276.671) rotate(42.2737) scale(636.105 629.219)">
<stop stop-color="#FFAE00"/>
<stop offset="1" stop-color="#FFAE00" stop-opacity="0"/>
</radialGradient>
<radialGradient id="paint11_radial_42_13096" cx="0" cy="0" r="1" gradientUnits="userSpaceOnUse" gradientTransform="translate(347.643 285.978) rotate(42.2737) scale(636.105 629.219)">
<stop stop-color="#FFAE00"/>
<stop offset="1" stop-color="#FFAE00" stop-opacity="0"/>
</radialGradient>
<radialGradient id="paint12_radial_42_13096" cx="0" cy="0" r="1" gradientUnits="userSpaceOnUse" gradientTransform="translate(354.72 295.285) rotate(42.2737) scale(636.105 629.219)">
<stop stop-color="#FFAE00"/>
<stop offset="1" stop-color="#FFAE00" stop-opacity="0"/>
</radialGradient>
<radialGradient id="paint13_radial_42_13096" cx="0" cy="0" r="1" gradientUnits="userSpaceOnUse" gradientTransform="translate(361.797 304.592) rotate(42.2737) scale(636.105 629.219)">
<stop stop-color="#FFAE00"/>
<stop offset="1" stop-color="#FFAE00" stop-opacity="0"/>
</radialGradient>
<radialGradient id="paint14_radial_42_13096" cx="0" cy="0" r="1" gradientUnits="userSpaceOnUse" gradientTransform="translate(368.873 313.899) rotate(42.2737) scale(636.105 629.219)">
<stop stop-color="#FFAE00"/>
<stop offset="1" stop-color="#FFAE00" stop-opacity="0"/>
</radialGradient>
<radialGradient id="paint15_radial_42_13096" cx="0" cy="0" r="1" gradientUnits="userSpaceOnUse" gradientTransform="translate(375.95 323.205) rotate(42.2737) scale(636.105 629.219)">
<stop stop-color="#FFAE00"/>
<stop offset="1" stop-color="#FFAE00" stop-opacity="0"/>
</radialGradient>
<radialGradient id="paint16_radial_42_13096" cx="0" cy="0" r="1" gradientUnits="userSpaceOnUse" gradientTransform="translate(383.027 332.513) rotate(42.2737) scale(636.105 629.219)">
<stop stop-color="#FFAE00"/>
<stop offset="1" stop-color="#FFAE00" stop-opacity="0"/>
</radialGradient>
<radialGradient id="paint17_radial_42_13096" cx="0" cy="0" r="1" gradientUnits="userSpaceOnUse" gradientTransform="translate(390.104 341.82) rotate(42.2737) scale(636.105 629.219)">
<stop stop-color="#FFAE00"/>
<stop offset="1" stop-color="#FFAE00" stop-opacity="0"/>
</radialGradient>
<radialGradient id="paint18_radial_42_13096" cx="0" cy="0" r="1" gradientUnits="userSpaceOnUse" gradientTransform="translate(397.181 351.126) rotate(42.2737) scale(636.105 629.219)">
<stop stop-color="#FFAE00"/>
<stop offset="1" stop-color="#FFAE00" stop-opacity="0"/>
</radialGradient>
<radialGradient id="paint19_radial_42_13096" cx="0" cy="0" r="1" gradientUnits="userSpaceOnUse" gradientTransform="translate(404.258 360.433) rotate(42.2737) scale(636.105 629.219)">
<stop stop-color="#FFAE00"/>
<stop offset="1" stop-color="#FFAE00" stop-opacity="0"/>
</radialGradient>
<radialGradient id="paint20_radial_42_13096" cx="0" cy="0" r="1" gradientUnits="userSpaceOnUse" gradientTransform="translate(411.335 369.74) rotate(42.2737) scale(636.105 629.219)">
<stop stop-color="#FFAE00"/>
<stop offset="1" stop-color="#FFAE00" stop-opacity="0"/>
</radialGradient>
<radialGradient id="paint21_radial_42_13096" cx="0" cy="0" r="1" gradientUnits="userSpaceOnUse" gradientTransform="translate(418.412 379.047) rotate(42.2737) scale(636.105 629.219)">
<stop stop-color="#FFAE00"/>
<stop offset="1" stop-color="#FFAE00" stop-opacity="0"/>
</radialGradient>
<radialGradient id="paint22_radial_42_13096" cx="0" cy="0" r="1" gradientUnits="userSpaceOnUse" gradientTransform="translate(425.489 388.354) rotate(42.2737) scale(636.105 629.219)">
<stop stop-color="#FFAE00"/>
<stop offset="1" stop-color="#FFAE00" stop-opacity="0"/>
</radialGradient>
<radialGradient id="paint23_radial_42_13096" cx="0" cy="0" r="1" gradientUnits="userSpaceOnUse" gradientTransform="translate(432.566 397.661) rotate(42.2737) scale(636.105 629.219)">
<stop stop-color="#FFAE00"/>
<stop offset="1" stop-color="#FFAE00" stop-opacity="0"/>
</radialGradient>
<radialGradient id="paint24_radial_42_13096" cx="0" cy="0" r="1" gradientUnits="userSpaceOnUse" gradientTransform="translate(439.642 406.968) rotate(42.2737) scale(636.105 629.219)">
<stop stop-color="#FFAE00"/>
<stop offset="1" stop-color="#FFAE00" stop-opacity="0"/>
</radialGradient>
<radialGradient id="paint25_radial_42_13096" cx="0" cy="0" r="1" gradientUnits="userSpaceOnUse" gradientTransform="translate(446.719 416.275) rotate(42.2737) scale(636.105 629.219)">
<stop stop-color="#FFAE00"/>
<stop offset="1" stop-color="#FFAE00" stop-opacity="0"/>
</radialGradient>
<radialGradient id="paint26_radial_42_13096" cx="0" cy="0" r="1" gradientUnits="userSpaceOnUse" gradientTransform="translate(453.796 425.582) rotate(42.2737) scale(636.105 629.219)">
<stop stop-color="#FFAE00"/>
<stop offset="1" stop-color="#FFAE00" stop-opacity="0"/>
</radialGradient>
<radialGradient id="paint27_radial_42_13096" cx="0" cy="0" r="1" gradientUnits="userSpaceOnUse" gradientTransform="translate(460.873 434.889) rotate(42.2737) scale(636.105 629.219)">
<stop stop-color="#FFAE00"/>
<stop offset="1" stop-color="#FFAE00" stop-opacity="0"/>
</radialGradient>
<radialGradient id="paint28_radial_42_13096" cx="0" cy="0" r="1" gradientUnits="userSpaceOnUse" gradientTransform="translate(467.95 444.196) rotate(42.2737) scale(636.105 629.219)">
<stop stop-color="#FFAE00"/>
<stop offset="1" stop-color="#FFAE00" stop-opacity="0"/>
</radialGradient>
<radialGradient id="paint29_radial_42_13096" cx="0" cy="0" r="1" gradientUnits="userSpaceOnUse" gradientTransform="translate(475.027 453.503) rotate(42.2737) scale(636.105 629.219)">
<stop stop-color="#FFAE00"/>
<stop offset="1" stop-color="#FFAE00" stop-opacity="0"/>
</radialGradient>
<radialGradient id="paint30_radial_42_13096" cx="0" cy="0" r="1" gradientUnits="userSpaceOnUse" gradientTransform="translate(482.104 462.81) rotate(42.2737) scale(636.105 629.219)">
<stop stop-color="#FFAE00"/>
<stop offset="1" stop-color="#FFAE00" stop-opacity="0"/>
</radialGradient>
<radialGradient id="paint31_radial_42_13096" cx="0" cy="0" r="1" gradientUnits="userSpaceOnUse" gradientTransform="translate(489.181 472.117) rotate(42.2737) scale(636.105 629.219)">
<stop stop-color="#FFAE00"/>
<stop offset="1" stop-color="#FFAE00" stop-opacity="0"/>
</radialGradient>
<radialGradient id="paint32_radial_42_13096" cx="0" cy="0" r="1" gradientUnits="userSpaceOnUse" gradientTransform="translate(496.258 481.424) rotate(42.2737) scale(636.105 629.219)">
<stop stop-color="#FFAE00"/>
<stop offset="1" stop-color="#FFAE00" stop-opacity="0"/>
</radialGradient>
<radialGradient id="paint33_radial_42_13096" cx="0" cy="0" r="1" gradientUnits="userSpaceOnUse" gradientTransform="translate(503.335 490.731) rotate(42.2737) scale(636.105 629.219)">
<stop stop-color="#FFAE00"/>
<stop offset="1" stop-color="#FFAE00" stop-opacity="0"/>
</radialGradient>
<radialGradient id="paint34_radial_42_13096" cx="0" cy="0" r="1" gradientUnits="userSpaceOnUse" gradientTransform="translate(510.412 500.038) rotate(42.2737) scale(636.105 629.219)">
<stop stop-color="#FFAE00"/>
<stop offset="1" stop-color="#FFAE00" stop-opacity="0"/>
</radialGradient>
<radialGradient id="paint35_radial_42_13096" cx="0" cy="0" r="1" gradientUnits="userSpaceOnUse" gradientTransform="translate(517.488 509.344) rotate(42.2737) scale(636.105 629.219)">
<stop stop-color="#FFAE00"/>
<stop offset="1" stop-color="#FFAE00" stop-opacity="0"/>
</radialGradient>
<radialGradient id="paint36_radial_42_13096" cx="0" cy="0" r="1" gradientUnits="userSpaceOnUse" gradientTransform="translate(524.565 518.651) rotate(42.2737) scale(636.105 629.219)">
<stop stop-color="#FFAE00"/>
<stop offset="1" stop-color="#FFAE00" stop-opacity="0"/>
</radialGradient>
<radialGradient id="paint37_radial_42_13096" cx="0" cy="0" r="1" gradientUnits="userSpaceOnUse" gradientTransform="translate(531.642 527.958) rotate(42.2737) scale(636.105 629.219)">
<stop stop-color="#FFAE00"/>
<stop offset="1" stop-color="#FFAE00" stop-opacity="0"/>
</radialGradient>
<radialGradient id="paint38_radial_42_13096" cx="0" cy="0" r="1" gradientUnits="userSpaceOnUse" gradientTransform="translate(538.719 537.265) rotate(42.2737) scale(636.105 629.219)">
<stop stop-color="#FFAE00"/>
<stop offset="1" stop-color="#FFAE00" stop-opacity="0"/>
</radialGradient>
<radialGradient id="paint39_radial_42_13096" cx="0" cy="0" r="1" gradientUnits="userSpaceOnUse" gradientTransform="translate(545.796 546.572) rotate(42.2737) scale(636.105 629.219)">
<stop stop-color="#FFAE00"/>
<stop offset="1" stop-color="#FFAE00" stop-opacity="0"/>
</radialGradient>
<radialGradient id="paint40_radial_42_13096" cx="0" cy="0" r="1" gradientUnits="userSpaceOnUse" gradientTransform="translate(552.873 555.879) rotate(42.2737) scale(636.105 629.219)">
<stop stop-color="#FFAE00"/>
<stop offset="1" stop-color="#FFAE00" stop-opacity="0"/>
</radialGradient>
<radialGradient id="paint41_radial_42_13096" cx="0" cy="0" r="1" gradientUnits="userSpaceOnUse" gradientTransform="translate(559.95 565.186) rotate(42.2737) scale(636.105 629.219)">
<stop stop-color="#FFAE00"/>
<stop offset="1" stop-color="#FFAE00" stop-opacity="0"/>
</radialGradient>
<radialGradient id="paint42_radial_42_13096" cx="0" cy="0" r="1" gradientUnits="userSpaceOnUse" gradientTransform="translate(567.027 574.493) rotate(42.2737) scale(636.105 629.219)">
<stop stop-color="#FFAE00"/>
<stop offset="1" stop-color="#FFAE00" stop-opacity="0"/>
</radialGradient>
<radialGradient id="paint43_radial_42_13096" cx="0" cy="0" r="1" gradientUnits="userSpaceOnUse" gradientTransform="translate(574.104 583.8) rotate(42.2737) scale(636.105 629.219)">
<stop stop-color="#FFAE00"/>
<stop offset="1" stop-color="#FFAE00" stop-opacity="0"/>
</radialGradient>
<radialGradient id="paint44_radial_42_13096" cx="0" cy="0" r="1" gradientUnits="userSpaceOnUse" gradientTransform="translate(581.181 593.107) rotate(42.2737) scale(636.105 629.219)">
<stop stop-color="#FFAE00"/>
<stop offset="1" stop-color="#FFAE00" stop-opacity="0"/>
</radialGradient>
<radialGradient id="paint45_radial_42_13096" cx="0" cy="0" r="1" gradientUnits="userSpaceOnUse" gradientTransform="translate(588.257 602.414) rotate(42.2737) scale(636.105 629.219)">
<stop stop-color="#FFAE00"/>
<stop offset="1" stop-color="#FFAE00" stop-opacity="0"/>
</radialGradient>
<radialGradient id="paint46_radial_42_13096" cx="0" cy="0" r="1" gradientUnits="userSpaceOnUse" gradientTransform="translate(595.334 611.721) rotate(42.2737) scale(636.105 629.219)">
<stop stop-color="#FFAE00"/>
<stop offset="1" stop-color="#FFAE00" stop-opacity="0"/>
</radialGradient>
<radialGradient id="paint47_radial_42_13096" cx="0" cy="0" r="1" gradientUnits="userSpaceOnUse" gradientTransform="translate(602.411 621.028) rotate(42.2737) scale(636.105 629.219)">
<stop stop-color="#FFAE00"/>
<stop offset="1" stop-color="#FFAE00" stop-opacity="0"/>
</radialGradient>
<radialGradient id="paint48_radial_42_13096" cx="0" cy="0" r="1" gradientUnits="userSpaceOnUse" gradientTransform="translate(609.488 630.335) rotate(42.2737) scale(636.105 629.219)">
<stop stop-color="#FFAE00"/>
<stop offset="1" stop-color="#FFAE00" stop-opacity="0"/>
</radialGradient>
<radialGradient id="paint49_radial_42_13096" cx="0" cy="0" r="1" gradientUnits="userSpaceOnUse" gradientTransform="translate(616.565 639.642) rotate(42.2737) scale(636.105 629.219)">
<stop stop-color="#FFAE00"/>
<stop offset="1" stop-color="#FFAE00" stop-opacity="0"/>
</radialGradient>
<radialGradient id="paint50_radial_42_13096" cx="0" cy="0" r="1" gradientUnits="userSpaceOnUse" gradientTransform="translate(623.642 648.949) rotate(42.2737) scale(636.105 629.219)">
<stop stop-color="#FFAE00"/>
<stop offset="1" stop-color="#FFAE00" stop-opacity="0"/>
</radialGradient>
<radialGradient id="paint51_radial_42_13096" cx="0" cy="0" r="1" gradientUnits="userSpaceOnUse" gradientTransform="translate(630.719 658.256) rotate(42.2737) scale(636.105 629.219)">
<stop stop-color="#FFAE00"/>
<stop offset="1" stop-color="#FFAE00" stop-opacity="0"/>
</radialGradient>
<radialGradient id="paint52_radial_42_13096" cx="0" cy="0" r="1" gradientUnits="userSpaceOnUse" gradientTransform="translate(637.796 667.563) rotate(42.2737) scale(636.105 629.219)">
<stop stop-color="#FFAE00"/>
<stop offset="1" stop-color="#FFAE00" stop-opacity="0"/>
</radialGradient>
<radialGradient id="paint53_radial_42_13096" cx="0" cy="0" r="1" gradientUnits="userSpaceOnUse" gradientTransform="translate(644.873 676.87) rotate(42.2737) scale(636.105 629.219)">
<stop stop-color="#FFAE00"/>
<stop offset="1" stop-color="#FFAE00" stop-opacity="0"/>
</radialGradient>
<radialGradient id="paint54_radial_42_13096" cx="0" cy="0" r="1" gradientUnits="userSpaceOnUse" gradientTransform="translate(651.95 686.176) rotate(42.2737) scale(636.105 629.219)">
<stop stop-color="#FFAE00"/>
<stop offset="1" stop-color="#FFAE00" stop-opacity="0"/>
</radialGradient>
<radialGradient id="paint55_radial_42_13096" cx="0" cy="0" r="1" gradientUnits="userSpaceOnUse" gradientTransform="translate(659.027 695.483) rotate(42.2737) scale(636.105 629.219)">
<stop stop-color="#FFAE00"/>
<stop offset="1" stop-color="#FFAE00" stop-opacity="0"/>
</radialGradient>
<radialGradient id="paint56_radial_42_13096" cx="0" cy="0" r="1" gradientUnits="userSpaceOnUse" gradientTransform="translate(666.103 704.79) rotate(42.2737) scale(636.105 629.219)">
<stop stop-color="#FFAE00"/>
<stop offset="1" stop-color="#FFAE00" stop-opacity="0"/>
</radialGradient>
<radialGradient id="paint57_radial_42_13096" cx="0" cy="0" r="1" gradientUnits="userSpaceOnUse" gradientTransform="translate(673.18 714.097) rotate(42.2737) scale(636.105 629.219)">
<stop stop-color="#FFAE00"/>
<stop offset="1" stop-color="#FFAE00" stop-opacity="0"/>
</radialGradient>
<radialGradient id="paint58_radial_42_13096" cx="0" cy="0" r="1" gradientUnits="userSpaceOnUse" gradientTransform="translate(680.257 723.404) rotate(42.2737) scale(636.105 629.219)">
<stop stop-color="#FFAE00"/>
<stop offset="1" stop-color="#FFAE00" stop-opacity="0"/>
</radialGradient>
<radialGradient id="paint59_radial_42_13096" cx="0" cy="0" r="1" gradientUnits="userSpaceOnUse" gradientTransform="translate(687.334 732.711) rotate(42.2737) scale(636.105 629.219)">
<stop stop-color="#FFAE00"/>
<stop offset="1" stop-color="#FFAE00" stop-opacity="0"/>
</radialGradient>
<radialGradient id="paint60_radial_42_13096" cx="0" cy="0" r="1" gradientUnits="userSpaceOnUse" gradientTransform="translate(694.411 742.018) rotate(42.2737) scale(636.105 629.219)">
<stop stop-color="#FFAE00"/>
<stop offset="1" stop-color="#FFAE00" stop-opacity="0"/>
</radialGradient>
<radialGradient id="paint61_radial_42_13096" cx="0" cy="0" r="1" gradientUnits="userSpaceOnUse" gradientTransform="translate(701.488 751.325) rotate(42.2737) scale(636.105 629.219)">
<stop stop-color="#FFAE00"/>
<stop offset="1" stop-color="#FFAE00" stop-opacity="0"/>
</radialGradient>
<radialGradient id="paint62_radial_42_13096" cx="0" cy="0" r="1" gradientUnits="userSpaceOnUse" gradientTransform="translate(708.565 760.632) rotate(42.2737) scale(636.105 629.219)">
<stop stop-color="#FFAE00"/>
<stop offset="1" stop-color="#FFAE00" stop-opacity="0"/>
</radialGradient>
<radialGradient id="paint63_radial_42_13096" cx="0" cy="0" r="1" gradientUnits="userSpaceOnUse" gradientTransform="translate(715.642 769.939) rotate(42.2737) scale(636.105 629.219)">
<stop stop-color="#FFAE00"/>
<stop offset="1" stop-color="#FFAE00" stop-opacity="0"/>
</radialGradient>
<radialGradient id="paint64_radial_42_13096" cx="0" cy="0" r="1" gradientUnits="userSpaceOnUse" gradientTransform="translate(722.719 779.246) rotate(42.2737) scale(636.105 629.219)">
<stop stop-color="#FFAE00"/>
<stop offset="1" stop-color="#FFAE00" stop-opacity="0"/>
</radialGradient>
<radialGradient id="paint65_radial_42_13096" cx="0" cy="0" r="1" gradientUnits="userSpaceOnUse" gradientTransform="translate(729.796 788.553) rotate(42.2737) scale(636.105 629.219)">
<stop stop-color="#FFAE00"/>
<stop offset="1" stop-color="#FFAE00" stop-opacity="0"/>
</radialGradient>
<radialGradient id="paint66_radial_42_13096" cx="0" cy="0" r="1" gradientUnits="userSpaceOnUse" gradientTransform="translate(736.872 797.86) rotate(42.2737) scale(636.105 629.219)">
<stop stop-color="#FFAE00"/>
<stop offset="1" stop-color="#FFAE00" stop-opacity="0"/>
</radialGradient>
<radialGradient id="paint67_radial_42_13096" cx="0" cy="0" r="1" gradientUnits="userSpaceOnUse" gradientTransform="translate(743.949 807.167) rotate(42.2737) scale(636.105 629.219)">
<stop stop-color="#FFAE00"/>
<stop offset="1" stop-color="#FFAE00" stop-opacity="0"/>
</radialGradient>
<radialGradient id="paint68_radial_42_13096" cx="0" cy="0" r="1" gradientUnits="userSpaceOnUse" gradientTransform="translate(751.026 816.474) rotate(42.2737) scale(636.105 629.219)">
<stop stop-color="#FFAE00"/>
<stop offset="1" stop-color="#FFAE00" stop-opacity="0"/>
</radialGradient>
<radialGradient id="paint69_radial_42_13096" cx="0" cy="0" r="1" gradientUnits="userSpaceOnUse" gradientTransform="translate(758.103 825.781) rotate(42.2737) scale(636.105 629.219)">
<stop stop-color="#FFAE00"/>
<stop offset="1" stop-color="#FFAE00" stop-opacity="0"/>
</radialGradient>
<radialGradient id="paint70_radial_42_13096" cx="0" cy="0" r="1" gradientUnits="userSpaceOnUse" gradientTransform="translate(765.18 835.088) rotate(42.2737) scale(636.105 629.219)">
<stop stop-color="#FFAE00"/>
<stop offset="1" stop-color="#FFAE00" stop-opacity="0"/>
</radialGradient>
<radialGradient id="paint71_radial_42_13096" cx="0" cy="0" r="1" gradientUnits="userSpaceOnUse" gradientTransform="translate(772.257 844.395) rotate(42.2737) scale(636.105 629.219)">
<stop stop-color="#FFAE00"/>
<stop offset="1" stop-color="#FFAE00" stop-opacity="0"/>
</radialGradient>
<radialGradient id="paint72_radial_42_13096" cx="0" cy="0" r="1" gradientUnits="userSpaceOnUse" gradientTransform="translate(779.334 853.702) rotate(42.2737) scale(636.105 629.219)">
<stop stop-color="#FFAE00"/>
<stop offset="1" stop-color="#FFAE00" stop-opacity="0"/>
</radialGradient>
<radialGradient id="paint73_radial_42_13096" cx="0" cy="0" r="1" gradientUnits="userSpaceOnUse" gradientTransform="translate(786.411 863.009) rotate(42.2737) scale(636.105 629.219)">
<stop stop-color="#FFAE00"/>
<stop offset="1" stop-color="#FFAE00" stop-opacity="0"/>
</radialGradient>
<radialGradient id="paint74_radial_42_13096" cx="0" cy="0" r="1" gradientUnits="userSpaceOnUse" gradientTransform="translate(793.488 872.316) rotate(42.2737) scale(636.105 629.219)">
<stop stop-color="#FFAE00"/>
<stop offset="1" stop-color="#FFAE00" stop-opacity="0"/>
</radialGradient>
<radialGradient id="paint75_radial_42_13096" cx="0" cy="0" r="1" gradientUnits="userSpaceOnUse" gradientTransform="translate(800.565 881.623) rotate(42.2737) scale(636.105 629.219)">
<stop stop-color="#FFAE00"/>
<stop offset="1" stop-color="#FFAE00" stop-opacity="0"/>
</radialGradient>
<radialGradient id="paint76_radial_42_13096" cx="0" cy="0" r="1" gradientUnits="userSpaceOnUse" gradientTransform="translate(807.642 890.93) rotate(42.2737) scale(636.105 629.219)">
<stop stop-color="#FFAE00"/>
<stop offset="1" stop-color="#FFAE00" stop-opacity="0"/>
</radialGradient>
<radialGradient id="paint77_radial_42_13096" cx="0" cy="0" r="1" gradientUnits="userSpaceOnUse" gradientTransform="translate(814.718 900.237) rotate(42.2737) scale(636.105 629.219)">
<stop stop-color="#FFAE00"/>
<stop offset="1" stop-color="#FFAE00" stop-opacity="0"/>
</radialGradient>
</defs>
</svg>
