<svg width="600" height="1900" viewBox="0 0 600 1900" fill="none" xmlns="http://www.w3.org/2000/svg">
<g opacity="0.7" filter="url(#filter0_f_312_2107)">
<path d="M-96.7527 773.796C-69.7141 789.261 -50.6432 815.271 -27.5328 836.151C1.21158 862.019 36.1971 879.956 73.9797 888.196C104.959 894.9 137.326 894.999 167.177 905.544C225.418 925.978 265.307 986.623 266.311 1048.28C267.315 1109.94 232.234 1169.72 180.672 1203.53C163.111 1215.05 143.887 1223.8 123.67 1229.49C85.7518 1240.16 45.5409 1239.69 6.3584 1235.61C-61.3249 1228.56 -132.28 1190.12 -174.944 1135.93C-193.962 1111.71 -210.035 1085.32 -222.826 1057.31C-243.955 1011.24 -255.957 961.525 -258.167 910.898C-259.963 867.527 -258.167 819.447 -223.755 787.836C-189.343 756.225 -137.088 750.71 -96.7527 773.796Z" fill="#FFCA59" fill-opacity="0.8"/>
</g>
<path fill-rule="evenodd" clip-rule="evenodd" d="M-109.844 1700.39C-109.408 1700.8 -108.718 1700.79 -108.302 1700.35L269.912 1304.42L259.97 648.898C259.961 648.296 259.465 647.816 258.863 647.825C258.261 647.834 257.781 648.329 257.79 648.931L267.718 1303.56L-109.879 1698.85C-110.295 1699.28 -110.279 1699.97 -109.844 1700.39Z" fill="url(#paint0_radial_312_2107)" fill-opacity="0.3"/>
<path fill-rule="evenodd" clip-rule="evenodd" d="M-119.259 1694.55C-118.823 1694.97 -118.133 1694.95 -117.717 1694.52L260.497 1298.58L250.555 643.064C250.546 642.462 250.05 641.982 249.448 641.991C248.846 642 248.366 642.495 248.375 643.097L258.303 1297.72L-119.294 1693.01C-119.71 1693.45 -119.694 1694.14 -119.259 1694.55Z" fill="url(#paint1_radial_312_2107)" fill-opacity="0.3"/>
<path fill-rule="evenodd" clip-rule="evenodd" d="M-128.674 1688.72C-128.238 1689.14 -127.548 1689.12 -127.132 1688.68L251.082 1292.75L241.14 637.231C241.131 636.629 240.636 636.148 240.034 636.157C239.432 636.166 238.951 636.662 238.96 637.264L248.888 1291.89L-128.709 1687.18C-129.125 1687.61 -129.109 1688.3 -128.674 1688.72Z" fill="url(#paint2_radial_312_2107)" fill-opacity="0.3"/>
<path fill-rule="evenodd" clip-rule="evenodd" d="M-138.088 1682.89C-137.653 1683.3 -136.963 1683.29 -136.547 1682.85L241.668 1286.91L231.726 631.397C231.717 630.795 231.221 630.314 230.619 630.323C230.017 630.332 229.536 630.828 229.546 631.43L239.474 1286.05L-138.123 1681.34C-138.539 1681.78 -138.523 1682.47 -138.088 1682.89Z" fill="url(#paint3_radial_312_2107)" fill-opacity="0.3"/>
<path fill-rule="evenodd" clip-rule="evenodd" d="M-147.503 1677.05C-147.068 1677.47 -146.377 1677.45 -145.962 1677.02L232.253 1281.08L222.311 625.563C222.302 624.961 221.806 624.48 221.204 624.489C220.602 624.498 220.121 624.994 220.131 625.596L230.059 1280.22L-147.538 1675.51C-147.954 1675.95 -147.938 1676.64 -147.503 1677.05Z" fill="url(#paint4_radial_312_2107)" fill-opacity="0.3"/>
<path fill-rule="evenodd" clip-rule="evenodd" d="M-156.918 1671.22C-156.483 1671.63 -155.792 1671.62 -155.377 1671.18L222.838 1275.25L212.896 619.729C212.887 619.127 212.391 618.646 211.789 618.655C211.187 618.664 210.707 619.16 210.716 619.762L220.644 1274.39L-156.953 1669.68C-157.369 1670.11 -157.353 1670.8 -156.918 1671.22Z" fill="url(#paint5_radial_312_2107)" fill-opacity="0.3"/>
<path fill-rule="evenodd" clip-rule="evenodd" d="M-166.333 1665.38C-165.897 1665.8 -165.207 1665.78 -164.791 1665.35L213.423 1269.41L203.481 613.895C203.472 613.293 202.977 612.812 202.374 612.821C201.773 612.831 201.292 613.326 201.301 613.928L211.229 1268.55L-166.368 1663.84C-166.784 1664.28 -166.768 1664.97 -166.333 1665.38Z" fill="url(#paint6_radial_312_2107)" fill-opacity="0.3"/>
<path fill-rule="evenodd" clip-rule="evenodd" d="M-175.747 1659.55C-175.312 1659.97 -174.622 1659.95 -174.206 1659.51L204.009 1263.58L194.067 608.061C194.058 607.459 193.562 606.978 192.96 606.987C192.358 606.997 191.877 607.492 191.887 608.094L201.815 1262.72L-175.782 1658.01C-176.198 1658.44 -176.182 1659.13 -175.747 1659.55Z" fill="url(#paint7_radial_312_2107)" fill-opacity="0.3"/>
<path fill-rule="evenodd" clip-rule="evenodd" d="M-185.162 1653.72C-184.727 1654.13 -184.037 1654.12 -183.621 1653.68L194.594 1257.74L184.652 602.227C184.643 601.625 184.147 601.144 183.545 601.153C182.943 601.163 182.462 601.658 182.472 602.26L192.4 1256.88L-185.197 1652.17C-185.613 1652.61 -185.597 1653.3 -185.162 1653.72Z" fill="url(#paint8_radial_312_2107)" fill-opacity="0.3"/>
<path fill-rule="evenodd" clip-rule="evenodd" d="M-194.577 1647.88C-194.142 1648.3 -193.451 1648.28 -193.036 1647.85L185.179 1251.91L175.237 596.393C175.228 595.791 174.732 595.31 174.13 595.319C173.528 595.329 173.048 595.824 173.057 596.426L182.985 1251.05L-194.612 1646.34C-195.028 1646.78 -195.012 1647.47 -194.577 1647.88Z" fill="url(#paint9_radial_312_2107)" fill-opacity="0.3"/>
<path fill-rule="evenodd" clip-rule="evenodd" d="M-203.992 1642.05C-203.556 1642.46 -202.866 1642.45 -202.45 1642.01L175.764 1246.08L165.822 590.559C165.813 589.957 165.317 589.477 164.715 589.486C164.113 589.495 163.633 589.99 163.642 590.592L173.57 1245.22L-204.027 1640.51C-204.443 1640.94 -204.427 1641.63 -203.992 1642.05Z" fill="url(#paint10_radial_312_2107)" fill-opacity="0.3"/>
<path fill-rule="evenodd" clip-rule="evenodd" d="M-213.406 1636.21C-212.971 1636.63 -212.281 1636.61 -211.865 1636.18L166.349 1240.24L156.407 584.725C156.398 584.123 155.903 583.643 155.301 583.652C154.699 583.661 154.218 584.156 154.227 584.758L164.156 1239.38L-213.442 1634.67C-213.858 1635.11 -213.842 1635.8 -213.406 1636.21Z" fill="url(#paint11_radial_312_2107)" fill-opacity="0.3"/>
<path fill-rule="evenodd" clip-rule="evenodd" d="M-222.821 1630.38C-222.386 1630.8 -221.696 1630.78 -221.28 1630.35L156.934 1234.41L146.993 578.891C146.983 578.289 146.488 577.809 145.886 577.818C145.284 577.827 144.803 578.322 144.812 578.924L154.741 1233.55L-222.856 1628.84C-223.272 1629.27 -223.257 1629.96 -222.821 1630.38Z" fill="url(#paint12_radial_312_2107)" fill-opacity="0.3"/>
<path fill-rule="evenodd" clip-rule="evenodd" d="M-232.236 1624.55C-231.801 1624.96 -231.111 1624.95 -230.695 1624.51L147.52 1228.57L137.578 573.057C137.569 572.455 137.073 571.975 136.471 571.984C135.869 571.993 135.388 572.488 135.398 573.09L145.326 1227.71L-232.271 1623.01C-232.687 1623.44 -232.671 1624.13 -232.236 1624.55Z" fill="url(#paint13_radial_312_2107)" fill-opacity="0.3"/>
<path fill-rule="evenodd" clip-rule="evenodd" d="M-241.651 1618.71C-241.216 1619.13 -240.525 1619.11 -240.11 1618.68L138.105 1222.74L128.163 567.224C128.154 566.622 127.658 566.141 127.056 566.15C126.454 566.159 125.974 566.655 125.983 567.257L135.911 1221.88L-241.686 1617.17C-242.102 1617.61 -242.086 1618.3 -241.651 1618.71Z" fill="url(#paint14_radial_312_2107)" fill-opacity="0.3"/>
<path fill-rule="evenodd" clip-rule="evenodd" d="M-251.065 1612.88C-250.63 1613.29 -249.94 1613.28 -249.524 1612.84L128.69 1216.91L118.748 561.39C118.739 560.788 118.244 560.307 117.642 560.316C117.04 560.325 116.559 560.821 116.568 561.423L126.497 1216.05L-251.101 1611.34C-251.517 1611.77 -251.501 1612.46 -251.065 1612.88Z" fill="url(#paint15_radial_312_2107)" fill-opacity="0.3"/>
<path fill-rule="evenodd" clip-rule="evenodd" d="M-260.48 1607.04C-260.045 1607.46 -259.355 1607.44 -258.939 1607.01L119.275 1211.07L109.333 555.556C109.324 554.954 108.829 554.473 108.227 554.482C107.625 554.491 107.144 554.987 107.153 555.589L117.082 1210.21L-260.516 1605.5C-260.931 1605.94 -260.916 1606.63 -260.48 1607.04Z" fill="url(#paint16_radial_312_2107)" fill-opacity="0.3"/>
<path fill-rule="evenodd" clip-rule="evenodd" d="M-269.895 1601.21C-269.46 1601.63 -268.77 1601.61 -268.354 1601.18L109.86 1205.24L99.9185 549.722C99.9094 549.12 99.414 548.639 98.8119 548.648C98.2099 548.657 97.7293 549.153 97.7385 549.755L107.667 1204.38L-269.93 1599.67C-270.346 1600.1 -270.331 1600.79 -269.895 1601.21Z" fill="url(#paint17_radial_312_2107)" fill-opacity="0.3"/>
<path fill-rule="evenodd" clip-rule="evenodd" d="M-279.31 1595.38C-278.875 1595.79 -278.185 1595.78 -277.769 1595.34L100.446 1199.41L90.5036 543.888C90.4945 543.286 89.999 542.805 89.397 542.814C88.795 542.823 88.3144 543.319 88.3235 543.921L98.2519 1198.54L-279.345 1593.84C-279.761 1594.27 -279.745 1594.96 -279.31 1595.38Z" fill="url(#paint18_radial_312_2107)" fill-opacity="0.3"/>
<path fill-rule="evenodd" clip-rule="evenodd" d="M-288.724 1589.54C-288.289 1589.96 -287.599 1589.94 -287.183 1589.51L91.0312 1193.57L81.0892 538.054C81.0801 537.452 80.5847 536.971 79.9826 536.98C79.3807 536.989 78.9 537.485 78.9092 538.087L88.8375 1192.71L-288.76 1588C-289.176 1588.44 -289.16 1589.13 -288.724 1589.54Z" fill="url(#paint19_radial_312_2107)" fill-opacity="0.3"/>
<path fill-rule="evenodd" clip-rule="evenodd" d="M-298.139 1583.71C-297.704 1584.13 -297.014 1584.11 -296.598 1583.67L81.6162 1187.74L71.6742 532.22C71.6652 531.618 71.1697 531.137 70.5677 531.146C69.9657 531.155 69.485 531.651 69.4942 532.253L79.4225 1186.88L-298.175 1582.17C-298.591 1582.6 -298.575 1583.29 -298.139 1583.71Z" fill="url(#paint20_radial_312_2107)" fill-opacity="0.3"/>
<path fill-rule="evenodd" clip-rule="evenodd" d="M-307.554 1577.88C-307.119 1578.29 -306.429 1578.28 -306.013 1577.84L72.2013 1181.9L62.2593 526.386C62.2503 525.784 61.7548 525.303 61.1527 525.312C60.5508 525.321 60.0701 525.817 60.0793 526.419L70.0076 1181.04L-307.59 1576.33C-308.006 1576.77 -307.99 1577.46 -307.554 1577.88Z" fill="url(#paint21_radial_312_2107)" fill-opacity="0.3"/>
<path fill-rule="evenodd" clip-rule="evenodd" d="M-316.969 1572.04C-316.534 1572.46 -315.844 1572.44 -315.428 1572.01L62.7865 1176.07L52.8445 520.552C52.8355 519.95 52.34 519.469 51.7379 519.479C51.136 519.488 50.6553 519.983 50.6645 520.585L60.5928 1175.21L-317.004 1570.5C-317.42 1570.94 -317.405 1571.63 -316.969 1572.04Z" fill="url(#paint22_radial_312_2107)" fill-opacity="0.3"/>
<path fill-rule="evenodd" clip-rule="evenodd" d="M-326.384 1566.21C-325.948 1566.62 -325.258 1566.61 -324.842 1566.17L53.372 1170.24L43.43 514.718C43.421 514.116 42.9255 513.636 42.3235 513.645C41.7215 513.654 41.2408 514.149 41.25 514.751L51.1783 1169.38L-326.419 1564.67C-326.835 1565.1 -326.819 1565.79 -326.384 1566.21Z" fill="url(#paint23_radial_312_2107)" fill-opacity="0.3"/>
<path fill-rule="evenodd" clip-rule="evenodd" d="M-335.799 1560.37C-335.363 1560.79 -334.673 1560.77 -334.257 1560.34L43.957 1164.4L34.0151 508.884C34.006 508.282 33.5105 507.802 32.9085 507.811C32.3065 507.82 31.8258 508.315 31.835 508.917L41.7633 1163.54L-335.834 1558.83C-336.25 1559.27 -336.234 1559.96 -335.799 1560.37Z" fill="url(#paint24_radial_312_2107)" fill-opacity="0.3"/>
<path fill-rule="evenodd" clip-rule="evenodd" d="M-345.214 1554.54C-344.778 1554.96 -344.088 1554.94 -343.672 1554.5L34.5421 1158.57L24.6002 503.05C24.5911 502.449 24.0956 501.968 23.4936 501.977C22.8916 501.986 22.4109 502.481 22.4201 503.084L32.3484 1157.71L-345.249 1553C-345.665 1553.43 -345.649 1554.12 -345.214 1554.54Z" fill="url(#paint25_radial_312_2107)" fill-opacity="0.3"/>
<path fill-rule="evenodd" clip-rule="evenodd" d="M-354.628 1548.71C-354.193 1549.12 -353.503 1549.11 -353.087 1548.67L25.1274 1152.73L15.1854 497.216C15.1763 496.615 14.6809 496.134 14.0788 496.143C13.4769 496.152 12.9962 496.648 13.0054 497.25L22.9337 1151.87L-354.664 1547.16C-355.079 1547.6 -355.064 1548.29 -354.628 1548.71Z" fill="url(#paint26_radial_312_2107)" fill-opacity="0.3"/>
<path fill-rule="evenodd" clip-rule="evenodd" d="M-364.043 1542.87C-363.607 1543.29 -362.917 1543.27 -362.501 1542.84L15.7128 1146.9L5.77087 491.383C5.76179 490.781 5.26632 490.3 4.66427 490.309C4.0623 490.318 3.58163 490.814 3.59082 491.416L13.5191 1146.04L-364.078 1541.33C-364.494 1541.77 -364.478 1542.46 -364.043 1542.87Z" fill="url(#paint27_radial_312_2107)" fill-opacity="0.3"/>
<path fill-rule="evenodd" clip-rule="evenodd" d="M-373.458 1537.04C-373.022 1537.45 -372.332 1537.44 -371.916 1537L6.29802 1141.07L-3.64393 485.549C-3.65301 484.947 -4.14847 484.466 -4.75052 484.475C-5.35249 484.484 -5.83317 484.98 -5.82398 485.582L4.10435 1140.21L-373.493 1535.5C-373.909 1535.93 -373.893 1536.62 -373.458 1537.04Z" fill="url(#paint28_radial_312_2107)" fill-opacity="0.3"/>
<path fill-rule="evenodd" clip-rule="evenodd" d="M-382.873 1531.2C-382.437 1531.62 -381.747 1531.6 -381.331 1531.17L-3.11702 1135.23L-13.059 479.715C-13.068 479.113 -13.5635 478.632 -14.1656 478.641C-14.7675 478.65 -15.2482 479.146 -15.239 479.748L-5.31069 1134.37L-382.908 1529.66C-383.324 1530.1 -383.308 1530.79 -382.873 1531.2Z" fill="url(#paint29_radial_312_2107)" fill-opacity="0.3"/>
<path fill-rule="evenodd" clip-rule="evenodd" d="M-392.287 1525.37C-391.852 1525.79 -391.162 1525.77 -390.746 1525.33L-12.5318 1129.4L-22.4737 473.881C-22.4828 473.279 -22.9782 472.798 -23.5803 472.807C-24.1823 472.816 -24.6629 473.312 -24.6538 473.914L-14.7254 1128.54L-392.323 1523.83C-392.739 1524.26 -392.723 1524.95 -392.287 1525.37Z" fill="url(#paint30_radial_312_2107)" fill-opacity="0.3"/>
<path fill-rule="evenodd" clip-rule="evenodd" d="M-401.702 1519.54C-401.267 1519.95 -400.576 1519.94 -400.161 1519.5L-21.9463 1123.56L-31.8883 468.047C-31.8973 467.445 -32.3928 466.964 -32.9948 466.973C-33.5968 466.982 -34.0775 467.478 -34.0683 468.08L-24.14 1122.7L-401.737 1517.99C-402.153 1518.43 -402.137 1519.12 -401.702 1519.54Z" fill="url(#paint31_radial_312_2107)" fill-opacity="0.3"/>
<path fill-rule="evenodd" clip-rule="evenodd" d="M-411.117 1513.7C-410.681 1514.12 -409.991 1514.1 -409.575 1513.67L-31.3611 1117.73L-41.303 462.213C-41.3121 461.611 -41.8076 461.13 -42.4096 461.139C-43.0116 461.148 -43.4923 461.644 -43.4831 462.246L-33.5548 1116.87L-411.152 1512.16C-411.568 1512.6 -411.552 1513.29 -411.117 1513.7Z" fill="url(#paint32_radial_312_2107)" fill-opacity="0.3"/>
<path fill-rule="evenodd" clip-rule="evenodd" d="M-420.532 1507.87C-420.096 1508.28 -419.406 1508.27 -418.99 1507.83L-40.7761 1111.9L-50.718 456.379C-50.7271 455.777 -51.2226 455.296 -51.8246 455.305C-52.4266 455.314 -52.9073 455.81 -52.8981 456.412L-42.9697 1111.04L-420.567 1506.33C-420.983 1506.76 -420.967 1507.45 -420.532 1507.87Z" fill="url(#paint33_radial_312_2107)" fill-opacity="0.3"/>
<path fill-rule="evenodd" clip-rule="evenodd" d="M-429.946 1502.03C-429.511 1502.45 -428.821 1502.43 -428.405 1502L-50.1908 1106.06L-60.1328 450.545C-60.1418 449.943 -60.6373 449.462 -61.2394 449.472C-61.8413 449.481 -62.322 449.976 -62.3128 450.578L-52.3845 1105.2L-429.982 1500.49C-430.398 1500.93 -430.382 1501.62 -429.946 1502.03Z" fill="url(#paint34_radial_312_2107)" fill-opacity="0.3"/>
<path fill-rule="evenodd" clip-rule="evenodd" d="M-439.361 1496.2C-438.926 1496.62 -438.236 1496.6 -437.82 1496.17L-59.6054 1100.23L-69.5474 444.711C-69.5564 444.109 -70.0519 443.628 -70.654 443.638C-71.2559 443.647 -71.7366 444.142 -71.7274 444.744L-61.7991 1099.37L-439.396 1494.66C-439.812 1495.09 -439.796 1495.78 -439.361 1496.2Z" fill="url(#paint35_radial_312_2107)" fill-opacity="0.3"/>
<path fill-rule="evenodd" clip-rule="evenodd" d="M-448.776 1490.37C-448.341 1490.78 -447.65 1490.77 -447.235 1490.33L-69.0203 1094.39L-78.9622 438.877C-78.9713 438.275 -79.4668 437.794 -80.0688 437.804C-80.6708 437.813 -81.1515 438.308 -81.1423 438.91L-71.214 1093.53L-448.811 1488.83C-449.227 1489.26 -449.211 1489.95 -448.776 1490.37Z" fill="url(#paint36_radial_312_2107)" fill-opacity="0.3"/>
<path fill-rule="evenodd" clip-rule="evenodd" d="M-458.191 1484.53C-457.755 1484.95 -457.065 1484.93 -456.649 1484.5L-78.4351 1088.56L-88.3771 433.043C-88.3862 432.441 -88.8816 431.961 -89.4837 431.97C-90.0856 431.979 -90.5663 432.474 -90.5571 433.076L-80.6288 1087.7L-458.226 1482.99C-458.642 1483.43 -458.626 1484.12 -458.191 1484.53Z" fill="url(#paint37_radial_312_2107)" fill-opacity="0.3"/>
<path fill-rule="evenodd" clip-rule="evenodd" d="M-467.606 1478.7C-467.17 1479.11 -466.48 1479.1 -466.064 1478.66L-87.8501 1082.73L-97.792 427.209C-97.8011 426.607 -98.2965 426.127 -98.8986 426.136C-99.5006 426.145 -99.9812 426.64 -99.9721 427.242L-90.0437 1081.87L-467.641 1477.16C-468.057 1477.59 -468.041 1478.28 -467.606 1478.7Z" fill="url(#paint38_radial_312_2107)" fill-opacity="0.3"/>
<path fill-rule="evenodd" clip-rule="evenodd" d="M-477.02 1472.86C-476.585 1473.28 -475.895 1473.26 -475.479 1472.83L-97.2645 1076.89L-107.206 421.376C-107.216 420.774 -107.711 420.293 -108.313 420.302C-108.915 420.311 -109.396 420.807 -109.387 421.409L-99.4582 1076.03L-477.055 1471.32C-477.471 1471.76 -477.456 1472.45 -477.02 1472.86Z" fill="url(#paint39_radial_312_2107)" fill-opacity="0.3"/>
<path fill-rule="evenodd" clip-rule="evenodd" d="M-486.435 1467.03C-486 1467.45 -485.31 1467.43 -484.894 1467L-106.679 1071.06L-116.621 415.541C-116.63 414.939 -117.126 414.459 -117.728 414.468C-118.33 414.477 -118.811 414.972 -118.801 415.575L-108.873 1070.2L-486.47 1465.49C-486.886 1465.92 -486.87 1466.61 -486.435 1467.03Z" fill="url(#paint40_radial_312_2107)" fill-opacity="0.3"/>
<path fill-rule="evenodd" clip-rule="evenodd" d="M-495.85 1461.2C-495.415 1461.61 -494.724 1461.6 -494.309 1461.16L-116.094 1065.22L-126.036 409.708C-126.045 409.106 -126.541 408.625 -127.143 408.634C-127.745 408.643 -128.226 409.139 -128.216 409.741L-118.288 1064.36L-495.885 1459.66C-496.301 1460.09 -496.285 1460.78 -495.85 1461.2Z" fill="url(#paint41_radial_312_2107)" fill-opacity="0.3"/>
<path fill-rule="evenodd" clip-rule="evenodd" d="M-505.265 1455.36C-504.829 1455.78 -504.139 1455.76 -503.723 1455.33L-125.509 1059.39L-135.451 403.874C-135.46 403.272 -135.956 402.791 -136.558 402.8C-137.16 402.809 -137.64 403.305 -137.631 403.907L-127.703 1058.53L-505.3 1453.82C-505.716 1454.26 -505.7 1454.95 -505.265 1455.36Z" fill="url(#paint42_radial_312_2107)" fill-opacity="0.3"/>
<path fill-rule="evenodd" clip-rule="evenodd" d="M-514.679 1449.53C-514.244 1449.94 -513.554 1449.93 -513.138 1449.49L-134.924 1053.56L-144.866 398.04C-144.875 397.438 -145.37 396.957 -145.972 396.966C-146.574 396.975 -147.055 397.471 -147.046 398.073L-137.117 1052.7L-514.715 1447.99C-515.13 1448.42 -515.115 1449.11 -514.679 1449.53Z" fill="url(#paint43_radial_312_2107)" fill-opacity="0.3"/>
<path fill-rule="evenodd" clip-rule="evenodd" d="M-524.094 1443.7C-523.659 1444.11 -522.969 1444.1 -522.553 1443.66L-144.339 1047.72L-154.281 392.206C-154.29 391.604 -154.785 391.123 -155.387 391.132C-155.989 391.141 -156.47 391.637 -156.461 392.239L-146.532 1046.86L-524.129 1442.15C-524.545 1442.59 -524.53 1443.28 -524.094 1443.7Z" fill="url(#paint44_radial_312_2107)" fill-opacity="0.3"/>
<path fill-rule="evenodd" clip-rule="evenodd" d="M-533.509 1437.86C-533.074 1438.28 -532.384 1438.26 -531.968 1437.83L-153.753 1041.89L-163.695 386.372C-163.705 385.77 -164.2 385.289 -164.802 385.298C-165.404 385.307 -165.885 385.803 -165.875 386.405L-155.947 1041.03L-533.544 1436.32C-533.96 1436.76 -533.944 1437.45 -533.509 1437.86Z" fill="url(#paint45_radial_312_2107)" fill-opacity="0.3"/>
<path fill-rule="evenodd" clip-rule="evenodd" d="M-542.924 1432.03C-542.489 1432.44 -541.798 1432.43 -541.383 1431.99L-163.168 1036.06L-173.11 380.538C-173.119 379.936 -173.615 379.455 -174.217 379.465C-174.819 379.474 -175.299 379.969 -175.29 380.571L-165.362 1035.2L-542.959 1430.49C-543.375 1430.92 -543.359 1431.61 -542.924 1432.03Z" fill="url(#paint46_radial_312_2107)" fill-opacity="0.3"/>
<path fill-rule="evenodd" clip-rule="evenodd" d="M-552.338 1426.19C-551.903 1426.61 -551.213 1426.59 -550.797 1426.16L-172.583 1030.22L-182.525 374.704C-182.534 374.102 -183.029 373.621 -183.631 373.631C-184.233 373.64 -184.714 374.135 -184.705 374.737L-174.776 1029.36L-552.374 1424.65C-552.79 1425.09 -552.774 1425.78 -552.338 1426.19Z" fill="url(#paint47_radial_312_2107)" fill-opacity="0.3"/>
<path fill-rule="evenodd" clip-rule="evenodd" d="M-561.753 1420.36C-561.318 1420.78 -560.628 1420.76 -560.212 1420.32L-181.998 1024.39L-191.94 368.87C-191.949 368.268 -192.444 367.787 -193.046 367.797C-193.648 367.806 -194.129 368.301 -194.12 368.903L-184.191 1023.53L-561.789 1418.82C-562.204 1419.25 -562.189 1419.94 -561.753 1420.36Z" fill="url(#paint48_radial_312_2107)" fill-opacity="0.3"/>
<path fill-rule="evenodd" clip-rule="evenodd" d="M-571.168 1414.53C-570.733 1414.94 -570.043 1414.93 -569.627 1414.49L-191.413 1018.55L-201.354 363.036C-201.364 362.434 -201.859 361.954 -202.461 361.963C-203.063 361.972 -203.544 362.467 -203.535 363.069L-193.606 1017.69L-571.203 1412.98C-571.619 1413.42 -571.604 1414.11 -571.168 1414.53Z" fill="url(#paint49_radial_312_2107)" fill-opacity="0.3"/>
<path fill-rule="evenodd" clip-rule="evenodd" d="M-580.583 1408.69C-580.148 1409.11 -579.458 1409.09 -579.042 1408.66L-200.827 1012.72L-210.769 357.202C-210.778 356.6 -211.274 356.12 -211.876 356.129C-212.478 356.138 -212.959 356.633 -212.949 357.236L-203.021 1011.86L-580.618 1407.15C-581.034 1407.59 -581.018 1408.28 -580.583 1408.69Z" fill="url(#paint50_radial_312_2107)" fill-opacity="0.3"/>
<path fill-rule="evenodd" clip-rule="evenodd" d="M-589.998 1402.86C-589.562 1403.27 -588.872 1403.26 -588.456 1402.82L-210.242 1006.89L-220.184 351.368C-220.193 350.767 -220.688 350.286 -221.291 350.295C-221.892 350.304 -222.373 350.799 -222.364 351.402L-212.436 1006.03L-590.033 1401.32C-590.449 1401.75 -590.433 1402.44 -589.998 1402.86Z" fill="url(#paint51_radial_312_2107)" fill-opacity="0.3"/>
<path fill-rule="evenodd" clip-rule="evenodd" d="M-599.412 1397.02C-598.977 1397.44 -598.287 1397.42 -597.871 1396.99L-219.657 1001.05L-229.599 345.534C-229.608 344.933 -230.103 344.452 -230.705 344.461C-231.307 344.47 -231.788 344.965 -231.779 345.568L-221.851 1000.19L-599.448 1395.48C-599.864 1395.92 -599.848 1396.61 -599.412 1397.02Z" fill="url(#paint52_radial_312_2107)" fill-opacity="0.3"/>
<path fill-rule="evenodd" clip-rule="evenodd" d="M-608.827 1391.19C-608.392 1391.61 -607.702 1391.59 -607.286 1391.15L-229.072 995.218L-239.014 339.701C-239.023 339.099 -239.518 338.618 -240.12 338.627C-240.722 338.636 -241.203 339.132 -241.194 339.734L-231.265 994.358L-608.863 1389.65C-609.278 1390.08 -609.263 1390.77 -608.827 1391.19Z" fill="url(#paint53_radial_312_2107)" fill-opacity="0.3"/>
<path fill-rule="evenodd" clip-rule="evenodd" d="M-618.242 1385.36C-617.807 1385.77 -617.117 1385.76 -616.701 1385.32L-238.486 989.384L-248.428 333.867C-248.438 333.265 -248.933 332.784 -249.535 332.793C-250.137 332.802 -250.618 333.298 -250.608 333.9L-240.68 988.524L-618.277 1383.81C-618.693 1384.25 -618.677 1384.94 -618.242 1385.36Z" fill="url(#paint54_radial_312_2107)" fill-opacity="0.3"/>
<path fill-rule="evenodd" clip-rule="evenodd" d="M-627.657 1379.52C-627.221 1379.94 -626.531 1379.92 -626.115 1379.49L-247.901 983.55L-257.843 328.033C-257.852 327.431 -258.348 326.95 -258.95 326.959C-259.552 326.968 -260.032 327.464 -260.023 328.066L-250.095 982.69L-627.692 1377.98C-628.108 1378.42 -628.092 1379.11 -627.657 1379.52Z" fill="url(#paint55_radial_312_2107)" fill-opacity="0.3"/>
<path fill-rule="evenodd" clip-rule="evenodd" d="M-637.072 1373.69C-636.636 1374.1 -635.946 1374.09 -635.53 1373.65L-257.316 977.716L-267.258 322.199C-267.267 321.597 -267.762 321.116 -268.365 321.125C-268.967 321.134 -269.447 321.63 -269.438 322.232L-259.51 976.856L-637.107 1372.15C-637.523 1372.58 -637.507 1373.27 -637.072 1373.69Z" fill="url(#paint56_radial_312_2107)" fill-opacity="0.3"/>
<path fill-rule="evenodd" clip-rule="evenodd" d="M-646.486 1367.85C-646.051 1368.27 -645.361 1368.25 -644.945 1367.82L-266.731 971.882L-276.673 316.365C-276.682 315.763 -277.177 315.282 -277.779 315.291C-278.381 315.3 -278.862 315.796 -278.853 316.398L-268.924 971.022L-646.522 1366.31C-646.938 1366.75 -646.922 1367.44 -646.486 1367.85Z" fill="url(#paint57_radial_312_2107)" fill-opacity="0.3"/>
<path fill-rule="evenodd" clip-rule="evenodd" d="M-655.901 1362.02C-655.466 1362.44 -654.776 1362.42 -654.36 1361.99L-276.146 966.048L-286.088 310.531C-286.097 309.929 -286.592 309.448 -287.194 309.458C-287.796 309.467 -288.277 309.962 -288.268 310.564L-278.339 965.188L-655.936 1360.48C-656.352 1360.91 -656.337 1361.6 -655.901 1362.02Z" fill="url(#paint58_radial_312_2107)" fill-opacity="0.3"/>
<path fill-rule="evenodd" clip-rule="evenodd" d="M-665.316 1356.19C-664.88 1356.6 -664.19 1356.59 -663.774 1356.15L-285.56 960.214L-295.502 304.697C-295.511 304.095 -296.007 303.614 -296.609 303.624C-297.211 303.633 -297.691 304.128 -297.682 304.73L-287.754 959.354L-665.351 1354.64C-665.767 1355.08 -665.751 1355.77 -665.316 1356.19Z" fill="url(#paint59_radial_312_2107)" fill-opacity="0.3"/>
<path fill-rule="evenodd" clip-rule="evenodd" d="M-674.731 1350.35C-674.295 1350.77 -673.605 1350.75 -673.189 1350.32L-294.975 954.38L-304.917 298.863C-304.926 298.261 -305.422 297.781 -306.024 297.79C-306.626 297.799 -307.106 298.294 -307.097 298.896L-297.169 953.52L-674.766 1348.81C-675.182 1349.25 -675.166 1349.94 -674.731 1350.35Z" fill="url(#paint60_radial_312_2107)" fill-opacity="0.3"/>
<path fill-rule="evenodd" clip-rule="evenodd" d="M-684.146 1344.52C-683.71 1344.93 -683.02 1344.92 -682.604 1344.48L-304.39 948.546L-314.332 293.029C-314.341 292.427 -314.836 291.947 -315.438 291.956C-316.04 291.965 -316.521 292.46 -316.512 293.062L-306.584 947.686L-684.181 1342.98C-684.597 1343.41 -684.581 1344.1 -684.146 1344.52Z" fill="url(#paint61_radial_312_2107)" fill-opacity="0.3"/>
<path fill-rule="evenodd" clip-rule="evenodd" d="M-693.56 1338.68C-693.125 1339.1 -692.435 1339.08 -692.019 1338.65L-313.805 942.713L-323.747 287.195C-323.756 286.593 -324.251 286.113 -324.853 286.122C-325.455 286.131 -325.936 286.626 -325.927 287.228L-315.998 941.852L-693.596 1337.14C-694.012 1337.58 -693.996 1338.27 -693.56 1338.68Z" fill="url(#paint62_radial_312_2107)" fill-opacity="0.3"/>
<path fill-rule="evenodd" clip-rule="evenodd" d="M-702.975 1332.85C-702.539 1333.27 -701.849 1333.25 -701.433 1332.82L-323.219 936.879L-333.161 281.361C-333.17 280.759 -333.666 280.279 -334.268 280.288C-334.87 280.297 -335.35 280.792 -335.341 281.394L-325.413 936.018L-703.01 1331.31C-703.426 1331.74 -703.41 1332.43 -702.975 1332.85Z" fill="url(#paint63_radial_312_2107)" fill-opacity="0.3"/>
<defs>
<filter id="filter0_f_312_2107" x="-503.635" y="514.651" width="1014.97" height="968.637" filterUnits="userSpaceOnUse" color-interpolation-filters="sRGB">
<feFlood flood-opacity="0" result="BackgroundImageFix"/>
<feBlend mode="normal" in="SourceGraphic" in2="BackgroundImageFix" result="shape"/>
<feGaussianBlur stdDeviation="122.5" result="effect1_foregroundBlur_312_2107"/>
</filter>
<radialGradient id="paint0_radial_312_2107" cx="0" cy="0" r="1" gradientUnits="userSpaceOnUse" gradientTransform="translate(277.764 1314.01) rotate(-163.113) scale(636.105 629.219)">
<stop stop-color="#FFAE00"/>
<stop offset="1" stop-color="#FFAE00" stop-opacity="0"/>
</radialGradient>
<radialGradient id="paint1_radial_312_2107" cx="0" cy="0" r="1" gradientUnits="userSpaceOnUse" gradientTransform="translate(268.349 1308.17) rotate(-163.113) scale(636.105 629.219)">
<stop stop-color="#FFAE00"/>
<stop offset="1" stop-color="#FFAE00" stop-opacity="0"/>
</radialGradient>
<radialGradient id="paint2_radial_312_2107" cx="0" cy="0" r="1" gradientUnits="userSpaceOnUse" gradientTransform="translate(258.934 1302.34) rotate(-163.113) scale(636.105 629.219)">
<stop stop-color="#FFAE00"/>
<stop offset="1" stop-color="#FFAE00" stop-opacity="0"/>
</radialGradient>
<radialGradient id="paint3_radial_312_2107" cx="0" cy="0" r="1" gradientUnits="userSpaceOnUse" gradientTransform="translate(249.52 1296.51) rotate(-163.113) scale(636.105 629.219)">
<stop stop-color="#FFAE00"/>
<stop offset="1" stop-color="#FFAE00" stop-opacity="0"/>
</radialGradient>
<radialGradient id="paint4_radial_312_2107" cx="0" cy="0" r="1" gradientUnits="userSpaceOnUse" gradientTransform="translate(240.105 1290.67) rotate(-163.113) scale(636.105 629.219)">
<stop stop-color="#FFAE00"/>
<stop offset="1" stop-color="#FFAE00" stop-opacity="0"/>
</radialGradient>
<radialGradient id="paint5_radial_312_2107" cx="0" cy="0" r="1" gradientUnits="userSpaceOnUse" gradientTransform="translate(230.69 1284.84) rotate(-163.113) scale(636.105 629.219)">
<stop stop-color="#FFAE00"/>
<stop offset="1" stop-color="#FFAE00" stop-opacity="0"/>
</radialGradient>
<radialGradient id="paint6_radial_312_2107" cx="0" cy="0" r="1" gradientUnits="userSpaceOnUse" gradientTransform="translate(221.275 1279) rotate(-163.113) scale(636.105 629.219)">
<stop stop-color="#FFAE00"/>
<stop offset="1" stop-color="#FFAE00" stop-opacity="0"/>
</radialGradient>
<radialGradient id="paint7_radial_312_2107" cx="0" cy="0" r="1" gradientUnits="userSpaceOnUse" gradientTransform="translate(211.861 1273.17) rotate(-163.113) scale(636.105 629.219)">
<stop stop-color="#FFAE00"/>
<stop offset="1" stop-color="#FFAE00" stop-opacity="0"/>
</radialGradient>
<radialGradient id="paint8_radial_312_2107" cx="0" cy="0" r="1" gradientUnits="userSpaceOnUse" gradientTransform="translate(202.446 1267.34) rotate(-163.113) scale(636.105 629.219)">
<stop stop-color="#FFAE00"/>
<stop offset="1" stop-color="#FFAE00" stop-opacity="0"/>
</radialGradient>
<radialGradient id="paint9_radial_312_2107" cx="0" cy="0" r="1" gradientUnits="userSpaceOnUse" gradientTransform="translate(193.031 1261.5) rotate(-163.113) scale(636.105 629.219)">
<stop stop-color="#FFAE00"/>
<stop offset="1" stop-color="#FFAE00" stop-opacity="0"/>
</radialGradient>
<radialGradient id="paint10_radial_312_2107" cx="0" cy="0" r="1" gradientUnits="userSpaceOnUse" gradientTransform="translate(183.616 1255.67) rotate(-163.113) scale(636.105 629.219)">
<stop stop-color="#FFAE00"/>
<stop offset="1" stop-color="#FFAE00" stop-opacity="0"/>
</radialGradient>
<radialGradient id="paint11_radial_312_2107" cx="0" cy="0" r="1" gradientUnits="userSpaceOnUse" gradientTransform="translate(174.202 1249.84) rotate(-163.113) scale(636.105 629.219)">
<stop stop-color="#FFAE00"/>
<stop offset="1" stop-color="#FFAE00" stop-opacity="0"/>
</radialGradient>
<radialGradient id="paint12_radial_312_2107" cx="0" cy="0" r="1" gradientUnits="userSpaceOnUse" gradientTransform="translate(164.787 1244) rotate(-163.113) scale(636.105 629.219)">
<stop stop-color="#FFAE00"/>
<stop offset="1" stop-color="#FFAE00" stop-opacity="0"/>
</radialGradient>
<radialGradient id="paint13_radial_312_2107" cx="0" cy="0" r="1" gradientUnits="userSpaceOnUse" gradientTransform="translate(155.372 1238.17) rotate(-163.113) scale(636.105 629.219)">
<stop stop-color="#FFAE00"/>
<stop offset="1" stop-color="#FFAE00" stop-opacity="0"/>
</radialGradient>
<radialGradient id="paint14_radial_312_2107" cx="0" cy="0" r="1" gradientUnits="userSpaceOnUse" gradientTransform="translate(145.957 1232.33) rotate(-163.113) scale(636.105 629.219)">
<stop stop-color="#FFAE00"/>
<stop offset="1" stop-color="#FFAE00" stop-opacity="0"/>
</radialGradient>
<radialGradient id="paint15_radial_312_2107" cx="0" cy="0" r="1" gradientUnits="userSpaceOnUse" gradientTransform="translate(136.543 1226.5) rotate(-163.113) scale(636.105 629.219)">
<stop stop-color="#FFAE00"/>
<stop offset="1" stop-color="#FFAE00" stop-opacity="0"/>
</radialGradient>
<radialGradient id="paint16_radial_312_2107" cx="0" cy="0" r="1" gradientUnits="userSpaceOnUse" gradientTransform="translate(127.128 1220.67) rotate(-163.113) scale(636.105 629.219)">
<stop stop-color="#FFAE00"/>
<stop offset="1" stop-color="#FFAE00" stop-opacity="0"/>
</radialGradient>
<radialGradient id="paint17_radial_312_2107" cx="0" cy="0" r="1" gradientUnits="userSpaceOnUse" gradientTransform="translate(117.713 1214.83) rotate(-163.113) scale(636.105 629.219)">
<stop stop-color="#FFAE00"/>
<stop offset="1" stop-color="#FFAE00" stop-opacity="0"/>
</radialGradient>
<radialGradient id="paint18_radial_312_2107" cx="0" cy="0" r="1" gradientUnits="userSpaceOnUse" gradientTransform="translate(108.298 1209) rotate(-163.113) scale(636.105 629.219)">
<stop stop-color="#FFAE00"/>
<stop offset="1" stop-color="#FFAE00" stop-opacity="0"/>
</radialGradient>
<radialGradient id="paint19_radial_312_2107" cx="0" cy="0" r="1" gradientUnits="userSpaceOnUse" gradientTransform="translate(98.8835 1203.16) rotate(-163.113) scale(636.105 629.219)">
<stop stop-color="#FFAE00"/>
<stop offset="1" stop-color="#FFAE00" stop-opacity="0"/>
</radialGradient>
<radialGradient id="paint20_radial_312_2107" cx="0" cy="0" r="1" gradientUnits="userSpaceOnUse" gradientTransform="translate(89.4685 1197.33) rotate(-163.113) scale(636.105 629.219)">
<stop stop-color="#FFAE00"/>
<stop offset="1" stop-color="#FFAE00" stop-opacity="0"/>
</radialGradient>
<radialGradient id="paint21_radial_312_2107" cx="0" cy="0" r="1" gradientUnits="userSpaceOnUse" gradientTransform="translate(80.0536 1191.5) rotate(-163.113) scale(636.105 629.219)">
<stop stop-color="#FFAE00"/>
<stop offset="1" stop-color="#FFAE00" stop-opacity="0"/>
</radialGradient>
<radialGradient id="paint22_radial_312_2107" cx="0" cy="0" r="1" gradientUnits="userSpaceOnUse" gradientTransform="translate(70.6388 1185.66) rotate(-163.113) scale(636.105 629.219)">
<stop stop-color="#FFAE00"/>
<stop offset="1" stop-color="#FFAE00" stop-opacity="0"/>
</radialGradient>
<radialGradient id="paint23_radial_312_2107" cx="0" cy="0" r="1" gradientUnits="userSpaceOnUse" gradientTransform="translate(61.2243 1179.83) rotate(-163.113) scale(636.105 629.219)">
<stop stop-color="#FFAE00"/>
<stop offset="1" stop-color="#FFAE00" stop-opacity="0"/>
</radialGradient>
<radialGradient id="paint24_radial_312_2107" cx="0" cy="0" r="1" gradientUnits="userSpaceOnUse" gradientTransform="translate(51.8093 1173.99) rotate(-163.113) scale(636.105 629.219)">
<stop stop-color="#FFAE00"/>
<stop offset="1" stop-color="#FFAE00" stop-opacity="0"/>
</radialGradient>
<radialGradient id="paint25_radial_312_2107" cx="0" cy="0" r="1" gradientUnits="userSpaceOnUse" gradientTransform="translate(42.3944 1168.16) rotate(-163.113) scale(636.105 629.219)">
<stop stop-color="#FFAE00"/>
<stop offset="1" stop-color="#FFAE00" stop-opacity="0"/>
</radialGradient>
<radialGradient id="paint26_radial_312_2107" cx="0" cy="0" r="1" gradientUnits="userSpaceOnUse" gradientTransform="translate(32.9797 1162.33) rotate(-163.113) scale(636.105 629.219)">
<stop stop-color="#FFAE00"/>
<stop offset="1" stop-color="#FFAE00" stop-opacity="0"/>
</radialGradient>
<radialGradient id="paint27_radial_312_2107" cx="0" cy="0" r="1" gradientUnits="userSpaceOnUse" gradientTransform="translate(23.5651 1156.49) rotate(-163.113) scale(636.105 629.219)">
<stop stop-color="#FFAE00"/>
<stop offset="1" stop-color="#FFAE00" stop-opacity="0"/>
</radialGradient>
<radialGradient id="paint28_radial_312_2107" cx="0" cy="0" r="1" gradientUnits="userSpaceOnUse" gradientTransform="translate(14.1503 1150.66) rotate(-163.113) scale(636.105 629.219)">
<stop stop-color="#FFAE00"/>
<stop offset="1" stop-color="#FFAE00" stop-opacity="0"/>
</radialGradient>
<radialGradient id="paint29_radial_312_2107" cx="0" cy="0" r="1" gradientUnits="userSpaceOnUse" gradientTransform="translate(4.73529 1144.82) rotate(-163.113) scale(636.105 629.219)">
<stop stop-color="#FFAE00"/>
<stop offset="1" stop-color="#FFAE00" stop-opacity="0"/>
</radialGradient>
<radialGradient id="paint30_radial_312_2107" cx="0" cy="0" r="1" gradientUnits="userSpaceOnUse" gradientTransform="translate(-4.67944 1138.99) rotate(-163.113) scale(636.105 629.219)">
<stop stop-color="#FFAE00"/>
<stop offset="1" stop-color="#FFAE00" stop-opacity="0"/>
</radialGradient>
<radialGradient id="paint31_radial_312_2107" cx="0" cy="0" r="1" gradientUnits="userSpaceOnUse" gradientTransform="translate(-14.094 1133.16) rotate(-163.113) scale(636.105 629.219)">
<stop stop-color="#FFAE00"/>
<stop offset="1" stop-color="#FFAE00" stop-opacity="0"/>
</radialGradient>
<radialGradient id="paint32_radial_312_2107" cx="0" cy="0" r="1" gradientUnits="userSpaceOnUse" gradientTransform="translate(-23.5088 1127.32) rotate(-163.113) scale(636.105 629.219)">
<stop stop-color="#FFAE00"/>
<stop offset="1" stop-color="#FFAE00" stop-opacity="0"/>
</radialGradient>
<radialGradient id="paint33_radial_312_2107" cx="0" cy="0" r="1" gradientUnits="userSpaceOnUse" gradientTransform="translate(-32.9238 1121.49) rotate(-163.113) scale(636.105 629.219)">
<stop stop-color="#FFAE00"/>
<stop offset="1" stop-color="#FFAE00" stop-opacity="0"/>
</radialGradient>
<radialGradient id="paint34_radial_312_2107" cx="0" cy="0" r="1" gradientUnits="userSpaceOnUse" gradientTransform="translate(-42.3385 1115.65) rotate(-163.113) scale(636.105 629.219)">
<stop stop-color="#FFAE00"/>
<stop offset="1" stop-color="#FFAE00" stop-opacity="0"/>
</radialGradient>
<radialGradient id="paint35_radial_312_2107" cx="0" cy="0" r="1" gradientUnits="userSpaceOnUse" gradientTransform="translate(-51.7531 1109.82) rotate(-163.113) scale(636.105 629.219)">
<stop stop-color="#FFAE00"/>
<stop offset="1" stop-color="#FFAE00" stop-opacity="0"/>
</radialGradient>
<radialGradient id="paint36_radial_312_2107" cx="0" cy="0" r="1" gradientUnits="userSpaceOnUse" gradientTransform="translate(-61.168 1103.99) rotate(-163.113) scale(636.105 629.219)">
<stop stop-color="#FFAE00"/>
<stop offset="1" stop-color="#FFAE00" stop-opacity="0"/>
</radialGradient>
<radialGradient id="paint37_radial_312_2107" cx="0" cy="0" r="1" gradientUnits="userSpaceOnUse" gradientTransform="translate(-70.5828 1098.15) rotate(-163.113) scale(636.105 629.219)">
<stop stop-color="#FFAE00"/>
<stop offset="1" stop-color="#FFAE00" stop-opacity="0"/>
</radialGradient>
<radialGradient id="paint38_radial_312_2107" cx="0" cy="0" r="1" gradientUnits="userSpaceOnUse" gradientTransform="translate(-79.9977 1092.32) rotate(-163.113) scale(636.105 629.219)">
<stop stop-color="#FFAE00"/>
<stop offset="1" stop-color="#FFAE00" stop-opacity="0"/>
</radialGradient>
<radialGradient id="paint39_radial_312_2107" cx="0" cy="0" r="1" gradientUnits="userSpaceOnUse" gradientTransform="translate(-89.4122 1086.49) rotate(-163.113) scale(636.105 629.219)">
<stop stop-color="#FFAE00"/>
<stop offset="1" stop-color="#FFAE00" stop-opacity="0"/>
</radialGradient>
<radialGradient id="paint40_radial_312_2107" cx="0" cy="0" r="1" gradientUnits="userSpaceOnUse" gradientTransform="translate(-98.8271 1080.65) rotate(-163.113) scale(636.105 629.219)">
<stop stop-color="#FFAE00"/>
<stop offset="1" stop-color="#FFAE00" stop-opacity="0"/>
</radialGradient>
<radialGradient id="paint41_radial_312_2107" cx="0" cy="0" r="1" gradientUnits="userSpaceOnUse" gradientTransform="translate(-108.242 1074.82) rotate(-163.113) scale(636.105 629.219)">
<stop stop-color="#FFAE00"/>
<stop offset="1" stop-color="#FFAE00" stop-opacity="0"/>
</radialGradient>
<radialGradient id="paint42_radial_312_2107" cx="0" cy="0" r="1" gradientUnits="userSpaceOnUse" gradientTransform="translate(-117.657 1068.98) rotate(-163.113) scale(636.105 629.219)">
<stop stop-color="#FFAE00"/>
<stop offset="1" stop-color="#FFAE00" stop-opacity="0"/>
</radialGradient>
<radialGradient id="paint43_radial_312_2107" cx="0" cy="0" r="1" gradientUnits="userSpaceOnUse" gradientTransform="translate(-127.071 1063.15) rotate(-163.113) scale(636.105 629.219)">
<stop stop-color="#FFAE00"/>
<stop offset="1" stop-color="#FFAE00" stop-opacity="0"/>
</radialGradient>
<radialGradient id="paint44_radial_312_2107" cx="0" cy="0" r="1" gradientUnits="userSpaceOnUse" gradientTransform="translate(-136.486 1057.32) rotate(-163.113) scale(636.105 629.219)">
<stop stop-color="#FFAE00"/>
<stop offset="1" stop-color="#FFAE00" stop-opacity="0"/>
</radialGradient>
<radialGradient id="paint45_radial_312_2107" cx="0" cy="0" r="1" gradientUnits="userSpaceOnUse" gradientTransform="translate(-145.901 1051.48) rotate(-163.113) scale(636.105 629.219)">
<stop stop-color="#FFAE00"/>
<stop offset="1" stop-color="#FFAE00" stop-opacity="0"/>
</radialGradient>
<radialGradient id="paint46_radial_312_2107" cx="0" cy="0" r="1" gradientUnits="userSpaceOnUse" gradientTransform="translate(-155.316 1045.65) rotate(-163.113) scale(636.105 629.219)">
<stop stop-color="#FFAE00"/>
<stop offset="1" stop-color="#FFAE00" stop-opacity="0"/>
</radialGradient>
<radialGradient id="paint47_radial_312_2107" cx="0" cy="0" r="1" gradientUnits="userSpaceOnUse" gradientTransform="translate(-164.73 1039.81) rotate(-163.113) scale(636.105 629.219)">
<stop stop-color="#FFAE00"/>
<stop offset="1" stop-color="#FFAE00" stop-opacity="0"/>
</radialGradient>
<radialGradient id="paint48_radial_312_2107" cx="0" cy="0" r="1" gradientUnits="userSpaceOnUse" gradientTransform="translate(-174.145 1033.98) rotate(-163.113) scale(636.105 629.219)">
<stop stop-color="#FFAE00"/>
<stop offset="1" stop-color="#FFAE00" stop-opacity="0"/>
</radialGradient>
<radialGradient id="paint49_radial_312_2107" cx="0" cy="0" r="1" gradientUnits="userSpaceOnUse" gradientTransform="translate(-183.56 1028.15) rotate(-163.113) scale(636.105 629.219)">
<stop stop-color="#FFAE00"/>
<stop offset="1" stop-color="#FFAE00" stop-opacity="0"/>
</radialGradient>
<radialGradient id="paint50_radial_312_2107" cx="0" cy="0" r="1" gradientUnits="userSpaceOnUse" gradientTransform="translate(-192.975 1022.31) rotate(-163.113) scale(636.105 629.219)">
<stop stop-color="#FFAE00"/>
<stop offset="1" stop-color="#FFAE00" stop-opacity="0"/>
</radialGradient>
<radialGradient id="paint51_radial_312_2107" cx="0" cy="0" r="1" gradientUnits="userSpaceOnUse" gradientTransform="translate(-202.39 1016.48) rotate(-163.113) scale(636.105 629.219)">
<stop stop-color="#FFAE00"/>
<stop offset="1" stop-color="#FFAE00" stop-opacity="0"/>
</radialGradient>
<radialGradient id="paint52_radial_312_2107" cx="0" cy="0" r="1" gradientUnits="userSpaceOnUse" gradientTransform="translate(-211.805 1010.64) rotate(-163.113) scale(636.105 629.219)">
<stop stop-color="#FFAE00"/>
<stop offset="1" stop-color="#FFAE00" stop-opacity="0"/>
</radialGradient>
<radialGradient id="paint53_radial_312_2107" cx="0" cy="0" r="1" gradientUnits="userSpaceOnUse" gradientTransform="translate(-221.219 1004.81) rotate(-163.113) scale(636.105 629.219)">
<stop stop-color="#FFAE00"/>
<stop offset="1" stop-color="#FFAE00" stop-opacity="0"/>
</radialGradient>
<radialGradient id="paint54_radial_312_2107" cx="0" cy="0" r="1" gradientUnits="userSpaceOnUse" gradientTransform="translate(-230.634 998.977) rotate(-163.113) scale(636.105 629.219)">
<stop stop-color="#FFAE00"/>
<stop offset="1" stop-color="#FFAE00" stop-opacity="0"/>
</radialGradient>
<radialGradient id="paint55_radial_312_2107" cx="0" cy="0" r="1" gradientUnits="userSpaceOnUse" gradientTransform="translate(-240.049 993.143) rotate(-163.113) scale(636.105 629.219)">
<stop stop-color="#FFAE00"/>
<stop offset="1" stop-color="#FFAE00" stop-opacity="0"/>
</radialGradient>
<radialGradient id="paint56_radial_312_2107" cx="0" cy="0" r="1" gradientUnits="userSpaceOnUse" gradientTransform="translate(-249.464 987.309) rotate(-163.113) scale(636.105 629.219)">
<stop stop-color="#FFAE00"/>
<stop offset="1" stop-color="#FFAE00" stop-opacity="0"/>
</radialGradient>
<radialGradient id="paint57_radial_312_2107" cx="0" cy="0" r="1" gradientUnits="userSpaceOnUse" gradientTransform="translate(-258.878 981.475) rotate(-163.113) scale(636.105 629.219)">
<stop stop-color="#FFAE00"/>
<stop offset="1" stop-color="#FFAE00" stop-opacity="0"/>
</radialGradient>
<radialGradient id="paint58_radial_312_2107" cx="0" cy="0" r="1" gradientUnits="userSpaceOnUse" gradientTransform="translate(-268.293 975.641) rotate(-163.113) scale(636.105 629.219)">
<stop stop-color="#FFAE00"/>
<stop offset="1" stop-color="#FFAE00" stop-opacity="0"/>
</radialGradient>
<radialGradient id="paint59_radial_312_2107" cx="0" cy="0" r="1" gradientUnits="userSpaceOnUse" gradientTransform="translate(-277.708 969.807) rotate(-163.113) scale(636.105 629.219)">
<stop stop-color="#FFAE00"/>
<stop offset="1" stop-color="#FFAE00" stop-opacity="0"/>
</radialGradient>
<radialGradient id="paint60_radial_312_2107" cx="0" cy="0" r="1" gradientUnits="userSpaceOnUse" gradientTransform="translate(-287.123 963.973) rotate(-163.113) scale(636.105 629.219)">
<stop stop-color="#FFAE00"/>
<stop offset="1" stop-color="#FFAE00" stop-opacity="0"/>
</radialGradient>
<radialGradient id="paint61_radial_312_2107" cx="0" cy="0" r="1" gradientUnits="userSpaceOnUse" gradientTransform="translate(-296.538 958.139) rotate(-163.113) scale(636.105 629.219)">
<stop stop-color="#FFAE00"/>
<stop offset="1" stop-color="#FFAE00" stop-opacity="0"/>
</radialGradient>
<radialGradient id="paint62_radial_312_2107" cx="0" cy="0" r="1" gradientUnits="userSpaceOnUse" gradientTransform="translate(-305.952 952.305) rotate(-163.113) scale(636.105 629.219)">
<stop stop-color="#FFAE00"/>
<stop offset="1" stop-color="#FFAE00" stop-opacity="0"/>
</radialGradient>
<radialGradient id="paint63_radial_312_2107" cx="0" cy="0" r="1" gradientUnits="userSpaceOnUse" gradientTransform="translate(-315.367 946.471) rotate(-163.113) scale(636.105 629.219)">
<stop stop-color="#FFAE00"/>
<stop offset="1" stop-color="#FFAE00" stop-opacity="0"/>
</radialGradient>
</defs>
</svg>
