<svg width="176" height="75" viewBox="0 0 176 75" fill="none" xmlns="http://www.w3.org/2000/svg">
<path fill-rule="evenodd" clip-rule="evenodd" d="M104.726 11.0708C102.857 11.6048 98.8256 14.0608 97.6512 19.6133H89.5094C73.9162 1.99466 45.9941 -1.19534 35.9852 29.8909C35.9474 30.9679 36.1431 33.4963 37.2248 34.9944H31.0868V37.2829H47.888V23.0827H45.1822C44.7581 22.6593 44.1646 21.558 45.1822 20.5405H56.0352C56.6744 21.2013 56.9489 22.3216 56.0352 23.5163H53.9359V37.2829H56.2347C56.7954 37.9083 57.5808 39.4955 56.2347 40.8413H31.0868V43.6675H37.2248C34.0143 57.7826 68.2644 89.8824 93.6465 48.444H37.8313L42.0015 43.6675H148.726C149.793 34.9079 164.639 20.5944 172.357 29.9644C173.715 33.1923 172.862 37.8011 157.858 39.3574L152.659 48.444H98.9472V72.4603C98.5783 74.1349 95.1993 75.3541 93.7493 72.4603V58.8726C81.7801 80.0529 35.9852 85.4285 25.5986 41.6922L22.9377 38.4805L27.0496 34.9944C24.475 14.8857 60.1815 -18.7886 92.8308 14.2223C93.7162 11.6791 97.3295 8.01896 104.726 11.0708ZM54.216 17.1643C54.216 18.9262 52.7877 20.3544 51.0258 20.3544C49.264 20.3544 47.8357 18.9262 47.8357 17.1643C47.8357 15.4024 49.264 13.9742 51.0258 13.9742C52.7877 13.9742 54.216 15.4024 54.216 17.1643ZM109.446 51.8094V54.4269H109.244C108.999 53.7115 108.632 53.1673 108.143 52.7951C107.654 52.4227 107.119 52.2365 106.538 52.2365C105.983 52.2365 105.522 52.3935 105.153 52.7075C104.784 53.0177 104.523 53.4521 104.37 54.0108C104.216 54.5692 104.14 55.1423 104.14 55.7303C104.14 56.4421 104.224 57.0663 104.392 57.6032C104.56 58.1397 104.83 58.534 105.202 58.7861C105.578 59.0378 106.024 59.1639 106.538 59.1639C106.717 59.1639 106.9 59.1456 107.086 59.109C107.276 59.0688 107.469 59.0122 107.666 58.9393V57.3951C107.666 57.1029 107.646 56.9149 107.606 56.8311C107.566 56.7435 107.482 56.665 107.354 56.5956C107.23 56.5262 107.079 56.4914 106.9 56.4914H106.708V56.2889H110.317V56.4914C110.043 56.5097 109.851 56.5481 109.742 56.6065C109.636 56.6611 109.554 56.7544 109.496 56.8857C109.463 56.9551 109.446 57.1248 109.446 57.3951V58.9393C108.972 59.1512 108.477 59.31 107.962 59.4156C107.451 59.5251 106.92 59.58 106.369 59.58C105.664 59.58 105.078 59.485 104.611 59.2952C104.147 59.1019 103.736 58.8498 103.379 58.5396C103.024 58.2256 102.747 57.8732 102.546 57.4828C102.291 56.9787 102.163 56.4147 102.163 55.7905C102.163 54.6734 102.555 53.7295 103.34 52.9592C104.125 52.1889 105.113 51.8038 106.303 51.8038C106.672 51.8038 107.004 51.833 107.299 51.8914C107.46 51.9207 107.719 52.0048 108.077 52.1435C108.439 52.2784 108.652 52.3459 108.718 52.3459C108.82 52.3459 108.915 52.3096 109.003 52.2365C109.09 52.1597 109.171 52.0175 109.244 51.8094H109.446ZM115.103 57.2909H112.48L112.168 58.0137C112.066 58.2548 112.015 58.4538 112.015 58.6108C112.015 58.8188 112.098 58.972 112.266 59.0706C112.365 59.129 112.608 59.173 112.995 59.2022V59.4047H110.525V59.2022C110.792 59.1621 111.01 59.0526 111.182 58.8734C111.354 58.6911 111.565 58.3168 111.817 57.751L114.473 51.8259H114.577L117.255 57.9151C117.511 58.4921 117.721 58.8554 117.885 59.0051C118.009 59.1181 118.184 59.1839 118.411 59.2022V59.4047H114.818V59.2022H114.966C115.255 59.2022 115.457 59.1621 115.574 59.0815C115.654 59.0234 115.694 58.9393 115.694 58.8298C115.694 58.7639 115.683 58.6964 115.662 58.627C115.654 58.5942 115.6 58.4573 115.497 58.2165L115.103 57.2909ZM114.917 56.8857L113.811 54.3284L112.672 56.8857H114.917ZM121.521 56.0204V58.1014C121.521 58.5031 121.545 58.7569 121.592 58.8625C121.643 58.9649 121.731 59.047 121.855 59.109C121.979 59.1712 122.211 59.2022 122.551 59.2022V59.4047H118.75V59.2022C119.093 59.2022 119.325 59.1712 119.445 59.109C119.57 59.0434 119.656 58.9593 119.703 58.8572C119.754 58.7548 119.78 58.5031 119.78 58.1014V53.2824C119.78 52.8807 119.754 52.629 119.703 52.5269C119.656 52.4209 119.57 52.3368 119.445 52.2748C119.321 52.2128 119.09 52.1819 118.75 52.1819V51.9791H122.2C123.098 51.9791 123.755 52.0411 124.171 52.1653C124.588 52.2893 124.927 52.5195 125.19 52.8553C125.453 53.1874 125.584 53.5781 125.584 54.0273C125.584 54.5748 125.387 55.0275 124.993 55.3852C124.741 55.6116 124.389 55.7813 123.936 55.8946L125.721 58.408C125.955 58.733 126.121 58.9357 126.22 59.016C126.369 59.129 126.543 59.1913 126.74 59.2022V59.4047H124.401L122.008 56.0204H121.521ZM121.521 52.379V55.6317H121.833C122.341 55.6317 122.72 55.5859 122.972 55.4947C123.224 55.4 123.421 55.2321 123.564 54.9909C123.71 54.7463 123.783 54.4287 123.783 54.0383C123.783 53.4722 123.649 53.0543 123.383 52.7842C123.12 52.5139 122.695 52.379 122.107 52.379H121.521ZM131.991 56.8748L134.007 51.9791H137.03V52.1819H136.788C136.569 52.1819 136.394 52.2199 136.263 52.2967C136.172 52.3477 136.098 52.4336 136.044 52.554C136.004 52.6417 135.984 52.8698 135.984 53.2387V58.1344C135.984 58.514 136.004 58.7513 136.044 58.8463C136.084 58.941 136.166 59.0251 136.29 59.098C136.414 59.1674 136.58 59.2022 136.788 59.2022H137.03V59.4047H133.152V59.2022H133.393C133.612 59.2022 133.788 59.1639 133.919 59.0871C134.01 59.0361 134.083 58.9484 134.138 58.8242C134.178 58.7368 134.198 58.5066 134.198 58.1344V52.6308L131.351 59.4047H131.219L128.328 52.68V57.9098C128.328 58.2749 128.337 58.4992 128.355 58.5833C128.403 58.7657 128.505 58.9156 128.662 59.0322C128.822 59.1456 129.073 59.2022 129.412 59.2022V59.4047H126.871V59.2022H126.948C127.112 59.2058 127.266 59.1801 127.408 59.1255C127.55 59.0671 127.658 58.9903 127.731 58.8956C127.804 58.8005 127.861 58.6674 127.901 58.4957C127.908 58.4555 127.912 58.2693 127.912 57.9373V53.2387C127.912 52.8627 127.892 52.629 127.851 52.5378C127.811 52.4428 127.729 52.3607 127.605 52.2913C127.481 52.2182 127.315 52.1819 127.107 52.1819H126.871V51.9791H129.905L131.991 56.8748ZM140.293 52.4062V55.4292H140.441C140.912 55.4292 141.253 55.2814 141.465 54.9856C141.677 54.6899 141.812 54.2534 141.87 53.6767H142.078V57.5648H141.87C141.826 57.1413 141.733 56.7945 141.591 56.5242C141.452 56.2541 141.29 56.0735 141.104 55.9823C140.917 55.8873 140.647 55.8398 140.293 55.8398V57.9317C140.293 58.3404 140.31 58.5907 140.342 58.6819C140.379 58.7731 140.445 58.8481 140.54 58.9065C140.635 58.9649 140.788 58.9942 141 58.9942H141.443C142.137 58.9942 142.692 58.8333 143.108 58.5122C143.528 58.1908 143.829 57.7018 144.012 57.0445H144.214L143.88 59.4047H137.462V59.2022H137.708C137.924 59.2022 138.097 59.1639 138.229 59.0871C138.324 59.0361 138.397 58.9484 138.448 58.8242C138.488 58.7368 138.508 58.5066 138.508 58.1344V53.2496C138.508 52.9138 138.499 52.7075 138.481 52.6308C138.444 52.503 138.377 52.4044 138.278 52.335C138.139 52.2329 137.949 52.1819 137.708 52.1819H137.462V51.9791H143.677V54.1749H143.469C143.363 53.6383 143.214 53.2532 143.02 53.0194C142.83 52.786 142.56 52.6142 142.21 52.5047C142.006 52.4392 141.622 52.4062 141.06 52.4062H140.293ZM147.511 51.9791L151.174 56.5847V53.3919C151.174 52.9465 151.11 52.6455 150.983 52.4885C150.807 52.2766 150.513 52.1745 150.101 52.1819V51.9791H152.554V52.1819C152.24 52.222 152.029 52.2748 151.919 52.3406C151.813 52.4026 151.729 52.5065 151.667 52.6526C151.609 52.7951 151.579 53.0416 151.579 53.3919V59.5744H151.393L146.372 53.3919V58.1123C146.372 58.5396 146.469 58.828 146.662 58.9776C146.859 59.1273 147.084 59.2022 147.335 59.2022H147.511V59.4047H144.877V59.2022C145.286 59.1984 145.57 59.1146 145.731 58.9502C145.892 58.7861 145.972 58.5066 145.972 58.1123V52.8716L145.813 52.6744C145.656 52.4776 145.517 52.3477 145.397 52.2857C145.277 52.2238 145.103 52.1889 144.877 52.1819V51.9791H147.511ZM160.291 43.8042V53.9447H161.633V49.4415H163.189C163.535 49.4415 163.784 49.4578 163.936 49.4899C164.144 49.5407 164.347 49.6307 164.545 49.76C164.748 49.889 164.976 50.115 165.23 50.4376C165.484 50.7605 165.806 51.2262 166.199 51.8351L167.54 53.9447H169.228L167.464 51.1849C167.114 50.6454 166.743 50.1956 166.351 49.8358C166.166 49.67 165.896 49.5017 165.541 49.3309C166.514 49.1972 167.234 48.8837 167.699 48.3903C168.165 47.8968 168.398 47.2903 168.398 46.571C168.398 46.0129 168.257 45.5035 167.976 45.0423C167.695 44.5812 167.319 44.2607 166.849 44.0807C166.378 43.8962 165.691 43.8042 164.787 43.8042H160.291ZM164.518 48.2796H161.633V44.9248H164.843C165.594 44.9248 166.143 45.0791 166.489 45.3881C166.839 45.6972 167.015 46.0915 167.015 46.571C167.015 46.8983 166.925 47.2026 166.745 47.4842C166.565 47.7607 166.302 47.9638 165.956 48.0928C165.61 48.2173 165.131 48.2796 164.518 48.2796ZM3.73375 39.494V41.7698C3.73375 42.2137 3.75999 42.4941 3.81244 42.6112C3.86893 42.7243 3.96576 42.8149 4.10297 42.8836C4.24419 42.9521 4.5004 42.9863 4.87165 42.9863V43.2104H0.701416V42.9863C1.08071 42.9863 1.33694 42.9521 1.47009 42.8836C1.60728 42.811 1.70211 42.7181 1.75456 42.605C1.81105 42.4923 1.8393 42.2137 1.8393 41.7698V36.4435C1.8393 35.9996 1.81105 35.7213 1.75456 35.6083C1.70211 35.4914 1.60728 35.3984 1.47009 35.33C1.3329 35.2615 1.07667 35.227 0.701416 35.227V35.0032H4.27848C5.45672 35.0032 6.30205 35.2128 6.81452 35.6325C7.32696 36.0522 7.5832 36.5769 7.5832 37.2061C7.5832 37.7388 7.41774 38.1948 7.08687 38.5741C6.75599 38.9533 6.30004 39.2116 5.71901 39.3488C5.3276 39.4456 4.66585 39.494 3.73375 39.494ZM3.73375 35.4752V39.0221C3.86692 39.0301 3.9678 39.0342 4.03638 39.0342C4.52867 39.0342 4.90795 38.889 5.17428 38.5983C5.44058 38.3037 5.57374 37.8498 5.57374 37.2365C5.57374 36.6271 5.44058 36.1814 5.17428 35.899C4.90795 35.6165 4.51049 35.4752 3.9819 35.4752H3.73375ZM8.37607 41.3463C8.65852 41.3463 8.8966 41.4451 9.09027 41.6429C9.28798 41.8406 9.38685 42.0785 9.38685 42.3571C9.38685 42.6354 9.28798 42.8736 9.09027 43.071C8.89256 43.265 8.65448 43.3618 8.37607 43.3618C8.09764 43.3618 7.85959 43.265 7.66188 43.071C7.46818 42.8736 7.37135 42.6354 7.37135 42.3571C7.37135 42.0785 7.46818 41.8406 7.66188 41.6429C7.85959 41.4451 8.09764 41.3463 8.37607 41.3463ZM17.7455 35.0032V37.2244H17.5276C17.3984 36.7121 17.2552 36.3446 17.0978 36.1227C16.9404 35.8969 16.7246 35.7172 16.4502 35.5841C16.2969 35.5115 16.0285 35.4752 15.6452 35.4752H15.0339V41.8061C15.0339 42.2258 15.0561 42.4882 15.1005 42.5929C15.1489 42.698 15.2397 42.7907 15.3728 42.8715C15.51 42.948 15.6957 42.9863 15.9297 42.9863H16.202V43.2104H11.9047V42.9863H12.1771C12.4151 42.9863 12.6068 42.9441 12.7521 42.8594C12.857 42.8028 12.9397 42.706 13.0002 42.5687C13.0446 42.4719 13.0668 42.2178 13.0668 41.8061V35.4752H12.4737C11.9208 35.4752 11.5194 35.5923 11.2692 35.8264C10.9182 36.1531 10.6962 36.6191 10.6034 37.2244H10.3734V35.0032H17.7455ZM18.8228 41.3463C19.1053 41.3463 19.3433 41.4451 19.537 41.6429C19.7347 41.8406 19.8336 42.0785 19.8336 42.3571C19.8336 42.6354 19.7347 42.8736 19.537 43.071C19.3393 43.265 19.1012 43.3618 18.8228 43.3618C18.5444 43.3618 18.3063 43.265 18.1086 43.071C17.9149 42.8736 17.8181 42.6354 17.8181 42.3571C17.8181 42.0785 17.9149 41.8406 18.1086 41.6429C18.3063 41.4451 18.5444 41.3463 18.8228 41.3463ZM73.8861 27.5488L73.7196 20.7094H73.2657C73.1344 21.3247 72.9933 21.7131 72.8419 21.8745C72.6905 22.0359 72.4839 22.1166 72.2215 22.1166C71.9491 22.1166 71.4701 21.9552 70.7842 21.6324C70.1081 21.2995 69.5331 21.0725 69.0592 20.9515C68.4338 20.7901 67.788 20.7094 67.1222 20.7094C65.2965 20.7094 63.7833 21.2844 62.5827 22.4344C61.3824 23.5844 60.7821 24.9765 60.7821 26.6106C60.7821 27.569 60.999 28.4466 61.4329 29.2435C61.8768 30.0406 62.5072 30.7616 63.3244 31.4073C64.1413 32.0528 65.483 32.8346 67.3492 33.7528C68.6808 34.4083 69.609 34.943 70.1335 35.3565C70.6579 35.76 71.0463 36.1888 71.2986 36.6427C71.5607 37.0966 71.6921 37.5659 71.6921 38.0499C71.6921 38.8671 71.3541 39.5834 70.6783 40.1988C70.0124 40.8139 69.1146 41.1217 67.9849 41.1217C66.5222 41.1217 65.1551 40.5518 63.8843 39.412C62.6232 38.2618 61.7708 36.5973 61.3269 34.4186H60.7671V42.1659H61.3269C61.5084 41.7521 61.7457 41.4446 62.0382 41.2427C62.3307 41.0411 62.6081 40.9402 62.8705 40.9402C63.183 40.9402 63.5815 41.0411 64.0658 41.2427C64.9332 41.606 65.6545 41.853 66.2294 41.9841C66.8046 42.1154 67.415 42.1809 68.0604 42.1809C70.1184 42.1809 71.8131 41.5656 73.1447 40.3349C74.4861 39.0941 75.1569 37.6164 75.1569 35.9013C75.1569 34.5496 74.7435 33.3493 73.9162 32.3001C73.0789 31.2509 71.4601 30.1362 69.0592 28.956C67.3441 28.1087 66.2498 27.5185 65.7755 27.1856C65.13 26.7216 64.6608 26.2525 64.3683 25.7784C64.1564 25.4254 64.0507 25.0218 64.0507 24.5679C64.0507 23.8517 64.3482 23.2212 64.9432 22.6765C65.5485 22.1216 66.3658 21.8442 67.3946 21.8442C68.7262 21.8442 69.962 22.3688 71.1018 23.4179C72.2519 24.4569 72.9732 25.8339 73.2657 27.5488H73.8861ZM95.9628 26.7317V21.1785H77.5328V26.7317H78.1077C78.3397 25.2186 78.8945 24.0534 79.7723 23.2363C80.3976 22.6513 81.4014 22.3587 82.7832 22.3587H84.2663V38.1863C84.2663 39.2151 84.2108 39.8505 84.0998 40.0928C83.9484 40.4358 83.7415 40.6778 83.4795 40.8192C83.1161 41.0308 82.6371 41.1367 82.0418 41.1367H81.361V41.6966H92.1042V41.1367H91.4233C90.8383 41.1367 90.3741 41.0411 90.0311 40.8493C89.6982 40.6477 89.4713 40.4154 89.3503 40.1533C89.2393 39.891 89.1838 39.2352 89.1838 38.1863V22.3587H90.7123C91.6706 22.3587 92.3415 22.4495 92.7245 22.6311C93.4107 22.964 93.9502 23.4129 94.3436 23.9778C94.7371 24.5326 95.0954 25.4506 95.4179 26.7317H95.9628ZM105.526 30.7114V22.3587H107.644C109.198 22.3587 110.257 22.4495 110.822 22.6311C111.79 22.9337 112.537 23.4078 113.061 24.0534C113.596 24.699 114.009 25.7633 114.302 27.2462H114.877V21.1785H97.7029V21.7383H98.3837C99.0496 21.7383 99.574 21.8795 99.9574 22.162C100.23 22.3537 100.416 22.626 100.517 22.9791C100.568 23.1909 100.593 23.7609 100.593 24.6889V38.1863C100.593 39.2151 100.538 39.8505 100.427 40.0928C100.285 40.4358 100.083 40.6778 99.8213 40.8192C99.458 41.0308 98.979 41.1367 98.3837 41.1367H97.7029V41.6966H115.437L116.36 35.175H115.8C115.296 36.9907 114.464 38.3424 113.303 39.2302C112.153 40.1179 110.62 40.5618 108.703 40.5618H107.478C106.893 40.5618 106.469 40.4812 106.207 40.3198C105.945 40.1584 105.763 39.9515 105.662 39.6994C105.571 39.4471 105.526 38.7562 105.526 37.6264V31.8462C106.504 31.8462 107.251 31.9772 107.765 32.2396C108.28 32.4916 108.729 32.991 109.112 33.7374C109.505 34.4841 109.763 35.4424 109.884 36.6126H110.459V25.8692H109.884C109.722 27.4631 109.349 28.6685 108.764 29.4856C108.179 30.3026 107.236 30.7114 105.934 30.7114H105.526ZM136.5 38.0653L130.841 29.6672L134.73 24.9765C135.778 23.7155 136.434 22.964 136.697 22.7219C137.11 22.3486 137.499 22.0964 137.862 21.9653C138.225 21.8241 138.704 21.7484 139.299 21.7383V21.1785H131.748V21.7383C132.364 21.7383 132.818 21.8039 133.11 21.935C133.403 22.0662 133.625 22.2478 133.776 22.4798C133.937 22.7118 134.018 22.964 134.018 23.2363C134.018 23.7811 133.463 24.7344 132.354 26.0962L130.19 28.7442L127.648 24.8705L126.604 23.2969C126.533 23.1355 126.498 22.9438 126.498 22.7219C126.498 22.4394 126.614 22.2074 126.846 22.0258C127.078 21.8342 127.487 21.7383 128.072 21.7383H128.586V21.1785H118.403V21.7383C118.867 21.8089 119.23 21.9148 119.492 22.0561C119.754 22.1973 120.022 22.4344 120.294 22.7673C120.415 22.9085 120.904 23.6096 121.762 24.8705L126.982 32.5421L122.912 37.5054C121.701 38.9781 120.758 39.9465 120.082 40.4104C119.568 40.7637 118.862 41.0057 117.964 41.1367V41.6966H125.847V41.1367C125.192 41.1367 124.758 41.1066 124.546 41.0461C124.072 40.9352 123.714 40.7534 123.472 40.5013C123.23 40.249 123.109 39.9769 123.109 39.6841C123.109 39.2706 123.578 38.4838 124.516 37.3236L127.648 33.4954L130.644 37.9289C131.209 38.7562 131.562 39.3211 131.703 39.6236C131.774 39.7649 131.809 39.9264 131.809 40.1079C131.809 40.3703 131.693 40.5922 131.461 40.7737C131.229 40.9552 130.715 41.0762 129.918 41.1367V41.6966H139.92V41.1367C139.375 41.0762 138.901 40.8997 138.497 40.6073C138.104 40.3044 137.438 39.4571 136.5 38.0653ZM116.59 71.1859V71.3886H112.707V71.1859H112.954C113.169 71.1859 113.343 71.1475 113.474 71.0711C113.569 71.0197 113.642 70.9321 113.693 70.8081C113.733 70.7205 113.753 70.4905 113.753 70.1181V65.2333C113.753 64.8538 113.733 64.6165 113.693 64.5214C113.653 64.4267 113.571 64.3444 113.447 64.275C113.326 64.2021 113.162 64.1655 112.954 64.1655H112.707V63.963H116.59V64.1655H116.344C116.128 64.1655 115.955 64.2039 115.823 64.2806C115.728 64.3317 115.654 64.4193 115.599 64.5433C115.559 64.6309 115.538 64.8611 115.538 65.2333V70.1181C115.538 70.4976 115.559 70.7352 115.599 70.8299C115.643 70.925 115.725 71.0088 115.845 71.082C115.969 71.1513 116.136 71.1859 116.344 71.1859H116.59ZM119.646 63.963L123.309 68.5683V65.3759C123.309 64.9305 123.245 64.6292 123.118 64.4722C122.942 64.2605 122.648 64.1581 122.236 64.1655V63.963H124.689V64.1655C124.375 64.2056 124.163 64.2585 124.054 64.3243C123.948 64.3863 123.864 64.4904 123.802 64.6365C123.743 64.7788 123.714 65.0252 123.714 65.3759V71.5583H123.528L118.507 65.3759V70.0962C118.507 70.5233 118.603 70.8116 118.797 70.9613C118.994 71.1112 119.218 71.1859 119.47 71.1859H119.646V71.3886H117.011V71.1859C117.421 71.1823 117.705 71.0982 117.866 70.9341C118.026 70.7697 118.107 70.4905 118.107 70.0962V64.8555L117.948 64.6584C117.791 64.4612 117.652 64.3317 117.532 64.2697C117.411 64.2074 117.238 64.1729 117.011 64.1655V63.963H119.646ZM125.105 71.3886V71.1859H125.352C125.567 71.1859 125.732 71.1531 125.845 71.0873C125.961 71.0179 126.047 70.925 126.102 70.8081C126.135 70.7314 126.151 70.5015 126.151 70.1181V65.2333C126.151 64.8538 126.131 64.6165 126.091 64.5214C126.051 64.4267 125.969 64.3444 125.845 64.275C125.724 64.2021 125.56 64.1655 125.352 64.1655H125.105V63.963H128.429C129.317 63.963 130.03 64.0835 130.571 64.3243C131.231 64.62 131.731 65.0671 132.071 65.666C132.414 66.2648 132.586 66.9418 132.586 67.6977C132.586 68.2198 132.502 68.7017 132.334 69.1432C132.166 69.5815 131.949 69.9445 131.682 70.2332C131.416 70.5177 131.107 70.7479 130.757 70.9232C130.41 71.0947 129.984 71.2278 129.481 71.3228C129.258 71.3665 128.907 71.3886 128.429 71.3886H125.105ZM127.936 64.3845V70.1783C127.936 70.4849 127.951 70.6729 127.98 70.7423C128.009 70.8116 128.059 70.8648 128.128 70.9011C128.227 70.956 128.369 70.9834 128.555 70.9834C129.165 70.9834 129.631 70.7753 129.952 70.3589C130.39 69.7967 130.609 68.9243 130.609 67.7414C130.609 66.7887 130.459 66.0275 130.16 65.4579C129.922 65.0125 129.618 64.7094 129.245 64.5489C128.982 64.4356 128.546 64.381 127.936 64.3845ZM137.394 63.8589C138.577 63.8152 139.537 64.1602 140.274 64.8939C141.015 65.6276 141.386 66.5458 141.386 67.6484C141.386 68.5902 141.11 69.4189 140.559 70.1346C139.829 71.0838 138.797 71.5583 137.465 71.5583C136.129 71.5583 135.096 71.1056 134.365 70.2001C133.789 69.4847 133.5 68.6359 133.5 67.6537C133.5 66.5514 133.874 65.6332 134.623 64.8992C135.375 64.162 136.299 63.8152 137.394 63.8589ZM137.46 64.2095C136.78 64.2095 136.264 64.5563 135.91 65.2498C135.621 65.8194 135.477 66.637 135.477 67.703C135.477 68.97 135.7 69.9065 136.145 70.5124C136.456 70.9359 136.89 71.1475 137.448 71.1475C137.825 71.1475 138.138 71.0563 138.39 70.8739C138.712 70.6402 138.962 70.2677 139.141 69.7565C139.32 69.2418 139.409 68.5719 139.409 67.747C139.409 66.7648 139.318 66.0311 139.135 65.5456C138.953 65.0562 138.719 64.7112 138.434 64.5105C138.153 64.3098 137.828 64.2095 137.46 64.2095ZM144.584 63.963L148.247 68.5683V65.3759C148.247 64.9305 148.184 64.6292 148.056 64.4722C147.88 64.2605 147.587 64.1581 147.174 64.1655V63.963H149.627V64.1655C149.313 64.2056 149.102 64.2585 148.992 64.3243C148.886 64.3863 148.802 64.4904 148.74 64.6365C148.682 64.7788 148.653 65.0252 148.653 65.3759V71.5583H148.466L143.445 65.3759V70.0962C143.445 70.5233 143.542 70.8116 143.735 70.9613C143.932 71.1112 144.157 71.1859 144.409 71.1859H144.584V71.3886H141.95V71.1859C142.359 71.1823 142.644 71.0982 142.804 70.9341C142.965 70.7697 143.045 70.4905 143.045 70.0962V64.8555L142.886 64.6584C142.729 64.4612 142.591 64.3317 142.47 64.2697C142.35 64.2074 142.176 64.1729 141.95 64.1655V63.963H144.584ZM152.951 64.3901V67.4129H153.099C153.57 67.4129 153.912 67.265 154.123 66.9693C154.335 66.6736 154.47 66.2374 154.529 65.6604H154.737V69.5485H154.529C154.485 69.125 154.392 68.7782 154.249 68.5081C154.11 68.2381 153.948 68.0572 153.762 67.966C153.576 67.8709 153.306 67.8237 152.951 67.8237V69.9153C152.951 70.3244 152.968 70.5744 153.001 70.6656C153.037 70.757 153.103 70.8317 153.198 70.8902C153.293 70.9486 153.446 70.9778 153.658 70.9778H154.101C154.795 70.9778 155.35 70.8173 155.766 70.4959C156.186 70.1748 156.487 69.6854 156.67 69.0284H156.872L156.538 71.3886H150.12V71.1859H150.367C150.582 71.1859 150.755 71.1475 150.887 71.0711C150.982 71.0197 151.055 70.9321 151.106 70.8081C151.146 70.7205 151.166 70.4905 151.166 70.1181V65.2333C151.166 64.8974 151.157 64.6911 151.139 64.6147C151.102 64.4869 151.035 64.3883 150.936 64.319C150.798 64.2166 150.608 64.1655 150.367 64.1655H150.12V63.963H156.336V66.1589H156.128C156.022 65.6223 155.872 65.2371 155.679 65.0034C155.489 64.7697 155.218 64.5982 154.868 64.4887C154.664 64.4229 154.28 64.3901 153.718 64.3901H152.951ZM162.644 63.793L162.705 66.2683H162.48C162.374 65.6477 162.113 65.1495 161.697 64.7735C161.284 64.3936 160.837 64.2039 160.355 64.2039C159.983 64.2039 159.687 64.3042 159.468 64.5049C159.253 64.7021 159.145 64.9305 159.145 65.1896C159.145 65.3537 159.183 65.4998 159.26 65.6276C159.366 65.7994 159.536 65.9691 159.769 66.137C159.941 66.2574 160.337 66.4711 160.958 66.7777C161.826 67.2048 162.412 67.6083 162.715 67.9878C163.015 68.3676 163.164 68.8021 163.164 69.2911C163.164 69.9118 162.922 70.4466 162.436 70.8958C161.954 71.3411 161.341 71.5637 160.596 71.5637C160.362 71.5637 160.142 71.54 159.934 71.4925C159.725 71.445 159.464 71.3556 159.151 71.2242C158.975 71.1513 158.831 71.1148 158.718 71.1148C158.623 71.1148 158.522 71.1513 158.417 71.2242C158.311 71.2971 158.225 71.4087 158.159 71.5583H157.957V68.7546H158.159C158.32 69.5432 158.628 70.1455 159.085 70.5617C159.545 70.9743 160.039 71.1806 160.569 71.1806C160.978 71.1806 161.303 71.069 161.543 70.8465C161.788 70.6236 161.91 70.3645 161.91 70.0688C161.91 69.8935 161.863 69.7238 161.768 69.5594C161.677 69.3953 161.536 69.2401 161.346 69.094C161.157 68.9443 160.821 68.751 160.339 68.5134C159.663 68.1814 159.178 67.8984 158.882 67.6649C158.587 67.4312 158.358 67.17 158.198 66.8816C158.041 66.5933 157.962 66.2757 157.962 65.9289C157.962 65.3375 158.179 64.8337 158.614 64.4176C159.048 64.0011 159.596 63.793 160.257 63.793C160.498 63.793 160.731 63.8223 160.958 63.8807C161.129 63.9247 161.337 64.0067 161.582 64.1271C161.83 64.244 162.004 64.3025 162.102 64.3025C162.197 64.3025 162.272 64.2732 162.326 64.2148C162.381 64.1564 162.432 64.0159 162.48 63.793H162.644ZM167.726 71.1859V71.3886H163.843V71.1859H164.09C164.305 71.1859 164.479 71.1475 164.61 71.0711C164.705 71.0197 164.778 70.9321 164.829 70.8081C164.869 70.7205 164.889 70.4905 164.889 70.1181V65.2333C164.889 64.8538 164.869 64.6165 164.829 64.5214C164.789 64.4267 164.707 64.3444 164.583 64.275C164.462 64.2021 164.298 64.1655 164.09 64.1655H163.843V63.963H167.726V64.1655H167.48C167.264 64.1655 167.091 64.2039 166.959 64.2806C166.864 64.3317 166.789 64.4193 166.735 64.5433C166.695 64.6309 166.675 64.8611 166.675 65.2333V70.1181C166.675 70.4976 166.695 70.7352 166.735 70.8299C166.779 70.925 166.861 71.0088 166.981 71.082C167.105 71.1513 167.271 71.1859 167.48 71.1859H167.726ZM172.655 69.2749H170.032L169.719 69.9977C169.617 70.2385 169.566 70.4374 169.566 70.5944C169.566 70.8025 169.65 70.956 169.818 71.0545C169.916 71.113 170.159 71.1567 170.546 71.1859V71.3886H168.077V71.1859C168.343 71.1457 168.562 71.0362 168.734 70.8574C168.905 70.6747 169.117 70.3005 169.369 69.7347L172.025 63.8096H172.129L174.807 69.8991C175.062 70.4758 175.272 70.8391 175.436 70.9887C175.561 71.1021 175.736 71.1676 175.962 71.1859V71.3886H172.37V71.1859H172.518C172.806 71.1859 173.009 71.1457 173.125 71.0655C173.206 71.007 173.246 70.9232 173.246 70.8134C173.246 70.7479 173.235 70.6803 173.213 70.611C173.206 70.5782 173.151 70.4413 173.049 70.2001L172.655 69.2749ZM172.468 68.8697L171.362 66.312L170.223 68.8697H172.468ZM173.933 49.075C173.933 54.3974 169.618 58.7123 164.296 58.7123C158.973 58.7123 154.658 54.3974 154.658 49.075C154.658 43.7525 158.973 39.4376 164.296 39.4376C169.618 39.4376 173.933 43.7525 173.933 49.075ZM164.296 56.0092C168.126 56.0092 171.23 52.9046 171.23 49.075C171.23 45.2453 168.126 42.1408 164.296 42.1408C160.466 42.1408 157.362 45.2453 157.362 49.075C157.362 52.9046 160.466 56.0092 164.296 56.0092Z" fill="white"/>
</svg>
