<svg width="275" height="269" viewBox="0 0 275 269" fill="none" xmlns="http://www.w3.org/2000/svg">
<path d="M84.104 13.0233C98.0341 20.9907 107.859 34.3908 119.766 45.148C134.574 58.4752 152.599 67.7161 172.064 71.9611C188.024 75.4149 204.699 75.466 220.078 80.8988C250.084 91.4262 270.634 122.67 271.151 154.437C271.668 186.204 253.595 217.001 227.031 234.417C217.984 240.351 208.079 244.862 197.664 247.791C178.129 253.288 157.412 253.045 137.226 250.945C102.356 247.312 65.8009 227.509 43.8205 199.592C34.0226 187.114 25.7419 173.516 19.1525 159.085C8.26654 135.355 2.0834 109.74 0.945099 83.6567C0.0194092 61.3125 0.945099 36.5423 18.6737 20.2565C36.4022 3.97073 63.3239 1.12982 84.104 13.0233Z" fill="#3A5BA0" fill-opacity="0.5"/>
<path opacity="0.7" d="M84.104 13.0233C98.0341 20.9907 107.859 34.3908 119.766 45.148C134.574 58.4752 152.599 67.7161 172.064 71.9611C188.024 75.4149 204.699 75.466 220.078 80.8988C250.084 91.4262 270.634 122.67 271.151 154.437C271.668 186.204 253.595 217.001 227.031 234.417C217.984 240.351 208.079 244.862 197.664 247.791C178.129 253.288 157.412 253.045 137.226 250.945C102.356 247.312 65.8009 227.509 43.8205 199.592C34.0226 187.114 25.7419 173.516 19.1525 159.085C8.26654 135.355 2.0834 109.74 0.945099 83.6567C0.0194092 61.3125 0.945099 36.5423 18.6737 20.2565C36.4022 3.97073 63.3239 1.12982 84.104 13.0233Z" fill="white"/>
<path d="M120.755 268.846C57.526 268.846 6.26903 255.041 6.26903 238.011C6.26903 220.981 57.526 207.176 120.755 207.176C183.983 207.176 235.24 220.981 235.24 238.011C235.24 255.041 183.983 268.846 120.755 268.846Z" fill="#3A5BA0"/>
<path opacity="0.5" d="M120.755 268.846C57.526 268.846 6.26903 255.041 6.26903 238.011C6.26903 220.981 57.526 207.176 120.755 207.176C183.983 207.176 235.24 220.981 235.24 238.011C235.24 255.041 183.983 268.846 120.755 268.846Z" fill="white"/>
<path d="M106.799 15.8772H241.395C244.55 15.8772 247.108 18.4353 247.108 21.5909V97.0443C247.108 100.2 244.55 102.758 241.395 102.758H106.799C103.644 102.758 101.085 100.2 101.085 97.0443V21.5909C101.085 18.4353 103.644 15.8772 106.799 15.8772Z" fill="white"/>
<path d="M101.085 21.5909V23.8508H247.108V21.5909C247.108 20.0726 246.507 18.6159 245.437 17.5393C244.366 16.4627 242.913 15.8537 241.395 15.8452H106.774C106.023 15.8477 105.279 15.9985 104.587 16.2888C103.894 16.5791 103.265 17.0034 102.737 17.5372C102.208 18.071 101.79 18.7038 101.507 19.3994C101.224 20.0951 101.08 20.8398 101.085 21.5909Z" fill="#3A5BA0"/>
<path d="M106.799 15.8772H241.395C244.55 15.8772 247.108 18.4353 247.108 21.5909V97.0443C247.108 100.2 244.55 102.758 241.395 102.758H106.799C103.644 102.758 101.085 100.2 101.085 97.0443V21.5909C101.085 18.4353 103.644 15.8772 106.799 15.8772Z" stroke="#263238" stroke-linecap="round" stroke-linejoin="round"/>
<path d="M101.085 21.5909V23.8508H247.108V21.5909C247.108 20.0726 246.507 18.6159 245.437 17.5393C244.366 16.4627 242.913 15.8537 241.395 15.8452H106.774C106.023 15.8477 105.279 15.9985 104.587 16.2888C103.894 16.5791 103.265 17.0034 102.737 17.5372C102.208 18.0709 101.79 18.7038 101.507 19.3994C101.224 20.0951 101.08 20.8398 101.085 21.5909Z" stroke="#263238" stroke-linecap="round" stroke-linejoin="round"/>
<path d="M230.707 19.8608C230.706 20.1503 230.791 20.4335 230.951 20.6748C231.111 20.916 231.338 21.1044 231.606 21.2161C231.873 21.3277 232.167 21.3575 232.451 21.3019C232.735 21.2462 232.996 21.1074 233.201 20.9032C233.406 20.699 233.546 20.4386 233.603 20.1548C233.66 19.871 233.631 19.5768 233.521 19.3092C233.41 19.0417 233.223 18.813 232.982 18.6521C232.742 18.4912 232.459 18.4053 232.169 18.4053C231.783 18.4053 231.412 18.5584 231.138 18.8312C230.864 19.104 230.709 19.4742 230.707 19.8608Z" fill="#263238"/>
<path d="M223.079 19.8608C223.078 20.1503 223.162 20.4335 223.322 20.6748C223.482 20.916 223.71 21.1044 223.977 21.2161C224.244 21.3277 224.538 21.3575 224.822 21.3019C225.106 21.2462 225.367 21.1074 225.572 20.9032C225.777 20.699 225.917 20.4386 225.974 20.1548C226.031 19.871 226.002 19.5768 225.892 19.3092C225.782 19.0417 225.594 18.813 225.354 18.6521C225.113 18.4912 224.83 18.4053 224.541 18.4053C224.154 18.4053 223.783 18.5584 223.509 18.8312C223.235 19.104 223.08 19.4742 223.079 19.8608Z" fill="#263238"/>
<path d="M216.912 21.3227C216.104 21.3227 215.45 20.6682 215.45 19.8608C215.45 19.0533 216.104 18.3988 216.912 18.3988C217.719 18.3988 218.374 19.0533 218.374 19.8608C218.374 20.6682 217.719 21.3227 216.912 21.3227Z" fill="#263238"/>
<path d="M194.81 30.1775H236.096C237.397 30.1775 238.451 31.2322 238.451 32.5332V52.3941C238.451 53.6951 237.397 54.7498 236.096 54.7498H194.81C193.509 54.7498 192.454 53.6951 192.454 52.3941V32.5332C192.454 31.2322 193.509 30.1775 194.81 30.1775Z" stroke="#263238" stroke-linecap="round" stroke-linejoin="round"/>
<path d="M235.745 51.6599H195.863" stroke="#263238" stroke-linecap="round" stroke-linejoin="round"/>
<path d="M228.154 46.9678H232.782V51.5962H228.154V46.9678Z" fill="#3A5BA0" stroke="#263238" stroke-miterlimit="10"/>
<path d="M221.381 40.8835H226.009V51.6599H221.381V40.8835Z" fill="#3A5BA0" stroke="#263238" stroke-miterlimit="10"/>
<path d="M213.751 42.735H218.38V51.7684H213.751V42.735Z" fill="#3A5BA0" stroke="#263238" stroke-miterlimit="10"/>
<path d="M205.733 33.7397H210.362V51.4556H205.733V33.7397Z" fill="#3A5BA0" stroke="#263238" stroke-miterlimit="10"/>
<path d="M197.721 33.8802H202.35V51.5961H197.721V33.8802Z" fill="#3A5BA0" stroke="#263238" stroke-miterlimit="10"/>
<path d="M135.425 56.0202C128.279 56.0202 122.485 50.2265 122.485 43.0797C122.485 35.9328 128.279 30.1392 135.425 30.1392C142.572 30.1392 148.366 35.9328 148.366 43.0797C148.366 50.2265 142.572 56.0202 135.425 56.0202Z" fill="#3A5BA0" stroke="#263238" stroke-miterlimit="10"/>
<path d="M134.366 51.1493V52.4772H136.536V51.1493C137.428 50.9337 138.216 50.4142 138.766 49.6802C139.316 48.9462 139.593 48.0435 139.55 47.1274V46.5273L137.092 46.2591V46.8975C137.092 48.1297 136.453 48.8766 135.451 48.8766C135.233 48.8946 135.015 48.8654 134.809 48.7909C134.604 48.7164 134.418 48.5983 134.262 48.4449C134.107 48.2915 133.987 48.1062 133.91 47.902C133.833 47.6977 133.801 47.4792 133.817 47.2614C133.817 46.0804 134.921 45.0653 136.223 43.9864C137.768 42.7096 139.307 41.1902 139.307 39.0451C139.307 36.9001 138.298 35.4509 136.536 35.0168V33.6825H134.366V35.004C132.584 35.419 131.55 36.9192 131.55 39.0579V39.492L134.008 39.7537V39.3069C134.008 38.03 134.512 37.3278 135.406 37.3278C136.3 37.3278 136.804 37.8832 136.804 38.943C136.804 40.124 135.668 41.1136 134.391 42.218C132.872 43.4948 131.308 45.0142 131.308 47.1593C131.27 48.077 131.556 48.9789 132.114 49.7079C132.673 50.4369 133.47 50.947 134.366 51.1493Z" fill="#263238"/>
<path d="M239.524 67.3008H235.745" stroke="#263238" stroke-linecap="round" stroke-linejoin="round"/>
<path d="M239.524 74.6042H235.745" stroke="#263238" stroke-linecap="round" stroke-linejoin="round"/>
<path d="M239.524 81.9141H235.745" stroke="#263238" stroke-linecap="round" stroke-linejoin="round"/>
<path d="M239.524 89.2174H235.745" stroke="#263238" stroke-linecap="round" stroke-linejoin="round"/>
<path d="M227.413 94.7332V91.7965" stroke="#263238" stroke-linecap="round" stroke-linejoin="round"/>
<path d="M221.425 94.7332V91.7965" stroke="#263238" stroke-linecap="round" stroke-linejoin="round"/>
<path d="M215.437 94.7332V91.7965" stroke="#263238" stroke-linecap="round" stroke-linejoin="round"/>
<path d="M209.442 94.7332V91.7965" stroke="#263238" stroke-linecap="round" stroke-linejoin="round"/>
<path d="M203.454 94.7332V91.7965" stroke="#263238" stroke-linecap="round" stroke-linejoin="round"/>
<path d="M197.466 94.7332V91.7965" stroke="#263238" stroke-linecap="round" stroke-linejoin="round"/>
<path d="M191.477 94.7332V91.7965" stroke="#263238" stroke-linecap="round" stroke-linejoin="round"/>
<path d="M185.483 94.7332V91.7965" stroke="#263238" stroke-linecap="round" stroke-linejoin="round"/>
<path d="M179.495 94.7332V91.7965" stroke="#263238" stroke-linecap="round" stroke-linejoin="round"/>
<path d="M173.506 94.7332V91.7965" stroke="#263238" stroke-linecap="round" stroke-linejoin="round"/>
<path d="M167.518 94.7332V91.7965" stroke="#263238" stroke-linecap="round" stroke-linejoin="round"/>
<path d="M161.523 94.7332V91.7965" stroke="#263238" stroke-linecap="round" stroke-linejoin="round"/>
<path d="M155.535 94.7332V91.7965" stroke="#263238" stroke-linecap="round" stroke-linejoin="round"/>
<path d="M149.547 94.7332V91.7965" stroke="#263238" stroke-linecap="round" stroke-linejoin="round"/>
<path d="M143.559 94.7332V91.7965" stroke="#263238" stroke-linecap="round" stroke-linejoin="round"/>
<path d="M137.794 94.7332V91.7965" stroke="#263238" stroke-linecap="round" stroke-linejoin="round"/>
<path d="M132.029 94.7332V91.7965" stroke="#263238" stroke-linecap="round" stroke-linejoin="round"/>
<path d="M126.271 94.7332V91.7965" stroke="#263238" stroke-linecap="round" stroke-linejoin="round"/>
<path d="M111.025 62.832V91.2156C111.025 93.1627 113.004 94.7332 115.443 94.7332H235.093C235.822 94.759 236.547 94.6163 237.211 94.3162C237.875 94.0161 238.462 93.5668 238.924 93.0031C239.323 92.4914 239.547 91.8645 239.562 91.2156V62.832C239.562 60.9167 237.583 59.3143 235.144 59.3143H115.443C113.004 59.3143 111.025 60.8848 111.025 62.832Z" stroke="#3A5BA0" stroke-linecap="round" stroke-linejoin="round"/>
<path d="M147.44 7.85876L185.636 59.3144L200.243 78.9901L216.203 68.8267L235.732 94.7333H236.013C236.625 94.7337 237.227 94.5744 237.759 94.271C238.291 93.9675 238.734 93.5305 239.045 93.0032L217.103 63.8854L201.143 74.0297L190.22 59.3463L150.39 5.72009L147.44 7.85876Z" fill="#263238"/>
<path d="M157.131 8.50997L143.093 0L146.974 14.7217L149.451 7.90987L157.131 8.50997Z" fill="#263238"/>
<path d="M24.2722 170.512H248.794L273.96 192.888" stroke="#263238" stroke-linecap="round" stroke-linejoin="round"/>
<path d="M248.653 154.845V111.338" stroke="#263238" stroke-linecap="round" stroke-linejoin="round"/>
<path d="M248.653 167.984V159.57" stroke="#263238" stroke-linecap="round" stroke-linejoin="round"/>
<path d="M37.7869 64.6639C37.7869 64.6639 37.7869 62.0337 41.4705 58.3565C45.1541 54.6793 47.5163 52.5725 47.5163 52.5725C47.5163 52.5725 49.3613 58.6182 45.9394 62.3018C43.4259 64.8967 40.6988 67.2756 37.7869 69.4137V64.6639Z" fill="#3A5BA0"/>
<path d="M43.1307 81.0901C43.1307 81.0901 43.1307 78.4599 46.8143 74.7763C50.4979 71.0927 52.86 68.9923 52.86 68.9923C52.86 68.9923 54.6987 75.038 51.2832 78.7216C48.7666 81.3152 46.0399 83.696 43.1307 85.8399V81.0901Z" fill="#3A5BA0"/>
<path d="M38.0233 69.1455C38.0233 69.1455 37.7424 66.528 33.6949 63.253C29.6474 59.978 27.0682 58.1458 27.0682 58.1458C27.0682 58.1458 25.8808 64.3702 29.6665 67.6516C32.4403 69.9609 35.4022 72.0345 38.5212 73.8506L38.0233 69.1455Z" fill="#3A5BA0"/>
<path d="M44.4778 88.5405C44.4778 88.5405 43.9224 85.9869 39.5557 83.1396C35.189 80.2923 32.4375 78.7473 32.4375 78.7473C32.4375 78.7473 31.9076 85.0484 35.9998 87.934C38.9992 89.9388 42.162 91.6878 45.4546 93.1626L44.4778 88.5405Z" fill="#3A5BA0"/>
<path d="M43.2583 109.678C43.2583 109.678 43.2583 107.048 39.5811 103.371C35.9038 99.6933 33.5353 97.5865 33.5353 97.5865C33.5353 97.5865 31.6904 103.639 35.1122 107.316C37.6218 109.914 40.3469 112.296 43.2583 114.434V109.678Z" fill="#3A5BA0"/>
<path d="M43.3221 114.843C43.3221 114.843 42.9518 112.238 46.0737 108.076C49.1955 103.913 51.232 101.487 51.232 101.487C51.232 101.487 53.9005 107.233 51.0468 111.344C48.9254 114.264 46.5636 117.002 43.9861 119.529L43.3221 114.843Z" fill="#3A5BA0"/>
<path d="M46.9543 130.133C46.9543 130.133 46.9544 127.509 43.2707 123.825C39.5871 120.142 37.225 118.079 37.225 118.079C37.225 118.079 35.38 124.125 38.8019 127.802C41.3151 130.399 44.0422 132.781 46.9543 134.921V130.133Z" fill="#3A5BA0"/>
<path d="M44.4966 144.005C44.4966 144.005 45.135 141.452 42.5239 136.983C39.9128 132.514 38.138 129.865 38.138 129.865C38.138 129.865 34.8311 135.253 37.1996 139.677C38.9764 142.821 41.0136 145.811 43.29 148.615L44.4966 144.005Z" fill="#3A5BA0"/>
<path d="M37.4551 64.0127C37.641 66.7488 37.9777 69.4726 38.4638 72.1715C39.9194 79.692 43.5711 84.5439 45.0139 91.3238C46.4567 98.1037 42.2878 106.869 43.4051 115.583C44.5223 124.298 47.925 129.156 46.9674 134.978C46.0098 140.8 40.9025 156.556 40.9025 156.556" stroke="#263238" stroke-width="1.17749" stroke-linecap="round" stroke-linejoin="round"/>
<path d="M38.0549 70.8948L34.0904 67.8433" stroke="#263238" stroke-width="1.17749" stroke-linecap="round" stroke-linejoin="round"/>
<path d="M37.8763 67.3899L39.5298 64.4341" stroke="#263238" stroke-width="1.17749" stroke-linecap="round" stroke-linejoin="round"/>
<path d="M44.7903 91.0175C44.7903 91.0175 41.4706 88.5213 38.0551 86.0315" stroke="#263238" stroke-width="1.17749" stroke-linecap="round" stroke-linejoin="round"/>
<path d="M43.1306 85.8081C43.1306 85.8081 45.9013 80.3816 49.0359 76.781" stroke="#263238" stroke-width="1.17749" stroke-linecap="round" stroke-linejoin="round"/>
<path d="M43.1306 113.419C41.2285 109.926 38.8309 106.726 36.0124 103.92" stroke="#263238" stroke-width="1.17749" stroke-linecap="round" stroke-linejoin="round"/>
<path d="M43.7752 117.109C44.7933 114.734 46.0062 112.447 47.4014 110.272C49.3166 107.412 49.623 107.041 49.623 107.041" stroke="#263238" stroke-width="1.17749" stroke-linecap="round" stroke-linejoin="round"/>
<path d="M46.9543 134.972C46.1113 132.881 45.1104 130.858 43.9602 128.92C42.8118 127.115 41.5179 125.407 40.0915 123.812" stroke="#263238" stroke-width="1.17749" stroke-linecap="round" stroke-linejoin="round"/>
<path d="M43.2966 148.583C43.4892 146.588 43.1453 144.578 42.3006 142.76C40.9153 140.085 39.3512 136.574 38.7 135.195" stroke="#263238" stroke-width="1.17749" stroke-linecap="round" stroke-linejoin="round"/>
<path d="M61.8933 99.7892C61.8933 99.7892 62.1806 98.1485 60.2718 95.4352C58.3629 92.722 57.0797 91.1451 57.0797 91.1451C57.0797 91.1451 55.273 94.733 57.0159 97.4143C58.3107 99.3119 59.7629 101.097 61.357 102.751L61.8933 99.7892Z" fill="#3A5BA0"/>
<path d="M56.7605 109.531C56.7605 109.531 57.0478 107.878 55.1389 105.171C53.2301 102.464 51.9469 100.887 51.9469 100.887C51.9469 100.887 50.1402 104.481 51.8831 107.156C53.1763 109.055 54.6286 110.841 56.2242 112.493L56.7605 109.531Z" fill="#3A5BA0"/>
<path d="M61.2612 102.573C61.2612 102.573 61.7081 100.964 64.6128 99.3805C67.5176 97.7973 69.3243 96.8907 69.3243 96.8907C69.3243 96.8907 69.3945 100.894 66.6558 102.573C64.6666 103.72 62.5844 104.698 60.4313 105.496L61.2612 102.573Z" fill="#3A5BA0"/>
<path d="M55.1071 114.032C55.1071 114.032 55.7455 112.481 58.7843 111.185C61.8231 109.889 63.7319 109.206 63.7319 109.206C63.7319 109.206 63.3808 113.208 60.4888 114.575C58.3891 115.506 56.2152 116.259 53.9898 116.828L55.1071 114.032Z" fill="#3A5BA0"/>
<path d="M53.5748 127.407C53.5748 127.407 53.8621 125.76 56.569 123.851C59.2758 121.942 60.9931 120.876 60.9931 120.876C60.9931 120.876 61.4911 124.879 58.9438 126.807C57.0874 128.155 55.1205 129.345 53.0641 130.362L53.5748 127.407Z" fill="#3A5BA0"/>
<path d="M52.9812 130.656C52.9812 130.656 53.4983 129.066 51.9917 126.117C50.4851 123.168 49.4381 121.425 49.4381 121.425C49.4381 121.425 47.1398 124.719 48.4805 127.624C49.5028 129.685 50.6943 131.658 52.0428 133.523L52.9812 130.656Z" fill="#3A5BA0"/>
<path d="M48.3592 143.954C48.3592 143.954 48.1676 142.294 45.5757 140.232C42.9838 138.17 41.3303 137.04 41.3303 137.04C41.3303 137.04 40.6025 140.998 43.0348 143.079C44.8113 144.532 46.7053 145.835 48.6975 146.974L48.3592 143.954Z" fill="#3A5BA0"/>
<path d="M49.0423 139.856C49.0423 139.856 49.3296 138.202 52.0364 136.293C54.7432 134.385 56.4542 133.325 56.4542 133.325C56.4542 133.325 56.9521 137.328 54.4113 139.256C52.552 140.603 50.5831 141.793 48.5252 142.812L49.0423 139.856Z" fill="#3A5BA0"/>
<path d="M49.0804 148.819C49.0804 148.819 48.9336 147.146 51.0722 144.618C53.2109 142.09 54.5962 140.615 54.5962 140.615C54.5962 140.615 56.0901 144.35 54.1174 146.872C52.6604 148.65 51.0589 150.305 49.3294 151.819L49.0804 148.819Z" fill="#3A5BA0"/>
<path d="M62.1804 99.4061C61.7649 101.104 61.2555 102.777 60.6546 104.418C58.9309 108.969 56.1219 111.619 54.4748 115.717C52.8277 119.816 54.4748 125.76 52.8469 131.103C51.219 136.447 48.5377 139.109 48.5185 142.882C48.4994 146.655 49.9549 157.08 49.9549 157.08" stroke="#263238" stroke-width="1.17749" stroke-linecap="round" stroke-linejoin="round"/>
<path d="M61.0506 103.664L63.866 102.19" stroke="#263238" stroke-width="1.17749" stroke-linecap="round" stroke-linejoin="round"/>
<path d="M61.5488 101.487L60.8274 99.4572" stroke="#263238" stroke-width="1.17749" stroke-linecap="round" stroke-linejoin="round"/>
<path d="M54.6411 115.545C54.6411 115.545 56.9968 114.345 59.4036 113.151" stroke="#263238" stroke-width="1.17749" stroke-linecap="round" stroke-linejoin="round"/>
<path d="M56.2498 112.493C55.5573 110.308 54.6439 108.199 53.5238 106.199" stroke="#263238" stroke-width="1.17749" stroke-linecap="round" stroke-linejoin="round"/>
<path d="M53.2494 129.781C54.8204 127.798 56.6696 126.052 58.7397 124.598" stroke="#263238" stroke-width="1.17749" stroke-linecap="round" stroke-linejoin="round"/>
<path d="M52.4448 132.029C52.072 130.434 51.5658 128.872 50.9318 127.362C50.0444 125.351 49.8912 125.089 49.8912 125.089" stroke="#263238" stroke-width="1.17749" stroke-linecap="round" stroke-linejoin="round"/>
<path d="M48.6399 145.729C47.7264 144.594 46.7137 143.543 45.6138 142.588C44.9134 142.069 44.2559 141.495 43.6475 140.871" stroke="#263238" stroke-width="1.17749" stroke-linecap="round" stroke-linejoin="round"/>
<path d="M48.5187 142.882C49.2818 141.664 50.1354 140.505 51.0723 139.415C51.9891 138.414 52.9862 137.489 54.0537 136.651" stroke="#263238" stroke-width="1.17749" stroke-linecap="round" stroke-linejoin="round"/>
<path d="M49.3167 151.819C49.4182 150.542 49.859 149.314 50.5935 148.263C51.7554 146.731 53.1472 144.701 53.6707 143.903" stroke="#263238" stroke-width="1.17749" stroke-linecap="round" stroke-linejoin="round"/>
<path d="M37.0721 175.057H53.8366C54.1698 175.058 54.4898 174.927 54.7284 174.695C54.967 174.462 55.1051 174.146 55.1135 173.812L57.5203 155.26H33.4395L35.8463 173.812C35.8542 174.137 35.9853 174.446 36.2129 174.677C36.4406 174.909 36.7478 175.045 37.0721 175.057Z" fill="#263238"/>
<path d="M33.6309 158.395H57.4946C57.9913 158.397 58.4684 158.201 58.8214 157.852C59.1744 157.503 59.3746 157.027 59.3779 156.531C59.3698 156.035 59.1696 155.562 58.8195 155.21C58.4695 154.859 57.9968 154.657 57.501 154.647H33.6309C33.3839 154.647 33.1392 154.695 32.9107 154.789C32.6823 154.882 32.4746 155.021 32.2996 155.195C32.1247 155.369 31.9858 155.577 31.8911 155.805C31.7964 156.033 31.7477 156.277 31.7477 156.524C31.7485 156.771 31.7979 157.015 31.893 157.242C31.9881 157.47 32.127 157.676 32.3019 157.85C32.4768 158.023 32.6842 158.161 32.9122 158.254C33.1402 158.348 33.3845 158.396 33.6309 158.395Z" fill="#263238"/>
<path d="M87.4301 84.1929C87.431 89.4323 89.2069 94.5168 92.4682 98.6175C95.7295 102.718 100.284 105.593 105.388 106.773H105.459C106.065 106.907 106.672 107.029 107.297 107.118C108.395 107.274 109.502 107.353 110.611 107.354C116.67 107.333 122.48 104.939 126.796 100.687C131.113 96.4339 133.592 90.6601 133.704 84.6017C133.816 78.5434 131.551 72.682 127.395 68.273C123.238 63.8639 117.521 61.2576 111.466 61.0123C111.255 61.0123 111.032 61.0123 110.828 61.0123C110.76 61.006 110.691 61.006 110.623 61.0123C110.545 61.006 110.466 61.006 110.387 61.0123C107.26 61.0325 104.17 61.6953 101.309 62.9595C97.1826 64.7672 93.6722 67.7382 91.2074 71.5092C88.7425 75.2802 87.4299 79.6878 87.4301 84.1929Z" fill="#3A5BA0"/>
<path opacity="0.4" d="M101.296 62.966C128.064 61.5743 128.192 91.2921 128.192 91.2921C128.192 91.2921 132.278 81.5947 125.606 70.8631C121.878 64.8557 115.392 62.2063 110.374 61.0316C107.248 61.0478 104.158 61.7062 101.296 62.966Z" fill="white"/>
<path d="M87.4301 84.1931C87.4303 89.4454 89.2143 94.5419 92.4897 98.6478C95.7651 102.754 100.338 105.625 105.459 106.793C107.148 107.182 108.877 107.377 110.611 107.374C116.759 107.487 122.7 105.154 127.127 100.887C131.554 96.6197 134.106 90.7687 134.219 84.6209C134.332 78.473 131.999 72.5319 127.732 68.1045C123.465 63.677 117.614 61.126 111.466 61.0126C111.185 61.0126 110.898 61.0126 110.611 61.0126C104.463 61.0143 98.5682 63.457 94.2214 67.8039C89.8745 72.1507 87.4318 78.0458 87.4301 84.1931Z" stroke="#263238" stroke-linecap="round" stroke-linejoin="round"/>
<path d="M87.4298 84.1931C87.4301 89.4454 89.214 94.5419 92.4894 98.6478C95.7648 102.754 100.338 105.625 105.458 106.793C105.739 106.793 106.027 106.793 106.314 106.793C112.004 106.778 117.49 104.671 121.727 100.874C125.965 97.0762 128.658 91.8532 129.294 86.1989C129.931 80.5446 128.466 74.8537 125.178 70.2094C121.891 65.5652 117.01 62.2919 111.466 61.0126C111.185 61.0126 110.898 61.0126 110.61 61.0126C104.463 61.0143 98.5679 63.457 94.2211 67.8039C89.8743 72.1507 87.4315 78.0458 87.4298 84.1931Z" stroke="#263238" stroke-linecap="round" stroke-linejoin="round"/>
<path d="M102.624 98.6785L102.024 101.13L106.033 102.107L106.633 99.6616C110.221 99.6616 113.1 97.3314 114.019 93.5904L114.294 92.4795L109.87 90.8771L109.589 92.0327C109.033 94.3054 107.533 95.3971 105.663 94.9374C105.252 94.8735 104.86 94.7213 104.514 94.4913C104.168 94.2613 103.876 93.9589 103.658 93.6051C103.44 93.2513 103.302 92.8544 103.252 92.4418C103.203 92.0293 103.243 91.6109 103.371 91.2155C103.907 89.0321 106.41 87.6659 109.308 86.2551C112.736 84.5952 116.273 82.4885 117.243 78.524C118.188 74.6552 117.001 71.4313 113.943 69.8352L114.543 67.3837L110.54 66.407L109.94 68.8521C106.461 68.801 103.869 71.0929 102.918 75.051L102.72 75.8554L107.137 77.4578L107.361 76.5704C107.948 74.1636 109.187 73.1486 110.834 73.5508C112.481 73.953 113.164 75.2106 112.685 77.1642C112.149 79.3475 109.614 80.6626 106.748 82.131C103.358 83.8483 99.7829 85.8976 98.8126 89.8557C97.8358 93.667 99.3935 97.0633 102.624 98.6785Z" stroke="#263238" stroke-miterlimit="10"/>
<path opacity="0.3" d="M102.624 98.6785L102.024 101.13L106.033 102.107L106.633 99.6616C110.221 99.6616 113.1 97.3314 114.019 93.5904L114.294 92.4795L109.87 90.8771L109.589 92.0327C109.033 94.3054 107.533 95.3971 105.663 94.9374C105.252 94.8735 104.86 94.7213 104.514 94.4913C104.168 94.2613 103.876 93.9589 103.658 93.6051C103.44 93.2513 103.302 92.8544 103.252 92.4418C103.203 92.0293 103.243 91.6109 103.371 91.2155C103.907 89.0321 106.41 87.6659 109.308 86.2551C112.736 84.5952 116.273 82.4885 117.243 78.524C118.188 74.6552 117.001 71.4313 113.943 69.8352L114.543 67.3837L110.54 66.407L109.94 68.8521C106.461 68.801 103.869 71.0929 102.918 75.051L102.72 75.8554L107.137 77.4578L107.361 76.5704C107.948 74.1636 109.187 73.1486 110.834 73.5508C112.481 73.953 113.164 75.2106 112.685 77.1642C112.149 79.3475 109.614 80.6626 106.748 82.131C103.358 83.8483 99.7829 85.8976 98.8126 89.8557C97.8358 93.667 99.3935 97.0633 102.624 98.6785Z" fill="black"/>
<path d="M122.459 104.124L117.563 103.901" stroke="#263238" stroke-linecap="round" stroke-linejoin="round"/>
<path d="M124.815 102.496L120.544 102.132" stroke="#263238" stroke-linecap="round" stroke-linejoin="round"/>
<path d="M126.73 100.779L122.46 100.415" stroke="#263238" stroke-linecap="round" stroke-linejoin="round"/>
<path d="M127.318 68.1179H123.66" stroke="#263238" stroke-linecap="round" stroke-linejoin="round"/>
<path d="M125.511 66.4325L121.865 66.2665" stroke="#263238" stroke-linecap="round" stroke-linejoin="round"/>
<path d="M123.225 64.7407L119.382 64.3768" stroke="#263238" stroke-linecap="round" stroke-linejoin="round"/>
<path opacity="0.3" d="M105.388 106.774H105.459C107.148 107.163 108.877 107.357 110.611 107.355C116.67 107.333 122.48 104.939 126.796 100.687C131.113 96.4341 133.592 90.6604 133.704 84.602C133.816 78.5436 131.551 72.6823 127.395 68.2732C123.238 63.8641 117.521 61.2579 111.466 61.0126C111.255 61.0126 111.032 61.0126 110.828 61.0126C116.478 62.7937 125.958 67.3456 128.492 76.8387C132.074 90.3282 124.011 105.644 105.388 106.774Z" fill="black"/>
<path opacity="0.1" d="M87.4299 84.1931C87.4308 89.4325 89.2067 94.517 92.468 98.6177C95.7293 102.718 100.284 105.593 105.388 106.774H105.459C106.065 106.908 106.671 107.029 107.297 107.118L101.296 62.9469C97.17 64.7574 93.661 67.7313 91.1983 71.5046C88.7357 75.278 87.4261 79.6872 87.4299 84.1931Z" fill="black"/>
<path d="M74.2788 47.7017C76.1143 50.2944 78.7746 52.1882 81.8252 53.0741C84.8758 53.9599 88.1366 53.7854 91.0753 52.5791L91.1583 52.5408C91.5942 52.3492 92.0203 52.1361 92.4351 51.9024C92.9037 51.6505 93.3558 51.3691 93.7886 51.0597C96.6166 48.9 98.5194 45.7473 99.1125 42.2387C99.7057 38.7301 98.9449 35.1271 96.984 32.1578C95.0231 29.1885 92.0082 27.0741 88.5485 26.242C85.0888 25.4099 81.4422 25.922 78.3455 27.6748L78.0327 27.8728C77.8858 27.9557 77.7454 28.0579 77.5985 28.16C77.4517 28.2622 77.1708 28.4729 76.9601 28.6388C74.1695 30.8772 72.3382 34.0961 71.8399 37.6386C71.3416 41.1812 72.2139 44.7804 74.2788 47.7017Z" fill="#3A5BA0"/>
<path opacity="0.4" d="M95.4355 47.8932C95.4355 47.8932 97.7274 41.1452 94.6822 36.1784C90.8517 29.954 84.9848 27.1131 76.9983 28.6452C76.9983 28.6452 81.3267 25.7213 88.5726 27.7961C95.8186 29.871 99.7065 39.8429 95.4355 47.8932Z" fill="white"/>
<path d="M74.2788 47.7081C76.1161 50.2985 78.7771 52.1898 81.8276 53.0733C84.8781 53.9568 88.138 53.7803 91.0753 52.5727C92.0447 52.1766 92.9657 51.6711 93.8204 51.0661C96.6661 48.8831 98.5689 45.6942 99.1385 42.1531C99.7082 38.6121 98.9016 34.9873 96.8842 32.022C94.8667 29.0566 91.7913 26.9754 88.2884 26.2051C84.7856 25.4348 81.1208 26.0337 78.0454 27.8791C77.9049 27.9621 77.7581 28.0579 77.6176 28.16C74.5875 30.3132 72.5346 33.5799 71.9087 37.2441C71.2829 40.9083 72.1352 44.6711 74.2788 47.7081Z" stroke="#263238" stroke-linecap="round" stroke-linejoin="round"/>
<path d="M74.2788 47.7082C76.1162 50.2986 78.7772 52.1899 81.8277 53.0734C84.8782 53.9569 88.138 53.7804 91.0753 52.5728L91.5031 52.2919C94.2766 50.2815 96.2198 47.3267 96.967 43.9837C97.7142 40.6406 97.2138 37.1397 95.5601 34.1398C93.9064 31.1399 91.2133 28.8478 87.9876 27.6948C84.762 26.5418 81.2261 26.6074 78.0454 27.8792C77.905 27.9622 77.7582 28.058 77.6177 28.1601C74.5876 30.3133 72.5347 33.58 71.9088 37.2442C71.2829 40.9084 72.1352 44.6712 74.2788 47.7082Z" stroke="#263238" stroke-linecap="round" stroke-linejoin="round"/>
<path d="M86.8489 49.5721L87.4043 50.9893L89.7281 50.0764L89.1727 48.6528C90.0349 48.0457 90.6592 47.1578 90.9387 46.141C91.2182 45.1243 91.1356 44.042 90.7048 43.0795L90.4495 42.4411L87.7043 43.188L87.9661 43.8647C88.4832 45.1798 88.1321 46.2396 87.0468 46.6673C86.8215 46.7794 86.5746 46.8412 86.323 46.8485C86.0715 46.8557 85.8214 46.8082 85.5901 46.7092C85.3587 46.6103 85.1517 46.4622 84.9832 46.2753C84.8148 46.0884 84.6889 45.8671 84.6144 45.6267C84.1165 44.3499 84.8762 42.8113 85.8147 41.1068C86.9255 39.0894 87.9342 36.8167 87.034 34.5184C86.1338 32.2202 84.4357 31.0966 82.3736 31.3775L81.8118 29.9602L79.4944 30.8731L80.0498 32.284C78.3134 33.4714 77.8345 35.476 78.7347 37.8062L78.9198 38.2659L81.665 37.5189L81.4607 37.0018C80.9117 35.6101 81.167 34.6717 82.0991 34.295C83.0312 33.9183 83.8292 34.295 84.2761 35.4377C84.7741 36.7146 83.976 38.234 83.0759 39.9577C81.997 41.9942 80.95 44.2541 81.8501 46.546C82.1915 47.5597 82.8808 48.4198 83.7958 48.9737C84.7108 49.5277 85.7924 49.7396 86.8489 49.5721Z" stroke="#263238" stroke-miterlimit="10"/>
<path opacity="0.3" d="M86.8489 49.5721L87.4043 50.9893L89.7281 50.0764L89.1727 48.6528C90.0349 48.0457 90.6592 47.1578 90.9387 46.141C91.2182 45.1243 91.1356 44.042 90.7048 43.0795L90.4495 42.4411L87.7043 43.188L87.9661 43.8647C88.4832 45.1798 88.1321 46.2396 87.0468 46.6673C86.8215 46.7794 86.5746 46.8412 86.323 46.8485C86.0715 46.8557 85.8214 46.8082 85.5901 46.7092C85.3587 46.6103 85.1517 46.4622 84.9832 46.2753C84.8148 46.0884 84.6889 45.8671 84.6144 45.6267C84.1165 44.3499 84.8762 42.8113 85.8147 41.1068C86.9255 39.0894 87.9342 36.8167 87.034 34.5184C86.1338 32.2202 84.4357 31.0966 82.3736 31.3775L81.8118 29.9602L79.4944 30.8731L80.0498 32.284C78.3134 33.4714 77.8345 35.476 78.7347 37.8062L78.9198 38.2659L81.665 37.5189L81.4607 37.0018C80.9117 35.6101 81.167 34.6717 82.0991 34.295C83.0312 33.9183 83.8292 34.295 84.2761 35.4377C84.7741 36.7146 83.976 38.234 83.0759 39.9577C81.997 41.9942 80.95 44.2541 81.8501 46.546C82.1915 47.5597 82.8808 48.4198 83.7958 48.9737C84.7108 49.5277 85.7924 49.7396 86.8489 49.5721Z" fill="black"/>
<path opacity="0.3" d="M78.3775 27.6812C82.2079 26.9981 87.0598 26.6215 89.6773 28.3196C94.4845 31.4031 97.4786 35.291 97.4339 41.5921C97.3892 47.8932 91.5031 52.311 91.5031 52.311L91.1584 52.5599C92.0973 52.1678 92.9901 51.6733 93.8205 51.0852C96.6485 48.9255 98.5514 45.7728 99.1445 42.2642C99.7377 38.7556 98.9769 35.1527 97.016 32.1833C95.0551 29.214 92.0402 27.0997 88.5805 26.2675C85.1208 25.4354 81.4742 25.9475 78.3775 27.7004V27.6812Z" fill="black"/>
<path opacity="0.1" d="M74.2787 47.7017C76.1143 50.2944 78.7745 52.1882 81.8251 53.0741C84.8757 53.9599 88.1366 53.7855 91.0752 52.5792L91.1582 52.5409C91.5941 52.3492 92.0202 52.1362 92.4351 51.9024L76.9984 28.6453C74.2035 30.878 72.3659 34.093 71.8605 37.6343C71.3551 41.1756 72.22 44.7763 74.2787 47.7017Z" fill="black"/>
<path d="M81.5055 227.484C87.4479 234.632 94.532 240.747 102.471 245.583C104.945 247.063 107.502 248.397 110.132 249.579C128.269 257.732 148.94 258.261 168.271 253.576C208.919 243.725 230.484 207.846 233.223 168.016C233.957 157.253 235.604 145.627 231.244 135.387C226.884 125.147 218.067 118.789 208.095 114.371C200.856 111.147 193.035 108.983 185.93 107.214C173.071 104.038 159.507 105.437 147.568 111.172C139.211 115.137 133.261 122.025 126.232 127.828C125.488 128.441 124.738 129.052 123.985 129.661C116.885 135.376 109.421 140.624 101.641 145.372C89.8239 152.579 77.7261 159.378 70.1738 171.483C58.127 190.775 68.2905 211.779 81.5055 227.484Z" fill="#3A5BA0"/>
<path opacity="0.4" d="M81.5055 227.484C87.4479 234.632 94.532 240.747 102.471 245.583C104.945 247.063 107.502 248.397 110.132 249.579C128.269 257.732 148.94 258.261 168.271 253.576C208.919 243.725 230.484 207.846 233.223 168.016C233.957 157.253 235.604 145.627 231.244 135.387C226.884 125.147 218.067 118.789 208.095 114.371C200.856 111.147 193.035 108.983 185.93 107.214C173.071 104.038 159.507 105.437 147.568 111.172C139.211 115.137 133.261 122.025 126.232 127.828C125.488 128.441 124.738 129.052 123.985 129.661C116.885 135.376 109.421 140.624 101.641 145.372C89.8239 152.579 77.7261 159.378 70.1738 171.483C58.127 190.775 68.2905 211.779 81.5055 227.484Z" fill="white"/>
<path d="M124.011 129.661C124.764 129.056 125.513 128.443 126.258 127.822C133.28 122.006 139.243 115.137 147.593 111.172C159.534 105.44 173.096 104.041 185.955 107.214C202.854 111.409 223.813 117.869 231.282 135.394C235.643 145.608 233.995 157.253 233.255 168.016C230.484 207.846 208.919 243.725 168.271 253.576C146.157 258.938 122.306 257.47 102.471 245.583C94.5319 240.747 87.4479 234.632 81.5055 227.484C68.2904 211.779 58.127 190.775 70.1609 171.483C77.7069 159.353 89.8047 152.579 101.628 145.372C109.421 140.625 116.898 135.377 124.011 129.661Z" stroke="#263238" stroke-miterlimit="10"/>
<path d="M185.585 200.683C188.969 201.708 192.253 203.037 195.397 204.654" stroke="#263238" stroke-linecap="round" stroke-linejoin="round"/>
<path d="M164.869 196.738C169.812 197.166 174.719 197.945 179.552 199.068" stroke="#263238" stroke-linecap="round" stroke-linejoin="round"/>
<path d="M169.178 195.717C169.178 195.717 188.253 184.621 211.274 193.514" stroke="#263238" stroke-linecap="round" stroke-linejoin="round"/>
<path opacity="0.1" d="M81.5055 227.484C87.4479 234.632 94.532 240.747 102.471 245.583C104.945 247.063 107.503 248.397 110.132 249.579C112.207 248.944 114.247 248.195 116.241 247.338C128.154 242.231 138.151 233.593 147.919 225.077C153.812 219.97 159.8 214.735 166.854 211.37C176.394 206.86 187.247 205.966 197.396 208.855C192.147 202.931 185.01 199.004 177.196 197.74C182.24 193.15 189.256 191.222 196.074 191.101C202.892 190.98 206.646 191.816 213.311 193.31C211.083 189.211 205.171 185.502 200.505 185.611C204.941 185.552 209.37 185.238 213.771 184.672C219.791 183.702 222.485 176.615 223.385 170.589C225.875 153.99 223.353 136.313 214.294 122.204C212.501 119.39 210.426 116.765 208.102 114.371C200.862 111.147 193.042 108.983 185.936 107.214C173.077 104.038 159.514 105.437 147.574 111.172C139.218 115.137 133.268 122.025 126.239 127.828C125.494 128.441 124.745 129.052 123.992 129.661C116.891 135.376 109.427 140.624 101.647 145.372C89.8304 152.579 77.7325 159.378 70.1802 171.483C58.127 190.775 68.2905 211.779 81.5055 227.484Z" fill="black"/>
<path d="M74.8532 226.999C71.2737 229.974 67.5288 232.745 63.6363 235.298C56.0457 235.809 59.4484 244.982 59.4484 244.982L65.9474 249.164C65.9474 249.164 77.0748 240.322 83.1525 237.456C89.2301 234.589 74.8532 226.999 74.8532 226.999Z" fill="white"/>
<path opacity="0.3" d="M128.792 130.408C128.792 130.408 129.833 120.11 131.493 117.218L156.697 112.085V110.132C156.697 110.132 156.116 106.735 161.734 104.609C167.352 102.484 179.06 105.248 182.08 107.533C185.1 109.819 183.995 113.751 183.995 113.751C183.995 113.751 194.146 118.878 198.704 120.831C202.436 122.553 206.073 124.471 209.602 126.577C209.602 126.577 211.67 150.249 211.262 155.746C210.853 161.243 211.594 166.414 211.121 169.459C210.649 172.504 210.279 174.234 207.087 176.826C203.895 179.418 200.99 183.21 192.62 179.45L193.789 178.524L138.694 159.966L128.792 130.408Z" fill="black"/>
<path d="M128.792 130.408C128.792 130.408 129.833 120.11 131.493 117.218L156.697 112.085V110.132C156.697 110.132 156.116 106.735 161.734 104.609C167.352 102.484 179.06 105.248 182.08 107.533C185.1 109.819 183.995 113.751 183.995 113.751C183.995 113.751 194.146 118.878 198.704 120.831C202.436 122.553 206.073 124.471 209.602 126.577C209.602 126.577 211.67 150.249 211.262 155.746C210.853 161.243 211.594 166.414 211.121 169.459C210.649 172.504 210.279 174.234 207.087 176.826C203.895 179.418 200.99 183.21 192.62 179.45L193.789 178.524L138.694 159.966L128.792 130.408Z" fill="#3A5BA0"/>
<path opacity="0.05" d="M128.792 130.408C128.792 130.408 129.833 120.11 131.493 117.218L156.697 112.085V110.132C156.697 110.132 156.116 106.735 161.734 104.609C167.352 102.484 179.06 105.248 182.08 107.533C185.1 109.819 183.995 113.751 183.995 113.751C183.995 113.751 194.146 118.878 198.704 120.831C202.436 122.553 206.073 124.471 209.602 126.577C209.602 126.577 211.67 150.249 211.262 155.746C210.853 161.243 211.594 166.414 211.121 169.459C210.649 172.504 210.279 174.234 207.087 176.826C203.895 179.418 200.99 183.21 192.62 179.45L193.789 178.524L138.694 159.966L128.792 130.408Z" fill="black"/>
<path opacity="0.1" d="M131.161 118.469H141.707C142.699 118.471 143.658 118.824 144.414 119.465C145.17 120.107 145.675 120.996 145.838 121.974L151.034 153.256C151.034 153.256 158.191 153.85 163.26 157.546C168.329 161.243 180.797 134.87 200.498 134.857C200.498 134.857 194.829 147.817 193.572 158.159C193.572 158.159 205.886 156.818 207.929 161.638C209.972 166.458 207.004 175.492 201.794 171.993C196.585 168.495 191.682 162.66 188.203 166.35C184.723 170.04 169.178 172.025 169.178 172.025L145.257 159.966L135.981 155.605L131.161 118.469Z" fill="black"/>
<path opacity="0.4" d="M164.645 102.963C164.645 102.963 158.657 104.622 157.687 106.633C156.716 108.644 156.818 113.732 156.818 113.732C158.272 117.133 160.473 120.162 163.26 122.594L167.729 113.732L167.327 123.781C167.327 123.781 175.805 122.37 179.405 119.663L182.999 116.95C182.999 116.95 184.551 111.843 184.327 110.113C184.104 108.383 177.637 104.871 177.637 104.871L164.645 102.963Z" fill="white"/>
<path d="M64.9005 257.91C65.0665 257.546 62.4426 252.912 64.4983 248.194C66.5539 243.476 69.829 245.295 69.829 245.295C69.829 245.295 79.1561 239.358 83.0759 237.481C85.9002 236.063 88.6202 234.446 91.2156 232.642L95.3589 238.222L91.5284 250.071L64.9005 257.91Z" fill="#3A5BA0"/>
<path d="M70.1675 245.008L58.191 252.324C58.191 252.324 49.7704 246.923 45.7548 243.195C41.7392 239.467 32.7185 231.525 32.7185 231.525L26.9728 223.794C26.9728 223.794 30.9565 218.865 37.5959 222.823C46.1761 227.931 56.6396 235.349 63.6174 235.279C63.6174 235.279 62.2448 243.852 70.1228 245.008" fill="#3A5BA0"/>
<path d="M166.675 72.0125C166.675 72.0125 161.243 80.2351 160.253 82.8973C159.264 85.5595 158.466 89.4984 158.663 91.3945C158.861 93.2906 160.853 103.448 161.856 103.741L162.82 104.833L162.181 109.136C162.181 109.136 166.433 116.484 178.933 111.096C178.933 111.096 179.418 102.516 180.938 99.8215C182.457 97.1274 184.73 100.332 187.009 92.55C189.288 84.7678 182.029 76.5898 182.029 76.5898L166.675 72.0125Z" fill="white"/>
<path opacity="0.5" d="M32.1887 221.393C32.1887 221.393 38.3494 222.466 40.3476 226.111C42.3458 229.756 46.1826 236.53 47.4914 239.805C48.8001 243.08 59.6211 250.99 59.6211 250.99L58.1847 252.324C58.1847 252.324 49.3747 246.879 44.0567 241.701C38.7388 236.524 27.0112 223.5 27.0112 223.5C27.0112 223.5 27.8539 222.664 32.1887 221.393Z" fill="white"/>
<path opacity="0.5" d="M93.8331 236.172L95.3589 238.222L90.673 247.938L64.9005 257.202L63.7067 253.429C63.7067 253.429 63.3108 249.598 72.3571 246.687C81.4033 243.776 86.9191 241.854 89.4919 239.856C92.0647 237.858 93.8331 236.172 93.8331 236.172Z" fill="white"/>
<path d="M178.914 164.007C178.914 164.007 186.804 162.819 190.488 169.274C194.172 175.728 193.795 178.524 193.795 178.524C193.795 178.524 188.579 183.261 181.41 182.993C174.241 182.725 163.803 174.515 160.4 171.84C156.997 169.165 148.417 161.511 142.563 163.094L141.924 157.559C141.924 157.559 142.499 155.075 147.504 155.746C152.509 156.416 154.476 159.27 156.091 159.27C157.706 159.27 159.232 157.718 162.475 163.26C162.481 163.26 173.864 165.277 178.914 164.007Z" fill="white"/>
<path d="M168.661 83.8357C168.493 84.8702 168.254 85.8919 167.946 86.8937C167.831 87.3827 167.613 87.8417 167.308 88.2407C166.708 88.8791 165.737 89.0451 164.85 89.1792C164.703 89.1896 164.564 89.2479 164.454 89.3452C164.382 89.4595 164.349 89.5936 164.358 89.7282C164.364 90.7337 164.666 91.7153 165.226 92.55" stroke="#263238" stroke-linecap="round" stroke-linejoin="round"/>
<path opacity="0.1" d="M88.5406 229.552L93.833 236.147C93.833 236.147 88.0235 241.516 82.0097 243.508C75.9959 245.5 65.4686 249.254 63.7066 252.145L64.3833 248.704C64.3833 248.704 80.8478 238.605 84.6272 236.192C85.7446 235.459 86.6786 234.479 87.3571 233.328C88.0357 232.177 88.4406 230.885 88.5406 229.552Z" fill="black"/>
<path opacity="0.1" d="M70.1675 245.008L59.6274 250.99C59.6274 250.99 54.4244 247.428 51.8707 244.804C49.3171 242.18 46.1697 239.269 44.2098 233.389C41.5349 225.262 33.874 221.393 33.874 221.393C33.874 221.393 44.529 226.411 50.0768 230.331C55.6246 234.251 61.0319 235.911 64.1728 235.643C64.2047 235.662 61.683 243.642 70.1675 245.008Z" fill="black"/>
<path d="M172.376 93.999C172.376 93.999 168.233 97.2485 163.93 96.0292C163.93 96.0292 167.991 104.073 172.376 93.999Z" fill="white" stroke="#263238" stroke-linecap="round" stroke-linejoin="round"/>
<path d="M172.529 86.9766C172.408 87.8704 172.683 88.6429 173.129 88.7067C173.576 88.7706 174.042 88.0683 174.164 87.1937C174.285 86.3191 174.017 85.5274 173.564 85.4636C173.11 85.3998 172.625 86.0829 172.529 86.9766Z" fill="#263238"/>
<path d="M163.509 85.3487C163.394 86.2489 163.662 87.0213 164.109 87.0788C164.556 87.1362 165.028 86.4404 165.143 85.5721C165.258 84.7039 164.996 83.8995 164.543 83.8421C164.09 83.7846 163.63 84.4549 163.509 85.3487Z" fill="#263238"/>
<path d="M173.168 83.1846C173.168 83.1846 175.581 81.9397 177.299 84.6082" stroke="#263238" stroke-linecap="round" stroke-linejoin="round"/>
<path d="M166.982 81.5246C166.982 81.5246 164.428 79.3349 162.954 81.5246" stroke="#263238" stroke-linecap="round" stroke-linejoin="round"/>
<path d="M181.365 91.4009C181.365 91.4009 182.917 89.109 184.557 89.1792C186.198 89.2494 186.849 91.5477 186.262 93.7693C185.674 95.991 183.229 99.0937 181.378 98.8C180.334 98.6654 179.381 98.1353 178.716 97.3189" stroke="#263238" stroke-linecap="round" stroke-linejoin="round"/>
<path d="M166.49 73.8636C164.748 75.3128 162.903 76.8897 162.022 79.022C161.243 80.8351 161.07 82.8524 160.355 84.6847C159.596 86.6446 158.766 88.6939 158.702 90.8325C158.736 92.8112 158.995 94.7795 159.474 96.6995C159.739 98.3642 160.134 100.006 160.655 101.609C161.517 103.901 163.107 105.312 165.239 106.397C166.79 107.189 169.376 108.312 171.055 107.252C172.032 106.614 173.5 104.788 174.719 103.109" stroke="#263238" stroke-linecap="round" stroke-linejoin="round"/>
<path d="M181.365 98.7999C181.365 98.7999 178.62 105.529 179.284 110.259" stroke="#263238" stroke-linecap="round" stroke-linejoin="round"/>
<path d="M182.068 90.2708C181.702 90.0005 181.413 89.6404 181.227 89.2256C181.041 88.8107 180.966 88.3549 181.008 87.9023C181.11 86.8681 181.825 85.9105 181.685 84.8763C181.567 84.381 181.382 83.9041 181.135 83.459C180.764 82.6001 180.6 81.6656 180.658 80.7315C180.715 79.7974 180.993 78.8902 181.467 78.0836C181.467 78.0836 172.747 78.4922 168.661 75.8939C164.575 73.2955 161.46 66.6497 163.93 63.4768C166.401 60.304 171.215 64.6324 174.783 65.1112C178.352 65.59 191.044 67.6137 193.067 72.5039C195.091 77.3941 192.008 79.1497 191.912 83.8165C191.816 88.4833 191.816 97.3252 184.838 96.5144C184.838 96.5144 187.449 93.1372 185.636 89.6579C184.404 88.196 182.068 90.2708 182.068 90.2708Z" fill="#263238"/>
<path d="M164.964 68.9927C163.78 69.915 162.799 71.0711 162.08 72.389C161.362 73.7069 160.923 75.1585 160.789 76.6536C160.4 80.152 154.195 86.9511 158.67 90.8262C158.67 90.8262 159.71 86.7085 160.323 84.6784C160.936 82.6482 161.721 78.9327 162.749 77.6559C163.777 76.3791 169.229 71.9102 169.229 71.9102L164.964 68.9927Z" fill="#263238"/>
<path d="M180.561 110.112C180.561 110.112 176.258 112.947 168.265 113.062L167.326 123.781C167.326 123.781 176.315 123.098 182.999 116.95C182.999 116.95 184.806 112.168 184.327 110.112C183.848 108.057 179.552 106.02 179.552 106.02" stroke="#263238" stroke-linecap="round" stroke-linejoin="round"/>
<path d="M162.481 105.318L162.226 109.149C163.911 110.904 165.977 112.247 168.265 113.075L163.26 122.606C163.26 122.606 157.291 117.959 156.697 113.075C156.697 113.075 156.646 108.076 157.687 106.646C158.727 105.216 162.519 104.546 162.519 104.546" stroke="#263238" stroke-linecap="round" stroke-linejoin="round"/>
<path opacity="0.8" d="M186.702 75.696C186.064 74.0936 184.315 73.1424 182.61 72.887C180.905 72.6317 179.156 72.8104 177.432 72.7657C175.046 72.7465 172.708 72.0849 170.665 70.8505C169.65 70.2324 168.767 69.4204 168.066 68.4608C167.365 67.5012 166.86 66.4129 166.58 65.2581" stroke="white" stroke-linecap="round" stroke-linejoin="round"/>
<path opacity="0.8" d="M190.82 75.3831C189.741 72.1081 186.242 70.0843 182.801 69.797C181.097 69.6502 179.373 69.8481 177.694 69.6502C176.015 69.4523 174.228 68.75 173.34 67.2881" stroke="white" stroke-linecap="round" stroke-linejoin="round"/>
<path d="M192.633 179.45C200.932 183.753 203.882 179.322 208.504 175.658C213.126 171.993 210.094 165.443 211.058 154.942C212.022 144.44 209.621 126.577 209.621 126.577C209.621 126.577 207.553 126.105 201.813 122.594C196.074 119.082 183.995 113.732 183.995 113.732" stroke="#263238" stroke-linecap="round" stroke-linejoin="round"/>
<path d="M184.41 163.554C184.41 163.554 185.725 159.385 189.441 159.276C193.156 159.168 199.017 160.84 203.192 168.738" stroke="#263238" stroke-linecap="round" stroke-linejoin="round"/>
<path d="M190.29 159.027C190.521 159.012 190.748 158.958 190.96 158.868C194.023 157.766 197.348 157.614 200.498 158.434" stroke="#263238" stroke-linecap="round" stroke-linejoin="round"/>
<path d="M202.637 132.278C195.876 139.747 192.582 149.63 189.46 159.206" stroke="#263238" stroke-linecap="round" stroke-linejoin="round"/>
<path d="M156.697 112.085C156.697 112.085 144.439 115.009 138.451 115.705C132.463 116.401 131.492 117.237 131.492 117.237L130.375 121.412" stroke="#263238" stroke-linecap="round" stroke-linejoin="round"/>
<path d="M99.5786 119.35L141.324 120.953L144.733 163.886H137.583L101.334 155.771L96.776 120.378L99.5786 119.35Z" fill="white"/>
<path d="M142.563 165.156L96.9039 121.393L101.334 155.771L142.563 165.156Z" fill="#3A5BA0"/>
<path opacity="0.7" d="M142.563 165.156L96.9039 121.393L101.334 155.771L142.563 165.156Z" fill="white"/>
<path d="M142.563 164.007L138.911 122.593L96.7762 120.378L101.334 155.771L142.563 164.007Z" stroke="#263238" stroke-linecap="round" stroke-linejoin="round"/>
<path d="M114.537 140.443C114.818 142.965 116.165 144.88 117.544 144.727C118.923 144.574 119.804 142.397 119.523 139.875C119.242 137.353 117.888 135.438 116.509 135.591C115.131 135.745 114.25 137.922 114.537 140.443Z" fill="#263238"/>
<path d="M101.335 155.771C101.335 155.771 82.0419 155.222 76.009 159.206C69.976 163.19 66.4328 183.165 67.2692 193.776C68.1055 204.386 75.3833 228.735 75.3833 228.735L89.3261 212.954C89.3261 212.954 96.1954 187.979 92.4479 178.199C92.4479 178.199 110.962 179.239 118.252 176.954C118.252 176.954 124.783 166.26 135.981 162.724L101.335 155.771Z" fill="#263238"/>
<path d="M72.44 229.15C77.3922 224.527 81.8392 219.391 85.7061 213.828C92.4541 203.403 101.781 193.399 111.376 185.591C119.108 179.322 120.857 169.108 130.395 163.981C146.195 155.51 159.857 172.345 164.964 175.754C170.072 179.163 178.914 183.025 178.914 183.025C178.914 183.025 175.683 195.155 166.196 196.591C156.71 198.028 147.114 191.484 142.575 194.644C138.036 197.804 134.678 211.913 119.689 220.18C107.437 226.935 90.7431 233.523 82.131 237.966C80.2158 238.962 78.7857 240.009 77.7004 240.603C74.7255 242.225 71.5462 244.133 68.5457 246.023L58.2099 252.318C58.2099 252.318 47.8358 246.183 43.8521 240.526C43.3222 239.767 42.2178 237.743 41.1836 235.789C38.93 231.519 36.0763 227.688 32.1245 225.575C29.3922 224.1 26.9598 223.66 27.0173 223.506C27.279 223.021 32.2331 220.487 35.5975 221.872C42.7221 224.815 56.965 236.121 63.6874 235.279C66.8142 233.552 69.7482 231.498 72.44 229.15Z" stroke="#263238" stroke-miterlimit="10"/>
<path d="M72.44 229.15C78.6517 231.659 81.1542 235.534 82.1119 237.973C90.724 233.504 107.418 226.941 119.669 220.187C134.659 211.887 137.992 197.804 142.556 194.65C147.121 191.497 156.723 198.06 166.177 196.598C175.632 195.136 178.914 183.019 178.914 183.019C178.914 183.019 170.065 179.188 164.958 175.779C159.851 172.37 148.072 155.529 130.395 164.007C120.633 168.686 119.108 179.329 111.376 185.617C101.8 193.399 92.4541 203.429 85.7061 213.854C81.8486 219.416 77.4007 224.545 72.44 229.15Z" fill="#263238"/>
<path d="M119.121 175.026C119.121 175.026 123.902 165.309 131.57 163.426" stroke="white" stroke-linecap="round" stroke-linejoin="round"/>
<path d="M144.184 155.682C149.457 154.533 155.248 160.361 157.687 159.27C159.5 158.459 162.481 163.26 162.481 163.26C167.388 163.968 172.351 164.218 177.305 164.007C184.41 163.554 187.775 164.939 190.29 168.737L193.801 178.039C193.801 178.039 184.538 186.338 174.649 181.506C164.76 176.673 151.622 162.092 142.569 162.143" stroke="#263238" stroke-linecap="round" stroke-linejoin="round"/>
<path d="M70.5693 244.759C70.5693 244.759 61.9125 245.468 63.9427 235.125" stroke="#263238" stroke-miterlimit="10"/>
<path d="M29.7751 228.735C30.4135 230.012 38.3489 236.766 45.1863 242.671C45.1863 242.582 43.2711 238.975 42.4794 237.437C40.66 234.04 35.9613 224.726 27.0172 223.5C25.7468 224.266 29.7751 228.735 29.7751 228.735Z" fill="#263238"/>
<path d="M33.1783 221.464C42.2245 223.264 44.2802 234.87 47.4914 239.805C50.7025 244.74 59.6211 251.449 59.6211 251.449" stroke="#263238" stroke-miterlimit="10"/>
<path d="M64.4983 248.487C63.0236 251.181 63.7194 254.309 64.4983 256.269C64.8798 257.243 65.3545 258.177 65.9155 259.059C78.722 256.952 91.5284 250.07 91.5284 250.07L94.829 239.856L95.3589 238.222L90.3857 231.525" stroke="#263238" stroke-miterlimit="10"/>
<path d="M64.4984 256.27C64.8799 257.243 65.3545 258.177 65.9156 259.059C78.7221 256.953 91.5285 250.071 91.5285 250.071L94.8291 239.856C93.1756 242.014 90.1113 245.174 85.5147 246.47C79.2775 248.238 67.767 250.307 64.4984 256.27Z" fill="#263238"/>
<path d="M144.733 162.392L141.324 120.953L99.5786 119.35L96.776 120.378" stroke="#263238" stroke-linecap="round" stroke-linejoin="round"/>
<path d="M64.0005 239.805C64.0005 239.805 58.2931 240.826 53.9073 237.251C49.5214 233.676 42.4542 225.588 42.4542 225.588" stroke="#263238" stroke-miterlimit="10"/>
<path d="M58.1908 234.659C58.1908 234.659 59.5698 236.734 58.1908 240.897" stroke="#263238" stroke-linecap="round" stroke-linejoin="round"/>
<path d="M54.1436 232.674C54.7711 234.743 54.5861 236.974 53.6265 238.911" stroke="#263238" stroke-linecap="round" stroke-linejoin="round"/>
<path d="M49.3168 229.878C49.3168 229.878 50.4723 233.344 49.3168 236.402" stroke="#263238" stroke-linecap="round" stroke-linejoin="round"/>
<path d="M89.2556 230.663L93.833 236.172C93.833 236.172 89.2237 241.209 82.7183 243.303C76.213 245.397 64.594 248.953 63.63 252.739" stroke="#263238" stroke-miterlimit="10"/>
</svg>
