<svg width="321" height="180" viewBox="0 0 321 180" fill="none" xmlns="http://www.w3.org/2000/svg">
<g clip-path="url(#clip0_15_519)">
<path opacity="0.7" d="M87.5014 115.74C87.5014 115.74 97.4225 159.515 139.939 181.637C182.456 203.76 233.936 195.857 275.82 190.542C317.704 185.227 344.957 155.649 342.934 119.413C340.911 83.1777 307.324 79.0086 282.431 42.1933C257.537 5.37796 256.521 -8.13141 215.468 -25.7179C174.415 -43.3044 120.621 -17.023 99.0385 31.1444C77.4562 79.3118 87.5014 115.74 87.5014 115.74Z" fill="white"/>
<path d="M102.093 5.87255C87.4665 19.6645 75.7675 36.1979 69.3301 55.4675C59.9746 83.5136 64.24 113.069 79.4804 138.077C89.5457 154.584 103.916 167.602 118.819 179.666C137.962 195.176 156.859 214.869 180.596 223.178C217.544 236.091 262.426 221.763 290.631 195.952C308.849 179.273 322.525 153.393 314.781 128.477C311.916 119.258 307.483 110.271 306.643 100.527C305.64 88.8517 310.86 78.1146 312.701 66.8132C314.979 52.8539 311.037 40.0368 305.449 27.4407C293.213 -0.134699 269.628 -22.173 241.395 -32.8445C211.939 -43.9728 181.852 -40.3188 153.431 -27.6673C150.32 -26.2684 147.231 -24.8067 144.183 -23.2615C129.055 -15.5941 114.517 -5.86433 102.093 5.87255Z" fill="#FFC900"/>
<path opacity="0.7" d="M102.093 5.87255C87.4665 19.6645 75.7675 36.1979 69.3301 55.4675C59.9746 83.5136 64.24 113.069 79.4804 138.077C89.5457 154.584 103.916 167.602 118.819 179.666C137.962 195.176 156.859 214.869 180.596 223.178C217.544 236.091 262.426 221.763 290.631 195.952C308.849 179.273 322.525 153.393 314.781 128.477C311.916 119.258 307.483 110.271 306.643 100.527C305.64 88.8517 310.86 78.1146 312.701 66.8132C314.979 52.8539 311.037 40.0368 305.449 27.4407C293.213 -0.134699 269.628 -22.173 241.395 -32.8445C211.939 -43.9728 181.852 -40.3188 153.431 -27.6673C150.32 -26.2684 147.231 -24.8067 144.183 -23.2615C129.055 -15.5941 114.517 -5.86433 102.093 5.87255Z" fill="white"/>
<path opacity="0.2" d="M222.07 176.016L257.486 141.167C257.486 141.167 286.072 163.762 290.433 166.237L290.99 169.149L294.151 172.518L260.062 208.791L255.127 208.436L222.07 176.016Z" fill="black" fill-opacity="0.7"/>
<path d="M252.462 140.068L219.549 175.718L255.125 208.437L288.038 172.787L252.462 140.068Z" fill="#FFC900"/>
<mask id="mask0_15_519" style="mask-type:luminance" maskUnits="userSpaceOnUse" x="219" y="140" width="70" height="69">
<path d="M252.462 140.068L219.549 175.718L255.125 208.437L288.038 172.787L252.462 140.068Z" fill="white"/>
</mask>
<g mask="url(#mask0_15_519)">
<path opacity="0.2" d="M262.062 148.895L286.992 171.82L255.603 205.815C243.541 197.645 230.578 185.857 230.578 185.857L262.062 148.895Z" fill="black" fill-opacity="0.7"/>
</g>
<path d="M252.462 140.068L219.549 175.718L255.125 208.437L288.038 172.787L252.462 140.068Z" stroke="#263238" stroke-linecap="round" stroke-linejoin="round"/>
<path d="M287.586 169.477C279.359 178.388 266.965 189.909 259.433 196.773C255.51 200.347 252.862 202.681 252.862 202.681C244.606 198.44 219.543 175.724 219.543 175.724L252.455 140.076C252.757 140.356 253.049 140.643 253.343 140.922C272.225 158.83 287.586 169.477 287.586 169.477Z" fill="white"/>
<mask id="mask1_15_519" style="mask-type:luminance" maskUnits="userSpaceOnUse" x="219" y="140" width="69" height="63">
<path d="M287.586 169.477C279.359 178.388 266.965 189.909 259.433 196.773C255.51 200.347 252.862 202.681 252.862 202.681C244.606 198.44 219.543 175.724 219.543 175.724L252.455 140.076C252.757 140.356 253.049 140.643 253.343 140.922C272.225 158.83 287.586 169.477 287.586 169.477Z" fill="white"/>
</mask>
<g mask="url(#mask1_15_519)">
<path opacity="0.4" d="M287.586 169.477C279.359 178.388 266.965 189.909 259.434 196.773C250.341 196.861 246.087 193.803 243.541 189.864C240.509 185.195 263.739 176.076 264.871 168.659C265.679 163.368 256.233 149.605 253.352 140.915C272.225 158.83 287.586 169.477 287.586 169.477Z" fill="#FFC900"/>
</g>
<path d="M287.586 169.477C279.359 178.388 266.965 189.909 259.433 196.773C255.51 200.347 252.862 202.681 252.862 202.681C244.606 198.44 219.543 175.724 219.543 175.724L252.455 140.076C252.757 140.356 253.049 140.643 253.343 140.922C272.225 158.83 287.586 169.477 287.586 169.477Z" stroke="#263238" stroke-linecap="round" stroke-linejoin="round"/>
<path d="M230.138 177.153C230.253 176.178 230.541 175.231 230.989 174.356L232.57 175.448L234.102 173.348C234.614 172.645 235.173 171.805 234.958 170.976C235.925 171.606 237.111 170.588 237.83 169.682C242.79 163.381 248.187 157.436 253.98 151.889" stroke="#263238" stroke-linecap="round" stroke-linejoin="round"/>
<path d="M234.76 181.884C234.193 181.951 234.038 180.969 234.531 180.678C235.025 180.387 235.68 180.702 236.038 181.148C236.232 180.983 236.369 180.762 236.431 180.516C236.492 180.269 236.473 180.01 236.378 179.775L237.376 179.803C237.264 179.758 237.162 179.69 237.078 179.604C236.993 179.518 236.927 179.415 236.884 179.303C236.84 179.19 236.821 179.07 236.826 178.949C236.831 178.828 236.861 178.71 236.913 178.601C236.966 178.492 237.04 178.395 237.132 178.316C237.224 178.236 237.33 178.177 237.446 178.14C237.561 178.103 237.683 178.091 237.803 178.103C237.924 178.115 238.04 178.152 238.145 178.211C237.727 177.694 237.406 176.761 238.028 176.524C238.241 176.479 238.461 176.476 238.676 176.514C238.907 176.503 239.132 176.437 239.333 176.323C239.534 176.208 239.706 176.048 239.834 175.855C239.961 175.662 240.042 175.442 240.069 175.213C240.095 174.983 240.067 174.751 239.987 174.535C240.917 174.776 241.786 174.071 242.502 173.391L248.738 167.443C248.507 166.954 248.346 166.236 248.823 165.984C249.105 165.849 249.44 165.981 249.754 165.965C250.193 165.877 250.586 165.632 250.859 165.276C253.569 162.45 256.052 159.417 258.286 156.203" stroke="#263238" stroke-linecap="round" stroke-linejoin="round"/>
<path d="M241.333 186.385C242.329 185.832 243.188 185.062 243.847 184.134C243.469 183.91 243.178 183.565 243.023 183.154C242.867 182.744 242.855 182.292 242.99 181.873L244.209 181.843C247.582 179.448 250.673 176.679 253.422 173.59C254.654 172.212 255.815 170.762 256.972 169.316L263.57 161.09" stroke="#263238" stroke-linecap="round" stroke-linejoin="round"/>
<path opacity="0.2" d="M190.781 -27.9874L190.035 -27.4136C189.704 -27.1301 189.283 -26.9739 188.848 -26.9735C188.413 -26.9731 187.993 -27.1285 187.664 -27.4114C183.565 -30.9183 177.577 -30.4023 172.763 -26.6972C168.415 -23.3556 165.556 -17.276 165.444 -11.4661C165.452 -10.7199 165.295 -9.98047 164.983 -9.30095C164.671 -8.62143 164.213 -8.01866 163.641 -7.5359L159.934 -4.68335C159.439 -4.27812 158.826 -4.04198 158.188 -4.00973C157.549 -3.97747 156.918 -4.1508 156.387 -4.50419C152.345 -7.12403 146.827 -6.75693 142.474 -3.41207C137.647 0.294692 134.475 6.8173 134.956 13.1099C134.998 13.6138 134.918 14.121 134.723 14.5886C134.528 15.0561 134.222 15.4701 133.833 15.7956L133.087 16.3693C132.918 16.5127 132.799 16.7067 132.75 16.9223C132.7 17.1379 132.721 17.3636 132.81 17.5656L133.806 19.6975C133.831 19.7747 133.872 19.8458 133.926 19.9061C133.98 19.9665 134.046 20.0148 134.12 20.048C134.194 20.0812 134.275 20.0984 134.356 20.0987C134.437 20.099 134.518 20.0823 134.593 20.0496L135.723 19.7004C136.159 19.5626 136.63 19.5806 137.053 19.7513C137.477 19.922 137.827 20.2348 138.044 20.6361C141.879 27.0269 149.31 28.6071 155.278 24.025C161.03 19.6027 163.484 10.9218 161.336 3.71432C161.169 3.12636 161.151 2.50558 161.283 1.90756C161.415 1.30953 161.693 0.752946 162.093 0.287601C163.188 -0.959662 164.506 -1.99222 165.98 -2.75675C166.449 -3.00018 166.993 -3.05868 167.502 -2.92063C168.011 -2.78257 168.449 -2.45806 168.728 -2.01159C172.678 3.83943 179.796 5.1752 185.558 0.746365C191.538 -3.83746 193.973 -12.9749 191.401 -20.3517C191.228 -20.8655 191.177 -21.413 191.253 -21.9509C191.328 -22.4887 191.529 -23.002 191.837 -23.45L192.617 -24.5582C192.73 -24.7069 192.801 -24.8829 192.824 -25.068C192.846 -25.2532 192.819 -25.4407 192.744 -25.6112L191.753 -27.7464C191.725 -27.8432 191.671 -27.9307 191.598 -28.0004C191.525 -28.07 191.435 -28.1195 191.337 -28.1438C191.239 -28.1681 191.136 -28.1665 191.039 -28.139C190.941 -28.1116 190.852 -28.0594 190.781 -27.9874ZM154.445 22.2178C148.882 26.4918 141.898 24.6031 138.831 18.0369C135.764 11.4706 137.767 2.63189 143.332 -1.60824C148.897 -5.84838 155.88 -3.99359 158.942 2.57591C162.003 9.14541 159.994 17.9536 154.445 22.2178ZM159.823 0.158343C159.629 -0.177937 159.414 -0.516743 159.179 -0.858085C159.093 -0.999361 159.059 -1.16705 159.085 -1.33107C159.111 -1.49509 159.195 -1.64472 159.321 -1.75313L165.961 -6.85196C166.017 -6.89823 166.085 -6.92913 166.156 -6.94164C166.228 -6.95414 166.302 -6.94782 166.37 -6.92329C166.439 -6.89875 166.499 -6.85685 166.546 -6.8017C166.594 -6.74655 166.626 -6.68004 166.639 -6.60872C166.757 -6.20461 166.885 -5.80704 167.025 -5.41118C163.464 -4.26212 161.013 -1.47901 159.823 0.158343ZM184.715 -1.05436C179.152 3.21965 172.168 1.33098 169.106 -5.23851C166.044 -11.808 168.037 -20.6402 173.602 -24.8804C179.167 -29.1205 186.15 -27.2657 189.217 -20.6995C192.283 -14.1332 190.278 -5.32836 184.715 -1.05436Z" fill="black" fill-opacity="0.7"/>
<path d="M186.624 -23.4354L146.204 12.387C145.25 13.2329 144.483 14.2684 143.953 15.4268C143.422 16.5851 143.141 17.8406 143.126 19.1122L142.983 32.9064C142.982 33.0341 143.011 33.1601 143.066 33.2751C143.121 33.3901 143.201 33.4911 143.301 33.5707C143.4 33.6502 143.517 33.7062 143.642 33.7345C143.766 33.7629 143.896 33.7628 144.02 33.7342C144.568 33.6072 145.057 33.2995 145.409 32.861C145.761 32.4225 145.954 31.8789 145.959 31.3182L146.114 18.5952C146.121 17.8351 146.287 17.084 146.6 16.3899C146.913 15.6958 147.367 15.0737 147.934 14.5632L188.067 -21.641L186.624 -23.4354Z" fill="#263238"/>
<path d="M129.263 20.696L173.522 -10.2524C174.57 -10.9816 175.76 -11.4836 177.013 -11.7257C178.266 -11.9678 179.555 -11.9446 180.796 -11.6577L194.258 -8.58966C194.383 -8.56105 194.499 -8.50464 194.598 -8.42467C194.697 -8.34471 194.777 -8.24328 194.831 -8.128C194.885 -8.01271 194.912 -7.88659 194.91 -7.75909C194.908 -7.63159 194.878 -7.50604 194.82 -7.39187C194.571 -6.88868 194.158 -6.48372 193.65 -6.24258C193.142 -6.00143 192.568 -5.93821 192.021 -6.06315L179.59 -8.88746C178.845 -9.05716 178.073 -9.07006 177.323 -8.92534C176.572 -8.78061 175.859 -8.48143 175.229 -8.04686L130.652 22.5345L129.263 20.696Z" fill="#263238"/>
<path d="M158.305 5.22072C158.925 4.94968 161.433 8.71739 161.04 10.8262C160.647 12.935 157.29 10.7149 156.866 9.38854C156.443 8.06221 156.358 6.05876 158.305 5.22072Z" fill="#FFC900" stroke="#263238" stroke-linecap="round" stroke-linejoin="round"/>
<path d="M165.757 -0.510481C165.342 0.0219997 168.314 3.37142 170.477 3.57249C172.641 3.77357 171.333 -0.0825166 170.162 -0.826996C168.99 -1.57148 167.065 -2.17134 165.757 -0.510481Z" fill="#FFC900" stroke="#263238" stroke-linecap="round" stroke-linejoin="round"/>
<path opacity="0.5" d="M132.429 9.9087C133.424 6.33491 136.09 -0.406447 143.697 -0.838147C151.305 -1.26985 155.546 0.977314 157.643 6.48124C159.739 11.9852 160.61 20.65 151.82 24.9716C143.029 29.2932 129.34 21.0085 132.429 9.9087Z" fill="#FFC900"/>
<path opacity="0.5" d="M163.037 -12.9885C164.032 -16.5623 166.689 -23.3052 174.297 -23.7369C181.904 -24.1686 186.151 -21.9247 188.242 -16.4175C190.333 -10.9103 191.214 -2.252 182.419 2.07287C173.624 6.39775 159.927 -1.90949 163.037 -12.9885Z" fill="#FFC900"/>
<path d="M187.092 -24.7332L186.346 -24.1594C185.977 -23.8737 185.534 -23.7011 185.07 -23.6628C184.605 -23.6245 184.14 -23.7222 183.732 -23.9439C178.753 -26.6678 172.235 -25.675 167.409 -21.9682C165.282 -20.3228 163.611 -18.1631 162.554 -15.6949C161.497 -13.2266 161.089 -10.5317 161.369 -7.86683C161.462 -7.18805 161.377 -6.49592 161.12 -5.85906C160.863 -5.2222 160.444 -4.66274 159.905 -4.23615L156.195 -1.38842C155.645 -0.97343 154.996 -0.709726 154.312 -0.623717C153.629 -0.537709 152.936 -0.63242 152.302 -0.898368C149.796 -1.85247 147.085 -2.14949 144.427 -1.76114C141.769 -1.37279 139.251 -0.312001 137.114 1.32025C132.291 5.03183 129.658 11.071 131.019 16.5806C131.128 17.0321 131.102 17.506 130.945 17.9443C130.788 18.3825 130.507 18.7661 130.136 19.0482L129.39 19.622C129.228 19.7478 129.122 19.9325 129.095 20.1357C129.069 20.3388 129.124 20.5438 129.249 20.7058L130.636 22.5104C130.741 22.6446 130.887 22.7405 131.052 22.7835C131.217 22.8265 131.392 22.8143 131.55 22.7486L132.748 22.3327C133.209 22.1661 133.707 22.1348 134.184 22.2427C134.661 22.3505 135.097 22.5929 135.439 22.9411C137.861 25.5338 141.152 27.1483 144.693 27.4802C148.234 27.8121 151.779 26.8384 154.66 24.7427C157.541 22.6471 159.559 19.5744 160.332 16.1043C161.106 12.6342 160.582 9.00644 158.859 5.90545C158.605 5.41493 158.507 4.85822 158.578 4.30941C158.649 3.7606 158.886 3.24572 159.256 2.83328C160.348 1.58831 161.663 0.557887 163.134 -0.204546C163.635 -0.456908 164.2 -0.551155 164.755 -0.474735C165.309 -0.398314 165.827 -0.154853 166.238 0.223209C168.791 2.70717 172.172 4.16479 175.74 4.31909C179.307 4.47339 182.813 3.31363 185.59 1.06018C188.367 -1.19328 190.222 -4.38341 190.803 -7.90407C191.383 -11.4247 190.649 -15.0306 188.74 -18.0365C188.49 -18.4537 188.366 -18.9341 188.382 -19.4208C188.398 -19.9075 188.553 -20.38 188.83 -20.782L189.531 -21.8298C189.634 -21.9653 189.691 -22.1307 189.692 -22.3009C189.693 -22.471 189.638 -22.6366 189.535 -22.7722L188.143 -24.5735C188.024 -24.7315 187.847 -24.8366 187.651 -24.8664C187.455 -24.8962 187.254 -24.8484 187.092 -24.7332ZM153.69 22.861C151.7 24.3915 149.303 25.3 146.801 25.4716C144.299 25.6432 141.806 25.0701 139.636 23.825C137.467 22.5799 135.719 20.7186 134.613 18.4768C133.507 16.235 133.094 13.7134 133.425 11.2313C133.757 8.74911 134.818 6.41797 136.474 4.5329C138.131 2.64783 140.309 1.29358 142.731 0.641562C145.154 -0.0104576 147.714 0.0690677 150.085 0.870074C152.457 1.67108 154.535 3.15756 156.055 5.14135C158.086 7.79801 158.977 11.1535 158.533 14.474C158.09 17.7945 156.349 20.81 153.69 22.861ZM156.698 2.91281C156.424 2.62126 156.143 2.34104 155.854 2.08026C155.798 2.02844 155.753 1.96469 155.724 1.89355C155.694 1.82242 155.681 1.74566 155.685 1.66874C155.689 1.59181 155.71 1.51662 155.746 1.44852C155.782 1.38042 155.833 1.3211 155.895 1.27476L162.531 -3.82889C162.592 -3.88078 162.663 -3.9184 162.739 -3.93894C162.816 -3.95948 162.896 -3.96239 162.974 -3.94745C163.052 -3.93252 163.126 -3.90014 163.189 -3.85274C163.252 -3.80534 163.304 -3.74415 163.34 -3.6738C163.521 -3.33312 163.718 -2.98933 163.918 -2.6617C161 -1.59442 158.482 0.350043 156.713 2.90301L156.698 2.91281ZM183.974 -0.42091C181.985 1.10954 179.587 2.01806 177.086 2.18966C174.584 2.36126 172.091 1.78822 169.921 0.543074C167.751 -0.702071 166.003 -2.56335 164.898 -4.80516C163.792 -7.04697 163.379 -9.56852 163.71 -12.0507C164.041 -14.5328 165.102 -16.864 166.759 -18.749C168.416 -20.6341 170.593 -21.9883 173.016 -22.6404C175.439 -23.2924 177.998 -23.2129 180.37 -22.4119C182.742 -21.6108 184.819 -20.1244 186.34 -18.1406C188.37 -15.4869 189.263 -12.1345 188.822 -8.81595C188.382 -5.49743 186.644 -2.48272 183.989 -0.430705L183.974 -0.42091Z" fill="#757575" stroke="#263238" stroke-linecap="round" stroke-linejoin="round"/>
<path opacity="0.4" d="M143.452 24.3813C143.452 24.3813 136.14 21.8933 134.869 14.1288C133.736 7.14091 139.086 2.64588 142.573 1.91855L143.625 16.2941C142.463 13.3937 141.617 10.3756 141.103 7.29197C141.103 7.29197 139.427 16.1347 143.452 24.3813Z" fill="white"/>
<path opacity="0.4" d="M173.467 0.867489C173.467 0.867489 166.159 -1.61571 164.888 -9.38025C163.751 -16.3729 169.102 -20.8679 172.587 -21.5872L173.606 -7.2178C171.55 -11.2343 171.115 -16.2267 171.115 -16.2267C171.115 -16.2267 169.431 -7.38552 173.467 0.867489Z" fill="white"/>
<path opacity="0.2" d="M120.751 167.427L126.389 172.755L123.195 164.571L71.0948 96.4622L68.2268 98.3982L120.751 167.427Z" fill="black" fill-opacity="0.7"/>
<path d="M69.1539 96.5176L121.295 165.208L123.807 172.058L117.878 167.802L65.7243 99.113C65.6349 99.0004 65.569 98.871 65.5304 98.7324C65.4918 98.5938 65.4813 98.4488 65.4996 98.3059C65.5179 98.163 65.5645 98.0251 65.6368 97.9002C65.7091 97.7753 65.8056 97.666 65.9206 97.5786L67.6208 96.2907C67.7362 96.2034 67.8678 96.1399 68.0079 96.104C68.1479 96.0681 68.2937 96.0605 68.4365 96.0817C68.5793 96.1028 68.7164 96.1523 68.8396 96.2271C68.9628 96.302 69.0696 96.4007 69.1539 96.5176Z" fill="#FFC900"/>
<mask id="mask2_15_519" style="mask-type:luminance" maskUnits="userSpaceOnUse" x="65" y="96" width="59" height="77">
<path d="M69.1539 96.5176L121.295 165.208L123.807 172.058L117.878 167.802L65.7243 99.113C65.6349 99.0004 65.569 98.871 65.5304 98.7324C65.4918 98.5938 65.4813 98.4488 65.4996 98.3059C65.5179 98.163 65.5645 98.0251 65.6368 97.9002C65.7091 97.7753 65.8056 97.666 65.9206 97.5786L67.6208 96.2907C67.7362 96.2034 67.8678 96.1399 68.0079 96.104C68.1479 96.0681 68.2937 96.0605 68.4365 96.0817C68.5793 96.1028 68.7164 96.1523 68.8396 96.2271C68.9628 96.302 69.0696 96.4007 69.1539 96.5176Z" fill="white"/>
</mask>
<g mask="url(#mask2_15_519)">
<path opacity="0.2" d="M123.797 172.065L117.869 167.809L65.7243 99.1131C65.6349 99.0004 65.569 98.871 65.5304 98.7324C65.4918 98.5938 65.4814 98.4488 65.4996 98.3059C65.5179 98.163 65.5646 98.0251 65.6368 97.9002C65.7091 97.7753 65.8056 97.666 65.9206 97.5786L66.1672 97.4121L118.692 166.608L123.797 172.065Z" fill="black" fill-opacity="0.7"/>
</g>
<path d="M69.1539 96.5176L121.295 165.208L123.807 172.058L117.878 167.802L65.7243 99.113C65.6349 99.0004 65.569 98.871 65.5304 98.7324C65.4918 98.5938 65.4813 98.4488 65.4996 98.3059C65.5179 98.163 65.5645 98.0251 65.6368 97.9002C65.7091 97.7753 65.8056 97.666 65.9206 97.5786L67.6208 96.2907C67.7362 96.2034 67.8678 96.1399 68.0079 96.104C68.1479 96.0681 68.2937 96.0605 68.4365 96.0817C68.5793 96.1028 68.7164 96.1523 68.8396 96.2271C68.9628 96.302 69.0696 96.4007 69.1539 96.5176Z" stroke="#263238" stroke-linecap="round" stroke-linejoin="round"/>
<path d="M67.0801 98.6185L118.244 166.07C118.302 166.146 118.374 166.211 118.458 166.259C118.541 166.308 118.633 166.34 118.729 166.353C118.825 166.365 118.922 166.359 119.015 166.335C119.109 166.31 119.197 166.267 119.274 166.208L119.699 165.921" fill="#FFC900"/>
<path d="M67.0801 98.6185L118.244 166.07C118.302 166.146 118.374 166.211 118.458 166.259C118.541 166.308 118.633 166.34 118.729 166.353C118.825 166.365 118.922 166.359 119.015 166.335C119.109 166.31 119.197 166.267 119.274 166.208L119.699 165.921" stroke="#263238" stroke-linecap="round" stroke-linejoin="round"/>
<path opacity="0.2" d="M142.376 172.19L97.9082 78.0399C96.5421 75.1448 96.3856 71.8219 97.4732 68.8019C98.5608 65.7818 100.803 63.3117 103.708 61.9347L242.558 -3.8585C243.996 -4.54086 245.554 -4.93423 247.142 -5.01616C248.73 -5.09808 250.317 -4.86694 251.813 -4.33595C253.309 -3.80496 254.684 -2.98452 255.861 -1.92148C257.037 -0.858435 257.991 0.426371 258.668 1.85957L303.131 96.013C303.811 97.4459 304.2 98.9997 304.277 100.585C304.353 102.171 304.116 103.757 303.579 105.254C303.041 106.75 302.213 108.127 301.143 109.306C300.074 110.485 298.782 111.443 297.343 112.125L158.484 177.916C155.579 179.292 152.25 179.461 149.23 178.387C146.209 177.314 143.744 175.085 142.376 172.19Z" fill="black" fill-opacity="0.7"/>
<path d="M97.0671 83.2793L93.6894 76.1285C93.6236 75.9891 93.616 75.8292 93.6684 75.6838C93.7207 75.5384 93.8287 75.4195 93.9685 75.3532L96.9949 73.9189L100.866 82.1153L97.84 83.5496C97.7011 83.6154 97.5419 83.6239 97.3972 83.5733C97.2525 83.5227 97.1338 83.417 97.0671 83.2793Z" fill="#FFC900" stroke="#263238" stroke-linecap="round" stroke-linejoin="round"/>
<path d="M104.902 58.1278L112.078 54.7271C112.218 54.6608 112.378 54.6526 112.524 54.7043C112.669 54.756 112.788 54.8633 112.854 55.0026L114.278 58.0184L106.053 61.9164L104.629 58.9006C104.563 58.7622 104.555 58.6033 104.606 58.4586C104.658 58.3139 104.764 58.1951 104.902 58.1278Z" fill="#FFC900" stroke="#263238" stroke-linecap="round" stroke-linejoin="round"/>
<path d="M114.68 53.4904L121.856 50.0896C121.996 50.0234 122.156 50.0152 122.302 50.0668C122.447 50.1185 122.566 50.2258 122.632 50.3652L124.056 53.381L115.831 57.279L114.407 54.2632C114.341 54.1247 114.333 53.9659 114.385 53.8212C114.436 53.6765 114.542 53.5576 114.68 53.4904Z" fill="#FFC900" stroke="#263238" stroke-linecap="round" stroke-linejoin="round"/>
<path d="M139.625 171.243L95.157 77.0931C93.7909 74.198 93.6344 70.8751 94.722 67.855C95.8095 64.8349 98.0521 62.3649 100.957 60.9879L239.807 -4.80533C241.245 -5.4877 242.803 -5.88107 244.391 -5.963C245.978 -6.04492 247.566 -5.81378 249.062 -5.28279C250.558 -4.75179 251.933 -3.93136 253.109 -2.86831C254.286 -1.80527 255.24 -0.520467 255.917 0.912727L300.38 95.0662C301.059 96.4991 301.449 98.0528 301.525 99.6385C301.602 101.224 301.365 102.811 300.827 104.307C300.29 105.803 299.462 107.18 298.392 108.359C297.322 109.538 296.031 110.496 294.592 111.178L155.733 176.969C152.828 178.345 149.499 178.514 146.478 177.441C143.458 176.367 140.993 174.138 139.625 171.243Z" fill="#FFC900" stroke="#263238" stroke-linecap="round" stroke-linejoin="round"/>
<path d="M294.367 109.781L154.798 175.918C153.568 176.502 152.236 176.839 150.877 176.909C149.519 176.979 148.161 176.781 146.881 176.327C145.602 175.872 144.425 175.17 143.419 174.26C142.414 173.35 141.598 172.251 141.019 171.024L96.2106 76.1507C95.0408 73.6748 94.9058 70.8324 95.8354 68.2488C96.7649 65.6653 98.6828 63.552 101.167 62.374L240.741 -3.76693C243.226 -4.94223 246.074 -5.08651 248.658 -4.16808C251.242 -3.24965 253.351 -1.34358 254.523 1.13169L299.328 96.0006C299.908 97.227 300.239 98.5563 300.304 99.9127C300.368 101.269 300.164 102.626 299.703 103.905C299.242 105.185 298.534 106.363 297.618 107.371C296.703 108.379 295.598 109.198 294.367 109.781Z" fill="#757575" stroke="#263238" stroke-linecap="round" stroke-linejoin="round"/>
<path d="M120.962 122.476C121.009 122.58 121.024 122.696 121.006 122.809C120.987 122.921 120.936 123.026 120.858 123.11C120.78 123.194 120.679 123.254 120.568 123.281C120.457 123.309 120.34 123.303 120.233 123.264C120.125 123.226 120.031 123.157 119.963 123.065C119.895 122.974 119.855 122.864 119.849 122.75C119.842 122.636 119.87 122.523 119.928 122.424C119.986 122.325 120.071 122.246 120.174 122.195C120.244 122.16 120.321 122.14 120.399 122.136C120.477 122.131 120.555 122.142 120.629 122.168C120.702 122.195 120.77 122.235 120.827 122.288C120.884 122.341 120.93 122.405 120.962 122.476Z" fill="#999999" stroke="#263238" stroke-linecap="round" stroke-linejoin="round"/>
<path d="M123.751 127.119C123.862 127.388 123.865 127.689 123.759 127.961C123.653 128.232 123.447 128.453 123.184 128.578C122.92 128.703 122.619 128.722 122.342 128.632C122.066 128.541 121.835 128.348 121.698 128.092C121.587 127.823 121.585 127.522 121.69 127.251C121.796 126.979 122.002 126.758 122.266 126.633C122.529 126.508 122.83 126.489 123.107 126.58C123.383 126.67 123.614 126.863 123.751 127.119Z" fill="#263238"/>
<path d="M118.126 115.208C118.236 115.477 118.239 115.778 118.133 116.049C118.027 116.321 117.821 116.542 117.558 116.667C117.294 116.792 116.993 116.811 116.716 116.72C116.44 116.63 116.209 116.437 116.072 116.181C115.999 116.045 115.955 115.896 115.942 115.743C115.929 115.59 115.947 115.435 115.995 115.289C116.044 115.143 116.122 115.008 116.224 114.893C116.326 114.777 116.451 114.683 116.59 114.617C116.73 114.551 116.881 114.514 117.035 114.508C117.189 114.502 117.343 114.528 117.486 114.583C117.63 114.638 117.761 114.722 117.87 114.83C117.98 114.937 118.067 115.066 118.126 115.208Z" fill="#263238"/>
<path d="M125.066 130.641C125.136 130.789 125.16 130.954 125.135 131.116C125.111 131.277 125.039 131.428 124.929 131.549C124.819 131.671 124.675 131.757 124.516 131.797C124.358 131.837 124.191 131.829 124.037 131.774C123.883 131.719 123.749 131.62 123.652 131.489C123.554 131.358 123.498 131.201 123.491 131.038C123.483 130.875 123.524 130.713 123.608 130.573C123.692 130.433 123.816 130.32 123.964 130.25C124.062 130.203 124.169 130.176 124.278 130.171C124.386 130.165 124.495 130.181 124.597 130.217C124.7 130.253 124.794 130.31 124.874 130.382C124.955 130.455 125.02 130.543 125.066 130.641Z" fill="#263238"/>
<path d="M250.347 1.79819L296.171 98.8117C296.748 100.035 296.815 101.438 296.356 102.714C295.897 103.99 294.95 105.034 293.724 105.616L176.799 161.025L174.281 162.248L164.747 166.763L160.135 168.951L153.459 172.098L152.002 172.787C150.775 173.368 149.369 173.44 148.093 172.987C146.816 172.534 145.775 171.593 145.196 170.371L99.358 73.325C99.0715 72.7199 98.9075 72.0638 98.8757 71.3942C98.8438 70.7247 98.9445 70.055 99.1721 69.4234C99.3998 68.7917 99.7498 68.2107 100.202 67.7134C100.655 67.2162 101.2 66.8126 101.808 66.5257L145.455 45.8397L152.06 42.713L158.37 39.7225L166.475 35.8774L169.408 34.4863L243.548 -0.650221C244.158 -0.935954 244.817 -1.09928 245.488 -1.13087C246.16 -1.16246 246.83 -1.0617 247.462 -0.834331C248.093 -0.606966 248.673 -0.257434 249.168 0.194259C249.663 0.645952 250.064 1.19097 250.347 1.79819Z" fill="#263238"/>
<g opacity="0.1">
<path d="M201.233 143.354L151.629 166.863C151.306 167.015 150.936 167.034 150.601 166.914C150.266 166.795 149.992 166.548 149.84 166.226L134.693 134.16C134.542 133.838 134.526 133.468 134.648 133.133C134.77 132.797 135.019 132.522 135.342 132.369L184.946 108.86C185.106 108.784 185.279 108.74 185.456 108.731C185.632 108.721 185.809 108.747 185.975 108.806C186.141 108.865 186.294 108.957 186.424 109.075C186.555 109.194 186.66 109.337 186.735 109.496L201.882 141.563C201.957 141.722 202 141.895 202.008 142.072C202.016 142.248 201.989 142.425 201.929 142.591C201.869 142.758 201.776 142.911 201.657 143.041C201.537 143.172 201.393 143.278 201.233 143.354ZM135.559 132.784C135.455 132.833 135.361 132.902 135.284 132.988C135.207 133.073 135.147 133.172 135.108 133.281C135.069 133.389 135.052 133.504 135.058 133.618C135.064 133.733 135.092 133.845 135.141 133.949L150.285 166.01C150.334 166.114 150.403 166.207 150.489 166.283C150.574 166.36 150.673 166.42 150.781 166.458C150.89 166.496 151.005 166.513 151.119 166.507C151.234 166.5 151.347 166.472 151.451 166.422L201.031 142.929C201.135 142.88 201.228 142.811 201.305 142.725C201.383 142.64 201.443 142.541 201.481 142.432C201.52 142.324 201.537 142.209 201.531 142.095C201.526 141.98 201.498 141.868 201.448 141.764L186.309 109.7C186.209 109.491 186.03 109.33 185.811 109.252C185.593 109.174 185.352 109.185 185.14 109.283L135.559 132.784Z" fill="white"/>
</g>
<path opacity="0.4" d="M160.993 141.208L174.902 140.098C174.654 137.432 173.66 134.891 172.034 132.766C170.408 130.642 168.215 129.018 165.705 128.08L160.993 141.208Z" fill="#FFC900"/>
<path opacity="0.6" d="M160.703 140.57L165.255 127.914C162.963 127.14 160.509 126.961 158.124 127.394L159.177 132.781L160.703 140.57Z" fill="#FFC900"/>
<path d="M154.759 128.459L160.029 139.623L157.652 127.467C156.656 127.694 155.686 128.027 154.759 128.459Z" fill="#FFC900"/>
<path opacity="0.1" d="M160.38 141.447L154.353 128.691C152.127 129.79 150.223 131.446 148.828 133.497C147.433 135.548 146.594 137.924 146.393 140.392C146.193 142.86 146.638 145.335 147.685 147.574C148.732 149.813 150.345 151.74 152.366 153.166L160.38 141.447Z" fill="white"/>
<path opacity="0.2" d="M166.739 154.371C169.327 153.144 171.49 151.173 172.951 148.712C174.411 146.25 175.101 143.411 174.932 140.561L160.783 141.7L152.733 153.408C154.783 154.758 157.149 155.555 159.602 155.724C162.055 155.892 164.513 155.426 166.739 154.371Z" fill="#FFC900"/>
<path d="M174.609 121.892L173.138 122.589C172.955 122.676 172.876 122.895 172.962 123.078L173.655 124.544C173.741 124.727 173.96 124.804 174.143 124.717L175.614 124.02C175.798 123.933 175.876 123.715 175.79 123.532L175.098 122.066C175.011 121.883 174.793 121.805 174.609 121.892Z" fill="#FFC900"/>
<path d="M183.095 118.83L176.665 121.873C176.633 121.889 176.598 121.898 176.563 121.9C176.527 121.902 176.491 121.897 176.458 121.885C176.424 121.873 176.393 121.855 176.367 121.831C176.341 121.807 176.319 121.778 176.305 121.745C176.289 121.713 176.28 121.679 176.278 121.643C176.276 121.607 176.281 121.572 176.293 121.538C176.305 121.504 176.324 121.474 176.348 121.447C176.372 121.421 176.402 121.4 176.434 121.385L182.839 118.358C182.871 118.342 182.906 118.333 182.942 118.331C182.978 118.329 183.013 118.334 183.047 118.346C183.081 118.358 183.111 118.376 183.138 118.4C183.164 118.424 183.185 118.453 183.2 118.486C183.226 118.546 183.23 118.614 183.21 118.677C183.191 118.74 183.15 118.794 183.095 118.83Z" fill="#FFC900"/>
<path d="M181.636 120.831L177.172 122.947C177.14 122.963 177.105 122.972 177.07 122.974C177.034 122.976 176.998 122.971 176.965 122.959C176.931 122.947 176.9 122.929 176.874 122.905C176.847 122.881 176.826 122.852 176.811 122.819C176.781 122.755 176.778 122.68 176.802 122.613C176.827 122.545 176.876 122.49 176.941 122.459L181.405 120.342C181.437 120.327 181.472 120.318 181.508 120.316C181.544 120.313 181.579 120.319 181.613 120.33C181.646 120.342 181.677 120.361 181.704 120.385C181.73 120.409 181.751 120.438 181.766 120.47C181.782 120.502 181.791 120.537 181.793 120.573C181.795 120.608 181.789 120.644 181.777 120.678C181.765 120.711 181.746 120.742 181.722 120.769C181.698 120.795 181.669 120.816 181.636 120.831Z" fill="#FFC900"/>
<path opacity="0.6" d="M176.859 126.654L175.388 127.351C175.205 127.438 175.126 127.657 175.212 127.84L175.905 129.306C175.991 129.488 176.21 129.566 176.393 129.479L177.864 128.782C178.048 128.695 178.127 128.476 178.04 128.294L177.348 126.828C177.261 126.645 177.043 126.567 176.859 126.654Z" fill="#FFC900"/>
<path d="M185.341 123.588L178.911 126.639C178.845 126.667 178.772 126.67 178.704 126.646C178.637 126.623 178.582 126.574 178.55 126.511C178.52 126.446 178.517 126.372 178.541 126.304C178.565 126.237 178.615 126.181 178.679 126.15L185.113 123.104C185.145 123.089 185.18 123.08 185.215 123.078C185.25 123.076 185.285 123.082 185.318 123.093C185.352 123.105 185.382 123.123 185.408 123.147C185.434 123.17 185.455 123.199 185.47 123.231C185.485 123.263 185.494 123.297 185.495 123.332C185.497 123.367 185.492 123.402 185.48 123.435C185.468 123.469 185.449 123.499 185.426 123.525C185.402 123.551 185.373 123.572 185.341 123.588Z" fill="#FFC900"/>
<path d="M183.88 125.584L179.406 127.706C179.343 127.726 179.275 127.722 179.215 127.696C179.155 127.67 179.106 127.622 179.078 127.563C179.05 127.504 179.044 127.436 179.062 127.372C179.08 127.309 179.12 127.254 179.175 127.218L183.639 125.101C183.671 125.086 183.706 125.077 183.742 125.074C183.777 125.072 183.813 125.077 183.847 125.089C183.88 125.101 183.911 125.12 183.937 125.144C183.964 125.168 183.985 125.197 184 125.229C184.03 125.292 184.034 125.364 184.012 125.431C183.99 125.497 183.942 125.552 183.88 125.584Z" fill="#FFC900"/>
<path opacity="0.4" d="M179.473 131.302L178.001 132.002C177.817 132.09 177.739 132.309 177.825 132.492L178.521 133.958C178.608 134.141 178.827 134.219 179.01 134.131L180.482 133.431C180.666 133.344 180.744 133.125 180.658 132.942L179.962 131.475C179.875 131.292 179.656 131.215 179.473 131.302Z" fill="#FFC900"/>
<path d="M187.587 128.353L181.185 131.384C181.122 131.404 181.054 131.4 180.994 131.374C180.933 131.348 180.885 131.301 180.857 131.241C180.828 131.182 180.823 131.114 180.841 131.051C180.858 130.987 180.899 130.932 180.954 130.896L187.355 127.864C187.388 127.848 187.422 127.839 187.458 127.837C187.494 127.835 187.529 127.84 187.563 127.852C187.597 127.864 187.628 127.883 187.654 127.907C187.68 127.931 187.701 127.96 187.716 127.992C187.732 128.024 187.741 128.059 187.743 128.095C187.745 128.13 187.74 128.166 187.727 128.199C187.715 128.233 187.697 128.264 187.673 128.29C187.648 128.317 187.619 128.338 187.587 128.353Z" fill="#FFC900"/>
<path d="M186.12 130.352L181.656 132.468C181.593 132.488 181.525 132.484 181.465 132.458C181.405 132.432 181.356 132.385 181.328 132.325C181.3 132.266 181.294 132.198 181.312 132.135C181.33 132.071 181.37 132.016 181.425 131.98L185.889 129.864C185.952 129.844 186.02 129.848 186.08 129.874C186.141 129.9 186.189 129.947 186.217 130.007C186.245 130.066 186.251 130.134 186.233 130.197C186.215 130.261 186.175 130.316 186.12 130.352Z" fill="#FFC900"/>
<path opacity="0.2" d="M181.36 136.178L179.889 136.875C179.705 136.962 179.626 137.18 179.713 137.363L180.405 138.829C180.492 139.012 180.71 139.09 180.894 139.003L182.365 138.306C182.548 138.219 182.627 138 182.541 137.817L181.848 136.351C181.762 136.168 181.543 136.091 181.36 136.178Z" fill="#FFC900"/>
<path d="M189.837 133.115L183.435 136.147C183.37 136.177 183.296 136.18 183.228 136.156C183.161 136.132 183.105 136.083 183.074 136.019C183.059 135.987 183.049 135.952 183.048 135.916C183.046 135.881 183.051 135.845 183.063 135.811C183.075 135.778 183.094 135.747 183.118 135.72C183.142 135.694 183.171 135.673 183.204 135.658L189.63 132.61C189.662 132.594 189.697 132.585 189.732 132.583C189.768 132.581 189.804 132.586 189.837 132.598C189.871 132.61 189.902 132.628 189.928 132.652C189.954 132.676 189.976 132.705 189.991 132.738C190.008 132.772 190.018 132.81 190.02 132.848C190.022 132.887 190.015 132.926 190.001 132.961C189.986 132.997 189.964 133.03 189.935 133.056C189.907 133.083 189.874 133.103 189.837 133.115Z" fill="#FFC900"/>
<path d="M188.38 135.108L183.916 137.224C183.884 137.24 183.849 137.249 183.813 137.251C183.777 137.253 183.742 137.248 183.708 137.236C183.674 137.224 183.643 137.206 183.617 137.182C183.591 137.157 183.57 137.128 183.555 137.096C183.539 137.064 183.53 137.029 183.528 136.994C183.526 136.958 183.532 136.922 183.544 136.889C183.556 136.855 183.574 136.824 183.598 136.798C183.623 136.771 183.652 136.75 183.684 136.735L188.148 134.619C188.214 134.589 188.288 134.585 188.355 134.609C188.423 134.633 188.478 134.683 188.509 134.747C188.525 134.779 188.534 134.814 188.536 134.849C188.538 134.885 188.533 134.921 188.521 134.954C188.509 134.988 188.49 135.019 188.466 135.045C188.442 135.072 188.412 135.093 188.38 135.108Z" fill="#FFC900"/>
<path opacity="0.1" d="M183.613 140.944L182.142 141.641C181.959 141.728 181.88 141.947 181.966 142.13L182.659 143.596C182.745 143.779 182.964 143.856 183.147 143.769L184.618 143.072C184.802 142.985 184.88 142.767 184.794 142.584L184.102 141.118C184.015 140.935 183.796 140.857 183.613 140.944Z" fill="white"/>
<path d="M192.087 137.877L185.685 140.909C185.62 140.939 185.546 140.942 185.478 140.918C185.411 140.894 185.355 140.845 185.324 140.781C185.309 140.749 185.299 140.714 185.298 140.678C185.296 140.643 185.301 140.607 185.313 140.573C185.325 140.54 185.344 140.509 185.368 140.483C185.392 140.456 185.421 140.435 185.454 140.42L191.88 137.372C191.912 137.356 191.947 137.347 191.982 137.345C192.018 137.343 192.054 137.348 192.087 137.36C192.121 137.372 192.152 137.39 192.178 137.414C192.205 137.439 192.226 137.468 192.241 137.5C192.258 137.534 192.268 137.572 192.27 137.611C192.272 137.649 192.265 137.688 192.251 137.724C192.236 137.759 192.214 137.792 192.185 137.818C192.157 137.845 192.124 137.865 192.087 137.877Z" fill="#FFC900"/>
<path d="M190.63 139.87L186.161 141.989C186.129 142.004 186.094 142.013 186.059 142.014C186.024 142.015 185.988 142.01 185.955 141.998C185.922 141.986 185.892 141.967 185.866 141.943C185.84 141.919 185.82 141.89 185.805 141.858C185.788 141.826 185.779 141.791 185.776 141.756C185.774 141.72 185.779 141.684 185.791 141.65C185.803 141.616 185.822 141.585 185.847 141.559C185.872 141.533 185.901 141.512 185.934 141.497L190.399 139.381C190.431 139.359 190.468 139.345 190.507 139.339C190.546 139.333 190.586 139.335 190.623 139.345C190.661 139.356 190.696 139.374 190.726 139.399C190.756 139.425 190.78 139.456 190.797 139.491C190.814 139.527 190.823 139.565 190.823 139.604C190.824 139.644 190.816 139.682 190.8 139.718C190.784 139.754 190.761 139.786 190.731 139.812C190.702 139.839 190.668 139.858 190.63 139.87Z" fill="#FFC900"/>
<g opacity="0.1">
<path d="M273.068 67.0896L192.442 105.3C192.119 105.454 191.87 105.728 191.748 106.064C191.626 106.399 191.642 106.769 191.793 107.092L192.835 109.304L193.037 109.728L194.445 112.711L194.647 113.135L196.052 116.113L196.25 116.532L197.658 119.515L197.857 119.934L199.264 122.917L199.467 123.341L200.871 126.318L201.073 126.743L202.477 129.72L202.679 130.145L204.084 133.122L204.286 133.547L205.69 136.524L205.892 136.949L206.94 139.158C207.015 139.318 207.121 139.461 207.251 139.58C207.382 139.699 207.535 139.79 207.701 139.85C207.868 139.909 208.044 139.936 208.221 139.927C208.398 139.918 208.571 139.875 208.732 139.799L289.343 101.598C289.664 101.444 289.912 101.168 290.031 100.833C290.15 100.498 290.132 100.129 289.98 99.8085L288.937 97.5962L288.735 97.1718L287.33 94.1943L287.128 93.7699L285.721 90.7875L285.522 90.3679L284.117 87.3904L283.915 86.9659L282.511 83.9884L282.309 83.564L280.901 80.5817L280.702 80.162L279.295 77.1797L279.096 76.7601L277.691 73.7826L277.489 73.3581L276.082 70.3758L275.88 69.9514L274.837 67.7391C274.687 67.4205 274.418 67.174 274.087 67.0525C273.756 66.931 273.39 66.9443 273.068 67.0896ZM289.578 99.9956C289.676 100.205 289.687 100.445 289.609 100.663C289.53 100.881 289.369 101.06 289.16 101.161L208.554 139.358C208.342 139.458 208.101 139.47 207.881 139.393C207.661 139.315 207.481 139.154 207.38 138.945L206.338 136.732L288.53 97.7866L289.578 99.9956ZM288.32 97.3396L206.126 136.293L204.718 133.311L286.911 94.3654L288.32 97.3396ZM286.723 93.9311L204.532 132.911L203.125 129.928L285.314 90.9778L286.723 93.9311ZM285.126 90.5227L202.929 129.472L201.525 126.494L283.714 87.5436L285.126 90.5227ZM283.53 87.1142L201.332 126.063L199.928 123.086L282.12 84.1399L283.53 87.1142ZM281.933 83.7057L199.735 122.655L198.328 119.672L280.52 80.7266L281.933 83.7057ZM280.333 80.2924L198.139 119.246L196.734 116.269L278.924 77.3181L280.333 80.2924ZM278.736 76.8839L196.497 115.896L195.092 112.919L277.282 73.9681L278.736 76.8839ZM277.142 73.4802L194.89 112.494L193.483 109.512L275.675 70.5661L277.142 73.4802ZM193.34 109.019L192.301 106.812C192.251 106.708 192.223 106.596 192.217 106.481C192.212 106.367 192.229 106.252 192.268 106.144C192.306 106.036 192.366 105.936 192.443 105.851C192.521 105.765 192.614 105.696 192.718 105.647L273.251 67.5271C273.46 67.4287 273.7 67.4172 273.918 67.495C274.135 67.5729 274.313 67.7338 274.411 67.9425L275.454 70.1547L193.34 109.019Z" fill="white"/>
</g>
<g opacity="0.1">
<path d="M245.877 9.97513L108.516 75.0645C108.333 75.151 108.169 75.2724 108.034 75.422C107.898 75.5716 107.793 75.7463 107.725 75.9362C107.657 76.1261 107.627 76.3274 107.637 76.5285C107.647 76.7296 107.697 76.9266 107.783 77.1082L131.449 127.216C131.622 127.582 131.935 127.864 132.317 128C132.699 128.136 133.12 128.115 133.488 127.943L270.854 62.8501C271.221 62.6749 271.504 62.3623 271.642 61.9803C271.78 61.5984 271.761 61.1781 271.59 60.8112L247.921 10.6983C247.835 10.5164 247.714 10.3533 247.565 10.2185C247.416 10.0836 247.241 9.97957 247.051 9.91238C246.861 9.84518 246.66 9.81614 246.458 9.8269C246.257 9.83767 246.059 9.88805 245.877 9.97513ZM148.717 85.0592L158.252 80.5365L160.8 85.9385L151.248 90.4661L148.717 85.0592ZM150.831 90.642L141.276 95.2067L138.724 89.7999L148.277 85.2723L150.831 90.642ZM158.694 80.3362L168.252 75.8054L170.803 81.2122L161.251 85.7398L158.694 80.3362ZM207.971 56.4666L198.418 60.9942L195.862 55.5907L205.419 51.0598L207.971 56.4666ZM205.857 50.8838L215.414 46.3529L217.966 51.7597L208.413 56.2873L205.857 50.8838ZM178.671 70.9032L188.229 66.3723L190.78 71.7791L181.184 76.2732L178.671 70.9032ZM180.785 76.486L171.232 81.0136L168.658 75.6151L178.216 71.0842L180.785 76.486ZM188.637 66.1529L198.167 61.6335L200.718 67.0404L191.165 71.568L188.637 66.1529ZM198.615 61.4219L208.173 56.891L210.724 62.2979L201.172 66.8255L198.615 61.4219ZM197.992 61.1976L188.439 65.7252L185.883 60.3217L195.444 55.7956L197.992 61.1976ZM188.013 65.9286L178.461 70.4562L175.904 65.0527L185.449 60.5235L188.013 65.9286ZM178.033 70.6886L168.477 75.2114L165.895 69.7694L175.453 65.2385L178.033 70.6886ZM168.03 75.394L158.478 79.9216L155.921 74.5181L165.479 69.9872L168.03 75.394ZM170.986 81.6497L173.536 87.0436L163.983 91.5712L161.432 86.1644L170.986 81.6497ZM171.412 81.4463L180.965 76.9187L183.516 82.3255L173.963 86.8531L171.412 81.4463ZM181.39 76.7153L190.943 72.1877L193.495 77.5945L183.947 82.1188L181.39 76.7153ZM191.369 71.9843L200.925 67.4615L203.473 72.8635L193.921 77.3911L191.369 71.9843ZM201.351 67.2581L210.904 62.7305L213.455 68.1373L203.902 72.6649L201.351 67.2581ZM211.33 62.5271L220.882 57.9995L223.434 63.4064L213.881 67.9339L211.33 62.5271ZM211.131 62.1075L208.574 56.704L218.132 52.1731L220.683 57.5799L211.131 62.1075ZM218.553 51.973L228.111 47.4421L230.662 52.8489L221.109 57.3765L218.553 51.973ZM228.532 47.242L238.093 42.7159L240.641 48.1179L231.088 52.6456L228.532 47.242ZM228.338 46.8191L225.781 41.4156L235.357 36.9007L237.905 42.2817L228.338 46.8191ZM227.912 47.0225L218.356 51.5453L215.8 46.1418L225.36 41.6157L227.912 47.0225ZM215.591 45.7287L213.04 40.3219L222.592 35.7943L225.187 41.1717L215.591 45.7287ZM215.17 45.9288L205.614 50.4516L203.061 45.0529L212.614 40.5253L215.17 45.9288ZM205.188 50.655L195.631 55.1858L193.079 49.779L202.632 45.2514L205.188 50.655ZM195.21 55.386L185.676 59.9215L183.125 54.5147L192.678 49.9871L195.21 55.386ZM185.228 60.1121L175.69 64.6299L173.133 59.2264L182.689 54.7036L185.228 60.1121ZM175.27 64.843L165.717 69.3706L163.135 63.9705L172.731 59.4135L175.27 64.843ZM165.292 69.574L155.734 74.1048L153.183 68.698L162.745 64.1849L165.292 69.574ZM155.313 74.284L145.76 78.8116L143.204 73.408L152.76 68.8852L155.313 74.284ZM155.515 74.7084L158.066 80.1152L148.514 84.6428L145.957 79.2393L155.515 74.7084ZM148.088 84.8462L138.532 89.369L135.975 83.9654L145.536 79.4394L148.088 84.8462ZM138.106 89.5724L128.558 94.0967L126.002 88.6932L135.559 84.1623L138.106 89.5724ZM138.308 89.9968L140.859 95.4036L131.307 99.9312L128.755 94.5244L138.308 89.9968ZM141.071 95.8425L143.623 101.249L134.07 105.777L131.518 100.37L141.071 95.8425ZM141.5 95.6439L151.053 91.1163L153.604 96.5231L144.048 101.046L141.5 95.6439ZM151.479 90.9129L161.015 86.3822L163.567 91.789L153.993 96.3168L151.479 90.9129ZM163.779 92.2279L166.33 97.6347L156.774 102.157L154.223 96.7507L163.779 92.2279ZM164.205 92.0245L173.757 87.4969L176.313 92.8795L166.756 97.4103L164.205 92.0245ZM174.183 87.2935L183.736 82.7659L186.287 88.1727L176.735 92.7003L174.183 87.2935ZM184.129 82.5563L193.726 77.9993L196.277 83.4062L186.71 87.9645L184.129 82.5563ZM194.108 77.8253L203.661 73.2977L206.212 78.7045L196.66 83.2321L194.108 77.8253ZM204.087 73.0943L213.643 68.5716L216.191 73.9736L206.638 78.5012L204.087 73.0943ZM214.069 68.3682L223.621 63.8406L226.173 69.2474L216.62 73.775L214.069 68.3682ZM224.047 63.6372L233.622 59.1013L236.174 64.5081L226.621 69.0357L224.047 63.6372ZM223.845 63.2128L221.297 57.8108L230.859 53.2557L233.411 58.6625L223.845 63.2128ZM231.276 53.0798L240.828 48.5522L243.38 53.959L233.827 58.4866L231.276 53.0798ZM241.28 48.3244L250.833 43.7968L253.384 49.2036L243.831 53.7312L241.28 48.3244ZM241.081 47.9048L238.525 42.5012L248.082 37.9704L250.636 43.411L241.081 47.9048ZM238.318 42.0591L235.762 36.6555L245.319 32.1247L247.877 37.5621L238.318 42.0591ZM235.55 36.2167L233.01 30.8582L242.563 26.3306L245.114 31.7164L235.55 36.2167ZM235.125 36.412L225.568 40.9428L223.016 35.536L232.589 31.0583L235.125 36.412ZM222.818 35.1164L220.292 29.7481L229.826 25.2126L232.382 30.6162L222.818 35.1164ZM222.393 35.3117L212.836 39.8426L210.284 34.4358L219.84 29.913L222.393 35.3117ZM212.415 40.0427L202.874 44.6186L200.322 39.2118L209.875 34.6842L212.415 40.0427ZM202.436 44.7737L192.879 49.3046L190.327 43.8978L199.88 39.3702L202.436 44.7737ZM192.454 49.4999L182.913 54.0758L180.362 48.669L189.914 44.1414L192.454 49.4999ZM182.476 54.2309L172.918 58.7617L170.393 53.4144L179.945 48.8868L182.476 54.2309ZM172.507 58.9973L162.946 63.5233L160.398 58.1213L169.951 53.5937L172.507 58.9973ZM162.525 63.7235L152.967 68.2543L150.418 62.8604L159.982 58.3392L162.525 63.7235ZM152.546 68.4544L142.989 72.9853L140.437 67.5785L149.99 63.0509L152.546 68.4544ZM142.595 73.1739L132.999 77.7309L130.448 72.3241L140.003 67.8013L142.595 73.1739ZM142.792 73.6016L145.349 79.0052L135.796 83.5328L133.24 78.1292L142.792 73.6016ZM135.37 83.7362L125.814 88.2589L123.261 82.8602L132.814 78.3326L135.37 83.7362ZM125.388 88.4623L115.836 92.9899L113.279 87.5864L122.837 83.0555L125.388 88.4623ZM125.59 88.8868L128.142 94.2936L118.589 98.8212L116.033 93.4176L125.59 88.8868ZM128.354 94.7324L130.905 100.139L121.352 104.667L118.801 99.26L128.354 94.7324ZM131.117 100.578L133.668 105.985L124.116 110.513L121.564 105.106L131.117 100.578ZM133.88 106.424L136.433 111.823L126.876 116.353L124.324 110.947L133.88 106.424ZM134.306 106.22L143.859 101.693L146.415 107.096L136.857 111.627L134.306 106.22ZM144.285 101.489L153.837 96.9618L156.389 102.369L146.836 106.896L144.285 101.489ZM156.591 102.793L159.147 108.197L149.552 112.683L147.001 107.276L156.591 102.793ZM157.017 102.59L166.569 98.0621L169.126 103.466L159.568 107.996L157.017 102.59ZM166.929 97.8124L176.485 93.2896L179.038 98.6884L169.48 103.219L166.929 97.8124ZM176.911 93.0862L186.463 88.5586L189.025 93.9799L179.467 98.5108L176.911 93.0862ZM186.889 88.3552L196.442 83.8276L198.998 89.2312L189.441 93.762L186.889 88.3552ZM196.871 83.6291L206.443 79.1094L209 84.5129L199.439 89.039L196.871 83.6291ZM206.85 78.8981L216.402 74.3705L218.959 79.774L209.401 84.3049L206.85 78.8981ZM216.828 74.1671L226.381 69.6395L228.937 75.043L219.38 79.5739L216.828 74.1671ZM226.81 69.4409L236.386 64.947L238.942 70.3506L229.384 74.8814L226.81 69.4409ZM236.789 64.7099L246.342 60.1823L248.911 65.6051L239.353 70.136L236.789 64.7099ZM236.587 64.2855L234.035 58.8787L243.591 54.3559L246.143 59.7627L236.587 64.2855ZM244.033 54.1766L253.586 49.649L256.138 55.0558L246.585 59.5834L244.033 54.1766ZM254.001 49.4392L263.553 44.9116L266.105 50.3184L256.554 54.838L254.001 49.4392ZM253.802 49.0196L251.251 43.6128L260.803 39.0852L263.34 44.5018L253.802 49.0196ZM251.039 43.1739L248.482 37.7704L258.04 33.2395L260.591 38.6463L251.039 43.1739ZM248.276 37.3283L245.744 31.9923L255.324 27.4112L257.88 32.8148L248.276 37.3283ZM245.507 31.4858L243 26.1335L252.552 21.606L255.109 27.0095L245.507 31.4858ZM242.744 25.6402L240.237 20.2879L249.789 15.7603L252.346 21.1638L242.744 25.6402ZM242.323 25.8403L232.766 30.3711L230.214 24.9643L239.767 20.4367L242.323 25.8403ZM230.012 24.5399L227.464 19.1379L237.017 14.6103L239.568 20.0171L230.012 24.5399ZM229.586 24.7433L220.033 29.2709L217.482 23.8641L227.035 19.3365L229.586 24.7433ZM219.608 29.4743L210.055 34.0019L207.575 28.6381L217.127 24.1105L219.608 29.4743ZM209.629 34.2053L200.073 38.7281L197.525 33.3261L207.077 28.7985L209.629 34.2053ZM199.647 38.9314L190.156 43.5086L187.604 38.1018L197.157 33.5742L199.647 38.9314ZM189.668 43.6624L180.15 48.2301L177.598 42.8233L187.151 38.2957L189.668 43.6624ZM179.687 48.3886L170.134 52.9162L167.629 47.5687L177.176 43.0525L179.687 48.3886ZM169.713 53.1163L160.155 57.6472L157.604 52.2404L167.156 47.7128L169.713 53.1163ZM159.734 57.8473L150.173 62.3734L147.625 56.9714L157.218 52.4935L159.734 57.8473ZM149.747 62.5768L140.195 67.1044L137.7 61.7504L147.253 57.2228L149.747 62.5768ZM139.774 67.3045L130.216 71.8354L127.665 66.4285L137.217 61.9009L139.774 67.3045ZM129.795 72.0355L120.281 76.6209L117.733 71.2189L127.286 66.6913L129.795 72.0355ZM129.989 72.4584L132.545 77.8619L122.988 82.3928L120.436 76.986L129.989 72.4584ZM122.567 82.5929L113.069 87.2024L110.518 81.7955L120.07 77.2679L122.567 82.5929ZM127.021 116.746L136.569 112.222L139.125 117.625L129.567 122.156L127.021 116.746ZM136.999 112.015L146.552 107.487L149.108 112.891L139.551 117.422L136.999 112.015ZM149.286 113.332L151.843 118.735L142.29 123.263L139.734 117.859L149.286 113.332ZM149.712 113.128L159.281 108.583L161.837 113.986L152.285 118.514L149.712 113.128ZM159.694 108.402L169.247 103.875L171.803 109.278L162.267 113.788L159.694 108.402ZM169.692 103.658L179.245 99.1305L181.801 104.534L172.244 109.065L169.692 103.658ZM179.685 98.9173L189.241 94.3945L191.794 99.7933L182.217 104.316L179.685 98.9173ZM189.667 94.1911L199.22 89.6635L201.742 95.0899L192.19 99.6175L189.667 94.1911ZM199.646 89.4601L209.198 84.9325L211.755 90.3361L202.197 94.8669L199.646 89.4601ZM209.624 84.7292L219.161 80.2194L221.714 85.6181L212.156 90.149L209.624 84.7292ZM219.606 80.003L229.159 75.4754L231.715 80.8789L222.158 85.4098L219.606 80.003ZM229.585 75.272L239.137 70.7444L241.694 76.1479L232.141 80.6755L229.585 75.272ZM239.567 70.5458L249.119 66.0182L251.674 71.4508L242.113 75.9769L239.567 70.5458ZM249.545 65.8148L259.098 61.2872L261.654 66.6908L252.097 71.2216L249.545 65.8148ZM249.343 65.3904L246.792 59.9836L256.348 55.4608L258.896 60.8628L249.343 65.3904ZM256.774 55.2574L266.326 50.7298L268.883 56.1334L259.317 60.6837L256.774 55.2574ZM247.51 10.8919L249.607 15.3647L240.054 19.8923L237.503 14.4855L246.089 10.414C246.341 10.2955 246.63 10.2802 246.893 10.3714C247.156 10.4625 247.372 10.6529 247.495 10.9017L247.51 10.8919ZM108.756 75.4629L117.343 71.3913L119.899 76.7949L110.306 81.3567L108.208 76.9129C108.147 76.7864 108.112 76.6491 108.105 76.509C108.098 76.3688 108.119 76.2285 108.166 76.0962C108.214 75.9638 108.287 75.842 108.382 75.7378C108.476 75.6336 108.59 75.5491 108.718 75.489L108.756 75.4629ZM131.908 126.99L129.81 122.546L139.366 118.024L141.919 123.422L133.292 127.528C133.035 127.648 132.74 127.662 132.474 127.566C132.207 127.47 131.99 127.272 131.87 127.016L131.908 126.99ZM270.655 62.4305L262.061 66.5004L259.509 61.0936L269.062 56.566L271.164 61.0146C271.283 61.2691 271.297 61.5609 271.202 61.8262C271.107 62.0915 270.91 62.3088 270.655 62.4305Z" fill="white"/>
</g>
<path opacity="0.5" d="M263.76 45.3328L271.157 61.005C271.215 61.126 271.248 61.2573 271.254 61.3913C271.261 61.5253 271.241 61.6594 271.196 61.7859C271.15 61.9124 271.08 62.0287 270.989 62.1283C270.899 62.2278 270.79 62.3085 270.668 62.3658L133.227 127.495C133.106 127.552 132.975 127.585 132.841 127.591C132.707 127.597 132.573 127.578 132.447 127.532C132.321 127.487 132.205 127.418 132.107 127.328C132.008 127.238 131.928 127.129 131.871 127.008L130.881 124.915C130.881 124.915 133.565 116.261 137.608 114.345C142.382 112.083 144.812 114.004 149.071 111.97C153.33 109.936 151.553 98.1672 155.412 96.3332C157.498 95.3457 158.96 96.4687 160.781 97.1743C161.59 97.5177 162.465 97.6803 163.345 97.6506C164.225 97.6209 165.088 97.3997 165.875 97.0025L166.036 96.9286C171.264 94.4516 160.767 65.0715 167.956 61.6627C171.153 60.1421 176.031 64.8968 181.019 70.4186C187.318 77.3826 193.788 85.6329 197.107 84.0306C203.07 81.2042 197.535 69.0207 203.085 66.4169C206.568 64.7666 211.653 69.8166 217.43 72.6392C220.845 74.3086 224.509 75.2 228.22 73.4382C231.607 71.8532 233.165 69.7499 234.005 67.5634C235.658 63.2858 234.548 58.6375 238.84 56.5889C241.389 55.3799 243.427 56.584 245.416 57.6739C247.14 58.6126 248.847 59.4933 250.809 58.5615C253.121 57.4706 252.881 53.2867 253.003 49.3695C253.086 46.1449 253.387 43.0961 255.5 42.076C257.614 41.056 260.425 42.6139 262.145 43.8995C262.711 44.3449 263.251 44.8235 263.76 45.3328Z" fill="#FFC900"/>
<path opacity="0.5" d="M253.59 23.8005L271.16 61.0098C271.218 61.1308 271.251 61.2621 271.258 61.3961C271.264 61.5301 271.244 61.6642 271.199 61.7907C271.153 61.9172 271.083 62.0335 270.993 62.1331C270.902 62.2326 270.793 62.3133 270.671 62.3706L133.227 127.495C133.106 127.552 132.975 127.585 132.841 127.591C132.707 127.597 132.573 127.578 132.447 127.532C132.321 127.487 132.205 127.418 132.107 127.328C132.008 127.238 131.928 127.129 131.871 127.008L130.88 124.915C136.589 122.211 136.746 116.49 140.576 114.676C144.407 112.861 147.834 114.059 151.419 112.362C155.004 110.664 154.906 99.7031 158.828 97.8478C159.44 97.5521 160.087 97.3366 160.754 97.2067C162.506 96.8511 164.067 97.1294 165.848 97.035C167.251 96.9637 168.627 96.6118 169.894 95.9999C174.484 93.8199 172.688 73.1892 178.017 70.6646C178.955 70.2505 180.007 70.175 180.992 70.4511C185.935 71.6214 191.898 78.8687 196.334 76.7641C201.718 74.2164 198.995 64.551 204.215 62.0724C209.434 59.5938 216.314 66.7823 222.356 63.9165C228.398 61.0507 224.278 42.1292 230.555 39.1534C236.833 36.1777 243.63 42.7424 249.084 40.1539C255.075 37.3159 253.59 23.8005 253.59 23.8005Z" fill="#FFC900"/>
<path d="M261.75 41.103L271.148 61.0115C271.205 61.1325 271.238 61.2638 271.245 61.3979C271.252 61.5319 271.232 61.666 271.186 61.7924C271.141 61.9189 271.071 62.0353 270.98 62.1348C270.889 62.2343 270.78 62.315 270.658 62.3724L133.228 127.495C133.106 127.552 132.975 127.585 132.841 127.591C132.707 127.597 132.573 127.578 132.447 127.532C132.321 127.487 132.206 127.418 132.107 127.328C132.008 127.238 131.928 127.129 131.871 127.008L131.384 125.984C131.449 125.695 132.522 120.954 135.807 119.395C139.213 117.797 141.069 120.526 145.793 118.263C150.517 115.999 149.497 111.787 156.218 108.603C162.94 105.419 165.784 109.675 172.736 106.384C179.688 103.093 177.553 97.125 182.503 94.7792C187.453 92.4333 188.89 95.2412 191.694 93.9092C194.498 92.5772 193.3 87.6101 196.751 85.9746C200.202 84.3391 207.004 89.2531 210.894 87.4125C213.623 86.1165 214.704 78.2789 217.405 72.6426C218.543 70.2618 219.979 68.2691 221.944 67.3422C226.002 65.4164 230.08 66.8274 233.979 67.5668C236.406 68.0321 238.813 68.2297 241.065 67.165C244.266 65.6492 244.721 61.5148 245.4 57.6918C245.947 54.5813 246.649 51.6682 249.106 50.5002C250.316 49.8888 251.629 49.5066 252.978 49.373C255.64 49.1458 257.13 50.2573 259.682 49.0531C262.759 47.6142 261.75 41.103 261.75 41.103Z" fill="#FFC900"/>
<path d="M114.913 68.6154L107.53 72.1128C107.359 72.1938 107.174 72.2404 106.986 72.25C106.798 72.2596 106.609 72.232 106.432 72.1688C106.254 72.1055 106.091 72.0079 105.952 71.8815C105.813 71.7551 105.7 71.6024 105.62 71.4321C105.458 71.0884 105.438 70.6938 105.567 70.3349C105.696 69.976 105.962 69.6822 106.306 69.5179L113.684 66.0237C114.029 65.8617 114.424 65.8419 114.783 65.9687C115.141 66.0956 115.434 66.3588 115.599 66.7012C115.76 67.0451 115.778 67.4391 115.649 67.7976C115.521 68.156 115.256 68.4499 114.913 68.6154Z" fill="#FFC900"/>
<path d="M117.701 64.7776L117.807 64.7058L125.19 61.2083C125.293 61.1562 125.406 61.1251 125.521 61.117C125.637 61.1089 125.753 61.1239 125.862 61.1612C126.074 61.2389 126.248 61.3953 126.347 61.5979C126.432 61.7827 126.449 61.9917 126.395 62.1884C126.341 62.385 126.22 62.5567 126.052 62.6733L125.941 62.7483L118.563 66.2425C118.46 66.2966 118.347 66.3288 118.231 66.3369C118.116 66.345 118 66.329 117.891 66.2897C117.742 66.2376 117.61 66.145 117.511 66.0224C117.413 65.8998 117.35 65.752 117.33 65.5955C117.311 65.439 117.336 65.2801 117.402 65.1365C117.468 64.9928 117.572 64.8702 117.704 64.7824M117.379 64.3008C117.068 64.499 116.846 64.8085 116.757 65.1653C116.668 65.5221 116.719 65.8987 116.901 66.2174C117.083 66.5361 117.38 66.7724 117.732 66.8773C118.085 66.9823 118.464 66.9479 118.793 66.7813L126.171 63.2871C126.235 63.2506 126.296 63.2091 126.354 63.1631C126.653 62.9588 126.865 62.65 126.947 62.298C127.029 61.9459 126.975 61.5766 126.796 61.2633C126.618 60.9501 126.327 60.7159 125.983 60.6074C125.638 60.4989 125.265 60.524 124.937 60.6778L117.558 64.18C117.495 64.2155 117.435 64.2559 117.379 64.3008Z" fill="#FFC900"/>
<path d="M128.955 59.4445L129.057 59.3759L136.435 55.8818C136.63 55.7925 136.851 55.7791 137.054 55.8441C137.258 55.9092 137.429 56.048 137.535 56.2334C137.64 56.4187 137.673 56.637 137.625 56.8455C137.578 57.054 137.454 57.2374 137.278 57.3598L137.171 57.4316L129.789 60.929C129.685 60.9815 129.573 61.0127 129.457 61.0208C129.342 61.0289 129.226 61.0137 129.116 60.9762C129.011 60.9384 128.914 60.8801 128.832 60.8045C128.75 60.729 128.683 60.6378 128.636 60.5362C128.551 60.3529 128.534 60.1451 128.587 59.9496C128.641 59.7542 128.762 59.5839 128.93 59.4689M128.605 58.9873C128.294 59.1856 128.071 59.4951 127.982 59.8518C127.893 60.2086 127.945 60.5853 128.127 60.9039C128.308 61.2226 128.606 61.4589 128.958 61.5638C129.31 61.6688 129.69 61.6344 130.019 61.4678L137.401 57.9704C137.464 57.9349 137.524 57.8945 137.58 57.8496C137.879 57.6453 138.091 57.3365 138.173 56.9845C138.255 56.6325 138.201 56.2631 138.022 55.9498C137.844 55.6366 137.553 55.4024 137.209 55.2939C136.864 55.1854 136.491 55.2106 136.163 55.3643L128.788 58.8633C128.724 58.8998 128.663 58.9413 128.605 58.9873Z" fill="#FFC900"/>
<path d="M244.449 5.815L244.18 5.23941L243.731 5.40909C243.664 5.32908 243.586 5.25905 243.499 5.20111L243.624 4.73866L243.028 4.52382L242.825 4.9627C242.722 4.95468 242.618 4.95872 242.516 4.97476L242.274 4.56356L241.699 4.83909L241.867 5.28637C241.789 5.35227 241.719 5.42761 241.66 5.51066L241.192 5.39165L240.978 5.99197L241.413 6.18868C241.405 6.29234 241.412 6.39656 241.432 6.49834L241.016 6.73716L241.285 7.31275L241.737 7.14788C241.803 7.22634 241.88 7.29478 241.966 7.35104L241.841 7.81349L242.442 8.02507L242.641 7.58947C242.743 7.59595 242.847 7.5919 242.949 7.57739L243.192 7.9886L243.766 7.71306L243.601 7.27059C243.678 7.1995 243.748 7.12173 243.81 7.03823L244.273 7.1605L244.487 6.56019L244.052 6.36347C244.059 6.26155 244.054 6.15912 244.036 6.05863L244.449 5.815ZM243.049 6.94247C242.916 7.00492 242.768 7.0268 242.623 7.00533C242.479 6.98386 242.344 6.92 242.236 6.82184C242.128 6.72369 242.051 6.59563 242.016 6.45387C241.981 6.31211 241.989 6.16301 242.039 6.02542C242.089 5.88784 242.179 5.76795 242.297 5.68092C242.415 5.59388 242.556 5.54362 242.702 5.53647C242.848 5.52932 242.993 5.56561 243.118 5.64075C243.243 5.7159 243.343 5.82651 243.405 5.95863C243.447 6.04635 243.47 6.1414 243.474 6.23832C243.479 6.33524 243.464 6.43214 243.431 6.5235C243.398 6.61486 243.347 6.69888 243.281 6.77077C243.216 6.84266 243.137 6.901 243.049 6.94247Z" fill="#FFC900"/>
<path opacity="0.2" d="M207.909 113.897L206.338 114.642L211.649 125.885L213.22 125.141L207.909 113.897Z" fill="#FFC900"/>
<path d="M208.707 115.586L207.136 116.331L209.635 121.622L211.206 120.877L208.707 115.586Z" fill="#FFC900"/>
<path opacity="0.2" d="M205.719 118.4L204.148 119.144L209.459 130.388L211.03 129.643L205.719 118.4Z" fill="#FFC900"/>
<path d="M205.534 122.115L208.035 127.411L209.607 126.667L207.105 121.371L205.534 122.115Z" fill="#FFC900"/>
<path opacity="0.2" d="M201.541 117.761L199.969 118.509L205.303 129.759L206.876 129.011L201.541 117.761Z" fill="#FFC900"/>
<path d="M203.16 122.155L201.589 122.899L204.091 128.195L205.662 127.451L203.16 122.155Z" fill="#FFC900"/>
<path opacity="0.2" d="M212.489 114.439L210.918 115.184L216.229 126.428L217.8 125.683L212.489 114.439Z" fill="#FFC900"/>
<path d="M213.292 116.125L211.721 116.87L214.223 122.166L215.794 121.422L213.292 116.125Z" fill="#FFC900"/>
<path opacity="0.2" d="M214.449 109.441L212.877 110.186L218.188 121.43L219.76 120.685L214.449 109.441Z" fill="#FFC900"/>
<path d="M215.047 110.71L213.476 111.455L215.978 116.751L217.549 116.006L215.047 110.71Z" fill="#FFC900"/>
<path opacity="0.2" d="M219.355 110.666L217.784 111.411L223.095 122.654L224.666 121.91L219.355 110.666Z" fill="#FFC900"/>
<path d="M219.553 111.093L217.982 111.838L220.483 117.134L222.054 116.39L219.553 111.093Z" fill="#FFC900"/>
<path opacity="0.2" d="M220.105 103.116L218.534 103.861L223.845 115.105L225.416 114.36L220.105 103.116Z" fill="#FFC900"/>
<path d="M220.313 103.538L218.741 104.283L221.241 109.574L222.812 108.829L220.313 103.538Z" fill="#FFC900"/>
<path opacity="0.2" d="M226.985 108.523L225.414 109.268L230.725 120.511L232.296 119.767L226.985 108.523Z" fill="#FFC900"/>
<path d="M227.787 110.217L226.215 110.962L228.717 116.258L230.288 115.513L227.787 110.217Z" fill="#FFC900"/>
<path opacity="0.2" d="M230.828 107.505L229.257 108.249L234.568 119.493L236.139 118.748L230.828 107.505Z" fill="#FFC900"/>
<path d="M232.829 111.742L231.258 112.486L233.76 117.783L235.331 117.038L232.829 111.742Z" fill="#FFC900"/>
<path opacity="0.2" d="M231.028 98.7614L229.457 99.5061L234.767 110.75L236.339 110.005L231.028 98.7614Z" fill="#FFC900"/>
<path d="M233.228 103.428L231.656 104.173L234.156 109.464L235.727 108.719L233.228 103.428Z" fill="#FFC900"/>
<path opacity="0.2" d="M236.895 102.041L235.323 102.785L240.634 114.029L242.206 113.285L236.895 102.041Z" fill="#FFC900"/>
<path d="M237.894 104.164L236.323 104.908L238.822 110.199L240.394 109.455L237.894 104.164Z" fill="#FFC900"/>
<path opacity="0.2" d="M239.04 97.4323L237.469 98.177L242.78 109.421L244.351 108.676L239.04 97.4323Z" fill="#FFC900"/>
<path d="M240.256 98.8883L238.684 99.6362L241.196 104.935L242.768 104.188L240.256 98.8883Z" fill="#FFC900"/>
<path opacity="0.2" d="M240.189 90.7055L238.618 91.4501L243.929 102.694L245.5 101.949L240.189 90.7055Z" fill="#FFC900"/>
<path d="M240.186 90.7126L238.615 91.4573L241.117 96.7533L242.688 96.0087L240.186 90.7126Z" fill="#FFC900"/>
<path opacity="0.2" d="M247.088 96.1534L245.517 96.898L250.828 108.142L252.399 107.397L247.088 96.1534Z" fill="#FFC900"/>
<path d="M247.685 97.4301L246.114 98.1747L248.615 103.471L250.187 102.726L247.685 97.4301Z" fill="#FFC900"/>
<path opacity="0.2" d="M252.953 99.4276L251.381 100.172L256.692 111.416L258.263 110.671L252.953 99.4276Z" fill="#FFC900"/>
<path d="M253.551 100.696L251.98 101.441L254.481 106.737L256.053 105.992L253.551 100.696Z" fill="#FFC900"/>
<path opacity="0.2" d="M253.673 91.8031L252.102 92.5477L257.413 103.791L258.984 103.047L253.673 91.8031Z" fill="#FFC900"/>
<path d="M255.673 96.0282L254.102 96.7728L256.603 102.069L258.175 101.324L255.673 96.0282Z" fill="#FFC900"/>
<path opacity="0.2" d="M254.206 83.7711L252.635 84.5157L257.946 95.7594L259.517 95.0148L254.206 83.7711Z" fill="#FFC900"/>
<path d="M256.602 88.8531L255.031 89.5977L257.533 94.8938L259.104 94.1492L256.602 88.8531Z" fill="#FFC900"/>
<path opacity="0.2" d="M260.739 88.4499L259.168 89.1945L264.479 100.438L266.05 99.6936L260.739 88.4499Z" fill="#FFC900"/>
<path d="M261.978 89.857L260.406 90.6049L262.918 95.9041L264.49 95.1562L261.978 89.857Z" fill="#FFC900"/>
<path opacity="0.2" d="M265.152 88.6522L263.58 89.3969L268.891 100.641L270.462 99.8959L265.152 88.6522Z" fill="#FFC900"/>
<path d="M267.358 93.3078L265.786 94.0524L268.288 99.3485L269.859 98.6038L267.358 93.3078Z" fill="#FFC900"/>
<path opacity="0.2" d="M267.028 83.466L265.457 84.2106L270.767 95.4543L272.339 94.7097L267.028 83.466Z" fill="#FFC900"/>
<path d="M267.03 83.4707L265.459 84.2153L267.961 89.5114L269.532 88.7668L267.03 83.4707Z" fill="#FFC900"/>
<path opacity="0.2" d="M272.218 85.2991L270.646 86.0437L275.957 97.2874L277.529 96.5428L272.218 85.2991Z" fill="#FFC900"/>
<path d="M272.616 86.1473L271.044 86.8919L273.546 92.188L275.117 91.4434L272.616 86.1473Z" fill="#FFC900"/>
<path opacity="0.2" d="M275.037 82.1053L273.466 82.8499L278.777 94.0937L280.348 93.349L275.037 82.1053Z" fill="#FFC900"/>
<path d="M275.235 82.5328L273.664 83.2774L276.166 88.5735L277.737 87.8289L275.235 82.5328Z" fill="#FFC900"/>
<path opacity="0.2" d="M279.247 81.8816L277.676 82.6263L282.987 93.8699L284.558 93.1253L279.247 81.8816Z" fill="#FFC900"/>
<path d="M282.315 87.0692L280.743 87.8171L283.256 93.1164L284.828 92.3685L282.315 87.0692Z" fill="#FFC900"/>
<path d="M237.07 130.947L207.481 144.97L207.913 145.885L237.502 131.862L237.07 130.947Z" fill="#999999" stroke="#263238" stroke-linecap="round" stroke-linejoin="round"/>
<path opacity="0.2" d="M214.812 61.1996C214.812 61.1996 212.531 65.6628 218.521 69.5407C224.511 73.4186 244.639 72.8559 247.422 77.5945C247.422 77.5945 226.897 78.3829 226.376 86.2775C226.376 86.2775 244.424 89.4536 250.917 96.6226C257.411 103.792 263.487 104.814 275.094 103.569C286.7 102.324 321.415 113.66 321.415 113.66L291.555 75.4227L243.927 63.2701L225.41 64.7077L214.812 61.1996Z" fill="black" fill-opacity="0.7"/>
<path d="M336.576 83.1176L323.258 114.806L323.22 114.832C323.197 114.846 323.17 114.853 323.144 114.852C323.117 114.851 323.091 114.843 323.069 114.828C322.774 114.621 293.318 93.6993 289.303 93.227C287.005 92.9057 284.845 91.9513 283.064 90.4709C283.064 90.4709 283.048 90.4468 283.038 90.4323C282.738 90.1862 282.558 90.0133 282.513 89.9668C279.193 88.0735 275.417 87.1189 271.588 87.2051C269.075 87.3333 266.581 87.7028 264.138 88.3085C260.323 89.1238 256.396 89.9595 252.657 89.1252C252.017 88.9832 251.39 88.79 250.782 88.5475C243.901 85.8319 234.779 83.8646 232.221 83.9231C229.663 83.9817 226.483 86.3525 226.454 86.3721C226.429 86.393 226.397 86.4038 226.365 86.4022C226.332 86.4007 226.302 86.387 226.279 86.3638C225.924 85.9622 225.661 85.487 225.511 84.972C225.36 84.4569 225.325 83.9147 225.408 83.3837C225.506 82.5457 225.785 81.7381 226.225 81.017C226.666 80.2958 227.258 79.6783 227.961 79.2073C230.717 77.3464 235.489 76.2283 238.63 76.751C241.771 77.2736 247.101 75.6171 247.713 75.4284C248.148 74.5182 250.456 74.2776 251.344 74.2465C248.832 72.1215 248.449 70.9078 248.393 70.5742C245.425 69.5984 233.075 69.1164 226.637 69.0388C224.859 69.0123 223.544 69.0241 222.988 69.0558C220.133 69.2377 215.908 66.629 214.468 63.7873C214.244 63.4207 214.104 63.0087 214.059 62.581C214.014 62.1534 214.064 61.7206 214.207 61.314C214.444 60.7789 214.843 60.3307 215.348 60.032C215.548 59.9041 215.76 59.796 215.982 59.7092C216.007 59.7044 216.032 59.7037 216.058 59.707C216.132 59.7339 223.512 61.8115 225.447 61.6125C226.394 61.5132 231.357 60.8761 236.048 60.233L238.161 59.9424C237.121 58.4221 236.171 56.8416 235.318 55.2091C235.05 54.5205 235.435 53.0266 236.199 51.8104C236.55 51.2365 237.269 50.2676 238.208 50.1667C238.575 50.1365 239.463 50.0973 240.698 50.049L242.754 49.9653C242.743 49.2844 242.835 48.6053 243.027 47.951C243.247 47.4943 245.004 45.7686 245.889 45.5358C246.665 45.341 249.522 45.256 252.544 45.1648L253.845 45.1208C253.817 44.8386 253.785 44.2289 253.967 43.9661C254.753 42.8758 255.85 42.0471 257.115 41.5891C258.006 41.3659 261.682 41.5133 265.241 41.6552C267.197 41.7368 269.071 41.8111 270.272 41.8066C270.304 41.795 270.34 41.7959 270.372 41.8091C270.716 41.808 270.999 41.7994 271.207 41.7848C273.631 41.5999 293.11 61.1737 293.306 61.3707C294.604 62.6886 296.679 63.5519 298.874 64.4676C301.258 65.3547 303.518 66.5403 305.6 67.9961C309.686 71.0771 316.788 74.8286 326.231 78.8992C327.08 79.2605 327.954 79.6307 328.853 80.01C331.361 81.0442 334.006 82.1048 336.576 83.1176Z" fill="white"/>
<path opacity="0.4" d="M254.382 75.9318C253.949 77.2825 246.781 81.1188 247.474 83.9179C247.884 85.5686 249.594 87.3304 252.636 89.1253C251.996 88.9833 251.369 88.7902 250.761 88.5477C243.88 85.832 234.758 83.8647 232.2 83.9233C229.642 83.9818 226.483 86.3525 226.454 86.3721C226.429 86.393 226.397 86.4038 226.365 86.4022C226.332 86.4007 226.302 86.387 226.279 86.3638C225.924 85.9622 225.661 85.487 225.511 84.972C225.36 84.4569 225.325 83.9147 225.408 83.3837C225.506 82.5457 225.785 81.7381 226.225 81.017C226.666 80.2958 227.258 79.6783 227.961 79.2073C230.717 77.3464 235.489 76.2283 238.63 76.751C241.771 77.2736 247.101 75.6171 247.713 75.4284C248.148 74.5182 250.456 74.2776 251.344 74.2465C248.832 72.1215 248.449 70.9078 248.393 70.5742C245.425 69.5984 233.075 69.1164 226.637 69.0388C224.859 69.0123 223.544 69.0241 222.988 69.0558C220.133 69.2377 215.908 66.629 214.468 63.7873C214.244 63.4207 214.104 63.0087 214.059 62.581C214.014 62.1534 214.064 61.7206 214.207 61.314C214.444 60.7789 214.843 60.3307 215.348 60.032C215.102 60.3859 214.92 60.7793 214.809 61.1948C214.235 63.2437 221.508 67.1035 224.437 67.552C227.497 68.0172 238.892 66.6058 243.675 67.1205C246.301 67.4019 249.94 68.0579 249.94 68.0579C250.135 71.2352 254.8 74.6119 254.382 75.9318Z" fill="#FFC900"/>
<path d="M260.671 18.082C260.641 18.0385 260.635 18.0288 260.648 18.0482C260.655 18.0507 260.661 18.0553 260.665 18.0614C260.669 18.0674 260.671 18.0747 260.671 18.082Z" fill="#FFC900"/>
<path opacity="0.4" d="M326.214 78.8751C320.323 77.8961 311.395 76.2048 308.823 74.5547C304.89 72.0227 301.649 69.4225 298.129 68.3073C294.61 67.1922 273.504 44.2375 272.347 44.9129C271.191 45.5883 280.567 54.0855 281.048 54.5174C280.724 54.2666 276.412 50.8614 271.749 46.8103C266.907 42.5992 265.33 43.2568 265.33 43.2568C263.734 44.8667 264.606 46.1782 263.649 46.7956C262.693 47.4129 257.914 47.3096 257.914 47.3096C255.08 49.8811 238.207 50.2797 238.207 50.2797C235.771 52.4495 236.716 55.2047 240.479 55.8468C244.243 56.4889 249.45 56.8293 249.45 56.8293C247.966 59.3871 236.818 60.3304 236.818 60.3304L236.041 60.2234L238.154 59.9327C237.114 58.4125 236.165 56.832 235.311 55.1994C235.044 54.5109 235.429 53.0169 236.192 51.8008C236.544 51.2269 237.263 50.258 238.201 50.1571C238.568 50.1268 239.457 50.0877 240.692 50.0394L242.747 49.9557C242.737 49.2747 242.829 48.5957 243.021 47.9414C243.24 47.4846 244.997 45.759 245.882 45.5262C246.659 45.3314 249.516 45.2463 252.538 45.1551L253.839 45.1112C253.81 44.829 253.779 44.2193 253.961 43.9565C254.747 42.8661 255.844 42.0375 257.108 41.5794C258 41.3563 261.675 41.5037 265.235 41.6456C267.191 41.7272 269.064 41.8015 270.265 41.797C270.298 41.7854 270.334 41.7863 270.365 41.7994C270.71 41.7984 270.993 41.7897 271.201 41.7752C273.625 41.5902 293.103 61.1641 293.3 61.361C294.598 62.679 296.673 63.5423 298.868 64.458C301.254 65.3476 303.516 66.5364 305.6 67.9961C309.67 71.053 316.771 74.8045 326.214 78.8751Z" fill="#FFC900"/>
<path d="M323.155 114.736C323.155 114.736 293.4 93.6019 289.33 93.1106C286.789 92.7548 284.425 91.6156 282.569 89.8519C279.22 87.9372 275.406 86.9767 271.542 87.0748C264.92 87.1632 257.454 91.0679 250.804 88.4554C244.155 85.8428 234.918 83.757 232.187 83.8201C229.456 83.8832 226.36 86.2954 226.36 86.2954C224.745 84.6233 225.442 81.076 228.005 79.3457C230.568 77.6154 235.284 76.3735 238.582 76.9095C241.88 77.4454 247.778 75.5667 247.778 75.5667C248.185 74.4792 251.654 74.3942 251.654 74.3942C248.486 71.7869 248.477 70.5106 248.477 70.5106C244.847 69.2317 225.607 68.7951 222.952 68.9609C220.297 69.1267 216.023 66.6636 214.549 63.7608C214.333 63.4227 214.198 63.0388 214.156 62.6393C214.113 62.2399 214.164 61.8356 214.304 61.4584C214.445 61.0811 214.671 60.7411 214.964 60.465C215.258 60.189 215.611 59.9843 215.997 59.8672C215.997 59.8672 223.446 61.975 225.428 61.7724C227.411 61.5699 242.669 59.5492 244.795 59.0809C245.395 58.9643 245.958 58.7052 246.437 58.3257C246.916 57.9461 247.297 57.4573 247.548 56.9006" stroke="#263238" stroke-linecap="round" stroke-linejoin="round"/>
<path d="M238.384 60.0439C238.384 60.0439 235.881 56.3359 235.444 55.1662C235.006 53.9965 236.53 50.4444 238.207 50.2797C239.884 50.115 252.968 49.9329 255.512 48.6014" stroke="#263238" stroke-linecap="round" stroke-linejoin="round"/>
<path d="M242.866 50.058C242.857 49.3524 242.946 48.6486 243.129 47.9664C243.33 47.5436 245.07 45.8359 245.905 45.6229C247.575 45.1968 259.17 45.2909 260.737 44.7237" stroke="#263238" stroke-linecap="round" stroke-linejoin="round"/>
<path d="M253.978 45.2343C253.978 45.2343 253.86 44.3187 254.061 44.0219C254.827 42.956 255.899 42.1469 257.135 41.7019C258.67 41.3172 269.04 42.0776 271.201 41.9011C273.363 41.7246 290.61 58.8162 293.198 61.4506C295.786 64.0849 301.184 64.8225 305.495 68.0808C309.807 71.3392 317.647 75.4545 328.774 80.1122C330.717 80.904 332.753 81.7515 334.759 82.5428" stroke="#263238" stroke-linecap="round" stroke-linejoin="round"/>
<path d="M250.588 63.2395C250.588 63.2395 249.547 60.6545 250.234 58.7322C250.922 56.8099 253.823 57.165 255.273 56.4244" stroke="#263238" stroke-linecap="round" stroke-linejoin="round"/>
<path d="M257.313 53.4702C257.313 53.4702 256.315 50.3653 257.267 48.875C258.218 47.3847 261.471 47.7403 262.421 47.2182" stroke="#263238" stroke-linecap="round" stroke-linejoin="round"/>
<path d="M264.547 45.1734C264.547 45.1734 264.903 43.5312 265.323 43.2472C265.744 42.9632 268.743 43.6096 269.21 43.4769C269.676 43.3442 269.666 42.3486 270.313 41.8983" stroke="#263238" stroke-linecap="round" stroke-linejoin="round"/>
<path d="M259.889 44.8755C260.588 44.3248 261.443 44.0101 262.331 43.9771" stroke="#263238" stroke-linecap="round" stroke-linejoin="round"/>
<path d="M248.498 70.4895C248.498 70.4895 246.673 69.2257 246.415 68.124" stroke="#263238" stroke-linecap="round" stroke-linejoin="round"/>
<path d="M241.318 57.0263C241.318 57.0263 242.743 57.417 243.29 58.1341C243.838 58.8511 246.34 58.48 246.34 58.48" stroke="#263238" stroke-linecap="round" stroke-linejoin="round"/>
<path d="M254.503 48.9529C254.503 48.9529 255.338 47.8217 256.186 47.8168" stroke="#263238" stroke-linecap="round" stroke-linejoin="round"/>
<path d="M250.022 72.7481C249.613 72.2224 249.34 71.604 249.227 70.947C249.113 70.2901 249.164 69.6148 249.373 68.9805" stroke="#263238" stroke-linecap="round" stroke-linejoin="round"/>
<path d="M251.685 74.3665C251.685 74.3665 251.159 76.2779 251.611 76.9473" stroke="#263238" stroke-linecap="round" stroke-linejoin="round"/>
<path d="M244.668 76.3621C246.519 75.9121 249.295 77.3751 250.453 77.1612" stroke="#263238" stroke-linecap="round" stroke-linejoin="round"/>
<path d="M257.669 56.9593C259.428 57.6363 267.722 65.5949 271.733 67.1774" stroke="#263238" stroke-linecap="round" stroke-linejoin="round"/>
<path d="M263.4 49.2631C263.644 49.2596 267.264 52.0877 267.264 52.0877" stroke="#263238" stroke-linecap="round" stroke-linejoin="round"/>
<path d="M293.917 62.0663C295.462 63.7205 297.218 65.165 299.14 66.3632" stroke="#263238" stroke-linecap="round" stroke-linejoin="round"/>
<path d="M283.145 90.3815C282.582 89.8711 279.226 86.2971 277.524 85.4971" stroke="#263238" stroke-linecap="round" stroke-linejoin="round"/>
<path opacity="0.2" d="M189.857 244.469C189.857 244.469 191.373 212.777 200.637 200.908C209.902 189.039 206.954 183.409 199.878 173.97C192.802 164.53 186.515 154.445 182.462 155.471C178.409 156.496 176.969 138.906 170.135 136.166L171.39 186.449L189.857 244.469Z" fill="black" fill-opacity="0.7"/>
<path d="M190.003 252.915L189.714 252.998L190.18 252.957L190.003 252.915ZM184.632 162.46C182.089 162.866 175.398 161.234 174.562 161.028C174.243 155.341 173.993 149.818 174.186 148.32C174.603 145.235 172.903 138.202 170.219 136.06C167.756 134.091 165.477 136.212 165.174 136.514L165.136 136.54C165.124 136.551 165.115 136.564 165.109 136.579C165.103 136.594 165.101 136.61 165.102 136.626C165.111 136.753 165.802 148.968 165.599 152.14C165.499 153.651 165.254 157.105 164.968 160.592L164.376 160.873C163.133 161.458 162.008 162.265 161.055 163.254L160.97 163.368C160.561 164.004 160.205 164.672 159.903 165.364L159.414 165.463C158.435 165.661 156.441 166.117 155.668 166.59C154.722 167.158 152.508 170.826 151.396 173.329C149.798 173.823 148.289 174.57 146.926 175.54C145.493 176.599 143.307 179.848 141.549 182.458C140.768 183.616 140.093 184.618 139.655 185.138L139.269 185.609C138.107 187.017 137.486 187.787 137.833 190.469C138.192 193.254 142.302 201.773 144.277 205.866L144.545 206.421C145.313 208.006 147.056 210.516 148.914 213.195C151.503 216.915 154.176 220.76 154.635 222.651C155.164 225.068 155.377 227.544 155.271 230.017C155.264 230.351 155.262 230.661 155.263 230.955C155.3 232.638 155.55 234.309 156.008 235.927C156.323 237.27 156.608 238.788 156.84 240.195C157.273 242.798 157.535 245.011 157.535 245.011C157.535 245.011 187.394 252.272 190.003 252.915C190.105 252.891 190.204 252.861 190.302 252.825C190.295 252.69 189.824 245.171 189.59 237.597C189.397 231.053 189.351 224.488 189.94 222.576C190.69 219.868 190.631 217.004 189.77 214.335C188.962 211.635 191.55 205.885 194.055 200.325C196.827 194.178 199.694 187.819 198.162 185.194C197.376 183.832 196.223 181.477 194.884 178.743C191.256 171.335 186.735 162.113 184.632 162.46ZM183.795 178.784L183.063 182.257C181.625 180.774 178.058 179.922 177.503 179.799C177.119 178.879 176.67 177.987 176.16 177.131C175.603 176.139 175.019 175.097 175.144 174.781C175.269 174.465 175.145 171.977 174.936 167.912C176.456 169.851 179.76 170.887 180.22 171.047L183.795 178.784Z" fill="white"/>
<path opacity="0.4" d="M154.476 189.469C157.597 195.437 161.427 212.886 161.427 212.886L151.101 199.675C151.101 199.675 159.55 221.359 158.843 222.825C158.136 224.291 158.519 229.269 159.305 232.895C159.836 235.341 158.104 238.417 156.9 240.19C156.659 238.789 156.383 237.265 156.068 235.922C155.61 234.303 155.36 232.633 155.323 230.95C155.322 230.656 155.324 230.346 155.331 230.012C155.437 227.538 155.223 225.063 154.695 222.646C154.229 220.746 151.532 216.916 148.974 213.189C147.116 210.511 145.359 207.981 144.605 206.415L144.336 205.861C142.362 201.768 138.252 193.249 137.892 190.464C137.546 187.781 138.177 187.005 139.329 185.604L139.715 185.133C140.143 184.598 140.798 183.609 141.609 182.452C143.377 179.857 145.553 176.593 146.986 175.535C148.345 174.575 149.848 173.838 151.438 173.35C152.557 170.835 154.764 167.179 155.71 166.61C156.483 166.138 158.477 165.682 159.456 165.484C157.356 169.299 154.632 176.913 154.632 176.913C149.415 182.356 154.476 189.469 154.476 189.469Z" fill="#FFC900"/>
<path opacity="0.4" d="M160.326 174.794C161.172 172.637 162.132 170.526 163.204 168.471C164.277 166.681 162.81 163.423 161.151 163.344C161.089 163.341 161.028 163.354 160.972 163.381L161.057 163.267C162.009 162.278 163.135 161.471 164.377 160.886C164.396 165.283 164.376 168.675 164.293 169.46C164.038 172.085 160.326 174.794 160.326 174.794Z" fill="#FFC900"/>
<path opacity="0.4" d="M184.632 162.46C182.089 162.866 175.398 161.234 174.562 161.028C174.243 155.341 173.993 149.818 174.186 148.32C174.602 145.235 172.903 138.202 170.218 136.06C167.756 134.091 165.477 136.212 165.174 136.514L165.246 136.62C165.246 136.62 168.233 135.101 170.907 139.072C173.581 143.044 171.731 155.739 171.731 155.739C171.731 155.739 173.651 174.457 173.028 174.576C172.404 174.696 177.668 184.819 177.668 184.819C177.668 184.819 180.892 185.173 181.983 187.843C182.035 187.976 182.083 188.099 182.125 188.21L186.192 187.435C186.192 187.435 187.863 183.089 191.663 185.256C195.463 187.423 186.26 210.543 186.081 213.166C186.081 213.166 190.264 219.771 188.422 222.402C187.228 224.106 188.524 232.148 189.593 237.602C189.4 231.058 189.354 224.493 189.944 222.581C190.693 219.873 190.634 217.008 189.774 214.34C188.965 211.64 191.553 205.89 194.059 200.33C196.83 194.183 199.697 187.824 198.165 185.199C197.379 183.837 196.226 181.482 194.887 178.748C191.256 171.335 186.735 162.113 184.632 162.46ZM183.795 178.784L183.063 182.257C181.625 180.774 178.058 179.922 177.503 179.799C177.119 178.879 176.67 177.987 176.16 177.131C175.603 176.139 175.019 175.097 175.144 174.781C175.269 174.465 175.145 171.977 174.935 167.912C176.456 169.851 179.76 170.887 180.219 171.047L183.795 178.784Z" fill="#FFC900"/>
<path d="M162.205 173.708C163.333 172.537 164.071 171.047 164.318 169.443C164.673 166.841 165.522 155.374 165.73 152.157C165.937 148.939 165.231 136.63 165.231 136.63C165.231 136.63 167.569 134.106 170.145 136.159C172.721 138.213 174.49 145.058 174.063 148.305C173.636 151.552 175.36 173.829 175.026 174.763C174.692 175.696 178.273 179.917 177.639 181.762" stroke="#263238" stroke-linecap="round" stroke-linejoin="round"/>
<path d="M177.417 179.921C177.417 179.921 181.776 180.861 183.146 182.537L183.927 178.771L180.318 170.952C180.318 170.952 176.232 169.77 174.798 167.5" stroke="#263238" stroke-linecap="round" stroke-linejoin="round"/>
<path d="M174.446 161.127C174.446 161.127 181.87 163.042 184.653 162.586C187.436 162.13 195.213 180.315 198.057 185.258C200.901 190.201 187.932 208.65 189.651 214.367C190.51 217.012 190.568 219.855 189.818 222.54C188.528 226.741 190.178 252.839 190.178 252.839" stroke="#263238" stroke-linecap="round" stroke-linejoin="round"/>
<path d="M165.112 160.67C165.112 160.67 162.312 161.894 161.151 163.344C159.99 164.794 156.738 173.389 155.83 175.173C154.922 176.956 152.886 178.562 153.064 179.878" stroke="#263238" stroke-linecap="round" stroke-linejoin="round"/>
<path d="M159.992 165.486C159.992 165.486 156.743 166.096 155.743 166.7C154.743 167.305 152.056 171.804 151.139 174.315C150.44 176.254 149.399 178.053 148.066 179.628" stroke="#263238" stroke-linecap="round" stroke-linejoin="round"/>
<path d="M151.476 173.436C149.88 173.916 148.372 174.652 147.012 175.615C144.946 177.143 141.149 183.492 139.775 185.211C138.401 186.931 137.616 187.531 137.994 190.437C138.372 193.343 142.913 202.657 144.694 206.349C146.474 210.04 153.986 219.29 154.799 222.611C155.611 225.932 155.44 228.943 155.459 230.942C155.456 234.954 157.056 236.874 157.605 244.999" stroke="#263238" stroke-linecap="round" stroke-linejoin="round"/>
<path d="M166.214 174.703C162.4 177.397 162.956 180.807 163.859 182.686" stroke="#263238" stroke-linecap="round" stroke-linejoin="round"/>
<path d="M180.318 170.952C180.318 170.952 179.793 168.944 180.253 168.395" stroke="#263238" stroke-linecap="round" stroke-linejoin="round"/>
<path d="M183.927 178.771C184.29 179.916 184.571 181.085 184.768 182.269C184.935 183.559 186.455 184.769 186.455 184.769" stroke="#263238" stroke-linecap="round" stroke-linejoin="round"/>
</g>
<defs>
<clipPath id="clip0_15_519">
<rect width="291.758" height="290.506" fill="white" transform="translate(0.331787 57.4529) rotate(-34.0204)"/>
</clipPath>
</defs>
</svg>
