<svg width="723" height="343" viewBox="0 0 723 343" fill="none" xmlns="http://www.w3.org/2000/svg">
<mask id="mask0_136_3697" style="mask-type:alpha" maskUnits="userSpaceOnUse" x="0" y="0" width="723" height="343">
<rect x="1.33179" y="1.44812" width="720" height="340" rx="19" fill="white" fill-opacity="0.5" stroke="white" stroke-width="2"/>
</mask>
<g mask="url(#mask0_136_3697)">
<g filter="url(#filter0_f_136_3697)">
<path d="M734.186 304.655C720.043 323.189 737.611 339.544 686.507 356.475C641.019 371.592 571.254 376.933 526.231 395.144C579.702 376.183 518.859 362.154 522.872 342.67C527.646 319.732 608.031 308.429 681.922 301.799C609.824 312.14 577.699 336.24 585.193 357.308C604.578 332.161 665.256 310.351 745.677 299.943L734.186 304.655Z" fill="#FFC900" fill-opacity="0.5"/>
<path d="M661.001 291.181C607.814 303.622 582.389 320.121 506.422 324.449C438.759 328.309 376.319 319.788 301.732 326.259C384.122 320.73 373.08 298.141 421.252 283.062C477.939 265.332 561.79 270.987 630.112 279.226C554.422 274.342 475.412 287.958 431.885 306.426C504.201 289.603 598.3 283.089 680.123 289.47L661.001 291.181Z" fill="#FFC900" fill-opacity="0.5"/>
<path d="M636.727 268.347C573.234 265.392 514.313 271.08 460.04 257.811C411.65 245.984 399.741 226.957 340.449 215.408C401.569 229.251 456.568 211.691 524.369 211.805C604.112 211.951 635.792 233.63 651.773 253.746C622.622 234.314 541.481 226.659 467.094 229.796C553.133 233.896 623.478 249.562 652.089 271.28L636.727 268.347Z" fill="#FFC900" fill-opacity="0.5"/>
<path d="M755.333 244.463C770.852 226.408 811.779 213.034 791.229 193.302C772.98 175.732 717.732 164.941 704.613 144.573C724.232 166.343 647.562 173.916 621.409 191.983C590.716 213.238 646.488 230.321 703.482 242.606C653.74 227.097 661.395 202.47 700.36 183.967C679.635 208.458 701.412 233.42 758.503 249.708L755.333 244.463Z" fill="#FFC900" fill-opacity="0.5"/>
</g>
</g>
<defs>
<filter id="filter0_f_136_3697" x="240.732" y="83.5731" width="617.151" height="372.571" filterUnits="userSpaceOnUse" color-interpolation-filters="sRGB">
<feFlood flood-opacity="0" result="BackgroundImageFix"/>
<feBlend mode="normal" in="SourceGraphic" in2="BackgroundImageFix" result="shape"/>
<feGaussianBlur stdDeviation="30.5" result="effect1_foregroundBlur_136_3697"/>
</filter>
</defs>
</svg>
