<svg width="20" height="20" viewBox="0 0 20 20" fill="none" xmlns="http://www.w3.org/2000/svg">
<path fill-rule="evenodd" clip-rule="evenodd" d="M2.50618 0.386955C2.23634 0.892381 1.5433 3.15873 1.28216 4.38986C0.913841 6.12606 0.8854 9.23855 1.2261 10.5119C1.49441 11.5149 2.09402 12.792 2.64744 13.5394C3.56142 14.774 5.31488 15.9276 7.15531 16.5054C8.11689 16.8072 8.15638 16.835 9.39274 18.0773C10.8467 19.5384 11.3526 19.8699 11.8097 19.6613C12.065 19.5447 12.1115 19.4461 12.1119 19.0206C12.1127 18.2086 12.4279 16.4919 12.8206 15.1624C13.4036 13.188 14.4217 11.2168 15.4657 10.041L15.7792 9.68782L15.5671 10.041C14.2142 12.2931 13.2672 14.6445 12.9879 16.4452L12.9076 16.9627L13.4063 16.8828C14.1723 16.7601 15.4023 16.1119 15.9935 15.5196C16.9058 14.6052 17.1324 13.9108 17.4555 11.0379C17.7228 8.66002 18.0739 7.56934 18.8467 6.71508C19.1452 6.38495 19.1468 6.38495 17.9644 6.75793C15.8617 7.42124 14.1107 8.4521 12.8965 9.74151C11.2643 11.4749 10.8377 13.5638 11.6333 15.9276C11.8885 16.6856 11.8979 16.5687 11.4137 18.6355L11.3309 18.9887L9.68467 17.3404C7.40975 15.0629 5.99782 13.1283 4.86418 10.7356C4.32533 9.59823 3.61184 7.52778 3.48891 6.74451C3.42286 6.32373 3.44449 6.34881 3.69246 6.98068C4.59376 9.27741 5.9588 11.7553 7.33183 13.587C8.1538 14.6836 9.3536 15.9756 9.44409 15.8617C9.46678 15.8332 9.59394 15.5715 9.72662 15.2801C10.6795 13.1891 10.794 11.3085 10.0598 9.80544C9.7781 9.22867 8.48521 7.86791 6.58779 6.15137C4.18078 3.97391 3.18264 2.57113 2.7793 0.799019C2.65097 0.235198 2.61571 0.181983 2.50618 0.386955Z" fill="url(#paint0_linear_8629_19199)"/>
<defs>
<linearGradient id="paint0_linear_8629_19199" x1="0.461218" y1="0.277344" x2="13.7714" y2="20.371" gradientUnits="userSpaceOnUse">
<stop stop-color="#F9B935"/>
<stop offset="1" stop-color="#FFAC00"/>
</linearGradient>
</defs>
</svg>
