<svg width="315" height="169" viewBox="0 0 315 169" fill="none" xmlns="http://www.w3.org/2000/svg">
<path d="M273.928 155.673C265.53 152.107 255.803 145.096 251.468 136.496C260.792 140.357 268.654 147.07 273.928 155.673Z" fill="#263238"/>
<path d="M272.138 142.338C263.74 138.772 254.019 131.754 249.678 123.154C259.001 127.019 266.862 133.734 272.138 142.338Z" fill="#263238"/>
<path d="M269.713 129.353C261.309 125.787 251.588 118.775 247.247 110.176C256.571 114.039 264.434 120.751 269.713 129.353Z" fill="#263238"/>
<path d="M266.663 115.764C258.738 111.064 249.905 102.761 246.616 93.6445C255.42 98.7735 262.422 106.5 266.663 115.764Z" fill="#263238"/>
<path d="M263.406 105.362C257.635 97.8024 252.249 86.5757 252.325 76.8359C258.739 85.0503 262.594 94.9717 263.406 105.362Z" fill="#263238"/>
<path d="M265.025 110.315C266.185 100.096 270.16 87.2565 276.895 79.5957C275.762 90.7138 271.662 101.323 265.025 110.315Z" fill="#263238"/>
<path d="M267.734 121.478C269.794 110.951 274.992 97.9285 282.646 90.5449C280.55 102.01 275.398 112.697 267.734 121.478Z" fill="#263238"/>
<path d="M270.859 135.099C272.913 124.572 278.11 111.55 285.765 104.166C283.667 115.63 278.518 126.316 270.859 135.099Z" fill="#263238"/>
<path d="M273.36 151.824C275.414 141.297 280.611 128.275 288.266 120.885C286.168 132.35 281.019 143.038 273.36 151.824Z" fill="#263238"/>
<path d="M263.034 103.385C263.034 103.385 263.034 103.435 263.097 103.542C263.16 103.649 263.192 103.819 263.261 104.008L263.841 105.835C264.345 107.417 265.031 109.723 265.832 112.583C266.632 115.443 267.52 118.883 268.433 122.663C269.347 126.443 270.242 130.708 271.086 135.162C271.93 139.616 272.598 143.881 273.152 147.762C273.707 151.643 274.103 155.164 274.412 158.119C274.721 161.074 274.91 163.468 275.011 165.125C275.061 165.937 275.105 166.574 275.13 167.015C275.13 167.216 275.13 167.38 275.13 167.512C275.141 167.569 275.141 167.626 275.13 167.683C275.13 167.683 275.13 167.626 275.13 167.512C275.13 167.399 275.093 167.223 275.074 167.021C275.03 166.561 274.967 165.925 274.891 165.131C274.746 163.474 274.513 161.086 274.185 158.138C273.858 155.19 273.429 151.681 272.875 147.793C272.321 143.906 271.615 139.654 270.79 135.193C269.964 130.733 269.045 126.525 268.163 122.701C267.281 118.876 266.405 115.456 265.643 112.621C264.88 109.786 264.225 107.442 263.753 105.848L263.23 104.015C263.173 103.813 263.135 103.656 263.097 103.53C263.07 103.484 263.049 103.436 263.034 103.385Z" fill="#263238"/>
<path d="M278.023 161.244C274.457 153.785 271.868 143.295 273.613 135.105C277.594 143.204 279.127 152.288 278.023 161.244Z" fill="#455A64"/>
<path d="M283.944 151.586C280.385 144.12 277.789 133.637 279.534 125.447C283.518 133.545 285.051 142.63 283.944 151.586Z" fill="#455A64"/>
<path d="M289.256 141.764C285.696 134.298 283.107 123.815 284.846 115.625C288.83 123.723 290.362 132.807 289.256 141.764Z" fill="#455A64"/>
<path d="M294.49 131.168C291.844 123.274 290.515 112.514 293.23 104.639C296.213 113.173 296.651 122.39 294.49 131.168Z" fill="#455A64"/>
<path d="M297.899 122.497C298.157 114.093 300.633 103.597 305.85 97.373C305.732 106.348 302.966 115.088 297.899 122.497Z" fill="#455A64"/>
<path d="M296.324 126.694C302.504 120.86 311.897 115.07 320.346 114.314C313.736 120.722 305.378 125.03 296.324 126.694Z" fill="#455A64"/>
<path d="M292.16 135.515C299.09 130.027 309.371 124.88 318.261 124.861C310.807 130.918 301.723 134.626 292.16 135.515Z" fill="#455A64"/>
<path d="M286.975 146.156C293.905 140.668 304.186 135.515 313.082 135.496C305.629 141.56 296.542 145.27 286.975 146.156Z" fill="#455A64"/>
<path d="M279.698 158.421C286.628 152.934 296.91 147.781 305.799 147.762C298.348 153.825 289.263 157.536 279.698 158.421Z" fill="#455A64"/>
<path d="M298.705 120.975C298.705 120.975 298.705 121.019 298.667 121.113L298.529 121.504C298.384 121.876 298.188 122.38 297.949 123.016C297.445 124.326 296.689 126.21 295.681 128.516C293.703 133.134 290.78 139.434 287.138 146.187C285.318 149.558 283.491 152.727 281.777 155.574C280.063 158.422 278.457 160.936 277.058 163.027C275.66 165.119 274.538 166.807 273.694 167.935L272.749 169.245L272.497 169.585C272.469 169.624 272.438 169.66 272.403 169.693C272.403 169.693 272.403 169.642 272.472 169.566L272.699 169.207L273.6 167.866C274.387 166.706 275.49 165.012 276.876 162.907C278.262 160.803 279.824 158.264 281.531 155.423C283.239 152.582 285.04 149.407 286.867 146.036C290.496 139.295 293.451 132.995 295.479 128.428C296.494 126.134 297.294 124.269 297.836 122.972L298.466 121.485C298.535 121.327 298.592 121.201 298.642 121.101C298.658 121.056 298.679 121.014 298.705 120.975Z" fill="#263238"/>
<path d="M294.981 162.145H259.594V168.961H263.229L266.291 188.416H288.171L291.321 168.961H294.981V162.145Z" fill="#007BFF"/>
<path d="M294.981 168.822C294.981 168.728 287.119 168.658 277.417 168.658C267.715 168.658 259.846 168.728 259.846 168.822C259.846 168.917 267.715 168.986 277.417 168.986C287.119 168.986 294.981 168.904 294.981 168.822Z" fill="#263238"/>
<path d="M122 23.1074H163.485C165.073 23.1074 166.36 24.3948 166.36 25.9828V51.3827C166.36 52.9707 165.073 54.2581 163.485 54.2581H122C120.412 54.2581 119.124 52.9707 119.124 51.3827V25.9828C119.124 24.3948 120.412 23.1074 122 23.1074Z" fill="white"/>
<path d="M121.995 54.2616C121.995 54.2616 121.863 54.2616 121.604 54.2176C121.227 54.165 120.864 54.0336 120.54 53.832C120.009 53.5079 119.597 53.0219 119.364 52.4456C119.066 51.7621 119.193 50.8883 119.168 49.9314C119.168 46.0846 119.193 40.5242 119.212 33.6604C119.212 31.9421 119.212 30.1456 119.212 28.2905C119.212 27.8023 119.212 27.3483 119.212 26.8699C119.19 26.3939 119.21 25.9169 119.271 25.4444C119.368 24.9741 119.587 24.5374 119.904 24.177C120.222 23.8167 120.628 23.5452 121.082 23.3892C121.556 23.2464 122.053 23.1934 122.547 23.2329H133.931H163.48C164.109 23.2333 164.719 23.449 165.209 23.8443C165.698 24.2395 166.037 24.7904 166.17 25.4053C166.224 25.7147 166.245 26.0289 166.234 26.3426V36.7701C166.234 41.7105 166.234 46.48 166.234 51.0201C166.277 51.5687 166.176 52.1191 165.941 52.6164C165.701 53.0973 165.326 53.4978 164.862 53.7685C164.402 54.0356 163.875 54.166 163.344 54.1444H155.455H144.227L127.956 54.1835L123.533 54.2079H122.381H121.99H122.381H123.533H127.956L144.227 54.2469H155.455H163.353C163.926 54.2662 164.492 54.1259 164.989 53.8418C165.492 53.5473 165.899 53.1132 166.16 52.592C166.41 52.0623 166.519 51.4773 166.478 50.8931C166.478 46.3531 166.478 41.5836 166.478 36.6432C166.478 34.1665 166.478 31.6524 166.478 29.1009V26.2157C166.49 25.8888 166.467 25.5614 166.409 25.2394C166.264 24.5697 165.894 23.9696 165.362 23.5383C164.829 23.1069 164.166 22.8701 163.48 22.8668H133.931H127.297H122.547C122.026 22.8288 121.503 22.8867 121.004 23.0377C120.514 23.2053 120.076 23.498 119.733 23.8867C119.391 24.2754 119.156 24.7467 119.051 25.254C118.988 25.7395 118.969 26.2296 118.993 26.7185V28.1391C118.993 30.0138 118.993 31.8103 118.993 33.5091C118.993 40.3729 119.022 45.9333 119.032 49.7801C119.032 50.2683 119.032 50.7125 119.032 51.1421C119.026 51.5466 119.101 51.9482 119.251 52.3235C119.495 52.9106 119.924 53.4024 120.472 53.7246C120.803 53.9252 121.175 54.0502 121.56 54.0907C121.699 54.162 121.845 54.2192 121.995 54.2616Z" fill="#263238"/>
<path d="M143.377 41.1992H145.188V48.4145H143.377V41.1992Z" fill="#007BFF"/>
<path d="M158.516 40.1543H160.327V48.4143H158.516V40.1543Z" fill="#007BFF"/>
<path d="M154.732 38.4297H156.543V48.4081H154.732V38.4297Z" fill="#007BFF"/>
<path d="M150.949 38.9766H152.76V48.4082H150.949V38.9766Z" fill="#007BFF"/>
<path d="M147.161 35.7832H148.972V48.4075H147.161V35.7832Z" fill="#007BFF"/>
<path d="M139.594 35.8477H141.405V48.4085H139.594V35.8477Z" fill="#007BFF"/>
<path d="M135.805 39.9727H137.616V48.4084H135.805V39.9727Z" fill="#007BFF"/>
<path d="M132.022 36.3984H133.833V48.4076H132.022V36.3984Z" fill="#007BFF"/>
<path d="M128.239 33.6953H130.05V48.409H128.239V33.6953Z" fill="#007BFF"/>
<path d="M124.451 36.3398H126.262V48.4125H124.451V36.3398Z" fill="#007BFF"/>
<path d="M160.175 27.3962C160.175 27.6222 160.242 27.843 160.368 28.0309C160.493 28.2188 160.672 28.3652 160.88 28.4516C161.089 28.5381 161.319 28.5607 161.54 28.5166C161.762 28.4726 161.966 28.3638 162.125 28.204C162.285 28.0442 162.394 27.8407 162.438 27.6191C162.482 27.3975 162.459 27.1678 162.373 26.9591C162.287 26.7504 162.14 26.572 161.952 26.4464C161.764 26.3209 161.544 26.2539 161.318 26.2539C161.015 26.2539 160.724 26.3743 160.51 26.5885C160.296 26.8027 160.175 27.0933 160.175 27.3962Z" fill="#E0E0E0"/>
<path d="M157.208 27.3963C157.208 27.6224 157.275 27.8435 157.4 28.0314C157.526 28.2194 157.705 28.3658 157.914 28.4521C158.123 28.5384 158.353 28.5607 158.575 28.5163C158.796 28.4718 159 28.3625 159.159 28.2023C159.319 28.042 159.427 27.838 159.471 27.6161C159.514 27.3942 159.491 27.1644 159.404 26.9557C159.317 26.7471 159.169 26.569 158.981 26.4441C158.792 26.3191 158.571 26.253 158.345 26.2539C158.195 26.2539 158.047 26.2835 157.909 26.341C157.77 26.3984 157.645 26.4827 157.539 26.5888C157.433 26.6949 157.35 26.8209 157.293 26.9595C157.236 27.098 157.207 27.2465 157.208 27.3963Z" fill="#E0E0E0"/>
<path d="M154.278 27.3962C154.278 27.6222 154.345 27.843 154.47 28.0309C154.596 28.2188 154.774 28.3652 154.983 28.4516C155.192 28.5381 155.421 28.5607 155.643 28.5166C155.865 28.4726 156.068 28.3638 156.228 28.204C156.388 28.0442 156.496 27.8407 156.541 27.6191C156.585 27.3975 156.562 27.1678 156.476 26.9591C156.389 26.7504 156.243 26.572 156.055 26.4464C155.867 26.3209 155.646 26.2539 155.42 26.2539C155.117 26.2539 154.827 26.3743 154.612 26.5885C154.398 26.8027 154.278 27.0933 154.278 27.3962Z" fill="#E0E0E0"/>
<path d="M125.855 1.05273H22.9326C21.7984 1.05273 20.7107 1.50329 19.9087 2.30528C19.1067 3.10726 18.6562 4.195 18.6562 5.32918V89.1934C18.6562 90.8222 19.3032 92.3842 20.4549 93.5359C21.6066 94.6877 23.1687 95.3347 24.7974 95.3347H123.546C125.175 95.3347 126.737 94.6877 127.889 93.5359C129.04 92.3842 129.688 90.8222 129.688 89.1934V4.88494C129.688 3.86857 129.284 2.89384 128.565 2.17516C127.846 1.45648 126.872 1.05273 125.855 1.05273Z" fill="white"/>
<path d="M126.666 1.05273H22.2784C21.3592 1.05273 20.4776 1.41791 19.8276 2.06792C19.1775 2.71794 18.8124 3.59955 18.8124 4.5188V12.4029H129.688V4.07456C129.688 3.27312 129.369 2.50451 128.802 1.93781C128.236 1.3711 127.467 1.05273 126.666 1.05273Z" fill="#E0E0E0"/>
<path d="M18.8133 12.4043C18.8133 12.4726 43.5981 12.5312 74.1679 12.5312C104.738 12.5312 129.532 12.4726 129.532 12.4043C129.532 12.3359 104.752 12.2773 74.1679 12.2773C43.5835 12.2773 18.8133 12.331 18.8133 12.4043Z" fill="#263238"/>
<path d="M123.629 6.97538C123.629 7.18297 123.691 7.38589 123.806 7.55849C123.922 7.7311 124.085 7.86562 124.277 7.94506C124.469 8.0245 124.68 8.04529 124.884 8.00479C125.087 7.9643 125.274 7.86433 125.421 7.71755C125.568 7.57076 125.668 7.38374 125.708 7.18014C125.749 6.97654 125.728 6.76551 125.649 6.57372C125.569 6.38193 125.435 6.21801 125.262 6.10268C125.089 5.98735 124.887 5.92579 124.679 5.92579C124.541 5.92515 124.404 5.95185 124.277 6.00437C124.149 6.05689 124.033 6.13418 123.935 6.23177C123.838 6.32936 123.76 6.44532 123.708 6.57296C123.655 6.70059 123.629 6.83736 123.629 6.97538Z" fill="#263238"/>
<path d="M120.29 6.97538C120.29 7.18317 120.352 7.38629 120.468 7.559C120.583 7.7317 120.747 7.86623 120.94 7.94552C121.132 8.02482 121.343 8.04532 121.547 8.00442C121.75 7.96353 121.937 7.86308 122.084 7.7158C122.231 7.56853 122.33 7.38105 122.37 7.17713C122.41 6.97321 122.389 6.76202 122.308 6.57032C122.228 6.37862 122.093 6.21504 121.92 6.1003C121.746 5.98556 121.543 5.92483 121.335 5.92579C121.198 5.92579 121.061 5.95297 120.934 6.00578C120.807 6.05859 120.692 6.13598 120.595 6.2335C120.498 6.33103 120.421 6.44677 120.369 6.57409C120.316 6.7014 120.29 6.83777 120.29 6.97538Z" fill="#263238"/>
<path d="M116.883 6.97538C116.883 7.18297 116.945 7.38589 117.06 7.55849C117.175 7.7311 117.339 7.86562 117.531 7.94506C117.723 8.0245 117.934 8.04529 118.138 8.00479C118.341 7.9643 118.528 7.86433 118.675 7.71755C118.822 7.57076 118.922 7.38374 118.962 7.18014C119.003 6.97654 118.982 6.76551 118.903 6.57372C118.823 6.38193 118.689 6.21801 118.516 6.10268C118.343 5.98735 118.14 5.92579 117.933 5.92579C117.795 5.92515 117.658 5.95185 117.53 6.00437C117.403 6.05689 117.287 6.13418 117.189 6.23177C117.092 6.32936 117.014 6.44532 116.962 6.57296C116.909 6.70059 116.883 6.83736 116.883 6.97538Z" fill="#263238"/>
<path d="M55.7683 20.8496C55.7683 20.9179 63.7744 20.9765 73.6502 20.9765C83.5261 20.9765 91.5322 20.9179 91.5322 20.8496C91.5322 20.7812 83.5261 20.7227 73.6502 20.7227C63.7744 20.7227 55.7683 20.7959 55.7683 20.8496Z" fill="#263238"/>
<path d="M72.342 28.4062C72.342 28.4795 81.9249 28.5331 93.7389 28.5331C105.553 28.5331 115.136 28.4795 115.136 28.4062C115.136 28.333 105.558 28.2793 93.7389 28.2793C81.9201 28.2793 72.342 28.3379 72.342 28.4062Z" fill="#263238"/>
<path d="M72.342 32.4531C72.342 32.5263 81.9249 32.58 93.7389 32.58C105.553 32.58 115.136 32.5263 115.136 32.4531C115.136 32.3799 105.558 32.3262 93.7389 32.3262C81.9201 32.3262 72.342 32.3848 72.342 32.4531Z" fill="#263238"/>
<path d="M72.342 36.5C72.342 36.5732 81.9249 36.6318 93.7389 36.6318C105.553 36.6318 115.136 36.5732 115.136 36.5C115.136 36.4267 105.558 36.373 93.7389 36.373C81.9201 36.373 72.342 36.4316 72.342 36.5Z" fill="#263238"/>
<path d="M72.342 40.5517C72.342 40.6201 81.9249 40.6787 93.7389 40.6787C105.553 40.6787 115.136 40.6201 115.136 40.5517C115.136 40.4834 105.558 40.4199 93.7389 40.4199C81.9201 40.4199 72.342 40.4785 72.342 40.5517Z" fill="#263238"/>
<path d="M72.342 44.6006C72.342 44.6689 81.9249 44.7275 93.7389 44.7275C105.553 44.7275 115.136 44.6689 115.136 44.6006C115.136 44.5322 105.558 44.4688 93.7389 44.4688C81.9201 44.4688 72.342 44.5273 72.342 44.6006Z" fill="#263238"/>
<path d="M72.342 55.8398C72.342 55.913 81.9249 55.9667 93.7389 55.9667C105.553 55.9667 115.136 55.913 115.136 55.8398C115.136 55.7666 105.558 55.7129 93.7389 55.7129C81.9201 55.7129 72.342 55.7715 72.342 55.8398Z" fill="#263238"/>
<path d="M72.342 51.7656C72.342 51.8388 81.9249 51.8925 93.7389 51.8925C105.553 51.8925 115.136 51.8388 115.136 51.7656C115.136 51.6924 105.558 51.6387 93.7389 51.6387C81.9201 51.6387 72.342 51.6973 72.342 51.7656Z" fill="#263238"/>
<path d="M44.9643 27.5801C47.2511 27.5791 49.4868 28.2564 51.3886 29.5263C53.2904 30.7961 54.7728 32.6015 55.6484 34.714C56.524 36.8266 56.7533 39.1513 56.3074 41.3942C55.8615 43.6371 54.7604 45.6974 53.1434 47.3144C51.5264 48.9313 49.4662 50.0324 47.2233 50.4783C44.9804 50.9242 42.6557 50.6949 40.5431 49.8193C38.4306 48.9438 36.6252 47.4613 35.3554 45.5595C34.0855 43.6577 33.4082 41.4221 33.4092 39.1353C33.4105 36.071 34.6283 33.1327 36.795 30.9659C38.9618 28.7992 41.9001 27.5814 44.9643 27.5801ZM44.7886 46.0625C46.1937 46.0635 47.5674 45.6477 48.7362 44.8678C49.9049 44.0879 50.816 42.9789 51.3544 41.6811C51.8927 40.3833 52.0341 38.955 51.7606 37.5768C51.4871 36.1986 50.811 34.9325 49.8178 33.9387C48.8246 32.9448 47.559 32.2678 46.181 31.9934C44.803 31.7189 43.3746 31.8593 42.0764 32.3967C40.7782 32.9342 39.6686 33.8446 38.8879 35.0128C38.1072 36.181 37.6905 37.5545 37.6905 38.9595C37.6898 39.8917 37.8728 40.8148 38.2289 41.6762C38.585 42.5377 39.1073 43.3205 39.766 43.9801C40.4247 44.6397 41.2068 45.163 42.0678 45.5203C42.9287 45.8777 43.8516 46.0619 44.7837 46.0625H44.7886Z" fill="#007BFF"/>
<path d="M51.8916 38.9587C51.8916 37.5871 51.4941 36.2448 50.7473 35.0943C50.0005 33.9437 48.9363 33.0342 47.6835 32.4757L49.4605 28.4824C51.5499 29.3709 53.3316 30.8547 54.5834 32.7489C55.8353 34.6432 56.5018 36.864 56.5 39.1345C56.5 39.294 56.5 39.4567 56.5 39.6227H51.8477C51.8769 39.3981 51.8916 39.1833 51.8916 38.9587Z" fill="#E0E0E0"/>
<path d="M35.4015 53.6084C35.4015 53.667 39.6828 53.7158 44.9649 53.7158C50.247 53.7158 54.5283 53.667 54.5283 53.6084C54.5283 53.5498 50.247 53.4961 44.9649 53.4961C39.6828 53.4961 35.4015 53.5547 35.4015 53.6084Z" fill="#263238"/>
<path d="M39.6634 55.3681C39.6634 55.4267 42.0359 55.4755 44.965 55.4755C47.8941 55.4755 50.2715 55.4267 50.2715 55.3681C50.2715 55.3096 47.8941 55.2559 44.965 55.2559C42.0359 55.2559 39.6634 55.3047 39.6634 55.3681Z" fill="#263238"/>
<path d="M45.7993 37.4453V37.9335L46.7366 40.1254H47.5567L46.6585 38.0604H47.3615V38.4705H48.0059V37.4453H45.7993Z" fill="#263238"/>
<path d="M43.5297 39.2731C43.5297 39.7612 43.8861 40.1811 44.6916 40.1811C45.052 40.1889 45.4078 40.0995 45.7217 39.9223L45.4532 39.3512C45.2346 39.4962 44.9784 39.5742 44.716 39.5757C44.4573 39.5757 44.2864 39.4732 44.2864 39.2926C44.2864 39.112 44.3987 39.0241 44.8039 39.0241H45.5264L45.3946 37.4668H43.7006V38.0477H44.7844L44.8185 38.4383H44.6428C43.8373 38.4236 43.5297 38.7995 43.5297 39.2731Z" fill="#263238"/>
<path d="M43.3979 38.1698C43.3874 38.0372 43.3385 37.9105 43.2571 37.8053C43.1757 37.7001 43.0654 37.6209 42.9397 37.5775C42.814 37.5341 42.6784 37.5283 42.5494 37.5608C42.4204 37.5933 42.3037 37.6627 42.2137 37.7606C42.1236 37.8585 42.064 37.9805 42.0423 38.1117C42.0205 38.2429 42.0375 38.3776 42.0912 38.4993C42.1449 38.621 42.2329 38.7244 42.3444 38.7968C42.456 38.8692 42.5863 38.9075 42.7193 38.9069C42.814 38.9088 42.908 38.8906 42.9951 38.8534C43.0822 38.8162 43.1605 38.7609 43.2246 38.6912C43.2888 38.6215 43.3374 38.539 43.3673 38.4491C43.3971 38.3592 43.4076 38.264 43.3979 38.1698ZM41.1425 37.4668H40.5957L42.4166 40.1274H42.9634L41.1425 37.4668ZM42.4947 38.1698C42.4947 37.9013 42.5875 37.7939 42.7193 37.7939C42.8511 37.7939 42.9439 37.9013 42.9439 38.1698C42.9439 38.4383 42.8413 38.5457 42.7193 38.5457C42.5972 38.5457 42.4947 38.4236 42.4947 38.1698ZM41.5184 39.4244C41.5079 39.2918 41.459 39.1651 41.3776 39.0599C41.2962 38.9547 41.1859 38.8756 41.0602 38.8321C40.9345 38.7887 40.7989 38.7829 40.6699 38.8154C40.5409 38.8479 40.4243 38.9174 40.3342 39.0152C40.2441 39.1131 40.1845 39.2351 40.1628 39.3663C40.141 39.4975 40.158 39.6322 40.2117 39.7539C40.2654 39.8756 40.3534 39.979 40.465 40.0514C40.5765 40.1238 40.7068 40.1621 40.8398 40.1615C40.9345 40.1634 41.0285 40.1452 41.1156 40.108C41.2028 40.0708 41.281 40.0155 41.3451 39.9458C41.4093 39.8761 41.4579 39.7936 41.4878 39.7037C41.5176 39.6138 41.5281 39.5186 41.5184 39.4244ZM40.6152 39.4244C40.6152 39.1559 40.7129 39.0485 40.8398 39.0485C40.9667 39.0485 41.0644 39.1559 41.0644 39.4244C41.0644 39.6929 40.9667 39.8003 40.8398 39.8003C40.7129 39.8003 40.6152 39.6978 40.6152 39.4244Z" fill="#263238"/>
<path d="M107.232 79.25H110.532V86.8509H107.232V79.25Z" fill="#EBEBEB"/>
<path d="M96.0378 79.25H99.3379V86.8509H96.0378V79.25Z" fill="#EBEBEB"/>
<path d="M101.633 72.3281H104.933V86.8514H101.633V72.3281Z" fill="#F5F5F5"/>
<path d="M90.4382 72.3281H93.7383V86.8514H90.4382V72.3281Z" fill="#F5F5F5"/>
<path d="M84.8435 72.7422H88.1436V86.8505H84.8435V72.7422Z" fill="#EBEBEB"/>
<path d="M73.6501 72.7422H76.9502V86.8505H73.6501V72.7422Z" fill="#EBEBEB"/>
<path d="M62.4558 72.7422H65.7559V86.8505H62.4558V72.7422Z" fill="#EBEBEB"/>
<path d="M79.2448 65.3418H82.5449V86.8558H79.2448V65.3418Z" fill="#F5F5F5"/>
<path d="M68.0505 67.4453H71.3506V86.8504H68.0505V67.4453Z" fill="#F5F5F5"/>
<path d="M45.9216 72.7422H49.2217V86.8505H45.9216V72.7422Z" fill="#EBEBEB"/>
<path d="M51.5163 75.4512H54.8164V86.8501H51.5163V75.4512Z" fill="#F5F5F5"/>
<path d="M34.2146 65.2148H37.5146V86.8509H34.2146V65.2148Z" fill="#EBEBEB"/>
<path d="M39.8093 75.4512H43.1094V86.8501H39.8093V75.4512Z" fill="#F5F5F5"/>
<path d="M28.611 75.4512H31.9111V86.8501H28.611V75.4512Z" fill="#F5F5F5"/>
<path d="M56.8562 70.418H60.1562V86.8501H56.8562V70.418Z" fill="#EBEBEB"/>
<path d="M81.1681 66.1891C80.699 66.1891 80.3187 65.8088 80.3187 65.3397C80.3187 64.8705 80.699 64.4902 81.1681 64.4902C81.6373 64.4902 82.0176 64.8705 82.0176 65.3397C82.0176 65.8088 81.6373 66.1891 81.1681 66.1891Z" fill="#007BFF"/>
<path d="M81.1683 66.8802C81.4736 66.8802 81.7721 66.7896 82.0259 66.6199C82.2796 66.4502 82.4774 66.2089 82.594 65.9268C82.7106 65.6446 82.7409 65.3342 82.6809 65.0348C82.621 64.7354 82.4736 64.4606 82.2574 64.245C82.0411 64.0295 81.7658 63.8829 81.4663 63.824C81.1667 63.765 80.8564 63.7962 80.5746 63.9138C80.2928 64.0313 80.0522 64.2297 79.8833 64.4841C79.7143 64.7384 79.6247 65.0371 79.6257 65.3424C79.6269 65.7507 79.79 66.1419 80.0792 66.4301C80.3684 66.7184 80.76 66.8802 81.1683 66.8802ZM81.1683 63.9218C81.4495 63.9209 81.7246 64.0034 81.9589 64.1589C82.1931 64.3144 82.376 64.5359 82.4842 64.7954C82.5925 65.0549 82.6213 65.3407 82.5671 65.6166C82.5128 65.8925 82.3779 66.1461 82.1794 66.3452C81.981 66.5444 81.7278 66.6802 81.4521 66.7354C81.1764 66.7906 80.8905 66.7627 80.6307 66.6554C80.3708 66.548 80.1487 66.3659 79.9923 66.1322C79.836 65.8985 79.7526 65.6236 79.7526 65.3424C79.7526 64.9665 79.9016 64.6059 80.1669 64.3397C80.4323 64.0734 80.7924 63.9231 81.1683 63.9218Z" fill="#007BFF"/>
<path d="M80.4895 63.1743L80.5334 61.5047L80.1185 61.5144L80.8947 60.5625L81.6758 61.5193L81.2462 61.5242L81.2022 63.1743H80.4895Z" fill="#EBEBEB"/>
<path d="M107.945 75.7733C107.945 75.9413 107.995 76.1055 108.088 76.2452C108.181 76.3849 108.314 76.4937 108.469 76.558C108.624 76.6223 108.795 76.6391 108.96 76.6064C109.125 76.5736 109.276 76.4927 109.395 76.3739C109.514 76.2551 109.594 76.1037 109.627 75.939C109.66 75.7742 109.643 75.6034 109.579 75.4482C109.515 75.293 109.406 75.1603 109.266 75.067C109.126 74.9736 108.962 74.9238 108.794 74.9238C108.569 74.9238 108.353 75.0133 108.193 75.1726C108.034 75.3319 107.945 75.548 107.945 75.7733Z" fill="#007BFF"/>
<path d="M108.794 77.3431C109.1 77.3431 109.398 77.2525 109.652 77.0828C109.906 76.9131 110.103 76.6718 110.22 76.3897C110.337 76.1075 110.367 75.7971 110.307 75.4977C110.247 75.1983 110.1 74.9235 109.883 74.7079C109.667 74.4924 109.392 74.3458 109.092 74.2869C108.793 74.2279 108.482 74.2591 108.201 74.3767C107.919 74.4942 107.678 74.6926 107.509 74.947C107.34 75.2013 107.251 75.5 107.252 75.8053C107.252 76.0077 107.292 76.2081 107.369 76.3949C107.447 76.5818 107.56 76.7516 107.704 76.8944C107.847 77.0373 108.017 77.1505 108.204 77.2275C108.391 77.3044 108.592 77.3437 108.794 77.3431ZM108.794 74.3847C109.075 74.3847 109.35 74.4681 109.584 74.6242C109.817 74.7803 109.999 75.0021 110.107 75.2617C110.214 75.5213 110.242 75.8069 110.188 76.0825C110.133 76.3581 109.997 76.6112 109.799 76.8099C109.6 77.0085 109.347 77.1438 109.071 77.1986C108.796 77.2535 108.51 77.2253 108.251 77.1178C107.991 77.0103 107.769 76.8282 107.613 76.5946C107.457 76.361 107.374 76.0863 107.374 75.8053C107.373 75.6186 107.409 75.4336 107.48 75.2609C107.552 75.0883 107.656 74.9314 107.788 74.7994C107.92 74.6673 108.077 74.5627 108.25 74.4916C108.423 74.4204 108.608 74.3841 108.794 74.3847Z" fill="#007BFF"/>
<path d="M109.302 70.5117L109.258 72.2496L109.692 72.2448L108.882 73.2309L108.072 72.235L108.521 72.2301L108.565 70.5166L109.302 70.5117Z" fill="#EBEBEB"/>
<path d="M64.4034 66.8789L64.3595 68.6168L64.7939 68.6119L63.9836 69.5981L63.1732 68.6022L63.6223 68.5973L63.6663 66.8838L64.4034 66.8789Z" fill="#EBEBEB"/>
<path d="M54.1858 82.2679L64.1203 72.9485C70.4178 69.9072 80.1374 65.4306 81.27 65.4892C82.5393 65.5673 106.655 75.0672 115.818 78.7237L115.999 78.2697C114.647 77.7327 82.9103 65.0888 81.2993 65.0059H81.2651C79.5028 65.0059 65.4823 71.7574 63.8762 72.5287L63.8176 72.5726L54.1077 81.6772C52.2624 80.7008 41.7031 75.1307 41.5225 75.0526C41.459 75.0233 41.293 74.9549 26.7697 74.9549V75.4431C32.3447 75.4431 40.717 75.4431 41.3516 75.5115C41.9033 75.7897 49.8264 79.9685 54.0443 82.1897L54.1858 82.2679Z" fill="#007BFF"/>
<path d="M63.1341 72.5389C63.1341 72.7069 63.184 72.8711 63.2773 73.0108C63.3706 73.1505 63.5033 73.2594 63.6585 73.3237C63.8137 73.3879 63.9845 73.4048 64.1493 73.372C64.3141 73.3392 64.4654 73.2583 64.5842 73.1395C64.703 73.0207 64.7839 72.8694 64.8167 72.7046C64.8495 72.5398 64.8326 72.369 64.7684 72.2138C64.7041 72.0586 64.5952 71.9259 64.4555 71.8326C64.3158 71.7393 64.1516 71.6895 63.9836 71.6895C63.872 71.6895 63.7616 71.7114 63.6585 71.7541C63.5555 71.7968 63.4618 71.8594 63.3829 71.9382C63.3041 72.0171 63.2415 72.1108 63.1988 72.2138C63.1561 72.3169 63.1341 72.4273 63.1341 72.5389Z" fill="#007BFF"/>
<path d="M63.9837 74.1087C64.2888 74.1087 64.5871 74.0183 64.8408 73.8487C65.0945 73.6792 65.2922 73.4383 65.4089 73.1564C65.5257 72.8745 65.5563 72.5644 65.4967 72.2651C65.4372 71.9659 65.2903 71.691 65.0745 71.4753C64.8588 71.2595 64.5839 71.1126 64.2847 71.0531C63.9854 70.9936 63.6753 71.0241 63.3934 71.1409C63.1115 71.2576 62.8706 71.4554 62.7011 71.709C62.5315 71.9627 62.4411 72.261 62.4411 72.5661C62.4424 72.9748 62.6053 73.3665 62.8943 73.6555C63.1833 73.9445 63.575 74.1074 63.9837 74.1087ZM63.9837 71.1504C64.2637 71.1504 64.5374 71.2334 64.7703 71.389C65.0031 71.5445 65.1845 71.7656 65.2917 72.0243C65.3988 72.283 65.4269 72.5677 65.3722 72.8423C65.3176 73.1169 65.1828 73.3692 64.9848 73.5672C64.7868 73.7651 64.5345 73.9 64.2599 73.9546C63.9853 74.0092 63.7006 73.9812 63.4419 73.874C63.1833 73.7669 62.9622 73.5854 62.8066 73.3526C62.651 73.1198 62.568 72.8461 62.568 72.5661C62.5654 72.3785 62.6001 72.1923 62.6701 72.0183C62.7401 71.8443 62.844 71.6859 62.9757 71.5524C63.1074 71.4188 63.2644 71.3128 63.4374 71.2404C63.6105 71.1681 63.7961 71.1308 63.9837 71.1308V71.1504Z" fill="#007BFF"/>
<path d="M40.5756 75.0662C40.5756 75.2342 40.6254 75.3985 40.7187 75.5381C40.812 75.6778 40.9447 75.7867 41.0999 75.851C41.2551 75.9153 41.4259 75.9321 41.5907 75.8993C41.7555 75.8666 41.9068 75.7857 42.0256 75.6669C42.1444 75.5481 42.2253 75.3967 42.2581 75.2319C42.2909 75.0672 42.274 74.8964 42.2097 74.7412C42.1455 74.5859 42.0366 74.4533 41.8969 74.3599C41.7572 74.2666 41.593 74.2168 41.425 74.2168C41.3134 74.2168 41.203 74.2388 41.0999 74.2815C40.9969 74.3241 40.9032 74.3867 40.8244 74.4656C40.7455 74.5445 40.6829 74.6381 40.6402 74.7412C40.5975 74.8442 40.5756 74.9547 40.5756 75.0662Z" fill="#007BFF"/>
<path d="M41.4251 76.638C41.7302 76.638 42.0285 76.5475 42.2822 76.378C42.5359 76.2085 42.7336 75.9676 42.8504 75.6857C42.9671 75.4038 42.9977 75.0937 42.9381 74.7944C42.8786 74.4952 42.7317 74.2203 42.5159 74.0046C42.3002 73.7888 42.0253 73.6419 41.7261 73.5824C41.4268 73.5229 41.1167 73.5534 40.8348 73.6702C40.5529 73.7869 40.312 73.9846 40.1425 74.2383C39.973 74.492 39.8825 74.7903 39.8825 75.0954C39.8838 75.5041 40.0467 75.8957 40.3357 76.1848C40.6248 76.4738 41.0164 76.6367 41.4251 76.638ZM41.4251 73.6797C41.7065 73.6787 41.9818 73.7613 42.2162 73.917C42.4506 74.0728 42.6334 74.2946 42.7415 74.5544C42.8497 74.8141 42.8782 75.1002 42.8235 75.3762C42.7689 75.6522 42.6335 75.9058 42.4345 76.1048C42.2355 76.3037 41.982 76.4391 41.706 76.4938C41.4299 76.5485 41.1439 76.5199 40.8841 76.4118C40.6243 76.3037 40.4025 76.1208 40.2468 75.8865C40.0911 75.6521 40.0084 75.3768 40.0094 75.0954C40.0094 74.7199 40.1586 74.3598 40.4241 74.0943C40.6896 73.8288 41.0497 73.6797 41.4251 73.6797Z" fill="#007BFF"/>
<path d="M41.8839 70.0234L41.835 71.7614L42.2695 71.7516L41.4592 72.7426L40.6488 71.7418H41.0979L41.1467 70.0283L41.8839 70.0234Z" fill="#EBEBEB"/>
<path d="M24.52 95.32H24.2612H23.9341L23.4899 95.2517C23.0722 95.1717 22.6634 95.0507 22.2695 94.8904C21.7294 94.656 21.225 94.3471 20.7707 93.9726C20.1994 93.4909 19.7255 92.9043 19.3746 92.2445C18.9582 91.4455 18.7279 90.5626 18.7009 89.662C18.7009 87.7093 18.7009 85.4393 18.7009 82.8959C18.7009 72.7125 18.7253 57.9987 18.7399 39.7848C18.7399 30.6852 18.7399 20.7165 18.7399 10.0059C18.7399 8.6683 18.7399 7.31604 18.7399 5.9589C18.6913 5.28716 18.7472 4.61193 18.9059 3.95737C19.1011 3.31298 19.4612 2.73073 19.9506 2.26827C20.4363 1.79104 21.0418 1.45373 21.7032 1.29191C22.3831 1.17372 23.0744 1.13441 23.7633 1.17475H45.619H123.908C124.772 1.17475 125.656 1.17475 126.496 1.17475C127.333 1.26133 128.109 1.65396 128.675 2.27738C129.24 2.90079 129.556 3.71111 129.561 4.55295V17.3725C129.561 24.1354 129.561 30.7942 129.561 37.3488C129.561 50.4417 129.561 63.0758 129.561 75.1094C129.561 78.1199 129.561 81.0912 129.561 84.0236V88.3879C129.596 89.1006 129.562 89.8151 129.459 90.5212C129.263 91.5538 128.789 92.5134 128.088 93.2963C127.387 94.0792 126.485 94.6557 125.48 94.9636C124.818 95.1561 124.129 95.2401 123.44 95.2126H113.188H83.409L40.2979 95.2517L28.5816 95.2761H25.5354C24.847 95.2761 24.4955 95.2761 24.4955 95.2761H25.5354H28.5816H40.2979L83.409 95.32H113.188H123.44C124.15 95.3455 124.86 95.2582 125.544 95.0613C126.588 94.7431 127.525 94.1455 128.253 93.3333C128.982 92.521 129.475 91.525 129.679 90.4529C129.785 89.7323 129.821 89.0031 129.786 88.2756C129.786 86.8111 129.786 85.3758 129.786 83.9113V75.1094C129.786 63.0758 129.786 50.4417 129.786 37.3488V4.57736C129.778 3.6739 129.438 2.80484 128.832 2.13525C128.225 1.46566 127.394 1.0422 126.496 0.945308C125.602 0.901372 124.753 0.945308 123.879 0.945308H45.5897H22.7088C22.3504 0.942431 21.993 0.983417 21.6446 1.06735C20.9492 1.23709 20.311 1.58736 19.7944 2.08277C19.2809 2.575 18.9012 3.1899 18.6911 3.8695C18.5308 4.54535 18.4732 5.24149 18.5202 5.93449V9.9815C18.5202 20.6824 18.5202 30.651 18.5202 39.7604C18.5202 57.9597 18.5544 72.688 18.5642 82.8715C18.5642 85.4149 18.5642 87.68 18.5642 89.6376C18.5866 90.4713 18.7867 91.2906 19.1513 92.0408C19.5158 92.7909 20.0363 93.4545 20.678 93.9873C21.1365 94.3619 21.6461 94.6693 22.1913 94.9002C22.5879 95.0603 23.0003 95.1781 23.4215 95.2517L23.8707 95.3151H24.1978L24.52 95.32Z" fill="#263238"/>
<path d="M13.0314 50.1957C12.3834 47.4371 14.0943 44.6756 16.8528 44.0275C19.6114 43.3795 22.373 45.0904 23.021 47.849C23.669 50.6075 21.9581 53.3691 19.1996 54.0171C16.441 54.6651 13.6794 52.9542 13.0314 50.1957Z" fill="#F5F5F5"/>
<path d="M23.1474 49.0239C23.1054 49.4411 23.0369 49.8553 22.9424 50.2638C22.7649 50.9459 22.4467 51.5832 22.0082 52.1349C21.5697 52.6866 21.0206 53.1405 20.3963 53.4674C19.7719 53.7942 19.0861 53.9869 18.3829 54.033C17.6797 54.079 16.9746 53.9775 16.3129 53.7348C15.3797 53.3951 14.569 52.785 13.9843 51.9822C13.3531 51.125 13.0126 50.0884 13.0126 49.0239C13.0126 47.9593 13.3531 46.9227 13.9843 46.0655C14.2776 45.6559 14.6354 45.2965 15.0437 45.0013C15.4274 44.707 15.856 44.4762 16.3129 44.3178C17.1007 44.0276 17.9486 43.9394 18.7793 44.0614C19.6099 44.1833 20.3967 44.5115 21.0678 45.0159C21.9842 45.7034 22.6441 46.6778 22.9424 47.7839C23.036 48.1926 23.1045 48.6067 23.1474 49.0239C23.1808 48.5991 23.1429 48.1717 23.0352 47.7595C22.7699 46.6119 22.1141 45.592 21.1801 44.8744C20.4868 44.3393 19.6697 43.9876 18.8045 43.8519C17.9393 43.7163 17.0538 43.801 16.23 44.0982C15.7517 44.2636 15.3021 44.5024 14.8972 44.806C14.4711 45.1174 14.0956 45.4929 13.7842 45.9191C13.1187 46.8184 12.7595 47.9076 12.7595 49.0263C12.7595 50.1451 13.1187 51.2343 13.7842 52.1336C14.0956 52.5597 14.4711 52.9352 14.8972 53.2466C15.3032 53.5485 15.7525 53.7871 16.23 53.9545C17.1118 54.272 18.0629 54.3462 18.9833 54.1693C19.9598 53.9793 20.8611 53.5124 21.5796 52.8243C22.298 52.1361 22.8033 51.2557 23.0352 50.2883C23.1429 49.876 23.1808 49.4486 23.1474 49.0239Z" fill="#263238"/>
<path d="M18.7981 50.4799C18.8481 50.4786 18.8965 50.462 18.9368 50.4323C18.977 50.4026 19.0072 50.3612 19.0232 50.3138C19.0392 50.2664 19.0402 50.2152 19.0261 50.1672C19.0121 50.1192 18.9836 50.0767 18.9445 50.0454L17.6264 49.0153L18.9592 48.0097C19.0102 47.9701 19.0435 47.9119 19.0517 47.8479C19.06 47.7838 19.0425 47.7191 19.0031 47.6679C18.9839 47.6423 18.9598 47.6207 18.9322 47.6044C18.9046 47.588 18.8741 47.5773 18.8424 47.5728C18.8106 47.5682 18.7783 47.57 18.7473 47.5779C18.7162 47.5859 18.687 47.5999 18.6614 47.6191L17.0797 48.8201C17.05 48.8423 17.0258 48.871 17.0089 48.904C16.992 48.937 16.9828 48.9734 16.982 49.0104C16.9818 49.0479 16.9901 49.0849 17.0061 49.1187C17.0222 49.1525 17.0456 49.1822 17.0748 49.2057L18.6467 50.431C18.6903 50.4638 18.7436 50.4809 18.7981 50.4799Z" fill="#263238"/>
<path d="M125.527 50.5101C124.878 47.7516 126.589 44.99 129.348 44.342C132.106 43.694 134.868 45.4049 135.516 48.1634C136.164 50.922 134.453 53.6835 131.695 54.3316C128.936 54.9796 126.175 53.2687 125.527 50.5101Z" fill="#F5F5F5"/>
<path d="M125.388 49.3393C125.433 48.9222 125.503 48.5082 125.597 48.0993C125.893 46.9921 126.554 46.017 127.472 45.3313C128.096 44.8598 128.821 44.5421 129.591 44.4038C130.474 44.2422 131.384 44.3198 132.227 44.6284C132.682 44.7917 133.109 45.0221 133.496 45.3118C133.902 45.6103 134.258 45.9711 134.551 46.3809C135.182 47.2381 135.522 48.2748 135.522 49.3393C135.522 50.4038 135.182 51.4405 134.551 52.2977C134.258 52.706 133.902 53.0652 133.496 53.3619C133.112 53.6552 132.683 53.8859 132.227 54.0453C131.384 54.3556 130.474 54.4348 129.591 54.2748C128.821 54.1365 128.096 53.8188 127.472 53.3472C126.556 52.6597 125.896 51.6853 125.597 50.5793C125.504 50.1702 125.434 49.7563 125.388 49.3393C125.357 49.7641 125.395 50.1909 125.5 50.6037C125.73 51.5713 126.235 52.4519 126.954 53.1395C127.673 53.8271 128.575 54.2925 129.552 54.4798C130.473 54.6587 131.426 54.5862 132.31 54.2699C133.285 53.9144 134.134 53.2794 134.751 52.4441C135.419 51.5461 135.78 50.4564 135.78 49.3369C135.78 48.2173 135.419 47.1277 134.751 46.2296C134.442 45.8012 134.066 45.4254 133.638 45.1166C133.233 44.8148 132.786 44.5761 132.31 44.4087C131.426 44.0933 130.474 44.0192 129.552 44.1939C128.755 44.3443 128.004 44.6787 127.36 45.1703C126.425 45.8885 125.768 46.9079 125.5 48.0554C125.393 48.4745 125.355 48.9081 125.388 49.3393Z" fill="#263238"/>
<path d="M129.727 50.7942C129.78 50.7954 129.832 50.7781 129.873 50.7454L131.46 49.5445C131.49 49.5223 131.514 49.4935 131.531 49.4606C131.548 49.4276 131.557 49.3912 131.558 49.3541C131.558 49.3161 131.549 49.2786 131.532 49.2447C131.515 49.2107 131.491 49.1813 131.46 49.1588L129.893 47.9335C129.868 47.9115 129.839 47.895 129.807 47.8848C129.775 47.8746 129.742 47.871 129.708 47.8742C129.675 47.8774 129.643 47.8874 129.614 47.9035C129.585 47.9197 129.559 47.9416 129.539 47.968C129.519 47.9943 129.504 48.0246 129.496 48.0569C129.487 48.0892 129.486 48.1228 129.491 48.1557C129.496 48.1886 129.508 48.2201 129.526 48.2482C129.544 48.2763 129.568 48.3005 129.595 48.3192L130.913 49.3492L129.58 50.3549C129.539 50.3856 129.509 50.4285 129.494 50.4774C129.479 50.5263 129.479 50.5787 129.495 50.6273C129.512 50.6759 129.543 50.7182 129.584 50.7482C129.626 50.7781 129.676 50.7942 129.727 50.7942Z" fill="#263238"/>
<path d="M186.149 107.979C184.896 108.045 183.639 107.978 182.399 107.78C181.51 107.548 180.664 107.174 179.894 106.674C179.894 106.674 177.167 107.05 176.73 106.442C176.465 106.058 176.323 105.603 176.32 105.136L174.318 104.887L172.504 105.23L171.503 106.453C171.503 106.453 170.75 106.453 170.717 105.999C170.717 105.999 169.716 105.546 169.81 105.23C169.904 104.915 170.457 103.416 170.457 103.416L171.221 101.779C171.221 101.779 176.166 101.469 176.354 101.591C176.542 101.713 182.803 104.633 182.803 104.633L185.121 105.186L186.149 107.979Z" fill="#EB996E"/>
<path d="M183.583 99.8958L175.739 98.1369L170.263 97.8438C170.263 97.8438 165.595 100.012 165.728 101.953L164.749 102.479C164.749 102.479 164.832 103.928 165.999 103.585C166.567 103.421 167.122 103.214 167.658 102.966L166.402 104.879C166.666 105.028 166.962 105.109 167.264 105.115C167.566 105.121 167.865 105.051 168.134 104.913C168.526 104.725 171.281 102.639 171.281 102.639L173.61 102.573C173.61 102.573 177.935 105.549 179.943 105.892C181.951 106.235 185.369 105.527 185.369 105.527L183.583 99.8958Z" fill="#FFBE9D"/>
<path d="M165.999 103.61C165.999 103.577 165.8 103.643 165.479 103.61C165.387 103.589 165.301 103.55 165.225 103.494C165.15 103.437 165.087 103.366 165.042 103.283C164.929 103.054 164.883 102.797 164.909 102.542L164.865 102.62L168.25 100.407L169.268 99.7435C169.583 99.5388 169.937 99.301 170.191 99.1904H170.651H171.154H172.056C172.648 99.2214 173.242 99.2047 173.831 99.1406C173.25 99.0395 172.662 98.9877 172.072 98.9857L171.187 98.9415H170.689H170.429H170.236C170.195 98.9362 170.154 98.9362 170.114 98.9415C169.765 99.1205 169.427 99.32 169.102 99.5388L168.079 100.203C166.773 101.071 165.595 101.862 164.76 102.498L164.716 102.531V102.581C164.696 102.877 164.765 103.171 164.915 103.427C164.974 103.524 165.055 103.606 165.151 103.667C165.247 103.729 165.355 103.768 165.468 103.781C165.605 103.798 165.745 103.785 165.877 103.743C165.955 103.637 165.999 103.621 165.999 103.61Z" fill="#EB996E"/>
<path d="M166.485 104.779C166.794 104.495 167.068 104.175 167.304 103.828C167.785 103.219 168.41 102.362 169.135 101.405H169.107L169.201 101.333C169.439 101.151 169.677 100.974 169.909 100.819L170.263 100.603C170.369 100.545 170.486 100.508 170.606 100.493C171.06 100.419 171.518 100.373 171.978 100.354C172.41 100.363 172.841 100.33 173.267 100.255C172.842 100.161 172.406 100.126 171.972 100.15C171.499 100.138 171.025 100.164 170.556 100.227C170.408 100.248 170.264 100.293 170.13 100.36C170.003 100.426 169.881 100.504 169.76 100.581C169.511 100.741 169.268 100.918 169.024 101.107L168.93 101.184C168.228 102.146 167.608 103.02 167.171 103.662C166.899 104.006 166.669 104.381 166.485 104.779Z" fill="#EB996E"/>
<path d="M135.798 163.459L135.616 177.973C135.616 177.973 120.869 181.613 120.571 184.29L148.636 186.707L149.848 164.101L135.798 163.459Z" fill="#007BFF"/>
<g opacity="0.3">
<path d="M135.765 166.334L135.726 168.917L149.504 170.394L149.692 167.136L135.765 166.334Z" fill="#2B2B2B"/>
</g>
<path d="M135.831 171.781C136.122 171.393 136.277 170.921 136.273 170.437C136.322 169.917 136.28 169.393 136.152 168.888C136.075 168.587 135.97 168.294 135.836 168.014C135.77 167.824 135.655 167.655 135.504 167.522C135.353 167.389 135.17 167.298 134.974 167.256C134.848 167.253 134.724 167.285 134.616 167.35C134.508 167.414 134.421 167.509 134.365 167.621C134.285 167.782 134.227 167.953 134.194 168.13C134.13 168.443 134.115 168.764 134.149 169.081C134.204 169.615 134.395 170.125 134.703 170.564C135.217 171.322 135.781 171.515 135.809 171.465C135.836 171.416 135.394 171.111 135.007 170.392C134.784 169.977 134.654 169.519 134.625 169.048C134.609 168.775 134.631 168.502 134.691 168.235C134.752 167.936 134.874 167.682 134.985 167.737C135.095 167.793 135.35 167.975 135.455 168.224C135.583 168.474 135.686 168.735 135.765 169.004C135.901 169.464 135.97 169.941 135.969 170.42C135.93 171.25 135.759 171.759 135.831 171.781Z" fill="#263238"/>
<path d="M206.083 113.661C206.083 113.661 160.395 106.078 158.36 105.763C150.528 104.557 141.589 105.514 138.608 111.134C137.049 115.293 136.159 119.672 135.969 124.11C135.593 131.018 132.85 171.944 132.85 171.944L151.7 175.08L157.906 129.796L168.548 131.793C167.951 131.721 196.205 136.771 204.734 137.661C211.322 138.331 218.916 134.78 220.432 128.906C221.427 125.067 223.59 114.38 223.59 114.38L206.083 113.661Z" fill="#263238"/>
<path d="M153.443 123.537C154.355 124.41 155.2 125.352 155.971 126.353C156.658 127.413 157.268 128.522 157.796 129.671C157.757 129.288 157.654 128.914 157.492 128.565C157.164 127.717 156.731 126.915 156.203 126.176C155.676 125.435 155.061 124.76 154.372 124.168C154.099 123.908 153.785 123.694 153.443 123.537Z" fill="#455A64"/>
<path d="M244.985 36.1612C245.655 37.263 245.978 38.5406 245.914 39.8285C245.914 41.0841 245.051 43.6284 242.827 43.7556C243.419 47.3454 241.118 49.9949 237.296 50.0004C233.474 50.006 229.093 43.4459 225.548 42.0078L215.26 39.2864C214.358 39.0762 213.987 37.9755 214.004 37.0739C214.021 36.1723 214.258 35.1822 213.932 34.3083C213.484 33.1191 212.101 32.483 211.631 31.2993C211.078 29.9552 211.924 28.4617 212.881 27.3776C213.838 26.2935 215 25.2592 215.304 23.8487C215.586 22.5488 215.083 21.0831 215.735 19.9215C216.532 18.4944 218.628 18.3119 219.607 17.001C220.077 16.3594 220.227 15.5297 220.713 14.8881C221.504 13.7818 223.031 13.5108 224.375 13.6546C225.719 13.7984 227.008 14.2907 228.352 14.3902C230.2 14.523 232.108 13.9256 233.883 14.4622C235.841 15.0485 237.031 16.7853 238.308 18.4668L239.968 20.4138C240.307 20.749 240.677 21.0509 241.074 21.3154C241.813 21.6967 242.515 22.1467 243.17 22.6595C243.473 22.9795 243.709 23.3575 243.862 23.7707C244.015 24.184 244.083 24.6239 244.062 25.0641C244.041 25.5043 243.931 25.9357 243.738 26.3323C243.546 26.729 243.276 27.0826 242.944 27.3721C243.652 27.6157 244.263 28.0816 244.686 28.7005C245.109 29.3194 245.32 30.0582 245.289 30.807C245.289 30.807 245.471 32.5106 244.393 33.2684C244.807 33.6104 245.092 34.0839 245.2 34.6103C245.307 35.1367 245.231 35.684 244.985 36.1612Z" fill="#263238"/>
<path d="M238.093 39.6425C239.014 37.0565 239.708 34.3951 240.167 31.6886C240.627 28.9697 240.402 26.1793 239.514 23.5687C239.371 23.1815 238.132 20.5652 237.722 20.6039C237.424 20.6371 238.187 23.0764 238.038 23.3308C236.611 25.7812 236.218 28.7349 236.45 31.5613C236.701 34.3084 237.257 37.0189 238.11 39.6425" fill="#263238"/>
<path d="M231.317 63.5771C237.401 62.8137 238.087 53.0677 238.087 53.0677L238.364 29.1838C238.585 22.3084 234.769 16.4619 227.888 16.4121L227.252 16.4453C224.169 16.615 221.263 17.938 219.111 20.1514C216.959 22.3649 215.719 25.3068 215.636 28.3928C215.476 34.3555 215.376 40.9487 215.586 44.1292C216.018 50.7169 222.666 51.3917 222.666 51.3917C222.666 51.3917 222.843 57.3046 222.821 59.3401C222.749 66.3537 229.636 63.7319 231.339 63.5826L231.317 63.5771Z" fill="#FFBE9D"/>
<path d="M222.644 51.3827C225.69 51.2121 228.623 50.1717 231.096 48.3848C231.096 48.3848 229.32 53.5731 222.705 53.3297L222.644 51.3827Z" fill="#EB996E"/>
<path d="M217.351 33.7964C217.361 34.0419 217.467 34.2737 217.646 34.4422C217.824 34.6107 218.062 34.7025 218.308 34.698C218.428 34.7009 218.548 34.6798 218.66 34.6358C218.772 34.5918 218.874 34.5259 218.96 34.4419C219.046 34.3578 219.114 34.2575 219.161 34.1466C219.207 34.0358 219.231 33.9167 219.231 33.7964C219.221 33.5509 219.116 33.3191 218.937 33.1506C218.758 32.9821 218.52 32.8903 218.275 32.8948C218.154 32.8919 218.035 32.913 217.923 32.957C217.811 33.001 217.709 33.0669 217.623 33.1509C217.537 33.2349 217.468 33.3353 217.422 33.4462C217.375 33.557 217.351 33.6761 217.351 33.7964Z" fill="#263238"/>
<path d="M217.169 31.0503C217.296 31.1664 217.976 30.5967 218.994 30.5469C220.012 30.4972 220.775 30.9618 220.88 30.829C220.985 30.6963 220.797 30.558 220.46 30.3423C220.007 30.0589 219.477 29.9253 218.944 29.9606C218.417 29.9879 217.911 30.1815 217.5 30.5138C217.202 30.7682 217.108 30.9784 217.169 31.0503Z" fill="#263238"/>
<path d="M226.876 33.7964C226.886 34.0419 226.992 34.2737 227.171 34.4422C227.35 34.6107 227.587 34.7025 227.833 34.698C227.953 34.7009 228.073 34.6798 228.185 34.6358C228.297 34.5918 228.399 34.5259 228.485 34.4419C228.571 34.3578 228.639 34.2575 228.686 34.1466C228.733 34.0358 228.757 33.9167 228.757 33.7964C228.747 33.5509 228.641 33.3191 228.462 33.1506C228.283 32.9821 228.046 32.8903 227.8 32.8948C227.68 32.8919 227.56 32.913 227.448 32.957C227.336 33.001 227.234 33.0669 227.148 33.1509C227.062 33.2349 226.994 33.3353 226.947 33.4462C226.9 33.557 226.876 33.6761 226.876 33.7964Z" fill="#263238"/>
<path d="M227.113 30.9256C227.241 31.0473 227.926 30.4776 228.939 30.4278C229.951 30.378 230.72 30.8427 230.825 30.7099C230.93 30.5772 230.747 30.4389 230.41 30.2232C229.955 29.9397 229.423 29.8062 228.889 29.8415C228.361 29.8687 227.856 30.0624 227.445 30.3946C227.152 30.6491 227.058 30.8758 227.113 30.9256Z" fill="#263238"/>
<path d="M223.9 38.9046C223.357 38.7687 222.8 38.6999 222.241 38.6999C221.981 38.6999 221.737 38.6446 221.687 38.4731C221.651 38.2057 221.697 37.9334 221.82 37.6932C222.03 37.0571 222.246 36.3879 222.478 35.6854C223.391 32.8202 224.038 30.475 223.922 30.4418C223.806 30.4086 222.971 32.693 222.058 35.5582C221.842 36.2606 221.632 36.9354 221.433 37.5771C221.286 37.8981 221.259 38.2609 221.356 38.6004C221.397 38.6893 221.459 38.7675 221.536 38.8289C221.612 38.8902 221.702 38.9332 221.798 38.9544C221.943 38.987 222.092 39.0001 222.241 38.9931C222.795 39.0356 223.353 39.0058 223.9 38.9046Z" fill="#263238"/>
<path d="M226.926 39.4496C226.76 39.4496 226.815 40.5558 225.919 41.38C225.023 42.2041 223.839 42.1543 223.839 42.3092C223.839 42.3756 224.11 42.5083 224.608 42.4917C225.253 42.4695 225.869 42.2185 226.345 41.7837C226.803 41.3665 227.081 40.7872 227.119 40.1686C227.131 39.704 226.992 39.4385 226.926 39.4496Z" fill="#263238"/>
<path d="M226.925 26.8103C227.036 27.0758 228.032 26.8932 229.237 26.9707C230.443 27.0481 231.417 27.3247 231.561 27.0702C231.621 26.9485 231.444 26.6996 231.041 26.4507C230.506 26.1505 229.909 25.9764 229.296 25.9419C228.684 25.9074 228.072 26.0133 227.506 26.2516C227.108 26.4507 226.925 26.6775 226.925 26.8103Z" fill="#263238"/>
<path d="M217.406 27.661C217.6 27.8768 218.286 27.6057 219.121 27.5449C219.956 27.484 220.681 27.6168 220.83 27.3679C220.897 27.2462 220.775 27.0249 220.449 26.8148C220.021 26.5706 219.528 26.4662 219.038 26.5161C218.543 26.5527 218.072 26.7465 217.694 27.0692C217.406 27.307 217.323 27.5504 217.406 27.661Z" fill="#263238"/>
<path d="M238.087 34.0892C238.198 34.0339 242.545 32.5073 242.645 37.0208C242.744 41.5343 238.187 40.7046 238.176 40.5718C238.165 40.4391 238.087 34.0892 238.087 34.0892Z" fill="#FFBE9D"/>
<path d="M239.52 38.8306C239.52 38.8306 239.597 38.8804 239.736 38.9412C239.924 39.0146 240.133 39.0146 240.322 38.9412C240.798 38.7531 241.179 37.9898 241.185 37.1712C241.184 36.7893 241.101 36.4121 240.941 36.065C240.896 35.9239 240.817 35.7962 240.711 35.6929C240.605 35.5897 240.475 35.5142 240.333 35.4731C240.242 35.4509 240.146 35.4615 240.062 35.5029C239.978 35.5444 239.911 35.6141 239.874 35.6999C239.818 35.8271 239.874 35.9156 239.824 35.9211C239.774 35.9267 239.724 35.8492 239.758 35.6612C239.78 35.5485 239.841 35.447 239.929 35.3735C240.051 35.278 240.206 35.2343 240.361 35.2519C240.547 35.2838 240.723 35.3632 240.87 35.4823C241.017 35.6014 241.131 35.7563 241.201 35.9322C241.399 36.3213 241.501 36.7516 241.5 37.1878C241.5 38.0949 241.041 38.9578 240.394 39.1625C240.274 39.2002 240.147 39.2104 240.022 39.1922C239.898 39.174 239.779 39.1279 239.675 39.0574C239.531 38.9357 239.503 38.8361 239.52 38.8306Z" fill="#EB996E"/>
<path d="M218.441 20.865C217.705 20.4723 219.868 18.0994 221.654 17.2365C224.354 15.9754 228.485 15.1623 230.997 15.8371C234.022 16.6558 236.528 18.1215 238.093 20.8429C239.58 23.6131 240.308 26.7276 240.201 29.8699C240.246 30.8288 240.038 31.7827 239.598 32.6355C238.978 33.6422 237.778 34.2949 237.85 35.6611C237.887 36.1638 237.724 36.6607 237.396 37.0439C236.583 37.9345 235.56 37.1214 235.084 36.3027C234.066 34.5438 233.934 32.4309 233.818 30.4064C233.662 28.9707 233.74 27.5192 234.05 26.1087C234.26 25.3564 234.603 24.6373 234.774 23.8962C234.883 23.5181 234.908 23.1209 234.848 22.7322C234.788 22.3436 234.644 21.9726 234.426 21.6449C234.314 21.5124 234.19 21.3902 234.055 21.2799C233.418 20.7384 232.649 20.3762 231.825 20.2304C231.002 20.0846 230.155 20.1605 229.37 20.4502C226.837 21.3794 222.512 22.7788 221.367 21.9326C219.707 20.7102 219.32 19.9081 219.32 19.9081L218.441 20.865Z" fill="#263238"/>
<path d="M230.753 15.2326C229.511 14.8123 228.199 14.6414 226.891 14.7296C225.583 14.8179 224.305 15.1636 223.131 15.747C222.503 16.0467 221.941 16.4702 221.48 16.9919C221.019 17.5137 220.668 18.1231 220.448 18.7836C220.089 20.1222 220.681 21.765 221.975 22.2683L222.063 22.3236C223.994 22.9486 225.244 22.6721 227.158 21.9862C228.767 21.4054 230.194 20.3877 231.804 19.818C233.531 19.2076 235.402 19.1286 237.175 19.5912C235.454 17.5993 233.239 16.096 230.753 15.2326Z" fill="#263238"/>
<path d="M239.343 19.6933C239.304 19.7265 238.939 19.295 238.203 18.7861C237.779 18.4894 237.32 18.2443 236.837 18.056C236.256 17.8153 235.628 17.7094 235.001 17.7463C233.849 17.8712 232.757 18.3221 231.853 19.0461C231.151 19.5992 230.83 20.0639 230.786 20.0307C230.742 19.9975 230.836 19.8924 230.985 19.6822C231.197 19.3881 231.442 19.1191 231.715 18.8802C232.626 18.076 233.765 17.5753 234.973 17.4476C235.646 17.4058 236.319 17.5253 236.937 17.796C237.437 18.0029 237.906 18.2784 238.331 18.6147C238.74 18.8995 239.084 19.267 239.343 19.6933Z" fill="#455A64"/>
<path d="M225.581 14.8223C225.191 14.9925 224.792 15.1421 224.386 15.2703C222.483 16.0304 220.863 17.3643 219.751 19.0869C219.331 19.7451 219.126 20.1931 219.082 20.1931C219.167 19.766 219.332 19.3588 219.569 18.9928C220.609 17.1459 222.302 15.7535 224.314 15.0878C224.717 14.9217 225.146 14.8317 225.581 14.8223Z" fill="#455A64"/>
<path d="M238.951 47.5703L239.747 51.0052L221.234 62.5047L222.064 56.7743C223.748 55.0454 225.646 53.538 227.711 52.2885C231.268 50.2978 235.038 48.7151 238.951 47.5703Z" fill="#F5F5F5"/>
<path d="M240.438 51.9984C240.438 51.9984 246.135 64.0731 246.522 68.6585C246.91 73.2439 245.372 88.5046 245.372 88.5046L219.674 117.82L194.025 119.524C194.025 119.524 206.166 93.9916 208.882 89.0135C211.598 84.0354 220.73 61.4734 220.73 61.4734C221.441 59.606 222.538 57.9097 223.949 56.4953C227.429 52.806 234.177 50.5326 240.25 49.3047L240.438 51.9984Z" fill="#007BFF"/>
<path d="M230.654 57.1497C226.843 57.5977 221.948 60.4684 220.249 67.1668L218.59 75.4636L210.376 92.1348L183.467 99.8122L186.962 110.355C186.962 110.355 213.651 108.236 217.108 107.307C220.565 106.378 234.913 86.0283 234.913 86.0283C234.913 86.0283 242.103 73.6328 240.25 64.5007C239.332 59.943 235.355 56.5966 230.654 57.1497Z" fill="#007BFF"/>
<path d="M230.654 57.1516H231.295C231.923 57.1359 232.551 57.1822 233.17 57.2898C234.168 57.4896 235.123 57.8641 235.991 58.3961C237.166 59.1261 238.156 60.1181 238.884 61.2945C239.314 61.9866 239.656 62.7299 239.902 63.507C239.971 63.7119 240.028 63.9206 240.073 64.132C240.135 64.3458 240.179 64.564 240.206 64.7847C240.267 65.2327 240.328 65.6863 240.394 66.1509C240.526 68.1875 240.394 70.2325 240.001 72.2353C239.558 74.5246 238.912 76.7699 238.071 78.9447C237.157 81.3773 236.066 83.7399 234.808 86.0136C232.728 88.9396 230.466 92.0261 228.032 95.2176C225.525 98.5765 222.846 101.804 220.006 104.886C219.266 105.681 218.432 106.383 217.522 106.977C217.033 107.207 216.507 107.351 215.968 107.403C215.415 107.486 214.862 107.58 214.309 107.641C212.096 107.934 209.79 108.166 207.472 108.399C202.848 108.852 198.069 109.272 193.235 109.682L186.962 110.191L187.106 110.29C185.922 106.706 184.759 103.192 183.616 99.7477L183.516 99.9302L210.42 92.2363H210.476V92.1865L218.667 75.4987C219.036 73.6771 219.374 71.9495 219.68 70.3159C219.922 68.7738 220.273 67.2508 220.731 65.7582C221.519 63.3879 222.963 61.2896 224.896 59.707C226.124 58.7087 227.54 57.9675 229.061 57.5277C229.45 57.416 229.845 57.3255 230.244 57.2566L230.654 57.1792C230.654 57.1792 230.51 57.1792 230.239 57.229C229.836 57.2832 229.436 57.3645 229.044 57.4724C227.524 57.8944 226.105 58.6207 224.873 59.6074C222.912 61.1927 221.44 63.3027 220.631 65.6918C220.152 67.1878 219.782 68.7166 219.525 70.2661C219.197 71.896 218.852 73.6218 218.49 75.4434L210.254 92.1035L210.332 92.0427L183.417 99.7034L183.278 99.7422L183.323 99.8804C184.462 103.321 185.626 106.837 186.813 110.429L186.852 110.534H186.962L193.235 110.025C198.091 109.61 202.848 109.195 207.478 108.736C209.795 108.504 212.08 108.266 214.32 107.973C214.873 107.912 215.426 107.818 215.979 107.735C216.256 107.696 216.532 107.63 216.809 107.574C217.099 107.529 217.377 107.428 217.628 107.276C218.553 106.655 219.4 105.925 220.15 105.102C222.996 102.01 225.679 98.7719 228.187 95.4001C230.615 92.2031 232.872 89.1111 234.951 86.174C236.209 83.8872 237.298 81.5117 238.209 79.0664C239.076 76.8573 239.743 74.5748 240.201 72.2463C240.589 70.2299 240.713 68.1717 240.571 66.1232C240.505 65.6531 240.438 65.1884 240.378 64.7404C240.347 64.5176 240.299 64.2976 240.234 64.0822C240.187 63.8669 240.128 63.6545 240.057 63.4461C239.805 62.6544 239.454 61.8979 239.011 61.1949C238.269 60.0083 237.26 59.0119 236.063 58.2855C235.184 57.7487 234.215 57.374 233.204 57.1792C232.579 57.0735 231.944 57.0383 231.312 57.0741C230.869 57.1239 230.654 57.1516 230.654 57.1516Z" fill="#263238"/>
<path d="M215.022 98.5748C214.94 98.1866 214.798 97.8135 214.602 97.4685C214.188 96.6065 213.696 95.7844 213.131 95.0126C212.565 94.2411 211.93 93.5228 211.234 92.8665C210.963 92.5751 210.65 92.3269 210.304 92.1309C210.243 92.1972 211.599 93.3975 212.898 95.1841C214.198 96.9707 214.939 98.6135 215.022 98.5748Z" fill="#263238"/>
<path d="M219.735 63.6111C219.97 63.4006 220.189 63.1712 220.387 62.9252C220.586 62.6929 220.83 62.4163 221.134 62.1121C221.438 61.8079 221.765 61.4428 222.174 61.0778C223.091 60.2026 224.063 59.3861 225.083 58.633C226.339 57.718 227.655 56.8883 229.022 56.1494C231.532 54.8391 234.164 53.7775 236.881 52.98C237.921 52.6703 238.773 52.4269 239.359 52.2886C239.669 52.2247 239.973 52.134 240.267 52.0176C239.951 52.0478 239.639 52.1014 239.332 52.178C238.734 52.2941 237.877 52.4988 236.826 52.7809C234.076 53.5178 231.414 54.5527 228.889 55.8673C227.509 56.6098 226.185 57.4528 224.928 58.3896C223.906 59.1596 222.94 60.0006 222.036 60.9063C221.637 61.2769 221.317 61.6585 221.023 61.9738C220.73 62.2891 220.47 62.5823 220.304 62.8256C220.094 63.0719 219.903 63.3345 219.735 63.6111Z" fill="#263238"/>
<path d="M140.898 71.0758C141.015 71.041 141.137 71.0295 141.259 71.042C141.38 71.0546 141.498 71.0909 141.605 71.1489C141.712 71.207 141.807 71.2856 141.884 71.3803C141.961 71.475 142.019 71.5839 142.054 71.7009L151.413 102.997L182.764 107.864C183.25 107.94 183.685 108.206 183.976 108.603C184.266 109 184.387 109.496 184.312 109.983L149.969 104.628L140.284 72.2264C140.214 71.9924 140.24 71.7406 140.355 71.5253C140.47 71.31 140.665 71.1486 140.898 71.0758Z" fill="#E0E0E0"/>
<path d="M140.898 71.0731C140.682 71.1258 140.494 71.2582 140.372 71.4437C140.297 71.5573 140.247 71.6855 140.225 71.82C140.203 71.9544 140.21 72.092 140.245 72.2236L140.549 73.2801L142.568 80.1609L149.842 104.664V104.631V104.753H149.969L149.87 104.664L149.908 104.786L150.024 104.747H149.975L183.649 110.074L184.29 110.173H184.429V110.03C184.494 109.606 184.422 109.173 184.223 108.794C184.024 108.414 183.708 108.109 183.322 107.922C183.132 107.832 182.929 107.77 182.72 107.74L182.139 107.651L180.983 107.469L176.397 106.755L167.547 105.378L151.429 102.883L151.529 102.972C148.575 93.1649 146.119 85.0008 144.394 79.2759L142.375 72.6384C142.26 72.2697 142.155 71.9323 142.059 71.6262C142.012 71.5001 141.938 71.3855 141.842 71.2902C141.747 71.1948 141.632 71.1208 141.506 71.0731C141.305 70.9939 141.082 70.9939 140.881 71.0731C141.084 71.0274 141.297 71.0447 141.49 71.1229C141.604 71.1713 141.708 71.243 141.794 71.3334C141.879 71.4239 141.945 71.5311 141.987 71.6483C142.076 71.9433 142.176 72.2807 142.286 72.6605L144.239 79.298C145.937 85.0284 148.365 93.2036 151.274 103.022V103.093H151.352L167.525 105.649L176.375 107.032L180.961 107.745L182.117 107.928C182.495 107.96 182.867 108.044 183.223 108.177C183.553 108.337 183.823 108.598 183.995 108.922C184.166 109.247 184.229 109.617 184.174 109.98L184.34 109.864L183.699 109.764L149.991 104.543H149.964L150.118 104.626V104.548H150.041L150.146 104.692V104.642C147.104 94.5256 144.56 86.0849 142.778 80.1609C141.882 77.2128 141.174 74.8952 140.688 73.3022L140.367 72.2512C140.332 72.1272 140.323 71.9972 140.341 71.8696C140.36 71.742 140.404 71.6195 140.472 71.51C140.568 71.3259 140.716 71.1739 140.898 71.0731Z" fill="#263238"/>
<path d="M149.964 104.649C150.03 104.694 150.362 104.307 150.772 103.842C151.181 103.377 151.507 102.985 151.452 102.924C151.397 102.863 150.971 103.167 150.55 103.654C150.13 104.141 149.898 104.605 149.964 104.649Z" fill="#455A64"/>
<path d="M155.136 104.177C155.136 104.144 154.997 104.039 154.776 104.177C154.706 104.214 154.648 104.27 154.609 104.338C154.57 104.407 154.551 104.485 154.555 104.564C154.559 104.664 154.595 104.759 154.657 104.837C154.719 104.915 154.804 104.971 154.9 104.997C154.996 105.024 155.097 105.019 155.191 104.984C155.284 104.949 155.363 104.885 155.418 104.802C155.465 104.739 155.494 104.664 155.5 104.586C155.507 104.508 155.492 104.429 155.456 104.359C155.324 104.127 155.125 104.166 155.136 104.199C155.147 104.232 155.241 104.293 155.268 104.437C155.275 104.476 155.271 104.515 155.259 104.552C155.246 104.589 155.225 104.623 155.197 104.65C155.168 104.677 155.134 104.697 155.097 104.708C155.059 104.719 155.019 104.721 154.981 104.713C154.94 104.702 154.904 104.679 154.875 104.648C154.847 104.617 154.828 104.578 154.82 104.536C154.815 104.502 154.818 104.466 154.831 104.433C154.843 104.4 154.865 104.371 154.892 104.348C155.02 104.21 155.119 104.21 155.136 104.177Z" fill="#455A64"/>
<path d="M153.133 103.872C153.133 103.839 152.994 103.734 152.773 103.872C152.703 103.908 152.645 103.964 152.605 104.033C152.566 104.102 152.547 104.18 152.552 104.259C152.559 104.358 152.596 104.452 152.658 104.528C152.721 104.604 152.805 104.659 152.9 104.685C152.995 104.708 153.095 104.703 153.186 104.669C153.278 104.636 153.357 104.576 153.415 104.497C153.462 104.435 153.491 104.36 153.497 104.282C153.504 104.203 153.489 104.125 153.454 104.055C153.315 103.822 153.122 103.856 153.133 103.889C153.144 103.922 153.238 103.988 153.266 104.127C153.273 104.163 153.271 104.201 153.261 104.237C153.25 104.272 153.231 104.305 153.205 104.331C153.177 104.363 153.141 104.386 153.101 104.4C153.062 104.413 153.019 104.417 152.978 104.409C152.938 104.396 152.902 104.373 152.874 104.342C152.846 104.311 152.826 104.273 152.817 104.232C152.811 104.196 152.814 104.159 152.826 104.125C152.839 104.091 152.861 104.061 152.889 104.038C153.006 103.911 153.116 103.911 153.133 103.872Z" fill="#455A64"/>
<path d="M230.483 145.085L243.21 186.896L238.569 186.94L221.373 144.648L230.483 145.085Z" fill="#263238"/>
<path d="M175.75 139.391C175.783 139.391 161.369 186.827 161.369 186.827L156.767 186.893L165.639 138.439L175.75 139.391Z" fill="#263238"/>
<path d="M250.372 78.6638C251.067 78.0228 251.931 77.5958 252.863 77.4339C253.794 77.272 254.752 77.3822 255.622 77.7512C259.189 79.2723 264.411 82.3919 263.238 87.3202C261.772 93.482 244.902 133.672 239.459 146.582C238.962 147.759 238.127 148.762 237.06 149.464C235.993 150.166 234.741 150.536 233.463 150.526L162.763 149.928C162.024 149.921 161.295 149.758 160.623 149.448C159.952 149.138 159.354 148.69 158.869 148.132C158.384 147.574 158.023 146.92 157.809 146.212C157.596 145.505 157.535 144.76 157.63 144.027L160.274 123.948C160.699 120.722 162.21 117.738 164.559 115.486C166.908 113.235 169.954 111.852 173.195 111.564L218.916 107.504L250.372 78.6638Z" fill="#455A64"/>
<path d="M241.771 140.338C241.79 140.29 241.803 140.24 241.81 140.189C241.81 140.078 241.859 139.94 241.898 139.763C241.976 139.365 242.081 138.812 242.213 138.104C242.473 136.644 242.85 134.575 243.32 132.019C243.79 129.464 244.315 126.383 244.913 122.987C245.206 121.289 245.521 119.502 245.842 117.655C246.002 116.726 246.168 115.785 246.334 114.828C246.557 113.849 246.583 112.836 246.412 111.847C246.291 111.344 246.058 110.876 245.731 110.475C245.394 110.082 244.982 109.759 244.52 109.524C243.649 109.108 242.714 108.84 241.754 108.733C239.874 108.523 238.071 108.418 236.345 108.29C232.899 108.053 229.796 107.898 227.185 107.793C224.574 107.687 222.461 107.643 221.001 107.621H219.342H218.905H218.755C218.805 107.627 218.855 107.627 218.905 107.621H219.342L221.001 107.687L227.174 107.953C229.785 108.08 232.888 108.257 236.328 108.506C238.043 108.639 239.863 108.755 241.716 108.965C242.651 109.064 243.562 109.322 244.409 109.728C244.836 109.935 245.211 110.232 245.511 110.599C245.81 110.965 246.025 111.394 246.141 111.852C246.304 112.805 246.276 113.781 246.058 114.723C245.895 115.682 245.735 116.622 245.576 117.544C245.256 119.388 244.951 121.167 244.664 122.882C244.111 126.284 243.558 129.342 243.132 131.925C242.706 134.508 242.363 136.561 242.125 138.01C242.014 138.712 241.926 139.271 241.865 139.669C241.865 139.846 241.821 139.99 241.804 140.106C241.778 140.181 241.767 140.26 241.771 140.338Z" fill="#263238"/>
<path d="M160.838 138.437C160.838 138.514 179.091 138.581 201.62 138.581C224.149 138.581 242.413 138.514 242.413 138.437C242.413 138.359 224.16 138.293 201.626 138.293C179.091 138.293 160.838 138.359 160.838 138.437Z" fill="#263238"/>
<path d="M233.646 108.141C233.706 108.197 239.287 101.775 246.113 93.8044C252.939 85.8338 258.426 79.3291 258.365 79.2738C258.304 79.2185 252.723 85.6403 245.897 93.6163C239.072 101.592 233.563 108.092 233.646 108.141Z" fill="#263238"/>
<path d="M5.18045 63.3184H37.2343C39.5071 63.3184 41.3496 65.1609 41.3496 67.4337V122.119C41.3496 124.392 39.5071 126.235 37.2343 126.235H5.18045C2.9076 126.235 1.06511 124.392 1.06511 122.119V67.4337C1.06511 65.1609 2.9076 63.3184 5.18045 63.3184Z" fill="white"/>
<path d="M5.18069 126.234H5.04889C4.9659 126.234 4.83409 126.234 4.66811 126.2C4.17091 126.131 3.68995 125.974 3.24751 125.736C2.53175 125.34 1.94789 124.743 1.56817 124.018C1.3312 123.562 1.18215 123.065 1.12881 122.553C1.08976 122.002 1.12881 121.401 1.12881 120.772C1.12881 115.724 1.15322 108.426 1.17275 99.4138C1.19228 90.4021 1.17274 79.6572 1.19715 67.7359C1.15263 66.9988 1.31115 66.2636 1.65545 65.6103C1.99974 64.9569 2.51663 64.4106 3.14986 64.0306C4.43866 63.2007 6.07895 63.5425 7.61182 63.4644H37.2345C38.0688 63.466 38.8816 63.7286 39.5592 64.2153C40.2368 64.7021 40.7451 65.3885 41.013 66.1786C41.2187 66.9881 41.2896 67.826 41.2229 68.6586V71.1776C41.2229 74.5297 41.2229 77.8298 41.2229 81.0778C41.2229 87.5657 41.2229 93.8242 41.2229 99.7848C41.2229 105.746 41.2229 111.413 41.2229 116.715V120.62C41.2229 121.255 41.2473 121.904 41.2229 122.51C41.1376 123.405 40.7546 124.246 40.1351 124.898C39.5157 125.55 38.6955 125.976 37.8057 126.107C37.2295 126.158 36.6508 126.174 36.0726 126.156H34.3591L13.0013 126.2L7.19687 126.225H5.68351H5.17093C5.17093 126.225 5.34667 126.225 5.68351 126.225H7.19687L13.0013 126.249L34.3591 126.288H36.058C36.6443 126.303 37.2309 126.287 37.8154 126.239C38.7496 126.106 39.6118 125.662 40.2634 124.979C40.915 124.297 41.3183 123.415 41.4084 122.475C41.4475 121.831 41.4084 121.211 41.4084 120.567C41.4084 119.288 41.4084 117.984 41.4084 116.661C41.4084 111.36 41.4084 105.697 41.4084 99.7311C41.4084 93.7656 41.4084 87.5267 41.4084 81.0241V67.3551C41.4 66.9166 41.3243 66.4819 41.1839 66.0663C40.9032 65.2271 40.3651 64.4977 39.6461 63.9818C38.9239 63.4608 38.0567 63.1791 37.1661 63.1763H5.20509C4.41524 63.1637 3.63739 63.3706 2.95819 63.774C2.27899 64.1774 1.72512 64.7614 1.35826 65.461C1.1821 65.8057 1.05084 66.1716 0.967705 66.5496C0.899837 66.9265 0.870399 67.3092 0.879837 67.692C0.879837 79.6133 0.879837 90.3484 0.909126 99.3699C0.938419 108.391 0.938412 115.68 0.948174 120.728C0.948174 121.357 0.948189 121.948 0.977478 122.514C1.02842 123.042 1.18268 123.555 1.43148 124.023C1.82476 124.754 2.42397 125.353 3.15475 125.746C3.60991 125.987 4.10713 126.138 4.61929 126.19C4.80502 126.219 4.99271 126.234 5.18069 126.234Z" fill="#263238"/>
<path d="M35.9212 69.9468C35.239 69.9468 34.6861 69.3938 34.6861 68.7117C34.6861 68.0295 35.239 67.4766 35.9212 67.4766C36.6033 67.4766 37.1562 68.0295 37.1562 68.7117C37.1562 69.3938 36.6033 69.9468 35.9212 69.9468Z" fill="#E0E0E0"/>
<path d="M31.4986 68.7117C31.4986 68.9559 31.571 69.1947 31.7067 69.3978C31.8424 69.6009 32.0353 69.7593 32.261 69.8527C32.4867 69.9462 32.735 69.9707 32.9746 69.923C33.2142 69.8754 33.4343 69.7577 33.607 69.585C33.7797 69.4123 33.8974 69.1922 33.945 68.9526C33.9927 68.713 33.9682 68.4647 33.8747 68.239C33.7812 68.0133 33.6229 67.8204 33.4198 67.6847C33.2167 67.549 32.9779 67.4766 32.7337 67.4766C32.4061 67.4766 32.0919 67.6067 31.8603 67.8383C31.6287 68.0699 31.4986 68.3841 31.4986 68.7117Z" fill="#E0E0E0"/>
<path d="M29.5462 69.9468C28.864 69.9468 28.3111 69.3938 28.3111 68.7117C28.3111 68.0295 28.864 67.4766 29.5462 67.4766C30.2283 67.4766 30.7812 68.0295 30.7812 68.7117C30.7812 69.3938 30.2283 69.9468 29.5462 69.9468Z" fill="#E0E0E0"/>
<path d="M6.95815 75.1953C6.95815 75.2636 13.3386 75.3222 21.2081 75.3222C29.0775 75.3222 35.4629 75.2636 35.4629 75.1953C35.4629 75.1269 29.0824 75.0684 21.2081 75.0684C13.3337 75.0684 6.95815 75.1221 6.95815 75.1953Z" fill="#263238"/>
<path d="M6.95815 77.7051C6.95815 77.7734 13.3386 77.832 21.2081 77.832C29.0775 77.832 35.4629 77.7734 35.4629 77.7051C35.4629 77.6367 29.0824 77.5781 21.2081 77.5781C13.3337 77.5781 6.95815 77.6318 6.95815 77.7051Z" fill="#263238"/>
<path d="M6.95815 80.2148C6.95815 80.2832 13.3386 80.3417 21.2081 80.3417C29.0775 80.3417 35.4629 80.2832 35.4629 80.2148C35.4629 80.1465 29.0824 80.0879 21.2081 80.0879C13.3337 80.0879 6.95815 80.1416 6.95815 80.2148Z" fill="#263238"/>
<path d="M6.95815 82.7217C6.95815 82.79 13.3386 82.8486 21.2081 82.8486C29.0775 82.8486 35.4629 82.79 35.4629 82.7217C35.4629 82.6533 29.0824 82.5898 21.2081 82.5898C13.3337 82.5898 6.95815 82.6484 6.95815 82.7217Z" fill="#263238"/>
<path d="M6.95815 85.2265C6.95815 85.2998 13.3386 85.3535 21.2081 85.3535C29.0775 85.3535 35.4629 85.2998 35.4629 85.2265C35.4629 85.1533 29.0824 85.0996 21.2081 85.0996C13.3337 85.0996 6.95815 85.1582 6.95815 85.2265Z" fill="#263238"/>
<path d="M6.95815 87.7168C6.95815 87.79 13.3386 87.8437 21.2081 87.8437C29.0775 87.8437 35.4629 87.79 35.4629 87.7168C35.4629 87.6435 29.0824 87.5898 21.2081 87.5898C13.3337 87.5898 6.95815 87.6679 6.95815 87.7168Z" fill="#263238"/>
<path d="M6.95815 106.936C6.95815 107.004 13.3386 107.062 21.2081 107.062C29.0775 107.062 35.4629 107.004 35.4629 106.936C35.4629 106.867 29.0824 106.809 21.2081 106.809C13.3337 106.809 6.95815 106.862 6.95815 106.936Z" fill="#263238"/>
<path d="M6.95815 109.684C6.95815 109.752 13.3386 109.81 21.2081 109.81C29.0775 109.81 35.4629 109.752 35.4629 109.684C35.4629 109.615 29.0824 109.557 21.2081 109.557C13.3337 109.557 6.95815 109.596 6.95815 109.684Z" fill="#263238"/>
<path d="M6.95815 112.398C6.95815 112.467 13.3386 112.525 21.2081 112.525C29.0775 112.525 35.4629 112.467 35.4629 112.398C35.4629 112.33 29.0824 112.271 21.2081 112.271C13.3337 112.271 6.95815 112.325 6.95815 112.398Z" fill="#263238"/>
<path d="M6.95815 115.129C6.95815 115.197 13.3386 115.256 21.2081 115.256C29.0775 115.256 35.4629 115.197 35.4629 115.129C35.4629 115.061 29.0824 115.002 21.2081 115.002C13.3337 115.002 6.95815 115.056 6.95815 115.129Z" fill="#263238"/>
<path d="M6.95815 117.857C6.95815 117.931 13.3386 117.989 21.2081 117.989C29.0775 117.989 35.4629 117.931 35.4629 117.857C35.4629 117.784 29.0824 117.73 21.2081 117.73C13.3337 117.73 6.95815 117.789 6.95815 117.857Z" fill="#263238"/>
<path d="M6.2161 91.3691H8.43732H14.5688H35.4043L35.3555 91.3349C35.3555 92.9703 35.3555 94.6692 35.3555 96.4071C35.3555 98.145 35.3555 99.9464 35.3555 101.636L35.4043 101.596H14.7153H8.63259H14.7153H35.4043H35.4531V101.562C35.4531 99.8732 35.4531 98.145 35.4531 96.3339C35.4531 94.5227 35.4531 92.9166 35.4531 91.2617V91.2227H35.4043H14.5688H8.43732H6.2161V91.3691Z" fill="#E0E0E0"/>
<path d="M6.21609 93.0879C6.21609 93.0879 12.7528 93.1269 20.8126 93.1269C28.8725 93.1269 35.4043 93.1269 35.4043 93.0879C35.4043 93.0488 28.8725 93.0488 20.8126 93.0488C12.7528 93.0488 6.21609 93.0879 6.21609 93.0879Z" fill="#E0E0E0"/>
<path d="M6.21609 94.5215C6.21609 94.5215 12.7528 94.5556 20.8126 94.5556C28.8725 94.5556 35.4043 94.5556 35.4043 94.5215C35.4043 94.4873 28.8725 94.4824 20.8126 94.4824C12.7528 94.4824 6.21609 94.4971 6.21609 94.5215Z" fill="#E0E0E0"/>
<path d="M6.21609 95.9367C6.21609 95.9367 12.7528 95.9758 20.8126 95.9758C28.8725 95.9758 35.4043 95.9758 35.4043 95.9367C35.4043 95.8977 28.8725 95.9025 20.8126 95.9025C12.7528 95.9025 6.21609 95.9172 6.21609 95.9367Z" fill="#E0E0E0"/>
<path d="M6.21609 97.3574C6.21609 97.3574 12.7528 97.3916 20.8126 97.3916C28.8725 97.3916 35.4043 97.3916 35.4043 97.3574C35.4043 97.3232 28.8725 97.3184 20.8126 97.3184C12.7528 97.3184 6.21609 97.3379 6.21609 97.3574Z" fill="#E0E0E0"/>
<path d="M6.21609 98.7726C6.21609 98.7726 12.7528 98.8117 20.8126 98.8117C28.8725 98.8117 35.4043 98.8117 35.4043 98.7726C35.4043 98.7336 28.8725 98.7385 20.8126 98.7385C12.7528 98.7385 6.21609 98.7531 6.21609 98.7726Z" fill="#E0E0E0"/>
<path d="M35.4043 100.195C35.4043 100.195 28.8725 100.156 20.8126 100.156C12.7528 100.156 6.21609 100.156 6.21609 100.195C6.21609 100.234 12.7528 100.234 20.8126 100.234C28.8725 100.234 35.4043 100.215 35.4043 100.195Z" fill="#E0E0E0"/>
<path d="M31.2686 101.826C31.2686 101.826 31.3027 99.4827 31.3027 96.5975C31.3027 93.7124 31.3027 91.3691 31.2686 91.3691C31.2344 91.3691 31.2295 93.7075 31.2295 96.5975C31.2295 99.4876 31.2441 101.826 31.2686 101.826Z" fill="#E0E0E0"/>
<path d="M27.0654 101.826C27.0654 101.826 27.0996 99.4827 27.0996 96.5975C27.0996 93.7124 27.0996 91.3691 27.0654 91.3691C27.0313 91.3691 27.0264 93.7075 27.0264 96.5975C27.0264 99.4876 27.041 101.826 27.0654 101.826Z" fill="#E0E0E0"/>
<path d="M22.877 101.826C22.9014 101.826 22.916 99.4827 22.916 96.5975C22.916 93.7124 22.916 91.3691 22.877 91.3691C22.8379 91.3691 22.8428 93.7075 22.8428 96.5975C22.8428 99.4876 22.8379 101.826 22.877 101.826Z" fill="#E0E0E0"/>
<path d="M18.6543 101.826C18.6543 101.826 18.6934 99.4827 18.6934 96.5975C18.6934 93.7124 18.6934 91.3691 18.6543 91.3691C18.6153 91.3691 18.6201 93.7075 18.6201 96.5975C18.6201 99.4876 18.6348 101.826 18.6543 101.826Z" fill="#E0E0E0"/>
<path d="M14.4512 101.826C14.4756 101.826 14.4902 99.4827 14.4902 96.5975C14.4902 93.7124 14.4902 91.3691 14.4512 91.3691C14.4121 91.3691 14.417 93.7075 14.417 96.5975C14.417 99.4876 14.4316 101.826 14.4512 101.826Z" fill="#E0E0E0"/>
<path d="M10.3848 101.826C10.3848 101.826 10.4238 99.4827 10.4238 96.5975C10.4238 93.7124 10.4238 91.3691 10.3848 91.3691C10.3457 91.3691 10.3457 93.7075 10.3457 96.5975C10.3457 99.4876 10.3653 101.826 10.3848 101.826Z" fill="#E0E0E0"/>
<path d="M6.18164 101.826C6.18164 101.826 6.21582 99.4827 6.21582 96.5975C6.21582 93.7124 6.21582 91.3691 6.18164 91.3691C6.14747 91.3691 6.1426 93.7075 6.1426 96.5975C6.1426 99.4876 6.16212 101.826 6.18164 101.826Z" fill="#E0E0E0"/>
<path d="M31.0105 100.193C31.0105 100.227 31.0172 100.26 31.0303 100.292C31.0433 100.323 31.0624 100.351 31.0865 100.375C31.1106 100.398 31.1392 100.417 31.1706 100.429C31.2019 100.442 31.2355 100.448 31.2692 100.447C31.307 100.458 31.3468 100.46 31.3854 100.453C31.424 100.445 31.4604 100.429 31.4918 100.406C31.5232 100.382 31.5486 100.351 31.5661 100.316C31.5837 100.281 31.5928 100.242 31.5928 100.203C31.5928 100.164 31.5837 100.125 31.5661 100.09C31.5486 100.055 31.5232 100.024 31.4918 100C31.4604 99.9768 31.424 99.9607 31.3854 99.9535C31.3468 99.9463 31.307 99.9482 31.2692 99.959C31.2043 99.9575 31.1413 99.981 31.0932 100.025C31.045 100.068 31.0154 100.129 31.0105 100.193Z" fill="#007BFF"/>
<path d="M27.0655 97.6112C26.9253 97.6112 26.8116 97.4976 26.8116 97.3574C26.8116 97.2172 26.9253 97.1035 27.0655 97.1035C27.2057 97.1035 27.3193 97.2172 27.3193 97.3574C27.3193 97.4976 27.2057 97.6112 27.0655 97.6112Z" fill="#007BFF"/>
<path d="M22.6041 98.7506C22.5991 98.7873 22.6019 98.8245 22.6124 98.86C22.623 98.8954 22.641 98.9282 22.6653 98.956C22.6896 98.9839 22.7196 99.0063 22.7532 99.0216C22.7869 99.0369 22.8234 99.0448 22.8604 99.0448C22.8974 99.0448 22.9339 99.0369 22.9676 99.0216C23.0012 99.0063 23.0312 98.9839 23.0555 98.956C23.0798 98.9282 23.0978 98.8954 23.1084 98.86C23.1189 98.8245 23.1218 98.7873 23.1167 98.7506C23.1081 98.6887 23.0775 98.632 23.0304 98.591C22.9833 98.55 22.9229 98.5273 22.8604 98.5273C22.7979 98.5273 22.7376 98.55 22.6905 98.591C22.6433 98.632 22.6127 98.6887 22.6041 98.7506Z" fill="#007BFF"/>
<path d="M18.4252 95.7634C18.3753 95.8132 18.3473 95.8809 18.3473 95.9514C18.3473 96.0218 18.3753 96.0894 18.4252 96.1393C18.475 96.1891 18.5426 96.2171 18.6131 96.2171C18.6836 96.2171 18.7512 96.1891 18.801 96.1393C18.8509 96.0894 18.8789 96.0218 18.8789 95.9514C18.8789 95.8809 18.8509 95.8132 18.801 95.7634C18.7512 95.7135 18.6836 95.6855 18.6131 95.6855C18.5426 95.6855 18.475 95.7135 18.4252 95.7634Z" fill="#007BFF"/>
<path d="M14.1732 95.7634C14.1234 95.8132 14.0953 95.8809 14.0953 95.9514C14.0953 96.0218 14.1234 96.0894 14.1732 96.1393C14.2231 96.1891 14.2906 96.2171 14.3611 96.2171C14.4316 96.2171 14.4992 96.1891 14.5491 96.1393C14.5989 96.0894 14.627 96.0218 14.627 95.9514C14.627 95.8809 14.5989 95.8132 14.5491 95.7634C14.4992 95.7135 14.4316 95.6855 14.3611 95.6855C14.2906 95.6855 14.2231 95.7135 14.1732 95.7634Z" fill="#007BFF"/>
<path d="M10.1842 98.5488C10.1344 98.598 10.1061 98.665 10.1056 98.735C10.1052 98.805 10.1326 98.8724 10.1818 98.9222C10.231 98.9721 10.298 99.0004 10.368 99.0008C10.438 99.0013 10.5054 98.9739 10.5552 98.9247C10.6051 98.8755 10.6333 98.8085 10.6338 98.7385C10.6342 98.6684 10.6069 98.6011 10.5577 98.5512C10.5085 98.5014 10.4415 98.4731 10.3714 98.4727C10.3014 98.4722 10.2341 98.4996 10.1842 98.5488Z" fill="#007BFF"/>
<path d="M26.7828 94.5227C26.7914 94.5846 26.8221 94.6413 26.8692 94.6823C26.9163 94.7234 26.9766 94.746 27.0391 94.746C27.1016 94.746 27.162 94.7234 27.2091 94.6823C27.2562 94.6413 27.2868 94.5846 27.2954 94.5227C27.3005 94.4861 27.2976 94.4488 27.2871 94.4134C27.2765 94.3779 27.2585 94.3452 27.2342 94.3173C27.2099 94.2894 27.1799 94.2671 27.1463 94.2518C27.1126 94.2364 27.0761 94.2285 27.0391 94.2285C27.0021 94.2285 26.9656 94.2364 26.932 94.2518C26.8983 94.2671 26.8683 94.2894 26.844 94.3173C26.8197 94.3452 26.8017 94.3779 26.7912 94.4134C26.7806 94.4488 26.7778 94.4861 26.7828 94.5227Z" fill="#455A64"/>
<path d="M31.0098 98.7754C31.0098 98.844 31.0371 98.9098 31.0856 98.9583C31.1341 99.0069 31.1999 99.0341 31.2686 99.0341C31.3023 99.0341 31.3357 99.0274 31.3668 99.0143C31.398 99.0013 31.4262 98.9821 31.4498 98.958C31.4735 98.934 31.4921 98.9054 31.5045 98.874C31.517 98.8427 31.5231 98.8091 31.5224 98.7754C31.5224 98.742 31.5158 98.709 31.5031 98.6782C31.4903 98.6474 31.4716 98.6195 31.4481 98.5959C31.4245 98.5723 31.3965 98.5536 31.3657 98.5409C31.3349 98.5281 31.3019 98.5215 31.2686 98.5215C31.2348 98.5209 31.2013 98.527 31.1699 98.5394C31.1386 98.5519 31.11 98.5705 31.0859 98.5941C31.0618 98.6178 31.0427 98.646 31.0296 98.6771C31.0166 98.7082 31.0098 98.7416 31.0098 98.7754Z" fill="#455A64"/>
<path d="M10.1847 100.01C10.1355 100.06 10.1081 100.127 10.1086 100.197C10.109 100.267 10.1373 100.334 10.1871 100.384C10.237 100.433 10.3043 100.46 10.3744 100.46C10.4444 100.459 10.5114 100.431 10.5606 100.381C10.6098 100.331 10.6372 100.264 10.6367 100.194C10.6363 100.124 10.608 100.057 10.5582 100.008C10.5083 99.9586 10.441 99.9312 10.3709 99.9316C10.3009 99.9321 10.2339 99.9604 10.1847 100.01Z" fill="#455A64"/>
<path d="M14.1974 97.3603C14.1974 97.4276 14.2241 97.4922 14.2717 97.5398C14.3193 97.5874 14.3839 97.6142 14.4512 97.6142C14.485 97.6148 14.5185 97.6087 14.5499 97.5962C14.5812 97.5838 14.6098 97.5652 14.6339 97.5415C14.658 97.5179 14.6771 97.4897 14.6902 97.4586C14.7033 97.4275 14.71 97.394 14.71 97.3603C14.71 97.2917 14.6827 97.2259 14.6342 97.1773C14.5857 97.1288 14.5198 97.1016 14.4512 97.1016C14.4175 97.1016 14.3841 97.1083 14.3529 97.1213C14.3218 97.1344 14.2936 97.1535 14.27 97.1776C14.2463 97.2017 14.2278 97.2303 14.2153 97.2616C14.2028 97.293 14.1967 97.3266 14.1974 97.3603Z" fill="#455A64"/>
<path d="M18.3565 97.3184C18.3565 97.387 18.3838 97.4528 18.4323 97.5013C18.4808 97.5498 18.5466 97.5771 18.6152 97.5771C18.649 97.5771 18.6824 97.5704 18.7135 97.5573C18.7446 97.5443 18.7728 97.5251 18.7965 97.501C18.8201 97.4769 18.8387 97.4484 18.8512 97.417C18.8637 97.3856 18.8697 97.3521 18.8691 97.3184C18.8691 97.251 18.8423 97.1865 18.7947 97.1389C18.7471 97.0912 18.6826 97.0645 18.6152 97.0645C18.5815 97.0639 18.548 97.0699 18.5166 97.0824C18.4852 97.0949 18.4567 97.1135 18.4326 97.1371C18.4085 97.1607 18.3893 97.189 18.3763 97.2201C18.3632 97.2512 18.3565 97.2846 18.3565 97.3184Z" fill="#455A64"/>
<path d="M33.0217 102.852C33.2893 102.904 33.5644 102.904 33.832 102.852C33.5644 102.799 33.2893 102.799 33.0217 102.852Z" fill="#E0E0E0"/>
<path d="M28.7355 102.852C29.0031 102.904 29.2783 102.904 29.5459 102.852C29.2783 102.799 29.0031 102.799 28.7355 102.852Z" fill="#E0E0E0"/>
<path d="M24.4299 102.852C24.6975 102.904 24.9726 102.904 25.2402 102.852C24.9726 102.799 24.6975 102.799 24.4299 102.852Z" fill="#E0E0E0"/>
<path d="M20.134 102.852C20.4016 102.904 20.6767 102.904 20.9443 102.852C20.6767 102.799 20.4016 102.799 20.134 102.852Z" fill="#E0E0E0"/>
<path d="M15.8381 102.852C16.1057 102.904 16.3808 102.904 16.6484 102.852C16.3808 102.799 16.1057 102.799 15.8381 102.852Z" fill="#E0E0E0"/>
<path d="M11.9953 102.852C12.2629 102.904 12.538 102.904 12.8057 102.852C12.538 102.799 12.2629 102.799 11.9953 102.852Z" fill="#E0E0E0"/>
<path d="M8.15349 102.852C8.42111 102.904 8.69625 102.904 8.96387 102.852C8.69625 102.799 8.42111 102.799 8.15349 102.852Z" fill="#E0E0E0"/>
<path d="M36.0089 101.611C36.2246 101.657 36.4474 101.657 36.6631 101.611C36.4481 101.559 36.2239 101.559 36.0089 101.611Z" fill="#E0E0E0"/>
<path d="M36.0089 99.9609C36.2246 100.006 36.4474 100.006 36.6631 99.9609C36.4481 99.9089 36.2239 99.9089 36.0089 99.9609Z" fill="#E0E0E0"/>
<path d="M36.0089 98.3124C36.2246 98.358 36.4474 98.358 36.6631 98.3124C36.4481 98.2604 36.2239 98.2604 36.0089 98.3124Z" fill="#E0E0E0"/>
<path d="M36.0089 96.6581C36.2246 96.7037 36.4474 96.7037 36.6631 96.6581C36.4481 96.6061 36.2239 96.6061 36.0089 96.6581Z" fill="#E0E0E0"/>
<path d="M36.0089 95.0097C36.2246 95.0553 36.4474 95.0553 36.6631 95.0097C36.4481 94.9577 36.2239 94.9577 36.0089 95.0097Z" fill="#E0E0E0"/>
<path d="M36.0089 93.3593C36.2246 93.4049 36.4474 93.4049 36.6631 93.3593C36.4481 93.3073 36.2239 93.3073 36.0089 93.3593Z" fill="#E0E0E0"/>
<path d="M36.0089 91.7109C36.2246 91.7565 36.4474 91.7565 36.6631 91.7109C36.4481 91.6589 36.2239 91.6589 36.0089 91.7109Z" fill="#E0E0E0"/>
<path d="M35.4336 101.732L35.4775 101.6L31.2987 100.131L27.076 97.28L22.8728 98.6713L18.6354 95.8789L14.3931 95.8691L14.3736 95.8789L10.3461 98.7299L6.44067 96.1474L6.36257 96.2646L10.3461 98.9007L10.39 98.8714L14.437 96.0107L18.5914 96.0205L22.8484 98.8275L27.0516 97.4362L31.245 100.263L35.4336 101.732Z" fill="#007BFF"/>
<path d="M10.3217 100.225L14.437 97.4278H18.6793L22.9216 94.6305L27.0369 94.5915L31.2401 98.8484H35.4043V98.7068H31.2987L27.0906 94.4499L22.8776 94.4889L18.6354 97.2862H14.3931L10.3705 100.025L6.35278 92.9609L6.23073 93.0293L10.3217 100.225Z" fill="#455A64"/>
</svg>
