<svg width="28" height="17" viewBox="0 0 28 17" fill="none" xmlns="http://www.w3.org/2000/svg">
<path d="M24.9172 0.5H9.4697C9.11945 0.49993 8.77262 0.568892 8.44903 0.702945C8.12545 0.836997 7.83146 1.03351 7.58387 1.28125L1.30762 7.55708C0.786784 8.07792 0.786784 8.92208 1.30762 9.4425L7.58387 15.7188C8.08387 16.2188 8.7622 16.5 9.46928 16.5H24.9172C26.3901 16.5 27.5839 15.3063 27.5839 13.8333V3.16667C27.5839 1.69375 26.3901 0.5 24.9172 0.5ZM21.3885 11.0858C21.6489 11.3463 21.6489 11.7683 21.3885 12.0288L20.446 12.9713C20.1855 13.2317 19.7635 13.2317 19.503 12.9713L16.9172 10.3854L14.3314 12.9713C14.071 13.2317 13.6489 13.2317 13.3885 12.9713L12.446 12.0288C12.1855 11.7683 12.1855 11.3463 12.446 11.0858L15.0318 8.5L12.446 5.91417C12.1855 5.65375 12.1855 5.23167 12.446 4.97125L13.3885 4.02875C13.6489 3.76833 14.071 3.76833 14.3314 4.02875L16.9172 6.61458L19.503 4.02875C19.7635 3.76833 20.1855 3.76833 20.446 4.02875L21.3885 4.97125C21.6489 5.23167 21.6489 5.65375 21.3885 5.91417L18.8026 8.5L21.3885 11.0858Z" fill="#FB5B5B"/>
</svg>
