<svg width="26" height="21" viewBox="0 0 26 21" fill="none" xmlns="http://www.w3.org/2000/svg">
<g clip-path="url(#clip0_6359_14882)">
<path d="M23 18.8571V3.14286C23 1.95982 22.0402 1 20.8571 1H5.14286C3.95982 1 3 1.95982 3 3.14286V18.8571C3 20.0402 3.95982 21 5.14286 21H20.8571C22.0402 21 23 20.0402 23 18.8571ZM8 8.14286C7.60536 8.14286 7.28571 7.82321 7.28571 7.42857V6C7.28571 5.60536 7.60536 5.28571 8 5.28571H13.7143C14.1089 5.28571 14.4286 5.60536 14.4286 6V7.42857C14.4286 7.82321 14.1089 8.14286 13.7143 8.14286H8ZM8 12.4286C7.60536 12.4286 7.28571 12.1089 7.28571 11.7143V10.2857C7.28571 9.89107 7.60536 9.57143 8 9.57143H18C18.3946 9.57143 18.7143 9.89107 18.7143 10.2857V11.7143C18.7143 12.1089 18.3946 12.4286 18 12.4286H8ZM8 16.7143C7.60536 16.7143 7.28571 16.3946 7.28571 16V14.5714C7.28571 14.1768 7.60536 13.8571 8 13.8571H10.8571C11.2518 13.8571 11.5714 14.1768 11.5714 14.5714V16C11.5714 16.3946 11.2518 16.7143 10.8571 16.7143H8Z" fill="white"/>
</g>
<defs>
<clipPath id="clip0_6359_14882">
<rect width="25" height="20" fill="white" transform="translate(0.5 0.5)"/>
</clipPath>
</defs>
</svg>
