<svg width="402" height="69" viewBox="0 0 402 69" fill="none" xmlns="http://www.w3.org/2000/svg">
<g clip-path="url(#clip0_6405_14871)">
<path d="M60 48.5156V3.23438C60 1.44199 58.567 0 56.7857 0H12.8571C5.75893 0 0 5.79492 0 12.9375V56.0625C0 63.2051 5.75893 69 12.8571 69H56.7857C58.567 69 60 67.558 60 65.7656V63.6094C60 62.5986 59.5312 61.6822 58.808 61.0893C58.2455 59.0139 58.2455 53.0977 58.808 51.0223C59.5312 50.4428 60 49.5264 60 48.5156ZM17.1429 18.0586C17.1429 17.6139 17.5045 17.25 17.9464 17.25H46.3393C46.7812 17.25 47.1429 17.6139 47.1429 18.0586V20.7539C47.1429 21.1986 46.7812 21.5625 46.3393 21.5625H17.9464C17.5045 21.5625 17.1429 21.1986 17.1429 20.7539V18.0586ZM17.1429 26.6836C17.1429 26.2389 17.5045 25.875 17.9464 25.875H46.3393C46.7812 25.875 47.1429 26.2389 47.1429 26.6836V29.3789C47.1429 29.8236 46.7812 30.1875 46.3393 30.1875H17.9464C17.5045 30.1875 17.1429 29.8236 17.1429 29.3789V26.6836ZM51.0804 60.375H12.8571C10.4866 60.375 8.57143 58.4479 8.57143 56.0625C8.57143 53.6906 10.5 51.75 12.8571 51.75H51.0804C50.8259 54.0545 50.8259 58.0705 51.0804 60.375Z" fill="#CCCCCC"/>
</g>
<path d="M99.152 12.444V31.092L86.804 12.444H82.7V37.5H86.804V18.816L99.152 37.5H103.256V12.444H99.152ZM127.545 27.564C127.545 21.336 123.081 17.34 117.429 17.34C111.777 17.34 107.313 21.336 107.313 27.564C107.313 33.792 111.597 37.824 117.249 37.824C122.937 37.824 127.545 33.792 127.545 27.564ZM111.489 27.564C111.489 23.064 114.261 20.904 117.357 20.904C120.417 20.904 123.333 23.064 123.333 27.564C123.333 32.064 120.309 34.26 117.249 34.26C114.153 34.26 111.489 32.064 111.489 27.564ZM143.798 24.936C143.798 19.284 147.398 15.756 152.366 15.756C157.334 15.756 160.934 19.284 160.934 24.936C160.934 30.588 157.334 34.188 152.366 34.188C147.398 34.188 143.798 30.588 143.798 24.936ZM165.146 24.936C165.146 17.448 159.494 12.156 152.366 12.156C145.31 12.156 139.586 17.448 139.586 24.936C139.586 32.46 145.31 37.752 152.366 37.752C153.626 37.752 154.814 37.608 155.93 37.284L160.322 42.036H165.542L159.53 35.664C162.95 33.468 165.146 29.652 165.146 24.936ZM187.254 17.664H183.15V28.716C183.15 32.352 181.17 34.224 178.146 34.224C175.158 34.224 173.178 32.352 173.178 28.716V17.664H169.11V29.328C169.11 34.872 172.638 37.788 177.282 37.788C179.622 37.788 181.854 36.816 183.15 35.124V37.5H187.254V17.664ZM201.021 20.796C204.081 20.796 206.493 22.74 206.565 25.8H195.585C196.017 22.668 198.249 20.796 201.021 20.796ZM210.309 31.596H205.881C205.125 33.144 203.721 34.368 201.201 34.368C198.177 34.368 195.837 32.388 195.549 29.112H210.705C210.813 28.428 210.849 27.78 210.849 27.096C210.849 21.264 206.853 17.34 201.201 17.34C195.333 17.34 191.301 21.336 191.301 27.564C191.301 33.792 195.513 37.824 201.201 37.824C206.061 37.824 209.193 35.052 210.309 31.596ZM229.684 31.956C229.468 24.792 218.272 27.024 218.272 23.028C218.272 21.696 219.424 20.796 221.62 20.796C223.852 20.796 225.184 21.984 225.328 23.712H229.432C229.216 19.752 226.264 17.34 221.764 17.34C217.084 17.34 214.132 19.896 214.132 23.064C214.132 30.336 225.652 28.104 225.652 31.992C225.652 33.36 224.392 34.368 222.016 34.368C219.748 34.368 218.2 33.036 218.056 31.416H213.808C213.988 35.016 217.336 37.824 222.088 37.824C226.768 37.824 229.684 35.304 229.684 31.956ZM234.766 31.992C234.766 36.024 236.962 37.5 240.49 37.5H243.73V34.08H241.21C239.482 34.08 238.906 33.468 238.906 31.992V21.012H243.73V17.664H238.906V12.732H234.766V17.664H232.426V21.012H234.766V31.992ZM247.513 37.5H251.617V17.664H247.513V37.5ZM249.601 15.036C251.041 15.036 252.193 13.884 252.193 12.408C252.193 10.932 251.041 9.78 249.601 9.78C248.125 9.78 246.973 10.932 246.973 12.408C246.973 13.884 248.125 15.036 249.601 15.036ZM275.905 27.564C275.905 21.336 271.441 17.34 265.789 17.34C260.137 17.34 255.673 21.336 255.673 27.564C255.673 33.792 259.957 37.824 265.609 37.824C271.297 37.824 275.905 33.792 275.905 27.564ZM259.849 27.564C259.849 23.064 262.621 20.904 265.717 20.904C268.777 20.904 271.693 23.064 271.693 27.564C271.693 32.064 268.669 34.26 265.609 34.26C262.513 34.26 259.849 32.064 259.849 27.564ZM294.038 37.5H298.106V25.8C298.106 20.256 294.614 17.34 289.97 17.34C287.594 17.34 285.398 18.312 284.066 19.932V17.664H279.962V37.5H284.066V26.412C284.066 22.776 286.046 20.904 289.07 20.904C292.058 20.904 294.038 22.776 294.038 26.412V37.5ZM318.137 31.956C317.921 24.792 306.725 27.024 306.725 23.028C306.725 21.696 307.877 20.796 310.073 20.796C312.305 20.796 313.637 21.984 313.781 23.712H317.885C317.669 19.752 314.717 17.34 310.217 17.34C305.537 17.34 302.585 19.896 302.585 23.064C302.585 30.336 314.105 28.104 314.105 31.992C314.105 33.36 312.845 34.368 310.469 34.368C308.201 34.368 306.653 33.036 306.509 31.416H302.261C302.441 35.016 305.789 37.824 310.541 37.824C315.221 37.824 318.137 35.304 318.137 31.956ZM338.079 28.428V37.5H342.183V28.428L350.463 12.48H345.927L340.131 24.756L334.335 12.48H329.763L338.079 28.428ZM362.072 20.796C365.132 20.796 367.544 22.74 367.616 25.8H356.636C357.068 22.668 359.3 20.796 362.072 20.796ZM371.36 31.596H366.932C366.176 33.144 364.772 34.368 362.252 34.368C359.228 34.368 356.888 32.388 356.6 29.112H371.756C371.864 28.428 371.9 27.78 371.9 27.096C371.9 21.264 367.904 17.34 362.252 17.34C356.384 17.34 352.352 21.336 352.352 27.564C352.352 33.792 356.564 37.824 362.252 37.824C367.112 37.824 370.244 35.052 371.36 31.596ZM376.586 31.992C376.586 36.024 378.782 37.5 382.31 37.5H385.55V34.08H383.03C381.302 34.08 380.726 33.468 380.726 31.992V21.012H385.55V17.664H380.726V12.732H376.586V17.664H374.246V21.012H376.586V31.992Z" fill="#CCCCCC"/>
<path d="M80.688 55.916C80.688 59.26 83.136 61.596 86.256 61.596C88.672 61.596 90.592 60.396 91.424 58.252H89.68C89.072 59.58 87.888 60.332 86.256 60.332C83.92 60.332 82.176 58.636 82.176 55.916C82.176 53.18 83.92 51.484 86.256 51.484C87.888 51.484 89.072 52.236 89.68 53.58H91.424C90.592 51.42 88.672 50.204 86.256 50.204C83.136 50.204 80.688 52.572 80.688 55.916ZM93.5914 61.5H95.0474V49.66H93.5914V61.5ZM97.5289 61.5H98.9849V52.732H97.5289V61.5ZM98.2809 51.308C98.8089 51.308 99.2409 50.876 99.2409 50.316C99.2409 49.756 98.8089 49.324 98.2809 49.324C97.7209 49.324 97.2889 49.756 97.2889 50.316C97.2889 50.876 97.7209 51.308 98.2809 51.308ZM100.922 57.1C100.922 59.884 102.698 61.644 105.194 61.644C107.37 61.644 108.794 60.428 109.242 58.684H107.674C107.354 59.788 106.49 60.412 105.194 60.412C103.594 60.412 102.41 59.276 102.41 57.1C102.41 54.956 103.594 53.82 105.194 53.82C106.49 53.82 107.37 54.492 107.674 55.548H109.242C108.794 53.708 107.37 52.588 105.194 52.588C102.698 52.588 100.922 54.348 100.922 57.1ZM111.185 61.5H112.641V57.628L116.081 61.5H118.065L113.921 57.1L118.049 52.732H116.017L112.641 56.62V49.66H111.185V61.5ZM124.005 59.1C124.005 60.86 124.885 61.5 126.437 61.5H127.749V60.268H126.677C125.781 60.268 125.461 59.964 125.461 59.1V53.932H127.749V52.732H125.461V50.524H124.005V52.732H122.869V53.932H124.005V59.1ZM129.513 61.5H130.969V56.652C130.969 54.764 131.993 53.836 133.481 53.836C134.953 53.836 135.929 54.748 135.929 56.54V61.5H137.369V56.332C137.369 53.82 135.817 52.572 133.865 52.572C132.633 52.572 131.545 53.068 130.969 53.996V49.66H129.513V61.5ZM143.476 53.82C144.98 53.82 146.26 54.764 146.244 56.476H140.708C140.868 54.764 142.052 53.82 143.476 53.82ZM147.572 58.796H146.004C145.684 59.74 144.852 60.412 143.54 60.412C142.052 60.412 140.804 59.436 140.692 57.66H147.7C147.732 57.356 147.748 57.1 147.748 56.78C147.748 54.38 146.084 52.588 143.54 52.588C140.98 52.588 139.204 54.332 139.204 57.1C139.204 59.884 141.044 61.644 143.54 61.644C145.716 61.644 147.124 60.396 147.572 58.796ZM154.671 50.332L153.135 53.964H154.751L155.695 50.332H154.671ZM157.279 50.332L155.743 53.964H157.359L158.303 50.332H157.279ZM159.467 57.052C159.467 59.772 161.307 61.644 163.595 61.644C165.067 61.644 166.123 60.94 166.683 60.188V61.5H168.523V52.684H166.683V53.964C166.139 53.244 165.115 52.54 163.627 52.54C161.307 52.54 159.467 54.332 159.467 57.052ZM166.683 57.084C166.683 58.988 165.387 60.06 164.011 60.06C162.651 60.06 161.339 58.956 161.339 57.052C161.339 55.148 162.651 54.124 164.011 54.124C165.387 54.124 166.683 55.196 166.683 57.084ZM170.311 57.052C170.311 59.772 172.151 61.644 174.471 61.644C175.911 61.644 176.967 60.972 177.527 60.172V61.5H179.367V49.66H177.527V53.916C176.855 53.084 175.639 52.54 174.487 52.54C172.151 52.54 170.311 54.332 170.311 57.052ZM177.527 57.084C177.527 58.988 176.231 60.06 174.855 60.06C173.495 60.06 172.183 58.956 172.183 57.052C172.183 55.148 173.495 54.124 174.855 54.124C176.231 54.124 177.527 55.196 177.527 57.084ZM181.155 57.052C181.155 59.772 182.995 61.644 185.315 61.644C186.755 61.644 187.811 60.972 188.371 60.172V61.5H190.211V49.66H188.371V53.916C187.699 53.084 186.483 52.54 185.331 52.54C182.995 52.54 181.155 54.332 181.155 57.052ZM188.371 57.084C188.371 58.988 187.075 60.06 185.699 60.06C184.339 60.06 183.027 58.956 183.027 57.052C183.027 55.148 184.339 54.124 185.699 54.124C187.075 54.124 188.371 55.196 188.371 57.084ZM196.254 54.188L197.934 50.38H195.95L194.974 54.188H196.254ZM193.374 54.188L195.054 50.38H193.07L192.094 54.188H193.374ZM205.282 54.364V49.66H203.826V61.5H205.282V59.884C205.826 60.844 206.962 61.644 208.562 61.644C210.914 61.644 212.722 59.804 212.722 57.084C212.722 54.348 210.93 52.588 208.562 52.588C207.01 52.588 205.842 53.388 205.282 54.364ZM211.234 57.084C211.234 59.148 209.874 60.364 208.258 60.364C206.674 60.364 205.282 59.164 205.282 57.1C205.282 55.068 206.674 53.852 208.258 53.852C209.874 53.852 211.234 55.02 211.234 57.084ZM222.414 52.732H220.958V57.548C220.958 59.436 219.95 60.364 218.446 60.364C216.974 60.364 215.998 59.452 215.998 57.676V52.732H214.558V57.868C214.558 60.38 216.142 61.628 218.158 61.628C219.326 61.628 220.398 61.116 220.958 60.204V61.5H222.414V52.732ZM225.193 59.1C225.193 60.86 226.073 61.5 227.625 61.5H228.937V60.268H227.865C226.969 60.268 226.649 59.964 226.649 59.1V53.932H228.937V52.732H226.649V50.524H225.193V52.732H224.057V53.932H225.193V59.1ZM231.021 59.1C231.021 60.86 231.901 61.5 233.453 61.5H234.765V60.268H233.693C232.797 60.268 232.477 59.964 232.477 59.1V53.932H234.765V52.732H232.477V50.524H231.021V52.732H229.885V53.932H231.021V59.1ZM244.849 57.1C244.849 54.332 242.913 52.588 240.417 52.588C237.937 52.588 235.985 54.332 235.985 57.1C235.985 59.884 237.873 61.644 240.353 61.644C242.849 61.644 244.849 59.884 244.849 57.1ZM237.473 57.1C237.473 54.892 238.865 53.852 240.401 53.852C241.905 53.852 243.361 54.892 243.361 57.1C243.361 59.324 241.873 60.364 240.353 60.364C238.833 60.364 237.473 59.324 237.473 57.1ZM253.179 61.5H254.619V56.332C254.619 53.82 253.067 52.572 251.035 52.572C249.851 52.572 248.795 53.068 248.219 53.98V52.732H246.763V61.5H248.219V56.652C248.219 54.764 249.243 53.836 250.731 53.836C252.203 53.836 253.179 54.748 253.179 56.54V61.5ZM261.583 59.1C261.583 60.86 262.463 61.5 264.015 61.5H265.327V60.268H264.255C263.359 60.268 263.039 59.964 263.039 59.1V53.932H265.327V52.732H263.039V50.524H261.583V52.732H260.447V53.932H261.583V59.1ZM275.411 57.1C275.411 54.332 273.475 52.588 270.979 52.588C268.499 52.588 266.547 54.332 266.547 57.1C266.547 59.884 268.435 61.644 270.915 61.644C273.411 61.644 275.411 59.884 275.411 57.1ZM268.035 57.1C268.035 54.892 269.427 53.852 270.963 53.852C272.467 53.852 273.923 54.892 273.923 57.1C273.923 59.324 272.435 60.364 270.915 60.364C269.395 60.364 268.035 59.324 268.035 57.1ZM281.047 57.084C281.047 59.804 282.855 61.644 285.191 61.644C286.807 61.644 287.943 60.812 288.471 59.868V61.5H289.943V52.732H288.471V54.332C287.959 53.42 286.839 52.588 285.207 52.588C282.855 52.588 281.047 54.348 281.047 57.084ZM288.471 57.1C288.471 59.164 287.095 60.364 285.495 60.364C283.895 60.364 282.535 59.148 282.535 57.084C282.535 55.02 283.895 53.852 285.495 53.852C287.095 53.852 288.471 55.068 288.471 57.1ZM291.86 57.084C291.86 59.804 293.668 61.644 296.02 61.644C297.62 61.644 298.756 60.828 299.284 59.852V61.5H300.756V49.66H299.284V54.3C298.676 53.292 297.412 52.588 296.036 52.588C293.668 52.588 291.86 54.348 291.86 57.084ZM299.284 57.1C299.284 59.164 297.908 60.364 296.308 60.364C294.708 60.364 293.348 59.148 293.348 57.084C293.348 55.02 294.708 53.852 296.308 53.852C297.908 53.852 299.284 55.068 299.284 57.1ZM302.672 57.084C302.672 59.804 304.48 61.644 306.832 61.644C308.432 61.644 309.568 60.828 310.096 59.852V61.5H311.568V49.66H310.096V54.3C309.488 53.292 308.224 52.588 306.848 52.588C304.48 52.588 302.672 54.348 302.672 57.084ZM310.096 57.1C310.096 59.164 308.72 60.364 307.12 60.364C305.52 60.364 304.16 59.148 304.16 57.084C304.16 55.02 305.52 53.852 307.12 53.852C308.72 53.852 310.096 55.068 310.096 57.1ZM317.751 57.084C317.751 59.804 319.559 61.644 321.895 61.644C323.511 61.644 324.647 60.812 325.175 59.868V61.5H326.647V52.732H325.175V54.332C324.663 53.42 323.543 52.588 321.911 52.588C319.559 52.588 317.751 54.348 317.751 57.084ZM325.175 57.1C325.175 59.164 323.799 60.364 322.199 60.364C320.599 60.364 319.239 59.148 319.239 57.084C319.239 55.02 320.599 53.852 322.199 53.852C323.799 53.852 325.175 55.068 325.175 57.1ZM332.829 57.084C332.829 59.804 334.637 61.644 336.957 61.644C338.589 61.644 339.757 60.78 340.253 59.884V65.66H341.725V52.732H340.253V54.332C339.757 53.42 338.605 52.588 337.005 52.588C334.637 52.588 332.829 54.348 332.829 57.084ZM340.253 57.1C340.253 59.164 338.877 60.364 337.277 60.364C335.677 60.364 334.317 59.148 334.317 57.084C334.317 55.02 335.677 53.852 337.277 53.852C338.877 53.852 340.253 55.068 340.253 57.1ZM351.961 52.732H350.505V57.548C350.505 59.436 349.497 60.364 347.993 60.364C346.521 60.364 345.545 59.452 345.545 57.676V52.732H344.105V57.868C344.105 60.38 345.689 61.628 347.705 61.628C348.873 61.628 349.945 61.116 350.505 60.204V61.5H351.961V52.732ZM358.148 53.82C359.652 53.82 360.932 54.764 360.916 56.476H355.38C355.539 54.764 356.724 53.82 358.148 53.82ZM362.244 58.796H360.676C360.356 59.74 359.524 60.412 358.212 60.412C356.724 60.412 355.476 59.436 355.364 57.66H362.372C362.404 57.356 362.42 57.1 362.42 56.78C362.42 54.38 360.756 52.588 358.212 52.588C355.652 52.588 353.876 54.332 353.876 57.1C353.876 59.884 355.716 61.644 358.212 61.644C360.388 61.644 361.796 60.396 362.244 58.796ZM370.645 59.116C370.581 55.98 365.493 57.116 365.493 55.036C365.493 54.332 366.133 53.82 367.205 53.82C368.373 53.82 369.045 54.46 369.109 55.34H370.565C370.469 53.628 369.189 52.588 367.253 52.588C365.301 52.588 364.037 53.692 364.037 55.036C364.037 58.3 369.221 57.164 369.221 59.116C369.221 59.836 368.581 60.412 367.429 60.412C366.197 60.412 365.445 59.772 365.365 58.924H363.861C363.957 60.524 365.397 61.644 367.445 61.644C369.381 61.644 370.645 60.556 370.645 59.116ZM373.021 59.1C373.021 60.86 373.901 61.5 375.453 61.5H376.765V60.268H375.693C374.797 60.268 374.477 59.964 374.477 59.1V53.932H376.765V52.732H374.477V50.524H373.021V52.732H371.885V53.932H373.021V59.1ZM378.529 61.5H379.985V52.732H378.529V61.5ZM379.281 51.308C379.809 51.308 380.241 50.876 380.241 50.316C380.241 49.756 379.809 49.324 379.281 49.324C378.721 49.324 378.289 49.756 378.289 50.316C378.289 50.876 378.721 51.308 379.281 51.308ZM390.786 57.1C390.786 54.332 388.85 52.588 386.354 52.588C383.874 52.588 381.922 54.332 381.922 57.1C381.922 59.884 383.81 61.644 386.29 61.644C388.786 61.644 390.786 59.884 390.786 57.1ZM383.41 57.1C383.41 54.892 384.802 53.852 386.338 53.852C387.842 53.852 389.298 54.892 389.298 57.1C389.298 59.324 387.81 60.364 386.29 60.364C384.77 60.364 383.41 59.324 383.41 57.1ZM399.117 61.5H400.557V56.332C400.557 53.82 399.005 52.572 396.973 52.572C395.789 52.572 394.733 53.068 394.157 53.98V52.732H392.701V61.5H394.157V56.652C394.157 54.764 395.181 53.836 396.669 53.836C398.141 53.836 399.117 54.748 399.117 56.54V61.5Z" fill="#CCCCCC"/>
<defs>
<clipPath id="clip0_6405_14871">
<rect width="60" height="69" fill="white"/>
</clipPath>
</defs>
</svg>
