<svg width="62" height="58" viewBox="0 0 62 58" fill="none" xmlns="http://www.w3.org/2000/svg">
<rect y="0.632812" width="62" height="56.85" fill="#FFF7E8"/>
<path d="M25.2257 7.50917C22.1291 8.4698 19.3207 10.1867 17.0541 12.5049C14.7875 14.823 13.1341 17.6693 12.2433 20.7867C11.3525 23.904 11.2524 27.1942 11.9519 30.3599C12.6515 33.5257 14.1287 36.4673 16.2502 38.919C18.3716 41.3707 21.0704 43.2552 24.1028 44.4024C27.1352 45.5495 30.4056 45.9232 33.6186 45.4895C36.8316 45.0559 39.8859 43.8286 42.5057 41.9186C45.1255 40.0086 47.2281 37.476 48.6237 34.5496L45.1443 32.8903C44.0244 35.2386 42.337 37.271 40.2347 38.8038C38.1324 40.3365 35.6814 41.3214 33.103 41.6694C30.5246 42.0174 27.9002 41.7175 25.4668 40.797C23.0333 39.8764 20.8676 38.3641 19.1652 36.3966C17.4628 34.4292 16.2773 32.0686 15.7159 29.5282C15.1545 26.9877 15.2349 24.3474 15.9497 21.8458C16.6646 19.3442 17.9914 17.0601 19.8103 15.1998C21.6292 13.3396 23.8829 11.9618 26.3678 11.1909L25.2257 7.50917Z" fill="url(#paint0_linear_6687_12875)"/>
<path d="M41.3947 24.2979C42.4427 25.7575 46.6822 29.6888 44.5804 34.0744C42.4786 38.46 44.5804 38.2428 44.5804 38.2428C44.5804 38.2428 47.9772 36.9563 49.4969 33.0056C51.0166 29.0549 42.716 19.4099 42.1669 19.253C41.6178 19.0961 33.5715 25.0963 33.5715 25.0963L32.1821 30.6542L41.3947 24.2979Z" fill="url(#paint1_linear_6687_12875)"/>
<path d="M43.3167 34.8573C43.4746 35.3317 43.4748 35.3316 43.4751 35.3315L43.4755 35.3314L43.4765 35.331L43.4785 35.3303L43.4833 35.3287L43.4952 35.3244C43.5042 35.3211 43.5152 35.3169 43.5282 35.3117C43.5542 35.3012 43.588 35.2866 43.6287 35.2671C43.71 35.228 43.8185 35.169 43.9462 35.0834C44.2024 34.9116 44.5329 34.6346 44.8761 34.1999L44.8764 34.1995C45.1492 33.8533 45.4277 33.4108 45.6829 32.8466C45.3776 33.7849 45.0164 34.4891 44.7077 34.984L44.7068 34.9853C44.5016 35.3165 44.3183 35.5547 44.1899 35.7069C44.1257 35.7829 44.0752 35.8375 44.0425 35.8714C44.0262 35.8883 44.0143 35.9001 44.0074 35.9068L44.0011 35.9129L44.0009 35.9132C44.0004 35.9136 44.0003 35.9137 44.0005 35.9135L43.1458 36.6987L44.3059 36.779L44.3404 36.2802C44.3059 36.779 44.306 36.779 44.3061 36.779L44.3063 36.779L44.3066 36.779L44.3075 36.7791L44.3099 36.7792L44.317 36.7797L44.3401 36.7809C44.3595 36.7818 44.3865 36.783 44.4207 36.7839C44.489 36.7857 44.5858 36.7867 44.7058 36.7838C44.9454 36.7781 45.2802 36.7568 45.6669 36.6949M43.3167 34.8573L50.965 24.8555M43.3167 34.8573L43.4746 35.3317L42.9072 35.5205L42.8273 34.9664C42.7347 34.6673 42.1969 32.801 42.5455 30.7793C42.6667 30.0728 42.8953 29.3406 43.2978 28.6452M43.3167 34.8573L50.9649 25.3136M45.6669 36.6949C45.6668 36.695 45.6667 36.695 45.6666 36.695L45.5879 36.2012L45.6669 36.6949ZM45.6669 36.6949C45.9769 36.6455 46.3237 36.5694 46.6811 36.4532L46.6816 36.453C47.3835 36.224 48.146 35.8348 48.7734 35.1729C49.4061 34.5054 49.8772 33.5856 50.0268 32.3412L50.0269 32.3409C50.3788 29.3985 51.0019 27.5717 51.4372 26.5897L51.4376 26.5888C51.5855 26.2534 51.7121 26.0168 51.7989 25.8679C51.8423 25.7934 51.8758 25.7408 51.897 25.7087C51.9076 25.6927 51.9152 25.6817 51.9194 25.6757L51.923 25.6707L51.9231 25.6705L51.9232 25.6705L51.9233 25.6703L52.4564 24.9546L51.5648 24.8757L51.5207 25.3737M51.5207 25.3737L51.5647 24.8757L51.5647 24.8757L51.5645 24.8757L51.5641 24.8756L51.563 24.8755L51.5601 24.8753L51.5505 24.8745L51.5174 24.8721C51.4893 24.8701 51.4491 24.8676 51.3978 24.8652C51.2953 24.8603 51.1483 24.8555 50.965 24.8555M51.5207 25.3737C51.1197 25.075 51.1197 25.0751 51.1196 25.0752L51.1195 25.0754L51.1192 25.0758L51.1185 25.0767L51.117 25.0787L51.1129 25.0843L51.1011 25.101C51.0915 25.1147 51.0786 25.1333 51.0628 25.1572C51.0374 25.1957 51.0044 25.2475 50.9649 25.3136L50.965 24.8555M51.5207 25.3737L50.965 24.8555M51.5207 25.3737L51.4767 25.8718L51.4765 25.8718L51.4718 25.8714L51.4486 25.8697C51.4271 25.8682 51.3939 25.8661 51.3499 25.864C51.3168 25.8624 51.2776 25.8608 51.2328 25.8595C51.1584 26.0016 51.0729 26.1767 50.9801 26.3871C50.5231 27.4183 49.8878 29.2938 49.5304 32.2815C49.2555 34.5686 47.8203 35.5556 46.5265 35.9777L51.5207 25.3737ZM51.5207 25.3737L51.9217 25.6725L51.9218 25.6723C51.9217 25.6724 51.9217 25.6725 51.5207 25.3737ZM50.9649 25.3136V24.8555C50.2094 24.8553 48.8067 24.9361 47.3408 25.4427C45.8708 25.9507 44.309 26.8979 43.2978 28.6452M50.9649 25.3136C50.9569 25.327 50.9486 25.341 50.9401 25.3555L50.9649 25.3136ZM43.2978 28.6452L43.7305 28.8957L43.2978 28.6452ZM45.6363 31.5363C45.9942 30.3468 46.4549 29.4711 46.9185 28.8294M45.6363 31.5363C45.3052 32.6401 44.8795 33.3877 44.4837 33.8901L46.9185 28.8294M45.6363 31.5363L46.0067 31.6474L46.0067 31.6477L45.6363 31.5363ZM46.9185 28.8294C46.5838 29.4951 46.2706 30.3525 46.0486 31.449L46.9185 28.8294ZM46.1787 31.4757C46.1572 31.5427 46.136 31.6108 46.1151 31.6801L46.1787 31.4757ZM46.1787 31.4757L46.5385 31.5486L46.1788 31.4755M46.1787 31.4757L46.1788 31.4755M46.1788 31.4755C46.5162 30.4255 46.9343 29.654 47.3473 29.0901C47.0389 29.7117 46.7476 30.5159 46.5386 31.5486C46.1876 33.2765 45.608 34.4855 45.1319 35.2486M46.1788 31.4755L44.7692 35.7813C44.8777 35.6368 45.001 35.4598 45.1319 35.2486M45.1319 35.2486L45.1318 35.2486L45.1319 35.2486Z" fill="url(#paint2_linear_6687_12875)" stroke="white"/>
<path d="M17.6771 36.2804L17.7115 36.7792L18.8719 36.6991L18.0171 35.9138L18.017 35.9137L18.0167 35.9134L18.0165 35.9132L18.0101 35.9071C18.0032 35.9004 17.9914 35.8886 17.975 35.8716C17.9424 35.8377 17.8918 35.7832 17.8276 35.7071C17.6992 35.555 17.5159 35.3168 17.3107 34.9855L17.3098 34.9841C17.001 34.4896 16.6401 33.786 16.3348 32.8487C16.5899 33.412 16.8684 33.854 17.1407 34.1997L17.141 34.2C17.484 34.6347 17.8144 34.9118 18.0704 35.0835C18.1981 35.1692 18.3066 35.2282 18.3878 35.2673C18.4285 35.2868 18.4623 35.3014 18.4882 35.3119C18.5012 35.3171 18.5123 35.3213 18.5213 35.3246L18.5332 35.3289L18.5379 35.3306L18.54 35.3313L18.5409 35.3316L18.5414 35.3317C18.5416 35.3318 18.5419 35.3319 18.6998 34.8575L18.5419 35.3319L19.0934 35.5156L19.1865 34.9775L19.1877 34.9738C19.2734 34.6988 19.8229 32.8184 19.4715 30.7798L17.6771 36.2804ZM17.6771 36.2804C17.7115 36.7792 17.7114 36.7792 17.7114 36.7792L17.7112 36.7792L17.7108 36.7793L17.7099 36.7793L17.7075 36.7795L17.7005 36.7799L17.6773 36.7811C17.658 36.7821 17.6309 36.7832 17.5966 36.7841C17.5283 36.7859 17.4313 36.7869 17.3112 36.784C17.0714 36.7783 16.7365 36.7571 16.3499 36.6952C16.3498 36.6952 16.3497 36.6952 16.3496 36.6952L16.4286 36.2015L17.6771 36.2804ZM11.9902 32.3412L11.9902 32.3413L19.4714 30.7794C19.3502 30.0729 19.1216 29.3408 18.7192 28.6455C17.7079 26.8981 16.1462 25.951 14.6763 25.443C13.2103 24.9363 11.8077 24.8555 11.0523 24.8555C10.8688 24.8555 10.7217 24.8603 10.6191 24.8652C10.5678 24.8676 10.5276 24.8701 10.4994 24.8721L10.4663 24.8745L10.4568 24.8753L10.4538 24.8755L10.4527 24.8756L10.4523 24.8757L10.4522 24.8757L10.4521 24.8757L10.4961 25.3737L10.452 24.8757L9.55956 24.9547L10.0941 25.671L10.0976 25.676C10.1018 25.682 10.1094 25.693 10.12 25.709C10.1413 25.7411 10.1748 25.7937 10.2183 25.8682C10.3052 26.0171 10.4321 26.2537 10.5802 26.5891L10.5802 26.5892C11.0145 27.5719 11.6381 29.399 11.9902 32.3412Z" fill="url(#paint3_linear_6687_12875)" stroke="white"/>
<mask id="path-6-outside-1_6687_12875" maskUnits="userSpaceOnUse" x="18.6802" y="8.875" width="25" height="35" fill="black">
<rect fill="white" x="18.6802" y="8.875" width="25" height="35"/>
<path fill-rule="evenodd" clip-rule="evenodd" d="M40.0178 12.5314C40.0178 11.0667 38.8262 9.875 37.3612 9.875C35.8961 9.875 34.7041 11.0666 34.7041 12.5314C34.7041 13.7373 35.5114 14.7581 36.6139 15.0817V17.9501L33.3885 21.1758V31.4083L31.7289 33.068V29.1932L29.8664 27.3313V20.8884C31.2895 20.4595 32.3291 19.1365 32.3291 17.5755C32.3291 15.6682 30.7773 14.1164 28.87 14.1164C26.9624 14.1164 25.4105 15.6683 25.4105 17.5755C25.4105 19.1365 26.45 20.4595 27.8734 20.8884V28.1567L29.7357 30.0192V36.6494L26.8948 33.8081V30.4486L23.0846 26.6385V24.8214C24.1868 24.4979 24.994 23.4775 24.994 22.2716C24.994 20.8066 23.8021 19.6146 22.3374 19.6146C20.8727 19.6146 19.6802 20.8066 19.6802 22.2716C19.6802 23.4774 20.4877 24.4977 21.5898 24.8213V27.2577L25.3993 31.0675V34.4278L29.7157 38.7436L29.7357 38.7236V41.4324C29.7357 41.9829 30.1819 42.4293 30.7323 42.4293C31.2828 42.4293 31.7289 41.9827 31.7289 41.4324V40.9078L38.3323 34.3042V31.0533L40.9994 28.3858V23.627C41.7757 23.3662 42.3362 22.6318 42.3362 21.7692C42.3362 20.6887 41.4573 19.8096 40.3766 19.8096C39.2961 19.8096 38.417 20.6887 38.417 21.7692C38.417 22.632 38.9779 23.3666 39.7544 23.6272V27.87L37.0865 30.5371V33.7884L31.7289 39.1457V35.182L34.8833 32.0275V21.7948L38.1088 18.5696V15.0816C39.2109 14.7579 40.0178 13.7372 40.0178 12.5314ZM37.3612 13.6936C36.7206 13.6936 36.199 13.1726 36.199 12.5314C36.199 11.8915 36.7206 11.3698 37.3612 11.3698C38.0017 11.3698 38.523 11.8914 38.523 12.5314C38.523 13.1726 38.0017 13.6936 37.3612 13.6936ZM40.3766 22.4834C39.983 22.4834 39.663 22.1628 39.663 21.7692C39.663 21.3756 39.983 21.0548 40.3766 21.0548C40.7702 21.0548 41.0904 21.3756 41.0904 21.7692C41.0904 22.1628 40.7702 22.4834 40.3766 22.4834ZM21.1749 22.2716C21.1749 22.9119 21.6965 23.4335 22.3374 23.4335C22.9779 23.4335 23.4993 22.9119 23.4993 22.2716C23.4993 21.631 22.9779 21.1094 22.3374 21.1094C21.6965 21.1094 21.1749 21.6311 21.1749 22.2716ZM28.87 19.0412C28.0615 19.0412 27.4041 18.3837 27.4041 17.5755C27.4041 16.7673 28.0615 16.1095 28.87 16.1095C29.6782 16.1095 30.3356 16.7672 30.3356 17.5755C30.3355 18.3837 29.6782 19.0412 28.87 19.0412Z"/>
</mask>
<path fill-rule="evenodd" clip-rule="evenodd" d="M40.0178 12.5314C40.0178 11.0667 38.8262 9.875 37.3612 9.875C35.8961 9.875 34.7041 11.0666 34.7041 12.5314C34.7041 13.7373 35.5114 14.7581 36.6139 15.0817V17.9501L33.3885 21.1758V31.4083L31.7289 33.068V29.1932L29.8664 27.3313V20.8884C31.2895 20.4595 32.3291 19.1365 32.3291 17.5755C32.3291 15.6682 30.7773 14.1164 28.87 14.1164C26.9624 14.1164 25.4105 15.6683 25.4105 17.5755C25.4105 19.1365 26.45 20.4595 27.8734 20.8884V28.1567L29.7357 30.0192V36.6494L26.8948 33.8081V30.4486L23.0846 26.6385V24.8214C24.1868 24.4979 24.994 23.4775 24.994 22.2716C24.994 20.8066 23.8021 19.6146 22.3374 19.6146C20.8727 19.6146 19.6802 20.8066 19.6802 22.2716C19.6802 23.4774 20.4877 24.4977 21.5898 24.8213V27.2577L25.3993 31.0675V34.4278L29.7157 38.7436L29.7357 38.7236V41.4324C29.7357 41.9829 30.1819 42.4293 30.7323 42.4293C31.2828 42.4293 31.7289 41.9827 31.7289 41.4324V40.9078L38.3323 34.3042V31.0533L40.9994 28.3858V23.627C41.7757 23.3662 42.3362 22.6318 42.3362 21.7692C42.3362 20.6887 41.4573 19.8096 40.3766 19.8096C39.2961 19.8096 38.417 20.6887 38.417 21.7692C38.417 22.632 38.9779 23.3666 39.7544 23.6272V27.87L37.0865 30.5371V33.7884L31.7289 39.1457V35.182L34.8833 32.0275V21.7948L38.1088 18.5696V15.0816C39.2109 14.7579 40.0178 13.7372 40.0178 12.5314ZM37.3612 13.6936C36.7206 13.6936 36.199 13.1726 36.199 12.5314C36.199 11.8915 36.7206 11.3698 37.3612 11.3698C38.0017 11.3698 38.523 11.8914 38.523 12.5314C38.523 13.1726 38.0017 13.6936 37.3612 13.6936ZM40.3766 22.4834C39.983 22.4834 39.663 22.1628 39.663 21.7692C39.663 21.3756 39.983 21.0548 40.3766 21.0548C40.7702 21.0548 41.0904 21.3756 41.0904 21.7692C41.0904 22.1628 40.7702 22.4834 40.3766 22.4834ZM21.1749 22.2716C21.1749 22.9119 21.6965 23.4335 22.3374 23.4335C22.9779 23.4335 23.4993 22.9119 23.4993 22.2716C23.4993 21.631 22.9779 21.1094 22.3374 21.1094C21.6965 21.1094 21.1749 21.6311 21.1749 22.2716ZM28.87 19.0412C28.0615 19.0412 27.4041 18.3837 27.4041 17.5755C27.4041 16.7673 28.0615 16.1095 28.87 16.1095C29.6782 16.1095 30.3356 16.7672 30.3356 17.5755C30.3355 18.3837 29.6782 19.0412 28.87 19.0412Z" fill="url(#paint4_linear_6687_12875)"/>
<path d="M36.6139 15.0817H37.6139V14.333L36.8955 14.1221L36.6139 15.0817ZM36.6139 17.9501L37.321 18.6572L37.6139 18.3643V17.9501H36.6139ZM33.3885 21.1758L32.6814 20.4688L32.3885 20.7617V21.1758H33.3885ZM33.3885 31.4083L34.0956 32.1153L34.3885 31.8224V31.4083H33.3885ZM31.7289 33.068H30.7289V35.4824L32.436 33.7751L31.7289 33.068ZM31.7289 29.1932H32.7289V28.7789L32.4359 28.486L31.7289 29.1932ZM29.8664 27.3313H28.8664V27.7456L29.1594 28.0385L29.8664 27.3313ZM29.8664 20.8884L29.5778 19.9309L28.8664 20.1453V20.8884H29.8664ZM27.8734 20.8884H28.8734V20.1453L28.1619 19.9309L27.8734 20.8884ZM27.8734 28.1567H26.8734V28.5709L27.1662 28.8638L27.8734 28.1567ZM29.7357 30.0192H30.7357V29.6051L30.4428 29.3122L29.7357 30.0192ZM29.7357 36.6494L29.0285 37.3564L30.7357 39.0638V36.6494H29.7357ZM26.8948 33.8081H25.8948V34.2222L26.1876 34.5151L26.8948 33.8081ZM26.8948 30.4486H27.8948V30.0344L27.6019 29.7415L26.8948 30.4486ZM23.0846 26.6385H22.0846V27.0527L22.3775 27.3456L23.0846 26.6385ZM23.0846 24.8214L22.803 23.8619L22.0846 24.0728V24.8214H23.0846ZM21.5898 24.8213H22.5898V24.0727L21.8716 23.8618L21.5898 24.8213ZM21.5898 27.2577H20.5898V27.6719L20.8827 27.9648L21.5898 27.2577ZM25.3993 31.0675H26.3993V30.6533L26.1064 30.3604L25.3993 31.0675ZM25.3993 34.4278H24.3993V34.8421L24.6922 35.135L25.3993 34.4278ZM29.7157 38.7436L29.0087 39.4507L29.716 40.1579L30.423 39.4505L29.7157 38.7436ZM29.7357 38.7236H30.7357V36.3086L29.0284 38.0167L29.7357 38.7236ZM31.7289 40.9078L31.0218 40.2007L30.7289 40.4936V40.9078H31.7289ZM38.3323 34.3042L39.0394 35.0113L39.3323 34.7185V34.3042H38.3323ZM38.3323 31.0533L37.6252 30.3462L37.3323 30.6391V31.0533H38.3323ZM40.9994 28.3858L41.7066 29.0929L41.9994 28.8V28.3858H40.9994ZM40.9994 23.627L40.6809 22.6791L39.9994 22.9081V23.627H40.9994ZM39.7544 23.6272H40.7544V22.9081L40.0726 22.6792L39.7544 23.6272ZM39.7544 27.87L40.4614 28.5772L40.7544 28.2842V27.87H39.7544ZM37.0865 30.5371L36.3795 29.8298L36.0865 30.1228V30.5371H37.0865ZM37.0865 33.7884L37.7936 34.4955L38.0865 34.2026V33.7884H37.0865ZM31.7289 39.1457H30.7289V41.5599L32.436 39.8529L31.7289 39.1457ZM31.7289 35.182L31.0218 34.4748L30.7289 34.7677V35.182H31.7289ZM34.8833 32.0275L35.5904 32.7347L35.8833 32.4418V32.0275H34.8833ZM34.8833 21.7948L34.1762 21.0876L33.8833 21.3805V21.7948H34.8833ZM38.1088 18.5696L38.8158 19.2768L39.1088 18.9839V18.5696H38.1088ZM38.1088 15.0816L37.827 14.1221L37.1088 14.333V15.0816H38.1088ZM30.3356 17.5755L31.3356 17.5757V17.5755H30.3356ZM37.3612 10.875C38.274 10.875 39.0178 11.619 39.0178 12.5314H41.0178C41.0178 10.5144 39.3785 8.875 37.3612 8.875V10.875ZM35.7041 12.5314C35.7041 11.6192 36.4481 10.875 37.3612 10.875V8.875C35.3441 8.875 33.7041 10.514 33.7041 12.5314H35.7041ZM36.8955 14.1221C36.2064 13.9199 35.7041 13.2806 35.7041 12.5314H33.7041C33.7041 14.194 34.8164 15.5962 36.3322 16.0412L36.8955 14.1221ZM37.6139 17.9501V15.0817H35.6139V17.9501H37.6139ZM34.0957 21.8829L37.321 18.6572L35.9067 17.243L32.6814 20.4688L34.0957 21.8829ZM34.3885 31.4083V21.1758H32.3885V31.4083H34.3885ZM32.436 33.7751L34.0956 32.1153L32.6814 30.7012L31.0217 32.3609L32.436 33.7751ZM30.7289 29.1932V33.068H32.7289V29.1932H30.7289ZM29.1594 28.0385L31.0219 29.9004L32.4359 28.486L30.5733 26.6241L29.1594 28.0385ZM28.8664 20.8884V27.3313H30.8664V20.8884H28.8664ZM31.3291 17.5755C31.3291 18.6822 30.5913 19.6255 29.5778 19.9309L30.1549 21.8458C31.9877 21.2935 33.3291 19.5908 33.3291 17.5755H31.3291ZM28.87 15.1164C30.225 15.1164 31.3291 16.2205 31.3291 17.5755H33.3291C33.3291 15.1159 31.3296 13.1164 28.87 13.1164V15.1164ZM26.4105 17.5755C26.4105 16.2206 27.5146 15.1164 28.87 15.1164V13.1164C26.4101 13.1164 24.4105 15.1159 24.4105 17.5755H26.4105ZM28.1619 19.9309C27.1482 19.6254 26.4105 18.6822 26.4105 17.5755H24.4105C24.4105 19.5908 25.7519 21.2935 27.5849 21.8458L28.1619 19.9309ZM28.8734 28.1567V20.8884H26.8734V28.1567H28.8734ZM30.4428 29.3122L28.5805 27.4496L27.1662 28.8638L29.0285 30.7263L30.4428 29.3122ZM30.7357 36.6494V30.0192H28.7357V36.6494H30.7357ZM26.1876 34.5151L29.0285 37.3564L30.4428 35.9423L27.602 33.101L26.1876 34.5151ZM25.8948 30.4486V33.8081H27.8948V30.4486H25.8948ZM22.3775 27.3456L26.1877 31.1557L27.6019 29.7415L23.7917 25.9314L22.3775 27.3456ZM22.0846 24.8214V26.6385H24.0846V24.8214H22.0846ZM23.3662 25.7809C24.8817 25.3361 25.994 23.9343 25.994 22.2716H23.994C23.994 23.0207 23.4918 23.6597 22.803 23.8619L23.3662 25.7809ZM25.994 22.2716C25.994 20.2544 24.3545 18.6146 22.3374 18.6146V20.6146C23.2497 20.6146 23.994 21.3588 23.994 22.2716H25.994ZM22.3374 18.6146C20.3206 18.6146 18.6802 20.2541 18.6802 22.2716H20.6802C20.6802 21.3591 21.4248 20.6146 22.3374 20.6146V18.6146ZM18.6802 22.2716C18.6802 23.9344 19.793 25.3359 21.3081 25.7808L21.8716 23.8618C21.1824 23.6595 20.6802 23.0204 20.6802 22.2716H18.6802ZM22.5898 27.2577V24.8213H20.5898V27.2577H22.5898ZM26.1064 30.3604L22.297 26.5506L20.8827 27.9648L24.6922 31.7746L26.1064 30.3604ZM26.3993 34.4278V31.0675H24.3993V34.4278H26.3993ZM30.4228 38.0364L26.1063 33.7207L24.6922 35.135L29.0087 39.4507L30.4228 38.0364ZM29.0284 38.0167L29.0085 38.0366L30.423 39.4505L30.4429 39.4306L29.0284 38.0167ZM30.7357 41.4324V38.7236H28.7357V41.4324H30.7357ZM30.7323 41.4293C30.7313 41.4293 30.7313 41.4292 30.732 41.4294C30.7327 41.4295 30.7334 41.4297 30.7341 41.43C30.7352 41.4305 30.7352 41.4307 30.7348 41.4303C30.7343 41.4298 30.7346 41.4298 30.735 41.4309C30.7353 41.4315 30.7355 41.4322 30.7356 41.4328C30.7357 41.4335 30.7357 41.4335 30.7357 41.4324H28.7357C28.7357 42.5348 29.6292 43.4293 30.7323 43.4293V41.4293ZM30.7289 41.4324C30.7289 41.4335 30.7288 41.4335 30.7289 41.4328C30.7291 41.4322 30.7293 41.4315 30.7295 41.4309C30.73 41.4299 30.7302 41.4299 30.7297 41.4303C30.7293 41.4308 30.7293 41.4305 30.7305 41.43C30.7311 41.4297 30.7319 41.4295 30.7326 41.4294C30.7333 41.4292 30.7334 41.4293 30.7323 41.4293V43.4293C31.8356 43.4293 32.7289 42.5345 32.7289 41.4324H30.7289ZM30.7289 40.9078V41.4324H32.7289V40.9078H30.7289ZM37.6252 33.5971L31.0218 40.2007L32.436 41.6149L39.0394 35.0113L37.6252 33.5971ZM37.3323 31.0533V34.3042H39.3323V31.0533H37.3323ZM40.2923 27.6788L37.6252 30.3462L39.0395 31.7604L41.7066 29.0929L40.2923 27.6788ZM39.9994 23.627V28.3858H41.9994V23.627H39.9994ZM41.3362 21.7692C41.3362 22.1884 41.0633 22.5506 40.6809 22.6791L41.3179 24.575C42.488 24.1818 43.3362 23.0752 43.3362 21.7692H41.3362ZM40.3766 20.8096C40.9049 20.8096 41.3362 21.2409 41.3362 21.7692H43.3362C43.3362 20.1365 42.0097 18.8096 40.3766 18.8096V20.8096ZM39.417 21.7692C39.417 21.241 39.8484 20.8096 40.3766 20.8096V18.8096C38.7438 18.8096 37.417 20.1364 37.417 21.7692H39.417ZM40.0726 22.6792C39.69 22.5508 39.417 22.1884 39.417 21.7692H37.417C37.417 23.0757 38.2658 24.1823 39.4361 24.5752L40.0726 22.6792ZM40.7544 27.87V23.6272H38.7544V27.87H40.7544ZM37.7936 31.2443L40.4614 28.5772L39.0474 27.1628L36.3795 29.8298L37.7936 31.2443ZM38.0865 33.7884V30.5371H36.0865V33.7884H38.0865ZM32.436 39.8529L37.7936 34.4955L36.3795 33.0812L31.0218 38.4386L32.436 39.8529ZM30.7289 35.182V39.1457H32.7289V35.182H30.7289ZM34.1762 31.3204L31.0218 34.4748L32.436 35.8891L35.5904 32.7347L34.1762 31.3204ZM33.8833 21.7948V32.0275H35.8833V21.7948H33.8833ZM37.4017 17.8625L34.1762 21.0876L35.5903 22.5019L38.8158 19.2768L37.4017 17.8625ZM37.1088 15.0816V18.5696H39.1088V15.0816H37.1088ZM39.0178 12.5314C39.0178 13.2808 38.5156 13.9199 37.827 14.1221L38.3906 16.0411C39.9061 15.596 41.0178 14.1937 41.0178 12.5314H39.0178ZM35.199 12.5314C35.199 13.7252 36.1686 14.6936 37.3612 14.6936V12.6936C37.2725 12.6936 37.199 12.62 37.199 12.5314H35.199ZM37.3612 10.3698C36.1685 10.3698 35.199 11.3389 35.199 12.5314H37.199C37.199 12.4441 37.2726 12.3698 37.3612 12.3698V10.3698ZM39.523 12.5314C39.523 11.3391 38.554 10.3698 37.3612 10.3698V12.3698C37.4494 12.3698 37.523 12.4437 37.523 12.5314H39.523ZM37.3612 14.6936C38.554 14.6936 39.523 13.7249 39.523 12.5314H37.523C37.523 12.6203 37.4494 12.6936 37.3612 12.6936V14.6936ZM38.663 21.7692C38.663 22.714 39.4296 23.4834 40.3766 23.4834V21.4834C40.5364 21.4834 40.663 21.6116 40.663 21.7692H38.663ZM40.3766 20.0548C39.4292 20.0548 38.663 20.8249 38.663 21.7692H40.663C40.663 21.9264 40.5368 22.0548 40.3766 22.0548V20.0548ZM42.0904 21.7692C42.0904 20.8245 41.3236 20.0548 40.3766 20.0548V22.0548C40.2168 22.0548 40.0904 21.9268 40.0904 21.7692H42.0904ZM40.3766 23.4834C41.3231 23.4834 42.0904 22.7144 42.0904 21.7692H40.0904C40.0904 21.6112 40.2172 21.4834 40.3766 21.4834V23.4834ZM22.3374 22.4335C22.2485 22.4335 22.1749 22.3593 22.1749 22.2716H20.1749C20.1749 23.4645 21.1446 24.4335 22.3374 24.4335V22.4335ZM22.4993 22.2716C22.4993 22.3597 22.4255 22.4335 22.3374 22.4335V24.4335C23.5303 24.4335 24.4993 23.464 24.4993 22.2716H22.4993ZM22.3374 22.1094C22.4253 22.1094 22.4993 22.183 22.4993 22.2716H24.4993C24.4993 21.0791 23.5305 20.1094 22.3374 20.1094V22.1094ZM22.1749 22.2716C22.1749 22.1835 22.2488 22.1094 22.3374 22.1094V20.1094C21.1443 20.1094 20.1749 21.0788 20.1749 22.2716H22.1749ZM26.4041 17.5755C26.4041 18.9361 27.5093 20.0412 28.87 20.0412V18.0412C28.6137 18.0412 28.4041 17.8314 28.4041 17.5755H26.4041ZM28.87 15.1095C27.509 15.1095 26.4041 16.2152 26.4041 17.5755H28.4041C28.4041 17.3194 28.614 17.1095 28.87 17.1095V15.1095ZM31.3356 17.5755C31.3356 16.2152 30.2307 15.1095 28.87 15.1095V17.1095C29.1256 17.1095 29.3356 17.3192 29.3356 17.5755H31.3356ZM28.87 20.0412C30.2306 20.0412 31.3354 18.9359 31.3356 17.5757L29.3356 17.5754C29.3356 17.8316 29.1258 18.0412 28.87 18.0412V20.0412Z" fill="white" mask="url(#path-6-outside-1_6687_12875)"/>
<path d="M6.02921 30.737C5.98666 30.5223 5.9906 30.3281 6.04102 30.1542C6.09145 29.9804 6.18531 29.8364 6.32259 29.7224C6.45988 29.6083 6.63394 29.5303 6.84478 29.4886C7.05562 29.4468 7.24625 29.4524 7.41667 29.5055C7.58899 29.5582 7.73143 29.6543 7.84398 29.7939C7.9588 29.935 8.0373 30.1119 8.07947 30.3246C8.11449 30.5013 8.11648 30.6706 8.08544 30.8327C8.0544 30.9948 7.9957 31.122 7.90934 31.2141C7.88347 31.2429 7.85439 31.2605 7.82209 31.2669C7.77461 31.2763 7.72679 31.2592 7.67863 31.2154C7.65702 31.196 7.64283 31.1692 7.63605 31.135C7.6304 31.1065 7.63045 31.0769 7.6362 31.0462C7.64385 31.015 7.65719 30.9877 7.67621 30.9642C7.73749 30.8849 7.7758 30.7994 7.79115 30.7075C7.8084 30.6152 7.80478 30.5074 7.78031 30.3839C7.73927 30.1769 7.64268 30.0282 7.49055 29.938C7.34032 29.8473 7.15029 29.8248 6.92046 29.8703C6.69253 29.9155 6.52641 30.0087 6.42212 30.1498C6.3182 30.2927 6.28695 30.4687 6.32837 30.6776C6.36263 30.8505 6.4226 30.9788 6.50829 31.0625C6.59435 31.1481 6.69626 31.1792 6.81402 31.1558L6.8767 31.1434C6.91659 31.1355 6.94225 31.1205 6.95368 31.0985C6.96549 31.0784 6.96706 31.0465 6.9584 31.0028L6.88442 30.6296C6.87387 30.5764 6.87794 30.5322 6.89661 30.4969C6.91717 30.4612 6.95025 30.4389 6.99584 30.4299C7.04332 30.4204 7.08224 30.4275 7.11258 30.4511C7.14519 30.4763 7.16696 30.5164 7.17788 30.5714L7.28745 31.1242C7.30929 31.2343 7.30154 31.3198 7.26422 31.3805C7.2288 31.4408 7.16076 31.4809 7.06009 31.5009L6.94897 31.5229C6.80461 31.5515 6.66868 31.538 6.54118 31.4823C6.41557 31.4263 6.30731 31.3333 6.21639 31.2032C6.12775 31.0747 6.06535 30.9193 6.02921 30.737Z" fill="url(#paint5_linear_6687_12875)"/>
<path d="M6.77658 33.721C6.75864 33.6657 6.75903 33.6168 6.77774 33.574C6.79644 33.5313 6.83158 33.5016 6.88315 33.4849L8.54078 32.9468C8.59235 32.9301 8.63825 32.9335 8.67848 32.9571C8.71871 32.9807 8.74779 33.0201 8.76572 33.0753C8.78306 33.1288 8.78267 33.1777 8.76456 33.2223C8.74645 33.2669 8.71161 33.2975 8.66004 33.3142L7.00242 33.8523C6.95085 33.869 6.90465 33.8647 6.86382 33.8393C6.823 33.8138 6.79391 33.7744 6.77658 33.721Z" fill="url(#paint6_linear_6687_12875)"/>
<path d="M7.79455 36.4075C7.71571 36.2349 7.66987 36.06 7.65705 35.8828C7.64599 35.7048 7.66883 35.5357 7.72559 35.3757C7.73995 35.3372 7.76386 35.3103 7.79732 35.295C7.83607 35.2773 7.88111 35.2781 7.93242 35.2972C7.97348 35.3125 8.00165 35.3369 8.01693 35.3704C8.03302 35.4056 8.03208 35.4571 8.01409 35.5249C7.97616 35.6423 7.96181 35.767 7.97102 35.899C7.9828 36.032 8.01645 36.1593 8.07196 36.2808C8.12506 36.3971 8.18587 36.4789 8.25438 36.5264C8.32466 36.5731 8.39591 36.5799 8.46812 36.5469C8.54386 36.5123 8.58854 36.4494 8.60215 36.358C8.61753 36.2658 8.6051 36.1267 8.56485 35.9408C8.5015 35.6482 8.48962 35.4195 8.52923 35.2545C8.56963 35.0913 8.66469 34.9755 8.81441 34.9071C8.90952 34.8637 9.00855 34.8568 9.11149 34.8864C9.21619 34.9152 9.31454 34.9767 9.40654 35.0709C9.50111 35.1661 9.58178 35.2868 9.64855 35.433C9.72337 35.5968 9.76244 35.7546 9.76576 35.9063C9.77165 36.0591 9.74144 36.191 9.67514 36.3022C9.64861 36.342 9.62213 36.3679 9.59571 36.38C9.55087 36.3983 9.50295 36.3936 9.45194 36.3658C9.42563 36.3502 9.40563 36.3274 9.39195 36.2974C9.36701 36.2428 9.36764 36.1882 9.39382 36.1337C9.43214 36.0545 9.4492 35.9637 9.445 35.8613C9.44162 35.7606 9.41699 35.6601 9.37114 35.5597C9.31402 35.4347 9.24999 35.3457 9.17906 35.293C9.1107 35.2412 9.04305 35.2306 8.97612 35.2611C8.90918 35.2917 8.86899 35.3505 8.85552 35.4376C8.84463 35.5256 8.85802 35.6621 8.8957 35.8471C8.93613 36.0522 8.95392 36.2239 8.94904 36.3624C8.94593 36.5001 8.91817 36.6117 8.86576 36.6974C8.81415 36.7849 8.73551 36.8527 8.62983 36.901C8.52943 36.9468 8.42681 36.9575 8.32195 36.933C8.21886 36.9077 8.12124 36.8501 8.02909 36.7602C7.9387 36.6695 7.86052 36.552 7.79455 36.4075Z" fill="url(#paint7_linear_6687_12875)"/>
<path d="M9.43579 39.5019C9.40453 39.4529 9.39258 39.4054 9.39994 39.3594C9.40731 39.3133 9.43384 39.2757 9.47954 39.2465L10.8188 38.3917L10.5172 37.9192C10.4869 37.8718 10.4736 37.8275 10.4771 37.7862C10.4833 37.7455 10.506 37.7127 10.5451 37.6877C10.5859 37.6616 10.6253 37.6549 10.6632 37.6675C10.7027 37.679 10.7381 37.7092 10.7693 37.7582L11.5804 39.0289C11.6117 39.0779 11.6242 39.1227 11.618 39.1634C11.6135 39.203 11.5908 39.2359 11.55 39.2619C11.5108 39.287 11.471 39.2929 11.4304 39.2797C11.3925 39.2671 11.3585 39.2372 11.3283 39.1899L11.0266 38.7173L9.68739 39.5722C9.64332 39.6003 9.59752 39.6077 9.54997 39.5944C9.5051 39.5817 9.46704 39.5509 9.43579 39.5019Z" fill="url(#paint8_linear_6687_12875)"/>
<path d="M11.2328 41.9956C11.1375 41.8835 11.093 41.7713 11.0994 41.6592C11.1058 41.5471 11.1621 41.4459 11.2684 41.3556L12.1539 40.6034C12.2572 40.5157 12.3627 40.4768 12.4704 40.487C12.5793 40.4986 12.6789 40.5575 12.7692 40.6638L13.354 41.3523C13.3916 41.3965 13.4101 41.4392 13.4095 41.4804C13.4104 41.5203 13.3924 41.5559 13.3555 41.5873C13.3201 41.6174 13.2814 41.6287 13.2394 41.6211C13.2002 41.6138 13.1624 41.5887 13.126 41.5459L12.5844 40.9084C12.5594 40.8789 12.5297 40.8634 12.4955 40.862C12.4625 40.8621 12.4291 40.8765 12.3951 40.9054L12.0874 41.1667L12.5669 41.7312C12.6045 41.7755 12.623 41.8182 12.6224 41.8594C12.6233 41.8993 12.6053 41.9349 12.5684 41.9663C12.533 41.9964 12.4943 42.0076 12.4523 42.0001C12.4131 41.9928 12.3753 41.9677 12.3389 41.9249L11.8594 41.3604L11.5185 41.65C11.4845 41.6789 11.4649 41.7095 11.4595 41.7421C11.4553 41.7761 11.4658 41.8078 11.4909 41.8374L12.0738 42.5236C12.1114 42.5679 12.1299 42.6106 12.1293 42.6518C12.1302 42.6917 12.1122 42.7273 12.0753 42.7586C12.0399 42.7887 12.0012 42.8 11.9592 42.7925C11.92 42.7852 11.8822 42.7601 11.8458 42.7173L11.2328 41.9956Z" fill="url(#paint9_linear_6687_12875)"/>
<path d="M14.6941 45.1989C14.692 45.2333 14.6794 45.2635 14.6562 45.2896C14.6356 45.3127 14.6099 45.33 14.579 45.3414C14.5494 45.3514 14.5201 45.3538 14.491 45.3486C14.4562 45.3411 14.428 45.3276 14.4063 45.3083C14.3702 45.2761 14.3526 45.2216 14.3536 45.1448L14.3828 44.2378L13.4854 44.3726C13.4106 44.3838 13.3544 44.3727 13.3168 44.3393C13.2966 44.3213 13.2799 44.2948 13.2669 44.2599C13.2584 44.2316 13.2574 44.2022 13.2638 44.1716C13.2715 44.1396 13.2857 44.112 13.3063 44.0889C13.3294 44.0628 13.358 44.0468 13.3919 44.0407L14.393 43.8854L14.4237 42.9331C14.425 42.885 14.4411 42.8436 14.472 42.8089C14.4913 42.7872 14.5144 42.7714 14.5412 42.7616C14.5694 42.7504 14.5966 42.7474 14.623 42.7527C14.6646 42.7613 14.697 42.7758 14.7202 42.7964C14.7592 42.8312 14.7775 42.885 14.7749 42.9578L14.7437 43.8319L15.6083 43.6991C15.6803 43.688 15.7359 43.6998 15.775 43.7346C15.801 43.7577 15.8193 43.7882 15.8297 43.826C15.838 43.8516 15.8383 43.879 15.8304 43.9083C15.8238 43.9361 15.8108 43.9608 15.7915 43.9825C15.7607 44.0173 15.7214 44.0381 15.6738 44.045L14.7316 44.1865L14.6941 45.1989Z" fill="url(#paint10_linear_6687_12875)"/>
<path d="M18.5509 48.2209C18.359 48.1158 18.2126 47.988 18.1117 47.8378C18.0108 47.6875 17.9606 47.5231 17.9613 47.3446C17.962 47.1662 18.0139 46.9827 18.1172 46.7942C18.2205 46.6057 18.3472 46.4631 18.4973 46.3665C18.6484 46.2682 18.8135 46.2207 18.9928 46.224C19.1747 46.2266 19.3607 46.2799 19.5509 46.3842C19.7088 46.4707 19.84 46.5779 19.9443 46.7058C20.0487 46.8336 20.1085 46.9603 20.1237 47.0856C20.1292 47.124 20.124 47.1576 20.1082 47.1864C20.0849 47.2289 20.0411 47.2545 19.9766 47.2634C19.9478 47.2675 19.9182 47.2612 19.8876 47.2444C19.8621 47.2304 19.8395 47.2114 19.8196 47.1872C19.8006 47.1614 19.7882 47.1336 19.7824 47.1039C19.761 47.0061 19.72 46.9218 19.6594 46.851C19.5997 46.7786 19.5147 46.7121 19.4043 46.6516C19.2192 46.5502 19.0432 46.5288 18.8764 46.5875C18.7104 46.6445 18.5712 46.7758 18.4586 46.9812C18.3469 47.185 18.3117 47.3722 18.3529 47.5427C18.3958 47.7142 18.5107 47.8511 18.6975 47.9535C18.9114 48.0707 19.1165 48.1014 19.3127 48.0456C19.3924 48.0252 19.4543 48.0271 19.4984 48.0513C19.529 48.068 19.5514 48.0936 19.5657 48.1279C19.5862 48.1833 19.5852 48.2313 19.5629 48.2721C19.5461 48.3026 19.5188 48.3263 19.4809 48.3431C19.3567 48.3965 19.2123 48.4122 19.0476 48.3904C18.8846 48.3696 18.719 48.313 18.5509 48.2209Z" fill="url(#paint11_linear_6687_12875)"/>
<path d="M22.0276 49.8453C21.8146 49.7681 21.6455 49.6606 21.5204 49.5226C21.3978 49.3835 21.3231 49.2257 21.2964 49.0492C21.2703 48.8709 21.2922 48.6853 21.3621 48.4923C21.432 48.2993 21.5337 48.1435 21.6672 48.0251C21.8013 47.9048 21.9597 47.8313 22.1423 47.8048C22.3274 47.777 22.5265 47.8017 22.7395 47.8789C22.9525 47.956 23.1203 48.0641 23.243 48.2032C23.3681 48.3412 23.4436 48.4993 23.4697 48.6776C23.4964 48.8541 23.4748 49.0389 23.405 49.2319C23.3351 49.4249 23.2331 49.5815 23.0989 49.7018C22.9654 49.8203 22.8061 49.8934 22.621 49.9211C22.4384 49.9477 22.2406 49.9224 22.0276 49.8453ZM22.1314 49.5585C22.339 49.6336 22.5225 49.6301 22.682 49.5478C22.8422 49.4637 22.9612 49.3142 23.039 49.0994C23.1174 48.8827 23.119 48.6907 23.0437 48.5234C22.9701 48.3567 22.825 48.2342 22.6084 48.1557C22.4099 48.0839 22.2321 48.0916 22.0749 48.1788C21.9201 48.2649 21.8045 48.4136 21.7281 48.6248C21.6503 48.8396 21.646 49.0306 21.7152 49.1978C21.7851 49.3631 21.9238 49.4834 22.1314 49.5585Z" fill="url(#paint12_linear_6687_12875)"/>
<path d="M25.0119 50.8105C24.9548 50.8001 24.9118 50.7766 24.883 50.7399C24.8542 50.7032 24.8447 50.6582 24.8543 50.6048L25.0674 49.4273C25.1075 49.2063 25.2017 49.0442 25.3502 48.9412C25.4988 48.8382 25.6835 48.8067 25.9046 48.8468C26.0113 48.8661 26.1065 48.9108 26.1902 48.9811C26.2761 49.0498 26.3446 49.1389 26.3956 49.2485C26.4803 49.1615 26.5739 49.1007 26.6766 49.0662C26.7812 49.032 26.8887 49.0249 26.9992 49.0449C27.2203 49.0849 27.3823 49.1791 27.4853 49.3277C27.5883 49.4762 27.6198 49.661 27.5798 49.882L27.3666 51.0595C27.3573 51.111 27.3316 51.1496 27.2896 51.1755C27.2498 51.1998 27.2013 51.2067 27.1441 51.1964C27.087 51.186 27.044 51.1625 27.0152 51.1258C26.9864 51.0891 26.9769 51.0441 26.9865 50.9907L27.1996 49.8132C27.2258 49.6684 27.218 49.5597 27.176 49.4872C27.1344 49.4127 27.0526 49.3645 26.9306 49.3424C26.8201 49.3224 26.728 49.3421 26.6543 49.4016C26.5824 49.4614 26.5346 49.557 26.5108 49.6885L26.2977 50.8661C26.288 50.9194 26.2633 50.9583 26.2235 50.9825C26.1837 51.0068 26.1352 51.0138 26.078 51.0034C26.0209 50.9931 25.9779 50.9696 25.9491 50.9329C25.9222 50.8965 25.9136 50.8517 25.9233 50.7983L26.1364 49.6208C26.1595 49.4931 26.1471 49.3875 26.0993 49.3041C26.0514 49.2207 25.9731 49.1691 25.8645 49.1494C25.7426 49.1274 25.6491 49.1439 25.584 49.199C25.5193 49.2523 25.4738 49.3513 25.4476 49.4961L25.2345 50.6736C25.2251 50.7251 25.1995 50.7637 25.1574 50.7896C25.1176 50.8139 25.0691 50.8208 25.0119 50.8105Z" fill="url(#paint13_linear_6687_12875)"/>
<path d="M29.5136 51.4835C29.4555 51.4835 29.409 51.4681 29.3742 51.4371C29.3393 51.4061 29.3219 51.3635 29.3219 51.3093V50.1126C29.3219 49.888 29.3858 49.7117 29.5136 49.5839C29.6414 49.4561 29.8176 49.3922 30.0422 49.3922C30.1507 49.3922 30.2523 49.4193 30.3472 49.4736C30.444 49.5258 30.5273 49.6014 30.597 49.7001C30.6648 49.5994 30.7461 49.5229 30.841 49.4707C30.9378 49.4184 31.0424 49.3922 31.1547 49.3922C31.3793 49.3922 31.5555 49.4561 31.6833 49.5839C31.8111 49.7117 31.875 49.888 31.875 50.1126V51.3093C31.875 51.3615 31.8566 51.4042 31.8198 51.4371C31.785 51.4681 31.7385 51.4835 31.6804 51.4835C31.6223 51.4835 31.5759 51.4681 31.541 51.4371C31.5062 51.4061 31.4887 51.3635 31.4887 51.3093V50.1126C31.4887 49.9654 31.4616 49.8599 31.4074 49.796C31.3532 49.7301 31.2641 49.6972 31.1402 49.6972C31.0279 49.6972 30.9407 49.733 30.8788 49.8047C30.8187 49.8763 30.7887 49.979 30.7887 50.1126V51.3093C30.7887 51.3635 30.7713 51.4061 30.7364 51.4371C30.7016 51.4681 30.6551 51.4835 30.597 51.4835C30.5389 51.4835 30.4924 51.4681 30.4576 51.4371C30.4247 51.4061 30.4082 51.3635 30.4082 51.3093V50.1126C30.4082 49.9828 30.3772 49.8812 30.3153 49.8076C30.2533 49.734 30.1671 49.6972 30.0568 49.6972C29.9328 49.6972 29.8438 49.7301 29.7895 49.796C29.7353 49.8599 29.7082 49.9654 29.7082 50.1126V51.3093C29.7082 51.3615 29.6898 51.4042 29.653 51.4371C29.6182 51.4681 29.5717 51.4835 29.5136 51.4835Z" fill="url(#paint14_linear_6687_12875)"/>
<path d="M34.0523 51.3195C33.995 51.3288 33.9466 51.321 33.9073 51.296C33.8679 51.271 33.8438 51.2318 33.8351 51.1782L33.672 50.1748C33.627 49.8977 33.671 49.6678 33.8042 49.4853C33.9374 49.3028 34.1454 49.1886 34.4283 49.1426C34.6137 49.1124 34.78 49.1217 34.9271 49.1704C35.0743 49.219 35.1942 49.3045 35.2866 49.4268C35.381 49.5488 35.443 49.7006 35.4725 49.8821L35.6356 50.8856C35.6443 50.9391 35.6339 50.9839 35.6045 51.0201C35.5751 51.0563 35.5317 51.079 35.4743 51.0883C35.417 51.0977 35.3677 51.09 35.3264 51.0653C35.2867 51.0384 35.2627 50.9992 35.2543 50.9475L35.1783 50.4802L34.1405 50.6489L34.2165 51.1163C34.2248 51.1679 34.2135 51.2129 34.1825 51.2513C34.1531 51.2874 34.1097 51.3102 34.0523 51.3195ZM35.1303 50.1849L35.0898 49.9355C35.0587 49.7444 34.9915 49.6082 34.888 49.5269C34.7861 49.4434 34.6492 49.4156 34.4772 49.4436C34.1312 49.4998 33.9895 49.72 34.0519 50.1042L34.0925 50.3536L35.1303 50.1849Z" fill="url(#paint15_linear_6687_12875)"/>
<path d="M37.6262 50.6296C37.5708 50.647 37.5218 50.6462 37.4793 50.6271C37.4368 50.6079 37.4074 50.5725 37.3911 50.5208L37.0629 49.4761C36.9857 49.2304 37.002 49.0142 37.1119 48.8275C37.2217 48.6407 37.4123 48.5047 37.6839 48.4194C37.9555 48.3341 38.1897 48.3366 38.3865 48.427C38.5834 48.5174 38.7204 48.6854 38.7976 48.9312L39.1258 49.9758C39.1421 50.0276 39.1382 50.0734 39.1142 50.1134C39.0903 50.1534 39.0506 50.1822 38.9951 50.1996C38.9397 50.217 38.8898 50.2164 38.8454 50.1979C38.8023 50.1769 38.7729 50.1415 38.7573 50.0916L38.4265 49.0386C38.3771 48.8816 38.2969 48.7749 38.1858 48.7184C38.0747 48.662 37.9379 48.6593 37.7753 48.7104C37.6127 48.7614 37.502 48.8419 37.4432 48.9517C37.3843 49.0616 37.3795 49.195 37.4289 49.352L37.7597 50.405C37.7753 50.4549 37.7706 50.5011 37.7453 50.5435C37.7214 50.5835 37.6817 50.6122 37.6262 50.6296Z" fill="url(#paint16_linear_6687_12875)"/>
<path d="M41.3105 49.2865C41.1781 49.3506 41.0584 49.3656 40.9514 49.3314C40.8444 49.2971 40.7606 49.2173 40.6998 49.0918L40.1931 48.0462C40.134 47.9243 40.1229 47.8124 40.1596 47.7107C40.1982 47.6081 40.2802 47.5264 40.4056 47.4656L40.7716 47.2883C40.972 47.1912 41.1631 47.1438 41.3449 47.146C41.5268 47.1483 41.6894 47.1997 41.8328 47.3002C41.9779 47.3998 42.0965 47.5447 42.1885 47.7346C42.2805 47.9245 42.3207 48.1073 42.309 48.283C42.2982 48.4561 42.2373 48.6147 42.1264 48.7588C42.0164 48.9003 41.8603 49.0201 41.6582 49.118L41.3105 49.2865ZM41.5016 48.8614C41.7194 48.7559 41.8561 48.6251 41.9118 48.469C41.9666 48.3112 41.9412 48.1234 41.8356 47.9056C41.7301 47.6878 41.5975 47.5519 41.438 47.4979C41.2793 47.4414 41.092 47.4655 40.8759 47.5702L40.5962 47.7057C40.5613 47.7226 40.539 47.7474 40.529 47.7802C40.5208 47.8121 40.5264 47.8482 40.5459 47.8882L41.0474 48.9233C41.0668 48.9634 41.0916 48.9902 41.1218 49.0035C41.1537 49.016 41.187 49.0139 41.2219 48.997L41.5016 48.8614Z" fill="url(#paint17_linear_6687_12875)"/>
<path d="M46.7781 46.0018C46.6081 46.1395 46.4344 46.2265 46.257 46.2629C46.0797 46.2993 45.9086 46.2833 45.7437 46.215C45.5788 46.1467 45.4288 46.029 45.2935 45.8619C45.1583 45.6948 45.0745 45.5235 45.042 45.348C45.0084 45.1709 45.0271 45.0001 45.0981 44.8355C45.1695 44.6682 45.2894 44.5163 45.458 44.3798C45.598 44.2666 45.7469 44.1859 45.9048 44.1378C46.0627 44.0897 46.2025 44.0824 46.3243 44.1159C46.3619 44.1254 46.391 44.1429 46.4117 44.1685C46.4421 44.2061 46.4492 44.2565 46.433 44.3194C46.4259 44.3476 46.4088 44.3727 46.3817 44.3946C46.3591 44.4129 46.3329 44.4266 46.303 44.4359C46.2719 44.4436 46.2415 44.4445 46.2118 44.4386C46.1131 44.4214 46.0196 44.4273 45.9311 44.4566C45.8414 44.4843 45.7477 44.5377 45.6499 44.6169C45.4858 44.7497 45.3993 44.9044 45.3903 45.0811C45.3801 45.2562 45.4487 45.4349 45.5961 45.617C45.7423 45.7976 45.9021 45.9012 46.0755 45.9278C46.2505 45.9531 46.4207 45.8988 46.5863 45.7648C46.7759 45.6113 46.8821 45.4331 46.9049 45.2304C46.9162 45.149 46.9415 45.0924 46.9806 45.0608C47.0077 45.0388 47.0398 45.0278 47.077 45.0276C47.136 45.0296 47.1801 45.0487 47.2094 45.0849C47.2313 45.112 47.2428 45.1462 47.244 45.1876C47.2462 45.3228 47.2061 45.4625 47.1234 45.6066C47.0423 45.7495 46.9272 45.8812 46.7781 46.0018Z" fill="url(#paint18_linear_6687_12875)"/>
<path d="M49.1774 43.8112C49.0774 43.9192 48.9713 43.9767 48.8592 43.9837C48.7471 43.9907 48.6399 43.9469 48.5377 43.8521L47.6853 43.0626C47.5859 42.9705 47.5348 42.8704 47.532 42.7622C47.5305 42.6527 47.5772 42.5467 47.6719 42.4444L48.2858 41.7817C48.3253 41.7391 48.3655 41.7157 48.4064 41.7114C48.446 41.7057 48.4835 41.7194 48.519 41.7523C48.5531 41.7839 48.5689 41.8209 48.5664 41.8635C48.5638 41.9033 48.5434 41.9439 48.5053 41.9851L47.9368 42.5987C47.9105 42.6272 47.8987 42.6584 47.9014 42.6926C47.9053 42.7253 47.9237 42.7568 47.9564 42.7871L48.2525 43.0615L48.7559 42.5181C48.7954 42.4755 48.8356 42.452 48.8765 42.4477C48.916 42.4421 48.9535 42.4557 48.9891 42.4886C49.0232 42.5202 49.039 42.5573 49.0365 42.5998C49.0339 42.6397 49.0135 42.6802 48.9754 42.7214L48.472 43.2648L48.8002 43.5687C48.8329 43.599 48.8657 43.6149 48.8986 43.6164C48.9329 43.6164 48.9631 43.6022 48.9895 43.5738L49.6014 42.9133C49.6408 42.8706 49.681 42.8472 49.722 42.8429C49.7615 42.8372 49.799 42.8509 49.8345 42.8838C49.8686 42.9154 49.8844 42.9524 49.882 42.995C49.8794 43.0348 49.859 43.0754 49.8208 43.1166L49.1774 43.8112Z" fill="url(#paint19_linear_6687_12875)"/>
<path d="M51.2769 41.4382C51.2437 41.4859 51.2045 41.5152 51.1591 41.5261C51.1138 41.537 51.0689 41.527 51.0243 41.4961L50.1252 40.871C49.9138 40.724 49.7943 40.5431 49.7668 40.3282C49.7393 40.1133 49.8068 39.889 49.9693 39.6553C50.1318 39.4216 50.3185 39.2802 50.5295 39.2312C50.7405 39.1821 50.9517 39.2311 51.1632 39.3781L52.0623 40.0031C52.1068 40.0341 52.1318 40.0727 52.1373 40.119C52.1429 40.1653 52.1291 40.2123 52.0959 40.26C52.0628 40.3077 52.023 40.3378 51.9765 40.3504C51.9296 40.3602 51.8847 40.3502 51.8417 40.3203L50.9355 39.6903C50.8003 39.5963 50.6716 39.5611 50.5492 39.5845C50.4268 39.6079 50.317 39.6895 50.2197 39.8294C50.1224 39.9693 50.0841 40.1007 50.1048 40.2236C50.1255 40.3465 50.2035 40.4549 50.3386 40.5489L51.2449 41.1789C51.2878 41.2087 51.3123 41.2482 51.3183 41.2972C51.3238 41.3435 51.31 41.3905 51.2769 41.4382Z" fill="url(#paint20_linear_6687_12875)"/>
<path d="M53.5615 37.7883C53.5353 37.8402 53.5005 37.8747 53.4572 37.8918C53.4138 37.9089 53.3679 37.9053 53.3195 37.8808L51.9014 37.1643L51.6486 37.6647C51.6233 37.7148 51.592 37.7489 51.5547 37.7669C51.5165 37.7823 51.4767 37.7796 51.4352 37.7586C51.392 37.7368 51.3661 37.7064 51.3576 37.6673C51.3474 37.6275 51.3554 37.5816 51.3816 37.5298L52.0614 36.1843C52.0876 36.1324 52.1198 36.0988 52.158 36.0833C52.1944 36.067 52.2342 36.0698 52.2774 36.0916C52.3189 36.1126 52.3443 36.1439 52.3537 36.1855C52.3622 36.2245 52.3538 36.2691 52.3284 36.3192L52.0756 36.8195L53.4937 37.536C53.5404 37.5596 53.5701 37.5952 53.5829 37.6429C53.5948 37.688 53.5877 37.7365 53.5615 37.7883Z" fill="url(#paint21_linear_6687_12875)"/>
<path d="M54.7912 34.9715C54.7432 35.1106 54.6694 35.206 54.5697 35.2577C54.47 35.3094 54.3542 35.3125 54.2224 35.2671L53.1239 34.8887C52.9957 34.8445 52.9086 34.7735 52.8624 34.6757C52.8169 34.576 52.8168 34.4603 52.8622 34.3285L53.1564 33.4744C53.1754 33.4195 53.2027 33.3818 53.2384 33.3613C53.2723 33.3402 53.3121 33.3376 53.3579 33.3533C53.4018 33.3685 53.4313 33.396 53.4462 33.436C53.4599 33.4735 53.4576 33.5188 53.4393 33.5719L53.1668 34.3628C53.1542 34.3994 53.156 34.4328 53.1723 34.4629C53.1891 34.4913 53.2186 34.5127 53.2607 34.5272L53.6424 34.6587L53.8837 33.9584C53.9026 33.9035 53.9299 33.8658 53.9656 33.8453C53.9995 33.8243 54.0394 33.8216 54.0851 33.8374C54.1291 33.8525 54.1585 33.88 54.1734 33.92C54.1871 33.9575 54.1848 34.0028 54.1665 34.0559L53.9253 34.7562L54.3482 34.9018C54.3903 34.9164 54.4267 34.9176 54.4575 34.9057C54.4888 34.8919 54.5108 34.8667 54.5234 34.8301L54.8167 33.9788C54.8357 33.9239 54.863 33.8862 54.8987 33.8657C54.9326 33.8446 54.9724 33.842 55.0182 33.8577C55.0621 33.8729 55.0916 33.9004 55.1065 33.9404C55.1202 33.9779 55.1179 34.0231 55.0996 34.0762L54.7912 34.9715Z" fill="url(#paint22_linear_6687_12875)"/>
<path d="M54.1182 31.8153C53.9851 31.7894 53.8889 31.7312 53.8296 31.6408C53.7706 31.5484 53.7544 31.4338 53.781 31.297L53.8798 30.7895C53.9348 30.5063 54.0316 30.3031 54.1699 30.1801C54.3082 30.0571 54.4867 30.0169 54.7053 30.0594C54.9087 30.0989 55.0556 30.1906 55.146 30.3345C55.2367 30.4764 55.2623 30.6491 55.2227 30.8524L55.7376 30.5028C55.7784 30.4752 55.8207 30.4657 55.8644 30.4742C55.9101 30.4831 55.9461 30.5108 55.9725 30.5574C55.9967 30.6055 56.0049 30.6495 55.9972 30.6894C55.9864 30.7445 55.9519 30.7901 55.8937 30.8261L55.1438 31.3194L55.0872 31.6102L55.6232 31.7145C55.6764 31.7248 55.7147 31.751 55.7381 31.793C55.7615 31.8351 55.7678 31.8836 55.7571 31.9388C55.746 31.9958 55.7219 32.0385 55.6849 32.0668C55.6478 32.0951 55.6027 32.104 55.5494 32.0937L54.1182 31.8153ZM54.9011 31C54.9255 30.8745 54.9322 30.7742 54.9212 30.6991C54.9101 30.6239 54.8817 30.5671 54.8359 30.5286C54.7886 30.4879 54.7203 30.4588 54.631 30.4414C54.5017 30.4163 54.4008 30.4381 54.3283 30.5068C54.2561 30.5737 54.2037 30.6907 54.1712 30.858L54.0875 31.2885C54.0801 31.3265 54.0865 31.3594 54.1068 31.387C54.1274 31.4127 54.1596 31.4298 54.2033 31.4383L54.7935 31.5531L54.9011 31Z" fill="url(#paint23_linear_6687_12875)"/>
<defs>
<linearGradient id="paint0_linear_6687_12875" x1="38.8634" y1="4.90745" x2="28.1605" y2="44.0758" gradientUnits="userSpaceOnUse">
<stop stop-color="#FFD57A"/>
<stop offset="0.568947" stop-color="#FFAE00"/>
<stop offset="1" stop-color="#D79200"/>
</linearGradient>
<linearGradient id="paint1_linear_6687_12875" x1="44.4542" y1="18.4104" x2="38.8701" y2="37.2383" gradientUnits="userSpaceOnUse">
<stop stop-color="#FFD57A"/>
<stop offset="0.568947" stop-color="#FFAE00"/>
<stop offset="1" stop-color="#D79200"/>
</linearGradient>
<linearGradient id="paint2_linear_6687_12875" x1="48.954" y1="24.8723" x2="45.2981" y2="35.3887" gradientUnits="userSpaceOnUse">
<stop stop-color="#FFD57A"/>
<stop offset="0.568947" stop-color="#FFAE00"/>
<stop offset="1" stop-color="#D79200"/>
</linearGradient>
<linearGradient id="paint3_linear_6687_12875" x1="16.521" y1="24.8723" x2="12.865" y2="35.3889" gradientUnits="userSpaceOnUse">
<stop stop-color="#FFD57A"/>
<stop offset="0.568947" stop-color="#FFAE00"/>
<stop offset="1" stop-color="#D79200"/>
</linearGradient>
<linearGradient id="paint4_linear_6687_12875" x1="39.737" y1="7.73301" x2="26.0486" y2="40.6059" gradientUnits="userSpaceOnUse">
<stop stop-color="#EBB33D"/>
<stop offset="0.40151" stop-color="#FFAD00"/>
<stop offset="0.641409" stop-color="#FFB71E"/>
<stop offset="1" stop-color="#D69200"/>
</linearGradient>
<linearGradient id="paint5_linear_6687_12875" x1="52.9728" y1="29.7747" x2="56.7508" y2="32.5552" gradientUnits="userSpaceOnUse">
<stop stop-color="#FFD57A"/>
<stop offset="0.568947" stop-color="#FFAE00"/>
<stop offset="1" stop-color="#D79200"/>
</linearGradient>
<linearGradient id="paint6_linear_6687_12875" x1="52.9728" y1="29.7747" x2="56.7508" y2="32.5552" gradientUnits="userSpaceOnUse">
<stop stop-color="#FFD57A"/>
<stop offset="0.568947" stop-color="#FFAE00"/>
<stop offset="1" stop-color="#D79200"/>
</linearGradient>
<linearGradient id="paint7_linear_6687_12875" x1="52.9728" y1="29.7747" x2="56.7508" y2="32.5552" gradientUnits="userSpaceOnUse">
<stop stop-color="#FFD57A"/>
<stop offset="0.568947" stop-color="#FFAE00"/>
<stop offset="1" stop-color="#D79200"/>
</linearGradient>
<linearGradient id="paint8_linear_6687_12875" x1="52.9728" y1="29.7747" x2="56.7508" y2="32.5552" gradientUnits="userSpaceOnUse">
<stop stop-color="#FFD57A"/>
<stop offset="0.568947" stop-color="#FFAE00"/>
<stop offset="1" stop-color="#D79200"/>
</linearGradient>
<linearGradient id="paint9_linear_6687_12875" x1="52.9728" y1="29.7747" x2="56.7508" y2="32.5552" gradientUnits="userSpaceOnUse">
<stop stop-color="#FFD57A"/>
<stop offset="0.568947" stop-color="#FFAE00"/>
<stop offset="1" stop-color="#D79200"/>
</linearGradient>
<linearGradient id="paint10_linear_6687_12875" x1="52.9728" y1="29.7747" x2="56.7508" y2="32.5552" gradientUnits="userSpaceOnUse">
<stop stop-color="#FFD57A"/>
<stop offset="0.568947" stop-color="#FFAE00"/>
<stop offset="1" stop-color="#D79200"/>
</linearGradient>
<linearGradient id="paint11_linear_6687_12875" x1="52.9728" y1="29.7747" x2="56.7508" y2="32.5552" gradientUnits="userSpaceOnUse">
<stop stop-color="#FFD57A"/>
<stop offset="0.568947" stop-color="#FFAE00"/>
<stop offset="1" stop-color="#D79200"/>
</linearGradient>
<linearGradient id="paint12_linear_6687_12875" x1="52.9728" y1="29.7747" x2="56.7508" y2="32.5552" gradientUnits="userSpaceOnUse">
<stop stop-color="#FFD57A"/>
<stop offset="0.568947" stop-color="#FFAE00"/>
<stop offset="1" stop-color="#D79200"/>
</linearGradient>
<linearGradient id="paint13_linear_6687_12875" x1="52.9728" y1="29.7747" x2="56.7508" y2="32.5552" gradientUnits="userSpaceOnUse">
<stop stop-color="#FFD57A"/>
<stop offset="0.568947" stop-color="#FFAE00"/>
<stop offset="1" stop-color="#D79200"/>
</linearGradient>
<linearGradient id="paint14_linear_6687_12875" x1="52.9728" y1="29.7747" x2="56.7508" y2="32.5552" gradientUnits="userSpaceOnUse">
<stop stop-color="#FFD57A"/>
<stop offset="0.568947" stop-color="#FFAE00"/>
<stop offset="1" stop-color="#D79200"/>
</linearGradient>
<linearGradient id="paint15_linear_6687_12875" x1="52.9728" y1="29.7747" x2="56.7508" y2="32.5552" gradientUnits="userSpaceOnUse">
<stop stop-color="#FFD57A"/>
<stop offset="0.568947" stop-color="#FFAE00"/>
<stop offset="1" stop-color="#D79200"/>
</linearGradient>
<linearGradient id="paint16_linear_6687_12875" x1="52.9728" y1="29.7747" x2="56.7508" y2="32.5552" gradientUnits="userSpaceOnUse">
<stop stop-color="#FFD57A"/>
<stop offset="0.568947" stop-color="#FFAE00"/>
<stop offset="1" stop-color="#D79200"/>
</linearGradient>
<linearGradient id="paint17_linear_6687_12875" x1="52.9728" y1="29.7747" x2="56.7508" y2="32.5552" gradientUnits="userSpaceOnUse">
<stop stop-color="#FFD57A"/>
<stop offset="0.568947" stop-color="#FFAE00"/>
<stop offset="1" stop-color="#D79200"/>
</linearGradient>
<linearGradient id="paint18_linear_6687_12875" x1="52.9728" y1="29.7747" x2="56.7508" y2="32.5552" gradientUnits="userSpaceOnUse">
<stop stop-color="#FFD57A"/>
<stop offset="0.568947" stop-color="#FFAE00"/>
<stop offset="1" stop-color="#D79200"/>
</linearGradient>
<linearGradient id="paint19_linear_6687_12875" x1="52.9728" y1="29.7747" x2="56.7508" y2="32.5552" gradientUnits="userSpaceOnUse">
<stop stop-color="#FFD57A"/>
<stop offset="0.568947" stop-color="#FFAE00"/>
<stop offset="1" stop-color="#D79200"/>
</linearGradient>
<linearGradient id="paint20_linear_6687_12875" x1="52.9728" y1="29.7747" x2="56.7508" y2="32.5552" gradientUnits="userSpaceOnUse">
<stop stop-color="#FFD57A"/>
<stop offset="0.568947" stop-color="#FFAE00"/>
<stop offset="1" stop-color="#D79200"/>
</linearGradient>
<linearGradient id="paint21_linear_6687_12875" x1="52.9728" y1="29.7747" x2="56.7508" y2="32.5552" gradientUnits="userSpaceOnUse">
<stop stop-color="#FFD57A"/>
<stop offset="0.568947" stop-color="#FFAE00"/>
<stop offset="1" stop-color="#D79200"/>
</linearGradient>
<linearGradient id="paint22_linear_6687_12875" x1="52.9728" y1="29.7747" x2="56.7508" y2="32.5552" gradientUnits="userSpaceOnUse">
<stop stop-color="#FFD57A"/>
<stop offset="0.568947" stop-color="#FFAE00"/>
<stop offset="1" stop-color="#D79200"/>
</linearGradient>
<linearGradient id="paint23_linear_6687_12875" x1="52.9728" y1="29.7747" x2="56.7508" y2="32.5552" gradientUnits="userSpaceOnUse">
<stop stop-color="#FFD57A"/>
<stop offset="0.568947" stop-color="#FFAE00"/>
<stop offset="1" stop-color="#D79200"/>
</linearGradient>
</defs>
</svg>
