<svg width="63" height="58" viewBox="0 0 63 58" fill="none" xmlns="http://www.w3.org/2000/svg">
<rect x="0.760742" y="0.632812" width="62" height="56.85" fill="#FFF7E8"/>
<g clip-path="url(#clip0_6687_12874)">
<path d="M14.2607 26.5586C17.0186 26.5586 19.2607 24.3164 19.2607 21.5586C19.2607 18.8008 17.0186 16.5586 14.2607 16.5586C11.5029 16.5586 9.26074 18.8008 9.26074 21.5586C9.26074 24.3164 11.5029 26.5586 14.2607 26.5586ZM49.2607 26.5586C52.0186 26.5586 54.2607 24.3164 54.2607 21.5586C54.2607 18.8008 52.0186 16.5586 49.2607 16.5586C46.5029 16.5586 44.2607 18.8008 44.2607 21.5586C44.2607 24.3164 46.5029 26.5586 49.2607 26.5586ZM51.7607 29.0586H46.7607C45.3857 29.0586 44.1436 29.6133 43.2373 30.5117C46.3857 32.2383 48.6201 35.3555 49.1045 39.0586H54.2607C55.6436 39.0586 56.7607 37.9414 56.7607 36.5586V34.0586C56.7607 31.3008 54.5186 29.0586 51.7607 29.0586ZM31.7607 29.0586C36.5967 29.0586 40.5107 25.1445 40.5107 20.3086C40.5107 15.4727 36.5967 11.5586 31.7607 11.5586C26.9248 11.5586 23.0107 15.4727 23.0107 20.3086C23.0107 25.1445 26.9248 29.0586 31.7607 29.0586ZM37.7607 31.5586H37.1123C35.4873 32.3398 33.6826 32.8086 31.7607 32.8086C29.8389 32.8086 28.042 32.3398 26.4092 31.5586H25.7607C20.792 31.5586 16.7607 35.5898 16.7607 40.5586V42.8086C16.7607 44.8789 18.4404 46.5586 20.5107 46.5586H43.0107C45.0811 46.5586 46.7607 44.8789 46.7607 42.8086V40.5586C46.7607 35.5898 42.7295 31.5586 37.7607 31.5586ZM20.2842 30.5117C19.3779 29.6133 18.1357 29.0586 16.7607 29.0586H11.7607C9.00293 29.0586 6.76074 31.3008 6.76074 34.0586V36.5586C6.76074 37.9414 7.87793 39.0586 9.26074 39.0586H14.4092C14.9014 35.3555 17.1357 32.2383 20.2842 30.5117Z" fill="#F9B935"/>
</g>
<defs>
<clipPath id="clip0_6687_12874">
<rect width="50" height="40" fill="white" transform="translate(6.76074 9.05859)"/>
</clipPath>
</defs>
</svg>
