<svg width="53" height="60" viewBox="0 0 53 60" fill="none" xmlns="http://www.w3.org/2000/svg">
<g clip-path="url(#clip0_3877_9855)">
<path fill-rule="evenodd" clip-rule="evenodd" d="M9.45057 58.0086C7.93283 58.0086 4.54522 58.2558 3.6155 57.6144C3.31715 57.4086 2.8679 56.8225 2.8679 56.3678V35.6255C2.8679 34.5674 4.08556 33.9847 5.33618 33.9847C8.78623 33.9847 11.8026 33.3502 11.8026 36.3292V55.6658C11.8026 57.1648 10.9562 58.0103 9.45057 58.0103V58.0086ZM27.32 20.9778V20.2741C27.32 19.3785 28.451 18.6333 29.3183 18.6333C31.5472 18.6333 32.9626 21.4584 32.9626 23.7891C32.9626 27.1017 32.4075 28.5973 31.1673 31.4916C30.0554 34.0833 27.8491 36.12 31.5506 36.0958L44.2494 36.094C45.0768 36.0906 45.5347 36.0162 46.0689 36.3897C47.1357 37.1366 47.238 39.2701 45.5642 39.8649C45.0733 40.0395 40.7889 39.9635 39.8991 39.96C38.2304 39.9531 37.9009 40.0257 37.9009 41.2498C37.9009 42.2509 39.8436 42.0711 40.2529 42.0693C41.2746 42.0676 45.9267 41.9604 46.5355 42.135C48.2684 42.6347 48.3603 45.2229 46.624 45.8402C45.918 46.0909 39.4065 45.8246 38.7491 45.9595C37.7257 46.1687 37.58 47.5467 38.4802 47.9391C40.0032 48.6065 45.8989 46.7548 45.8989 49.9205C45.8989 52.2684 43.5677 51.9123 42.4888 51.9123C41.5868 51.9123 40.6848 51.914 39.7811 51.9088C38.5652 51.9019 37.9026 52.0056 37.9026 53.0828C37.9026 55.0469 41.7395 53.1865 43.1687 54.5126C44.6952 55.9286 43.6579 58.0051 41.5469 58.0051H24.3817C21.3792 58.0051 19.8337 57.4519 17.7296 56.1984C15.9222 55.1212 15.3429 55.3166 13.8009 54.9587V38.4351C13.7956 36.5833 13.5268 37.0899 14.989 36.8081C17.9465 36.2376 19.9603 34.7213 22.2655 32.9283C25.1154 30.7135 27.6722 27.6965 27.6722 23.7873C27.6722 22.6497 27.32 22.0203 27.32 20.9743V20.9778ZM25.2039 20.3917C25.2039 23.6041 26.9905 25.4679 22.5881 29.8542C20.3176 32.1174 16.9526 34.6521 13.6829 34.9218C13.3568 34.2458 13.2024 33.5386 12.3941 32.9249C11.8234 32.4909 11.0498 31.9912 10.0386 31.9912H4.39605C3.54438 31.9912 2.351 32.6845 1.89828 33.1358C1.44729 33.5853 0.75 34.7766 0.75 35.6255V56.3678C0.75 58.1002 2.59731 60.0003 4.51227 60.0003H10.0386C11.8009 60.0003 13.3481 58.5031 13.6829 57.0715C16.4513 57.0715 18.6784 60.0003 22.8535 60.0003H42.1349C44.0586 60.0003 45.8972 58.1383 45.8972 56.4854C45.8972 55.2301 45.9562 55.0071 45.3092 53.7899C47.245 52.7681 47.8954 51.9417 47.8954 49.6888C47.8954 48.5927 47.4843 48.4509 47.3074 47.6971C48.6118 47.5882 51.5137 44.6316 48.9084 41.2965C48.6725 40.9956 48.3967 40.7674 48.0134 40.6654C48.1435 40.1778 48.303 40.33 48.6395 39.5312C49.4184 37.6795 48.7332 35.7379 47.1253 34.6365C45.8729 33.779 44.5876 33.9847 42.6067 33.9847C39.1584 33.9847 35.7101 33.9847 32.2601 33.9847C34.1282 30.4663 36.4681 24.0328 34.0623 19.7658C30.9852 14.3075 25.2056 16.7833 25.2056 20.3899L25.2039 20.3917Z" fill="#68717A"/>
<path fill-rule="evenodd" clip-rule="evenodd" d="M35.5505 10.8976C36.9226 10.5795 39.4186 7.7682 39.7829 6.21041H40.0188C40.2217 7.07662 41.1636 8.35259 41.6995 8.98885C42.1367 9.50581 43.5711 10.7403 44.2511 10.8976C43.925 11.3835 40.664 13.0605 40.0188 15.82H39.7829C39.6927 14.7359 37.8714 12.63 36.8965 11.9004C36.5306 11.6272 35.75 11.1673 35.5505 10.8976ZM29.79 11.0152C29.79 13.0675 33.6373 10.8129 36.7456 14.6287C37.5366 15.6004 38.1073 16.8539 38.4681 18.1852C39.0994 20.5072 38.4889 22.0304 39.9008 22.0304C41.3474 22.0304 40.7525 20.4397 41.3093 18.2785C41.9944 15.6177 43.4254 13.4081 46.0845 12.4917C46.6864 12.2842 47.5017 12.0698 48.2475 12.0681C48.7592 12.0681 49.0298 12.1113 49.3993 11.9281C50.2856 11.4872 50.3932 9.98127 48.6031 9.95879C46.5424 9.93286 44.402 9.03207 43.1739 7.51751C42.3951 6.5562 41.7603 5.3978 41.4029 4.00945C41.2572 3.44062 41.0369 2.50526 40.9745 1.85863C40.8635 0.719246 41.1393 0 39.6649 0C38.7265 0 38.8427 1.62522 38.8341 1.7497C38.5426 6.01158 35.9824 9.77207 31.4327 9.95706C30.9591 9.97608 30.6174 9.90174 30.2965 10.1144C30.1005 10.2423 29.79 10.7507 29.79 11.0152Z" fill="#68717A"/>
<path fill-rule="evenodd" clip-rule="evenodd" d="M10.5087 19.9209C10.9857 19.7947 11.4956 19.2137 11.7853 18.8506C12.1756 18.3648 12.5745 18.0571 12.7411 17.343L13.2094 18.0467C13.5667 18.5948 14.4739 19.7566 15.0914 19.9209C14.8902 20.2217 13.1851 21.3922 12.8573 22.6163C12.3196 22.0008 12.6561 21.9731 11.1834 20.5346C10.9215 20.2788 10.6787 20.1577 10.5052 19.9209H10.5087ZM5.80627 19.9209C5.80627 20.4309 5.82535 20.8891 6.78804 21.0516C7.9554 21.2487 9.20081 21.0205 10.5139 22.8463C12.4323 25.5175 10.9666 28.0055 12.8625 28.0055C14.094 28.0055 13.7818 26.4598 14.0333 25.4241C14.2779 24.4213 14.5832 23.5136 15.1417 22.7788C15.7228 22.0129 16.394 21.5305 17.3515 21.2314C18.3697 20.9133 19.8267 21.3161 19.851 20.0229C19.8597 19.5682 19.5336 19.0979 19.067 19.008C18.6021 18.9181 18.3836 19.0218 17.4174 18.7763C13.6274 17.8185 14.1096 12.8909 13.5684 12.2996C12.9561 11.6322 11.9848 11.9953 11.8148 12.782C11.4956 14.2568 11.5425 17.7424 8.37169 18.7244C7.04302 19.1359 5.80801 18.6812 5.80801 19.9191L5.80627 19.9209Z" fill="#68717A"/>
<path fill-rule="evenodd" clip-rule="evenodd" d="M22.2655 5.50854C22.2655 5.99956 22.9038 6.5632 23.2056 6.5632C24.1145 6.5632 25.9098 4.52822 25.9098 3.98533C25.9098 3.43033 25.4085 2.93066 24.8517 2.93066C24.177 2.93066 22.2655 4.95354 22.2655 5.50854Z" fill="#68717A"/>
<path fill-rule="evenodd" clip-rule="evenodd" d="M22.2655 8.43709C22.2655 9.07335 22.9819 9.56092 23.3531 9.93091C23.5699 10.147 25.1379 12.0541 25.8092 10.3165C26.2186 9.25662 23.8197 7.5 23.5595 7.5C22.9975 7.5 22.2655 7.66944 22.2655 8.43709Z" fill="#68717A"/>
<path fill-rule="evenodd" clip-rule="evenodd" d="M17.7972 9.96031C17.7972 10.5603 18.1702 11.015 18.8553 11.015C19.4954 11.015 21.3236 9.19265 21.3236 8.55466C21.3236 7.99448 21.2195 7.5 20.2655 7.5C19.6341 7.5 19.1884 8.16392 18.8258 8.52527C18.4616 8.88662 17.7972 9.33097 17.7972 9.96031Z" fill="#68717A"/>
<path fill-rule="evenodd" clip-rule="evenodd" d="M42.8391 26.0155C42.8391 27.3779 44.9015 27.0701 45.7775 27.0701C47.3368 27.0701 47.2796 24.9608 45.8954 24.9608C44.6188 24.9608 42.8391 24.6513 42.8391 26.0155Z" fill="#68717A"/>
<path fill-rule="evenodd" clip-rule="evenodd" d="M17.7972 3.98339C17.7972 4.52109 19.6428 6.64252 20.4615 6.5215C21.1536 6.41776 21.3253 5.87487 21.3253 5.27319C21.3253 4.87553 20.0851 3.70502 19.766 3.43012C18.6975 2.51377 17.799 3.21746 17.799 3.98511L17.7972 3.98339Z" fill="#68717A"/>
<path fill-rule="evenodd" clip-rule="evenodd" d="M46.8356 28.3597C46.8356 29.0185 46.7471 30.0991 47.0697 30.5884C47.6317 31.4425 48.9517 31.005 48.9517 30.0005C48.9517 28.9666 49.2379 26.9541 48.0116 26.9541C47.212 26.9541 46.8356 27.5506 46.8356 28.3597Z" fill="#68717A"/>
<path fill-rule="evenodd" clip-rule="evenodd" d="M46.8356 22.1478V23.671C46.8356 25.5158 48.9517 25.3222 48.9517 24.022C48.9517 22.7149 49.264 20.9756 47.8937 20.9756C47.2588 20.9756 46.8356 21.5548 46.8356 22.1478Z" fill="#68717A"/>
<path fill-rule="evenodd" clip-rule="evenodd" d="M50.2457 27.0703C51.3593 27.0703 52.9499 27.3072 52.9499 26.0157C52.9499 24.6757 51.2916 24.961 50.1277 24.961C48.3793 24.961 48.5233 27.0703 50.2457 27.0703Z" fill="#68717A"/>
</g>
<defs>
<clipPath id="clip0_3877_9855">
<rect width="52.2" height="60" fill="white" transform="translate(0.75)"/>
</clipPath>
</defs>
</svg>
