<svg width="328" height="165" viewBox="0 0 328 165" fill="none" xmlns="http://www.w3.org/2000/svg">
<path d="M237.152 53.7934L238.871 50.0363L236.629 46.5439C236.374 46.1461 236.703 45.6393 237.187 45.6861L241.432 46.0985L244.191 42.9676C244.505 42.611 245.108 42.7562 245.211 43.2129L246.116 47.2246L250.063 48.782C250.513 48.9596 250.556 49.5559 250.136 49.7914L246.45 51.8586L246.13 55.9521C246.094 56.4183 245.517 56.6421 245.155 56.3307L241.972 53.5965L237.827 54.5688C237.355 54.6795 236.956 54.2216 237.152 53.7934Z" fill="#F9B935"/>
<path d="M24.3475 14.7934L26.0668 11.0363L23.8248 7.54392C23.5694 7.1461 23.8989 6.63928 24.3824 6.68613L28.6274 7.09851L31.3869 3.96763C31.7011 3.61099 32.3041 3.75618 32.4072 4.21292L33.3115 8.22461L37.2589 9.78204C37.7085 9.95955 37.7516 10.5559 37.3319 10.7914L33.6457 12.8586L33.3259 16.9521C33.2894 17.4183 32.7133 17.6421 32.3506 17.3307L29.1682 14.5965L25.0231 15.5688C24.5508 15.6795 24.1515 15.2216 24.3475 14.7934Z" fill="#F9B935"/>
<path d="M22.4704 72.6633L17.3798 73.7635L14.6355 66.0786L6.9864 66.8035L3.95543 61.3756L1.09938 62.8518L5.15324 70.1117L12.4021 69.4242L15.2572 77.4189L22.9171 75.7638L22.4704 72.6633Z" fill="white" fill-opacity="0.5"/>
<path d="M290.506 150.183L285.415 151.283L282.671 143.598L275.022 144.323L271.991 138.895L269.135 140.371L273.189 147.631L280.438 146.944L283.293 154.938L290.953 153.283L290.506 150.183Z" fill="white" fill-opacity="0.5"/>
<path d="M74.3479 99.1768L72.9975 104.026L64.6487 102.798L61.7661 109.653L55.3622 109.716L55.3958 112.835L63.9609 112.751L66.6926 106.254L75.3779 107.531L77.4092 100.235L74.3479 99.1768Z" fill="white" fill-opacity="0.5"/>
<path d="M282.151 0.485425L280.8 5.33411L272.452 4.1061L269.569 10.9615L263.165 11.025L263.199 14.1439L271.764 14.0592L274.496 7.56226L283.181 8.83987L285.212 1.54365L282.151 0.485425Z" fill="white" fill-opacity="0.5"/>
<path d="M46.6287 153.674L40.7498 156.186L39.568 162.27C39.4725 162.761 38.8328 162.934 38.4854 162.562L34.1854 157.959L27.8064 158.758C27.291 158.822 26.9224 158.29 27.183 157.857L30.4043 152.5L27.6436 146.91C27.4206 146.458 27.8326 145.957 28.3407 146.061L34.6315 147.353L39.3043 143.1C39.6819 142.756 40.3049 142.978 40.3588 143.476L41.0257 149.632L46.6743 152.593C47.1306 152.832 47.1037 153.471 46.6287 153.674Z" fill="#F9B935"/>
<path d="M240.111 100.908C241.85 100.707 243.103 99.2914 242.91 97.747C242.716 96.2025 241.15 95.1137 239.411 95.3151C237.672 95.5164 236.419 96.9317 236.612 98.4762C236.805 100.021 238.372 101.109 240.111 100.908Z" fill="white" fill-opacity="0.5"/>
<path d="M66.2813 44.994C68.0203 44.7926 69.2734 43.3774 69.0802 41.8329C68.887 40.2884 67.3206 39.1996 65.5816 39.401C63.8426 39.6024 62.5895 41.0177 62.7827 42.5621C62.9759 44.1066 64.5422 45.1954 66.2813 44.994Z" fill="white" fill-opacity="0.5"/>
<path d="M296.103 78.6011C294.922 78.8924 293.463 79.316 292.585 80.1695C291.517 81.2093 291.124 82.7936 290.775 84.3732C290.741 84.5255 290.524 84.5256 290.49 84.3734C290.208 83.1075 289.845 81.5875 289.083 80.6476C288.113 79.452 286.62 78.9628 285.153 78.6011C285 78.5634 285 78.3618 285.153 78.3239C286.436 78.0076 287.905 77.5881 288.823 76.6176C289.779 75.606 290.163 74.0196 290.49 72.5517C290.524 72.3993 290.741 72.3995 290.775 72.5518C291.079 73.9308 291.6 75.4977 292.467 76.481C293.409 77.5487 294.74 77.9875 296.103 78.3239C296.256 78.3618 296.256 78.5634 296.103 78.6011Z" fill="white" fill-opacity="0.5"/>
<path d="M308.3 60.1681C306.613 60.5843 304.527 61.1896 303.273 62.4094C301.746 63.8955 301.184 66.1596 300.685 68.4171C300.637 68.6348 300.327 68.635 300.278 68.4174C299.876 66.6081 299.357 64.436 298.268 63.0927C296.882 61.3841 294.747 60.6849 292.651 60.1681C292.432 60.1141 292.432 59.8259 292.651 59.7718C294.484 59.3197 296.585 58.7203 297.896 57.3333C299.263 55.8874 299.812 53.6205 300.279 51.5225C300.327 51.3048 300.637 51.3051 300.685 51.5227C301.121 53.4935 301.864 55.7328 303.104 57.138C304.45 58.6638 306.352 59.2911 308.3 59.7718C308.519 59.8258 308.519 60.114 308.3 60.1681Z" fill="white" fill-opacity="0.5"/>
<path d="M320.635 87.2657C318.948 87.6818 316.862 88.2873 315.608 89.507C314.081 90.9931 313.52 93.2572 313.021 95.5147C312.972 95.7323 312.662 95.7325 312.614 95.515C312.211 93.7057 311.693 91.5336 310.603 90.1903C309.217 88.4816 307.083 87.7826 304.987 87.2657C304.768 87.2116 304.767 86.9235 304.987 86.8694C306.82 86.4173 308.92 85.8178 310.231 84.4309C311.598 82.985 312.147 80.7181 312.614 78.6201C312.662 78.4026 312.973 78.4027 313.021 78.6204C313.456 80.5912 314.2 82.8304 315.439 84.2357C316.786 85.7614 318.687 86.3887 320.636 86.8695C320.855 86.9235 320.855 87.2116 320.635 87.2657Z" fill="white" fill-opacity="0.5"/>
<path d="M327.944 73.1306C327.371 73.2718 326.663 73.4774 326.238 73.8914C325.719 74.3958 325.529 75.1644 325.359 75.9306C325.343 76.0044 325.238 76.0045 325.221 75.9307C325.085 75.3166 324.909 74.5793 324.539 74.1233C324.069 73.5433 323.344 73.306 322.633 73.1305C322.558 73.1122 322.558 73.0143 322.633 72.996C323.255 72.8426 323.968 72.6391 324.413 72.1683C324.877 71.6776 325.063 70.9081 325.221 70.196C325.238 70.1221 325.343 70.1222 325.359 70.196C325.507 70.865 325.76 71.6251 326.181 72.1021C326.637 72.62 327.283 72.8329 327.944 72.996C328.019 73.0144 328.019 73.1122 327.944 73.1306Z" fill="white" fill-opacity="0.5"/>
</svg>
