<svg width="81" height="36" viewBox="0 0 81 36" fill="none" xmlns="http://www.w3.org/2000/svg">
<g clip-path="url(#clip0_5550_12905)">
<path d="M44.6921 9.67153C45.2262 7.11348 47.0596 5.982 47.9096 5.73602C44.5458 4.33003 42.9024 6.01624 42.4998 7.18791C27.6508 -8.0202 11.4113 7.49354 12.5823 16.7576L10.7122 18.3636L11.9224 19.8433C16.6462 39.9925 37.4739 37.516 42.9175 27.7582V34.0181C43.5769 35.3513 45.1137 34.7896 45.2815 34.0181V22.9538H69.71L72.0741 18.7676C78.8982 18.0506 79.2863 15.9274 78.6685 14.4403C75.1584 10.1235 68.4062 16.7178 67.921 20.7533H19.3824L17.4858 22.9538H42.8708C31.3269 42.0444 15.7498 27.2561 17.21 20.7533H14.4184V19.4513H25.8557C26.4679 18.8312 26.1108 18.1 25.8557 17.8119H24.8102V11.4697H25.765C26.1806 10.9192 26.0557 10.4031 25.765 10.0987H20.829C20.3662 10.5675 20.6361 11.0748 20.829 11.2699H22.0596V17.8119H14.4184V16.7576H17.21C16.718 16.0674 16.629 14.9026 16.6462 14.4064C21.1983 0.0850068 33.8973 1.55464 40.9892 9.67153H44.6921Z" fill="white"/>
<path d="M23.4867 10.0136C24.288 10.0136 24.9376 9.35561 24.9376 8.54391C24.9376 7.73222 24.288 7.07422 23.4867 7.07422C22.6854 7.07422 22.0359 7.73222 22.0359 8.54391C22.0359 9.35561 22.6854 10.0136 23.4867 10.0136Z" fill="white"/>
<path d="M50.0565 24.5026V25.7085H49.9643C49.853 25.3789 49.6862 25.1282 49.4638 24.9567C49.2412 24.7851 48.998 24.6993 48.734 24.6993C48.4816 24.6993 48.2716 24.7717 48.1039 24.9163C47.9361 25.0592 47.8175 25.2594 47.7477 25.5168C47.678 25.774 47.6431 26.0381 47.6431 26.3089C47.6431 26.6369 47.6814 26.9245 47.7577 27.1718C47.8341 27.419 47.9569 27.6006 48.1263 27.7167C48.2973 27.8327 48.4999 27.8908 48.734 27.8908C48.8153 27.8908 48.8984 27.8823 48.9831 27.8655C49.0694 27.847 49.1573 27.8209 49.247 27.7873V27.0759C49.247 26.9413 49.2379 26.8547 49.2196 26.8161C49.2014 26.7757 49.1632 26.7395 49.1051 26.7076C49.0486 26.6756 48.9798 26.6596 48.8984 26.6596H48.8112V26.5663H50.4525V26.6596C50.3279 26.668 50.2408 26.6857 50.191 26.7126C50.1428 26.7378 50.1054 26.7807 50.0789 26.8412C50.0639 26.8732 50.0565 26.9514 50.0565 27.0759V27.7873C49.8407 27.8849 49.6156 27.9581 49.3815 28.0068C49.149 28.0572 48.9075 28.0825 48.6568 28.0825C48.3363 28.0825 48.0698 28.0387 47.8573 27.9513C47.6465 27.8622 47.4596 27.7461 47.2969 27.6032C47.1359 27.4585 47.0097 27.2962 46.9184 27.1163C46.8022 26.8841 46.744 26.6242 46.744 26.3367C46.744 25.822 46.9226 25.3872 47.2795 25.0323C47.6365 24.6774 48.0857 24.5 48.6269 24.5C48.7947 24.5 48.9457 24.5135 49.0802 24.5404C49.1532 24.5538 49.2712 24.5926 49.4338 24.6565C49.5983 24.7186 49.6953 24.7498 49.7253 24.7498C49.7717 24.7498 49.8149 24.733 49.8548 24.6993C49.8947 24.664 49.9312 24.5984 49.9643 24.5026H50.0565ZM52.6293 27.0279H51.4363L51.2942 27.3609C51.2478 27.472 51.2246 27.5636 51.2246 27.636C51.2246 27.7318 51.2627 27.8024 51.3391 27.8478C51.3839 27.8747 51.4944 27.895 51.6704 27.9085V28.0017H50.5471V27.9085C50.6683 27.89 50.7679 27.8395 50.8459 27.757C50.924 27.673 51.0203 27.5005 51.1349 27.2399L52.3428 24.5102H52.3901L53.6081 27.3155C53.7242 27.5813 53.8198 27.7487 53.8944 27.8176C53.9509 27.8697 54.0306 27.9 54.1336 27.9085V28.0017H52.4998V27.9085H52.567C52.6981 27.9085 52.7902 27.89 52.8434 27.8528C52.8799 27.8261 52.8981 27.7873 52.8981 27.7369C52.8981 27.7065 52.8932 27.6754 52.8832 27.6435C52.8799 27.6284 52.8551 27.5653 52.8086 27.4543L52.6293 27.0279ZM52.5446 26.8412L52.0415 25.6631L51.5234 26.8412H52.5446ZM55.5482 26.4426V27.4013C55.5482 27.5863 55.559 27.7033 55.5806 27.752C55.6038 27.7991 55.6436 27.8369 55.7002 27.8655C55.7565 27.8942 55.862 27.9085 56.0164 27.9085V28.0017H54.2879V27.9085C54.444 27.9085 54.5494 27.8942 54.6042 27.8655C54.6607 27.8353 54.6998 27.7966 54.7214 27.7495C54.7446 27.7023 54.7561 27.5863 54.7561 27.4013V25.1812C54.7561 24.9961 54.7446 24.8802 54.7214 24.8331C54.6998 24.7843 54.6607 24.7456 54.6042 24.717C54.5478 24.6885 54.4423 24.6742 54.2879 24.6742V24.5808H55.8569C56.2654 24.5808 56.5643 24.6093 56.7536 24.6666C56.9428 24.7237 57.0973 24.8297 57.2168 24.9845C57.3364 25.1374 57.3961 25.3174 57.3961 25.5244C57.3961 25.7766 57.3065 25.9852 57.1271 26.15C57.0126 26.2543 56.8524 26.3324 56.6465 26.3847L57.4584 27.5426C57.5647 27.6923 57.6403 27.7857 57.6851 27.8227C57.7532 27.8747 57.832 27.9034 57.9216 27.9085V28.0017H56.8581L55.7698 26.4426H55.5482ZM55.5482 24.765V26.2635H55.6901C55.921 26.2635 56.0936 26.2424 56.2082 26.2004C56.3227 26.1568 56.4124 26.0794 56.4772 25.9683C56.5435 25.8556 56.5768 25.7093 56.5768 25.5294C56.5768 25.2686 56.5161 25.0761 56.3949 24.9517C56.2755 24.8271 56.082 24.765 55.8147 24.765H55.5482ZM60.3101 26.8362L61.2266 24.5808H62.6015V24.6742H62.4918C62.3922 24.6742 62.3125 24.6917 62.2528 24.7271C62.2113 24.7506 62.178 24.7902 62.1532 24.8456C62.1349 24.886 62.1258 24.9911 62.1258 25.1611V27.4165C62.1258 27.5914 62.1349 27.7007 62.1532 27.7445C62.1714 27.7881 62.2087 27.8269 62.2653 27.8605C62.3216 27.8924 62.3972 27.9085 62.4918 27.9085H62.6015V28.0017H60.8381V27.9085H60.9477C61.0473 27.9085 61.127 27.8908 61.1867 27.8554C61.2283 27.8319 61.2615 27.7915 61.2865 27.7343C61.3047 27.694 61.3138 27.588 61.3138 27.4165V24.881L60.0187 28.0017H59.9589L58.6439 24.9037V27.313C58.6439 27.4812 58.6481 27.5846 58.6564 27.6233C58.678 27.7074 58.7245 27.7764 58.7959 27.8301C58.8689 27.8823 58.9827 27.9085 59.1371 27.9085V28.0017H57.9815V27.9085H58.0163C58.091 27.9101 58.1608 27.8983 58.2255 27.8731C58.2902 27.8462 58.3392 27.8108 58.3725 27.7672C58.4057 27.7234 58.4314 27.6621 58.4497 27.5829C58.453 27.5645 58.4547 27.4787 58.4547 27.3257V25.1611C58.4547 24.9879 58.4455 24.8802 58.4273 24.8382C58.409 24.7944 58.3717 24.7566 58.3152 24.7246C58.2587 24.6909 58.1832 24.6742 58.0885 24.6742H57.9815V24.5808H59.3612L60.3101 26.8362ZM64.0858 24.7775V26.1702H64.153C64.3673 26.1702 64.5224 26.1021 64.6188 25.9659C64.7151 25.8296 64.7765 25.6285 64.8031 25.3629H64.8977V27.1541H64.8031C64.7831 26.959 64.7408 26.7992 64.6761 26.6747C64.613 26.5503 64.5391 26.4671 64.4544 26.425C64.3697 26.3813 64.2469 26.3594 64.0858 26.3594V27.3231C64.0858 27.5114 64.0933 27.6267 64.1082 27.6687C64.1249 27.7108 64.1547 27.7453 64.1979 27.7722C64.2411 27.7991 64.3108 27.8126 64.4071 27.8126H64.6089C64.9243 27.8126 65.1767 27.7385 65.3659 27.5906C65.5569 27.4425 65.6938 27.2172 65.7769 26.9144H65.869L65.7171 28.0017H62.7981V27.9085H62.9102C63.0082 27.9085 63.0871 27.8908 63.1469 27.8554C63.1901 27.8319 63.2232 27.7915 63.2465 27.7343C63.2647 27.694 63.2739 27.588 63.2739 27.4165V25.1661C63.2739 25.0114 63.2697 24.9163 63.2615 24.881C63.2449 24.8221 63.2141 24.7767 63.1693 24.7447C63.1062 24.6977 63.0199 24.6742 62.9102 24.6742H62.7981V24.5808H65.625V25.5924H65.5304C65.4822 25.3452 65.4141 25.1677 65.3261 25.0601C65.2398 24.9525 65.1169 24.8734 64.9575 24.8229C64.8646 24.7927 64.6902 24.7775 64.4345 24.7775H64.0858ZM67.3683 24.5808L69.0345 26.7026V25.2316C69.0345 25.0265 69.0055 24.8878 68.9474 24.8154C68.8677 24.7178 68.734 24.6708 68.5465 24.6742V24.5808H69.6622V24.6742C69.5194 24.6927 69.4231 24.717 69.3733 24.7473C69.3251 24.7759 69.287 24.8237 69.2587 24.891C69.2321 24.9567 69.2188 25.0703 69.2188 25.2316V28.0799H69.1341L66.8504 25.2316V27.4063C66.8504 27.6032 66.8944 27.736 66.9823 27.805C67.072 27.8739 67.1741 27.9085 67.2886 27.9085H67.3683V28.0017H66.1704V27.9085C66.3564 27.9067 66.4859 27.8681 66.559 27.7923C66.632 27.7167 66.6685 27.588 66.6685 27.4063V24.9919L66.5963 24.9011C66.5249 24.8104 66.4618 24.7506 66.407 24.722C66.3522 24.6935 66.2733 24.6774 66.1704 24.6742V24.5808H67.3683Z" fill="white"/>
<path d="M73.181 25.4881V20.8164H75.2258C75.6369 20.8164 75.9494 20.8588 76.1634 20.9438C76.3772 21.0267 76.5482 21.1744 76.6761 21.3868C76.8041 21.5993 76.8681 21.834 76.8681 22.0911C76.8681 22.4225 76.7622 22.7019 76.5502 22.9292C76.3384 23.1566 76.0113 23.301 75.5688 23.3626C75.7302 23.4413 75.8529 23.5188 75.9368 23.5952C76.1151 23.7609 76.2839 23.9682 76.4434 24.2167L77.2455 25.4881H76.4779L75.8677 24.5162C75.6893 24.2357 75.5426 24.0212 75.4271 23.8724C75.3118 23.7238 75.2079 23.6197 75.1157 23.5602C75.0255 23.5007 74.9333 23.4592 74.8388 23.4358C74.7697 23.421 74.6564 23.4135 74.4991 23.4135H73.7913V25.4881H73.181ZM73.7913 22.8782H75.1031C75.382 22.8782 75.6002 22.8495 75.7575 22.7922C75.9148 22.7327 76.0344 22.6392 76.1161 22.5118C76.1979 22.3821 76.2388 22.2419 76.2388 22.0911C76.2388 21.8702 76.1591 21.6885 75.9998 21.5461C75.8424 21.4038 75.5929 21.3327 75.251 21.3327H73.7913V22.8782Z" fill="white"/>
<path d="M1.97815 18.8306V19.8791C1.97815 20.0836 1.99008 20.2127 2.01393 20.2667C2.03962 20.3188 2.08366 20.3605 2.14607 20.3922C2.21029 20.4238 2.32682 20.4395 2.49566 20.4395V20.5427H0.59903V20.4395C0.771533 20.4395 0.888066 20.4238 0.948626 20.3922C1.01102 20.3588 1.05415 20.3159 1.078 20.2639C1.1037 20.2119 1.11654 20.0836 1.11654 19.8791V17.4252C1.11654 17.2207 1.1037 17.0925 1.078 17.0405C1.05415 16.9866 1.01102 16.9438 0.948626 16.9122C0.886231 16.8807 0.769698 16.8648 0.59903 16.8648V16.7617H2.22589C2.76176 16.7617 3.14621 16.8583 3.37929 17.0516C3.61235 17.245 3.72888 17.4867 3.72888 17.7766C3.72888 18.022 3.65364 18.2321 3.50315 18.4068C3.35267 18.5815 3.1453 18.7005 2.88105 18.7637C2.70303 18.8083 2.40207 18.8306 1.97815 18.8306ZM1.97815 16.9791V18.6132C2.03871 18.6169 2.08459 18.6188 2.11578 18.6188C2.33968 18.6188 2.51217 18.5519 2.6333 18.418C2.75441 18.2823 2.81498 18.0731 2.81498 17.7906C2.81498 17.5098 2.75441 17.3045 2.6333 17.1744C2.51217 17.0443 2.33141 16.9791 2.09101 16.9791H1.97815ZM4.08949 19.684C4.21795 19.684 4.32623 19.7295 4.41431 19.8206C4.50423 19.9117 4.54919 20.0213 4.54919 20.1496C4.54919 20.2779 4.50423 20.3876 4.41431 20.4786C4.32439 20.5679 4.21611 20.6125 4.08949 20.6125C3.96286 20.6125 3.85459 20.5679 3.76467 20.4786C3.67658 20.3876 3.63254 20.2779 3.63254 20.1496C3.63254 20.0213 3.67658 19.9117 3.76467 19.8206C3.85459 19.7295 3.96286 19.684 4.08949 19.684ZM8.35071 16.7617V17.785H8.25161C8.19288 17.549 8.12773 17.3797 8.05616 17.2774C7.98459 17.1734 7.88642 17.0906 7.76162 17.0293C7.69189 16.9959 7.56985 16.9791 7.39552 16.9791H7.11749V19.8958C7.11749 20.0891 7.12758 20.21 7.14777 20.2583C7.16978 20.3067 7.21107 20.3494 7.27164 20.3866C7.33404 20.4219 7.41846 20.4395 7.52488 20.4395H7.64876V20.5427H5.69432V20.4395H5.8182C5.92647 20.4395 6.01364 20.4201 6.0797 20.3811C6.12742 20.355 6.16505 20.3104 6.19258 20.2471C6.21275 20.2025 6.22285 20.0855 6.22285 19.8958V16.9791H5.95309C5.70166 16.9791 5.51907 17.0331 5.40529 17.1409C5.24564 17.2915 5.1447 17.5061 5.1025 17.785H4.99789V16.7617H8.35071ZM8.8407 19.684C8.96915 19.684 9.07742 19.7295 9.16552 19.8206C9.25544 19.9117 9.3004 20.0213 9.3004 20.1496C9.3004 20.2779 9.25544 20.3876 9.16552 20.4786C9.0756 20.5679 8.96731 20.6125 8.8407 20.6125C8.71407 20.6125 8.6058 20.5679 8.51587 20.4786C8.42778 20.3876 8.38374 20.2779 8.38374 20.1496C8.38374 20.0213 8.42778 19.9117 8.51587 19.8206C8.6058 19.7295 8.71407 19.684 8.8407 19.684Z" fill="white"/>
<path d="M33.808 10.1758L33.8837 13.3267H33.6015C33.4685 12.5366 33.1404 11.9023 32.6174 11.4236C32.099 10.9403 31.5369 10.6986 30.9313 10.6986C30.4634 10.6986 30.0917 10.8264 29.8164 11.082C29.5458 11.333 29.4105 11.6234 29.4105 11.9534C29.4105 12.1625 29.4586 12.3484 29.5549 12.5111C29.688 12.7295 29.9014 12.9456 30.1949 13.1594C30.4106 13.3127 30.9084 13.5846 31.6884 13.975C32.7803 14.5187 33.5165 15.0322 33.8974 15.5156C34.2736 15.999 34.4616 16.552 34.4616 17.1747C34.4616 17.9648 34.1565 18.6456 33.5465 19.2172C32.9408 19.7842 32.1701 20.0677 31.2341 20.0677C30.9406 20.0677 30.663 20.0375 30.4014 19.977C30.1399 19.9166 29.8118 19.8028 29.4174 19.6355C29.1971 19.5426 29.0159 19.4961 28.8737 19.4961C28.7544 19.4961 28.6282 19.5426 28.4952 19.6355C28.3622 19.7285 28.2543 19.8701 28.1717 20.0608H27.9171V16.4916H28.1717C28.3736 17.4953 28.7612 18.2622 29.3348 18.792C29.9128 19.3172 30.5345 19.5797 31.1998 19.5797C31.7136 19.5797 32.1219 19.4379 32.4247 19.1545C32.7321 18.871 32.8858 18.541 32.8858 18.1645C32.8858 17.9416 32.8261 17.7254 32.7069 17.5163C32.5921 17.3071 32.4155 17.1096 32.1769 16.9237C31.9384 16.7332 31.5163 16.4868 30.9106 16.1848C30.0619 15.7619 29.4517 15.4017 29.0802 15.1043C28.7085 14.8068 28.4218 14.4746 28.2199 14.1074C28.0226 13.7403 27.9239 13.336 27.9239 12.8945C27.9239 12.1416 28.1969 11.5003 28.7429 10.9705C29.2889 10.4407 29.9771 10.1758 30.8074 10.1758C31.1102 10.1758 31.4039 10.213 31.6884 10.2873C31.9039 10.3431 32.1654 10.4476 32.4729 10.601C32.7849 10.7497 33.0027 10.8241 33.1266 10.8241C33.2459 10.8241 33.3399 10.7869 33.4088 10.7125C33.4776 10.6382 33.5418 10.4593 33.6015 10.1758H33.808ZM43.9242 10.3919V12.9502H43.6764C43.5297 12.36 43.3667 11.9371 43.1878 11.6815C43.0089 11.4213 42.7635 11.2145 42.4514 11.0611C42.2772 10.9775 41.9721 10.9356 41.5363 10.9356H40.8411V18.2274C40.8411 18.7106 40.8663 19.0127 40.9168 19.1336C40.9719 19.2543 41.0751 19.3613 41.2265 19.4542C41.3825 19.5426 41.5936 19.5866 41.8596 19.5866H42.1693V19.8446H37.2833V19.5866H37.5929C37.8637 19.5866 38.0815 19.5378 38.2467 19.4403C38.3659 19.3752 38.46 19.2637 38.5289 19.1057C38.5794 18.9941 38.6046 18.7014 38.6046 18.2274V10.9356H37.9301C37.3016 10.9356 36.8451 11.0704 36.5607 11.3399C36.1615 11.7164 35.9092 12.2531 35.8037 12.9502H35.5422V10.3919H43.9242ZM48.2735 10.9356V14.7837H48.4594C49.0512 14.7837 49.4802 14.5954 49.7462 14.219C50.0123 13.8425 50.1821 13.2872 50.2555 12.5529H50.517V17.5024H50.2555C50.2004 16.9633 50.0834 16.5218 49.9045 16.1778C49.7301 15.8339 49.5259 15.6039 49.292 15.4877C49.058 15.3669 48.7186 15.3065 48.2735 15.3065V17.9694C48.2735 18.4899 48.2941 18.8082 48.3355 18.9245C48.3814 19.0406 48.4639 19.1359 48.5833 19.2103C48.7025 19.2847 48.8952 19.3218 49.1612 19.3218H49.7187C50.5904 19.3218 51.2877 19.1173 51.8108 18.7083C52.3384 18.2993 52.7168 17.6766 52.9462 16.8401H53.2008L52.7811 19.8446H44.7156V19.5866H45.0253C45.296 19.5866 45.5139 19.5378 45.6791 19.4403C45.7983 19.3752 45.8901 19.2637 45.9544 19.1057C46.0049 18.9941 46.0301 18.7014 46.0301 18.2274V12.0092C46.0301 11.5816 46.0186 11.319 45.9956 11.2214C45.9497 11.0588 45.8649 10.9333 45.741 10.845C45.5666 10.7149 45.3281 10.6498 45.0253 10.6498H44.7156V10.3919H52.5265V13.1873H52.265C52.1318 12.5041 51.9438 12.0138 51.7007 11.7164C51.4621 11.4189 51.1226 11.2005 50.6822 11.0611C50.4253 10.9775 49.9435 10.9356 49.2369 10.9356H48.2735ZM59.7868 14.3026L62.3606 18.1716C62.7873 18.8128 63.0901 19.2032 63.269 19.3427C63.4525 19.4775 63.6681 19.5588 63.9159 19.5866V19.8446H59.367V19.5866C59.7294 19.5588 59.9634 19.503 60.0689 19.4194C60.1744 19.3358 60.2273 19.2335 60.2273 19.1127C60.2273 19.029 60.2112 18.9547 60.1791 18.8895C60.1148 18.7502 59.9543 18.4899 59.6974 18.1088L58.3347 16.0663L56.9102 17.8299C56.4835 18.3644 56.2702 18.7269 56.2702 18.9174C56.2702 19.0523 56.3253 19.1776 56.4353 19.2939C56.5454 19.41 56.7084 19.4938 56.9239 19.5449C57.0203 19.5728 57.2176 19.5866 57.5157 19.5866V19.8446H53.9304V19.5866C54.3387 19.5263 54.6599 19.4148 54.8939 19.252C55.2012 19.0383 55.6302 18.5922 56.1807 17.9137L58.032 15.6271L55.6578 12.0928C55.2677 11.5119 55.0453 11.1889 54.9901 11.1238C54.8663 10.9705 54.7447 10.8613 54.6254 10.7962C54.5061 10.7311 54.341 10.6823 54.13 10.6498V10.3919H58.7614V10.6498H58.5274C58.2614 10.6498 58.0755 10.694 57.97 10.7823C57.8645 10.8659 57.8117 10.9728 57.8117 11.1029C57.8117 11.2052 57.8278 11.2935 57.8599 11.3678L58.3347 12.0928L59.4909 13.8774L60.4749 12.6575C60.9796 12.0301 61.232 11.5909 61.232 11.3399C61.232 11.2145 61.1952 11.0983 61.1219 10.9914C61.0531 10.8845 60.9521 10.8008 60.8191 10.7404C60.6861 10.68 60.4795 10.6498 60.1996 10.6498V10.3919H63.6337V10.6498C63.363 10.6545 63.1451 10.6893 62.9799 10.7544C62.8148 10.8148 62.6382 10.931 62.4501 11.1029C62.3308 11.2145 62.0325 11.5607 61.5555 12.1416L59.7868 14.3026Z" fill="white"/>
<path d="M53.3055 33.4293V33.5227H51.5396V33.4293H51.6517C51.7497 33.4293 51.8286 33.4116 51.8883 33.3764C51.9316 33.3528 51.9647 33.3124 51.9879 33.2553C52.0062 33.2149 52.0153 33.109 52.0153 32.9374V30.687C52.0153 30.5121 52.0062 30.4028 51.9879 30.359C51.9697 30.3154 51.9324 30.2774 51.8759 30.2455C51.8211 30.2119 51.7463 30.195 51.6517 30.195H51.5396V30.1018H53.3055V30.195H53.1934C53.0955 30.195 53.0165 30.2127 52.9568 30.2481C52.9136 30.2716 52.8796 30.312 52.8546 30.3691C52.8364 30.4095 52.8273 30.5155 52.8273 30.687V32.9374C52.8273 33.1122 52.8364 33.2217 52.8546 33.2653C52.8746 33.3091 52.912 33.3477 52.9667 33.3814C53.0232 33.4134 53.0988 33.4293 53.1934 33.4293H53.3055ZM54.6952 30.1018L56.3614 32.2234V30.7526C56.3614 30.5475 56.3324 30.4086 56.2742 30.3363C56.1945 30.2388 56.0608 30.1916 55.8733 30.195V30.1018H56.989V30.195C56.8462 30.2135 56.7499 30.2379 56.7002 30.2682C56.652 30.2967 56.6137 30.3447 56.5855 30.412C56.5589 30.4776 56.5457 30.5911 56.5457 30.7526V33.6009H56.461L54.1772 30.7526V32.9273C54.1772 33.1241 54.2212 33.2569 54.3091 33.3258C54.3988 33.3949 54.501 33.4293 54.6155 33.4293H54.6952V33.5227H53.4972V33.4293C53.6832 33.4277 53.8128 33.3889 53.8858 33.3133C53.9588 33.2376 53.9953 33.109 53.9953 32.9273V30.5129L53.9231 30.4221C53.8517 30.3313 53.7886 30.2716 53.7338 30.243C53.6791 30.2143 53.6002 30.1984 53.4972 30.195V30.1018H54.6952ZM57.1783 33.5227V33.4293H57.2904C57.3883 33.4293 57.4631 33.4142 57.5145 33.3839C57.5677 33.3519 57.6067 33.3091 57.6316 33.2553C57.6465 33.2199 57.654 33.114 57.654 32.9374V30.687C57.654 30.5121 57.6448 30.4028 57.6266 30.359C57.6083 30.3154 57.571 30.2774 57.5145 30.2455C57.4597 30.2119 57.385 30.195 57.2904 30.195H57.1783V30.1018H58.6901C59.0936 30.1018 59.4181 30.1572 59.6639 30.2682C59.9644 30.4044 60.1918 30.6104 60.3463 30.8863C60.5024 31.1622 60.5804 31.4741 60.5804 31.8223C60.5804 32.0628 60.5422 32.2849 60.4658 32.4883C60.3894 32.6902 60.2906 32.8574 60.1694 32.9904C60.0482 33.1215 59.9079 33.2275 59.7486 33.3083C59.5909 33.3873 59.3973 33.4486 59.1682 33.4924C59.067 33.5125 58.9075 33.5227 58.6901 33.5227H57.1783ZM58.4659 30.2959V32.9651C58.4659 33.1064 58.4725 33.193 58.4858 33.2249C58.4991 33.2569 58.5215 33.2814 58.553 33.2981C58.5979 33.3234 58.6627 33.336 58.7474 33.336C59.0246 33.336 59.2364 33.2402 59.3824 33.0483C59.5816 32.7893 59.6814 32.3874 59.6814 31.8424C59.6814 31.4035 59.6133 31.0529 59.4771 30.7904C59.3691 30.5853 59.2305 30.4456 59.0612 30.3717C58.9416 30.3194 58.7432 30.2943 58.4659 30.2959ZM62.7671 30.0538C63.3051 30.0336 63.7418 30.1926 64.0772 30.5306C64.4142 30.8686 64.5827 31.2916 64.5827 31.7996C64.5827 32.2335 64.4573 32.6153 64.2067 32.945C63.8746 33.3823 63.4055 33.6009 62.7995 33.6009C62.1918 33.6009 61.7219 33.3923 61.3898 32.9752C61.1275 32.6456 60.9964 32.2545 60.9964 31.802C60.9964 31.2942 61.1665 30.8712 61.5069 30.533C61.8489 30.1934 62.269 30.0336 62.7671 30.0538ZM62.7971 30.2153C62.4882 30.2153 62.2532 30.3751 62.0922 30.6946C61.961 30.957 61.8955 31.3336 61.8955 31.8247C61.8955 32.4085 61.9967 32.8399 62.1992 33.119C62.3404 33.3141 62.538 33.4116 62.792 33.4116C62.9631 33.4116 63.1058 33.3696 63.2204 33.2856C63.3665 33.1779 63.4803 33.0063 63.5616 32.7708C63.643 32.5337 63.6836 32.225 63.6836 31.845C63.6836 31.3925 63.6422 31.0545 63.5591 30.8308C63.4761 30.6054 63.3698 30.4464 63.2403 30.354C63.1125 30.2615 62.9647 30.2153 62.7971 30.2153ZM66.0372 30.1018L67.7034 32.2234V30.7526C67.7034 30.5475 67.6744 30.4086 67.6163 30.3363C67.5365 30.2388 67.4028 30.1916 67.2153 30.195V30.1018H68.331V30.195C68.1882 30.2135 68.092 30.2379 68.0422 30.2682C67.994 30.2967 67.9559 30.3447 67.9275 30.412C67.901 30.4776 67.8877 30.5911 67.8877 30.7526V33.6009H67.803L65.5192 30.7526V32.9273C65.5192 33.1241 65.5632 33.2569 65.6512 33.3258C65.7408 33.3949 65.843 33.4293 65.9575 33.4293H66.0372V33.5227H64.8392V33.4293C65.0252 33.4277 65.1548 33.3889 65.2278 33.3133C65.3008 33.2376 65.3373 33.109 65.3373 32.9273V30.5129L65.2651 30.4221C65.1937 30.3313 65.1306 30.2716 65.0759 30.243C65.0211 30.2143 64.9422 30.1984 64.8392 30.195V30.1018H66.0372ZM69.8428 30.2985V31.6911H69.9101C70.1242 31.6911 70.2795 31.623 70.3757 31.4867C70.4721 31.3505 70.5336 31.1495 70.5602 30.8837H70.6548V32.675H70.5602C70.5402 32.4798 70.4979 32.3201 70.433 32.1957C70.3699 32.0713 70.2961 31.9879 70.2114 31.9459C70.1267 31.9021 70.0039 31.8804 69.8428 31.8804V32.844C69.8428 33.0324 69.8502 33.1476 69.8653 33.1896C69.8818 33.2317 69.9117 33.2661 69.9549 33.2931C69.998 33.32 70.0678 33.3335 70.164 33.3335H70.3658C70.6814 33.3335 70.9337 33.2595 71.123 33.1114C71.3138 32.9635 71.4509 32.738 71.5338 32.4354H71.6261L71.4741 33.5227H68.5552V33.4293H68.6673C68.7653 33.4293 68.844 33.4116 68.9039 33.3764C68.947 33.3528 68.9803 33.3124 69.0035 33.2553C69.0218 33.2149 69.0309 33.109 69.0309 32.9374V30.687C69.0309 30.5322 69.0267 30.4372 69.0184 30.402C69.0018 30.3431 68.9712 30.2977 68.9263 30.2657C68.8632 30.2186 68.7768 30.195 68.6673 30.195H68.5552V30.1018H71.382V31.1134H71.2874C71.2392 30.8662 71.1712 30.6887 71.0831 30.581C70.9968 30.4734 70.8738 30.3944 70.7145 30.3439C70.6215 30.3136 70.4471 30.2985 70.1914 30.2985H69.8428ZM74.2512 30.0234L74.2785 31.1638H74.1764C74.1282 30.8779 74.0095 30.6483 73.8203 30.4751C73.6326 30.3001 73.4293 30.2127 73.2101 30.2127C73.0407 30.2127 72.9062 30.2589 72.8066 30.3514C72.7086 30.4422 72.6596 30.5475 72.6596 30.6668C72.6596 30.7424 72.6771 30.8097 72.712 30.8686C72.7601 30.9478 72.8373 31.0259 72.9435 31.1033C73.0216 31.1588 73.2018 31.2572 73.484 31.3985C73.8792 31.5952 74.1456 31.7811 74.2835 31.956C74.4196 32.1309 74.4877 32.3311 74.4877 32.5564C74.4877 32.8423 74.3773 33.0887 74.1565 33.2957C73.9373 33.5008 73.6584 33.6034 73.3196 33.6034C73.2133 33.6034 73.1129 33.5925 73.0183 33.5706C72.9236 33.5487 72.8048 33.5075 72.6622 33.447C72.5824 33.4134 72.5168 33.3965 72.4654 33.3965C72.4222 33.3965 72.3765 33.4134 72.3283 33.447C72.2803 33.4806 72.2412 33.532 72.2113 33.6009H72.1192V32.3092H72.2113C72.2844 32.6725 72.4247 32.95 72.6322 33.1417C72.8415 33.3318 73.0665 33.4269 73.3071 33.4269C73.4932 33.4269 73.641 33.3755 73.7505 33.2729C73.8618 33.1703 73.9173 33.0509 73.9173 32.9147C73.9173 32.8339 73.8957 32.7557 73.8526 32.68C73.8112 32.6044 73.7471 32.5329 73.6608 32.4656C73.5745 32.3966 73.4218 32.3076 73.2026 32.1981C72.8955 32.0452 72.6745 31.9148 72.5401 31.8072C72.4057 31.6995 72.3018 31.5792 72.2287 31.4463C72.1573 31.3135 72.1216 31.1672 72.1216 31.0074C72.1216 30.735 72.2204 30.5029 72.418 30.3111C72.6156 30.1193 72.8647 30.0234 73.1652 30.0234C73.2748 30.0234 73.3811 30.0369 73.484 30.0638C73.562 30.0841 73.6567 30.1219 73.7679 30.1774C73.8808 30.2312 73.9597 30.2581 74.0046 30.2581C74.0477 30.2581 74.0818 30.2447 74.1066 30.2177C74.1316 30.1908 74.1548 30.1261 74.1764 30.0234H74.2512ZM76.5623 33.4293V33.5227H74.7965V33.4293H74.9086C75.0066 33.4293 75.0854 33.4116 75.1453 33.3764C75.1883 33.3528 75.2216 33.3124 75.2449 33.2553C75.2631 33.2149 75.2722 33.109 75.2722 32.9374V30.687C75.2722 30.5121 75.2631 30.4028 75.2449 30.359C75.2266 30.3154 75.1893 30.2774 75.1328 30.2455C75.078 30.2119 75.0032 30.195 74.9086 30.195H74.7965V30.1018H76.5623V30.195H76.4502C76.3524 30.195 76.2734 30.2127 76.2137 30.2481C76.1705 30.2716 76.1364 30.312 76.1116 30.3691C76.0933 30.4095 76.0842 30.5155 76.0842 30.687V32.9374C76.0842 33.1122 76.0933 33.2217 76.1116 33.2653C76.1314 33.3091 76.1689 33.3477 76.2236 33.3814C76.28 33.4134 76.3556 33.4293 76.4502 33.4293H76.5623ZM78.8039 32.5489H77.6109L77.4689 32.8819C77.4224 32.9929 77.3992 33.0845 77.3992 33.1568C77.3992 33.2527 77.4373 33.3234 77.5137 33.3688C77.5585 33.3957 77.669 33.4159 77.845 33.4293V33.5227H76.7218V33.4293C76.843 33.4108 76.9426 33.3604 77.0205 33.278C77.0987 33.1938 77.1949 33.0214 77.3095 32.7608L78.5175 30.0311H78.5647L79.7827 32.8365C79.8988 33.1022 79.9944 33.2695 80.069 33.3385C80.1255 33.3907 80.2053 33.4209 80.3082 33.4293V33.5227H78.6744V33.4293H78.7416C78.8728 33.4293 78.9648 33.4108 79.018 33.3738C79.0545 33.3469 79.0728 33.3083 79.0728 33.2577C79.0728 33.2275 79.0678 33.1964 79.0579 33.1644C79.0545 33.1494 79.0297 33.0863 78.9831 32.9752L78.8039 32.5489ZM78.7192 32.3622L78.2161 31.1839L77.698 32.3622H78.7192Z" fill="white"/>
<mask id="mask0_5550_12905" style="mask-type:alpha" maskUnits="userSpaceOnUse" x="70" y="18" width="10" height="10">
<path fill-rule="evenodd" clip-rule="evenodd" d="M75.0022 27.5493C77.3487 27.5493 79.251 25.6223 79.251 23.2454C79.251 20.8684 77.3487 18.9414 75.0022 18.9414C72.6556 18.9414 70.7533 20.8684 70.7533 23.2454C70.7533 25.6223 72.6556 27.5493 75.0022 27.5493ZM75.0023 26.5759C76.8183 26.5759 78.2902 25.0847 78.2902 23.2454C78.2902 21.406 76.8183 19.9148 75.0023 19.9148C73.1865 19.9148 71.7144 21.406 71.7144 23.2454C71.7144 25.0847 73.1865 26.5759 75.0023 26.5759Z" fill="white"/>
</mask>
<g mask="url(#mask0_5550_12905)">
<path fill-rule="evenodd" clip-rule="evenodd" d="M75.0022 27.5493C77.3487 27.5493 79.251 25.6223 79.251 23.2454C79.251 20.8684 77.3487 18.9414 75.0022 18.9414C72.6556 18.9414 70.7533 20.8684 70.7533 23.2454C70.7533 25.6223 72.6556 27.5493 75.0022 27.5493ZM75.0023 26.5759C76.8183 26.5759 78.2902 25.0847 78.2902 23.2454C78.2902 21.406 76.8183 19.9148 75.0023 19.9148C73.1865 19.9148 71.7144 21.406 71.7144 23.2454C71.7144 25.0847 73.1865 26.5759 75.0023 26.5759Z" fill="white"/>
<path d="M79.1168 23.2446C79.1168 25.5465 77.2746 27.4126 75.0022 27.4126V27.6845C77.423 27.6845 79.3853 25.6967 79.3853 23.2446H79.1168ZM75.0022 19.0766C77.2746 19.0766 79.1168 20.9427 79.1168 23.2446H79.3853C79.3853 20.7925 77.423 18.8047 75.0022 18.8047V19.0766ZM70.8875 23.2446C70.8875 20.9427 72.7297 19.0766 75.0022 19.0766V18.8047C72.5815 18.8047 70.6191 20.7925 70.6191 23.2446H70.8875ZM75.0022 27.4126C72.7297 27.4126 70.8875 25.5465 70.8875 23.2446H70.6191C70.6191 25.6967 72.5815 27.6845 75.0022 27.6845V27.4126ZM78.156 23.2446C78.156 25.0089 76.7441 26.4392 75.0023 26.4392V26.7111C76.8924 26.7111 78.4245 25.1592 78.4245 23.2446H78.156ZM75.0023 20.05C76.7441 20.05 78.156 21.4803 78.156 23.2446H78.4245C78.4245 21.3302 76.8924 19.7781 75.0023 19.7781V20.05ZM71.8486 23.2446C71.8486 21.4803 73.2606 20.05 75.0023 20.05V19.7781C73.1124 19.7781 71.5802 21.3302 71.5802 23.2446H71.8486ZM75.0023 26.4392C73.2606 26.4392 71.8486 25.0089 71.8486 23.2446H71.5802C71.5802 25.1592 73.1124 26.7111 75.0023 26.7111V26.4392Z" fill="white"/>
</g>
</g>
<defs>
<clipPath id="clip0_5550_12905">
<rect width="80" height="34.4" fill="white" transform="translate(0.412109 0.753906)"/>
</clipPath>
</defs>
</svg>
