<svg width="26" height="20" viewBox="0 0 26 20" fill="none" xmlns="http://www.w3.org/2000/svg">
<path d="M15.7441 19.2711V19.2695V14.9993C15.7441 14.6817 15.6216 14.3744 15.3993 14.1456C15.1764 13.9164 14.8711 13.7849 14.5497 13.7849H11.7721C11.4507 13.7849 11.1454 13.9164 10.9226 14.1456C10.7002 14.3744 10.5778 14.6817 10.5778 14.9993V19.2727C10.5778 19.3338 10.5541 19.3898 10.5162 19.429C10.4788 19.4676 10.4311 19.4868 10.3844 19.4871C10.3844 19.4871 10.3843 19.4871 10.3843 19.4871L5.5235 19.5C5.52336 19.5 5.52321 19.5 5.52307 19.5C5.4763 19.4999 5.42853 19.4808 5.39102 19.4423C5.35293 19.4031 5.3291 19.347 5.3291 19.2856V12.1997L13.1506 5.57228C13.1557 5.56833 13.16 5.56754 13.1627 5.56754C13.1653 5.56754 13.1696 5.56833 13.1747 5.5723C13.175 5.5725 13.1752 5.57271 13.1755 5.57294L20.9945 12.1949V19.2856C20.9945 19.347 20.9707 19.4031 20.9326 19.4423C20.8951 19.4808 20.8473 19.4999 20.8006 19.5C20.8004 19.5 20.8003 19.5 20.8001 19.5L15.9399 19.4862H15.9385C15.9149 19.4862 15.8912 19.4814 15.8686 19.4717C15.846 19.4621 15.8245 19.4475 15.8058 19.4282C15.787 19.4088 15.7714 19.3851 15.7606 19.3579C15.7497 19.3308 15.744 19.3012 15.7441 19.2711ZM25.1465 10.1777L25.1491 10.1798C25.1515 10.1819 25.1544 10.1851 25.1569 10.1899C25.1594 10.1946 25.1612 10.2005 25.1619 10.207L25.6595 10.1585L25.1619 10.2071C25.1625 10.2136 25.1619 10.2202 25.1601 10.2261C25.1584 10.232 25.1557 10.2367 25.153 10.2401L24.0472 11.6232C24.0472 11.6232 24.0471 11.6232 24.0471 11.6233C24.0445 11.6266 24.0419 11.6284 24.0401 11.6294C24.0383 11.6304 24.0369 11.6307 24.0362 11.6308C24.0358 11.6308 24.0355 11.6308 24.0351 11.6308C24.0346 11.6307 24.034 11.6306 24.0333 11.6304C24.0321 11.63 24.0301 11.6291 24.0276 11.6271L24.0268 11.6263L13.8179 2.97597L13.8179 2.97595L13.8138 2.97256C13.6312 2.8211 13.4015 2.73692 13.1627 2.73692C12.9239 2.73692 12.6941 2.8211 12.5115 2.97256L12.5115 2.97254L12.5074 2.97598L2.299 11.6263L2.29848 11.6268C2.29606 11.6288 2.29406 11.6297 2.29284 11.6301C2.29166 11.6305 2.29075 11.6305 2.28998 11.6304C2.28919 11.6304 2.28786 11.6301 2.28605 11.6291C2.2842 11.6281 2.2816 11.6262 2.27891 11.6228L2.27888 11.6228L1.1722 10.2386L1.17128 10.2375C1.16857 10.2341 1.16593 10.2295 1.16417 10.2236C1.16241 10.2177 1.16172 10.2112 1.16232 10.2046C1.16293 10.198 1.16475 10.1922 1.16723 10.1874C1.16964 10.1827 1.17245 10.1794 1.17488 10.1773C1.17492 10.1773 1.17497 10.1772 1.17501 10.1772L12.1599 0.869888C12.1599 0.869845 12.16 0.869802 12.16 0.869758C12.4438 0.62962 12.7975 0.5 13.1605 0.5C13.5236 0.5 13.8774 0.629667 14.1611 0.869888L21.5183 7.10087L21.5185 7.10108L25.1465 10.1777Z" stroke="#007BFF"/>
</svg>
