<svg width="25" height="20" viewBox="0 0 25 20" fill="none" xmlns="http://www.w3.org/2000/svg">
<path d="M15.082 19.2711V19.2695V14.9993C15.082 14.6817 14.9595 14.3744 14.7371 14.1456C14.5143 13.9164 14.209 13.7849 13.8876 13.7849H11.11C10.7886 13.7849 10.4833 13.9164 10.2605 14.1456C10.0381 14.3744 9.91565 14.6817 9.91565 14.9993V19.2727C9.91565 19.3338 9.89197 19.3898 9.85408 19.429C9.8167 19.4676 9.76903 19.4868 9.72233 19.4871C9.72227 19.4871 9.72221 19.4871 9.72215 19.4871L4.86139 19.5C4.86125 19.5 4.8611 19.5 4.86096 19.5C4.8142 19.4999 4.76642 19.4808 4.72891 19.4423C4.69082 19.4031 4.667 19.347 4.667 19.2856V12.1997L12.4885 5.57228C12.4936 5.56833 12.4979 5.56754 12.5006 5.56754C12.5032 5.56754 12.5075 5.56833 12.5126 5.57229C12.5129 5.5725 12.5131 5.57271 12.5134 5.57294L20.3324 12.1949V19.2856C20.3324 19.347 20.3085 19.4031 20.2705 19.4423C20.233 19.4808 20.1852 19.4999 20.1385 19.5C20.1383 19.5 20.1382 19.5 20.138 19.5L15.2778 19.4862H15.2764C15.2528 19.4862 15.2291 19.4814 15.2065 19.4717C15.1839 19.4621 15.1624 19.4475 15.1437 19.4282C15.1249 19.4088 15.1093 19.3851 15.0985 19.3579C15.0876 19.3308 15.0819 19.3012 15.082 19.2711ZM24.4844 10.1777L24.4869 10.1798C24.4894 10.1819 24.4923 10.1851 24.4948 10.1898C24.4973 10.1946 24.4991 10.2005 24.4998 10.2071C24.5004 10.2136 24.4997 10.2202 24.498 10.2261C24.4963 10.232 24.4936 10.2367 24.4909 10.2401L23.3851 11.6232C23.385 11.6232 23.385 11.6233 23.3849 11.6234C23.3823 11.6266 23.3798 11.6284 23.378 11.6294C23.3761 11.6304 23.3748 11.6307 23.3741 11.6308C23.3733 11.6308 23.3724 11.6308 23.3712 11.6304C23.3708 11.6303 23.3704 11.6301 23.3699 11.6299C23.3687 11.6294 23.3672 11.6285 23.3655 11.6271L23.3646 11.6263L13.1558 2.97597L13.1558 2.97595L13.1517 2.97256C12.9691 2.8211 12.7394 2.73692 12.5006 2.73692C12.2618 2.73692 12.032 2.8211 11.8494 2.97256L11.8494 2.97254L11.8453 2.97598L1.63689 11.6263L1.63637 11.6268C1.63395 11.6288 1.63195 11.6297 1.63074 11.6301C1.62955 11.6305 1.62864 11.6305 1.62786 11.6304C1.62749 11.6304 1.627 11.6303 1.6264 11.6301C1.62572 11.6299 1.6249 11.6296 1.62394 11.6291C1.62209 11.6281 1.61949 11.6262 1.6168 11.6228L1.61677 11.6228L0.510086 10.2386L0.509169 10.2375C0.506457 10.2341 0.503824 10.2295 0.502064 10.2236C0.500299 10.2177 0.49961 10.2112 0.500215 10.2046C0.500819 10.198 0.502641 10.1922 0.505117 10.1874C0.507536 10.1827 0.510346 10.1794 0.512769 10.1773C0.512814 10.1773 0.512858 10.1773 0.512902 10.1772L11.4978 0.869888C11.4978 0.869845 11.4979 0.869802 11.4979 0.869758C11.7816 0.62962 12.1354 0.5 12.4984 0.5C12.8615 0.5 13.2152 0.629667 13.499 0.869888L20.8562 7.10087L20.8564 7.10108L24.4844 10.1777Z" stroke="white"/>
</svg>
