<svg width="41" height="41" viewBox="0 0 41 41" fill="none" xmlns="http://www.w3.org/2000/svg">
<path fill-rule="evenodd" clip-rule="evenodd" d="M9.25523 9.33305H17.3813V17.4237H9.25523V9.33305ZM12.1507 0.710942H8.09252C7.12293 0.709834 6.16278 0.901425 5.26787 1.27458C4.366 1.64815 3.54634 2.19532 2.85549 2.88499C2.16601 3.576 1.61887 4.39562 1.24508 5.29737C0.863196 6.19705 0.664992 7.16398 0.662119 8.14135V13.1561H3.95701V8.14135C3.96039 7.59931 4.06981 7.06317 4.27909 6.56315C4.48449 6.06074 4.78776 5.60419 5.17125 5.22007C5.94645 4.44621 6.99717 4.01179 8.09252 4.01227H12.1507V0.710942ZM32.722 0.710942H30.0713V4.00583H32.722C33.264 4.00954 33.8001 4.11895 34.3002 4.32791C34.8009 4.53662 35.2568 4.83949 35.6433 5.22007L35.756 5.33602C36.0888 5.69699 36.3559 6.11338 36.5451 6.56637C36.7559 7.06481 36.8654 7.60019 36.8672 8.14135V13.1561H40.1621V8.14135C40.1629 6.22793 39.4217 4.38876 38.0944 3.0106L37.9752 2.89143C37.2842 2.20195 36.4646 1.65481 35.5628 1.28103C34.6632 0.903976 33.6975 0.710166 32.722 0.710942ZM40.1525 32.8578V27.289H36.8576V32.8578C36.8557 33.399 36.7462 33.9344 36.5355 34.4328C36.3245 34.9345 36.0182 35.3907 35.6337 35.7759C35.2513 36.1609 34.7967 36.4666 34.296 36.6755C33.7952 36.8844 33.2582 36.9924 32.7156 36.9933H30.0713V40.2882H32.722C33.6973 40.2875 34.6628 40.0942 35.5631 39.7195C36.4635 39.3448 37.281 38.796 37.9687 38.1045C38.6571 37.4126 39.204 36.5932 39.5791 35.6921C39.9513 34.7935 40.1428 33.8304 40.1428 32.8578H40.1525ZM8.09252 40.2882H12.1507V36.9933H8.09252C7.5494 36.9928 7.01173 36.885 6.51041 36.6761C6.00908 36.4672 5.55398 36.1612 5.17125 35.7759L5.08751 35.6986C4.72641 35.3179 4.44112 34.8719 4.24688 34.3845C4.05249 33.899 3.953 33.3808 3.95378 32.8578V27.289H0.662119V32.8578C0.660616 33.8041 0.843304 34.7416 1.19999 35.6181C1.55549 36.5028 2.07945 37.3101 2.74276 37.995L2.84261 38.1077C3.53478 38.7973 4.35547 39.3444 5.25821 39.7181C6.15642 40.0916 7.11978 40.2831 8.09252 40.2818V40.2882ZM29.5173 29.6274H31.5819V31.6661H29.5173V29.6274ZM25.5364 29.6274H27.6106V31.5598H23.4654V27.595H25.4623V25.582H27.5043V21.5689H29.585V23.54H31.5561V25.5788H29.585V27.6176H25.5364V29.6241V29.6274ZM19.3879 25.5498H21.3945V23.511H19.462V21.4723H21.3945V19.4335H19.4201V21.4723H17.3459V19.4335H19.3847V13.3784H21.4557V19.4303H23.4622V21.469H25.4366V19.4303H27.5076V21.469H25.5364V23.5078H23.4654V27.5209H21.4589V31.5695H19.3879V25.5498ZM29.4851 19.4303H31.5561V21.469H29.4851V19.4303ZM13.3038 19.4303H15.3748V21.469H13.3038V19.4303ZM9.25523 19.4303H11.3262V21.469H9.25523V19.4303ZM19.3879 9.33305H21.4589V11.3718H19.3879V9.33305ZM9.22303 23.54H17.3459V31.6307H9.22303V23.54ZM11.1974 25.5112H15.3844V29.6692H11.1974V25.5112ZM23.4365 9.33627H31.5561V17.4237H23.4332V9.33305L23.4365 9.33627ZM25.4108 11.301H29.5979V15.459H25.4108V11.2977V11.301ZM11.2393 11.301H15.4263V15.459H11.2393V11.2977V11.301Z" fill="white"/>
</svg>
