<svg width="29" height="20" viewBox="0 0 29 20" fill="none" xmlns="http://www.w3.org/2000/svg">
<path d="M7.0192 5.71429C7.0192 7.01404 5.96181 8.07143 4.66206 8.07143C3.36231 8.07143 2.30491 7.01404 2.30491 5.71429C2.30491 4.41454 3.36231 3.35714 4.66206 3.35714C5.96181 3.35714 7.0192 4.41454 7.0192 5.71429ZM27.0192 5.71429C27.0192 7.01404 25.9618 8.07143 24.6621 8.07143C23.3623 8.07143 22.3049 7.01404 22.3049 5.71429C22.3049 4.41454 23.3623 3.35714 24.6621 3.35714C25.9618 3.35714 27.0192 4.41454 27.0192 5.71429ZM24.9978 15.2143C24.6409 13.3821 23.5797 11.8158 22.102 10.7891C22.438 10.6045 22.8231 10.5 23.2335 10.5H26.0906C27.3904 10.5 28.4478 11.5574 28.4478 12.8571V14.2857C28.4478 14.7998 28.0332 15.2143 27.5192 15.2143H24.9978ZM19.1621 5C19.1621 7.48725 17.1493 9.5 14.6621 9.5C12.1748 9.5 10.1621 7.48725 10.1621 5C10.1621 2.51275 12.1748 0.5 14.6621 0.5C17.1493 0.5 19.1621 2.51275 19.1621 5ZM14.6621 12.6429C15.8016 12.6429 16.8703 12.3745 17.8322 11.9286H18.0906C20.6538 11.9286 22.7335 14.0083 22.7335 16.5714V17.8571C22.7335 18.764 21.9975 19.5 21.0906 19.5H8.23349C7.32659 19.5 6.59063 18.764 6.59063 17.8571V16.5714C6.59063 14.0083 8.67034 11.9286 11.2335 11.9286H11.4924C12.4573 12.3741 13.5218 12.6429 14.6621 12.6429ZM6.09063 10.5C6.50101 10.5 6.88608 10.6045 7.22215 10.7891C5.74417 11.816 4.68276 13.3824 4.32266 15.2143H1.80491C1.29088 15.2143 0.876343 14.7998 0.876343 14.2857V12.8571C0.876343 11.5574 1.93374 10.5 3.23349 10.5H6.09063Z" stroke="#007BFF"/>
</svg>
