<svg width="29" height="21" viewBox="0 0 29 21" fill="none" xmlns="http://www.w3.org/2000/svg">
<path d="M4.66206 9.07143C6.23795 9.07143 7.5192 7.79018 7.5192 6.21429C7.5192 4.63839 6.23795 3.35714 4.66206 3.35714C3.08616 3.35714 1.80491 4.63839 1.80491 6.21429C1.80491 7.79018 3.08616 9.07143 4.66206 9.07143ZM24.6621 9.07143C26.238 9.07143 27.5192 7.79018 27.5192 6.21429C27.5192 4.63839 26.238 3.35714 24.6621 3.35714C23.0862 3.35714 21.8049 4.63839 21.8049 6.21429C21.8049 7.79018 23.0862 9.07143 24.6621 9.07143ZM26.0906 10.5H23.2335C22.4478 10.5 21.7379 10.817 21.2201 11.3304C23.0192 12.317 24.296 14.0982 24.5728 16.2143H27.5192C28.3094 16.2143 28.9478 15.5759 28.9478 14.7857V13.3571C28.9478 11.7812 27.6665 10.5 26.0906 10.5ZM14.6621 10.5C17.4255 10.5 19.6621 8.26339 19.6621 5.5C19.6621 2.73661 17.4255 0.5 14.6621 0.5C11.8987 0.5 9.66206 2.73661 9.66206 5.5C9.66206 8.26339 11.8987 10.5 14.6621 10.5ZM18.0906 11.9286H17.7201C16.7915 12.375 15.7603 12.6429 14.6621 12.6429C13.5638 12.6429 12.5371 12.375 11.604 11.9286H11.2335C8.3942 11.9286 6.09063 14.2321 6.09063 17.0714V18.3571C6.09063 19.5402 7.05045 20.5 8.23349 20.5H21.0906C22.2737 20.5 23.2335 19.5402 23.2335 18.3571V17.0714C23.2335 14.2321 20.9299 11.9286 18.0906 11.9286ZM8.10402 11.3304C7.58616 10.817 6.87634 10.5 6.09063 10.5H3.23349C1.65759 10.5 0.376343 11.7812 0.376343 13.3571V14.7857C0.376343 15.5759 1.01474 16.2143 1.80491 16.2143H4.74688C5.02813 14.0982 6.30491 12.317 8.10402 11.3304Z" fill="#007BFF"/>
</svg>
