<svg width="46" height="46" viewBox="0 0 46 46" fill="none" xmlns="http://www.w3.org/2000/svg">
<g clip-path="url(#clip0_2997_17391)">
<path d="M23.3008 0.291016C10.873 0.291016 0.800781 10.3633 0.800781 22.791C0.800781 35.2188 10.873 45.291 23.3008 45.291C35.7285 45.291 45.8008 35.2188 45.8008 22.791C45.8008 10.3633 35.7285 0.291016 23.3008 0.291016ZM23.3008 35.4473C21.7188 35.4473 20.4883 34.2168 20.4883 32.6348C20.4883 31.0527 21.6396 29.8223 23.3008 29.8223C24.8037 29.8223 26.1133 31.0527 26.1133 32.6348C26.1133 34.2168 24.8037 35.4473 23.3008 35.4473ZM29.374 22.9668L25.4102 25.4277V25.6035C25.4102 26.7461 24.4434 27.7129 23.3008 27.7129C22.1582 27.7129 21.1914 26.7461 21.1914 25.6035V24.1973C21.1914 23.4941 21.543 22.791 22.2461 22.3516L27.2559 19.3633C27.8711 19.0117 28.2227 18.3965 28.2227 17.6934C28.2227 16.6387 27.2646 15.7598 26.21 15.7598H21.7188C20.585 15.7598 19.7852 16.6387 19.7852 17.6934C19.7852 18.8359 18.8184 19.8027 17.6758 19.8027C16.5332 19.8027 15.5664 18.8359 15.5664 17.6934C15.5664 14.2656 18.291 11.541 21.6396 11.541H26.1309C29.7168 11.541 32.4414 14.2656 32.4414 17.6934C32.4414 19.8027 31.2988 21.8242 29.374 22.9668Z" fill="white"/>
</g>
<defs>
<clipPath id="clip0_2997_17391">
<rect width="45" height="45" fill="white" transform="translate(0.800781 0.291016)"/>
</clipPath>
</defs>
</svg>
