<svg width="80" height="80" viewBox="0 0 80 80" fill="none" xmlns="http://www.w3.org/2000/svg">
<g filter="url(#filter0_d_7_2392)">
<rect x="10" y="10" width="60" height="60" rx="30" fill="#007BFF" shape-rendering="crispEdges"/>
<path d="M40.0276 25C35.3507 25 32.3214 26.9162 29.9432 30.3336C29.5118 30.9535 29.6448 31.8034 30.2466 32.2598L32.7742 34.1763C33.382 34.6371 34.2468 34.5294 34.7226 33.9333C36.1903 32.0945 37.2791 31.0359 39.5717 31.0359C41.3742 31.0359 43.6038 32.196 43.6038 33.9439C43.6038 35.2653 42.513 35.944 40.7332 36.9418C38.6576 38.1055 35.911 39.5537 35.911 43.1765V43.75C35.911 44.5267 36.5405 45.1562 37.3172 45.1562H41.5636C42.3402 45.1562 42.9698 44.5267 42.9698 43.75V43.4117C42.9698 40.9004 50.3097 40.7958 50.3097 34C50.3098 28.8822 45.0011 25 40.0276 25ZM39.4404 46.8824C37.2024 46.8824 35.3816 48.7032 35.3816 50.9412C35.3816 53.1792 37.2024 55 39.4404 55C41.6785 55 43.4993 53.1792 43.4993 50.9412C43.4993 48.7031 41.6785 46.8824 39.4404 46.8824Z" fill="white"/>
<rect x="11.5" y="11.5" width="57" height="57" rx="28.5" stroke="white" stroke-width="3" shape-rendering="crispEdges"/>
</g>
<defs>
<filter id="filter0_d_7_2392" x="0" y="0" width="80" height="80" filterUnits="userSpaceOnUse" color-interpolation-filters="sRGB">
<feFlood flood-opacity="0" result="BackgroundImageFix"/>
<feColorMatrix in="SourceAlpha" type="matrix" values="0 0 0 0 0 0 0 0 0 0 0 0 0 0 0 0 0 0 127 0" result="hardAlpha"/>
<feOffset/>
<feGaussianBlur stdDeviation="5"/>
<feComposite in2="hardAlpha" operator="out"/>
<feColorMatrix type="matrix" values="0 0 0 0 0.55 0 0 0 0 0.767059 0 0 0 0 1 0 0 0 1 0"/>
<feBlend mode="normal" in2="BackgroundImageFix" result="effect1_dropShadow_7_2392"/>
<feBlend mode="normal" in="SourceGraphic" in2="effect1_dropShadow_7_2392" result="shape"/>
</filter>
</defs>
</svg>
