<svg width="238" height="230" viewBox="0 0 238 230" fill="none" xmlns="http://www.w3.org/2000/svg">
<mask id="mask0_3589_37653" style="mask-type:alpha" maskUnits="userSpaceOnUse" x="0" y="0" width="238" height="230">
<rect width="238" height="230" fill="#D9D9D9"/>
</mask>
<g mask="url(#mask0_3589_37653)">
<path opacity="0.7" d="M26.452 73.8521C26.452 73.8521 11.9544 111.292 32.328 148.992C52.7016 186.692 94.6656 206.608 128.252 223.638C161.839 240.668 196.716 232.374 213.288 204.481C229.86 176.589 207.131 156.678 207.1 116.903C207.069 77.1281 213.054 66.5981 191.5 32.9957C169.946 -0.606673 117.109 -8.04787 77.152 16.8757C37.1952 41.7993 26.452 73.8521 26.452 73.8521Z" fill="white"/>
<path d="M1.41353 132.674C-1.27386 120.243 -0.111203 107.289 4.74673 95.5355C11.4079 79.0931 25.6871 67.4139 41.6927 60.5967C64.9575 50.7167 87.7959 50.5035 106.693 31.0919C112.522 25.1015 117.42 18.2427 123.374 12.3719C140.95 -4.92326 166.67 -2.82766 185.873 10.8899C225.913 39.4899 240.348 96.1699 238.118 143.001C237.119 164.025 227.083 183.592 211.197 197.383C175.27 228.583 114.269 223.331 73.0019 207.044C42.2491 194.913 8.64153 166.588 1.41353 132.674Z" fill="#5BAAFF"/>
<path opacity="0.7" d="M1.41353 132.674C-1.27386 120.243 -0.111203 107.289 4.74673 95.5355C11.4079 79.0931 25.6871 67.4139 41.6927 60.5967C64.9575 50.7167 87.7959 50.5035 106.693 31.0919C112.522 25.1015 117.42 18.2427 123.374 12.3719C140.95 -4.92326 166.67 -2.82766 185.873 10.8899C225.913 39.4899 240.348 96.1699 238.118 143.001C237.119 164.025 227.083 183.592 211.197 197.383C175.27 228.583 114.269 223.331 73.0019 207.044C42.2491 194.913 8.64153 166.588 1.41353 132.674Z" fill="white"/>
<path d="M121.617 42.5898V46.0426" stroke="#263238" stroke-width="1.10721" stroke-linecap="round" stroke-linejoin="round"/>
<path d="M121.617 49.7695V55.3595" stroke="#263238" stroke-width="1.10721" stroke-linecap="round" stroke-linejoin="round" stroke-dasharray="7.17 7.17"/>
<path d="M121.617 57.2227V60.6755" stroke="#263238" stroke-width="1.10721" stroke-linecap="round" stroke-linejoin="round"/>
<path d="M176.722 101.043H173.27" stroke="#263238" stroke-width="1.10721" stroke-linecap="round" stroke-linejoin="round"/>
<path d="M169.541 101.043H163.951" stroke="#263238" stroke-width="1.10721" stroke-linecap="round" stroke-linejoin="round" stroke-dasharray="7.17 7.17"/>
<path d="M162.09 101.043H158.637" stroke="#263238" stroke-width="1.10721" stroke-linecap="round" stroke-linejoin="round"/>
<path d="M84.6045 101.043H81.1465" stroke="#263238" stroke-width="1.10721" stroke-linecap="round" stroke-linejoin="round"/>
<path d="M77.422 101.043H71.832" stroke="#263238" stroke-width="1.10721" stroke-linecap="round" stroke-linejoin="round" stroke-dasharray="7.17 7.17"/>
<path d="M69.9717 101.043H66.5137" stroke="#263238" stroke-width="1.10721" stroke-linecap="round" stroke-linejoin="round"/>
<path d="M216.809 112.754C216.809 112.512 216.904 112.281 217.075 112.11C217.246 111.94 217.477 111.844 217.719 111.844C217.96 111.844 218.191 111.94 218.362 112.11C218.533 112.281 218.629 112.512 218.629 112.754V114.74C218.629 114.982 218.533 115.213 218.362 115.384C218.191 115.554 217.96 115.65 217.719 115.65C217.477 115.65 217.246 115.554 217.075 115.384C216.904 115.213 216.809 114.982 216.809 114.74V112.754ZM217.407 114.777C217.407 115.047 217.526 115.151 217.719 115.151C217.911 115.151 218.025 115.047 218.025 114.777V112.697C218.025 112.426 217.906 112.322 217.719 112.322C217.531 112.322 217.407 112.426 217.407 112.697V114.777Z" fill="#263238"/>
<path d="M217.234 117.764C217.384 117.782 217.535 117.743 217.657 117.654C217.778 117.565 217.862 117.433 217.89 117.285H218.295V121.123H217.697V118.216H217.234V117.764Z" fill="#263238"/>
<path d="M216.809 123.648C216.809 123.407 216.904 123.175 217.075 123.005C217.246 122.834 217.477 122.738 217.719 122.738C217.96 122.738 218.191 122.834 218.362 123.005C218.533 123.175 218.629 123.407 218.629 123.648V125.629C218.629 125.871 218.533 126.102 218.362 126.273C218.191 126.444 217.96 126.539 217.719 126.539C217.477 126.539 217.246 126.444 217.075 126.273C216.904 126.102 216.809 125.871 216.809 125.629V123.648ZM217.407 125.671C217.407 125.941 217.526 126.045 217.719 126.045C217.911 126.045 218.025 125.941 218.025 125.671V123.591C218.025 123.315 217.906 123.217 217.719 123.217C217.531 123.217 217.407 123.315 217.407 123.591V125.671Z" fill="#263238"/>
<path d="M217.234 128.658C217.384 128.677 217.535 128.637 217.657 128.549C217.778 128.46 217.862 128.328 217.89 128.18H218.295V131.986H217.697V129.079H217.234V128.658Z" fill="#263238"/>
<path d="M216.809 134.539C216.809 134.298 216.904 134.066 217.075 133.895C217.246 133.725 217.477 133.629 217.719 133.629C217.96 133.629 218.191 133.725 218.362 133.895C218.533 134.066 218.629 134.298 218.629 134.539V136.52C218.629 136.761 218.533 136.993 218.362 137.164C218.191 137.334 217.96 137.43 217.719 137.43C217.477 137.43 217.246 137.334 217.075 137.164C216.904 136.993 216.809 136.761 216.809 136.52V134.539ZM217.407 136.557C217.407 136.832 217.526 136.931 217.719 136.931C217.911 136.931 218.025 136.832 218.025 136.557V134.477C218.025 134.206 217.906 134.102 217.719 134.102C217.531 134.102 217.407 134.206 217.407 134.477V136.557Z" fill="#263238"/>
<path d="M217.234 139.549C217.384 139.567 217.535 139.528 217.657 139.439C217.778 139.35 217.862 139.218 217.89 139.07H218.295V142.882H217.697V139.975H217.234V139.549Z" fill="#263238"/>
<path d="M216.809 145.43C216.809 145.188 216.904 144.957 217.075 144.786C217.246 144.615 217.477 144.52 217.719 144.52C217.96 144.52 218.191 144.615 218.362 144.786C218.533 144.957 218.629 145.188 218.629 145.43V147.416C218.629 147.657 218.533 147.889 218.362 148.059C218.191 148.23 217.96 148.326 217.719 148.326C217.477 148.326 217.246 148.23 217.075 148.059C216.904 147.889 216.809 147.657 216.809 147.416V145.43ZM217.407 147.452C217.407 147.723 217.526 147.827 217.719 147.827C217.911 147.827 218.025 147.723 218.025 147.452V145.372C218.025 145.102 217.906 144.998 217.719 144.998C217.531 144.998 217.407 145.102 217.407 145.372V147.452Z" fill="#263238"/>
<path d="M216.809 150.879C216.809 150.637 216.904 150.406 217.075 150.235C217.246 150.065 217.477 149.969 217.719 149.969C217.96 149.969 218.191 150.065 218.362 150.235C218.533 150.406 218.629 150.637 218.629 150.879V152.844C218.629 153.086 218.533 153.317 218.362 153.488C218.191 153.658 217.96 153.754 217.719 153.754C217.477 153.754 217.246 153.658 217.075 153.488C216.904 153.317 216.809 153.086 216.809 152.844V150.879ZM217.407 152.896C217.407 153.172 217.526 153.271 217.719 153.271C217.911 153.271 218.025 153.172 218.025 152.896V150.816C218.025 150.541 217.906 150.437 217.719 150.437C217.531 150.437 217.407 150.541 217.407 150.816V152.896Z" fill="#263238"/>
<path d="M216.809 156.324C216.809 156.083 216.904 155.851 217.075 155.681C217.246 155.51 217.477 155.414 217.719 155.414C217.96 155.414 218.191 155.51 218.362 155.681C218.533 155.851 218.629 156.083 218.629 156.324V158.305C218.629 158.547 218.533 158.778 218.362 158.949C218.191 159.119 217.96 159.215 217.719 159.215C217.477 159.215 217.246 159.119 217.075 158.949C216.904 158.778 216.809 158.547 216.809 158.305V156.324ZM217.407 158.347C217.407 158.617 217.526 158.721 217.719 158.721C217.911 158.721 218.025 158.617 218.025 158.347V156.267C218.025 155.996 217.906 155.892 217.719 155.892C217.531 155.892 217.407 155.996 217.407 156.267V158.347Z" fill="#263238"/>
<path d="M217.234 166.779C217.384 166.798 217.535 166.758 217.657 166.67C217.778 166.581 217.862 166.449 217.89 166.301H218.295V170.112H217.697V167.206H217.234V166.779Z" fill="#263238"/>
<path d="M217.234 172.23C217.385 172.249 217.537 172.21 217.659 172.12C217.781 172.03 217.864 171.896 217.89 171.746H218.295V175.558H217.697V172.651H217.234V172.23Z" fill="#263238"/>
<path d="M217.234 177.674C217.384 177.692 217.535 177.653 217.657 177.564C217.778 177.475 217.862 177.343 217.89 177.195H218.295V181.002H217.697V178.1H217.234V177.674Z" fill="#263238"/>
<path d="M216.809 183.555C216.809 183.313 216.904 183.082 217.075 182.911C217.246 182.74 217.477 182.645 217.719 182.645C217.96 182.645 218.191 182.74 218.362 182.911C218.533 183.082 218.629 183.313 218.629 183.555V185.536C218.629 185.777 218.533 186.009 218.362 186.179C218.191 186.35 217.96 186.446 217.719 186.446C217.477 186.446 217.246 186.35 217.075 186.179C216.904 186.009 216.809 185.777 216.809 185.536V183.555ZM217.407 185.572C217.407 185.848 217.526 185.947 217.719 185.947C217.911 185.947 218.025 185.848 218.025 185.572V183.523C218.025 183.248 217.906 183.144 217.719 183.144C217.531 183.144 217.407 183.248 217.407 183.523V185.572Z" fill="#263238"/>
<path d="M216.809 189C216.809 188.758 216.904 188.527 217.075 188.356C217.246 188.186 217.477 188.09 217.719 188.09C217.96 188.09 218.191 188.186 218.362 188.356C218.533 188.527 218.629 188.758 218.629 189V190.981C218.629 191.222 218.533 191.454 218.362 191.625C218.191 191.795 217.96 191.891 217.719 191.891C217.477 191.891 217.246 191.795 217.075 191.625C216.904 191.454 216.809 191.222 216.809 190.981V189ZM217.407 191.023C217.407 191.293 217.526 191.397 217.719 191.397C217.911 191.397 218.025 191.293 218.025 191.023V188.943C218.025 188.672 217.906 188.568 217.719 188.568C217.531 188.568 217.407 188.672 217.407 188.943V191.023Z" fill="#263238"/>
<path d="M217.234 194.014C217.384 194.032 217.535 193.993 217.657 193.904C217.778 193.815 217.862 193.683 217.89 193.535H218.295V197.342H217.697V194.445H217.234V194.014Z" fill="#263238"/>
<path d="M220.449 106.873C220.599 106.892 220.751 106.853 220.874 106.764C220.996 106.675 221.08 106.543 221.11 106.395H221.51V110.206H220.912V107.299H220.449V106.873Z" fill="#263238"/>
<path d="M220.449 112.322C220.599 112.341 220.751 112.302 220.874 112.213C220.996 112.124 221.08 111.992 221.11 111.844H221.51V115.65H220.912V112.743H220.449V112.322Z" fill="#263238"/>
<path d="M220.053 123.647C220.044 123.522 220.06 123.396 220.102 123.278C220.143 123.16 220.208 123.051 220.293 122.959C220.379 122.867 220.482 122.794 220.597 122.744C220.712 122.694 220.835 122.668 220.961 122.668C221.086 122.668 221.21 122.694 221.325 122.744C221.44 122.794 221.543 122.867 221.628 122.959C221.713 123.051 221.779 123.16 221.82 123.278C221.861 123.396 221.878 123.522 221.868 123.647V125.628C221.878 125.753 221.861 125.878 221.82 125.997C221.779 126.115 221.713 126.223 221.628 126.315C221.543 126.407 221.44 126.481 221.325 126.531C221.21 126.581 221.086 126.607 220.961 126.607C220.835 126.607 220.712 126.581 220.597 126.531C220.482 126.481 220.379 126.407 220.293 126.315C220.208 126.223 220.143 126.115 220.102 125.997C220.06 125.878 220.044 125.753 220.053 125.628V123.647ZM220.651 125.67C220.651 125.94 220.771 126.044 220.958 126.044C221.145 126.044 221.27 125.94 221.27 125.67V123.59C221.27 123.314 221.151 123.215 220.958 123.215C220.766 123.215 220.651 123.314 220.651 123.59V125.67Z" fill="#263238"/>
<path d="M220.449 139.549C220.599 139.567 220.751 139.528 220.874 139.44C220.996 139.351 221.08 139.219 221.11 139.07H221.51V142.882H220.912V139.975H220.449V139.549Z" fill="#263238"/>
<path d="M220.053 145.428C220.044 145.303 220.06 145.177 220.102 145.059C220.143 144.941 220.208 144.832 220.293 144.741C220.379 144.649 220.482 144.575 220.597 144.525C220.712 144.475 220.835 144.449 220.961 144.449C221.086 144.449 221.21 144.475 221.325 144.525C221.44 144.575 221.543 144.649 221.628 144.741C221.713 144.832 221.779 144.941 221.82 145.059C221.861 145.177 221.878 145.303 221.868 145.428V147.414C221.878 147.539 221.861 147.665 221.82 147.783C221.779 147.901 221.713 148.01 221.628 148.102C221.543 148.194 221.44 148.267 221.325 148.317C221.21 148.367 221.086 148.393 220.961 148.393C220.835 148.393 220.712 148.367 220.597 148.317C220.482 148.267 220.379 148.194 220.293 148.102C220.208 148.01 220.143 147.901 220.102 147.783C220.06 147.665 220.044 147.539 220.053 147.414V145.428ZM220.651 147.451C220.651 147.721 220.771 147.825 220.958 147.825C221.145 147.825 221.27 147.721 221.27 147.451V145.371C221.27 145.1 221.151 144.996 220.958 144.996C220.766 144.996 220.651 145.1 220.651 145.371V147.451Z" fill="#263238"/>
<path d="M220.449 150.443C220.599 150.462 220.751 150.423 220.874 150.334C220.996 150.245 221.08 150.113 221.11 149.965H221.51V153.776H220.912V150.87H220.449V150.443Z" fill="#263238"/>
<path d="M220.449 155.885C220.6 155.905 220.752 155.866 220.875 155.777C220.998 155.688 221.082 155.555 221.11 155.406H221.51V159.218H220.912V156.311H220.449V155.885Z" fill="#263238"/>
<path d="M220.449 161.338C220.599 161.356 220.751 161.317 220.874 161.229C220.996 161.14 221.08 161.008 221.11 160.859H221.51V164.666H220.912V161.759H220.449V161.338Z" fill="#263238"/>
<path d="M220.053 167.217C220.044 167.092 220.06 166.967 220.102 166.848C220.143 166.73 220.208 166.621 220.293 166.53C220.379 166.438 220.482 166.364 220.597 166.314C220.712 166.264 220.835 166.238 220.961 166.238C221.086 166.238 221.21 166.264 221.325 166.314C221.44 166.364 221.543 166.438 221.628 166.53C221.713 166.621 221.779 166.73 221.82 166.848C221.861 166.967 221.878 167.092 221.868 167.217V169.198C221.878 169.323 221.861 169.449 221.82 169.567C221.779 169.685 221.713 169.794 221.628 169.886C221.543 169.978 221.44 170.051 221.325 170.101C221.21 170.151 221.086 170.177 220.961 170.177C220.835 170.177 220.712 170.151 220.597 170.101C220.482 170.051 220.379 169.978 220.293 169.886C220.208 169.794 220.143 169.685 220.102 169.567C220.06 169.449 220.044 169.323 220.053 169.198V167.217ZM220.651 169.235C220.651 169.51 220.771 169.609 220.958 169.609C221.145 169.609 221.27 169.51 221.27 169.235V167.181C221.27 166.905 221.151 166.801 220.958 166.801C220.766 166.801 220.651 166.905 220.651 167.181V169.235Z" fill="#263238"/>
<path d="M220.053 172.662C220.044 172.537 220.06 172.412 220.102 172.294C220.143 172.175 220.208 172.067 220.293 171.975C220.379 171.883 220.482 171.81 220.597 171.76C220.712 171.709 220.835 171.684 220.961 171.684C221.086 171.684 221.21 171.709 221.325 171.76C221.44 171.81 221.543 171.883 221.628 171.975C221.713 172.067 221.779 172.175 221.82 172.294C221.861 172.412 221.878 172.537 221.868 172.662V174.644C221.878 174.768 221.861 174.894 221.82 175.012C221.779 175.131 221.713 175.239 221.628 175.331C221.543 175.423 221.44 175.496 221.325 175.546C221.21 175.596 221.086 175.622 220.961 175.622C220.835 175.622 220.712 175.596 220.597 175.546C220.482 175.496 220.379 175.423 220.293 175.331C220.208 175.239 220.143 175.131 220.102 175.012C220.06 174.894 220.044 174.768 220.053 174.644V172.662ZM220.651 174.685C220.651 174.956 220.771 175.06 220.958 175.06C221.145 175.06 221.27 174.956 221.27 174.685V172.605C221.27 172.335 221.151 172.231 220.958 172.231C220.766 172.231 220.651 172.335 220.651 172.605V174.685Z" fill="#263238"/>
<path d="M213.996 139.549C214.146 139.567 214.298 139.528 214.42 139.44C214.543 139.351 214.627 139.219 214.656 139.07H215.057V142.882H214.459V139.975H213.996V139.549Z" fill="#263238"/>
<path d="M213.574 145.43C213.574 145.188 213.67 144.957 213.841 144.786C214.011 144.615 214.243 144.52 214.484 144.52C214.726 144.52 214.957 144.615 215.128 144.786C215.298 144.957 215.394 145.188 215.394 145.43V147.416C215.394 147.657 215.298 147.889 215.128 148.059C214.957 148.23 214.726 148.326 214.484 148.326C214.243 148.326 214.011 148.23 213.841 148.059C213.67 147.889 213.574 147.657 213.574 147.416V145.43ZM214.172 147.452C214.172 147.723 214.292 147.827 214.484 147.827C214.677 147.827 214.796 147.723 214.796 147.452V145.372C214.796 145.102 214.677 144.998 214.484 144.998C214.292 144.998 214.172 145.102 214.172 145.372V147.452Z" fill="#263238"/>
<path d="M213.574 150.879C213.574 150.637 213.67 150.406 213.841 150.235C214.011 150.065 214.243 149.969 214.484 149.969C214.726 149.969 214.957 150.065 215.128 150.235C215.298 150.406 215.394 150.637 215.394 150.879V152.844C215.394 153.086 215.298 153.317 215.128 153.488C214.957 153.658 214.726 153.754 214.484 153.754C214.243 153.754 214.011 153.658 213.841 153.488C213.67 153.317 213.574 153.086 213.574 152.844V150.879ZM214.172 152.896C214.172 153.172 214.292 153.271 214.484 153.271C214.677 153.271 214.796 153.172 214.796 152.896V150.816C214.796 150.541 214.677 150.437 214.484 150.437C214.292 150.437 214.172 150.541 214.172 150.816V152.896Z" fill="#263238"/>
<path d="M213.996 155.885C214.146 155.905 214.299 155.866 214.422 155.777C214.544 155.688 214.629 155.555 214.656 155.406H215.057V159.218H214.459V156.311H213.996V155.885Z" fill="#263238"/>
<path d="M213.996 166.779C214.146 166.798 214.298 166.759 214.42 166.67C214.543 166.581 214.627 166.449 214.656 166.301H215.057V170.112H214.459V167.206H213.996V166.779Z" fill="#263238"/>
<path d="M213.996 172.23C214.147 172.248 214.299 172.208 214.422 172.119C214.545 172.029 214.629 171.896 214.656 171.746H215.057V175.558H214.459V172.651H213.996V172.23Z" fill="#263238"/>
<path d="M213.996 177.674C214.146 177.692 214.298 177.653 214.42 177.565C214.543 177.476 214.627 177.344 214.656 177.195H215.057V181.002H214.459V178.1H213.996V177.674Z" fill="#263238"/>
<path d="M210.34 123.647C210.331 123.522 210.347 123.396 210.389 123.278C210.43 123.16 210.495 123.051 210.581 122.959C210.666 122.867 210.769 122.794 210.884 122.744C210.999 122.694 211.123 122.668 211.248 122.668C211.373 122.668 211.497 122.694 211.612 122.744C211.727 122.794 211.83 122.867 211.915 122.959C212 123.051 212.066 123.16 212.107 123.278C212.148 123.396 212.165 123.522 212.155 123.647V125.628C212.165 125.753 212.148 125.878 212.107 125.997C212.066 126.115 212 126.223 211.915 126.315C211.83 126.407 211.727 126.481 211.612 126.531C211.497 126.581 211.373 126.607 211.248 126.607C211.123 126.607 210.999 126.581 210.884 126.531C210.769 126.481 210.666 126.407 210.581 126.315C210.495 126.223 210.43 126.115 210.389 125.997C210.347 125.878 210.331 125.753 210.34 125.628V123.647ZM210.938 125.67C210.938 125.94 211.058 126.044 211.245 126.044C211.432 126.044 211.557 125.94 211.557 125.67V123.59C211.557 123.314 211.438 123.215 211.245 123.215C211.053 123.215 210.938 123.314 210.938 123.59V125.67Z" fill="#263238"/>
<path d="M210.34 134.541C210.331 134.416 210.347 134.291 210.389 134.172C210.43 134.054 210.495 133.946 210.581 133.854C210.666 133.762 210.769 133.689 210.884 133.638C210.999 133.588 211.123 133.562 211.248 133.562C211.373 133.562 211.497 133.588 211.612 133.638C211.727 133.689 211.83 133.762 211.915 133.854C212 133.946 212.066 134.054 212.107 134.172C212.148 134.291 212.165 134.416 212.155 134.541V136.522C212.165 136.647 212.148 136.773 212.107 136.891C212.066 137.01 212 137.118 211.915 137.21C211.83 137.302 211.727 137.375 211.612 137.425C211.497 137.475 211.373 137.501 211.248 137.501C211.123 137.501 210.999 137.475 210.884 137.425C210.769 137.375 210.666 137.302 210.581 137.21C210.495 137.118 210.43 137.01 210.389 136.891C210.347 136.773 210.331 136.647 210.34 136.522V134.541ZM210.938 136.559C210.938 136.834 211.058 136.933 211.245 136.933C211.432 136.933 211.557 136.834 211.557 136.559V134.479C211.557 134.208 211.438 134.104 211.245 134.104C211.053 134.104 210.938 134.208 210.938 134.479V136.559Z" fill="#263238"/>
<path d="M210.756 150.443C210.906 150.462 211.058 150.423 211.18 150.334C211.303 150.245 211.387 150.113 211.416 149.965H211.817V153.776H211.219V150.87H210.756V150.443Z" fill="#263238"/>
<path d="M210.756 155.885C210.906 155.905 211.059 155.866 211.181 155.777C211.304 155.688 211.388 155.555 211.416 155.406H211.817V159.218H211.219V156.311H210.756V155.885Z" fill="#263238"/>
<path d="M210.756 172.23C210.907 172.248 211.059 172.208 211.182 172.119C211.304 172.029 211.388 171.896 211.416 171.746H211.817V175.558H211.219V172.651H210.756V172.23Z" fill="#263238"/>
<path d="M210.34 178.112C210.331 177.987 210.347 177.861 210.389 177.743C210.43 177.625 210.495 177.516 210.581 177.424C210.666 177.332 210.769 177.259 210.884 177.209C210.999 177.159 211.123 177.133 211.248 177.133C211.373 177.133 211.497 177.159 211.612 177.209C211.727 177.259 211.83 177.332 211.915 177.424C212 177.516 212.066 177.625 212.107 177.743C212.148 177.861 212.165 177.987 212.155 178.112V180.093C212.165 180.218 212.148 180.343 212.107 180.462C212.066 180.58 212 180.688 211.915 180.78C211.83 180.872 211.727 180.945 211.612 180.996C211.497 181.046 211.373 181.072 211.248 181.072C211.123 181.072 210.999 181.046 210.884 180.996C210.769 180.945 210.666 180.872 210.581 180.78C210.495 180.688 210.43 180.58 210.389 180.462C210.347 180.343 210.331 180.218 210.34 180.093V178.112ZM210.938 180.129C210.938 180.4 211.058 180.504 211.245 180.504C211.432 180.504 211.557 180.4 211.557 180.129V178.049C211.557 177.779 211.438 177.675 211.245 177.675C211.053 177.675 210.938 177.779 210.938 178.049V180.129Z" fill="#263238"/>
<path d="M210.756 183.119C210.906 183.138 211.058 183.099 211.18 183.01C211.303 182.921 211.387 182.789 211.416 182.641H211.817V186.452H211.219V183.525H210.756V183.119Z" fill="#263238"/>
<path d="M76.2676 129.445C76.2676 129.204 76.3635 128.972 76.5341 128.802C76.7048 128.631 76.9362 128.535 77.1776 128.535C77.4189 128.535 77.6504 128.631 77.821 128.802C77.9917 128.972 78.0876 129.204 78.0876 129.445V131.426C78.0876 131.668 77.9917 131.899 77.821 132.07C77.6504 132.24 77.4189 132.336 77.1776 132.336C76.9362 132.336 76.7048 132.24 76.5341 132.07C76.3635 131.899 76.2676 131.668 76.2676 131.426V129.445ZM76.8656 131.463C76.8656 131.738 76.9852 131.842 77.1776 131.842C77.37 131.842 77.4844 131.738 77.4844 131.463V129.383C77.4844 129.107 77.3648 129.003 77.1776 129.003C76.9904 129.003 76.8656 129.107 76.8656 129.383V131.463Z" fill="#263238"/>
<path d="M76.2676 134.906C76.2676 134.665 76.3635 134.433 76.5341 134.263C76.7048 134.092 76.9362 133.996 77.1776 133.996C77.4189 133.996 77.6504 134.092 77.821 134.263C77.9917 134.433 78.0876 134.665 78.0876 134.906V136.887C78.0876 137.129 77.9917 137.36 77.821 137.531C77.6504 137.701 77.4189 137.797 77.1776 137.797C76.9362 137.797 76.7048 137.701 76.5341 137.531C76.3635 137.36 76.2676 137.129 76.2676 136.887V134.906ZM76.8656 136.929C76.8656 137.199 76.9852 137.303 77.1776 137.303C77.37 137.303 77.4844 137.199 77.4844 136.929V134.849C77.4844 134.579 77.3648 134.475 77.1776 134.475C76.9904 134.475 76.8656 134.579 76.8656 134.849V136.929Z" fill="#263238"/>
<path d="M76.6895 139.916C76.839 139.934 76.99 139.895 77.1117 139.806C77.2334 139.717 77.3167 139.586 77.3447 139.438H77.7503V143.249H77.1523V140.363H76.6895V139.916Z" fill="#263238"/>
<path d="M76.2676 145.797C76.2676 145.555 76.3635 145.324 76.5341 145.153C76.7048 144.983 76.9362 144.887 77.1776 144.887C77.4189 144.887 77.6504 144.983 77.821 145.153C77.9917 145.324 78.0876 145.555 78.0876 145.797V147.778C78.0876 148.019 77.9917 148.251 77.821 148.421C77.6504 148.592 77.4189 148.688 77.1776 148.688C76.9362 148.688 76.7048 148.592 76.5341 148.421C76.3635 148.251 76.2676 148.019 76.2676 147.778V145.797ZM76.8656 147.814C76.8656 148.09 76.9852 148.194 77.1776 148.194C77.37 148.194 77.4844 148.09 77.4844 147.814V145.76C77.4844 145.485 77.3648 145.381 77.1776 145.381C76.9904 145.381 76.8656 145.485 76.8656 145.76V147.814Z" fill="#263238"/>
<path d="M76.6895 150.81C76.839 150.829 76.99 150.79 77.1117 150.701C77.2334 150.612 77.3167 150.48 77.3447 150.332H77.7503V154.138H77.1523V151.232H76.6895V150.81Z" fill="#263238"/>
<path d="M76.2676 156.691C76.2676 156.45 76.3635 156.218 76.5341 156.048C76.7048 155.877 76.9362 155.781 77.1776 155.781C77.4189 155.781 77.6504 155.877 77.821 156.048C77.9917 156.218 78.0876 156.45 78.0876 156.691V158.672C78.0876 158.914 77.9917 159.145 77.821 159.316C77.6504 159.487 77.4189 159.582 77.1776 159.582C76.9362 159.582 76.7048 159.487 76.5341 159.316C76.3635 159.145 76.2676 158.914 76.2676 158.672V156.691ZM76.8656 158.709C76.8656 158.979 76.9852 159.083 77.1776 159.083C77.37 159.083 77.4844 158.979 77.4844 158.709V156.629C77.4844 156.358 77.3648 156.254 77.1776 156.254C76.9904 156.254 76.8656 156.358 76.8656 156.629V158.709Z" fill="#263238"/>
<path d="M76.6895 161.685C76.839 161.704 76.99 161.665 77.1117 161.576C77.2334 161.487 77.3167 161.355 77.3447 161.207H77.7503V165.019H77.1523V162.112H76.6895V161.685Z" fill="#263238"/>
<path d="M76.2676 167.582C76.2676 167.341 76.3635 167.109 76.5341 166.938C76.7048 166.768 76.9362 166.672 77.1776 166.672C77.4189 166.672 77.6504 166.768 77.821 166.938C77.9917 167.109 78.0876 167.341 78.0876 167.582V169.563C78.0876 169.804 77.9917 170.036 77.821 170.207C77.6504 170.377 77.4189 170.473 77.1776 170.473C76.9362 170.473 76.7048 170.377 76.5341 170.207C76.3635 170.036 76.2676 169.804 76.2676 169.563V167.582ZM76.8656 169.605C76.8656 169.875 76.9852 169.979 77.1776 169.979C77.37 169.979 77.4844 169.875 77.4844 169.605V167.525C77.4844 167.254 77.3648 167.15 77.1776 167.15C76.9904 167.15 76.8656 167.254 76.8656 167.525V169.605Z" fill="#263238"/>
<path d="M76.2676 173.031C76.2676 172.79 76.3635 172.558 76.5341 172.388C76.7048 172.217 76.9362 172.121 77.1776 172.121C77.4189 172.121 77.6504 172.217 77.821 172.388C77.9917 172.558 78.0876 172.79 78.0876 173.031V175.012C78.0876 175.254 77.9917 175.485 77.821 175.656C77.6504 175.826 77.4189 175.922 77.1776 175.922C76.9362 175.922 76.7048 175.826 76.5341 175.656C76.3635 175.485 76.2676 175.254 76.2676 175.012V173.031ZM76.8656 175.049C76.8656 175.319 76.9852 175.423 77.1776 175.423C77.37 175.423 77.4844 175.319 77.4844 175.049V172.969C77.4844 172.698 77.3648 172.594 77.1776 172.594C76.9904 172.594 76.8656 172.698 76.8656 172.969V175.049Z" fill="#263238"/>
<path d="M76.2676 178.476C76.2676 178.235 76.3635 178.004 76.5341 177.833C76.7048 177.662 76.9362 177.566 77.1776 177.566C77.4189 177.566 77.6504 177.662 77.821 177.833C77.9917 178.004 78.0876 178.235 78.0876 178.476V180.458C78.0876 180.699 77.9917 180.93 77.821 181.101C77.6504 181.272 77.4189 181.368 77.1776 181.368C76.9362 181.368 76.7048 181.272 76.5341 181.101C76.3635 180.93 76.2676 180.699 76.2676 180.458V178.476ZM76.8656 180.494C76.8656 180.77 76.9852 180.874 77.1776 180.874C77.37 180.874 77.4844 180.77 77.4844 180.494V178.44C77.4844 178.164 77.3648 178.066 77.1776 178.066C76.9904 178.066 76.8656 178.164 76.8656 178.44V180.494Z" fill="#263238"/>
<path d="M76.6895 183.486C76.839 183.505 76.99 183.466 77.1117 183.377C77.2334 183.288 77.3167 183.156 77.3447 183.008H77.7503V186.814H77.1523V183.907H76.6895V183.486Z" fill="#263238"/>
<path d="M76.6895 188.932C76.839 188.95 76.99 188.911 77.1117 188.822C77.2334 188.733 77.3167 188.601 77.3447 188.453H77.7503V192.265H77.1523V189.358H76.6895V188.932Z" fill="#263238"/>
<path d="M76.6895 194.377C76.839 194.395 76.99 194.356 77.1117 194.267C77.2334 194.178 77.3167 194.047 77.3447 193.898H77.7503V197.71H77.1523V194.803H76.6895V194.377Z" fill="#263238"/>
<path d="M76.6895 199.826C76.839 199.845 76.99 199.805 77.1117 199.716C77.2334 199.628 77.3167 199.496 77.3447 199.348H77.7503V203.154H77.1523V200.247H76.6895V199.826Z" fill="#263238"/>
<path d="M76.8652 207.724C76.8652 208 76.9848 208.098 77.1772 208.098C77.3696 208.098 77.484 208 77.484 207.724V205.644C77.484 205.374 77.3644 205.27 77.1772 205.27C76.99 205.27 76.8652 205.374 76.8652 205.644V207.724Z" fill="#263238"/>
<path d="M79.9238 150.81C80.074 150.829 80.2257 150.79 80.3482 150.701C80.4708 150.612 80.5551 150.481 80.5842 150.332H80.9846V154.138H80.3866V151.232H79.9238V150.81Z" fill="#263238"/>
<path d="M79.9238 156.256C80.074 156.274 80.2257 156.235 80.3482 156.147C80.4708 156.058 80.5551 155.926 80.5842 155.777H80.9846V159.605H80.3866V156.698H79.9238V156.256Z" fill="#263238"/>
<path d="M79.528 167.58C79.5185 167.455 79.535 167.33 79.5763 167.212C79.6176 167.093 79.6829 166.985 79.7681 166.893C79.8532 166.801 79.9565 166.728 80.0713 166.678C80.1861 166.627 80.3101 166.602 80.4354 166.602C80.5607 166.602 80.6846 166.627 80.7995 166.678C80.9143 166.728 81.0175 166.801 81.1027 166.893C81.1879 166.985 81.2532 167.093 81.2945 167.212C81.3358 167.33 81.3523 167.455 81.3428 167.58V169.562C81.3523 169.686 81.3358 169.812 81.2945 169.93C81.2532 170.049 81.1879 170.157 81.1027 170.249C81.0175 170.341 80.9143 170.414 80.7995 170.464C80.6846 170.514 80.5607 170.54 80.4354 170.54C80.3101 170.54 80.1861 170.514 80.0713 170.464C79.9565 170.414 79.8532 170.341 79.7681 170.249C79.6829 170.157 79.6176 170.049 79.5763 169.93C79.535 169.812 79.5185 169.686 79.528 169.562V167.58ZM80.126 169.603C80.126 169.874 80.2456 169.978 80.4328 169.978C80.62 169.978 80.7448 169.874 80.7448 169.603V167.523C80.7448 167.253 80.6252 167.149 80.4328 167.149C80.2404 167.149 80.126 167.253 80.126 167.523V169.603Z" fill="#263238"/>
<path d="M79.9238 172.603C80.074 172.622 80.2257 172.583 80.3482 172.494C80.4708 172.405 80.5551 172.274 80.5842 172.125H80.9846V175.937H80.3866V173.019H79.9238V172.603Z" fill="#263238"/>
<path d="M79.528 178.475C79.5185 178.35 79.535 178.224 79.5763 178.106C79.6176 177.988 79.6829 177.879 79.7681 177.787C79.8532 177.696 79.9565 177.622 80.0713 177.572C80.1861 177.522 80.3101 177.496 80.4354 177.496C80.5607 177.496 80.6846 177.522 80.7995 177.572C80.9143 177.622 81.0175 177.696 81.1027 177.787C81.1879 177.879 81.2532 177.988 81.2945 178.106C81.3358 178.224 81.3523 178.35 81.3428 178.475V180.456C81.3523 180.581 81.3358 180.707 81.2945 180.825C81.2532 180.943 81.1879 181.052 81.1027 181.143C81.0175 181.235 80.9143 181.309 80.7995 181.359C80.6846 181.409 80.5607 181.435 80.4354 181.435C80.3101 181.435 80.1861 181.409 80.0713 181.359C79.9565 181.309 79.8532 181.235 79.7681 181.143C79.6829 181.052 79.6176 180.943 79.5763 180.825C79.535 180.707 79.5185 180.581 79.528 180.456V178.475ZM80.126 180.492C80.126 180.768 80.2456 180.872 80.4328 180.872C80.62 180.872 80.7448 180.768 80.7448 180.492V178.438C80.7448 178.163 80.6252 178.064 80.4328 178.064C80.2404 178.064 80.126 178.163 80.126 178.438V180.492Z" fill="#263238"/>
<path d="M80.1055 191.388C80.1055 191.658 80.2251 191.762 80.4123 191.762C80.5995 191.762 80.7243 191.658 80.7243 191.388V189.308C80.7243 189.038 80.6047 188.934 80.4123 188.934C80.2199 188.934 80.1055 189.038 80.1055 189.308V191.388Z" fill="#263238"/>
<path d="M79.9238 194.378C80.0678 194.394 80.2126 194.356 80.3312 194.273C80.4498 194.19 80.5342 194.067 80.5686 193.926H80.969V197.737H80.371V194.831H79.9082L79.9238 194.378Z" fill="#263238"/>
<path d="M79.9238 199.826C80.074 199.845 80.2257 199.806 80.3482 199.717C80.4708 199.628 80.5551 199.496 80.5842 199.348H80.9846V203.154H80.3866V200.247H79.9238V199.826Z" fill="#263238"/>
<path d="M79.528 216.596C79.5185 216.471 79.535 216.345 79.5763 216.227C79.6176 216.109 79.6829 216 79.7681 215.908C79.8532 215.817 79.9565 215.743 80.0713 215.693C80.1861 215.643 80.3101 215.617 80.4354 215.617C80.5607 215.617 80.6846 215.643 80.7995 215.693C80.9143 215.743 81.0175 215.817 81.1027 215.908C81.1879 216 81.2532 216.109 81.2945 216.227C81.3358 216.345 81.3523 216.471 81.3428 216.596V218.582C81.3523 218.707 81.3358 218.833 81.2945 218.951C81.2532 219.069 81.1879 219.178 81.1027 219.27C81.0175 219.362 80.9143 219.435 80.7995 219.485C80.6846 219.535 80.5607 219.561 80.4354 219.561C80.3101 219.561 80.1861 219.535 80.0713 219.485C79.9565 219.435 79.8532 219.362 79.7681 219.27C79.6829 219.178 79.6176 219.069 79.5763 218.951C79.535 218.833 79.5185 218.707 79.528 218.582V216.596ZM80.126 218.619C80.126 218.889 80.2456 218.993 80.4328 218.993C80.62 218.993 80.7448 218.889 80.7448 218.619V216.539C80.7448 216.268 80.6252 216.164 80.4328 216.164C80.2404 216.164 80.126 216.268 80.126 216.539V218.619Z" fill="#263238"/>
<path d="M73.0293 145.797C73.0293 145.555 73.1252 145.324 73.2958 145.153C73.4665 144.983 73.6979 144.887 73.9393 144.887C74.1806 144.887 74.4121 144.983 74.5828 145.153C74.7534 145.324 74.8493 145.555 74.8493 145.797V147.778C74.8493 148.019 74.7534 148.251 74.5828 148.421C74.4121 148.592 74.1806 148.688 73.9393 148.688C73.6979 148.688 73.4665 148.592 73.2958 148.421C73.1252 148.251 73.0293 148.019 73.0293 147.778V145.797ZM73.6273 147.814C73.6273 148.09 73.7469 148.194 73.9393 148.194C74.1317 148.194 74.2513 148.09 74.2513 147.814V145.76C74.2513 145.485 74.1317 145.381 73.9393 145.381C73.7469 145.381 73.6273 145.485 73.6273 145.76V147.814Z" fill="#263238"/>
<path d="M73.4492 150.81C73.5994 150.829 73.7511 150.79 73.8736 150.701C73.9962 150.612 74.0805 150.481 74.1096 150.332H74.51V154.138H73.912V151.232H73.4492V150.81Z" fill="#263238"/>
<path d="M73.4492 156.256C73.5994 156.274 73.7511 156.235 73.8736 156.147C73.9962 156.058 74.0805 155.926 74.1096 155.777H74.51V159.605H73.912V156.698H73.4492V156.256Z" fill="#263238"/>
<path d="M73.0293 162.137C73.0293 161.895 73.1252 161.664 73.2958 161.493C73.4665 161.322 73.6979 161.227 73.9393 161.227C74.1806 161.227 74.4121 161.322 74.5828 161.493C74.7534 161.664 74.8493 161.895 74.8493 162.137V164.118C74.8493 164.359 74.7534 164.591 74.5828 164.761C74.4121 164.932 74.1806 165.028 73.9393 165.028C73.6979 165.028 73.4665 164.932 73.2958 164.761C73.1252 164.591 73.0293 164.359 73.0293 164.118V162.137ZM73.6273 164.154C73.6273 164.43 73.7469 164.534 73.9393 164.534C74.1317 164.534 74.2513 164.43 74.2513 164.154V162.1C74.2513 161.825 74.1317 161.721 73.9393 161.721C73.7469 161.721 73.6273 161.825 73.6273 162.1V164.154Z" fill="#263238"/>
<path d="M73.0293 173.031C73.0293 172.79 73.1252 172.558 73.2958 172.388C73.4665 172.217 73.6979 172.121 73.9393 172.121C74.1806 172.121 74.4121 172.217 74.5828 172.388C74.7534 172.558 74.8493 172.79 74.8493 173.031V175.012C74.8493 175.254 74.7534 175.485 74.5828 175.656C74.4121 175.826 74.1806 175.922 73.9393 175.922C73.6979 175.922 73.4665 175.826 73.2958 175.656C73.1252 175.485 73.0293 175.254 73.0293 175.012V173.031ZM73.6273 175.049C73.6273 175.319 73.7469 175.423 73.9393 175.423C74.1317 175.423 74.2513 175.319 74.2513 175.049V172.969C74.2513 172.698 74.1317 172.594 73.9393 172.594C73.7469 172.594 73.6273 172.698 73.6273 172.969V175.049Z" fill="#263238"/>
<path d="M73.0293 178.476C73.0293 178.235 73.1252 178.004 73.2958 177.833C73.4665 177.662 73.6979 177.566 73.9393 177.566C74.1806 177.566 74.4121 177.662 74.5828 177.833C74.7534 178.004 74.8493 178.235 74.8493 178.476V180.458C74.8493 180.699 74.7534 180.93 74.5828 181.101C74.4121 181.272 74.1806 181.368 73.9393 181.368C73.6979 181.368 73.4665 181.272 73.2958 181.101C73.1252 180.93 73.0293 180.699 73.0293 180.458V178.476ZM73.6273 180.494C73.6273 180.77 73.7469 180.874 73.9393 180.874C74.1317 180.874 74.2513 180.77 74.2513 180.494V178.44C74.2513 178.164 74.1317 178.066 73.9393 178.066C73.7469 178.066 73.6273 178.164 73.6273 178.44V180.494Z" fill="#263238"/>
<path d="M73.4492 183.486C73.5994 183.505 73.7511 183.466 73.8736 183.377C73.9962 183.288 74.0805 183.156 74.1096 183.008H74.51V186.814H73.912V183.907H73.4492V183.486Z" fill="#263238"/>
<path d="M73.0293 189.371C73.0293 189.13 73.1252 188.898 73.2958 188.727C73.4665 188.557 73.6979 188.461 73.9393 188.461C74.1806 188.461 74.4121 188.557 74.5828 188.727C74.7534 188.898 74.8493 189.13 74.8493 189.371V191.352C74.8493 191.593 74.7534 191.825 74.5828 191.996C74.4121 192.166 74.1806 192.262 73.9393 192.262C73.6979 192.262 73.4665 192.166 73.2958 191.996C73.1252 191.825 73.0293 191.593 73.0293 191.352V189.371ZM73.6273 191.389C73.6273 191.659 73.7469 191.763 73.9393 191.763C74.1317 191.763 74.2513 191.659 74.2513 191.389V189.309C74.2513 189.038 74.1317 188.934 73.9393 188.934C73.7469 188.934 73.6273 189.038 73.6273 189.309V191.389Z" fill="#263238"/>
<path d="M73.4492 194.377C73.5994 194.395 73.7511 194.356 73.8736 194.268C73.9962 194.179 74.0805 194.047 74.1096 193.898H74.51V197.71H73.912V194.803H73.4492V194.377Z" fill="#263238"/>
<path d="M69.7936 134.905C69.7842 134.78 69.8006 134.654 69.8419 134.536C69.8832 134.417 69.9485 134.309 70.0337 134.217C70.1189 134.125 70.2221 134.052 70.3369 134.002C70.4518 133.952 70.5757 133.926 70.701 133.926C70.8263 133.926 70.9503 133.952 71.0651 134.002C71.1799 134.052 71.2832 134.125 71.3683 134.217C71.4535 134.309 71.5188 134.417 71.5601 134.536C71.6014 134.654 71.6179 134.78 71.6084 134.905V136.886C71.6179 137.011 71.6014 137.136 71.5601 137.254C71.5188 137.373 71.4535 137.481 71.3683 137.573C71.2832 137.665 71.1799 137.738 71.0651 137.788C70.9503 137.839 70.8263 137.864 70.701 137.864C70.5757 137.864 70.4518 137.839 70.3369 137.788C70.2221 137.738 70.1189 137.665 70.0337 137.573C69.9485 137.481 69.8832 137.373 69.8419 137.254C69.8006 137.136 69.7842 137.011 69.7936 136.886V134.905ZM70.3916 136.927C70.3916 137.198 70.5112 137.302 70.6984 137.302C70.8856 137.302 71.0104 137.198 71.0104 136.927V134.847C71.0104 134.577 70.8908 134.473 70.6984 134.473C70.506 134.473 70.3916 134.577 70.3916 134.847V136.927Z" fill="#263238"/>
<path d="M70.2109 145.361C70.3611 145.38 70.5128 145.341 70.6353 145.252C70.7579 145.163 70.8422 145.031 70.8713 144.883H71.2717V148.684H70.6893V145.777H70.2265L70.2109 145.361Z" fill="#263238"/>
<path d="M70.2109 156.256C70.3611 156.274 70.5128 156.235 70.6353 156.147C70.7579 156.058 70.8422 155.926 70.8713 155.777H71.2717V159.605H70.6893V156.698H70.2265L70.2109 156.256Z" fill="#263238"/>
<path d="M69.7936 162.135C69.7842 162.01 69.8006 161.885 69.8419 161.766C69.8832 161.648 69.9485 161.539 70.0337 161.448C70.1189 161.356 70.2221 161.282 70.3369 161.232C70.4518 161.182 70.5757 161.156 70.701 161.156C70.8263 161.156 70.9503 161.182 71.0651 161.232C71.1799 161.282 71.2832 161.356 71.3683 161.448C71.4535 161.539 71.5188 161.648 71.5601 161.766C71.6014 161.885 71.6179 162.01 71.6084 162.135V164.116C71.6179 164.241 71.6014 164.367 71.5601 164.485C71.5188 164.603 71.4535 164.712 71.3683 164.804C71.2832 164.896 71.1799 164.969 71.0651 165.019C70.9503 165.069 70.8263 165.095 70.701 165.095C70.5757 165.095 70.4518 165.069 70.3369 165.019C70.2221 164.969 70.1189 164.896 70.0337 164.804C69.9485 164.712 69.8832 164.603 69.8419 164.485C69.8006 164.367 69.7842 164.241 69.7936 164.116V162.135ZM70.3916 164.158C70.3916 164.428 70.5112 164.532 70.6984 164.532C70.8856 164.532 71.0104 164.428 71.0104 164.158V162.078C71.0104 161.802 70.8908 161.703 70.6984 161.703C70.506 161.703 70.3916 161.802 70.3916 162.078V164.158Z" fill="#263238"/>
<path d="M70.2109 178.037C70.3611 178.056 70.5128 178.017 70.6353 177.928C70.7579 177.839 70.8422 177.707 70.8713 177.559H71.2717V181.37H70.6893V178.463H70.2265L70.2109 178.037Z" fill="#263238"/>
<path d="M70.2109 183.486C70.3611 183.505 70.5128 183.466 70.6353 183.377C70.7579 183.288 70.8422 183.156 70.8713 183.008H71.2717V186.814H70.6893V183.907H70.2265L70.2109 183.486Z" fill="#263238"/>
<path d="M70.2109 188.932C70.3611 188.95 70.5128 188.911 70.6353 188.822C70.7579 188.734 70.8422 188.602 70.8713 188.453H71.2717V192.265H70.6893V189.358H70.2265L70.2109 188.932Z" fill="#263238"/>
<path d="M171.625 3.92172C171.625 3.68037 171.721 3.44891 171.892 3.27825C172.062 3.10759 172.294 3.01172 172.535 3.01172C172.776 3.01172 173.008 3.10759 173.178 3.27825C173.349 3.44891 173.445 3.68037 173.445 3.92172V5.90292C173.445 6.14426 173.349 6.37573 173.178 6.54639C173.008 6.71704 172.776 6.81292 172.535 6.81292C172.294 6.81292 172.062 6.71704 171.892 6.54639C171.721 6.37573 171.625 6.14426 171.625 5.90292V3.92172ZM172.223 5.93932C172.223 6.20972 172.343 6.31372 172.535 6.31372C172.727 6.31372 172.842 6.20972 172.842 5.93932V3.85932C172.842 3.58892 172.722 3.48492 172.535 3.48492C172.348 3.48492 172.223 3.58892 172.223 3.85932V5.93932Z" fill="#263238"/>
<path d="M171.625 9.36703C171.625 9.12568 171.721 8.89422 171.892 8.72356C172.062 8.55291 172.294 8.45703 172.535 8.45703C172.776 8.45703 173.008 8.55291 173.178 8.72356C173.349 8.89422 173.445 9.12568 173.445 9.36703V11.3482C173.445 11.5896 173.349 11.821 173.178 11.9917C173.008 12.1624 172.776 12.2582 172.535 12.2582C172.294 12.2582 172.062 12.1624 171.892 11.9917C171.721 11.821 171.625 11.5896 171.625 11.3482V9.36703ZM172.223 11.4054C172.223 11.681 172.343 11.785 172.535 11.785C172.727 11.785 172.842 11.681 172.842 11.4054V9.32543C172.842 9.04983 172.722 8.94583 172.535 8.94583C172.348 8.94583 172.223 9.04983 172.223 9.32543V11.4054Z" fill="#263238"/>
<path d="M172.047 25.2675C172.196 25.2859 172.347 25.2468 172.469 25.1579C172.591 25.069 172.674 24.9371 172.702 24.7891H173.128V28.6007H172.53V25.6939H172.068L172.047 25.2675Z" fill="#263238"/>
<path d="M172.047 30.7167C172.196 30.7352 172.347 30.696 172.469 30.6071C172.591 30.5182 172.674 30.3864 172.702 30.2383H173.128V34.0447H172.53V31.1639H172.068L172.047 30.7167Z" fill="#263238"/>
<path d="M171.625 47.4881C171.625 47.2468 171.721 47.0153 171.892 46.8447C172.062 46.674 172.294 46.5781 172.535 46.5781C172.776 46.5781 173.008 46.674 173.178 46.8447C173.349 47.0153 173.445 47.2468 173.445 47.4881V49.4693C173.445 49.7107 173.349 49.9421 173.178 50.1128C173.008 50.2835 172.776 50.3793 172.535 50.3793C172.294 50.3793 172.062 50.2835 171.892 50.1128C171.721 49.9421 171.625 49.7107 171.625 49.4693V47.4881ZM172.223 49.5109C172.223 49.7813 172.343 49.8853 172.535 49.8853C172.727 49.8853 172.842 49.7813 172.842 49.5109V47.4309C172.842 47.1605 172.722 47.0565 172.535 47.0565C172.348 47.0565 172.223 47.1605 172.223 47.4309V49.5109Z" fill="#263238"/>
<path d="M171.625 58.3827C171.625 58.1413 171.721 57.9099 171.892 57.7392C172.062 57.5685 172.294 57.4727 172.535 57.4727C172.776 57.4727 173.008 57.5685 173.178 57.7392C173.349 57.9099 173.445 58.1413 173.445 58.3827V60.3639C173.445 60.6052 173.349 60.8367 173.178 61.0073C173.008 61.178 172.776 61.2739 172.535 61.2739C172.294 61.2739 172.062 61.178 171.892 61.0073C171.721 60.8367 171.625 60.6052 171.625 60.3639V58.3827ZM172.223 60.4003C172.223 60.6759 172.343 60.7799 172.535 60.7799C172.727 60.7799 172.842 60.6759 172.842 60.4003V58.3463C172.842 58.0707 172.722 57.9719 172.535 57.9719C172.348 57.9719 172.223 58.0707 172.223 58.3463V60.4003Z" fill="#263238"/>
<path d="M161.912 14.8123C161.912 14.571 162.008 14.3395 162.179 14.1689C162.349 13.9982 162.581 13.9023 162.822 13.9023C163.063 13.9023 163.295 13.9982 163.466 14.1689C163.636 14.3395 163.732 14.571 163.732 14.8123V16.7935C163.732 17.0349 163.636 17.2664 163.466 17.437C163.295 17.6077 163.063 17.7035 162.822 17.7035C162.581 17.7035 162.349 17.6077 162.179 17.437C162.008 17.2664 161.912 17.0349 161.912 16.7935V14.8123ZM162.51 16.8351C162.51 17.1055 162.63 17.2095 162.822 17.2095C163.015 17.2095 163.129 17.1055 163.129 16.8351V14.7551C163.129 14.4847 163.009 14.3807 162.822 14.3807C162.635 14.3807 162.51 14.4847 162.51 14.7551V16.8351Z" fill="#263238"/>
<path d="M161.912 20.2459C161.912 20.0046 162.008 19.7731 162.179 19.6025C162.349 19.4318 162.581 19.3359 162.822 19.3359C163.063 19.3359 163.295 19.4318 163.466 19.6025C163.636 19.7731 163.732 20.0046 163.732 20.2459V22.2271C163.732 22.4685 163.636 22.6999 163.466 22.8706C163.295 23.0413 163.063 23.1371 162.822 23.1371C162.581 23.1371 162.349 23.0413 162.179 22.8706C162.008 22.6999 161.912 22.4685 161.912 22.2271V20.2459ZM162.51 22.2635C162.51 22.5339 162.63 22.6379 162.822 22.6379C163.015 22.6379 163.129 22.5339 163.129 22.2635V20.2459C163.129 19.9755 163.009 19.8715 162.822 19.8715C162.635 19.8715 162.51 19.9755 162.51 20.2459V22.2635Z" fill="#263238"/>
<path d="M161.912 25.703C161.912 25.4616 162.008 25.2302 162.179 25.0595C162.349 24.8888 162.581 24.793 162.822 24.793C163.063 24.793 163.295 24.8888 163.466 25.0595C163.636 25.2302 163.732 25.4616 163.732 25.703V27.6842C163.732 27.9255 163.636 28.157 163.466 28.3276C163.295 28.4983 163.063 28.5942 162.822 28.5942C162.581 28.5942 162.349 28.4983 162.179 28.3276C162.008 28.157 161.912 27.9255 161.912 27.6842V25.703ZM162.51 27.7206C162.51 27.9962 162.63 28.1002 162.822 28.1002C163.015 28.1002 163.129 27.9962 163.129 27.7206V25.6666C163.129 25.391 163.009 25.287 162.822 25.287C162.635 25.287 162.51 25.391 162.51 25.6666V27.7206Z" fill="#263238"/>
<path d="M162.334 30.7167C162.484 30.7352 162.635 30.696 162.756 30.6071C162.878 30.5182 162.961 30.3864 162.989 30.2383H163.395V34.0447H162.797V31.1639H162.334V30.7167Z" fill="#263238"/>
<path d="M162.334 41.6073C162.484 41.6258 162.635 41.5866 162.756 41.4977C162.878 41.4089 162.961 41.277 162.989 41.1289H163.395V44.9405H162.797V42.0337H162.334V41.6073Z" fill="#263238"/>
<path d="M162.334 47.0565C162.484 47.075 162.635 47.0358 162.756 46.947C162.878 46.8581 162.961 46.7262 162.989 46.5781H163.395V50.4053H162.797V47.4985H162.334V47.0565Z" fill="#263238"/>
<path d="M161.912 58.3827C161.912 58.1413 162.008 57.9099 162.179 57.7392C162.349 57.5685 162.581 57.4727 162.822 57.4727C163.063 57.4727 163.295 57.5685 163.466 57.7392C163.636 57.9099 163.732 58.1413 163.732 58.3827V60.3639C163.732 60.6052 163.636 60.8367 163.466 61.0073C163.295 61.178 163.063 61.2739 162.822 61.2739C162.581 61.2739 162.349 61.178 162.179 61.0073C162.008 60.8367 161.912 60.6052 161.912 60.3639V58.3827ZM162.51 60.4003C162.51 60.6759 162.63 60.7799 162.822 60.7799C163.015 60.7799 163.129 60.6759 163.129 60.4003V58.3463C163.129 58.0707 163.009 57.9719 162.822 57.9719C162.635 57.9719 162.51 58.0707 162.51 58.3463V60.4003Z" fill="#263238"/>
<path d="M162.334 63.4042C162.484 63.4227 162.635 63.3835 162.756 63.2946C162.878 63.2057 162.961 63.0739 162.989 62.9258H163.395V66.7322H162.797V63.8254H162.334V63.4042Z" fill="#263238"/>
<path d="M168.387 3.92172C168.387 3.68037 168.483 3.44891 168.653 3.27825C168.824 3.10759 169.055 3.01172 169.297 3.01172C169.538 3.01172 169.77 3.10759 169.94 3.27825C170.111 3.44891 170.207 3.68037 170.207 3.92172V5.90292C170.207 6.14426 170.111 6.37573 169.94 6.54639C169.77 6.71704 169.538 6.81292 169.297 6.81292C169.055 6.81292 168.824 6.71704 168.653 6.54639C168.483 6.37573 168.387 6.14426 168.387 5.90292V3.92172ZM168.969 5.93932C168.969 6.20972 169.089 6.31372 169.276 6.31372C169.463 6.31372 169.588 6.20972 169.588 5.93932V3.85932C169.588 3.58892 169.468 3.48492 169.276 3.48492C169.084 3.48492 168.969 3.58892 168.969 3.85932V5.93932Z" fill="#263238"/>
<path d="M168.807 8.92762C168.957 8.94624 169.108 8.90722 169.231 8.81844C169.354 8.72966 169.438 8.59772 169.467 8.44922H169.867V12.2608H169.269V9.35402H168.807V8.92762Z" fill="#263238"/>
<path d="M168.387 14.8123C168.387 14.571 168.483 14.3395 168.653 14.1689C168.824 13.9982 169.055 13.9023 169.297 13.9023C169.538 13.9023 169.77 13.9982 169.94 14.1689C170.111 14.3395 170.207 14.571 170.207 14.8123V16.7935C170.207 17.0349 170.111 17.2664 169.94 17.437C169.77 17.6077 169.538 17.7035 169.297 17.7035C169.055 17.7035 168.824 17.6077 168.653 17.437C168.483 17.2664 168.387 17.0349 168.387 16.7935V14.8123ZM168.969 16.8351C168.969 17.1055 169.089 17.2095 169.276 17.2095C169.463 17.2095 169.588 17.1055 169.588 16.8351V14.7551C169.588 14.4847 169.468 14.3807 169.276 14.3807C169.084 14.3807 168.969 14.4847 168.969 14.7551V16.8351Z" fill="#263238"/>
<path d="M168.807 19.8221C168.957 19.8408 169.108 19.8018 169.231 19.713C169.354 19.6242 169.438 19.4923 169.467 19.3438H169.867V23.1553H169.269V20.2433H168.807V19.8221Z" fill="#263238"/>
<path d="M168.807 25.2675C168.957 25.2861 169.108 25.2471 169.231 25.1583C169.354 25.0695 169.438 24.9376 169.467 24.7891H169.867V28.6007H169.269V25.6939H168.807V25.2675Z" fill="#263238"/>
<path d="M168.807 30.7167C168.957 30.7353 169.108 30.6963 169.231 30.6075C169.354 30.5187 169.438 30.3868 169.467 30.2383H169.867V34.0447H169.269V31.1639H168.807V30.7167Z" fill="#263238"/>
<path d="M168.387 36.5975C168.387 36.3562 168.483 36.1247 168.653 35.954C168.824 35.7834 169.055 35.6875 169.297 35.6875C169.538 35.6875 169.77 35.7834 169.94 35.954C170.111 36.1247 170.207 36.3562 170.207 36.5975V38.5787C170.207 38.82 170.111 39.0515 169.94 39.2222C169.77 39.3928 169.538 39.4887 169.297 39.4887C169.055 39.4887 168.824 39.3928 168.653 39.2222C168.483 39.0515 168.387 38.82 168.387 38.5787V36.5975ZM168.969 38.6151C168.969 38.8855 169.089 38.9895 169.276 38.9895C169.463 38.9895 169.588 38.8855 169.588 38.6151V36.5351C169.588 36.2647 169.468 36.1607 169.276 36.1607C169.084 36.1607 168.969 36.2647 168.969 36.5351V38.6151Z" fill="#263238"/>
<path d="M168.387 42.0428C168.387 41.8015 168.483 41.57 168.653 41.3993C168.824 41.2287 169.055 41.1328 169.297 41.1328C169.538 41.1328 169.77 41.2287 169.94 41.3993C170.111 41.57 170.207 41.8015 170.207 42.0428V44.024C170.207 44.2654 170.111 44.4968 169.94 44.6675C169.77 44.8381 169.538 44.934 169.297 44.934C169.055 44.934 168.824 44.8381 168.653 44.6675C168.483 44.4968 168.387 44.2654 168.387 44.024V42.0428ZM168.969 44.0604C168.969 44.336 169.089 44.44 169.276 44.44C169.463 44.44 169.588 44.336 169.588 44.0604V41.9804C169.588 41.7048 169.468 41.606 169.276 41.606C169.084 41.606 168.969 41.7048 168.969 41.9804V44.0604Z" fill="#263238"/>
<path d="M165.568 8.92762C165.719 8.94624 165.87 8.90722 165.993 8.81844C166.115 8.72966 166.2 8.59772 166.229 8.44922H166.629V12.2608H166.031V9.35402H165.568V8.92762Z" fill="#263238"/>
<path d="M165.151 14.8108C165.142 14.6858 165.158 14.5603 165.199 14.442C165.241 14.3237 165.306 14.2152 165.391 14.1233C165.476 14.0315 165.58 13.9582 165.694 13.908C165.809 13.8579 165.933 13.832 166.058 13.832C166.184 13.832 166.308 13.8579 166.423 13.908C166.537 13.9582 166.641 14.0315 166.726 14.1233C166.811 14.2152 166.876 14.3237 166.918 14.442C166.959 14.5603 166.975 14.6858 166.966 14.8108V16.792C166.975 16.9169 166.959 17.0425 166.918 17.1607C166.876 17.279 166.811 17.3875 166.726 17.4794C166.641 17.5713 166.537 17.6446 166.423 17.6947C166.308 17.7448 166.184 17.7707 166.058 17.7707C165.933 17.7707 165.809 17.7448 165.694 17.6947C165.58 17.6446 165.476 17.5713 165.391 17.4794C165.306 17.3875 165.241 17.279 165.199 17.1607C165.158 17.0425 165.142 16.9169 165.151 16.792V14.8108ZM165.749 16.8336C165.749 17.104 165.869 17.208 166.056 17.208C166.243 17.208 166.368 17.104 166.368 16.8336V14.7536C166.368 14.4832 166.248 14.3792 166.056 14.3792C165.863 14.3792 165.749 14.4832 165.749 14.7536V16.8336Z" fill="#263238"/>
<path d="M165.151 20.2444C165.142 20.1194 165.158 19.9939 165.199 19.8756C165.241 19.7573 165.306 19.6488 165.391 19.5569C165.476 19.4651 165.58 19.3918 165.694 19.3416C165.809 19.2915 165.933 19.2656 166.058 19.2656C166.184 19.2656 166.308 19.2915 166.423 19.3416C166.537 19.3918 166.641 19.4651 166.726 19.5569C166.811 19.6488 166.876 19.7573 166.918 19.8756C166.959 19.9939 166.975 20.1194 166.966 20.2444V22.2256C166.975 22.3505 166.959 22.4761 166.918 22.5943C166.876 22.7126 166.811 22.8211 166.726 22.913C166.641 23.0049 166.537 23.0782 166.423 23.1283C166.308 23.1784 166.184 23.2043 166.058 23.2043C165.933 23.2043 165.809 23.1784 165.694 23.1283C165.58 23.0782 165.476 23.0049 165.391 22.913C165.306 22.8211 165.241 22.7126 165.199 22.5943C165.158 22.4761 165.142 22.3505 165.151 22.2256V20.2444ZM165.749 22.262C165.749 22.5324 165.869 22.6364 166.056 22.6364C166.243 22.6364 166.368 22.5324 166.368 22.262V20.2444C166.368 19.974 166.248 19.87 166.056 19.87C165.863 19.87 165.749 19.974 165.749 20.2444V22.262Z" fill="#263238"/>
<path d="M165.568 25.2675C165.719 25.2861 165.87 25.2471 165.993 25.1583C166.115 25.0695 166.2 24.9376 166.229 24.7891H166.629V28.6007H166.031V25.6939H165.568V25.2675Z" fill="#263238"/>
<path d="M165.568 36.162C165.719 36.1806 165.87 36.1416 165.993 36.0528C166.115 35.964 166.2 35.8321 166.229 35.6836H166.629V39.4848H166.031V36.5884H165.568V36.162Z" fill="#263238"/>
<path d="M165.568 41.6073C165.719 41.6259 165.87 41.5869 165.993 41.4981C166.115 41.4094 166.2 41.2774 166.229 41.1289H166.629V44.9405H166.031V42.0337H165.568V41.6073Z" fill="#263238"/>
<path d="M165.568 47.0565C165.719 47.0751 165.87 47.0361 165.993 46.9474C166.115 46.8586 166.2 46.7266 166.229 46.5781H166.629V50.4053H166.031V47.4985H165.568V47.0565Z" fill="#263238"/>
<path d="M19.209 64.2225C19.209 63.9812 19.3049 63.7497 19.4755 63.579C19.6462 63.4084 19.8776 63.3125 20.119 63.3125C20.3603 63.3125 20.5918 63.4084 20.7625 63.579C20.9331 63.7497 21.029 63.9812 21.029 64.2225V66.2089C21.029 66.4502 20.9331 66.6817 20.7625 66.8524C20.5918 67.023 20.3603 67.1189 20.119 67.1189C19.8776 67.1189 19.6462 67.023 19.4755 66.8524C19.3049 66.6817 19.209 66.4502 19.209 66.2089V64.2225ZM19.807 66.2453C19.807 66.5157 19.9266 66.6197 20.119 66.6197C20.3114 66.6197 20.4258 66.5157 20.4258 66.2453V64.1653C20.4258 63.8949 20.3062 63.7909 20.119 63.7909C19.9318 63.7909 19.807 63.8949 19.807 64.1653V66.2453Z" fill="#263238"/>
<path d="M19.209 69.6717C19.209 69.4304 19.3049 69.1989 19.4755 69.0282C19.6462 68.8576 19.8776 68.7617 20.119 68.7617C20.3603 68.7617 20.5918 68.8576 20.7625 69.0282C20.9331 69.1989 21.029 69.4304 21.029 69.6717V71.6529C21.029 71.8943 20.9331 72.1257 20.7625 72.2964C20.5918 72.467 20.3603 72.5629 20.119 72.5629C19.8776 72.5629 19.6462 72.467 19.4755 72.2964C19.3049 72.1257 19.209 71.8943 19.209 71.6529V69.6717ZM19.807 71.6893C19.807 71.9649 19.9266 72.0637 20.119 72.0637C20.3114 72.0637 20.4258 71.9649 20.4258 71.6893V69.6093C20.4258 69.3389 20.3062 69.2349 20.119 69.2349C19.9318 69.2349 19.807 69.3389 19.807 69.6093V71.6893Z" fill="#263238"/>
<path d="M19.625 74.6776C19.7746 74.6961 19.9255 74.6569 20.0473 74.5681C20.169 74.4792 20.2523 74.3473 20.2802 74.1992H20.6858V78.0108H20.0878V75.104H19.625V74.6776Z" fill="#263238"/>
<path d="M19.209 80.5662C19.209 80.3249 19.3049 80.0934 19.4755 79.9228C19.6462 79.7521 19.8776 79.6562 20.119 79.6562C20.3603 79.6562 20.5918 79.7521 20.7625 79.9228C20.9331 80.0934 21.029 80.3249 21.029 80.5662V82.5527C21.029 82.794 20.9331 83.0255 20.7625 83.1961C20.5918 83.3668 20.3603 83.4627 20.119 83.4627C19.8776 83.4627 19.6462 83.3668 19.4755 83.1961C19.3049 83.0255 19.209 82.794 19.209 82.5527V80.5662ZM19.807 82.589C19.807 82.8594 19.9266 82.9635 20.119 82.9635C20.3114 82.9635 20.4258 82.8594 20.4258 82.589V80.509C20.4258 80.2386 20.3062 80.1346 20.119 80.1346C19.9318 80.1346 19.807 80.2386 19.807 80.509V82.589Z" fill="#263238"/>
<path d="M19.625 85.5721C19.7746 85.5906 19.9255 85.5514 20.0473 85.4626C20.169 85.3737 20.2523 85.2418 20.2802 85.0938H20.6858V88.8845H20.0878V85.9777H19.625V85.5721Z" fill="#263238"/>
<path d="M19.209 91.453C19.209 91.2116 19.3049 90.9802 19.4755 90.8095C19.6462 90.6388 19.8776 90.543 20.119 90.543C20.3603 90.543 20.5918 90.6388 20.7625 90.8095C20.9331 90.9802 21.029 91.2116 21.029 91.453V93.4342C21.029 93.6755 20.9331 93.907 20.7625 94.0776C20.5918 94.2483 20.3603 94.3442 20.119 94.3442C19.8776 94.3442 19.6462 94.2483 19.4755 94.0776C19.3049 93.907 19.209 93.6755 19.209 93.4342V91.453ZM19.807 93.4758C19.807 93.7462 19.9266 93.8502 20.119 93.8502C20.3114 93.8502 20.4258 93.7462 20.4258 93.4758V91.3958C20.4258 91.1202 20.3062 91.0214 20.119 91.0214C19.9318 91.0214 19.807 91.1202 19.807 91.3958V93.4758Z" fill="#263238"/>
<path d="M19.625 96.4667C19.7746 96.4852 19.9255 96.446 20.0473 96.3571C20.169 96.2682 20.2523 96.1364 20.2802 95.9883H20.6858V99.8051H20.0878V96.8983H19.625V96.4667Z" fill="#263238"/>
<path d="M19.209 102.347C19.209 102.106 19.3049 101.875 19.4755 101.704C19.6462 101.533 19.8776 101.438 20.119 101.438C20.3603 101.438 20.5918 101.533 20.7625 101.704C20.9331 101.875 21.029 102.106 21.029 102.347V104.329C21.029 104.57 20.9331 104.802 20.7625 104.972C20.5918 105.143 20.3603 105.239 20.119 105.239C19.8776 105.239 19.6462 105.143 19.4755 104.972C19.3049 104.802 19.209 104.57 19.209 104.329V102.347ZM19.807 104.365C19.807 104.641 19.9266 104.74 20.119 104.74C20.3114 104.74 20.4258 104.641 20.4258 104.365V102.285C20.4258 102.015 20.3062 101.911 20.119 101.911C19.9318 101.911 19.807 102.015 19.807 102.285V104.365Z" fill="#263238"/>
<path d="M19.209 107.793C19.209 107.551 19.3049 107.32 19.4755 107.149C19.6462 106.979 19.8776 106.883 20.119 106.883C20.3603 106.883 20.5918 106.979 20.7625 107.149C20.9331 107.32 21.029 107.551 21.029 107.793V109.774C21.029 110.015 20.9331 110.247 20.7625 110.417C20.5918 110.588 20.3603 110.684 20.119 110.684C19.8776 110.684 19.6462 110.588 19.4755 110.417C19.3049 110.247 19.209 110.015 19.209 109.774V107.793ZM19.807 109.816C19.807 110.086 19.9266 110.19 20.119 110.19C20.3114 110.19 20.4258 110.086 20.4258 109.816V107.736C20.4258 107.465 20.3062 107.361 20.119 107.361C19.9318 107.361 19.807 107.465 19.807 107.736V109.816Z" fill="#263238"/>
<path d="M19.209 113.242C19.209 113.001 19.3049 112.769 19.4755 112.599C19.6462 112.428 19.8776 112.332 20.119 112.332C20.3603 112.332 20.5918 112.428 20.7625 112.599C20.9331 112.769 21.029 113.001 21.029 113.242V115.223C21.029 115.465 20.9331 115.696 20.7625 115.867C20.5918 116.037 20.3603 116.133 20.119 116.133C19.8776 116.133 19.6462 116.037 19.4755 115.867C19.3049 115.696 19.209 115.465 19.209 115.223V113.242ZM19.807 115.26C19.807 115.53 19.9266 115.634 20.119 115.634C20.3114 115.634 20.4258 115.53 20.4258 115.26V113.18C20.4258 112.909 20.3062 112.805 20.119 112.805C19.9318 112.805 19.807 112.909 19.807 113.18V115.26Z" fill="#263238"/>
<path d="M19.625 123.693C19.7748 123.713 19.9264 123.674 20.0484 123.585C20.1704 123.496 20.2534 123.364 20.2802 123.215H20.6858V127.026H20.0878V124.12H19.625V123.693Z" fill="#263238"/>
<path d="M22.8477 85.5721C22.9978 85.5908 23.1495 85.5517 23.272 85.463C23.3946 85.3742 23.4789 85.2423 23.5081 85.0938H23.9085V88.8845H23.3209V85.9777H22.8477V85.5721Z" fill="#263238"/>
<path d="M22.8477 91.0175C22.9978 91.0361 23.1495 90.9971 23.272 90.9083C23.3946 90.8195 23.4789 90.6876 23.5081 90.5391H23.9085V94.3507H23.3209V91.4439H22.8477V91.0175Z" fill="#263238"/>
<path d="M22.4421 96.8967C22.4326 96.7718 22.449 96.6462 22.4903 96.5279C22.5316 96.4096 22.5969 96.3012 22.6821 96.2093C22.7673 96.1174 22.8706 96.0441 22.9854 95.994C23.1002 95.9438 23.2242 95.918 23.3495 95.918C23.4747 95.918 23.5987 95.9438 23.7135 95.994C23.8284 96.0441 23.9316 96.1174 24.0168 96.2093C24.102 96.3012 24.1673 96.4096 24.2086 96.5279C24.2499 96.6462 24.2663 96.7718 24.2569 96.8967V98.8831C24.2663 99.008 24.2499 99.1336 24.2086 99.2519C24.1673 99.3702 24.102 99.4787 24.0168 99.5705C23.9316 99.6624 23.8284 99.7357 23.7135 99.7858C23.5987 99.836 23.4747 99.8619 23.3495 99.8619C23.2242 99.8619 23.1002 99.836 22.9854 99.7858C22.8706 99.7357 22.7673 99.6624 22.6821 99.5705C22.5969 99.4787 22.5316 99.3702 22.4903 99.2519C22.449 99.1336 22.4326 99.008 22.4421 98.8831V96.8967ZM23.0401 98.9195C23.0401 99.1899 23.1597 99.2939 23.3469 99.2939C23.5341 99.2939 23.6589 99.1899 23.6589 98.9195V96.8395C23.6589 96.5691 23.5393 96.4651 23.3469 96.4651C23.1545 96.4651 23.0401 96.5691 23.0401 96.8395V98.9195Z" fill="#263238"/>
<path d="M22.4421 102.346C22.4326 102.221 22.449 102.095 22.4903 101.977C22.5316 101.859 22.5969 101.75 22.6821 101.658C22.7673 101.567 22.8706 101.493 22.9854 101.443C23.1002 101.393 23.2242 101.367 23.3495 101.367C23.4747 101.367 23.5987 101.393 23.7135 101.443C23.8284 101.493 23.9316 101.567 24.0168 101.658C24.102 101.75 24.1673 101.859 24.2086 101.977C24.2499 102.095 24.2663 102.221 24.2569 102.346V104.327C24.2663 104.452 24.2499 104.578 24.2086 104.696C24.1673 104.814 24.102 104.923 24.0168 105.015C23.9316 105.106 23.8284 105.18 23.7135 105.23C23.5987 105.28 23.4747 105.306 23.3495 105.306C23.2242 105.306 23.1002 105.28 22.9854 105.23C22.8706 105.18 22.7673 105.106 22.6821 105.015C22.5969 104.923 22.5316 104.814 22.4903 104.696C22.449 104.578 22.4326 104.452 22.4421 104.327V102.346ZM23.0401 104.364C23.0401 104.639 23.1597 104.738 23.3469 104.738C23.5341 104.738 23.6589 104.639 23.6589 104.364V102.284C23.6589 102.013 23.5393 101.909 23.3469 101.909C23.1545 101.909 23.0401 102.013 23.0401 102.284V104.364Z" fill="#263238"/>
<path d="M22.8477 107.353C22.998 107.373 23.1503 107.335 23.2732 107.246C23.396 107.157 23.4801 107.024 23.5081 106.875H23.9085V110.687H23.3209V107.78H22.8477V107.353Z" fill="#263238"/>
<path d="M22.8477 118.248C22.9978 118.267 23.1495 118.228 23.272 118.139C23.3946 118.05 23.4789 117.918 23.5081 117.77H23.9085V121.581H23.3209V118.674H22.8477V118.248Z" fill="#263238"/>
<path d="M15.9629 80.5662C15.9629 80.3249 16.0588 80.0934 16.2294 79.9228C16.4001 79.7521 16.6315 79.6562 16.8729 79.6562C17.1142 79.6562 17.3457 79.7521 17.5164 79.9228C17.687 80.0934 17.7829 80.3249 17.7829 80.5662V82.5527C17.7829 82.794 17.687 83.0255 17.5164 83.1961C17.3457 83.3668 17.1142 83.4627 16.8729 83.4627C16.6315 83.4627 16.4001 83.3668 16.2294 83.1961C16.0588 83.0255 15.9629 82.794 15.9629 82.5527V80.5662ZM16.5661 82.589C16.5661 82.8594 16.6857 82.9635 16.8729 82.9635C17.0601 82.9635 17.1849 82.8594 17.1849 82.589V80.509C17.1849 80.2386 17.0653 80.1346 16.8729 80.1346C16.6805 80.1346 16.5661 80.2386 16.5661 80.509V82.589Z" fill="#263238"/>
<path d="M16.3848 85.5721C16.5349 85.5908 16.6866 85.5517 16.8092 85.463C16.9317 85.3742 17.016 85.2423 17.0452 85.0938H17.4456V88.8845H16.8476V85.9777H16.3848V85.5721Z" fill="#263238"/>
<path d="M16.3848 91.0175C16.5349 91.0361 16.6866 90.9971 16.8092 90.9083C16.9317 90.8195 17.016 90.6876 17.0452 90.5391H17.4456V94.3507H16.8476V91.4439H16.3848V91.0175Z" fill="#263238"/>
<path d="M15.9629 96.8983C15.9629 96.6569 16.0588 96.4255 16.2294 96.2548C16.4001 96.0842 16.6315 95.9883 16.8729 95.9883C17.1142 95.9883 17.3457 96.0842 17.5164 96.2548C17.687 96.4255 17.7829 96.6569 17.7829 96.8983V98.8847C17.7829 99.126 17.687 99.3575 17.5164 99.5281C17.3457 99.6988 17.1142 99.7947 16.8729 99.7947C16.6315 99.7947 16.4001 99.6988 16.2294 99.5281C16.0588 99.3575 15.9629 99.126 15.9629 98.8847V96.8983ZM16.5661 98.9211C16.5661 99.1915 16.6857 99.2955 16.8729 99.2955C17.0601 99.2955 17.1849 99.1915 17.1849 98.9211V96.8411C17.1849 96.5707 17.0653 96.4667 16.8729 96.4667C16.6805 96.4667 16.5661 96.5707 16.5661 96.8411V98.9211Z" fill="#263238"/>
<path d="M16.3848 101.912C16.5349 101.931 16.6866 101.892 16.8092 101.803C16.9317 101.714 17.016 101.582 17.0452 101.434H17.4456V105.245H16.8476V102.338H16.3848V101.912Z" fill="#263238"/>
<path d="M15.9629 107.793C15.9629 107.551 16.0588 107.32 16.2294 107.149C16.4001 106.979 16.6315 106.883 16.8729 106.883C17.1142 106.883 17.3457 106.979 17.5164 107.149C17.687 107.32 17.7829 107.551 17.7829 107.793V109.774C17.7829 110.015 17.687 110.247 17.5164 110.417C17.3457 110.588 17.1142 110.684 16.8729 110.684C16.6315 110.684 16.4001 110.588 16.2294 110.417C16.0588 110.247 15.9629 110.015 15.9629 109.774V107.793ZM16.5661 109.816C16.5661 110.086 16.6857 110.19 16.8729 110.19C17.0601 110.19 17.1849 110.086 17.1849 109.816V107.736C17.1849 107.465 17.0653 107.361 16.8729 107.361C16.6805 107.361 16.5661 107.465 16.5661 107.736V109.816Z" fill="#263238"/>
<path d="M12.7292 69.6702C12.7197 69.5452 12.7361 69.4197 12.7774 69.3014C12.8188 69.1831 12.884 69.0746 12.9692 68.9827C13.0544 68.8908 13.1577 68.8175 13.2725 68.7674C13.3873 68.7173 13.5113 68.6914 13.6366 68.6914C13.7619 68.6914 13.8858 68.7173 14.0006 68.7674C14.1155 68.8175 14.2187 68.8908 14.3039 68.9827C14.3891 69.0746 14.4544 69.1831 14.4957 69.3014C14.537 69.4197 14.5534 69.5452 14.544 69.6702V71.6514C14.5534 71.7763 14.537 71.9018 14.4957 72.0201C14.4544 72.1384 14.3891 72.2469 14.3039 72.3388C14.2187 72.4307 14.1155 72.504 14.0006 72.5541C13.8858 72.6042 13.7619 72.6301 13.6366 72.6301C13.5113 72.6301 13.3873 72.6042 13.2725 72.5541C13.1577 72.504 13.0544 72.4307 12.9692 72.3388C12.884 72.2469 12.8188 72.1384 12.7774 72.0201C12.7361 71.9018 12.7197 71.7763 12.7292 71.6514V69.6702ZM13.3272 71.6877C13.3272 71.9633 13.4468 72.0621 13.634 72.0621C13.8212 72.0621 13.946 71.9633 13.946 71.6877V69.6077C13.946 69.3321 13.8264 69.2281 13.634 69.2281C13.4416 69.2281 13.3272 69.3321 13.3272 69.6077V71.6877Z" fill="#263238"/>
<path d="M13.1445 80.1268C13.2947 80.1455 13.4464 80.1064 13.5689 80.0177C13.6915 79.9289 13.7758 79.7969 13.8049 79.6484H14.2053V83.4548H13.6073V80.5636H13.1445V80.1268Z" fill="#263238"/>
<path d="M12.7292 86.01C12.7197 85.8851 12.7361 85.7595 12.7774 85.6412C12.8188 85.5229 12.884 85.4144 12.9692 85.3226C13.0544 85.2307 13.1577 85.1574 13.2725 85.1072C13.3873 85.0571 13.5113 85.0312 13.6366 85.0312C13.7619 85.0312 13.8858 85.0571 14.0006 85.1072C14.1155 85.1574 14.2187 85.2307 14.3039 85.3226C14.3891 85.4144 14.4544 85.5229 14.4957 85.6412C14.537 85.7595 14.5534 85.8851 14.544 86.01V87.9912C14.5534 88.1161 14.537 88.2417 14.4957 88.36C14.4544 88.4783 14.3891 88.5867 14.3039 88.6786C14.2187 88.7705 14.1155 88.8438 14.0006 88.8939C13.8858 88.9441 13.7619 88.9699 13.6366 88.9699C13.5113 88.9699 13.3873 88.9441 13.2725 88.8939C13.1577 88.8438 13.0544 88.7705 12.9692 88.6786C12.884 88.5867 12.8188 88.4783 12.7774 88.36C12.7361 88.2417 12.7197 88.1161 12.7292 87.9912V86.01ZM13.3272 88.0276C13.3272 88.3032 13.4468 88.402 13.634 88.402C13.8212 88.402 13.946 88.3032 13.946 88.0276V85.9736C13.946 85.698 13.8264 85.594 13.634 85.594C13.4416 85.594 13.3272 85.698 13.3272 85.9736V88.0276Z" fill="#263238"/>
<path d="M12.7292 96.9045C12.7197 96.7796 12.7361 96.654 12.7774 96.5358C12.8188 96.4175 12.884 96.309 12.9692 96.2171C13.0544 96.1252 13.1577 96.0519 13.2725 96.0018C13.3873 95.9517 13.5113 95.9258 13.6366 95.9258C13.7619 95.9258 13.8858 95.9517 14.0006 96.0018C14.1155 96.0519 14.2187 96.1252 14.3039 96.2171C14.3891 96.309 14.4544 96.4175 14.4957 96.5358C14.537 96.654 14.5534 96.7796 14.544 96.9045V98.8857C14.5534 99.0107 14.537 99.1362 14.4957 99.2545C14.4544 99.3728 14.3891 99.4813 14.3039 99.5731C14.2187 99.665 14.1155 99.7383 14.0006 99.7885C13.8858 99.8386 13.7619 99.8645 13.6366 99.8645C13.5113 99.8645 13.3873 99.8386 13.2725 99.7885C13.1577 99.7383 13.0544 99.665 12.9692 99.5731C12.884 99.4813 12.8188 99.3728 12.7774 99.2545C12.7361 99.1362 12.7197 99.0107 12.7292 98.8857V96.9045ZM13.3272 98.9221C13.3272 99.1925 13.4468 99.2965 13.634 99.2965C13.8212 99.2965 13.946 99.1925 13.946 98.9221V96.8421C13.946 96.5717 13.8264 96.4677 13.634 96.4677C13.4416 96.4677 13.3272 96.5717 13.3272 96.8421V98.9221Z" fill="#263238"/>
<path d="M12.7292 102.346C12.7197 102.221 12.7361 102.095 12.7774 101.977C12.8188 101.859 12.884 101.75 12.9692 101.658C13.0544 101.567 13.1577 101.493 13.2725 101.443C13.3873 101.393 13.5113 101.367 13.6366 101.367C13.7619 101.367 13.8858 101.393 14.0006 101.443C14.1155 101.493 14.2187 101.567 14.3039 101.658C14.3891 101.75 14.4544 101.859 14.4957 101.977C14.537 102.095 14.5534 102.221 14.544 102.346V104.327C14.5534 104.452 14.537 104.578 14.4957 104.696C14.4544 104.814 14.3891 104.923 14.3039 105.015C14.2187 105.106 14.1155 105.18 14.0006 105.23C13.8858 105.28 13.7619 105.306 13.6366 105.306C13.5113 105.306 13.3873 105.28 13.2725 105.23C13.1577 105.18 13.0544 105.106 12.9692 105.015C12.884 104.923 12.8188 104.814 12.7774 104.696C12.7361 104.578 12.7197 104.452 12.7292 104.327V102.346ZM13.3272 104.364C13.3272 104.639 13.4468 104.743 13.634 104.743C13.8212 104.743 13.946 104.639 13.946 104.364V102.284C13.946 102.008 13.8264 101.904 13.634 101.904C13.4416 101.904 13.3272 102.008 13.3272 102.284V104.364Z" fill="#263238"/>
<path d="M12.7292 107.791C12.7197 107.666 12.7361 107.541 12.7774 107.422C12.8188 107.304 12.884 107.196 12.9692 107.104C13.0544 107.012 13.1577 106.939 13.2725 106.888C13.3873 106.838 13.5113 106.812 13.6366 106.812C13.7619 106.812 13.8858 106.838 14.0006 106.888C14.1155 106.939 14.2187 107.012 14.3039 107.104C14.3891 107.196 14.4544 107.304 14.4957 107.422C14.537 107.541 14.5534 107.666 14.544 107.791V109.772C14.5534 109.897 14.537 110.023 14.4957 110.141C14.4544 110.26 14.3891 110.368 14.3039 110.46C14.2187 110.552 14.1155 110.625 14.0006 110.675C13.8858 110.725 13.7619 110.751 13.6366 110.751C13.5113 110.751 13.3873 110.725 13.2725 110.675C13.1577 110.625 13.0544 110.552 12.9692 110.46C12.884 110.368 12.8188 110.26 12.7774 110.141C12.7361 110.023 12.7197 109.897 12.7292 109.772V107.791ZM13.3272 109.814C13.3272 110.084 13.4468 110.188 13.634 110.188C13.8212 110.188 13.946 110.084 13.946 109.814V107.734C13.946 107.464 13.8264 107.36 13.634 107.36C13.4416 107.36 13.3272 107.464 13.3272 107.734V109.814Z" fill="#263238"/>
<path d="M13.1445 123.726C13.2955 123.744 13.4478 123.705 13.5704 123.615C13.6931 123.525 13.777 123.392 13.8049 123.242H14.2053V127.054H13.6073V124.147H13.1445V123.726Z" fill="#263238"/>
<path d="M195.556 120.403C178.562 113.523 177.33 89.8632 177.33 89.8632H180.97V87.0344C189.597 87.0344 195.556 81.6836 195.556 81.6836C195.556 81.6836 201.515 87.0344 210.142 87.0344V89.8632H213.782C213.782 89.8632 212.544 113.523 195.556 120.403Z" stroke="#263238" stroke-width="1.10721" stroke-linecap="round" stroke-linejoin="round"/>
<path d="M195.557 117.279C184.424 112.079 181.2 98.2675 180.311 92.3187H183.639V89.3443C187.917 88.8161 192.005 87.2642 195.557 84.8203C199.11 87.2641 203.2 88.8159 207.481 89.3443V92.3187H210.798C209.899 98.2467 206.654 112.079 195.557 117.279Z" stroke="#263238" stroke-width="1.10721" stroke-linecap="round" stroke-linejoin="round"/>
<path d="M201.556 97.7109H189.55C189.162 97.7109 188.848 98.0252 188.848 98.4129V105.625C188.848 106.013 189.162 106.327 189.55 106.327H201.556C201.944 106.327 202.258 106.013 202.258 105.625V98.4129C202.258 98.0252 201.944 97.7109 201.556 97.7109Z" fill="#263238"/>
<path d="M195.796 90.4471C195.144 90.4154 194.492 90.5165 193.88 90.7441C193.268 90.9717 192.708 91.3212 192.235 91.7714C191.762 92.2216 191.385 92.7631 191.128 93.3631C190.87 93.9632 190.737 94.6093 190.736 95.2623V95.7823C190.736 95.8267 190.745 95.8706 190.762 95.9116C190.779 95.9526 190.804 95.9899 190.835 96.0213C190.867 96.0527 190.904 96.0776 190.945 96.0946C190.986 96.1115 191.03 96.1203 191.074 96.1203H192.291C192.336 96.1203 192.379 96.1115 192.42 96.0946C192.461 96.0776 192.499 96.0527 192.53 96.0213C192.562 95.9899 192.586 95.9526 192.603 95.9116C192.62 95.8706 192.629 95.8267 192.629 95.7823V95.3819C192.62 94.6283 192.895 93.8989 193.4 93.3397C193.905 92.7805 194.603 92.4327 195.354 92.3659C195.753 92.3396 196.154 92.3955 196.531 92.5301C196.908 92.6648 197.253 92.8753 197.546 93.1487C197.838 93.4221 198.071 93.7526 198.231 94.1197C198.391 94.4868 198.473 94.8828 198.474 95.2831V95.8031C198.474 95.8927 198.51 95.9787 198.573 96.0421C198.636 96.1055 198.722 96.1411 198.812 96.1411H200.029C200.118 96.1411 200.204 96.1055 200.268 96.0421C200.331 95.9787 200.367 95.8927 200.367 95.8031V95.4391C200.39 94.1798 199.928 92.9596 199.078 92.0307C198.227 91.1017 197.052 90.5348 195.796 90.4471Z" fill="#263238"/>
<path d="M196.814 101.054C196.814 100.829 196.754 100.609 196.641 100.415C196.527 100.221 196.364 100.061 196.167 99.9517C195.971 99.8425 195.749 99.7878 195.524 99.7934C195.299 99.799 195.08 99.8646 194.889 99.9836C194.699 100.102 194.543 100.27 194.439 100.47C194.336 100.669 194.287 100.892 194.299 101.117C194.31 101.341 194.382 101.559 194.506 101.746C194.63 101.933 194.802 102.084 195.004 102.183L194.546 104.205H196.559L196.101 102.183C196.313 102.08 196.493 101.92 196.619 101.72C196.744 101.521 196.812 101.29 196.814 101.054Z" fill="white" stroke="#263238" stroke-width="1.10721" stroke-linecap="round" stroke-linejoin="round"/>
<path d="M141.866 11.9883H100.806C99.853 11.9883 99.0801 12.7612 99.0801 13.7147V36.8339C99.0801 37.7873 99.853 38.5603 100.806 38.5603H141.866C142.819 38.5603 143.592 37.7873 143.592 36.8339V13.7147C143.592 12.7612 142.819 11.9883 141.866 11.9883Z" stroke="#263238" stroke-width="1.10721" stroke-linecap="round" stroke-linejoin="round"/>
<path d="M103.225 34.8477H116.105C116.435 34.8477 116.703 34.5799 116.703 34.2497V16.3045C116.703 15.9742 116.435 15.7065 116.105 15.7065H103.225C102.894 15.7065 102.627 15.9742 102.627 16.3045V34.2497C102.627 34.5799 102.894 34.8477 103.225 34.8477Z" stroke="#263238" stroke-width="1.10721" stroke-linecap="round" stroke-linejoin="round"/>
<path d="M109.689 34.8424H103.261C103.093 34.8424 102.932 34.7755 102.813 34.6565C102.694 34.5376 102.627 34.3762 102.627 34.208V29.788C102.627 29.788 106.22 29.632 106.823 28.8676C107.427 28.1032 106.761 26.9071 106.761 26.9071C106.543 26.6368 106.491 24.7179 106.491 24.7179L106.272 24.6607C106.059 24.6087 105.752 23.0176 105.752 22.4196C105.752 22.2473 105.8 22.0785 105.892 21.933C105.985 21.7874 106.116 21.6712 106.272 21.5979C106.272 21.5979 105.752 17.7188 109.668 17.7188C113.583 17.7188 113.058 21.5979 113.058 21.5979C113.214 21.6712 113.346 21.7874 113.438 21.933C113.53 22.0785 113.579 22.2473 113.578 22.4196C113.578 23.0176 113.297 24.6087 113.058 24.6607L112.84 24.7179C112.84 24.7179 112.788 26.6368 112.569 26.9071C112.569 26.9071 111.899 28.1032 112.507 28.8676C113.115 29.632 116.703 29.788 116.703 29.788V34.208C116.704 34.2915 116.688 34.3743 116.656 34.4515C116.625 34.5288 116.578 34.599 116.519 34.6581C116.46 34.7171 116.39 34.7638 116.313 34.7955C116.235 34.8271 116.152 34.843 116.069 34.8424H109.689Z" fill="#263238"/>
<path d="M139.131 34.9367H130.384C130.21 34.9367 130.044 34.8688 129.919 34.7473C129.795 34.6258 129.723 34.4605 129.719 34.2867C129.719 34.1102 129.789 33.9409 129.914 33.816C130.039 33.6912 130.208 33.6211 130.384 33.6211H139.131C139.307 33.6211 139.477 33.6912 139.601 33.816C139.726 33.9409 139.796 34.1102 139.796 34.2867C139.792 34.4605 139.72 34.6258 139.596 34.7473C139.472 34.8688 139.305 34.9367 139.131 34.9367Z" fill="#263238"/>
<path d="M139.13 16.9445H120.998C120.821 16.9445 120.652 16.8744 120.527 16.7495C120.402 16.6247 120.332 16.4554 120.332 16.2789C120.332 16.1024 120.402 15.9331 120.527 15.8082C120.652 15.6834 120.821 15.6133 120.998 15.6133H139.13C139.307 15.6133 139.476 15.6834 139.601 15.8082C139.725 15.9331 139.796 16.1024 139.796 16.2789C139.796 16.4554 139.725 16.6247 139.601 16.7495C139.476 16.8744 139.307 16.9445 139.13 16.9445Z" fill="#263238"/>
<path d="M131.398 21.4432H120.998C120.909 21.4432 120.822 21.4256 120.741 21.3915C120.659 21.3574 120.585 21.3075 120.523 21.2445C120.461 21.1816 120.413 21.107 120.38 21.0251C120.347 20.9431 120.331 20.8554 120.332 20.7672C120.332 20.5906 120.402 20.4213 120.527 20.2965C120.652 20.1717 120.821 20.1016 120.998 20.1016H131.398C131.572 20.1056 131.737 20.1776 131.858 20.3019C131.98 20.4263 132.048 20.5933 132.048 20.7672C132.051 20.9428 131.984 21.1124 131.862 21.2391C131.74 21.3657 131.573 21.4391 131.398 21.4432Z" fill="#263238"/>
<path d="M128.085 25.964H120.998C120.821 25.964 120.652 25.8939 120.527 25.7691C120.402 25.6442 120.332 25.4749 120.332 25.2984C120.332 25.1219 120.402 24.9526 120.527 24.8278C120.652 24.7029 120.821 24.6328 120.998 24.6328H128.085C128.262 24.6328 128.431 24.7029 128.556 24.8278C128.681 24.9526 128.751 25.1219 128.751 25.2984C128.751 25.4749 128.681 25.6442 128.556 25.7691C128.431 25.8939 128.262 25.964 128.085 25.964Z" fill="#263238"/>
<path d="M131.398 30.4379H120.998C120.821 30.4379 120.652 30.3678 120.527 30.243C120.402 30.1182 120.332 29.9489 120.332 29.7723C120.33 29.6832 120.345 29.5944 120.377 29.5112C120.409 29.4281 120.458 29.3522 120.52 29.2882C120.582 29.2242 120.656 29.1733 120.738 29.1385C120.82 29.1038 120.909 29.0859 120.998 29.0859H131.398C131.486 29.088 131.572 29.1074 131.653 29.143C131.733 29.1787 131.806 29.2299 131.866 29.2937C131.926 29.3575 131.974 29.4327 132.005 29.5148C132.036 29.597 132.051 29.6845 132.048 29.7723C132.048 29.9462 131.98 30.1132 131.859 30.2376C131.737 30.3619 131.572 30.4339 131.398 30.4379Z" fill="#263238"/>
<path d="M57.252 82.7383V108.322L50.3672 115.207H32.084V82.7383H57.252Z" stroke="#263238" stroke-width="1.10721" stroke-linecap="round" stroke-linejoin="round"/>
<path d="M57.252 108.324L50.3672 115.209V108.324H57.252Z" fill="#263238" stroke="#263238" stroke-width="1.10721" stroke-linecap="round" stroke-linejoin="round"/>
<path d="M38.2148 86.8789H53.404" stroke="#263238" stroke-width="1.10721" stroke-linecap="round" stroke-linejoin="round"/>
<path d="M35.9277 89.7383H53.4049" stroke="#263238" stroke-width="1.10721" stroke-linecap="round" stroke-linejoin="round"/>
<path d="M35.9277 92.5977H53.4049" stroke="#263238" stroke-width="1.10721" stroke-linecap="round" stroke-linejoin="round"/>
<path d="M35.9277 95.457H53.4049" stroke="#263238" stroke-width="1.10721" stroke-linecap="round" stroke-linejoin="round"/>
<path d="M35.9277 98.3164H53.4049" stroke="#263238" stroke-width="1.10721" stroke-linecap="round" stroke-linejoin="round"/>
<path d="M35.9277 101.176H53.4049" stroke="#263238" stroke-width="1.10721" stroke-linecap="round" stroke-linejoin="round"/>
<path d="M35.9277 104.031H53.4049" stroke="#263238" stroke-width="1.10721" stroke-linecap="round" stroke-linejoin="round"/>
<path d="M35.9277 106.891H51.1221" stroke="#263238" stroke-width="1.10721" stroke-linecap="round" stroke-linejoin="round"/>
<path d="M58.4475 86.8789H61.3855V112.463L54.5059 119.348H36.2227V116.321" stroke="#263238" stroke-width="1.10721" stroke-linecap="round" stroke-linejoin="round"/>
<path d="M61.3855 112.461L54.5059 119.346V112.461H61.3855Z" fill="#263238" stroke="#263238" stroke-width="1.10721" stroke-linecap="round" stroke-linejoin="round"/>
<path d="M151.798 64.9492H90.8747C89.657 64.9492 88.6699 65.9363 88.6699 67.154V134.931C88.6699 136.148 89.657 137.136 90.8747 137.136H151.798C153.016 137.136 154.003 136.148 154.003 134.931V67.154C154.003 65.9363 153.016 64.9492 151.798 64.9492Z" fill="#5BAAFF" stroke="#263238" stroke-width="1.10721" stroke-linecap="round" stroke-linejoin="round"/>
<g opacity="0.5">
<path d="M152.688 89.0156H89.9863" stroke="white" stroke-width="1.10721" stroke-linecap="round" stroke-linejoin="round"/>
<path d="M152.688 97.0352H89.9863" stroke="white" stroke-width="1.10721" stroke-linecap="round" stroke-linejoin="round"/>
<path d="M152.688 105.051H89.9863" stroke="white" stroke-width="1.10721" stroke-linecap="round" stroke-linejoin="round"/>
<path d="M152.688 113.07H89.9863" stroke="white" stroke-width="1.10721" stroke-linecap="round" stroke-linejoin="round"/>
<path d="M152.688 121.09H89.9863" stroke="white" stroke-width="1.10721" stroke-linecap="round" stroke-linejoin="round"/>
<path d="M152.688 129.113H89.9863" stroke="white" stroke-width="1.10721" stroke-linecap="round" stroke-linejoin="round"/>
<path d="M152.688 80.9922H89.9863" stroke="white" stroke-width="1.10721" stroke-linecap="round" stroke-linejoin="round"/>
<path d="M152.688 72.9727H89.9863" stroke="white" stroke-width="1.10721" stroke-linecap="round" stroke-linejoin="round"/>
<path d="M137.707 135.847V66.2344" stroke="white" stroke-width="1.10721" stroke-linecap="round" stroke-linejoin="round"/>
<path d="M129.521 135.847V66.2344" stroke="white" stroke-width="1.10721" stroke-linecap="round" stroke-linejoin="round"/>
<path d="M121.338 135.847V66.2344" stroke="white" stroke-width="1.10721" stroke-linecap="round" stroke-linejoin="round"/>
<path d="M113.152 135.847V66.2344" stroke="white" stroke-width="1.10721" stroke-linecap="round" stroke-linejoin="round"/>
<path d="M104.967 135.847V66.2344" stroke="white" stroke-width="1.10721" stroke-linecap="round" stroke-linejoin="round"/>
<path d="M96.7871 135.847V66.2344" stroke="white" stroke-width="1.10721" stroke-linecap="round" stroke-linejoin="round"/>
<path d="M145.891 135.847V66.2344" stroke="white" stroke-width="1.10721" stroke-linecap="round" stroke-linejoin="round"/>
</g>
<path d="M119.049 123.032C119.749 119.413 120.706 115.849 121.914 112.367C122.158 111.665 122.434 110.958 122.736 110.204C123.448 108.384 124.909 104.666 124.358 103.558C124.303 103.44 124.218 103.339 124.111 103.265C124.004 103.191 123.879 103.147 123.75 103.137C123.722 103.136 123.694 103.14 123.668 103.15C123.642 103.16 123.619 103.175 123.599 103.194C121.976 104.52 120.931 108.197 120.172 110.88L119.917 111.785C118.91 115.392 118.197 119.075 117.785 122.798" stroke="#263238" stroke-width="1.10721" stroke-linecap="round" stroke-linejoin="round"/>
<path d="M121.457 123.205C122.129 119.799 123.038 116.444 124.176 113.164C124.405 112.493 124.696 111.791 124.972 111.053C126.111 108.156 127.525 104.568 126.506 102.514C126.253 102.002 125.864 101.569 125.381 101.263C124.899 100.957 124.342 100.789 123.771 100.777C123.167 100.772 122.581 100.98 122.117 101.365C119.917 103.159 118.805 107.085 117.91 110.236L117.655 111.136C116.649 114.713 115.93 118.364 115.508 122.056" stroke="#263238" stroke-width="1.10721" stroke-linecap="round" stroke-linejoin="round"/>
<path d="M123.921 122.97C124.555 119.907 125.387 116.888 126.412 113.932C127.649 110.401 130.437 105.092 128.627 101.452C127.145 98.4727 123.266 97.3651 120.619 99.5283C117.593 101.993 116.391 106.938 115.372 110.479C114.411 113.889 113.703 117.365 113.256 120.879" stroke="#263238" stroke-width="1.10721" stroke-linecap="round" stroke-linejoin="round"/>
<path d="M126.511 122.254C127.077 119.702 127.792 117.186 128.654 114.719C128.856 114.131 129.116 113.476 129.392 112.774C130.869 109.014 132.71 104.329 130.749 100.388C130.102 99.0868 129.107 97.9904 127.876 97.2195C126.644 96.4486 125.224 96.0333 123.771 96.0196C122.075 96.0143 120.431 96.601 119.122 97.6784C115.763 100.419 114.442 105.146 113.345 108.936L113.095 109.815C112.219 112.902 111.553 116.045 111.104 119.222" stroke="#263238" stroke-width="1.10721" stroke-linecap="round" stroke-linejoin="round"/>
<path d="M129.277 120.886C129.76 118.983 130.291 117.22 130.889 115.504C131.086 114.948 131.331 114.318 131.591 113.658C133.151 109.664 135.298 104.215 132.87 99.3373C132.027 97.6407 130.731 96.2109 129.124 95.2066C127.518 94.2024 125.664 93.6631 123.77 93.6485C121.528 93.6405 119.354 94.4168 117.624 95.8429C113.682 99.0565 112.231 104.163 111.061 108.292L110.812 109.165C110.078 111.742 109.49 114.359 109.049 117.002" stroke="#263238" stroke-width="1.10721" stroke-linecap="round" stroke-linejoin="round"/>
<path d="M132.131 118.573C132.651 114.766 135.719 110.253 136.02 104.975C136.296 100.139 134.705 97.0396 133.576 95.4848C133.308 95.1017 133.138 94.6589 133.08 94.1949C133.022 93.7309 133.078 93.2597 133.244 92.8224C133.998 90.6065 133.972 88.1993 133.171 86" stroke="#263238" stroke-width="1.10721" stroke-linecap="round" stroke-linejoin="round"/>
<path d="M124.923 78.8906C128.927 81.397 131.527 85.3438 131.73 90.445C131.798 92.2754 130.311 92.9046 128.449 92.3378C124.554 91.1522 115.272 88.1154 109.615 104.022C108.531 107.323 107.73 110.71 107.223 114.147" stroke="#263238" stroke-width="1.10721" stroke-linecap="round" stroke-linejoin="round"/>
<path d="M116.967 79.1498C119.466 79.116 121.935 79.6945 124.159 80.8346C127.96 82.8782 130.352 87.683 129.13 88.905C127.773 90.2622 125.251 86.9862 117.539 90.1478C113.832 91.6662 111.201 94.7602 109.412 98.2754C108.605 99.881 107.924 101.546 107.373 103.257C106.656 105.457 106.066 107.697 105.605 109.965" stroke="#263238" stroke-width="1.10721" stroke-linecap="round" stroke-linejoin="round"/>
<path d="M112.584 82.0847C113.942 81.7267 115.34 81.5398 116.744 81.5283C123.551 81.3723 126.104 85.0019 125.355 85.9223C124.726 86.6971 123.327 86.2603 121.409 86.4943C115.871 87.1755 111.492 90.3267 108.544 94.9859C107.09 97.3453 105.93 99.874 105.091 102.516C104.935 102.989 104.784 103.467 104.639 103.946" stroke="#263238" stroke-width="1.10721" stroke-linecap="round" stroke-linejoin="round"/>
<path d="M109.376 86.0001C111.645 84.1678 114.502 83.2217 117.416 83.3377C118.279 83.3377 120.411 83.6185 120.697 84.4349C121.076 85.5061 117.613 84.0501 112.595 87.3937C106.163 91.6837 105.383 95.7501 105.383 95.7501" stroke="#263238" stroke-width="1.10721" stroke-linecap="round" stroke-linejoin="round"/>
<path d="M134.861 115.69C134.861 115.69 138.351 108.155 137.981 102.331C137.753 98.5815 135.901 96.2311 135.61 94.5619C135.319 92.8927 136.13 92.4819 135.912 90.9531" stroke="#263238" stroke-width="1.10721" stroke-linecap="round" stroke-linejoin="round"/>
<path d="M93.0684 80.2212V69.582H103.708" stroke="#263238" stroke-width="1.10721" stroke-linecap="round" stroke-linejoin="round"/>
<path d="M103.708 132.502H93.0684V121.863" stroke="#263238" stroke-width="1.10721" stroke-linecap="round" stroke-linejoin="round"/>
<path d="M149.608 80.2212V69.582H138.969" stroke="#263238" stroke-width="1.10721" stroke-linecap="round" stroke-linejoin="round"/>
<path d="M138.969 132.502H149.608V121.863" stroke="#263238" stroke-width="1.10721" stroke-linecap="round" stroke-linejoin="round"/>
<path d="M194.802 230.323C192.025 226.163 189.113 221.774 186.721 218.139C183.663 213.506 181.459 210.121 181.459 210.121C180.289 204.645 178.63 202.498 176.961 198C175.291 193.502 176.669 189.492 177.361 183.923C178.053 178.354 176.961 173.164 176.378 169.644C175.796 166.124 176.477 162.801 176.378 162.021C176.279 161.241 172.957 157.133 171.698 154.101C171.128 152.749 170.331 151.504 169.343 150.42C168.25 149.169 166.883 148.189 165.349 147.554C164.71 147.303 164.043 147.128 163.363 147.034C161.803 146.811 160.544 147.06 159.286 147.06C157.523 147.06 153.81 144.034 151.366 143.55C150.913 143.46 150.454 143.396 149.993 143.358C147.971 143.166 145.833 143.358 143.467 143.545C141.101 143.732 138.351 141.491 136.135 140.789H136.099C135.609 140.618 135.086 140.561 134.57 140.623C132.225 141.013 127.81 141.403 127.81 141.403C127.81 141.403 127.42 138.376 127.223 134.268C127.186 133.556 127.134 132.87 127.072 132.188C126.843 129.651 126.479 127.384 126.422 125.309C126.422 124.789 126.422 124.232 126.422 123.712C126.614 120.79 126.526 118.512 126.422 114.02C126.422 113.869 126.422 113.708 126.422 113.546C126.422 112.148 126.422 110.811 126.339 109.605C126.177 106.677 125.527 104.514 122.615 104.067C120.073 103.677 118.315 104.946 117.239 109.152C116.162 113.359 115.382 113.063 115.091 119.22C114.8 125.376 113.422 129.297 113.619 132.422C113.817 135.548 113.131 141.611 113.131 141.611C111.961 141.023 110.884 141.512 110.681 142.001C110.479 142.49 109.615 147.284 108.924 150.706C108.321 153.748 105.549 156.561 104.53 158.656V158.703C104.421 158.929 104.33 159.164 104.259 159.405C103.672 161.558 103.968 166.165 103.968 172.02C103.968 177.876 102.502 183.949 103.968 187.854C104.28 188.65 104.718 189.391 105.263 190.049C107.515 192.831 111.649 195.249 115.408 199.684C120.088 205.259 123.427 209.367 126.552 211.228C128.793 212.549 129.776 213.631 130.192 215.056C130.355 215.674 130.441 216.309 130.447 216.948C130.488 218.196 131.164 219.148 132.308 220.729C134.093 223.147 135.659 225.719 136.988 228.414C138.241 230.926 140.16 235.694 142.188 240.978L194.802 230.323Z" fill="white"/>
<path opacity="0.4" d="M126.407 123.688C126.376 124.208 126.371 124.728 126.407 125.284C122.668 124.577 115.451 126.423 115.341 128.628C115.217 131.316 114.889 137.67 116.257 139.152C117.624 140.634 120.557 141.581 120.557 141.581C120.341 141.597 120.125 141.625 119.912 141.664H119.839C118.904 141.861 118.051 142.34 117.395 143.037C114.535 145.97 114.416 152.47 115.352 155.6C119.267 168.6 112.929 178.886 110.672 177.638C108.415 176.39 108.233 165.215 108.914 162.599C109.326 161.074 109.527 159.499 109.512 157.919C108.514 157.586 106.418 158.07 104.494 158.668V158.621C105.534 156.541 108.285 153.712 108.888 150.67C109.58 147.249 110.448 142.454 110.646 141.966C110.843 141.477 111.925 140.988 113.095 141.576C113.095 141.576 113.781 135.518 113.584 132.387C113.386 129.257 114.759 125.346 115.055 119.184C115.352 113.022 116.127 113.324 117.203 109.117C118.279 104.91 120.037 103.642 122.58 104.032C125.492 104.479 126.142 106.632 126.303 109.57C125.976 109.259 125.628 108.971 125.263 108.706C124.342 107.991 123.185 107.65 122.023 107.75C120.677 107.937 119.496 109.31 118.747 110.724C117.671 112.804 117.494 115.035 119.007 114.27C120.723 113.412 124.265 113.698 126.423 113.984C126.511 118.472 126.599 120.765 126.407 123.688Z" fill="#5BAAFF"/>
<path opacity="0.4" d="M130.4 216.935C130.395 216.296 130.309 215.66 130.146 215.042C129.735 213.617 128.752 212.536 126.506 211.215C123.386 209.353 120.052 205.245 115.362 199.671C111.602 195.214 107.468 192.817 105.217 190.035C108.051 191.569 111.899 190.779 113.11 193.207C114.873 196.712 123.152 202.047 123.152 202.047C131.232 210.045 130.4 216.935 130.4 216.935Z" fill="#5BAAFF"/>
<path opacity="0.4" d="M136.053 140.771C135.101 140.579 132.522 146.939 132.278 149.195C131.628 155.045 134.628 173.079 130.77 172.673C129.173 172.507 127.301 164.083 127.192 160.157C126.844 148.233 127.322 143.278 127.322 143.278C127.322 143.278 126.469 136.674 127.041 132.176C127.104 132.852 127.156 133.538 127.192 134.256C127.39 138.364 127.78 141.39 127.78 141.39C127.78 141.39 132.179 141 134.54 140.61C135.05 140.549 135.567 140.604 136.053 140.771Z" fill="#5BAAFF"/>
<path opacity="0.4" d="M149.946 143.355C147.866 143.542 145.786 145.576 144.075 145.955C141.995 146.397 138.173 141.712 136.088 140.797C138.303 141.499 141.08 143.704 143.42 143.553C145.76 143.402 147.923 143.163 149.946 143.355Z" fill="#5BAAFF"/>
<path opacity="0.4" d="M163.336 147.031C162.306 148.322 161.476 149.761 160.877 151.3C159.202 156.713 160.783 177.196 158.084 173.842C154.569 169.484 158.24 154.368 155.677 148.596C154.865 146.75 151.969 143.796 151.34 143.547C153.784 144.03 157.497 147.057 159.259 147.057C160.518 147.057 161.781 146.807 163.336 147.031Z" fill="#5BAAFF"/>
<path opacity="0.4" d="M186.71 218.136C183.97 215.047 181.099 212.104 179.222 211.002C174.651 208.308 173.341 205.521 172.946 200.877C172.55 196.234 173.731 196.333 175.098 191.741C176.466 187.149 173.923 181.471 174.121 182.698C174.318 183.925 172.16 192.422 170.574 192.843C168.988 193.265 168.453 187.534 168.255 182.865C168.058 178.195 170.6 156.449 169.888 152.185C169.791 151.566 169.598 150.966 169.316 150.406C170.305 151.491 171.101 152.736 171.672 154.088C172.946 157.119 176.268 161.227 176.352 162.007C176.435 162.787 175.764 166.115 176.352 169.631C176.939 173.146 178.016 178.33 177.334 183.91C176.653 189.489 175.254 193.488 176.934 197.986C178.614 202.484 180.262 204.632 181.432 210.107C181.448 210.118 183.652 213.503 186.71 218.136Z" fill="#5BAAFF"/>
<path opacity="0.4" d="M145.438 154.924C146.478 156.016 147.134 170.326 147.721 173.846C148.309 177.367 146.484 185.806 145.438 183.238C144.393 180.669 141.206 150.472 145.438 154.924Z" fill="#5BAAFF"/>
<path d="M141.409 238.955C139.682 234.493 138.086 230.588 136.994 228.399C135.665 225.703 134.099 223.131 132.314 220.713C131.17 219.153 130.494 218.181 130.452 216.933C130.447 216.294 130.361 215.658 130.198 215.04V215.04C129.787 213.615 128.804 212.534 126.558 211.213C123.438 209.351 120.104 205.243 115.414 199.669C111.654 195.212 107.52 192.815 105.269 190.033C104.723 189.375 104.286 188.634 103.974 187.839C102.508 183.934 103.974 177.865 103.974 172.005C103.974 166.144 103.678 161.542 104.265 159.39C104.336 159.149 104.426 158.914 104.536 158.688V158.641C105.576 156.561 108.326 153.732 108.93 150.69C109.621 147.268 110.49 142.474 110.687 141.985C110.885 141.496 111.966 141.008 113.136 141.595C113.136 141.595 113.823 135.537 113.625 132.407C113.428 129.276 114.8 125.366 115.097 119.204C115.393 113.042 116.168 113.344 117.244 109.137C118.321 104.93 120.078 103.661 122.621 104.051C125.533 104.498 126.183 106.651 126.344 109.589C126.412 110.796 126.402 112.132 126.428 113.531C126.428 113.692 126.428 113.853 126.428 114.004C126.521 118.481 126.61 120.764 126.428 123.697C126.396 124.217 126.391 124.737 126.428 125.293C126.485 127.373 126.849 129.635 127.078 132.173C127.14 132.849 127.192 133.535 127.228 134.253C127.426 138.361 127.816 141.387 127.816 141.387C127.816 141.387 132.215 140.997 134.576 140.607C135.092 140.546 135.615 140.602 136.105 140.774H136.141C138.356 141.476 141.133 143.68 143.473 143.53C145.813 143.379 147.976 143.15 149.999 143.342C150.46 143.381 150.918 143.445 151.372 143.535C153.816 144.018 157.529 147.045 159.292 147.045C160.55 147.045 161.814 146.795 163.368 147.019C164.049 147.113 164.716 147.287 165.355 147.539C166.889 148.173 168.256 149.154 169.348 150.404C170.337 151.488 171.134 152.733 171.704 154.086C172.978 157.117 176.301 161.225 176.384 162.005C176.467 162.785 175.796 166.113 176.384 169.628C176.972 173.144 178.048 178.328 177.367 183.908C176.686 189.487 175.287 193.486 176.966 197.984C178.646 202.482 180.294 204.63 181.464 210.105C181.464 210.105 183.669 213.49 186.727 218.124C188.848 221.342 191.376 225.17 193.861 228.888" stroke="#263238" stroke-width="1.10721" stroke-linecap="round" stroke-linejoin="round"/>
<path d="M113.109 141.582C113.109 145.888 112.719 151.228 112.069 153.448C111.419 155.669 111.856 163.094 110.66 166.22" stroke="#263238" stroke-width="1.10721" stroke-linecap="round" stroke-linejoin="round"/>
<path d="M115.33 144.97C115.33 144.97 118.325 141.579 120.53 141.579C122.735 141.579 124.966 143.014 127.29 143.274C129.614 143.534 132.079 141.803 134.331 141.387" stroke="#263238" stroke-width="1.10721" stroke-linecap="round" stroke-linejoin="round"/>
<path d="M117.02 129.281C117.02 129.281 121.065 127.805 123.15 129.281" stroke="#263238" stroke-width="1.10721" stroke-linecap="round" stroke-linejoin="round"/>
<path d="M120.088 127.364C120.088 127.364 121.325 127.026 123.151 127.91" stroke="#263238" stroke-width="1.10721" stroke-linecap="round" stroke-linejoin="round"/>
<path d="M119.006 116.963C120.376 116.658 121.796 116.658 123.166 116.963" stroke="#263238" stroke-width="1.10721" stroke-linecap="round" stroke-linejoin="round"/>
<path d="M104.488 158.62C104.488 158.62 107.088 157.357 108.128 157.227" stroke="#263238" stroke-width="1.10721" stroke-linecap="round" stroke-linejoin="round"/>
<path d="M111.357 162.625C111.357 162.625 109.797 165.048 109.506 166.218" stroke="#263238" stroke-width="1.10721" stroke-linecap="round" stroke-linejoin="round"/>
<path d="M119.006 106.386C119.006 106.386 118.382 111.362 119.006 111.804C119.63 112.246 124.45 112.668 124.845 111.804C125.241 110.941 125.308 107.296 125.308 107.296C125.308 107.296 122.422 102.34 119.006 106.386Z" stroke="#263238" stroke-width="1.10721" stroke-linecap="round" stroke-linejoin="round"/>
<path d="M108.908 150.676C108.908 150.676 112.907 148.659 113.001 145.773C113.094 142.887 111.919 142.918 110.432 142.902" stroke="#263238" stroke-width="1.10721" stroke-linecap="round" stroke-linejoin="round"/>
<path d="M171.25 157.227C171.38 161.787 170.08 175.083 169.945 177.039C169.81 178.994 169.945 183.991 169.945 183.991" stroke="#263238" stroke-width="1.10721" stroke-linecap="round" stroke-linejoin="round"/>
<path d="M142.703 146.785C147.004 153.025 142.703 150.675 145.438 180.559" stroke="#263238" stroke-width="1.10721" stroke-linecap="round" stroke-linejoin="round"/>
<path d="M181.447 210.117C181.447 210.117 177.636 207.153 176.98 205.438" stroke="#263238" stroke-width="1.10721" stroke-linecap="round" stroke-linejoin="round"/>
<path d="M128.23 208.711C129.374 210.609 130.097 214.769 130.139 215.024" stroke="#263238" stroke-width="1.10721" stroke-linecap="round" stroke-linejoin="round"/>
</g>
</svg>
