<svg width="140" height="112" viewBox="0 0 140 112" fill="none" xmlns="http://www.w3.org/2000/svg">
<path d="M20.5028 101.214C47.8395 115.495 92.1612 115.496 119.497 101.215C146.834 86.9339 146.834 63.7797 119.497 49.499C92.1606 35.2178 47.8389 35.2178 20.5025 49.4986C-6.83421 63.7794 -6.83421 86.9339 20.5028 101.214Z" fill="#F5F5F5"/>
<path d="M12.8709 77.7972L3.98383 72.6661L3.98352 53.6079L12.8709 58.7394V77.7972Z" fill="#E0E0E0"/>
<path d="M12.871 58.7395L25.5668 51.4092L25.5671 70.4673L12.871 77.7973V58.7395Z" fill="#EBEBEB"/>
<path d="M25.5668 51.41L12.8709 58.7402L3.98352 53.6091L16.6794 46.2788L25.5668 51.41Z" fill="#F5F5F5"/>
<path d="M14.1409 59.4722L24.2979 53.6084L24.5314 53.7431L24.5311 60.8024L14.3741 66.6662L14.1406 66.5312L14.1409 59.4722Z" fill="#E0E0E0"/>
<path d="M14.3742 59.6077L24.5309 53.7437L24.5306 60.8029L14.3739 66.6667L14.3742 59.6077Z" fill="#F5F5F5"/>
<path d="M18.3553 58.5054L20.0825 57.508C20.3069 57.3786 20.4885 57.4377 20.4885 57.6399C20.4885 57.8428 20.3069 58.1116 20.0825 58.241L18.3553 59.2383C18.1309 59.3677 17.949 59.309 17.9493 59.1064C17.9497 58.9036 18.1316 58.6348 18.3553 58.5054Z" fill="#E0E0E0"/>
<path d="M13.9069 68.4048L24.0639 62.541L24.0633 69.6003L24.2971 69.735L14.1401 75.5991L13.9066 75.4638L13.9069 68.4048Z" fill="#E0E0E0"/>
<path d="M14.1404 68.5397L24.2974 62.6753L24.2971 69.7346L14.1401 75.5987L14.1404 68.5397Z" fill="#F5F5F5"/>
<path d="M18.1218 67.4375L19.849 66.4405C20.0734 66.3114 20.255 66.3702 20.255 66.5727C20.255 66.7752 20.0734 67.044 19.849 67.1738L18.1215 68.1708C17.8974 68.3002 17.7155 68.2411 17.7158 68.0386C17.7158 67.836 17.8977 67.5669 18.1218 67.4375Z" fill="#E0E0E0"/>
<path d="M12.8707 57.64L3.98328 52.5088V33.4507L12.8707 38.5818V57.64Z" fill="#E0E0E0"/>
<path d="M12.8705 38.5824L25.5666 31.2524V50.3106L12.8705 57.6405V38.5824Z" fill="#EBEBEB"/>
<path d="M25.5665 31.2518L12.8704 38.5817L3.98328 33.4509L16.6791 26.1206L25.5665 31.2518Z" fill="#F5F5F5"/>
<path d="M14.1402 39.3148L24.2972 33.4507L24.5307 33.5857L24.5304 40.645L14.3737 46.5088L14.1399 46.3738L14.1402 39.3148Z" fill="#E0E0E0"/>
<path d="M18.3551 38.3481L20.0823 37.351C20.3067 37.2213 20.4883 37.2804 20.4883 37.4829C20.4883 37.6855 20.3067 37.9546 20.0823 38.084L18.3551 39.081C18.1307 39.2104 17.9491 39.1513 17.9491 38.9491C17.9491 38.7466 18.131 38.4778 18.3551 38.3481Z" fill="#E0E0E0"/>
<path d="M13.9067 48.2474L24.0637 42.3833L24.0634 49.4429L24.2968 49.5776L14.1402 55.4414L13.9064 55.3064L13.9067 48.2474Z" fill="#E0E0E0"/>
<path d="M14.1402 48.3822L24.2969 42.5181L24.2966 49.5774L14.1399 55.4408L14.1402 48.3822Z" fill="#F5F5F5"/>
<path d="M18.1211 47.2802L19.8483 46.2832C20.0727 46.1534 20.2543 46.2125 20.2543 46.4151C20.2543 46.6176 20.0727 46.8867 19.8483 47.0161L18.1211 48.0131C17.8967 48.1425 17.7151 48.0835 17.7151 47.8812C17.7154 47.6784 17.8973 47.4096 18.1211 47.2802Z" fill="#E0E0E0"/>
<path d="M14.1402 39.3148L24.2972 33.4507L24.2969 40.51L14.1399 46.3738L14.1402 39.3148Z" fill="#E0E0E0"/>
<path d="M29.3755 36.938L23.8159 33.729L23.8156 39.9478L29.3752 43.1568L29.3755 36.938Z" fill="#E0E0E0"/>
<path d="M17.9491 47.3781V38.582L20.1285 37.3196L20.4883 37.8491L26.8362 34.1841L26.8365 42.247L17.9491 47.3781Z" fill="#EBEBEB"/>
<path d="M17.9491 47.3777L18.5836 39.6811L27.471 34.5503L26.8365 42.2466L17.9491 47.3777Z" fill="#F5F5F5"/>
<path d="M19.2186 42.802L14.3731 40.0044L14.3728 46.2235L19.2183 49.0209L19.2186 42.802Z" fill="#EBEBEB"/>
<path d="M19.2185 42.2464L29.3751 36.3823L29.3748 43.4416L19.2181 49.3054L19.2185 42.2464Z" fill="#F5F5F5"/>
<path d="M23.1996 41.145L24.9267 40.1477C25.1512 40.0183 25.3327 40.0773 25.3327 40.2799C25.3327 40.4821 25.1512 40.7512 24.9267 40.8806L23.1996 41.878C22.9752 42.0074 22.7936 41.9483 22.7936 41.7457C22.7939 41.5435 22.9758 41.2744 23.1996 41.145Z" fill="#E0E0E0"/>
<path d="M19.2185 42.2471L18.88 42.0518V49.1107L19.2185 49.3061V42.2471Z" fill="#E0E0E0"/>
<path d="M18.88 42.0519L29.037 36.1875L29.3752 36.3828L19.2185 42.2472L18.88 42.0519Z" fill="#EBEBEB"/>
<path d="M117.85 66.2503L108.962 61.1195V42.061L117.85 47.1922V66.2503Z" fill="#E0E0E0"/>
<path d="M117.85 47.1918L130.546 39.8618L130.546 58.92L117.85 66.2499V47.1918Z" fill="#EBEBEB"/>
<path d="M130.546 39.8621L117.85 47.1921L108.962 42.0609L121.658 34.731L130.546 39.8621Z" fill="#F5F5F5"/>
<path d="M119.12 47.9251L129.276 42.061L129.51 42.1961L129.51 49.2553L119.353 55.1191L119.119 54.9841L119.12 47.9251Z" fill="#E0E0E0"/>
<path d="M119.353 48.0599L129.51 42.1958L129.51 49.2551L119.353 55.1189L119.353 48.0599Z" fill="#F5F5F5"/>
<path d="M123.335 46.9574L125.061 45.9604C125.286 45.8307 125.467 45.8898 125.467 46.0923C125.467 46.2948 125.286 46.5636 125.061 46.6933L123.334 47.6904C123.11 47.8198 122.928 47.7607 122.928 47.5585C122.928 47.3559 123.11 47.0868 123.335 46.9574Z" fill="#E0E0E0"/>
<path d="M118.886 56.8576L129.043 50.9932L129.043 58.0528L129.276 58.1878L119.119 64.0516L118.886 63.9162L118.886 56.8576Z" fill="#E0E0E0"/>
<path d="M119.12 56.992L129.276 51.1279L129.276 58.1872L119.119 64.051L119.12 56.992Z" fill="#F5F5F5"/>
<path d="M123.101 55.8901L124.828 54.8928C125.052 54.7634 125.234 54.8225 125.234 55.025C125.234 55.2272 125.052 55.4963 124.828 55.626L123.1 56.6231C122.876 56.7525 122.694 56.6934 122.694 56.4912C122.695 56.2887 122.876 56.0195 123.101 55.8901Z" fill="#E0E0E0"/>
<path d="M33.2911 86.171C33.2911 86.171 33.3279 81.2139 30.2024 77.4973C27.4338 74.2055 25.9624 72.1174 26.8366 71.156C27.7105 70.1946 29.5811 69.9623 32.1109 72.6222C34.6403 75.282 34.836 82.6613 34.4869 84.331L33.2911 86.171Z" fill="#007BFF"/>
<g opacity="0.2">
<path d="M33.2911 86.171C33.2911 86.171 33.3279 81.2139 30.2024 77.4973C27.4338 74.2055 25.9624 72.1174 26.8366 71.156C27.7105 70.1946 29.5811 69.9623 32.1109 72.6222C34.6403 75.282 34.836 82.6613 34.4869 84.331L33.2911 86.171Z" fill="black"/>
</g>
<path d="M33.83 80.8414C33.7578 80.8414 33.6931 80.7911 33.6775 80.7177C32.5835 75.6012 29.775 72.7723 28.1981 71.5418C28.13 71.4887 28.1181 71.3905 28.1713 71.3224C28.2238 71.2546 28.3219 71.2421 28.3904 71.2952C30.0009 72.5523 32.8686 75.4393 33.9828 80.653C34.001 80.7371 33.9472 80.8202 33.8628 80.8383C33.8519 80.8402 33.8409 80.8414 33.83 80.8414Z" fill="white"/>
<path d="M33.1847 88.0154L31.9151 88.7487C31.9151 88.7487 31.5901 87.6085 30.2008 87.2828C28.8115 86.9568 27.366 87.0221 26.393 85.8166C25.4197 84.6111 26.6046 83.2993 26.393 82.4111C26.1814 81.5225 26.0401 81.2671 24.2973 80.3801C22.5548 79.4931 21.8657 78.0197 23.1771 77.0211C24.4889 76.0222 26.6208 76.7557 27.9039 77.6318C29.0494 78.4141 30.1367 78.6198 31.4129 78.777C32.6887 78.9336 34.7731 79.6478 34.4543 82.6161C34.1358 85.5838 33.1847 88.0154 33.1847 88.0154Z" fill="#007BFF"/>
<path d="M28.2944 84.1098C28.2285 84.1098 28.1669 84.0676 28.1457 84.0013C28.1191 83.9188 28.1644 83.831 28.2466 83.8048C28.3613 83.7682 31.0668 82.914 32.2088 83.8316C32.276 83.8857 32.287 83.9838 32.2329 84.051C32.1791 84.1189 32.0807 84.1292 32.0132 84.0751C31.0002 83.2615 28.3685 84.0939 28.3423 84.102C28.3263 84.1073 28.3101 84.1098 28.2944 84.1098Z" fill="white"/>
<path d="M33.3281 87.7739C33.2494 87.7739 33.1812 87.7145 33.1728 87.6342C32.4767 81.0522 24.5479 77.9295 24.4679 77.8988C24.3876 77.8676 24.3473 77.7773 24.3782 77.6969C24.4092 77.6166 24.4989 77.576 24.5801 77.6072C24.6617 77.6388 32.7674 80.8284 33.4838 87.6017C33.4928 87.6873 33.4306 87.7645 33.3447 87.7736C33.3391 87.7736 33.3338 87.7739 33.3281 87.7739Z" fill="white"/>
<path d="M111.067 83.6862C111.103 83.579 112.443 76.6756 111.067 71.7811C109.805 67.2935 108.185 65.6373 105.861 65.2722C103.536 64.9075 102.527 66.5812 103.762 68.849C104.997 71.1169 107.967 74.1302 108.697 79.1992C108.998 81.2858 109.247 83.0992 109.247 83.0992L111.067 83.6862Z" fill="#007BFF"/>
<g opacity="0.2">
<path d="M111.067 83.6862C111.103 83.579 112.443 76.6756 111.067 71.7811C109.805 67.2935 108.185 65.6373 105.861 65.2722C103.536 64.9075 102.527 66.5812 103.762 68.849C104.997 71.1169 107.967 74.1302 108.697 79.1992C108.998 81.2858 109.247 83.0992 109.247 83.0992L111.067 83.6862Z" fill="black"/>
</g>
<path d="M110.285 79.7232C110.282 79.7232 110.279 79.7232 110.276 79.7229C110.19 79.7179 110.124 79.6441 110.129 79.5582C110.449 73.9707 108.616 68.9808 105.344 66.5357C105.275 66.4842 105.261 66.386 105.313 66.3169C105.364 66.2482 105.463 66.2338 105.532 66.2854C108.886 68.7923 110.767 73.8848 110.441 79.5757C110.436 79.6591 110.367 79.7232 110.285 79.7232Z" fill="white"/>
<path d="M114.666 87.282C114.487 85.999 115.225 84.0715 116.978 83.6167C118.729 83.1626 119.513 82.1531 118.88 81.0526C118.247 79.9521 118.397 78.9435 119.988 78.4856C121.58 78.028 122.973 77.2288 122.056 75.5539C121.391 74.339 121.243 73.5523 122.875 71.1559C124.228 69.1691 123.122 68.0032 121.427 68.2239C119.732 68.4446 118.687 70.459 117.629 70.799C116.572 71.1391 116.324 69.3341 114.927 70.1408C113.53 70.9475 113.616 73.0137 113.572 74.4543C113.528 75.8948 113.434 76.2215 112.17 76.0446C110.907 75.8673 109.675 76.0771 109.699 79.1304C109.719 81.7511 111.118 84.9948 111.118 84.9948L114.666 87.282Z" fill="#007BFF"/>
<path d="M112.45 85.3285C112.444 85.3285 112.438 85.3282 112.432 85.3276C112.347 85.3179 112.285 85.2407 112.294 85.1547C113.175 77.28 119.933 70.6398 121.694 69.2924C121.763 69.2399 121.861 69.253 121.914 69.3218C121.966 69.3906 121.953 69.4884 121.884 69.5409C120.145 70.8708 113.473 77.4247 112.605 85.1894C112.596 85.2698 112.529 85.3285 112.45 85.3285Z" fill="white"/>
<path d="M115.531 76.9116C115.468 76.9116 115.408 76.8729 115.385 76.8101C115.355 76.7291 115.396 76.6391 115.477 76.6088C117.998 75.6705 120.854 76.1128 120.975 76.1321C121.059 76.1459 121.118 76.2262 121.104 76.3112C121.09 76.3963 121.008 76.4528 120.925 76.4409C120.897 76.4356 118.028 75.9924 115.586 76.902C115.568 76.9085 115.55 76.9116 115.531 76.9116Z" fill="white"/>
<path d="M113.287 81.6421C113.244 81.6421 113.201 81.6243 113.17 81.5893C111.489 79.6852 111.126 77.413 111.111 77.317C111.098 77.232 111.157 77.1523 111.242 77.1392C111.329 77.1276 111.407 77.1848 111.42 77.2698C111.423 77.2923 111.786 79.5496 113.404 81.3824C113.462 81.4471 113.455 81.5458 113.391 81.603C113.361 81.6293 113.324 81.6421 113.287 81.6421Z" fill="white"/>
<path d="M33.1846 39.6372V88.0155L82.699 59.4286L82.6987 15.4482L45.8807 36.7055L44.6111 33.0405L33.1846 39.6372Z" fill="#007BFF"/>
<g opacity="0.7">
<path d="M33.1846 39.6372V88.0155L82.699 59.4286L82.6987 15.4482L45.8807 36.7055L44.6111 33.0405L33.1846 39.6372Z" fill="black"/>
</g>
<path d="M33.1846 88.0153L35.7234 44.0353L85.2375 15.4478L82.699 59.4284L33.1846 88.0153Z" fill="#E0E0E0"/>
<path d="M33.1846 88.0155L36.993 44.7681L86.5071 16.1812L82.699 59.4286L33.1846 88.0155Z" fill="#007BFF"/>
<g opacity="0.7">
<path d="M33.1846 88.0155L36.993 44.7681L86.5071 16.1812L82.699 59.4286L33.1846 88.0155Z" fill="black"/>
</g>
<path d="M40.8024 44.0347V92.413L90.3168 63.8261L90.3165 19.8457L53.4985 41.103L52.2289 37.4377L40.8024 44.0347Z" fill="#007BFF"/>
<g opacity="0.5">
<path d="M40.8024 44.0347V92.413L90.3168 63.8261L90.3165 19.8457L53.4985 41.103L52.2289 37.4377L40.8024 44.0347Z" fill="black"/>
</g>
<path d="M40.8024 92.413L43.3412 48.4329L92.8553 19.8457L90.3168 63.8261L40.8024 92.413Z" fill="#E0E0E0"/>
<path d="M40.8024 92.413L44.6108 49.1658L94.1249 20.5786L90.3168 63.8261L40.8024 92.413Z" fill="#007BFF"/>
<g opacity="0.5">
<path d="M40.8024 92.413L44.6108 49.1658L94.1249 20.5786L90.3168 63.8261L40.8024 92.413Z" fill="black"/>
</g>
<path d="M82.6989 107.806C73.8115 102.675 65.5664 97.0962 61.8024 90.5502L73.2286 83.9531L82.6989 107.806Z" fill="#E0E0E0"/>
<path d="M49.6891 49.166V97.5443L99.2035 68.9571L99.2032 24.9771L62.3852 46.234L61.1153 42.569L49.6891 49.166Z" fill="#007BFF"/>
<g opacity="0.2">
<path d="M49.6891 49.166V97.5443L99.2035 68.9571L99.2032 24.9771L62.3852 46.234L61.1153 42.569L49.6891 49.166Z" fill="black"/>
</g>
<path d="M63.9539 63.4693C63.8292 63.4693 63.8108 63.3252 63.8108 63.2393V21.9753C63.8108 21.6855 64.0227 21.318 64.2737 21.1729L100.01 0.541102C100.07 0.506409 100.126 0.488281 100.173 0.488281C100.298 0.488281 100.317 0.632368 100.317 0.718319V41.9823C100.317 42.2724 100.104 42.6399 99.8533 42.7846L64.1174 63.4168C64.0574 63.4512 64.0008 63.4693 63.9539 63.4693Z" fill="white"/>
<path d="M100.152 0.648021C100.156 0.663024 100.16 0.686152 100.16 0.718345V41.9827C100.16 42.2152 99.9764 42.5331 99.7751 42.6496L64.0392 63.2815C64.0104 63.298 63.9885 63.3062 63.9745 63.3102C63.9704 63.2952 63.9667 63.2721 63.9667 63.2396V21.9756C63.9667 21.7428 64.1501 21.4249 64.3517 21.3086L100.088 0.676777C100.117 0.659899 100.138 0.651772 100.152 0.648021ZM100.173 0.332031C100.1 0.332031 100.018 0.355785 99.9313 0.405793L64.1958 21.038C63.897 21.2105 63.6544 21.6302 63.6544 21.9756V63.2396C63.6544 63.4843 63.7763 63.6259 63.9542 63.6259C64.027 63.6259 64.1089 63.6022 64.1958 63.5521L99.9313 42.9203C100.23 42.7478 100.473 42.3277 100.473 41.9827V0.718345C100.473 0.473617 100.351 0.332031 100.173 0.332031Z" fill="#007BFF"/>
<g opacity="0.7">
<path d="M100.152 0.648021C100.156 0.663024 100.16 0.686152 100.16 0.718345V41.9827C100.16 42.2152 99.9764 42.5331 99.7751 42.6496L64.0392 63.2815C64.0104 63.298 63.9885 63.3062 63.9745 63.3102C63.9704 63.2952 63.9667 63.2721 63.9667 63.2396V21.9756C63.9667 21.7428 64.1501 21.4249 64.3517 21.3086L100.088 0.676777C100.117 0.659899 100.138 0.651772 100.152 0.648021ZM100.173 0.332031C100.1 0.332031 100.018 0.355785 99.9313 0.405793L64.1958 21.038C63.897 21.2105 63.6544 21.6302 63.6544 21.9756V63.2396C63.6544 63.4843 63.7763 63.6259 63.9542 63.6259C64.027 63.6259 64.1089 63.6022 64.1958 63.5521L99.9313 42.9203C100.23 42.7478 100.473 42.3277 100.473 41.9827V0.718345C100.473 0.473617 100.351 0.332031 100.173 0.332031Z" fill="white"/>
</g>
<path d="M67.4631 23.5492L80.159 16.2192V30.8792L67.4631 38.2091V23.5492Z" fill="#007BFF"/>
<g opacity="0.8">
<path d="M67.4631 23.5492L80.159 16.2192V30.8792L67.4631 38.2091V23.5492Z" fill="white"/>
</g>
<path d="M78.2548 19.8848V24.2827L77.8572 24.5049V23.1575C77.8572 22.4133 77.2515 22.1601 76.5035 22.5915L71.1186 25.7004C70.371 26.132 69.7652 27.085 69.7652 27.8292V29.1766L69.3677 29.4138V25.0159L78.2548 19.8848Z" fill="white"/>
<path d="M75.8059 31.0935C75.1546 31.4695 74.6267 31.0748 74.6267 30.2115V23.1572L72.9958 24.0449V31.1529C72.9958 32.0162 72.4682 33.0207 71.8168 33.3967L70.6376 34.0775V34.5444L76.9855 30.8794V30.4125C76.9852 30.4122 76.4573 30.7172 75.8059 31.0935Z" fill="white"/>
<path d="M82.6985 15.4859C82.6988 15.8906 83.0623 16.0091 83.5108 15.7503L95.8522 8.62473C96.3007 8.36594 96.6642 7.82772 96.6642 7.42297C96.6642 7.01822 96.3007 6.89976 95.8522 7.15855L83.5108 14.2841C83.062 14.5429 82.6985 15.0811 82.6985 15.4859Z" fill="#455A64"/>
<path d="M82.6985 19.8843C82.6988 20.2891 83.0623 20.4075 83.5108 20.1487L95.8522 13.0232C96.3007 12.7644 96.6642 12.2262 96.6642 11.8214C96.6642 11.4167 96.3007 11.2982 95.8522 11.557L83.5108 18.6825C83.062 18.9413 82.6985 19.4795 82.6985 19.8843Z" fill="#455A64"/>
<path d="M82.6985 24.2827C82.6988 24.6875 83.0623 24.8059 83.5108 24.5472L95.8522 17.4216C96.3007 17.1628 96.6642 16.6246 96.6642 16.2198C96.6642 15.8151 96.3007 15.6966 95.8522 15.9554L83.5108 23.081C83.062 23.3395 82.6985 23.878 82.6985 24.2827Z" fill="#455A64"/>
<path d="M82.6985 28.6802C82.6988 29.085 83.0623 29.2034 83.5108 28.9446L95.8522 21.8191C96.3007 21.5603 96.6642 21.0221 96.6642 20.6173C96.6642 20.2126 96.3007 20.0941 95.8522 20.3529L83.5108 27.4784C83.062 27.7372 82.6985 28.2754 82.6985 28.6802Z" fill="#455A64"/>
<path d="M67.4631 41.876C67.4631 42.2808 67.8269 42.3992 68.2751 42.1401L95.8519 26.2175C96.3004 25.9587 96.6639 25.4205 96.6639 25.0157C96.6639 24.611 96.3004 24.4925 95.8519 24.7513L68.2751 40.674C67.8266 40.9327 67.4631 41.4713 67.4631 41.876Z" fill="#455A64"/>
<path d="M67.4631 46.2741C67.4631 46.6788 67.8269 46.7973 68.2751 46.5382L95.8519 30.6155C96.3004 30.3567 96.6639 29.8185 96.6639 29.4138C96.6639 29.0087 96.3004 28.8906 95.8519 29.1494L68.2751 45.072C67.8266 45.3311 67.4631 45.8693 67.4631 46.2741Z" fill="#455A64"/>
<path d="M67.4631 50.6715C67.4631 51.0763 67.8269 51.1947 68.2751 50.9356L95.8519 35.013C96.3004 34.7542 96.6639 34.216 96.6639 33.8112C96.6639 33.4062 96.3004 33.288 95.8519 33.5468L68.2751 49.4698C67.8266 49.7285 67.4631 50.2668 67.4631 50.6715Z" fill="#455A64"/>
<path d="M49.6893 97.544L58.5764 58.6948L108.091 30.1079L99.2034 68.9568L49.6893 97.544Z" fill="#007BFF"/>
<path d="M61.8024 61.7373V90.5502L73.2286 83.9532L73.2289 55.1406L61.8024 61.7373Z" fill="#007BFF"/>
<g opacity="0.2">
<path d="M61.8024 61.7373V90.5502L73.2286 83.9532L73.2289 55.1406L61.8024 61.7373Z" fill="black"/>
</g>
<path d="M82.7092 107.619C81.7384 106.897 72.3684 99.7338 67.6052 89.5037C62.5349 78.6144 62.5396 65.9135 62.5412 61.1327V60.984L96.5077 41.3735C96.5059 46.1978 96.5127 58.9167 101.601 69.8445C106.254 79.8368 115.265 86.9173 116.694 87.9984L82.7092 107.619Z" fill="white"/>
<path d="M96.3519 41.6449C96.3522 46.6701 96.4497 59.1512 101.46 69.9114C105.956 79.5677 114.508 86.5129 116.414 87.9809L82.7209 107.433C81.4038 106.441 72.3858 99.3997 67.7472 89.4381C62.6917 78.5806 62.696 65.9051 62.6979 61.1331V61.0746L96.3519 41.6449ZM96.6645 41.1035L62.3854 60.8943C62.3854 65.3906 62.2904 78.4591 67.464 89.5703C72.542 100.477 82.699 107.807 82.699 107.807L116.978 88.0159C116.978 88.0159 106.821 80.6857 101.743 69.7792C96.5694 58.6683 96.6645 45.5999 96.6645 41.1035Z" fill="#007BFF"/>
<g opacity="0.7">
<path d="M96.3519 41.6449C96.3522 46.6701 96.4497 59.1512 101.46 69.9114C105.956 79.5677 114.508 86.5129 116.414 87.9809L82.7209 107.433C81.4038 106.441 72.3858 99.3997 67.7472 89.4381C62.6917 78.5806 62.696 65.9051 62.6979 61.1331V61.0746L96.3519 41.6449ZM96.6645 41.1035L62.3854 60.8943C62.3854 65.3906 62.2904 78.4591 67.464 89.5703C72.542 100.477 82.699 107.807 82.699 107.807L116.978 88.0159C116.978 88.0159 106.821 80.6857 101.743 69.7792C96.5694 58.6683 96.6645 45.5999 96.6645 41.1035Z" fill="white"/>
</g>
<path d="M92.7878 47.7388L81.9466 53.998C81.4978 54.2568 81.1443 54.7878 81.159 55.1838C81.1743 55.5801 81.5528 55.6911 82.0013 55.4323L92.8425 49.1731C93.291 48.9143 93.6395 48.3833 93.6245 47.987C93.6095 47.591 93.2366 47.48 92.7878 47.7388Z" fill="#455A64"/>
<path d="M93.0187 52.0037L82.1776 58.2629C81.7288 58.5217 81.3896 59.0446 81.4228 59.4303C81.4559 59.8156 81.8497 59.9181 82.2982 59.659L93.1397 53.3999C93.5882 53.1411 93.9214 52.6191 93.8883 52.2334C93.8551 51.8478 93.4669 51.7446 93.0187 52.0037Z" fill="#455A64"/>
<path d="M93.4517 56.1524L82.6106 62.4115C82.1618 62.6703 81.8379 63.1841 81.8914 63.558C81.9448 63.9321 82.3546 64.0252 82.8031 63.7661L93.6446 57.507C94.0931 57.2479 94.4103 56.7353 94.3569 56.3611C94.3034 55.987 93.9002 55.8933 93.4517 56.1524Z" fill="#455A64"/>
<path d="M94.1017 60.1744L83.2605 66.4332C82.8117 66.6923 82.5048 67.1965 82.5782 67.559C82.6517 67.9216 83.0786 68.0044 83.5272 67.7456L94.3683 61.4865C94.8168 61.2277 95.1172 60.7248 95.0434 60.3625C94.9697 60.0003 94.5499 59.9156 94.1017 60.1744Z" fill="#455A64"/>
<path d="M94.9831 64.0637L84.1419 70.3228C83.6934 70.5813 83.404 71.0758 83.4999 71.4249C83.5959 71.7743 84.041 71.8471 84.4895 71.5877L95.3307 65.3286C95.7795 65.0698 96.0611 64.5778 95.9651 64.2281C95.8692 63.8789 95.4316 63.8049 94.9831 64.0637Z" fill="#455A64"/>
<path d="M96.1114 67.8101L69.6889 83.0651C69.2404 83.3242 68.9703 83.8071 69.0919 84.1419C69.2129 84.4766 69.6789 84.5369 70.1274 84.2781L96.5499 69.0231C96.9984 68.764 97.2597 68.2839 97.1387 67.9489C97.0168 67.6141 96.5599 67.551 96.1114 67.8101Z" fill="#455A64"/>
<path d="M97.5195 71.3893L71.097 86.6446C70.6485 86.9034 70.4025 87.3732 70.551 87.6926C70.6988 88.0117 71.1851 88.0599 71.6337 87.8011L98.0561 72.5458C98.505 72.287 98.7456 71.8194 98.5975 71.5C98.4493 71.1805 97.968 71.1305 97.5195 71.3893Z" fill="#455A64"/>
<path d="M99.2428 74.8001L72.8203 90.0551C72.3718 90.3139 72.1484 90.7712 72.3262 91.0734C72.5037 91.3756 73.016 91.4081 73.4648 91.1493L99.887 75.894C100.336 75.6352 100.551 75.183 100.373 74.8804C100.195 74.5782 99.691 74.541 99.2428 74.8001Z" fill="#455A64"/>
<path d="M101.277 78.023L74.8546 93.2781C74.4061 93.5368 74.2051 93.9819 74.4095 94.2688C74.6142 94.5554 75.1468 94.5751 75.5953 94.3163L102.018 79.061C102.466 78.8022 102.661 78.3625 102.456 78.0759C102.251 77.7892 101.725 77.7639 101.277 78.023Z" fill="#455A64"/>
<path d="M103.583 81.0894L77.1602 96.3447C76.7117 96.6035 76.5301 97.0376 76.7586 97.3105C76.9871 97.5834 77.5381 97.5924 77.9869 97.3333L104.409 82.0783C104.858 81.8195 105.034 81.3907 104.805 81.1178C104.577 80.8447 104.031 80.8306 103.583 81.0894Z" fill="#455A64"/>
<path d="M106.136 84.0107L79.7142 99.2661C79.2654 99.5248 79.1019 99.9487 79.3523 100.209C79.602 100.469 80.1709 100.468 80.6197 100.209L107.042 84.9543C107.491 84.6952 107.649 84.2767 107.399 84.0164C107.149 83.756 106.585 83.7519 106.136 84.0107Z" fill="#455A64"/>
<path d="M108.93 86.8L82.5077 102.055C82.0592 102.314 81.9132 102.728 82.1848 102.976C82.4561 103.224 83.0425 103.212 83.491 102.953L109.913 87.6983C110.362 87.4395 110.503 87.031 110.231 86.7828C109.96 86.5346 109.379 86.5409 108.93 86.8Z" fill="#455A64"/>
<path d="M78.0189 56.2666L65.5537 63.4634C65.6925 67.9779 66.2073 74.4943 68.0966 81.0532L80.5618 73.8564C78.6721 67.2975 78.1574 60.7814 78.0189 56.2666Z" fill="#007BFF"/>
<g opacity="0.8">
<path d="M78.0189 56.2666L65.5537 63.4634C65.6925 67.9779 66.2073 74.4943 68.0966 81.0532L80.5618 73.8564C78.6721 67.2975 78.1574 60.7814 78.0189 56.2666Z" fill="white"/>
</g>
<path d="M70.6374 62.4634C70.6374 61.7649 70.4096 61.227 70.0283 60.8804L65.5535 63.4639C65.59 64.6566 65.6544 65.9925 65.7619 67.4286C66.2526 67.5093 66.8321 67.4208 67.455 67.1305C69.2128 66.31 70.6374 64.2209 70.6374 62.4634Z" fill="#007BFF"/>
<g opacity="0.6">
<path d="M70.6374 62.4634C70.6374 61.7649 70.4096 61.227 70.0283 60.8804L65.5535 63.4639C65.59 64.6566 65.6544 65.9925 65.7619 67.4286C66.2526 67.5093 66.8321 67.4208 67.455 67.1305C69.2128 66.31 70.6374 64.2209 70.6374 62.4634Z" fill="white"/>
</g>
<path d="M79.5043 69.5437C79.5043 69.5437 79.504 69.5437 79.5043 69.5437C78.6726 68.4948 76.9817 65.2608 76.2591 63.8516C76.1309 63.6012 75.765 63.6362 75.6818 63.9044C74.4332 67.911 74.3291 72.1095 74.3291 72.1095C73.3271 71.3165 72.6063 70.5277 71.683 69.1643C71.5489 68.9665 71.2467 69.0193 71.1867 69.2503C69.8237 74.4986 70.5072 79.661 70.5072 79.661L80.5611 73.8563C80.1447 72.4092 79.7981 70.9659 79.5043 69.5437Z" fill="#007BFF"/>
<g opacity="0.6">
<path d="M79.5043 69.5437C79.5043 69.5437 79.504 69.5437 79.5043 69.5437C78.6726 68.4948 76.9817 65.2608 76.2591 63.8516C76.1309 63.6012 75.765 63.6362 75.6818 63.9044C74.4332 67.911 74.3291 72.1095 74.3291 72.1095C73.3271 71.3165 72.6063 70.5277 71.683 69.1643C71.5489 68.9665 71.2467 69.0193 71.1867 69.2503C69.8237 74.4986 70.5072 79.661 70.5072 79.661L80.5611 73.8563C80.1447 72.4092 79.7981 70.9659 79.5043 69.5437Z" fill="white"/>
</g>
</svg>
