<svg width="401" height="447" viewBox="0 0 401 447" fill="none" xmlns="http://www.w3.org/2000/svg">
<path d="M340.953 242.006L268.955 214.777C263.981 212.896 261.472 207.337 263.353 202.362L301.042 102.71C302.923 97.735 308.481 95.2264 313.457 97.1083L359.118 114.377L380.685 164.172L353.367 236.404C351.487 241.38 345.927 243.888 340.953 242.006Z" fill="#F5F5F5"/>
<path d="M359.119 114.377L348.511 142.423C346.761 147.05 349.093 152.22 353.72 153.971L380.685 164.174L359.119 114.377Z" fill="#EBEBEB"/>
<path d="M347.948 145.024C347.948 145.024 345.021 151.692 351.919 156.857C352.178 157.05 352.452 157.227 352.73 157.392C356.011 159.353 377.633 172.243 377.834 171.71C378.051 171.134 380.684 164.173 380.684 164.173L353.716 153.975C353.717 153.975 347.071 151.199 347.948 145.024Z" fill="#E0E0E0"/>
<path d="M342.907 138.996C342.77 139.356 335.203 136.829 326.007 133.35C316.807 129.871 309.462 126.76 309.598 126.399C309.735 126.039 317.301 128.566 326.5 132.045C335.696 135.522 343.043 138.635 342.907 138.996Z" fill="#E0E0E0"/>
<path d="M358.422 162.988C358.284 163.349 345.902 159 330.765 153.275C315.624 147.548 303.464 142.616 303.602 142.256C303.738 141.896 316.119 146.244 331.259 151.971C346.395 157.694 358.557 162.628 358.422 162.988Z" fill="#E0E0E0"/>
<path d="M358.35 178.097C358.213 178.457 344.724 173.689 328.225 167.45C311.721 161.208 298.457 155.857 298.592 155.497C298.728 155.137 312.214 159.903 328.719 166.145C345.219 172.384 358.487 177.736 358.35 178.097Z" fill="#E0E0E0"/>
<path d="M353.626 190.59C353.489 190.95 340 186.183 323.501 179.943C306.997 173.701 293.733 168.35 293.868 167.99C294.004 167.63 307.49 172.397 323.995 178.638C340.494 184.877 353.763 190.229 353.626 190.59Z" fill="#E0E0E0"/>
<path d="M348.901 203.082C348.764 203.442 335.275 198.676 318.776 192.436C302.27 186.194 289.007 180.843 289.143 180.483C289.279 180.122 302.764 184.889 319.27 191.131C335.769 197.37 349.038 202.722 348.901 203.082Z" fill="#E0E0E0"/>
<path d="M344.176 215.576C344.038 215.936 330.55 211.169 314.051 204.93C297.545 198.687 284.282 193.337 284.418 192.976C284.554 192.616 298.039 197.382 314.545 203.624C331.043 209.864 344.313 215.216 344.176 215.576Z" fill="#E0E0E0"/>
<path d="M152.667 286.431L57.7545 319.667C54.4707 320.816 50.877 319.087 49.7277 315.804L2.10599 179.813C0.956606 176.531 2.68612 172.936 5.96993 171.787L100.883 138.55C104.166 137.4 107.76 139.131 108.91 142.413L156.53 278.405C157.681 281.688 155.95 285.281 152.667 286.431Z" fill="#EBEBEB"/>
<path d="M102.102 147.003L10.2861 179.155L57.4876 313.947L149.303 281.795L102.102 147.003Z" fill="#E0E0E0"/>
<path d="M100.458 146.366L8.64307 178.518L54.9435 310.737L146.758 278.585L100.458 146.366Z" fill="#FAFAFA"/>
<path d="M146.761 278.585C146.373 277.482 127.729 224.4 100.337 146.41L100.505 146.49C72.6581 156.246 41.5039 167.159 8.70446 178.65L8.69357 178.654L8.78168 178.47C26.0878 228.135 42.1959 273.999 55.056 310.699L54.9075 310.627C110.754 291.146 145.861 278.899 146.761 278.585C145.862 278.901 110.784 291.231 54.9837 310.847L54.8748 310.886L54.8362 310.777C41.9772 274.079 25.9066 228.211 8.50943 178.566L8.46191 178.429L8.59853 178.382L8.60942 178.378C41.4119 166.896 72.569 155.99 100.417 146.242L100.542 146.198L100.586 146.323C127.831 224.364 146.376 277.481 146.761 278.585Z" fill="#E0E0E0"/>
<path d="M114.192 289.99C114.192 289.99 134.64 272.746 138.183 254.785C138.183 254.785 132.507 263.685 120.704 265.309C120.704 265.309 120.294 284.166 114.192 289.99Z" fill="#E0E0E0"/>
<path d="M43.9608 219.203L39.1257 220.896C37.3615 221.514 35.431 220.585 34.8133 218.82L33.1204 213.985C32.5026 212.222 33.4312 210.29 35.1954 209.673L40.0305 207.98C41.7947 207.362 43.7262 208.291 44.3439 210.056L46.0368 214.891C46.6546 216.653 45.725 218.585 43.9608 219.203Z" fill="#EBEBEB"/>
<path d="M39.4409 216.303C39.4389 216.304 39.4359 216.305 39.4319 216.306C39.3587 216.328 39.2775 216.321 39.2102 216.281L36.9966 214.997C36.8639 214.921 36.8194 214.751 36.8956 214.619C36.9728 214.487 37.1421 214.442 37.2748 214.518L39.227 215.649L41.5654 210.648C41.6297 210.509 41.7951 210.45 41.9337 210.514C42.0723 210.58 42.1317 210.744 42.0673 210.883L39.6002 216.158C39.5686 216.226 39.5121 216.278 39.4409 216.303Z" fill="white"/>
<path d="M102.845 187.516C102.871 187.591 90.9468 191.835 76.2157 196.994C61.4777 202.155 49.5136 206.275 49.4878 206.2C49.4611 206.125 61.3826 201.881 76.1197 196.722C90.8527 191.564 102.82 187.441 102.845 187.516Z" fill="#E0E0E0"/>
<path d="M74.8437 206.537C74.8506 206.556 74.5417 206.684 73.9784 206.9C73.3676 207.125 72.5607 207.424 71.5846 207.787C69.5601 208.523 66.7554 209.522 63.6518 210.609C60.5472 211.696 57.7316 212.665 55.6883 213.352C54.7003 213.679 53.8835 213.948 53.2648 214.153C52.6906 214.336 52.3698 214.429 52.3629 214.41C52.3569 214.391 52.6648 214.262 53.2281 214.046C53.839 213.821 54.6458 213.522 55.6209 213.16C57.6465 212.423 60.4511 211.424 63.5567 210.337C66.6594 209.25 69.4749 208.282 71.5183 207.594C72.5063 207.268 73.323 206.998 73.9418 206.794C74.516 206.611 74.8377 206.519 74.8437 206.537Z" fill="#E0E0E0"/>
<path d="M104.119 191.155C104.146 191.23 92.2212 195.474 77.4901 200.633C62.7531 205.794 50.789 209.914 50.7622 209.839C50.7365 209.764 62.657 205.521 77.3941 200.361C92.1262 195.202 104.093 191.079 104.119 191.155Z" fill="#E0E0E0"/>
<path d="M50.8593 238.903L46.0241 240.596C44.2599 241.214 42.3295 240.286 41.7117 238.52L40.0188 233.685C39.4011 231.921 40.3297 229.99 42.0938 229.373L46.929 227.68C48.6931 227.062 50.6246 227.992 51.2424 229.757L52.9353 234.592C53.553 236.355 52.6234 238.286 50.8593 238.903Z" fill="#EBEBEB"/>
<path d="M46.3403 236.003C46.3383 236.004 46.3353 236.005 46.3314 236.006C46.2581 236.028 46.1769 236.021 46.1096 235.982L43.896 234.699C43.7633 234.622 43.7188 234.452 43.795 234.319C43.8722 234.186 44.0415 234.14 44.1742 234.218L46.1264 235.349L48.4648 230.348C48.5291 230.209 48.6945 230.15 48.8331 230.214C48.9717 230.28 49.0311 230.445 48.9667 230.582L46.4997 235.858C46.468 235.926 46.4106 235.978 46.3403 236.003Z" fill="white"/>
<path d="M109.744 207.217C109.77 207.292 97.8462 211.536 83.1151 216.695C68.3771 221.856 56.413 225.976 56.3872 225.901C56.3615 225.826 68.282 221.582 83.0191 216.422C97.7512 211.264 109.718 207.141 109.744 207.217Z" fill="#E0E0E0"/>
<path d="M81.7421 226.237C81.749 226.258 81.4401 226.384 80.8768 226.6C80.266 226.826 79.4592 227.124 78.483 227.487C76.4585 228.223 73.6538 229.223 70.5502 230.309C67.4456 231.397 64.6301 232.365 62.5867 233.053C61.5997 233.378 60.7819 233.648 60.1632 233.853C59.589 234.036 59.2682 234.129 59.2613 234.11C59.2554 234.091 59.5633 233.964 60.1266 233.747C60.7374 233.521 61.5442 233.224 62.5194 232.86C64.5449 232.124 67.3496 231.125 70.4552 230.036C73.5578 228.949 76.3734 227.982 78.4167 227.293C79.4047 226.967 80.2215 226.698 80.8402 226.493C81.4144 226.311 81.7362 226.218 81.7421 226.237Z" fill="#E0E0E0"/>
<path d="M111.017 210.855C111.044 210.93 99.1196 215.174 84.3885 220.333C69.6515 225.493 57.6874 229.614 57.6607 229.539C57.6349 229.464 69.5555 225.222 84.2925 220.06C99.0256 214.902 110.992 210.78 111.017 210.855Z" fill="#E0E0E0"/>
<path d="M57.7577 258.603L52.9226 260.296C51.1584 260.914 49.2279 259.986 48.6101 258.22L46.9173 253.385C46.2995 251.621 47.2281 249.69 48.9923 249.072L53.8274 247.38C55.5916 246.762 57.5231 247.691 58.1408 249.457L59.8337 254.292C60.4525 256.054 59.5229 257.985 57.7577 258.603Z" fill="#EBEBEB"/>
<path d="M53.2384 255.702C53.2355 255.703 53.2325 255.704 53.2295 255.705C53.1553 255.728 53.0741 255.721 53.0078 255.682L50.7931 254.399C50.6605 254.321 50.6159 254.152 50.6932 254.018C50.7694 253.886 50.9387 253.84 51.0713 253.917L53.0236 255.049L55.363 250.048C55.4273 249.909 55.5916 249.85 55.7302 249.914C55.8688 249.979 55.9292 250.145 55.8639 250.282L53.3978 255.558C53.3661 255.626 53.3097 255.68 53.2384 255.702Z" fill="white"/>
<path d="M116.642 226.916C116.669 226.992 104.745 231.236 90.0135 236.393C75.2755 241.554 63.3114 245.676 63.2857 245.6C63.259 245.525 75.1805 241.283 89.9175 236.123C104.65 230.963 116.617 226.842 116.642 226.916Z" fill="#E0E0E0"/>
<path d="M88.6405 245.937C88.6475 245.958 88.3386 246.084 87.7753 246.299C87.1644 246.526 86.3576 246.824 85.3815 247.186C83.3569 247.922 80.5523 248.923 77.4486 250.009C74.344 251.097 71.5285 252.065 69.4851 252.753C68.4971 253.078 67.6804 253.348 67.0616 253.553C66.4874 253.736 66.1667 253.828 66.1598 253.809C66.1538 253.791 66.4617 253.664 67.025 253.447C67.6358 253.22 68.4427 252.923 69.4178 252.56C71.4433 251.824 74.248 250.825 77.3536 249.736C80.4562 248.649 83.2718 247.681 85.3151 246.992C86.3032 246.667 87.1199 246.397 87.7386 246.192C88.3128 246.01 88.6346 245.919 88.6405 245.937Z" fill="#E0E0E0"/>
<path d="M117.916 230.555C117.943 230.63 106.019 234.873 91.2875 240.032C76.5504 245.193 64.5863 249.314 64.5596 249.239C64.5339 249.164 76.4554 244.921 91.1914 239.762C105.924 234.602 117.891 230.48 117.916 230.555Z" fill="#E0E0E0"/>
<path d="M64.6566 278.303L59.8215 279.996C58.0573 280.613 56.1268 279.686 55.5091 277.92L53.8162 273.085C53.1984 271.32 54.127 269.39 55.8912 268.772L60.7263 267.079C62.4905 266.461 64.422 267.391 65.0397 269.156L66.7326 273.991C67.3504 275.754 66.4208 277.685 64.6566 278.303Z" fill="#EBEBEB"/>
<path d="M60.1362 275.403C60.1332 275.404 60.1312 275.405 60.1273 275.406C60.054 275.429 59.9728 275.422 59.9055 275.383L57.6919 274.099C57.5592 274.022 57.5147 273.853 57.5909 273.719C57.6671 273.587 57.8374 273.542 57.9701 273.618L59.9223 274.75L62.2607 269.748C62.325 269.61 62.4904 269.55 62.629 269.615C62.7676 269.68 62.827 269.844 62.7626 269.983L60.2956 275.259C60.2639 275.327 60.2074 275.379 60.1362 275.403Z" fill="white"/>
<path d="M123.54 246.617C123.566 246.692 111.643 250.936 96.9115 256.094C82.1735 261.255 70.2094 265.377 70.1836 265.301C70.1569 265.226 82.0784 260.984 96.8155 255.824C111.548 250.663 123.514 246.542 123.54 246.617Z" fill="#E0E0E0"/>
<path d="M95.5395 265.637C95.5464 265.658 95.2375 265.783 94.6742 265.999C94.0634 266.226 93.2565 266.524 92.2804 266.886C90.2559 267.622 87.4512 268.623 84.3476 269.709C81.2429 270.796 78.4274 271.765 76.3841 272.453C75.396 272.778 74.5793 273.048 73.9606 273.253C73.3864 273.436 73.0656 273.528 73.0587 273.509C73.0527 273.491 73.3606 273.364 73.9239 273.147C74.5348 272.92 75.3416 272.623 76.3167 272.26C78.3423 271.522 81.1469 270.525 84.2525 269.436C87.3552 268.349 90.1707 267.381 92.2141 266.692C93.2021 266.367 94.0188 266.096 94.6376 265.892C95.2108 265.711 95.5335 265.619 95.5395 265.637Z" fill="#E0E0E0"/>
<path d="M124.815 250.254C124.841 250.33 112.917 254.573 98.1859 259.732C83.4488 264.892 71.4848 269.014 71.458 268.939C71.4323 268.863 83.3528 264.621 98.0899 259.46C112.822 254.302 124.789 250.179 124.815 250.254Z" fill="#E0E0E0"/>
<path d="M19.0444 165.638L21.4679 172.559C22.8747 176.574 27.2703 178.691 31.2867 177.284L82.0704 159.501C86.0868 158.094 88.2024 153.698 86.7956 149.682L84.3771 142.775L19.0444 165.638Z" fill="#E0E0E0"/>
<path d="M52.387 156.255C48.628 157.571 44.4977 155.584 43.181 151.824C41.8653 148.064 43.8522 143.934 47.6122 142.617C51.3722 141.302 55.5015 143.29 56.8182 147.049C58.1349 150.809 56.147 154.938 52.387 156.255ZM48.528 145.233C46.2104 146.045 44.9848 148.591 45.7966 150.909C46.6084 153.226 49.1537 154.452 51.4722 153.64C53.7888 152.828 55.0144 150.283 54.2026 147.964C53.3918 145.647 50.8456 144.421 48.528 145.233Z" fill="#E0E0E0"/>
<path d="M92.9794 174.209C93.0249 174.341 79.6353 179.149 63.0746 184.949C46.5081 190.75 33.0462 195.344 32.9996 195.212C32.9541 195.081 46.3418 190.274 62.9083 184.472C79.4679 178.673 92.9338 174.077 92.9794 174.209Z" fill="#E0E0E0"/>
<path d="M75.829 176.671C75.8745 176.803 69.9801 178.987 62.6651 181.549C55.346 184.111 49.3783 186.081 49.3318 185.95C49.2853 185.819 55.1797 183.635 62.4977 181.072C69.8148 178.512 75.7835 176.54 75.829 176.671Z" fill="#E0E0E0"/>
<path d="M339.671 377.277C343.227 375.442 347.411 375.204 351.36 375.856C353.481 376.207 355.692 376.842 357.135 378.434C358.578 380.027 358.851 382.83 357.194 384.199C356.208 385.014 354.832 385.138 353.552 385.125C350.462 385.088 347.034 384.543 344.565 386.404C343.156 387.463 342.22 389.227 340.537 389.749C338.889 390.259 337.03 389.288 336.155 387.8C335.281 386.313 335.253 384.454 335.66 382.779C335.659 382.779 336.089 379.124 339.671 377.277Z" fill="#F9B935"/>
<path d="M331.525 361.551C333.698 364.658 337.925 363.63 339.883 361.735C341.843 359.839 342.67 357.091 343.425 354.473C345.147 348.487 346.884 342.206 345.603 336.112C345.22 334.29 344.539 332.472 343.259 331.122C341.977 329.769 340.008 328.963 338.208 329.44C336.078 330.004 334.754 332.09 333.796 334.075C330.982 339.912 329.492 346.38 329.472 352.858C329.462 355.881 329.817 359.055 331.525 361.551Z" fill="#F9B935"/>
<path d="M325.554 366.007C327.915 363.205 328.362 359.119 327.311 355.609C326.26 352.1 323.887 349.114 321.153 346.677C317.945 343.818 314.177 341.595 310.124 340.17C308.531 339.61 306.847 339.167 305.164 339.328C303.483 339.487 301.787 340.347 301.002 341.846C299.841 344.058 300.954 346.743 302.158 348.934C304.28 352.792 306.703 356.484 309.402 359.965C311.572 362.764 314.06 365.525 317.367 366.789C320.676 368.053 324.113 367.906 325.866 365.612" fill="#F9B935"/>
<path d="M331.378 408.394C331.418 408.397 331.483 407.894 331.573 406.983C331.674 405.956 331.8 404.666 331.948 403.133C332.128 401.511 332.365 399.584 332.814 397.484C333.263 395.389 333.965 393.119 334.867 390.817C335.801 388.529 336.941 386.449 338.271 384.785C339.593 383.114 341.13 381.905 342.576 381.207C344.015 380.496 345.306 380.207 346.2 380.079C347.1 379.987 347.604 379.915 347.605 379.876C347.605 379.835 347.1 379.828 346.174 379.854C345.258 379.915 343.914 380.148 342.397 380.837C340.874 381.513 339.241 382.741 337.856 384.447C336.46 386.144 335.278 388.269 334.327 390.599C333.41 392.943 332.718 395.236 332.29 397.375C331.861 399.511 331.667 401.461 331.538 403.094C331.417 404.729 331.369 406.054 331.348 406.97C331.326 407.885 331.338 408.392 331.378 408.394Z" fill="#263238"/>
<path d="M331.643 405.431C331.664 405.43 331.675 405.205 331.681 404.776C331.68 404.284 331.677 403.665 331.675 402.904C331.671 401.279 331.671 398.928 331.758 396.024C331.902 390.217 332.402 383.967 333.368 375.156C334.283 366.871 335.51 357.229 336.807 350.961C337.084 349.534 337.363 348.251 337.627 347.128C337.879 346.003 338.093 345.031 338.3 344.246C338.477 343.506 338.622 342.904 338.737 342.426C338.831 342.008 338.871 341.786 338.85 341.781C338.831 341.775 338.754 341.986 338.623 342.393C338.479 342.866 338.301 343.459 338.08 344.188C337.838 344.965 337.592 345.931 337.31 347.052C337.016 348.171 336.707 349.451 336.403 350.875C335.121 356.554 333.765 364.494 332.788 373.327C331.821 382.156 331.386 390.195 331.347 396.017C331.313 398.928 331.374 401.285 331.45 402.911C331.496 403.672 331.534 404.292 331.564 404.783C331.596 405.208 331.621 405.432 331.643 405.431Z" fill="#263238"/>
<path d="M331.682 389.924C331.722 389.923 331.714 389.228 331.667 387.968C331.595 386.711 331.422 384.895 331.069 382.668C330.694 380.45 330.169 377.813 329.345 374.948C328.988 373.64 328.149 370.502 326.117 365.813C323.439 359.46 319.801 354.267 316.637 351.05C315.894 350.197 315.067 349.581 314.406 348.978C314.063 348.689 313.761 348.4 313.453 348.171C313.143 347.957 312.854 347.758 312.588 347.575C311.545 346.861 310.961 346.485 310.941 346.52C310.846 346.647 313.273 348.075 316.338 351.335C319.39 354.588 322.925 359.746 325.582 366.043C327.063 369.46 328.096 372.507 328.827 375.095C329.675 377.932 330.238 380.541 330.663 382.739C331.067 384.943 331.3 386.74 331.442 387.986C331.559 389.235 331.642 389.926 331.682 389.924Z" fill="#263238"/>
<path d="M316.694 417.277L318.247 438.564H345.594L347.148 417.277H316.694Z" fill="#263238"/>
<path d="M350.411 408.887H314.053V417.278H350.411V408.887Z" fill="#263238"/>
<path d="M314.053 437.749V440.076H315.761H349.808V437.749H314.053Z" fill="#455A64"/>
<path d="M317.436 444.168L315.762 440.075H348.508L346.552 444.168H317.436Z" fill="#455A64"/>
<path d="M346.64 424.234C346.646 424.239 346.603 424.306 346.512 424.429C346.405 424.574 346.269 424.752 346.104 424.972C345.714 425.469 345.181 426.152 344.511 427.012L344.439 427.102L344.372 427.007C343.369 425.622 342.034 423.771 340.459 421.593H340.683C339.52 423.242 338.224 425.079 336.83 427.051L336.71 427.222L336.575 427.061C335.152 425.369 333.608 423.532 332.005 421.623L332.267 421.62C332.188 421.72 332.102 421.828 332.017 421.937C330.599 423.714 329.228 425.431 327.931 427.059L327.795 427.229L327.669 427.052C326.282 425.089 324.985 423.255 323.812 421.596L324.038 421.608C322.138 423.772 320.525 425.609 319.29 427.017L319.205 427.113L319.142 427.005C318.515 425.953 318.017 425.116 317.655 424.508C317.499 424.237 317.374 424.019 317.273 423.844C317.19 423.691 317.149 423.611 317.157 423.606C317.164 423.602 317.218 423.674 317.317 423.817C317.425 423.985 317.566 424.197 317.738 424.457C318.118 425.054 318.642 425.877 319.299 426.909L319.15 426.897C320.367 425.471 321.953 423.613 323.822 421.422L323.94 421.284L324.047 421.432C325.228 423.082 326.536 424.909 327.935 426.861L327.674 426.855C328.968 425.225 330.335 423.504 331.751 421.724C331.837 421.616 331.923 421.507 332.002 421.409L332.132 421.245L332.266 421.405C333.864 423.316 335.404 425.158 336.823 426.853L336.567 426.863C337.973 424.902 339.283 423.074 340.46 421.435L340.574 421.276L340.683 421.435C342.227 423.637 343.535 425.506 344.516 426.905L344.376 426.901C345.074 426.065 345.629 425.4 346.033 424.916C346.213 424.708 346.359 424.538 346.477 424.401C346.579 424.286 346.632 424.229 346.64 424.234Z" fill="#E0E0E0"/>
<path d="M347.529 417.137C347.529 417.232 340.677 417.307 332.226 417.307C323.773 417.307 316.923 417.232 316.923 417.137C316.923 417.043 323.773 416.967 332.226 416.967C340.677 416.967 347.529 417.043 347.529 417.137Z" fill="#455A64"/>
<path d="M348.909 440.304C348.909 440.399 341.464 440.474 332.277 440.474C323.091 440.474 315.646 440.399 315.646 440.304C315.646 440.21 323.091 440.134 332.277 440.134C341.464 440.134 348.909 440.21 348.909 440.304Z" fill="#263238"/>
<path d="M79.149 372.392C79.0738 372.486 78.4501 372.111 77.7551 371.554C77.0601 370.997 76.5562 370.471 76.6315 370.376C76.7067 370.283 77.3304 370.659 78.0254 371.217C78.7204 371.772 79.2243 372.299 79.149 372.392Z" fill="#263238"/>
<path d="M98.1136 344.047C98.2285 341.397 98.3027 338.682 97.4672 336.166C96.6306 333.651 94.6912 331.337 92.0955 330.799C89.1324 330.186 86.0971 332.058 84.4369 334.585C82.7767 337.115 82.2064 340.187 81.7154 343.171C78.3365 363.744 77.0892 384.665 77.999 405.494L90.1224 407.193C95.4476 385.439 97.1454 366.423 98.1136 344.047Z" fill="#455A64"/>
<path d="M90.412 330.706C90.4189 330.71 90.4001 330.774 90.3566 330.899C90.3031 331.048 90.2368 331.228 90.1566 331.449C89.9586 331.963 89.6893 332.662 89.3487 333.543C89.1794 334 88.9547 334.494 88.7745 335.058C88.5934 335.625 88.3964 336.237 88.1855 336.893C87.9736 337.554 87.7469 338.258 87.5064 339.002C87.3084 339.762 87.0995 340.564 86.8807 341.407C85.9659 344.767 85.2076 348.851 84.5384 353.404C83.883 357.962 83.4523 363.013 83.1138 368.318C82.494 378.94 82.397 388.582 82.1238 395.554C81.9951 399.04 81.8753 401.862 81.7416 403.81C81.6783 404.753 81.6268 405.503 81.5902 406.051C81.5694 406.286 81.5535 406.477 81.5397 406.633C81.5258 406.764 81.5149 406.832 81.507 406.831C81.5001 406.831 81.4961 406.763 81.4951 406.63C81.4971 406.473 81.5001 406.281 81.503 406.047C81.5199 405.496 81.5436 404.748 81.5733 403.801C81.6545 401.852 81.7278 399.032 81.8179 395.545C82.0129 388.574 82.0604 378.931 82.6821 368.293C83.0207 362.979 83.4642 357.918 84.1434 353.347C84.8363 348.784 85.6283 344.69 86.5847 341.327C86.8144 340.485 87.0341 339.683 87.242 338.924C87.4945 338.179 87.7321 337.476 87.9568 336.818C88.1796 336.164 88.3875 335.552 88.5805 334.986C88.7735 334.425 89.0102 333.933 89.1923 333.48C89.5655 332.609 89.8596 331.919 90.0764 331.413C90.1734 331.197 90.2516 331.022 90.3169 330.88C90.3724 330.764 90.4051 330.703 90.412 330.706Z" fill="#263238"/>
<path d="M91.5359 330.713C91.5359 330.713 92.2794 331.476 93.0169 333.221C93.7802 334.952 94.2584 337.704 94.1227 341.064C93.801 347.764 93.201 356.994 92.4031 367.187C91.6012 377.38 90.7132 386.594 89.9974 393.255C89.64 396.584 89.3302 399.279 89.1025 401.138C88.9866 402.037 88.8946 402.752 88.8272 403.276C88.7936 403.499 88.7669 403.68 88.7451 403.832C88.7243 403.956 88.7094 404.02 88.7025 404.019C88.6946 404.018 88.6946 403.953 88.7005 403.828C88.7114 403.675 88.7243 403.492 88.7401 403.267C88.7886 402.74 88.853 402.023 88.9342 401.119C89.1173 399.215 89.3757 396.527 89.6935 393.225C90.3301 386.557 91.1696 377.342 91.9715 367.152C92.7684 356.967 93.4169 347.732 93.8168 341.054C93.9891 337.719 93.5644 335.012 92.8605 333.285C92.1823 331.545 91.4824 330.744 91.5359 330.713Z" fill="#263238"/>
<path d="M99.941 362.09C99.9004 362.202 98.8718 361.937 97.6432 361.495C96.4146 361.054 95.4514 360.606 95.492 360.494C95.5316 360.38 96.5602 360.646 97.7897 361.088C99.0183 361.529 99.9816 361.978 99.941 362.09Z" fill="#263238"/>
<path d="M101.401 349.734C101.45 349.843 100.472 350.388 99.2155 350.951C97.9592 351.512 96.9019 351.88 96.8534 351.771C96.8039 351.661 97.783 351.117 99.0393 350.554C100.295 349.993 101.353 349.626 101.401 349.734Z" fill="#263238"/>
<path d="M100.644 339.649C100.636 339.769 99.8262 339.81 98.8372 339.743C97.8462 339.674 97.0512 339.521 97.0591 339.402C97.0671 339.283 97.8769 339.241 98.8669 339.31C99.8569 339.38 100.653 339.53 100.644 339.649Z" fill="#263238"/>
<path d="M88.1331 333.188C88.0321 333.252 87.5014 332.59 86.948 331.712C86.3946 330.831 86.0273 330.068 86.1293 330.003C86.2303 329.94 86.7609 330.601 87.3143 331.48C87.8677 332.36 88.235 333.125 88.1331 333.188Z" fill="#263238"/>
<path d="M84.0002 339.286C83.9973 339.405 83.2261 339.486 82.2786 339.467C81.3292 339.446 80.563 339.333 80.5649 339.214C80.5679 339.094 81.3391 339.014 82.2875 339.033C83.236 339.054 84.0022 339.166 84.0002 339.286Z" fill="#263238"/>
<path d="M81.0308 351.487C80.9863 351.598 80.1745 351.376 79.2191 350.99C78.2628 350.604 77.5243 350.201 77.5688 350.092C77.6134 349.981 78.4251 350.202 79.3805 350.589C80.3378 350.974 81.0764 351.377 81.0308 351.487Z" fill="#263238"/>
<path d="M80.7141 361.748C80.7389 361.865 80.0479 362.108 79.1717 362.293C78.2956 362.478 77.5649 362.531 77.5402 362.413C77.5154 362.297 78.2065 362.054 79.0826 361.869C79.9588 361.686 80.6894 361.63 80.7141 361.748Z" fill="#263238"/>
<path d="M79.3174 378.531C79.3382 378.649 78.6056 378.88 77.6799 379.046C76.7543 379.211 75.9871 379.251 75.9653 379.132C75.9445 379.014 76.6771 378.784 77.6037 378.618C78.5294 378.452 79.2966 378.413 79.3174 378.531Z" fill="#263238"/>
<path d="M78.3896 387.796C78.445 387.901 77.8332 388.334 77.0244 388.764C76.2136 389.192 75.5117 389.454 75.4562 389.348C75.3998 389.242 76.0116 388.808 76.8214 388.381C77.6323 387.951 78.3342 387.691 78.3896 387.796Z" fill="#263238"/>
<path d="M85.9551 398.311C85.8521 398.372 85.3185 397.634 84.7651 396.669C84.2117 395.702 83.8474 394.87 83.9513 394.811C84.0543 394.75 84.5869 395.487 85.1413 396.453C85.6947 397.421 86.059 398.252 85.9551 398.311Z" fill="#263238"/>
<path d="M88.1384 380.836C88.2215 380.922 87.6285 381.641 86.8128 382.439C85.997 383.241 85.2684 383.82 85.1842 383.734C85.1001 383.648 85.6941 382.93 86.5098 382.131C87.3256 381.33 88.0552 380.751 88.1384 380.836Z" fill="#263238"/>
<path d="M87.655 371.667C87.5669 371.749 87.0165 371.296 86.4255 370.658C85.8335 370.019 85.4256 369.436 85.5127 369.355C85.6008 369.274 86.1512 369.725 86.7433 370.366C87.3343 371.002 87.7432 371.586 87.655 371.667Z" fill="#263238"/>
<path d="M89.1561 359.952C89.2452 360.031 88.7501 360.729 88.0512 361.509C87.3523 362.289 86.7127 362.859 86.6237 362.778C86.5346 362.697 87.0295 362 87.7285 361.22C88.4274 360.44 89.067 359.872 89.1561 359.952Z" fill="#263238"/>
<path d="M90.0003 351.449C89.9171 351.534 89.2261 350.992 88.4588 350.237C87.6906 349.484 87.1362 348.803 87.2204 348.717C87.3045 348.631 87.9945 349.174 88.7628 349.929C89.53 350.685 90.0844 351.364 90.0003 351.449Z" fill="#263238"/>
<path d="M91.6609 339.956C91.7638 340.018 91.4163 340.788 90.8867 341.677C90.3561 342.566 89.8432 343.236 89.7413 343.176C89.6383 343.114 89.9848 342.344 90.5144 341.456C91.0451 340.566 91.5579 339.895 91.6609 339.956Z" fill="#263238"/>
<path d="M94.7829 329.305C94.8879 329.363 94.581 330.134 94.0979 331.028C93.6147 331.922 93.1376 332.601 93.0326 332.543C92.9267 332.487 93.2336 331.717 93.7167 330.822C94.2008 329.928 94.678 329.247 94.7829 329.305Z" fill="#263238"/>
<path d="M98.3252 334.143C98.3767 334.251 97.8926 334.59 97.2422 334.903C96.5927 335.213 96.0235 335.377 95.972 335.27C95.9205 335.161 96.4056 334.823 97.0551 334.51C97.7055 334.2 98.2737 334.036 98.3252 334.143Z" fill="#263238"/>
<path d="M98.4101 372.393C98.3873 372.505 97.2874 372.355 96.0391 371.819C94.7877 371.288 93.9185 370.6 93.9828 370.504C94.0502 370.4 94.9976 370.907 96.2083 371.422C97.4171 371.94 98.4388 372.273 98.4101 372.393Z" fill="#263238"/>
<path d="M96.9629 380.495C96.9857 380.613 96.255 380.853 95.3324 381.031C94.4087 381.21 93.6414 381.258 93.6197 381.14C93.5969 381.023 94.3265 380.783 95.2502 380.605C96.1738 380.429 96.9401 380.378 96.9629 380.495Z" fill="#263238"/>
<path d="M95.1832 394.387C95.1129 394.478 94.1862 393.842 93.3368 392.765C92.4815 391.693 92.0756 390.647 92.1795 390.599C92.2914 390.541 92.8527 391.465 93.6764 392.497C94.4931 393.534 95.2644 394.292 95.1832 394.387Z" fill="#263238"/>
<path d="M75.6961 400.74C75.6179 400.649 76.111 400.1 76.796 399.515C77.4811 398.928 78.0999 398.527 78.1781 398.617C78.2553 398.708 77.7633 399.257 77.0782 399.844C76.3931 400.43 75.7744 400.832 75.6961 400.74Z" fill="#263238"/>
<path d="M70.0937 370.42C69.3057 367.958 67.8247 365.084 65.2378 365.046C63.7023 365.026 62.3213 366.127 61.5996 367.481C60.8779 368.836 60.572 370.407 60.6165 371.942C60.9135 382.078 62.6688 393.673 66.1763 404.232H75.6427C75.5209 392.503 73.6706 381.593 70.0937 370.42Z" fill="#455A64"/>
<path d="M52.9745 354.911C51.6519 349.619 47.7048 346.761 43.1201 346.495C38.9364 347.229 37.3138 351.347 36.8168 355.566C36.3199 359.786 37.6296 363.983 38.9235 368.029C43.0766 381.02 47.2296 394.011 51.3836 407.001C55.3079 406.573 59.2333 406.144 63.1596 405.715C59.4313 388.311 57.2919 372.179 52.9745 354.911Z" fill="#455A64"/>
<path d="M65.2367 365.047C65.2783 365.08 64.8487 365.474 64.4348 366.388C64.025 367.306 63.828 368.772 63.9923 370.573C64.1755 372.37 64.3814 374.538 64.6823 376.911C64.9912 379.291 65.4199 381.896 65.9515 384.615C67.0217 390.052 68.2275 394.932 68.9928 398.488C69.3808 400.265 69.6729 401.709 69.858 402.71C69.9372 403.17 70.0016 403.553 70.056 403.865C70.0966 404.131 70.1105 404.27 70.0956 404.273C70.0818 404.277 70.0382 404.141 69.9699 403.883C69.8956 403.573 69.8036 403.198 69.6927 402.744C69.4422 401.691 69.1046 400.275 68.6948 398.558C67.8533 395.02 66.6 390.152 65.5268 384.698C64.9932 381.97 64.5754 379.354 64.2873 376.962C64.1359 375.766 64.0359 374.627 63.9388 373.559C63.8527 372.498 63.7369 371.506 63.6864 370.593C63.5577 368.766 63.8082 367.244 64.2814 366.317C64.7596 365.393 65.2367 365.047 65.2367 365.047Z" fill="#263238"/>
<path d="M43.2913 346.159C43.3319 346.195 42.6646 346.757 41.8687 348.073C41.0747 349.373 40.2312 351.494 40.0758 354.235C39.8966 356.975 40.5064 360.227 41.5331 363.715C42.5676 367.22 43.7021 371.065 44.8931 375.102C47.2414 383.174 49.3669 390.478 50.9212 395.82C51.6627 398.443 52.2666 400.581 52.6992 402.112C52.8913 402.825 53.0457 403.395 53.1625 403.828C53.2635 404.222 53.31 404.43 53.2952 404.434C53.2803 404.439 53.2071 404.238 53.0784 403.852C52.9417 403.426 52.7626 402.861 52.5378 402.158C52.0725 400.636 51.4231 398.511 50.6271 395.906C49.0412 390.573 46.8731 383.281 44.4773 375.224C43.2972 371.181 42.1736 367.332 41.1489 363.823C40.1392 360.313 39.5471 357.004 39.7699 354.214C39.9689 351.422 40.8737 349.275 41.7251 347.983C42.5795 346.675 43.2913 346.159 43.2913 346.159Z" fill="#263238"/>
<path d="M60.5916 404.457C60.5778 404.462 60.4867 404.269 60.3253 403.894C60.1709 403.515 59.9204 402.965 59.6551 402.237C59.0938 400.789 58.3741 398.659 57.6296 395.983C56.8811 393.309 56.1456 390.084 55.4358 386.487C54.7527 382.88 54.0042 378.924 53.2172 374.772C52.3985 370.626 51.4867 366.705 50.4284 363.203C49.372 359.703 48.189 356.624 46.9951 354.13C45.8071 351.634 44.6725 349.7 43.8212 348.411C43.4153 347.75 43.048 347.274 42.8282 346.93C42.6015 346.59 42.4866 346.408 42.4995 346.399C42.5114 346.39 42.648 346.555 42.8985 346.877C43.141 347.205 43.5331 347.668 43.9607 348.315C44.8587 349.582 46.0407 351.504 47.2713 353.996C48.5068 356.488 49.7284 359.575 50.8105 363.087C51.8945 366.599 52.8212 370.533 53.6419 374.689C54.4171 378.844 55.1546 382.801 55.8268 386.411C56.5148 390.006 57.2177 393.228 57.9256 395.904C58.6295 398.581 59.3017 400.719 59.8135 402.179C60.0541 402.916 60.2788 403.474 60.4075 403.861C60.5421 404.245 60.6055 404.451 60.5916 404.457Z" fill="#263238"/>
<path d="M39.1334 366.085C39.1621 366.201 38.5216 366.456 37.7029 366.655C36.8851 366.853 36.1981 366.922 36.1704 366.805C36.1417 366.688 36.7822 366.434 37.6009 366.234C38.4196 366.037 39.1067 365.97 39.1334 366.085Z" fill="#263238"/>
<path d="M37.8863 358.048C37.8803 358.17 36.9903 358.22 35.9003 358.264C34.8104 358.306 33.9194 358.326 33.9035 358.204C33.8877 358.088 34.7708 357.872 35.8835 357.83C36.9963 357.786 37.8932 357.932 37.8863 358.048Z" fill="#263238"/>
<path d="M39.2127 350.708C39.1355 350.8 38.496 350.384 37.7842 349.781C37.0724 349.176 36.5576 348.612 36.6358 348.522C36.713 348.43 37.3525 348.845 38.0643 349.45C38.7771 350.053 39.2909 350.616 39.2127 350.708Z" fill="#263238"/>
<path d="M42.8051 343.913C42.9239 343.94 42.8912 344.512 42.8734 345.206C42.8516 345.897 42.8506 346.47 42.7298 346.491C42.616 346.512 42.418 345.934 42.4408 345.192C42.4606 344.452 42.6912 343.887 42.8051 343.913Z" fill="#263238"/>
<path d="M50.1464 347.115C50.2444 347.183 49.9563 347.763 49.5039 348.411C49.0504 349.057 48.604 349.527 48.506 349.458C48.4079 349.39 48.696 348.809 49.1485 348.163C49.6029 347.516 50.0494 347.047 50.1464 347.115Z" fill="#263238"/>
<path d="M54.9101 355.391C54.9547 355.501 54.3458 355.856 53.5489 356.18C52.7509 356.505 52.0679 356.68 52.0223 356.568C51.9778 356.458 52.5876 356.105 53.3845 355.78C54.1815 355.454 54.8646 355.28 54.9101 355.391Z" fill="#263238"/>
<path d="M57.8 363.905C57.8486 364.009 57.0407 364.47 55.9329 364.72C54.8261 364.973 53.8985 364.906 53.8975 364.79C53.8916 364.666 54.7756 364.542 55.8369 364.297C56.9011 364.06 57.7525 363.792 57.8 363.905Z" fill="#263238"/>
<path d="M44.5321 361.487C44.4173 361.451 44.5004 360.863 44.7172 360.174C44.9331 359.485 45.2004 358.953 45.3152 358.99C45.4291 359.025 45.3459 359.613 45.1301 360.304C44.9143 360.993 44.646 361.522 44.5321 361.487Z" fill="#263238"/>
<path d="M46.3822 372.177C46.2723 372.129 46.5109 371.336 46.9148 370.407C47.3188 369.478 47.7356 368.763 47.8445 368.811C47.9543 368.858 47.7157 369.65 47.3118 370.581C46.9079 371.509 46.4931 372.225 46.3822 372.177Z" fill="#263238"/>
<path d="M41.8106 375.104C41.7651 375.216 41.0176 375.012 40.1147 374.731C39.2119 374.448 38.4832 374.189 38.509 374.07C38.5337 373.956 39.3208 374.028 40.2434 374.317C41.1681 374.605 41.8561 374.995 41.8106 375.104Z" fill="#263238"/>
<path d="M44.4456 383.819C44.5149 383.917 44.011 384.395 43.319 384.889C42.627 385.382 42.0102 385.703 41.94 385.608C41.8707 385.509 42.3756 385.031 43.0666 384.538C43.7596 384.044 44.3763 383.722 44.4456 383.819Z" fill="#263238"/>
<path d="M46.5597 392.509C46.5884 392.626 45.9637 392.877 45.1658 393.071C44.3678 393.265 43.6986 393.329 43.6709 393.212C43.6422 393.097 44.2659 392.844 45.0638 392.651C45.8617 392.455 46.5329 392.394 46.5597 392.509Z" fill="#263238"/>
<path d="M58.0323 371.165C58.0927 371.267 57.5591 371.691 56.782 371.982C56.0058 372.277 55.3237 372.308 55.3029 372.193C55.2792 372.074 55.891 371.857 56.6295 371.577C57.368 371.301 57.971 371.061 58.0323 371.165Z" fill="#263238"/>
<path d="M59.672 384.684C59.6215 384.792 58.986 384.601 58.2524 384.256C57.5188 383.911 56.9664 383.544 57.0169 383.435C57.0684 383.327 57.7039 383.519 58.4365 383.864C59.1701 384.209 59.7235 384.577 59.672 384.684Z" fill="#263238"/>
<path d="M62.5661 394.358C62.5226 394.469 61.683 394.246 60.6911 393.856C59.6991 393.467 58.9309 393.061 58.9744 392.95C59.018 392.84 59.8575 393.063 60.8495 393.452C61.8405 393.841 62.6097 394.248 62.5661 394.358Z" fill="#263238"/>
<path d="M47.0237 401.938C46.9643 401.83 47.7375 401.309 48.6295 400.604C49.5244 399.904 50.2115 399.277 50.3036 399.36C50.3907 399.436 49.8264 400.218 48.8968 400.946C47.9702 401.677 47.0762 402.042 47.0237 401.938Z" fill="#263238"/>
<path d="M54.6737 397.017C54.551 397.033 54.3846 396.382 54.0896 395.627C53.7995 394.868 53.4857 394.276 53.5867 394.204C53.6778 394.132 54.1797 394.652 54.4925 395.471C54.8103 396.287 54.7886 397.009 54.6737 397.017Z" fill="#263238"/>
<path d="M52.645 385.383C52.5747 385.482 52.0807 385.245 51.5412 384.859C51.0016 384.47 50.6215 384.078 50.6908 383.98C50.7601 383.882 51.2541 384.12 51.7946 384.506C52.3342 384.892 52.7153 385.286 52.645 385.383Z" fill="#263238"/>
<path d="M70.477 367.149C70.5473 367.247 70.0661 367.721 69.4019 368.211C68.7376 368.701 68.1406 369.021 68.0693 368.925C67.999 368.828 68.4802 368.354 69.1444 367.864C69.8097 367.373 70.4057 367.053 70.477 367.149Z" fill="#263238"/>
<path d="M73.1633 374.496C73.1742 374.611 72.4208 374.769 71.4893 374.667C70.5557 374.568 69.8538 374.254 69.8884 374.144C69.9241 374.025 70.6478 374.145 71.5348 374.238C72.4218 374.335 73.1544 374.373 73.1633 374.496Z" fill="#263238"/>
<path d="M61.6122 376.144C61.638 376.258 60.94 376.508 60.0391 376.568C59.1372 376.629 58.4126 376.473 58.4225 376.357C58.4324 376.235 59.1432 376.196 60.0094 376.134C60.8757 376.079 61.5875 376.024 61.6122 376.144Z" fill="#263238"/>
<path d="M62.6042 369.198C62.5952 369.313 61.8904 369.333 61.1192 368.974C60.345 368.622 59.9005 368.074 59.9817 367.993C60.0648 367.901 60.5955 368.262 61.3003 368.581C62.0012 368.908 62.621 369.075 62.6042 369.198Z" fill="#263238"/>
<path d="M74.1545 382.382C74.0911 382.485 73.3694 382.145 72.5418 381.623C71.7151 381.102 71.0964 380.598 71.1597 380.498C71.2241 380.395 71.9458 380.735 72.7724 381.257C73.5991 381.778 74.2178 382.282 74.1545 382.382Z" fill="#263238"/>
<path d="M102.341 402.999H40.7129V413.922H102.341V402.999Z" fill="#F9B935"/>
<path d="M45.3149 411.754L52.8092 444.397H89.538L97.7391 411.754H45.3149Z" fill="#F9B935"/>
<path d="M102.306 413.935C102.306 414.055 88.4048 414.153 71.2611 414.153C54.1114 414.153 40.2129 414.055 40.2129 413.935C40.2129 413.816 54.1114 413.719 71.2611 413.719C88.4048 413.719 102.306 413.816 102.306 413.935Z" fill="#263238"/>
<path d="M68.0336 376.382C67.9316 376.446 67.5109 375.955 67.0931 375.287C66.6744 374.618 66.4179 374.024 66.5199 373.962C66.6209 373.897 67.0426 374.388 67.4604 375.057C67.8782 375.726 68.1356 376.32 68.0336 376.382Z" fill="#263238"/>
<path d="M68.0565 385.17C67.9426 385.133 68.0872 384.39 68.3792 383.512C68.6703 382.633 68.999 381.953 69.1128 381.991C69.2257 382.028 69.0821 382.771 68.7901 383.649C68.498 384.527 68.1693 385.208 68.0565 385.17Z" fill="#263238"/>
<path d="M71.0639 394.396C70.956 394.449 70.4957 393.712 70.0353 392.749C69.576 391.787 69.2899 390.966 69.3978 390.914C69.5057 390.863 69.966 391.6 70.4264 392.561C70.8867 393.522 71.1718 394.344 71.0639 394.396Z" fill="#263238"/>
<path d="M64.5546 401.819C64.4645 401.741 64.8318 401.171 65.3763 400.543C65.9198 399.915 66.4336 399.472 66.5247 399.55C66.6148 399.628 66.2475 400.199 65.703 400.826C65.1595 401.453 64.6447 401.897 64.5546 401.819Z" fill="#263238"/>
<path d="M63.1883 388.342C63.1675 388.46 62.5745 388.453 61.8637 388.328C61.1529 388.202 60.5935 388.006 60.6143 387.888C60.6351 387.77 61.2281 387.778 61.9389 387.903C62.6498 388.027 63.2091 388.224 63.1883 388.342Z" fill="#263238"/>
<path d="M277.597 327.931H131.451V444.475H277.597V327.931Z" fill="#E0E0E0"/>
<g opacity="0.3">
<path d="M142.097 328.174C159.303 334.314 178.281 335.623 196.746 335.968C200.57 336.04 204.444 336.034 208.143 336.998C211.844 337.963 215.425 340.037 217.325 343.357C219.394 346.969 219.173 351.495 218 355.487C216.825 359.482 214.791 363.165 213.319 367.058C210.739 373.893 209.936 381.39 211.013 388.616C211.471 391.685 212.293 394.777 214.067 397.325C215.84 399.872 218.701 401.81 221.804 401.856C227.358 401.936 231.161 396.475 233.916 391.652C245.208 371.868 257.428 349.371 264.656 327.766L142.097 328.174Z" fill="black"/>
</g>
<path d="M181.246 443.85C181.104 443.85 180.988 418.019 180.988 386.162C180.988 354.294 181.104 328.468 181.246 328.468C181.389 328.468 181.504 354.294 181.504 386.162C181.504 418.019 181.389 443.85 181.246 443.85Z" fill="#455A64"/>
<path d="M241.132 241.803C240.698 238.898 232.011 229.288 232.011 229.288C232.011 229.288 227.667 211.856 226.365 206.717C226.04 205.432 225.341 203.973 224.477 202.507C221.445 197.364 217.001 193.201 211.796 190.275L199.776 183.515L196.899 177.115L168.016 162.276L160.186 176.091C160.186 176.091 141.168 182.135 138.651 186.453C136.134 190.77 139.9 248.623 139.9 248.623C139.9 248.623 131.939 282.01 130.261 288.918C128.583 295.825 130.802 304.069 130.802 304.069L144.966 286.292C149.366 280.767 159.032 278.229 165.971 278.328L225.282 278.589L222.923 261.976L270.881 271.303C270.881 271.303 279.133 255.213 279.784 254.89C280.435 254.566 241.132 241.803 241.132 241.803Z" fill="#F9B935"/>
<path d="M166.783 181.523C166.368 181.099 170.135 193.825 174.866 206.784C177.413 213.767 178.691 221.173 178.691 228.631V257.162V275.554L207.13 273.623L202.879 242.713C202.879 242.713 199.412 222.773 198.441 215.189C197.552 208.246 194.498 189.416 194.498 189.416C194.498 189.416 178.691 193.65 166.783 181.523Z" fill="white"/>
<path d="M229.889 253.463C229.856 253.46 229.846 253.205 229.887 252.748C229.927 252.289 230.035 251.63 230.261 250.836C230.698 249.254 231.713 247.12 233.509 245.318C235.309 243.515 237.443 242.497 239.023 242.057C239.816 241.829 240.475 241.719 240.932 241.678C241.391 241.637 241.646 241.646 241.65 241.679C241.662 241.768 240.653 241.873 239.135 242.402C237.623 242.921 235.602 243.952 233.875 245.682C232.148 247.412 231.124 249.433 230.608 250.945C230.081 252.466 229.976 253.476 229.889 253.463Z" fill="#263238"/>
<path d="M231.354 242.206C231.291 242.094 233.159 241.149 235.696 240.948C238.229 240.73 240.228 241.359 240.184 241.479C240.155 241.632 238.177 241.25 235.738 241.461C233.298 241.651 231.409 242.352 231.354 242.206Z" fill="#263238"/>
<g opacity="0.3">
<path d="M137.033 267.809L134.564 270.608C137.21 273.684 140.646 276.264 144.584 277.234C148.522 278.203 152.616 278.317 156.672 278.327C158.315 278.331 159.983 278.316 161.561 277.861C163.169 277.398 164.67 276.483 166.341 276.383C167.461 276.318 168.563 276.623 169.66 276.859C170.755 277.092 171.915 277.255 172.982 276.911C174.049 276.568 174.983 275.579 174.917 274.46C162.584 270.861 149.854 268.627 137.033 267.809Z" fill="black"/>
</g>
<path d="M218.215 271.399L211.237 263.989L196.884 260.357C196.884 260.357 183.731 264.296 183.416 264.285C183.102 264.274 171.97 261.244 171.97 261.244L168.079 275.514L188.128 276.888L211.02 275.971C211.02 275.971 212.214 274.859 211.507 274.1C210.799 273.338 215.334 275.384 215.868 275.41C216.391 275.432 217.438 275.843 218.145 274.987C218.627 274.404 219.281 272.532 218.215 271.399Z" fill="#FFBE9D"/>
<path d="M211.507 274.098C211.48 274.168 210.618 273.891 209.225 273.45C207.835 273.008 205.909 272.419 203.757 271.865C201.602 271.315 199.63 270.906 198.198 270.619C196.767 270.333 195.879 270.155 195.89 270.079C195.899 270.013 196.805 270.065 198.259 270.26C199.712 270.456 201.712 270.813 203.885 271.365C206.056 271.923 207.98 272.573 209.347 273.105C210.714 273.638 211.532 274.036 211.507 274.098Z" fill="#EB996E"/>
<path d="M218.215 271.398C218.186 271.47 216.987 271.023 215.029 270.371C213.076 269.712 210.347 268.906 207.308 268.057C204.276 267.156 201.574 266.256 199.527 266.136C197.487 265.962 196.242 266.365 196.222 266.265C196.213 266.237 196.512 266.112 197.082 265.976C197.65 265.837 198.499 265.735 199.549 265.772C201.663 265.802 204.448 266.671 207.449 267.562C210.486 268.41 213.22 269.277 215.151 270.029C216.12 270.399 216.891 270.729 217.417 270.97C217.946 271.213 218.228 271.366 218.215 271.398Z" fill="#EB996E"/>
<path d="M138.651 186.454C138.651 186.454 128.304 193.65 125.786 204.011C123.27 214.372 112.362 256.682 114.601 263.014C116.837 269.346 160.344 275.555 160.344 275.555L165.499 253.804L143.405 247.759C143.405 247.759 143.685 227.613 143.965 219.266C144.244 210.918 138.651 186.454 138.651 186.454Z" fill="#F9B935"/>
<path d="M165.21 257.048L172.33 258.801L168.048 275.218L161.051 274.099L165.21 257.048Z" fill="white"/>
<path d="M114.436 260.775C114.473 260.775 114.415 261.136 114.542 261.799C114.683 262.451 115.105 263.398 116.059 264.268C117.95 266.029 121.56 267.495 126.14 268.319L126.155 268.322L126.171 268.328C128.265 269.015 130.647 269.562 133.197 270.139C135.752 270.709 138.49 271.294 141.386 271.884C147.174 273.066 153.579 274.313 160.366 275.582L160.07 275.772C160.562 273.755 161.082 271.622 161.608 269.459C162.829 264.467 164.011 259.633 165.132 255.048L165.306 255.347C157.999 253.26 151.332 251.358 145.67 249.741L145.658 249.739L145.648 249.734C142.65 248.506 139.668 248.058 137.083 248.233C134.486 248.351 132.309 249.046 130.619 249.751C128.927 250.477 127.715 251.265 126.906 251.807C126.532 252.081 126.234 252.297 126.007 252.463C125.802 252.61 125.694 252.682 125.688 252.674C125.681 252.667 125.776 252.579 125.968 252.417C126.164 252.257 126.445 252.008 126.837 251.712C127.628 251.135 128.83 250.309 130.528 249.543C132.224 248.799 134.423 248.062 137.063 247.913C139.691 247.704 142.736 248.131 145.802 249.363L145.779 249.355C151.449 250.943 158.124 252.816 165.442 254.867L165.672 254.933L165.616 255.164C164.5 259.751 163.324 264.588 162.109 269.58C161.582 271.743 161.06 273.875 160.568 275.893L160.51 276.129L160.272 276.085C153.482 274.806 147.08 273.542 141.293 272.331C138.398 271.728 135.66 271.126 133.105 270.536C130.552 269.94 128.181 269.377 126.053 268.655L126.084 268.665C121.455 267.782 117.835 266.257 115.927 264.405C114.968 263.49 114.556 262.49 114.445 261.817C114.348 261.132 114.436 260.775 114.436 260.775Z" fill="#263238"/>
<path d="M144.598 249.202C144.537 249.267 143.8 248.591 142.473 247.702C141.15 246.811 139.19 245.763 136.855 245.079C134.516 244.403 132.301 244.234 130.706 244.275C129.109 244.313 128.124 244.486 128.108 244.398C128.095 244.348 129.062 244.044 130.689 243.91C132.31 243.775 134.596 243.889 136.999 244.584C139.398 245.287 141.39 246.419 142.683 247.406C143.984 248.391 144.637 249.165 144.598 249.202Z" fill="#263238"/>
<path d="M147.495 213.762C147.531 213.764 147.535 214.236 147.51 215.088C147.491 215.942 147.417 217.174 147.301 218.695C147.058 221.735 146.604 225.93 145.809 230.517C145.03 235.11 144.031 239.219 143.065 242.123C142.822 242.848 142.573 243.495 142.36 244.062C142.123 244.594 141.914 245.069 141.727 245.488C141.32 246.244 141.081 246.65 141.049 246.633C141.019 246.615 141.197 246.178 141.544 245.406C141.705 244.98 141.886 244.499 142.09 243.96C142.276 243.387 142.5 242.739 142.717 242.013C143.588 239.105 144.524 235.006 145.301 230.43C146.092 225.858 146.602 221.685 146.938 218.661C147.086 217.226 147.211 216.023 147.31 215.075C147.395 214.228 147.46 213.76 147.495 213.762Z" fill="#263238"/>
<path d="M172.728 202.54C172.694 202.549 172.625 202.27 172.384 201.808C172.141 201.355 171.699 200.705 170.897 200.182C170.119 199.663 168.916 199.295 167.678 199.712C166.463 200.104 165.264 201.246 164.961 202.787L164.822 203.49L164.519 202.839C163.477 200.597 162.411 198.004 161.494 195.195C159.821 190.098 159.099 185.215 159.258 181.69C159.253 180.809 159.381 180.017 159.432 179.32C159.552 178.631 159.64 178.035 159.748 177.555C159.998 176.601 160.152 176.083 160.186 176.092C160.314 176.117 159.6 178.204 159.622 181.697C159.559 185.177 160.326 189.98 161.985 195.036C162.894 197.822 163.935 200.402 164.944 202.644L164.503 202.698C164.871 200.963 166.21 199.747 167.56 199.341C168.948 198.912 170.255 199.366 171.054 199.951C171.885 200.542 172.31 201.254 172.519 201.744C172.622 201.994 172.682 202.192 172.706 202.329C172.732 202.466 172.74 202.537 172.728 202.54Z" fill="#263238"/>
<path d="M196.864 204.77C196.83 204.772 196.764 204.355 196.635 203.592C196.53 202.83 196.278 201.71 196.425 200.273C196.624 198.863 197.291 197.155 198.812 195.888C199.566 195.265 200.597 194.849 201.69 194.855C202.77 194.854 203.951 195.275 204.722 196.21L204.285 196.46C203.983 195.701 203.667 194.904 203.345 194.095C201.498 189.43 199.854 185.198 198.688 182.126C198.141 180.656 197.686 179.431 197.331 178.478C197.022 177.613 196.867 177.129 196.901 177.116C196.933 177.104 197.152 177.565 197.519 178.408C197.913 179.346 198.42 180.552 199.029 181.999C200.283 185.038 201.981 189.251 203.829 193.914C204.148 194.725 204.462 195.522 204.762 196.281L205.365 197.81L204.325 196.532C203.676 195.736 202.655 195.353 201.687 195.344C200.708 195.332 199.795 195.683 199.093 196.244C197.679 197.373 196.986 199.003 196.762 200.319C196.576 201.673 196.768 202.802 196.819 203.569C196.89 204.34 196.896 204.768 196.864 204.77Z" fill="#263238"/>
<path d="M215.225 207.225C215.367 207.205 217.602 222.256 220.222 240.838C222.839 259.426 224.848 274.506 224.707 274.525C224.566 274.546 222.33 259.498 219.71 240.909C217.094 222.328 215.083 207.244 215.225 207.225Z" fill="#263238"/>
<g opacity="0.3">
<path d="M161.798 195.358C161.919 199.2 162.761 203.017 164.264 206.537C165.341 205.206 166.537 203.798 168.176 203.405C170.222 202.916 172.289 204.18 173.767 205.716C173.453 204.185 172.936 202.662 171.982 201.444C171.026 200.227 169.576 199.352 168.058 199.394C166.538 199.435 165.026 200.548 164.753 202.087L161.916 195.422" fill="black"/>
</g>
<path d="M145.079 206.237C144.983 206.236 145.016 205.2 144.716 203.582C144.42 201.969 143.699 199.78 142.308 197.694C141.608 196.659 140.822 195.76 140.046 195.004C139.246 194.276 138.479 193.664 137.777 193.238C136.387 192.36 135.406 192.023 135.44 191.933C135.451 191.899 135.702 191.961 136.15 192.106C136.376 192.172 136.647 192.271 136.948 192.417C137.251 192.556 137.606 192.703 137.964 192.925C138.711 193.322 139.525 193.922 140.369 194.656C141.189 195.415 142.013 196.337 142.737 197.408C144.176 199.565 144.868 201.856 145.076 203.524C145.181 204.36 145.211 205.043 145.172 205.512C145.146 205.981 145.115 206.238 145.079 206.237Z" fill="#263238"/>
<path d="M202.54 135.585C201.368 124.593 191.949 116.348 180.899 116.632L179.801 116.66C167.976 117.657 162.217 128.255 163.54 140.047L166.784 181.522L168.158 183.208C174.515 191.012 185.327 193.56 194.498 189.417L193.589 176.074C193.589 176.074 204.93 174.011 204.777 162.625C204.703 157.126 203.629 145.811 202.54 135.585Z" fill="#FFBE9D"/>
<path d="M193.677 176.056C193.677 176.056 186.42 176.68 178.651 172.075C178.651 172.075 182.37 180.176 193.7 178.858L193.677 176.056Z" fill="#EB996E"/>
<path d="M198.94 145.002C198.993 145.859 198.31 146.61 197.415 146.682C196.522 146.753 195.755 146.117 195.702 145.259C195.65 144.402 196.333 143.649 197.226 143.579C198.12 143.507 198.889 144.144 198.94 145.002Z" fill="#263238"/>
<path d="M199.664 138.813C199.535 139.013 198.243 139.149 196.706 139.983C195.164 140.801 194.241 141.853 194.025 141.838C193.921 141.835 194.014 141.55 194.412 141.084C194.804 140.624 195.538 139.985 196.499 139.471C197.458 138.957 198.357 138.718 198.914 138.67C199.482 138.616 199.729 138.718 199.664 138.813Z" fill="#263238"/>
<path d="M182.509 145.866C182.562 146.723 181.879 147.474 180.984 147.546C180.092 147.617 179.323 146.98 179.271 146.123C179.218 145.266 179.902 144.513 180.794 144.442C181.689 144.37 182.458 145.006 182.509 145.866Z" fill="#263238"/>
<path d="M182.26 141.207C182.032 141.257 180.972 140.54 179.275 140.122C177.583 139.693 176.203 139.801 176.05 139.657C175.974 139.59 176.228 139.463 176.834 139.409C177.429 139.354 178.399 139.396 179.455 139.661C180.511 139.925 181.34 140.33 181.79 140.647C182.249 140.964 182.368 141.186 182.26 141.207Z" fill="#263238"/>
<path d="M189.122 154.8C189.111 154.701 190.194 154.485 191.95 154.215C192.395 154.157 192.815 154.057 192.883 153.749C192.979 153.425 192.78 152.948 192.551 152.434C192.103 151.364 191.635 150.242 191.143 149.067C189.184 144.272 187.754 140.325 187.947 140.247C188.141 140.17 189.887 143.994 191.845 148.789C192.317 149.972 192.768 151.099 193.198 152.178C193.38 152.681 193.686 153.249 193.475 153.924C193.363 154.261 193.042 154.513 192.758 154.597C192.473 154.692 192.222 154.703 192.001 154.721C190.231 154.862 189.131 154.899 189.122 154.8Z" fill="#263238"/>
<path d="M182.285 134.447C182.09 134.915 180.356 134.605 178.294 134.752C176.227 134.858 174.545 135.378 174.294 134.938C174.183 134.729 174.493 134.296 175.184 133.868C175.869 133.441 176.947 133.056 178.185 132.979C179.422 132.904 180.539 133.154 181.271 133.494C182.01 133.834 182.37 134.226 182.285 134.447Z" fill="#263238"/>
<path d="M199.62 134.836C199.24 135.237 197.733 134.84 195.926 134.839C194.119 134.788 192.591 135.141 192.236 134.728C192.078 134.528 192.316 134.127 192.98 133.744C193.636 133.363 194.735 133.045 195.976 133.063C197.218 133.082 198.298 133.431 198.931 133.831C199.574 134.233 199.787 134.641 199.62 134.836Z" fill="#263238"/>
<path d="M205.859 125.517C205.641 124.483 204.625 123.61 203.578 123.765C204.137 123.567 204.71 123.359 205.148 122.965C205.59 122.571 205.873 121.941 205.687 121.378C205.395 120.498 204.269 120.317 203.376 120.064C202.212 119.734 201.159 119.03 200.407 118.082C199.324 116.716 198.907 114.937 197.974 113.465C196.764 111.56 194.661 110.25 192.418 110.002C190.175 109.755 187.836 110.577 186.241 112.173C184.502 110.387 181.88 109.506 179.414 109.882C176.95 110.257 174.708 111.88 173.58 114.102C170.56 112.846 166.873 113.364 164.317 115.407C161.762 117.449 160.442 120.93 161.002 124.154L168.092 128.499C168.207 126.308 170.652 124.567 172.761 125.177C174.901 125.796 176.269 128.273 178.491 128.442C180.22 128.573 181.691 127.232 183.368 126.784C185.4 126.238 187.546 127.053 189.38 128.087C191.214 129.12 192.957 130.404 194.997 130.92C197.389 131.524 199.938 130.994 202.219 130.06C203.197 129.66 204.166 129.171 204.893 128.405C205.622 127.64 206.077 126.55 205.859 125.517Z" fill="#263238"/>
<path d="M169.324 125.157L201.791 124.972C200.72 122.761 198.869 121.019 196.871 119.589C192.566 116.508 187.327 114.655 182.032 114.71C176.738 114.764 166.145 121.508 162.413 125.264C159.426 128.27 159.515 130.795 159.515 130.795C159.145 135.015 161.631 139.733 162.683 143.837C163.224 145.955 164.336 152.374 164.336 152.374H164.337C166.125 152.318 166.749 150.876 166.429 149.117L165.901 142.192C165.901 142.192 171.862 137.701 168.761 129.872C168.281 129.255 167.215 126.394 169.324 125.157Z" fill="#263238"/>
<path d="M165.395 141.731C163.743 135.98 162.225 129.82 163.982 124.101C163.661 124.088 163.339 124.074 163.017 124.061L162.616 124.354C160.8 123.743 158.627 124.435 157.498 125.984C156.37 127.531 156.376 129.813 157.512 131.356C155.59 131.265 153.743 132.873 153.568 134.791C153.447 136.114 154.022 137.393 154.612 138.584C155.203 139.774 155.838 141.008 155.846 142.337C155.855 143.665 155.004 145.109 153.685 145.266C154.276 146.628 155.927 147.43 157.363 147.053C156.906 148.177 156.123 149.166 155.133 149.865C157.248 151.306 160.151 150.814 162.451 149.694C163.816 149.03 165.156 148.082 165.713 146.67C166.331 145.106 165.86 143.347 165.395 141.731Z" fill="#263238"/>
<path d="M164.865 148.429C164.669 148.35 156.985 146.317 157.433 154.092C157.881 161.867 165.595 159.813 165.595 159.589C165.597 159.365 164.865 148.429 164.865 148.429Z" fill="#FFBE9D"/>
<path d="M163.736 156.762C163.7 156.739 163.606 156.865 163.382 156.982C163.166 157.097 162.785 157.19 162.372 157.062C161.533 156.807 160.766 155.544 160.647 154.144C160.587 153.438 160.697 152.755 160.914 152.183C161.119 151.601 161.464 151.182 161.874 151.085C162.28 150.966 162.586 151.196 162.694 151.41C162.811 151.622 162.771 151.779 162.812 151.791C162.835 151.809 162.972 151.65 162.89 151.334C162.85 151.18 162.748 151.002 162.557 150.863C162.361 150.723 162.083 150.66 161.796 150.709C161.198 150.785 160.692 151.367 160.451 151.996C160.178 152.628 160.038 153.397 160.107 154.19C160.247 155.754 161.133 157.174 162.276 157.434C162.831 157.545 163.277 157.354 163.503 157.156C163.733 156.95 163.764 156.775 163.736 156.762Z" fill="#EB996E"/>
<path d="M156.791 141.981C156.769 141.997 156.573 141.688 156.648 141.076C156.721 140.481 157.151 139.62 158.102 139.051C159.042 138.477 160.342 138.337 161.664 138.189C162.972 138.048 164.465 137.676 165.213 136.388C165.961 135.131 165.981 133.594 165.822 132.306C165.637 131 165.29 129.814 165.121 128.793C164.709 126.735 165.103 125.422 165.173 125.458C165.266 125.471 165.035 126.732 165.54 128.707C165.759 129.7 166.145 130.852 166.375 132.228C166.567 133.583 166.596 135.229 165.73 136.704C165.297 137.429 164.607 137.981 163.876 138.272C163.145 138.569 162.408 138.671 161.728 138.744C160.369 138.863 159.173 138.959 158.31 139.425C157.456 139.875 157.009 140.607 156.879 141.123C156.743 141.651 156.845 141.97 156.791 141.981Z" fill="#455A64"/>
<path d="M154.915 138.589C154.884 138.601 154.743 138.368 154.674 137.887C154.611 137.413 154.646 136.672 155.061 135.887C155.268 135.498 155.571 135.105 155.986 134.776C156.394 134.435 156.95 134.225 157.478 134.08C158.007 133.926 158.558 133.789 158.955 133.474C159.35 133.162 159.528 132.647 159.54 132.05C159.563 131.457 159.473 130.833 159.487 130.209C159.495 129.591 159.569 128.997 159.685 128.444C159.928 127.333 160.33 126.396 160.801 125.664C161.27 124.912 162.02 124.543 162.523 124.57C163.038 124.575 163.253 124.807 163.23 124.827C163.209 124.874 162.97 124.738 162.541 124.806C162.11 124.859 161.547 125.195 161.163 125.893C160.779 126.585 160.429 127.509 160.234 128.553C160.138 129.077 160.081 129.635 160.08 130.213C160.072 130.786 160.169 131.396 160.146 132.072C160.143 132.732 159.9 133.507 159.324 133.939C158.762 134.362 158.145 134.475 157.627 134.618C156.562 134.826 155.85 135.419 155.433 136.099C154.609 137.492 155.031 138.594 154.915 138.589Z" fill="#455A64"/>
<path d="M200.414 118.089C200.462 118.1 199.827 118.512 198.806 118.033C198.308 117.811 197.816 117.343 197.339 116.783C196.863 116.215 196.321 115.61 195.533 115.181C194.015 114.318 191.557 114.094 189.67 115.57C188.708 116.267 187.857 117.241 186.739 118.056C186.18 118.456 185.53 118.812 184.793 118.955C184.056 119.1 183.274 118.997 182.579 118.746C181.177 118.242 180.072 117.384 178.862 116.944C177.657 116.478 176.402 116.272 175.211 116.288C172.813 116.293 170.739 117.197 169.322 118.313C167.882 119.428 167.039 120.684 166.542 121.571C166.058 122.474 165.883 123.023 165.833 123.007C165.813 123 165.839 122.858 165.91 122.592C165.983 122.327 166.118 121.944 166.331 121.465C166.775 120.524 167.588 119.185 169.056 117.978C170.495 116.769 172.672 115.765 175.203 115.729C176.459 115.697 177.79 115.903 179.075 116.39C180.379 116.864 181.508 117.726 182.779 118.173C183.411 118.4 184.06 118.482 184.681 118.363C185.301 118.245 185.873 117.941 186.395 117.573C187.44 116.825 188.311 115.851 189.342 115.118C190.36 114.351 191.61 113.98 192.74 113.994C193.878 113.999 194.92 114.321 195.747 114.81C196.586 115.297 197.16 115.992 197.599 116.565C198.05 117.141 198.474 117.589 198.915 117.823C199.81 118.326 200.417 118.03 200.414 118.089Z" fill="#455A64"/>
<path d="M184.799 156.838C185.045 156.782 185.329 158.444 186.95 159.383C188.57 160.329 190.31 159.844 190.363 160.073C190.403 160.174 190.022 160.463 189.278 160.609C188.549 160.757 187.437 160.702 186.445 160.127C185.455 159.55 184.92 158.648 184.748 157.975C184.567 157.29 184.683 156.846 184.799 156.838Z" fill="#263238"/>
<path d="M287.252 311.521C284.309 308.901 280.248 307.682 276.313 307.911L269.625 329.172C274.527 329.389 279.419 331.918 284.151 330.621C287.952 329.58 290.834 326.011 291.362 322.106C291.891 318.201 290.195 314.142 287.252 311.521Z" fill="#F9B935"/>
<path d="M276.433 307.412C276.447 307.24 277.158 307.106 278.46 307.12C279.752 307.156 281.669 307.304 283.935 308.151C286.208 308.994 288.686 310.713 290.602 313.33C291.561 314.637 292.364 316.193 292.827 317.941C293.297 319.685 293.382 321.629 292.992 323.518C292.604 325.408 291.775 327.183 290.56 328.594C289.346 330.017 287.79 331.003 286.244 331.586C283.123 332.759 280.123 332.571 277.829 332.131C275.51 331.675 273.767 330.998 272.583 330.502C271.405 329.994 270.788 329.62 270.838 329.451C270.89 329.279 271.612 329.33 272.866 329.54C274.12 329.738 275.906 330.128 278.083 330.326C280.241 330.52 282.857 330.454 285.354 329.386C286.587 328.855 287.738 328.057 288.626 326.972C289.522 325.885 290.16 324.5 290.467 323C291.106 319.977 290.194 316.965 288.656 314.69C287.116 312.388 285.099 310.749 283.205 309.822C281.293 308.867 279.531 308.444 278.324 308.113C277.109 307.801 276.418 307.594 276.433 307.412Z" fill="#F5F5F5"/>
<path d="M214.438 387.16L199.884 427.936L250.52 446.301C251.98 441.357 229.305 422.144 229.305 422.144L239.702 396.401L214.438 387.16Z" fill="#F9B935"/>
<g opacity="0.6">
<path d="M214.444 414.27C213.365 414.183 212.288 415.039 212.157 416.111C212.026 417.184 212.887 418.287 213.962 418.393C215.039 418.499 216.361 417.511 216.373 416.432C216.385 415.35 215.301 414.111 214.232 414.266" fill="white"/>
</g>
<path d="M199.883 427.936L201.352 423.822L249.452 443.01C249.452 443.01 251.352 444.806 250.52 446.303L199.883 427.936Z" fill="white"/>
<path d="M230.22 422.184C230.12 422.428 228.844 422.092 227.34 422.447C225.825 422.76 224.809 423.605 224.618 423.423C224.408 423.292 225.312 421.949 227.142 421.551C228.967 421.14 230.355 421.976 230.22 422.184Z" fill="#263238"/>
<path d="M234.734 426.306C234.705 426.568 233.479 426.599 232.261 427.341C231.021 428.047 230.398 429.099 230.157 429.001C229.91 428.956 230.263 427.445 231.796 426.551C233.322 425.645 234.815 426.07 234.734 426.306Z" fill="#263238"/>
<path d="M235.446 433.758C235.202 433.731 235.305 432.37 236.431 431.246C237.551 430.113 238.91 430.002 238.939 430.246C239.005 430.5 237.991 430.955 237.08 431.891C236.149 432.806 235.701 433.823 235.446 433.758Z" fill="#263238"/>
<path d="M231.939 416.054C231.753 416.242 230.743 415.491 229.311 415.079C227.887 414.637 226.629 414.713 226.578 414.454C226.5 414.223 227.893 413.692 229.572 414.201C231.256 414.697 232.13 415.906 231.939 416.054Z" fill="#263238"/>
<path d="M232.912 409.609C232.877 409.712 231.844 409.51 230.378 408.677C229.652 408.261 228.828 407.674 228.022 406.899C227.619 406.51 227.222 406.079 226.846 405.598C226.666 405.364 226.446 405.112 226.296 404.723C226.115 404.367 226.198 403.654 226.66 403.367C227.061 403.072 227.58 403.072 227.948 403.196C228.327 403.319 228.6 403.504 228.852 403.671C229.368 404.014 229.827 404.392 230.234 404.784C231.04 405.575 231.624 406.415 232.015 407.167C232.796 408.681 232.86 409.751 232.76 409.766C232.618 409.808 232.327 408.827 231.456 407.494C231.023 406.831 230.429 406.094 229.659 405.4C229.269 405.055 228.84 404.722 228.364 404.424C227.88 404.088 227.425 403.919 227.199 404.108C227.116 404.181 227.097 404.214 227.153 404.413C227.216 404.599 227.382 404.819 227.558 405.052C227.9 405.505 228.259 405.923 228.619 406.303C229.343 407.062 230.08 407.668 230.731 408.132C232.034 409.063 232.964 409.476 232.912 409.609Z" fill="#263238"/>
<path d="M232.462 409.847C232.359 409.853 232.191 408.791 232.681 407.154C232.927 406.345 233.358 405.413 234.034 404.504C234.374 404.051 234.774 403.608 235.238 403.198C235.717 402.806 236.322 402.267 237.32 402.504C237.829 402.667 238.103 403.21 238.124 403.597C238.168 404 238.094 404.306 238.047 404.621C237.926 405.246 237.705 405.823 237.429 406.329C236.879 407.35 236.113 408.087 235.396 408.556C233.93 409.509 232.791 409.431 232.801 409.339C232.764 409.186 233.799 409.021 235.012 408.034C235.611 407.549 236.239 406.85 236.68 405.943C236.899 405.493 237.072 404.993 237.165 404.461C237.28 403.894 237.235 403.387 237.016 403.368C236.765 403.273 236.19 403.523 235.827 403.879C235.402 404.238 235.027 404.629 234.7 405.025C234.05 405.825 233.595 406.652 233.291 407.377C232.681 408.837 232.609 409.859 232.462 409.847Z" fill="#263238"/>
<path d="M165.374 278.254C157.693 278.434 150.407 279.517 145.116 285.089C138.099 292.479 129.422 303.005 128.929 310.305C128.193 321.216 134.775 324.459 139.581 327.119C141.707 328.295 144.13 328.827 146.558 328.733L235.341 328.059L238.127 313.02L180.706 298.868L183.091 277.257L165.374 278.254Z" fill="#263238"/>
<path d="M183.091 277.257L211.02 275.97C211.02 275.97 259.267 278.652 269.558 288.086C279.85 297.52 278.565 308.239 275.134 318.531C271.703 328.823 241.472 394.643 241.472 394.643C241.472 394.643 243.925 398.828 242.545 403.006C240.41 409.473 234.659 410.514 234.659 410.514L207.811 400.648C207.811 400.648 204.166 399.36 206.739 395.929C209.313 392.499 211.027 391.856 211.027 391.856V384.995C211.027 384.995 220.462 367.843 221.319 365.484C222.176 363.126 231.219 328.217 231.219 328.217L237.223 317.894C237.223 317.894 222.697 311.064 210.108 306.113L180.706 298.868L183.091 277.257Z" fill="#263238"/>
<path d="M228.391 399.404C228.337 399.468 227.491 398.801 226.036 397.86C224.582 396.917 222.486 395.75 220.022 394.808C217.554 393.874 215.21 393.355 213.499 393.094C211.787 392.829 210.71 392.767 210.713 392.683C210.713 392.625 211.798 392.557 213.546 392.733C215.291 392.905 217.691 393.375 220.205 394.326C222.716 395.285 224.823 396.528 226.242 397.56C227.663 398.589 228.43 399.36 228.391 399.404Z" fill="#455A64"/>
<path d="M241.811 394.691C241.755 394.734 241.157 394.112 240.251 393.048C239.346 391.986 238.14 390.477 236.877 388.763C235.614 387.045 234.532 385.445 233.788 384.266C233.042 383.084 232.626 382.327 232.684 382.288C232.746 382.249 233.268 382.934 234.089 384.06C235.026 385.347 236.103 386.825 237.293 388.456C238.495 390.077 239.586 391.544 240.537 392.821C241.365 393.939 241.866 394.644 241.811 394.691Z" fill="#455A64"/>
<path d="M251.65 308.47C251.666 308.553 250.664 308.768 249.106 309.284C247.548 309.798 245.448 310.674 243.325 311.995C241.205 313.321 239.497 314.824 238.351 315.998C237.202 317.171 236.572 317.978 236.502 317.927C236.456 317.894 236.985 317.005 238.085 315.751C239.178 314.493 240.889 312.912 243.053 311.557C245.221 310.209 247.393 309.366 249.001 308.937C250.609 308.5 251.64 308.414 251.65 308.47Z" fill="#455A64"/>
<path d="M224.186 355.08C224.167 355.075 224.207 354.875 224.295 354.5C224.403 354.071 224.539 353.531 224.707 352.865C225.105 351.384 225.649 349.352 226.316 346.872C227.739 341.769 229.675 334.827 231.811 327.16C232.925 323.315 233.882 319.647 234.956 316.327C236.206 313.033 238.182 310.492 240.01 308.614C241.858 306.73 243.585 305.462 244.812 304.658C245.432 304.264 245.917 303.965 246.26 303.786C246.6 303.6 246.78 303.509 246.79 303.524C246.812 303.563 246.117 303.981 244.925 304.823C243.742 305.674 242.063 306.974 240.276 308.867C238.502 310.752 236.591 313.276 235.401 316.492C234.371 319.765 233.415 323.476 232.305 327.307C230.111 334.959 228.126 341.881 226.667 346.974C225.937 349.434 225.338 351.45 224.902 352.919C224.696 353.576 224.529 354.108 224.396 354.529C224.275 354.896 224.203 355.085 224.186 355.08Z" fill="#455A64"/>
<path d="M199.481 304.799C199.339 304.812 198.752 299.588 198.17 293.137C197.587 286.682 197.23 281.44 197.372 281.428C197.513 281.413 198.1 286.635 198.683 293.09C199.265 299.543 199.622 304.785 199.481 304.799Z" fill="#455A64"/>
<path d="M152.996 318.74C152.917 318.778 152.486 317.935 151.612 316.696C150.743 315.457 149.371 313.858 147.556 312.434C145.734 311.016 143.851 310.071 142.438 309.528C141.026 308.98 140.102 308.767 140.12 308.68C140.129 308.626 141.086 308.714 142.561 309.186C144.033 309.651 146.001 310.569 147.874 312.029C149.74 313.491 151.108 315.178 151.916 316.494C152.728 317.811 153.046 318.72 152.996 318.74Z" fill="#455A64"/>
<path d="M170.106 299.783C170.057 299.862 168.873 299.103 166.822 298.17C164.776 297.233 161.815 296.207 158.416 295.713C155.014 295.231 151.885 295.385 149.658 295.708C147.427 296.025 146.078 296.422 146.052 296.332C146.043 296.298 146.371 296.175 146.978 295.981C147.582 295.777 148.479 295.556 149.601 295.348C151.839 294.927 155.028 294.712 158.49 295.203C161.949 295.705 164.947 296.808 166.978 297.842C167.996 298.357 168.795 298.821 169.317 299.186C169.844 299.543 170.126 299.754 170.106 299.783Z" fill="#455A64"/>
<path d="M236.984 313.005C236.979 313.024 236.739 312.984 236.288 312.892C235.787 312.783 235.131 312.641 234.316 312.463C232.549 312.067 230.091 311.514 227.079 310.837C220.967 309.468 212.514 307.633 203.142 305.776C193.767 303.921 185.251 302.397 179.08 301.334C176.037 300.814 173.554 300.386 171.77 300.08C170.948 299.934 170.289 299.815 169.784 299.725C169.331 299.638 169.095 299.583 169.097 299.567C169.1 299.547 169.341 299.569 169.8 299.623C170.307 299.689 170.973 299.775 171.8 299.883C173.537 300.117 176.044 300.489 179.138 300.976C185.329 301.945 193.86 303.415 203.243 305.272C212.621 307.129 221.068 309.023 227.159 310.482C230.206 311.213 232.666 311.824 234.361 312.269C235.167 312.486 235.814 312.658 236.309 312.79C236.756 312.914 236.987 312.989 236.984 313.005Z" fill="#455A64"/>
<path d="M180.706 301.417C180.607 301.446 180.399 300.243 179.477 298.581C179.011 297.756 178.335 296.842 177.446 295.953C176.565 295.058 175.486 294.166 174.337 293.266C172.02 291.49 169.666 290.235 167.978 289.316C166.279 288.406 165.228 287.838 165.261 287.769C165.29 287.708 166.396 288.16 168.142 288.989C169.879 289.83 172.286 291.043 174.652 292.856C175.818 293.77 176.897 294.68 177.788 295.622C178.684 296.555 179.357 297.531 179.799 298.407C180.237 299.288 180.472 300.047 180.592 300.578C180.709 301.111 180.737 301.41 180.706 301.417Z" fill="#455A64"/>
<path d="M279.593 314.842C279.706 314.952 278.22 316.453 277.064 318.737C275.885 321.007 275.529 323.088 275.374 323.059C275.246 323.06 275.38 320.864 276.605 318.5C277.812 316.127 279.518 314.739 279.593 314.842Z" fill="#263238"/>
<g opacity="0.3">
<path d="M216.046 213.387L222.401 258.155L222.717 258.871C224.22 243.468 221.908 227.709 216.046 213.387Z" fill="black"/>
</g>
<path d="M250.272 239.113L229.607 275.257L178.691 276.363L178.564 278.669L227.865 278.302L229.428 278.249L281.489 278.352L292.009 260.208L305.448 240.947C306.331 239.684 305.424 237.952 303.882 237.957L251.915 238.155C251.236 238.16 250.61 238.524 250.272 239.113Z" fill="#E0E0E0"/>
<path d="M292.01 260.208C292.01 260.208 294.684 262.661 294.262 264.743C293.84 266.826 293.981 268.375 292.01 268.517C292.01 268.517 292.152 271.192 289.335 271.615C289.335 271.615 289.937 274.88 286.137 275.444C286.137 275.444 284.971 278.935 282.577 278.091C280.183 277.246 278.634 276.26 278.634 276.26L277.93 274.995C277.93 274.995 274.403 273.668 275.273 271.675C275.799 270.467 277.624 270.153 277.624 270.153C277.624 270.153 276.864 268.38 277.849 267.056C278.695 265.921 281.449 266.86 281.449 266.86C281.449 266.86 281.286 265.393 282.321 264.164C283.257 263.053 287.642 266.075 287.642 266.075L290.032 263.218L292.01 260.208Z" fill="#FFBE9D"/>
<path d="M286.137 275.443C286.062 275.564 284.094 274.477 281.743 273.018C279.392 271.556 277.547 270.275 277.622 270.153C277.697 270.031 279.664 271.118 282.015 272.578C284.367 274.04 286.21 275.323 286.137 275.443Z" fill="#EB996E"/>
<path d="M289.334 271.614C289.261 271.735 287.435 270.769 285.258 269.457C283.08 268.144 281.374 266.981 281.446 266.859C281.519 266.737 283.344 267.704 285.523 269.016C287.702 270.329 289.408 271.492 289.334 271.614Z" fill="#EB996E"/>
<path d="M284.977 264.446C285.056 264.302 286.688 265.163 288.59 266.365C290.493 267.58 292.028 268.524 291.991 268.621C291.92 268.79 290.22 268.017 288.318 266.802C286.407 265.595 284.919 264.552 284.977 264.446Z" fill="#EB996E"/>
<path d="M305.456 239.328C305.456 239.338 305.372 239.347 305.208 239.354C305.013 239.361 304.772 239.37 304.477 239.381C303.792 239.392 302.854 239.408 301.666 239.429C299.18 239.448 295.659 239.476 291.327 239.511C282.561 239.53 270.519 239.556 257.218 239.587C256.385 239.586 255.558 239.586 254.736 239.586C253.955 239.524 253.247 239.869 252.842 240.479C252.058 241.891 251.286 243.283 250.528 244.653C249.006 247.398 247.538 250.048 246.139 252.573C243.336 257.611 240.809 262.148 238.681 265.972C236.557 269.749 234.832 272.817 233.615 274.985C233.023 276.015 232.555 276.827 232.215 277.421C232.062 277.675 231.939 277.881 231.84 278.048C231.752 278.189 231.704 278.258 231.695 278.253C231.687 278.249 231.721 278.171 231.793 278.022C231.882 277.848 231.99 277.634 232.125 277.372C232.444 276.766 232.883 275.937 233.44 274.886C234.622 272.7 236.3 269.604 238.364 265.794C240.466 261.954 242.958 257.397 245.726 252.342C247.115 249.81 248.576 247.156 250.087 244.404C250.85 243.024 251.628 241.62 252.416 240.197C252.895 239.429 253.872 238.995 254.737 239.07C255.559 239.07 256.386 239.069 257.219 239.069C270.521 239.1 282.562 239.125 291.328 239.144C295.66 239.18 299.182 239.207 301.667 239.226C302.855 239.247 303.792 239.264 304.478 239.275C304.774 239.286 305.014 239.296 305.209 239.302C305.372 239.311 305.456 239.319 305.456 239.328Z" fill="#263238"/>
<path d="M268.821 257.498C267.899 258.516 267.879 259.995 268.77 260.801C269.664 261.606 271.135 261.435 272.053 260.413C272.972 259.394 272.995 257.915 272.101 257.11C271.21 256.305 269.74 256.479 268.821 257.498Z" fill="white"/>
<g opacity="0.3">
<path d="M124.29 243.52C123.848 243.699 123.345 243.994 123.341 244.467C123.336 244.855 123.696 245.163 124.072 245.245C124.449 245.326 125.81 244.762 126.187 244.678C131.538 243.498 135.95 244.629 141.05 246.635L141.216 246.465C139.181 242.17 130.046 241.201 124.29 243.52Z" fill="black"/>
</g>
<path d="M400.128 444.475C400.128 444.619 310.578 444.733 200.137 444.733C89.659 444.733 0.12793 444.619 0.12793 444.475C0.12793 444.332 89.659 444.217 200.137 444.217C310.578 444.217 400.128 444.332 400.128 444.475Z" fill="#263238"/>
<path d="M96.5919 128.914C96.7631 129.085 129.637 117.786 129.637 117.786L116.997 88.7769L87.7334 99.9648L103.831 109.214L96.5919 128.914Z" fill="#455A64"/>
<path d="M112.013 97.5177V58.0189C112.013 58.0189 157.364 49.7287 190.037 50.2168C222.707 50.7039 256.356 56.0676 256.356 56.0676V93.9884C256.356 93.9884 153.95 84.8398 112.013 97.5177Z" fill="#455A64"/>
<path d="M111.777 97.5522L129.638 117.957V93.9893C129.638 93.9893 114.699 95.7752 111.777 97.5522Z" fill="#263238"/>
<path d="M112.013 58.0181C112.156 58.0191 112.218 66.8696 112.154 77.7843C112.088 88.7039 111.92 97.5515 111.777 97.5505C111.635 97.5495 111.572 88.7009 111.638 77.7813C111.703 66.8666 111.87 58.0171 112.013 58.0181Z" fill="#263238"/>
<path d="M271.727 125.885C271.555 126.056 238.682 114.755 238.682 114.755L251.322 85.7476L280.585 96.9355L264.488 106.185L271.727 125.885Z" fill="#455A64"/>
<path d="M256.542 94.5221L238.682 114.928V92.6926C244.636 92.8926 250.589 93.5015 256.542 94.5221Z" fill="#263238"/>
<path d="M256.356 56.0706C256.499 56.0696 256.655 64.6776 256.707 75.2943C256.758 85.9149 256.686 94.5229 256.541 94.5239C256.4 94.5239 256.243 85.9179 256.191 75.2972C256.138 64.6805 256.212 56.0706 256.356 56.0706Z" fill="#263238"/>
<path d="M137.589 75.3389C137.152 72.1897 139.258 69.6009 142.511 69.1495C144.317 68.899 145.916 69.3465 147.066 70.4048L145.713 72.0521C144.899 71.3433 143.96 71.0483 142.916 71.1928C140.961 71.4641 139.763 73.0293 140.036 74.9993C140.309 76.9694 141.888 78.1505 143.843 77.8792C144.888 77.7337 145.711 77.1942 146.298 76.2764L148.049 77.4931C147.231 78.8395 145.816 79.7048 143.994 79.9572C140.756 80.4067 138.025 78.4881 137.589 75.3389Z" fill="white"/>
<path d="M148.394 73.8509C148.074 70.7344 150.264 68.1762 153.576 67.8357C156.873 67.4971 159.551 69.5385 159.872 72.6708C160.195 75.8022 157.988 78.3464 154.692 78.685C151.379 79.0246 148.713 76.9674 148.394 73.8509ZM157.414 72.9233C157.209 70.9304 155.661 69.7107 153.787 69.9038C151.914 70.0968 150.646 71.6046 150.851 73.5984C151.055 75.5913 152.605 76.81 154.478 76.6169C156.352 76.4249 157.62 74.9161 157.414 72.9233Z" fill="white"/>
<path d="M171.725 77.1493L171.304 70.8381L168.542 76.2376L167.445 76.3078L164.036 71.44L164.435 77.6186L162.15 77.7651L161.474 67.2435L163.488 67.1138L167.847 73.3993L171.304 66.6109L173.303 66.4832L174.009 77.0018L171.725 77.1493Z" fill="white"/>
<path d="M185.354 69.9461C185.42 72.2954 183.698 73.8061 180.882 73.8853L178.758 73.9447L178.84 76.8513L176.4 76.9197L176.104 66.3772L180.668 66.2495C183.483 66.1703 185.287 67.582 185.354 69.9461ZM182.883 70.0154C182.851 68.8561 182.079 68.1998 180.588 68.2414L178.6 68.2968L178.703 71.9568L180.691 71.9004C182.182 71.8588 182.915 71.1599 182.883 70.0154Z" fill="white"/>
<path d="M187.207 66.115H189.646V74.6695H194.933V76.6574H187.207V66.115Z" fill="white"/>
<path d="M204.439 74.9673L204.382 76.9255L196.219 76.688L196.526 66.1455L204.493 66.3772L204.437 68.3354L198.894 68.174L198.827 70.4629L203.722 70.6054L203.667 72.5032L198.772 72.3607L198.701 74.801L204.439 74.9673Z" fill="white"/>
<path d="M208.947 68.6195L205.581 68.4166L205.7 66.4326L214.869 66.985L214.749 68.97L211.382 68.766L210.867 77.3037L208.432 77.1572L208.947 68.6195Z" fill="white"/>
<path d="M223.749 76.4121L223.568 78.3624L215.438 77.609L216.411 67.1091L224.347 67.8437L224.166 69.794L218.646 69.2822L218.435 71.5621L223.309 72.0146L223.134 73.9044L218.259 73.452L218.035 75.8825L223.749 76.4121Z" fill="white"/>
<path d="M226.797 68.1079L231.543 68.7415C234.961 69.1979 237.029 71.5709 236.606 74.7349C236.182 77.8989 233.566 79.6453 230.147 79.1889L225.401 78.5543L226.797 68.1079ZM230.293 77.1881C232.368 77.4653 233.892 76.408 234.157 74.4082C234.425 72.4075 233.232 70.9878 231.158 70.7106L228.95 70.4156L228.085 76.8931L230.293 77.1881Z" fill="white"/>
<path d="M276.648 59.6623L279.235 62.7055L286.539 59.6623L284.41 56.4656L276.648 59.6623Z" fill="#455A64"/>
<path d="M273.3 45.2045C273.3 47.3062 271.596 49.009 269.494 49.009C267.393 49.009 265.689 47.3062 265.689 45.2045C265.689 43.1037 267.393 41.3999 269.494 41.3999C271.596 41.3999 273.3 43.1037 273.3 45.2045Z" fill="#F9B935"/>
<path d="M188.139 101.907C188.139 102.958 187.287 103.809 186.237 103.809C185.185 103.809 184.334 102.958 184.334 101.907C184.334 100.857 185.185 100.006 186.237 100.006C187.287 100.006 188.139 100.857 188.139 101.907Z" fill="#F9B935"/>
<path d="M99.5802 73.3382C99.5802 74.1351 98.9337 74.7816 98.1368 74.7816C97.3398 74.7816 96.6934 74.1351 96.6934 73.3382C96.6934 72.5412 97.3398 71.8948 98.1368 71.8948C98.9337 71.8948 99.5802 72.5412 99.5802 73.3382Z" fill="#F9B935"/>
<path d="M94.2158 57.4252L98.4768 57.6846L100.499 49.3152L96.5205 49.4775L94.2158 57.4252Z" fill="#455A64"/>
<path d="M227.275 124.28L228.706 128.301L237.199 126.879L235.491 123.283L227.275 124.28Z" fill="#F9B935"/>
<path d="M141.358 101.089L138.735 104.456L144.493 110.858L146.609 107.485L141.358 101.089Z" fill="#455A64"/>
<path d="M131.189 22.012L141.247 32.2653L155.396 26.9184L155.955 30.4279L149.827 42.9771L155.476 52.3444L155.002 55.1391L141.311 52.8354L133.219 61.7206L131.317 60.2762L129.64 48.9804L116.868 42.3296L116.309 39.7526L129.168 36.2312L131.189 22.012Z" fill="#F9B935"/>
<g opacity="0.3">
<path d="M131.189 22.012L141.247 32.2653L155.396 26.9184L155.955 30.4279L149.827 42.9771L155.476 52.3444L155.002 55.1391L141.311 52.8354L133.219 61.7206L131.317 60.2762L129.64 48.9804L116.868 42.3296L116.309 39.7526L129.168 36.2312L131.189 22.012Z" fill="black"/>
</g>
<path d="M131.189 19.137L141.247 29.3903L155.396 26.9183L148.752 39.6516L155.476 52.3443L141.311 49.9604L131.317 60.2761L129.208 46.0688L116.309 39.7536L129.168 33.3562L131.189 19.137Z" fill="#F9B935"/>
<path d="M235.388 22.012L225.331 32.2653L211.182 26.9184L210.623 30.4279L216.751 42.9771L211.103 52.3444L211.576 55.1391L225.266 52.8354L233.359 61.7206L235.259 60.2762L236.937 48.9804L249.71 42.3296L250.268 39.7526L237.409 36.2312L235.388 22.012Z" fill="#F9B935"/>
<g opacity="0.3">
<path d="M235.388 22.012L225.331 32.2653L211.182 26.9184L210.623 30.4279L216.751 42.9771L211.103 52.3444L211.576 55.1391L225.266 52.8354L233.359 61.7206L235.259 60.2762L236.937 48.9804L249.71 42.3296L250.268 39.7526L237.409 36.2312L235.388 22.012Z" fill="black"/>
</g>
<path d="M235.388 19.137L225.331 29.3903L211.182 26.9183L217.826 39.6516L211.103 52.3443L225.265 49.9604L235.258 60.2761L237.369 46.0688L250.268 39.7536L237.409 33.3562L235.388 19.137Z" fill="#F9B935"/>
<path d="M182.958 4.02856L191.324 20.3694L210.624 19.2349L209.968 23.7294L197.713 36.7063L201.035 50.286L199.392 53.5174L183.567 45.4905L170.308 53.2481L168.54 50.7632L170.797 36.342L157.745 23.3631L158.045 20.0061L175.076 20.608L182.958 4.02856Z" fill="#F9B935"/>
<g opacity="0.3">
<path d="M182.958 4.02856L191.324 20.3694L210.624 19.2349L209.968 23.7294L197.713 36.7063L201.035 50.286L199.392 53.5174L183.567 45.4905L170.308 53.2481L168.54 50.7632L170.797 36.342L157.745 23.3631L158.045 20.0061L175.076 20.608L182.958 4.02856Z" fill="black"/>
</g>
<path d="M184.054 0.520996L192.419 16.8608L210.622 19.2339L197.666 32.2404L201.034 50.286L184.661 41.9819L168.539 50.7632L171.378 32.6255L158.045 20.0051L176.171 17.0994L184.054 0.520996Z" fill="#F9B935"/>
<path d="M217.383 147.153L231.366 148.693C234.73 143.902 239.42 139.951 245.193 137.467C261.794 130.322 281.044 137.989 288.188 154.59C295.333 171.191 287.667 190.441 271.066 197.586C254.464 204.731 235.215 197.065 228.069 180.462C225.085 173.531 224.694 166.139 226.446 159.358L226.436 159.373L217.383 147.153Z" fill="#FAFAFA"/>
<path d="M217.383 147.153C217.932 147.881 220.757 151.629 226.541 159.297L226.324 159.311L226.335 159.295C226.368 159.233 226.446 159.211 226.51 159.245C226.561 159.275 226.586 159.335 226.571 159.39C225.415 163.912 224.97 169.867 226.789 176.292C227.253 177.884 227.813 179.515 228.597 181.101C228.994 181.889 229.372 182.705 229.803 183.506C230.285 184.277 230.775 185.058 231.271 185.85C233.396 188.924 236.162 191.806 239.54 194.149C242.907 196.493 246.882 198.293 251.214 199.241C255.537 200.186 260.224 200.295 264.835 199.303C269.436 198.305 273.956 196.274 277.874 193.263C281.775 190.251 285.157 186.312 287.33 181.657C289.564 176.932 290.76 171.768 290.575 166.722C290.433 161.678 289.111 156.804 286.908 152.544C284.705 148.284 281.64 144.616 278.061 141.874C274.493 139.115 270.49 137.212 266.469 136.137C262.444 135.056 258.406 134.806 254.651 135.184C250.883 135.576 247.462 136.706 244.404 138.018C238.31 140.815 234.112 145.031 231.467 148.764C231.441 148.802 231.394 148.82 231.352 148.816C222.505 147.763 218.248 147.256 217.383 147.153C218.249 147.24 222.515 147.673 231.379 148.571L231.265 148.622C233.898 144.838 238.107 140.552 244.253 137.695C247.337 136.352 250.795 135.195 254.608 134.784C258.407 134.387 262.499 134.627 266.582 135.711C270.659 136.788 274.724 138.708 278.351 141.501C281.989 144.275 285.105 147.993 287.348 152.315C289.592 156.635 290.939 161.586 291.084 166.709C291.276 171.836 290.064 177.082 287.794 181.881C285.586 186.609 282.15 190.612 278.185 193.668C274.202 196.724 269.613 198.782 264.937 199.789C260.255 200.791 255.497 200.672 251.111 199.704C246.718 198.735 242.693 196.899 239.285 194.513C235.869 192.129 233.076 189.199 230.935 186.079C230.437 185.275 229.944 184.482 229.457 183.7C229.025 182.888 228.647 182.061 228.247 181.261C227.462 179.655 226.901 178.002 226.438 176.39C224.631 169.885 225.12 163.872 226.322 159.325L226.559 159.421L226.55 159.437C226.517 159.498 226.438 159.521 226.377 159.486C226.359 159.478 226.345 159.465 226.334 159.45C220.682 151.685 217.919 147.89 217.383 147.153Z" fill="#263238"/>
<path d="M246.065 155.878C246.074 155.887 246.082 156.04 246.089 156.33C246.096 156.655 246.106 157.074 246.116 157.6C246.128 158.743 246.149 160.343 246.173 162.358C246.202 166.462 246.24 172.25 246.288 179.176L246.064 178.953C252.847 178.943 260.836 178.931 269.359 178.918C269.419 178.863 268.874 179.404 269.103 179.172V179.166V179.154V179.128V179.079V178.979V178.779V178.38V177.585V176.006C269.104 174.956 269.104 173.919 269.105 172.891C269.108 170.835 269.11 168.824 269.112 166.868C269.123 162.958 269.132 159.268 269.139 155.878L269.361 156.102C262.434 156.054 256.646 156.016 252.544 155.988C250.528 155.962 248.929 155.943 247.784 155.93C247.26 155.919 246.84 155.91 246.517 155.903C246.227 155.895 246.074 155.887 246.065 155.878C246.055 155.87 246.195 155.861 246.467 155.853C246.782 155.846 247.187 155.837 247.694 155.828C248.825 155.814 250.407 155.794 252.401 155.769C256.541 155.741 262.376 155.702 269.362 155.655L269.585 155.653L269.586 155.878C269.594 159.268 269.602 162.958 269.611 166.868C269.613 168.824 269.616 170.835 269.619 172.891C269.619 173.919 269.62 174.956 269.62 176.006C269.621 176.529 269.621 177.056 269.621 177.585V178.38V178.779V178.979V179.079V179.128V179.154V179.166V179.172C269.85 178.944 269.308 179.491 269.36 179.434C260.837 179.421 252.847 179.409 246.065 179.399L245.839 179.398L245.841 179.176C245.888 172.191 245.926 166.355 245.955 162.216C245.98 160.222 246 158.638 246.013 157.508C246.025 157 246.033 156.595 246.039 156.282C246.048 156.007 246.056 155.87 246.065 155.878Z" fill="#263238"/>
<path d="M266.849 159.729C267.184 159.994 264.049 164.507 259.849 169.81C259.009 170.867 258.191 171.877 257.432 172.795L256.934 173.397L256.377 172.895C252.737 169.617 250.268 167.101 250.492 166.843C250.716 166.584 253.565 168.661 257.337 171.783L256.281 171.883C257.002 170.934 257.796 169.907 258.637 168.849C262.835 163.547 266.514 159.463 266.849 159.729Z" fill="#F9B935"/>
</svg>
