<svg width="21" height="21" viewBox="0 0 21 21" fill="none" xmlns="http://www.w3.org/2000/svg">
<path d="M1.22878 11.1021H2.22877V18.1021C2.22877 19.2051 3.12576 20.1021 4.22875 20.1021H16.2286C17.3316 20.1021 18.2286 19.2051 18.2286 18.1021V11.1021H19.2286C19.4263 11.1021 19.6196 11.0434 19.7841 10.9335C19.9485 10.8237 20.0766 10.6675 20.1523 10.4848C20.2279 10.3021 20.2477 10.1011 20.2092 9.90712C20.1706 9.71317 20.0754 9.53501 19.9356 9.39516L10.9357 0.395249C10.8429 0.302304 10.7327 0.228567 10.6114 0.178257C10.4901 0.127947 10.36 0.102051 10.2287 0.102051C10.0974 0.102051 9.96732 0.127947 9.846 0.178257C9.72469 0.228567 9.61449 0.302304 9.5217 0.395249L0.521788 9.39516C0.38198 9.53501 0.286774 9.71317 0.248207 9.90712C0.20964 10.1011 0.229443 10.3021 0.305112 10.4848C0.380781 10.6675 0.50892 10.8237 0.673328 10.9335C0.837736 11.0434 1.03103 11.1021 1.22878 11.1021ZM10.2287 2.51623L16.2286 8.51617L16.2296 18.1021H4.22875V8.51617L10.2287 2.51623Z" fill="white"/>
<path d="M10.2287 16.102C13.9317 16.102 15.1297 12.563 15.1787 12.413L13.2787 11.792C13.2707 11.815 12.4977 14.102 10.2287 14.102C7.99073 14.102 7.20874 11.881 7.17774 11.786L5.27876 12.413C5.32776 12.563 6.52574 16.102 10.2287 16.102Z" fill="white"/>
</svg>
