<svg width="357" height="160" viewBox="0 0 357 160" fill="none" xmlns="http://www.w3.org/2000/svg">
<g filter="url(#filter0_d_2927_7640)">
<rect x="11.0981" y="99.8079" width="334.259" height="45.8307" rx="20" fill="white"/>
</g>
<rect x="0.228027" y="0.638428" width="356" height="155" rx="20" fill="#455A64"/>
<mask id="mask0_2927_7640" style="mask-type:alpha" maskUnits="userSpaceOnUse" x="0" y="0" width="357" height="156">
<rect x="0.228027" y="0.638428" width="356" height="155" rx="20" fill="#455A64"/>
</mask>
<g mask="url(#mask0_2927_7640)">
<path d="M51.1219 171.417C52.2459 170.131 53.3831 168.638 54.292 167.079C55.2097 165.525 55.978 163.891 56.6191 162.293C57.9934 159.053 59.0384 155.865 59.596 153.498C60.2854 151.11 60.6191 149.525 60.6191 149.525C60.6191 149.525 58.9067 150.236 56.4391 151.558C55.2228 152.216 53.7475 153.042 52.3118 153.994C50.8628 154.952 49.3568 156.049 47.9034 157.279C44.9923 159.733 42.2086 162.728 40.9309 165.986C40.2503 167.623 39.8595 169.336 39.8683 171.061C39.9166 172.783 40.5094 174.508 41.5368 176.203C45.6817 175.931 48.7728 174.003 51.1219 171.417Z" fill="#F9B935" fill-opacity="0.34"/>
<path d="M45.6818 149.35C46.3492 148.783 46.9903 148.164 47.5962 147.51C48.2241 146.86 48.8388 146.158 49.4052 145.446C50.5424 144.015 51.5567 142.483 52.4304 140.963C52.8739 140.199 53.2691 139.449 53.6643 138.685C54.0726 137.907 54.4502 137.148 54.8015 136.397C55.4952 134.926 56.0748 133.539 56.5358 132.349C57.4227 129.965 57.9365 128.41 57.9365 128.41C57.9365 128.41 56.1889 128.999 53.6818 130.153C51.1878 131.312 47.8948 133.012 44.7378 135.198C43.1659 136.296 41.6116 137.512 40.2373 138.825C38.8981 140.129 37.7082 141.552 36.7817 143.058C35.8641 144.573 35.1791 146.166 34.9464 147.831C34.7576 149.49 34.9596 151.216 35.6577 152.95C39.6665 153.148 42.9727 151.624 45.6818 149.35Z" fill="#F9B935" fill-opacity="0.34"/>
<path d="M33.8922 128.207C37.7253 128.682 41.0886 127.443 43.9646 125.393C45.4091 124.37 46.7132 123.136 47.9295 121.806C49.1852 120.493 50.318 119.079 51.3279 117.656C52.3554 116.247 53.1852 114.789 54.0458 113.498C54.8844 112.194 55.5913 110.974 56.1578 109.924C56.7242 108.879 57.1545 108.001 57.453 107.386C57.756 106.785 57.9272 106.438 57.9272 106.438C57.9272 106.438 57.5057 106.543 56.7373 106.741C55.969 106.934 54.9196 107.259 53.6594 107.689C51.1347 108.554 47.7802 109.885 44.5003 111.716C43.6748 112.172 42.8581 112.664 42.059 113.182C41.2774 113.709 40.5354 114.267 39.8153 114.855C38.3795 116.027 37.0799 117.323 36.0261 118.71C33.8614 121.507 32.9921 124.748 33.8922 128.207Z" fill="#F9B935" fill-opacity="0.34"/>
<path d="M46.7314 99.2288C49.6468 97.5208 52.4789 95.1542 54.7621 92.7524C55.3373 92.1597 55.8642 91.5494 56.3955 90.9566C56.9575 90.3902 57.4844 89.8194 57.9805 89.2662C58.9684 88.1641 59.8071 87.1278 60.5008 86.2321C61.1638 85.3364 61.7654 84.6207 62.1825 84.1158C62.5821 83.6065 62.8104 83.3167 62.8104 83.3167C62.8104 83.3167 61.098 83.4616 58.4855 83.9358C55.8817 84.3968 52.5667 85.2662 49.1331 86.6273C47.4383 87.3035 45.6951 88.107 44.1276 89.0554C42.604 90.017 41.1814 91.1147 39.9871 92.3397C39.39 92.9544 38.8499 93.5998 38.3757 94.2716C37.9015 94.9434 37.4932 95.6459 37.2473 96.388C36.6985 97.8677 36.5009 99.4659 36.7511 101.134C40.3779 101.85 43.7544 100.915 46.7314 99.2288Z" fill="#F9B935" fill-opacity="0.34"/>
<path d="M70.371 63.6324C69.0933 63.6588 67.5785 63.7422 65.9319 63.9003C64.2678 64.0627 62.6037 64.3437 60.8255 64.7301C59.0735 65.1121 57.2821 65.6171 55.5521 66.2669C54.6872 66.5962 53.8398 66.9475 53.0231 67.347C52.2152 67.751 51.5039 68.2032 50.8057 68.695C48.0615 70.6577 45.831 73.2131 45.7344 76.4667C49.0275 77.639 52.3864 77.2219 55.539 76.0978C58.8452 75.0089 61.9144 73.1912 64.6103 71.3119C67.5082 69.4897 69.8441 67.5534 71.6399 66.0957C73.4928 64.6643 74.5861 63.6632 74.5861 63.6632C74.5861 63.6632 72.9352 63.5578 70.371 63.6324Z" fill="#F9B935" fill-opacity="0.34"/>
<path d="M86.7585 44.6684C84.2689 44.4532 80.8441 44.2995 77.3622 44.6201C73.8496 44.9274 70.056 45.6344 66.8727 47.0701C63.8211 48.5498 61.2174 50.6881 60.1592 53.6738C61.5642 54.4818 63.079 54.9077 64.6422 55.0657C66.2448 55.2326 67.9264 55.1272 69.5949 54.8374C71.2678 54.5476 72.9539 54.0778 74.5829 53.485C76.2206 52.8967 77.7793 52.1986 79.4039 51.4916C82.596 50.0734 85.3095 48.462 87.3907 47.237C89.5115 46.0339 90.8112 45.1514 90.8112 45.1514C90.8112 45.1514 89.2436 44.8791 86.7585 44.6684Z" fill="#F9B935" fill-opacity="0.34"/>
<path d="M84.3386 27.1586C81.344 28.5856 78.7754 30.6186 77.6953 33.5033C82.9115 36.6515 90.3934 34.3068 96.3693 31.3387C99.4384 29.8634 102.266 28.2344 104.251 26.9479C106.262 25.6702 107.478 24.7481 107.478 24.7481C107.478 24.7481 101.37 23.9226 94.4637 24.6427C91.0213 25.0028 87.3155 25.7185 84.3386 27.1586Z" fill="#F9B935" fill-opacity="0.34"/>
<path d="M316.58 171.057C316.597 169.332 316.207 167.624 315.522 165.986C314.24 162.724 311.447 159.725 308.558 157.275C307.096 156.045 305.594 154.948 304.145 153.999C302.709 153.042 301.239 152.221 300.018 151.553C297.546 150.232 295.838 149.521 295.838 149.521C295.838 149.521 296.163 151.114 296.861 153.494C297.427 155.861 298.455 159.049 299.842 162.289C300.479 163.892 301.247 165.52 302.169 167.075C303.074 168.629 304.207 170.126 305.335 171.417C307.684 173.999 310.775 175.927 314.925 176.194C315.943 174.504 316.527 172.783 316.58 171.057Z" fill="#F9B935" fill-opacity="0.34"/>
<path d="M321.506 147.835C321.269 146.175 320.588 144.577 319.67 143.062C318.748 141.556 317.554 140.138 316.215 138.834C314.841 137.521 313.282 136.3 311.71 135.203C308.557 133.012 305.269 131.312 302.77 130.153C300.259 128.999 298.516 128.41 298.516 128.41C298.516 128.41 299.029 129.965 299.921 132.353C300.377 133.539 300.952 134.922 301.655 136.406C302.002 137.143 302.38 137.912 302.783 138.685C303.179 139.449 303.574 140.195 304.013 140.963C304.895 142.483 305.905 144.015 307.051 145.446C307.609 146.162 308.224 146.856 308.856 147.519C309.453 148.164 310.094 148.783 310.77 149.354C313.479 151.624 316.781 153.148 320.794 152.955C321.493 151.216 321.695 149.495 321.506 147.835Z" fill="#F9B935" fill-opacity="0.34"/>
<path d="M320.417 118.723C319.359 117.331 318.063 116.041 316.636 114.868C315.912 114.284 315.17 113.722 314.384 113.195C313.589 112.677 312.768 112.19 311.951 111.733C308.667 109.898 305.313 108.563 302.788 107.698C301.528 107.268 300.483 106.947 299.71 106.75C298.937 106.552 298.516 106.447 298.516 106.447C298.516 106.447 298.691 106.794 298.999 107.395C299.284 108.01 299.723 108.884 300.285 109.933C300.856 110.982 301.558 112.203 302.393 113.507C303.258 114.798 304.079 116.256 305.115 117.665C306.129 119.088 307.266 120.502 308.518 121.814C309.734 123.145 311.038 124.379 312.487 125.402C315.359 127.457 318.722 128.69 322.559 128.216C323.46 124.748 322.581 121.507 320.417 118.723Z" fill="#F9B935" fill-opacity="0.34"/>
<path d="M318.077 94.276C317.607 93.5998 317.063 92.9588 316.461 92.3441C315.267 91.119 313.849 90.0214 312.325 89.0598C310.762 88.1114 309.015 87.3079 307.32 86.6317C303.882 85.2749 300.571 84.4012 297.963 83.9401C295.355 83.4703 293.638 83.321 293.638 83.321C293.638 83.321 293.866 83.6108 294.266 84.1202C294.683 84.6251 295.289 85.3452 295.948 86.2453C296.633 87.1366 297.489 88.1685 298.472 89.2749C298.96 89.8238 299.495 90.3946 300.053 90.9566C300.584 91.5493 301.111 92.1597 301.691 92.7524C303.978 95.1542 306.811 97.5208 309.717 99.2332C312.699 100.915 316.071 101.85 319.715 101.143C319.961 99.4747 319.763 97.8764 319.21 96.3967C318.955 95.6547 318.56 94.9478 318.077 94.276Z" fill="#F9B935" fill-opacity="0.34"/>
<path d="M305.646 68.6906C304.944 68.2076 304.237 67.7466 303.429 67.3426C302.612 66.9431 301.76 66.5918 300.9 66.2625C299.17 65.6127 297.374 65.1077 295.622 64.7257C293.853 64.3394 292.184 64.0583 290.52 63.9047C288.873 63.7378 287.363 63.6588 286.081 63.628C283.517 63.5534 281.861 63.6588 281.861 63.6588C281.861 63.6588 282.959 64.6643 284.816 66.0957C286.603 67.5446 288.939 69.4853 291.833 71.3075C294.529 73.1824 297.602 75.0001 300.913 76.089C304.065 77.2131 307.416 77.6346 310.713 76.4579C310.621 73.2087 308.386 70.6577 305.646 68.6906Z" fill="#F9B935" fill-opacity="0.34"/>
<path d="M289.576 47.0663C286.388 45.6393 282.604 44.928 279.091 44.6207C275.609 44.3001 272.176 44.4582 269.69 44.6734C267.214 44.8797 265.629 45.1607 265.629 45.1607C265.629 45.1607 266.929 46.0345 269.054 47.2376C271.139 48.4626 273.848 50.0784 277.036 51.4922C278.661 52.1948 280.228 52.8973 281.853 53.4856C283.491 54.074 285.172 54.5526 286.858 54.838C288.522 55.1278 290.2 55.2376 291.802 55.0663C293.374 54.9082 294.885 54.4867 296.29 53.6744C295.231 50.6887 292.623 48.5504 289.576 47.0663Z" fill="#F9B935" fill-opacity="0.34"/>
<path d="M260.083 31.3391C266.059 34.3073 273.532 36.652 278.753 33.5082C277.673 30.6191 275.1 28.5861 272.11 27.1591C269.137 25.719 265.431 25.0033 261.989 24.6388C255.073 23.9187 248.966 24.7442 248.966 24.7442C248.966 24.7442 250.186 25.6663 252.197 26.9484C254.186 28.2349 257.019 29.8638 260.083 31.3391Z" fill="#F9B935" fill-opacity="0.34"/>
<path d="M325.484 179.308C329.26 179.975 332.825 178.943 336.079 176.814C337.848 175.698 339.306 174.28 340.742 172.695C342.16 171.114 343.464 169.367 344.632 167.571C346.863 163.993 348.404 160.252 349.501 157.411C350.472 154.583 350.898 152.66 350.898 152.66C350.898 152.66 349.128 153.45 346.56 154.842C345.264 155.527 343.815 156.37 342.186 157.336C340.557 158.302 338.841 159.387 337.155 160.581C333.774 162.961 330.608 165.731 328.167 168.814C328.052 168.963 327.965 169.104 327.846 169.257C329.032 163.747 330.011 158.188 330.74 152.607C333.901 152.471 336.667 151.172 339.06 149.13C339.776 148.511 340.474 147.83 341.119 147.106C341.752 146.373 342.322 145.595 342.871 144.787C343.969 143.163 344.926 141.398 345.76 139.602C346.173 138.706 346.555 137.802 346.902 136.924C347.223 136.059 347.521 135.207 347.785 134.381C348.316 132.726 348.733 131.172 349.054 129.837C349.725 127.176 349.91 125.354 349.91 125.354C349.91 125.354 348.32 126.214 345.976 127.681C343.613 129.143 340.535 131.224 337.624 133.723C336.167 134.97 334.779 136.309 333.506 137.753C332.966 138.351 332.461 138.965 331.987 139.593C332.259 134.882 332.338 130.157 332.175 125.45C334.428 124.836 336.364 123.584 338.024 121.912C339.258 120.651 340.364 119.163 341.282 117.551C342.156 115.927 342.889 114.175 343.495 112.401C344.088 110.636 344.645 108.871 344.926 107.167C345.225 105.477 345.431 103.879 345.576 102.517C345.717 101.143 345.796 100.002 345.835 99.2024C345.857 98.4033 345.826 97.9335 345.826 97.9335C345.826 97.9335 345.493 98.1838 344.874 98.636C344.276 99.0927 343.385 99.7469 342.34 100.559C340.259 102.206 337.558 104.511 335.056 107.163C334.437 107.826 333.826 108.511 333.242 109.218C332.645 109.92 332.044 110.636 331.499 111.378C331.346 111.576 331.218 111.778 331.065 111.988C330.463 107.479 329.62 102.996 328.513 98.5395C330.617 97.7491 332.312 96.3528 333.655 94.5219C335.745 91.8216 336.729 88.208 337.26 84.5548C337.387 83.6459 337.506 82.7327 337.558 81.8326C337.576 80.9368 337.576 80.0499 337.55 79.1937C337.497 77.4769 337.37 75.8699 337.225 74.4956C337.106 73.1169 336.86 71.9753 336.676 71.1849C336.483 70.3902 336.373 69.9336 336.373 69.9336C336.373 69.9336 335.249 71.084 333.703 72.9588C332.158 74.8337 329.971 77.4418 328.145 80.3221C327.205 81.7711 326.375 83.2727 325.633 84.8315C325.335 85.4066 325.084 85.9906 324.838 86.5702C322.99 81.4418 320.97 76.7129 318.753 72.3002C321.045 71.2859 322.634 69.5121 323.622 67.2464C324.755 64.3924 324.944 60.7305 324.531 57.152C323.956 53.6482 322.955 50.1356 321.949 47.6065C320.882 45.1169 320.013 43.4748 320.013 43.4748C320.013 43.4748 319.214 44.7261 318.186 46.7283C317.673 47.7294 317.106 48.9106 316.54 50.2146C315.991 51.5099 315.337 52.9896 314.819 54.5C314.283 56.0148 313.826 57.5867 313.528 59.1718C313.383 59.9621 313.264 60.7569 313.207 61.5472C313.194 61.8282 313.163 62.1224 313.141 62.4034C309.914 57.3277 306.358 52.5988 302.428 48.0148C303.512 47.4528 304.404 46.7327 305.071 45.859C305.897 44.7745 306.384 43.4792 306.59 42.0478C306.81 40.6164 306.757 39.0401 306.507 37.4111C306.261 35.7778 305.835 34.0829 305.194 32.511C303.952 29.3409 302.336 26.2322 300.922 24.0368C299.482 21.8766 298.393 20.4891 298.393 20.4891C298.393 20.4891 297.853 21.7449 297.242 23.7339C296.632 25.7229 295.965 28.4057 295.539 31.4133C295.135 34.4035 295.126 37.5516 295.956 40.4935C296.009 40.6998 296.061 40.9018 296.127 41.1038C291.543 36.3222 286.511 31.5802 281.014 26.6098C286.459 23.5407 284.983 17.1038 281.936 11.2685C280.377 8.39252 278.41 5.77123 276.865 3.82173C275.311 1.88101 274.16 0.647204 274.16 0.647204C274.16 0.647204 272.628 5.60878 272.685 11.2421C272.716 14.0654 273.185 17.0116 274.345 19.7778C274.59 20.3354 274.871 20.8755 275.188 21.3936C275.179 21.3892 275.179 21.3892 275.17 21.3848C270.16 16.9501 261.44 12.3662 261.44 12.3662C296.154 41.4419 322.656 76.5988 326.608 116.91C328.035 131.549 326.274 146.162 323.995 160.682C321.431 177.073 317.299 193.411 308.808 208.607C295.688 232.094 278.173 250.886 254.353 265.569C254.353 265.569 218.595 283.501 180.277 283.896V283.878C179.359 283.891 178.441 283.887 177.515 283.887C177.071 283.887 176.637 283.887 176.193 283.878V283.883C138.34 283.334 102.112 265.56 102.112 265.56C78.2878 250.873 60.7774 232.076 47.649 208.594C39.1573 193.406 35.0255 177.055 32.4613 160.673C30.1869 146.153 28.413 131.54 29.8444 116.902C33.8049 76.5944 60.3032 41.4331 95.0167 12.3574C95.0167 12.3574 86.2966 16.9414 81.2779 21.376C81.2779 21.3804 81.2735 21.3804 81.2692 21.3804C81.5897 20.8579 81.8707 20.3266 82.1122 19.769C83.2714 16.9984 83.7412 14.0522 83.7719 11.229C83.8202 5.59999 82.2922 0.638428 82.2922 0.638428C82.2922 0.638428 81.1374 1.87223 79.5875 3.81295C78.0419 5.76246 76.0661 8.38814 74.5074 11.2553C71.4602 17.0994 69.9937 23.5319 75.4382 26.601C69.9322 31.567 64.9091 36.3134 60.3164 41.0906C60.3823 40.893 60.4393 40.691 60.492 40.4803C61.3175 37.5429 61.3087 34.3947 60.9091 31.4046C60.4832 28.3969 59.8158 25.7097 59.2055 23.7251C58.5952 21.7361 58.0552 20.4759 58.0552 20.4759C58.0552 20.4759 56.9662 21.8678 55.5305 24.0325C54.121 26.2278 52.4964 29.3365 51.2538 32.5066C50.6128 34.0741 50.1825 35.7734 49.941 37.4067C49.6907 39.0357 49.6424 40.6032 49.8488 42.0434C50.0683 43.4748 50.5513 44.7701 51.3812 45.8502C52.0486 46.7284 52.9311 47.444 54.0288 48.0104C50.0991 52.5944 46.5338 57.3277 43.3109 62.399C43.289 62.1136 43.267 61.8282 43.2451 61.5428C43.1836 60.7569 43.0826 59.9577 42.9245 59.1674C42.626 57.5823 42.1737 56.0104 41.638 54.4956C41.1112 52.9896 40.4569 51.5099 39.9081 50.2146C39.3505 48.9062 38.7797 47.7294 38.2659 46.7283C37.2429 44.7261 36.4438 43.4748 36.4438 43.4748C36.4438 43.4748 35.5744 45.1081 34.5074 47.6065C33.4976 50.1356 32.5008 53.6438 31.9213 57.152C31.5129 60.7305 31.7017 64.3924 32.8258 67.2464C33.8225 69.5077 35.4032 71.2815 37.7039 72.2958C35.4778 76.7129 33.458 81.4418 31.6183 86.5702C31.3812 85.9818 31.1134 85.4067 30.8236 84.8271C30.0815 83.2727 29.2473 81.7667 28.3121 80.3221C26.4811 77.4374 24.2989 74.8337 22.7533 72.9588C21.2034 71.084 20.075 69.9336 20.075 69.9336C20.075 69.9336 19.9696 70.3902 19.772 71.1893C19.5876 71.9797 19.3417 73.1169 19.2232 74.5C19.0783 75.8699 18.9553 77.4769 18.9026 79.1981C18.8763 80.0543 18.8763 80.9412 18.8938 81.837C18.9465 82.7415 19.0607 83.6503 19.188 84.5592C19.7325 88.2123 20.7116 91.8216 22.7972 94.5263C24.1452 96.3572 25.8444 97.7491 27.9432 98.5438C26.8324 102.996 25.9937 107.479 25.3878 111.993C25.2517 111.786 25.1068 111.584 24.9575 111.382C24.4087 110.64 23.8159 109.92 23.2144 109.222C22.6348 108.515 22.0245 107.835 21.3966 107.163C18.9026 104.515 16.1935 102.215 14.1167 100.564C13.0805 99.7425 12.1848 99.0883 11.5876 98.6273C10.9729 98.1838 10.626 97.9291 10.626 97.9291C10.626 97.9291 10.5953 98.4033 10.6173 99.2024C10.6656 100.002 10.7358 101.143 10.8807 102.513C11.0212 103.883 11.2276 105.477 11.5349 107.167C11.8115 108.871 12.3692 110.636 12.9575 112.401C13.5679 114.175 14.3055 115.927 15.1837 117.551C16.1013 119.163 17.199 120.656 18.4416 121.912C20.0881 123.584 22.0333 124.831 24.2857 125.45C24.1233 130.157 24.2023 134.877 24.4745 139.589C23.9959 138.965 23.4866 138.351 22.9553 137.753C21.682 136.309 20.2901 134.97 18.8368 133.723C15.9257 131.229 12.8434 129.143 10.4855 127.685C8.13646 126.21 6.55579 125.349 6.55579 125.349C6.55579 125.349 6.73581 127.18 7.39442 129.841C7.72373 131.176 8.14085 132.73 8.67214 134.381C8.93997 135.211 9.22538 136.063 9.55468 136.928C9.89716 137.806 10.2879 138.711 10.7007 139.606C11.5349 141.393 12.4877 143.167 13.5854 144.792C14.1343 145.604 14.7051 146.377 15.3285 147.101C15.9872 147.835 16.6765 148.515 17.3966 149.126C19.7896 151.176 22.5645 152.471 25.7127 152.612C26.4548 158.192 27.4295 163.751 28.6019 169.262C28.5009 169.108 28.4043 168.963 28.2945 168.818C25.8532 165.731 22.6875 162.965 19.3022 160.581C17.6205 159.391 15.8994 158.307 14.2704 157.341C12.637 156.375 11.1968 155.527 9.89277 154.847C7.31539 153.45 5.55908 152.664 5.55908 152.664C5.55908 152.664 5.98059 154.588 6.94656 157.415C8.05303 160.256 9.5898 163.988 11.8247 167.576C13.0014 169.367 14.3011 171.119 15.7149 172.7C17.1463 174.28 18.6128 175.703 20.3735 176.818C23.6271 178.943 27.1924 179.979 30.9729 179.308C31.1485 180.01 31.3329 180.704 31.5173 181.398C32.8214 186.329 34.4108 191.202 36.3076 195.993C35.9564 195.628 35.5876 195.268 35.21 194.912C34.4328 194.197 33.5898 193.525 32.716 192.866C31.8379 192.208 30.9992 191.562 30.0771 190.952C28.2462 189.723 26.2879 188.59 24.3121 187.571C22.3626 186.539 20.3121 185.622 18.5382 184.792C16.7468 183.971 15.0519 183.264 13.603 182.68C10.6919 181.521 8.738 180.88 8.738 180.88C8.738 180.88 9.56786 182.855 11.0739 185.714C11.8072 187.145 12.9356 188.783 14.0991 190.5C15.3022 192.221 16.6326 194.026 18.1255 195.742C19.7281 197.464 21.4537 199.11 23.2627 200.563C24.1628 201.292 25.0805 201.968 26.0157 202.579C26.4855 202.877 26.9553 203.172 27.4251 203.444C27.9301 203.712 28.4306 203.962 28.9268 204.186C32.7906 205.946 36.6984 206.482 40.4086 205.222C43.0694 210.592 46.1649 215.835 49.7434 220.906C49.177 220.48 48.5886 220.072 47.9739 219.69C46.9992 219.088 45.9717 218.526 44.918 217.995C43.9169 217.437 42.8631 216.923 41.7829 216.432C39.6359 215.453 37.3614 214.596 35.0958 213.828C33.963 213.455 32.8346 213.095 31.7237 212.752C30.6304 212.423 29.581 212.102 28.5799 211.799C26.5601 211.202 24.6677 210.702 23.0519 210.298C19.8071 209.494 17.6557 209.099 17.6557 209.099C17.6557 209.099 18.9817 211.031 21.221 213.793C22.2879 215.18 23.7983 216.708 25.4493 218.306C27.0958 219.909 28.9268 221.56 30.8587 223.128C32.9092 224.647 35.1134 226.069 37.3175 227.268C38.4196 227.874 39.5349 228.418 40.6413 228.897C41.739 229.38 42.8455 229.793 44.0047 230.083C48.4745 231.272 52.6325 231.176 56.0837 229.2C59.57 233.547 63.2538 237.929 67.1528 242.214C66.9904 242.144 66.8323 242.078 66.6742 242.012C66.099 241.784 65.5151 241.582 64.9267 241.376C64.3471 241.174 63.7895 240.954 63.2011 240.761C62.0332 240.366 60.8345 240.019 59.6139 239.69C57.1726 239.053 54.6435 238.552 52.1452 238.144C49.6029 237.762 47.2978 237.362 45.0672 237.086C42.8587 236.805 40.8038 236.59 39.0519 236.427C35.5524 236.115 33.2561 236.041 33.2561 236.041C33.2561 236.041 35.1221 237.806 38.1298 240.256C38.8763 240.866 39.7017 241.521 40.5799 242.201C41.4756 242.868 42.5074 243.523 43.5524 244.203C45.6556 245.556 47.9476 246.921 50.3274 248.194C50.9289 248.502 51.5129 248.822 52.1364 249.108C52.7686 249.389 53.4053 249.657 54.0464 249.92C55.3241 250.443 56.615 250.926 57.8883 251.347C60.4481 252.208 62.9684 252.831 65.3526 253.125C69.4185 253.556 73.0891 253.024 75.93 251.294C79.1265 254.381 82.4547 257.349 85.9234 260.155C84.874 260.001 83.807 259.865 82.7269 259.755C80.1012 259.492 77.3394 259.452 74.8235 259.343C69.7126 259.185 64.8169 259.404 61.1901 259.659C59.3724 259.782 57.8839 259.922 56.8521 260.023C55.8202 260.124 55.2538 260.181 55.2538 260.181C55.2538 260.181 55.3943 260.273 55.6534 260.453C55.9168 260.638 56.334 260.871 56.8521 261.174C57.8883 261.788 59.3899 262.644 61.2253 263.615C63.0562 264.598 65.2165 265.7 67.5743 266.798C70.0156 267.808 72.6764 268.805 75.3943 269.687C76.751 270.126 78.1341 270.535 79.4953 270.899C80.189 271.088 80.874 271.255 81.5589 271.422C82.2571 271.558 82.9596 271.685 83.649 271.795C86.4415 272.238 89.1462 272.471 91.6402 272.401C95.0474 272.309 98.0199 271.624 100.365 270.214C101.664 270.974 102.977 271.707 104.312 272.405C104.606 272.563 104.843 272.612 105.019 272.581C123.03 282.495 145.317 288.594 163.662 290.785C148.97 293.516 131.706 296.528 113.37 299.321L93.5809 316.15C93.5809 316.15 138.108 301.318 179.64 291.869C221.172 301.318 265.699 316.15 265.699 316.15L245.91 299.321C227.104 296.458 209.427 293.362 194.494 290.579C217.212 287.992 236.281 281.327 251.578 272.581C251.736 272.563 251.903 272.524 252.118 272.41C253.453 271.707 254.766 270.974 256.066 270.214C258.397 271.624 261.383 272.309 264.786 272.401C267.275 272.467 269.985 272.238 272.773 271.79C273.466 271.676 274.173 271.553 274.871 271.417C275.561 271.25 276.241 271.084 276.931 270.899C278.301 270.53 279.679 270.118 281.036 269.683C283.75 268.8 286.415 267.804 288.856 266.798C291.214 265.7 293.379 264.598 295.209 263.61C297.04 262.64 298.538 261.788 299.587 261.169C300.105 260.866 300.518 260.629 300.781 260.453C301.045 260.269 301.177 260.177 301.177 260.177C301.177 260.177 300.615 260.124 299.587 260.019C298.551 259.918 297.054 259.782 295.24 259.654C291.618 259.4 286.727 259.185 281.611 259.338C279.095 259.448 276.338 259.488 273.703 259.76C272.632 259.861 271.561 259.997 270.511 260.155C273.976 257.349 277.308 254.381 280.505 251.294C283.346 253.024 287.016 253.551 291.078 253.121C293.462 252.827 295.987 252.203 298.538 251.347C299.82 250.926 301.111 250.438 302.384 249.916C303.029 249.661 303.666 249.389 304.298 249.108C304.922 248.818 305.506 248.497 306.107 248.19C308.487 246.917 310.779 245.551 312.882 244.203C313.923 243.523 314.95 242.873 315.85 242.201C316.733 241.521 317.558 240.866 318.309 240.256C321.313 237.806 323.174 236.041 323.174 236.041C323.174 236.041 320.887 236.115 317.392 236.432C315.631 236.594 313.58 236.805 311.376 237.086C309.146 237.367 306.841 237.758 304.298 238.144C301.804 238.552 299.271 239.053 296.825 239.69C295.605 240.019 294.406 240.366 293.242 240.761C292.654 240.954 292.096 241.174 291.512 241.38C290.924 241.582 290.344 241.788 289.774 242.017C289.607 242.078 289.453 242.144 289.291 242.214C293.194 237.929 296.874 233.551 300.36 229.2C303.82 231.176 307.978 231.272 312.439 230.083C313.602 229.793 314.7 229.38 315.811 228.901C316.913 228.418 318.028 227.874 319.126 227.268C321.33 226.069 323.539 224.647 325.58 223.128C327.512 221.564 329.352 219.914 331.003 218.311C332.65 216.717 334.16 215.18 335.223 213.793C337.457 211.04 338.788 209.099 338.788 209.099C338.788 209.099 336.632 209.499 333.396 210.298C331.776 210.702 329.888 211.202 327.868 211.799C326.863 212.102 325.813 212.427 324.715 212.752C323.605 213.095 322.481 213.45 321.352 213.832C319.082 214.592 316.812 215.457 314.661 216.432C313.58 216.928 312.531 217.442 311.526 217.995C310.476 218.526 309.444 219.092 308.478 219.69C307.855 220.076 307.271 220.48 306.696 220.906C310.274 215.835 313.378 210.592 316.031 205.222C319.75 206.482 323.653 205.946 327.508 204.19C328.013 203.962 328.513 203.716 329.018 203.444C329.493 203.172 329.958 202.882 330.428 202.579C331.367 201.973 332.285 201.292 333.185 200.563C334.985 199.119 336.715 197.468 338.322 195.742C339.82 194.021 341.146 192.217 342.344 190.5C343.508 188.779 344.641 187.141 345.365 185.714C346.876 182.86 347.706 180.88 347.706 180.88C347.706 180.88 345.747 181.521 342.845 182.68C341.387 183.264 339.701 183.971 337.905 184.792C336.131 185.622 334.081 186.548 332.127 187.571C330.156 188.594 328.193 189.718 326.371 190.952C325.444 191.562 324.601 192.208 323.728 192.866C322.845 193.525 322.002 194.206 321.229 194.917C320.847 195.273 320.483 195.628 320.136 195.993C322.033 191.207 323.622 186.329 324.931 181.398C325.124 180.695 325.304 180.001 325.484 179.308Z" fill="#F9B935" fill-opacity="0.34"/>
</g>
<path d="M50.996 78.7027C41.3 78.7027 33.908 85.8067 33.908 95.8387C33.908 105.871 41.3 112.927 51.044 112.927C59.972 112.927 66.068 106.687 67.412 99.8707V94.0147H49.268V99.1507H60.788C59.78 103.903 56.468 106.879 51.284 106.879C45.044 106.879 40.82 102.655 40.82 95.8387C40.82 89.1667 44.996 84.8947 50.996 84.8947C54.548 84.8947 57.332 86.3827 58.868 89.2147H66.596C64.436 82.4947 58.484 78.7027 50.996 78.7027ZM90.1438 89.5507C90.1438 92.5747 88.4638 94.5427 84.7198 94.5427H79.1038V84.7027H84.7198C88.4638 84.7027 90.1438 86.5747 90.1438 89.5507ZM72.3838 79.1347V112.639H79.1038V99.5827H82.2718L89.6638 112.639H97.4398L89.4238 99.0547C94.7998 97.6147 97.0558 93.4867 97.0558 89.4067C97.0558 83.7907 93.0238 79.1347 84.9598 79.1347H72.3838ZM125.886 112.639H132.99L120.942 79.0867H113.118L101.07 112.639H108.126L110.334 106.255H123.678L125.886 112.639ZM121.854 100.879H112.158L117.006 86.8627L121.854 100.879ZM149.205 79.1347H137.493V112.639H149.205C159.909 112.639 166.869 106.063 166.869 95.9347C166.869 85.7587 159.909 79.1347 149.205 79.1347ZM144.213 106.927V84.7987H148.965C156.021 84.7987 160.005 88.9747 160.005 95.9347C160.005 102.895 156.021 106.927 148.965 106.927H144.213ZM171.803 99.8227C171.803 108.655 177.851 112.975 185.195 112.975C192.539 112.975 198.875 108.655 198.875 99.8227V79.1347H192.107V99.8707C192.107 104.479 189.611 106.879 185.291 106.879C181.019 106.879 178.523 104.479 178.523 99.8707V79.1347H171.803V99.8227ZM228.12 112.639H235.224L223.176 79.0867H215.352L203.304 112.639H210.36L212.568 106.255H225.912L228.12 112.639ZM224.088 100.879H214.392L219.24 86.8627L224.088 100.879ZM237.952 84.5587H246.88V112.639H253.6V84.5587H262.528V79.1347H237.952V84.5587ZM286.871 79.0867H267.431V112.639H286.871V107.167H274.151V98.2867H285.431V92.9587H274.151V84.5587H286.871V79.0867ZM304.69 79.1347H292.978V112.639H304.69C315.394 112.639 322.354 106.063 322.354 95.9347C322.354 85.7587 315.394 79.1347 304.69 79.1347ZM299.698 106.927V84.7987H304.45C311.506 84.7987 315.49 88.9747 315.49 95.9347C315.49 102.895 311.506 106.927 304.45 106.927H299.698Z" fill="white"/>
<path d="M150.644 40.6384L146.66 33.7984H144.02V40.6384H141.836V23.9104H147.236C148.5 23.9104 149.564 24.1264 150.428 24.5584C151.308 24.9904 151.964 25.5744 152.396 26.3104C152.828 27.0464 153.044 27.8864 153.044 28.8304C153.044 29.9824 152.708 30.9984 152.036 31.8784C151.38 32.7584 150.388 33.3424 149.06 33.6304L153.26 40.6384H150.644ZM144.02 32.0464H147.236C148.42 32.0464 149.308 31.7584 149.9 31.1824C150.492 30.5904 150.788 29.8064 150.788 28.8304C150.788 27.8384 150.492 27.0704 149.9 26.5264C149.324 25.9824 148.436 25.7104 147.236 25.7104H144.02V32.0464ZM168.437 33.5584C168.437 33.9744 168.413 34.4144 168.365 34.8784H157.853C157.933 36.1744 158.373 37.1904 159.173 37.9264C159.989 38.6464 160.973 39.0064 162.125 39.0064C163.069 39.0064 163.853 38.7904 164.477 38.3584C165.117 37.9104 165.565 37.3184 165.821 36.5824H168.173C167.821 37.8464 167.117 38.8784 166.061 39.6784C165.005 40.4624 163.693 40.8544 162.125 40.8544C160.877 40.8544 159.757 40.5744 158.765 40.0144C157.789 39.4544 157.021 38.6624 156.461 37.6384C155.901 36.5984 155.621 35.3984 155.621 34.0384C155.621 32.6784 155.893 31.4864 156.437 30.4624C156.981 29.4384 157.741 28.6544 158.717 28.1104C159.709 27.5504 160.845 27.2704 162.125 27.2704C163.373 27.2704 164.477 27.5424 165.437 28.0864C166.397 28.6304 167.133 29.3824 167.645 30.3424C168.173 31.2864 168.437 32.3584 168.437 33.5584ZM166.181 33.1024C166.181 32.2704 165.997 31.5584 165.629 30.9664C165.261 30.3584 164.757 29.9024 164.117 29.5984C163.493 29.2784 162.797 29.1184 162.029 29.1184C160.925 29.1184 159.981 29.4704 159.197 30.1744C158.429 30.8784 157.989 31.8544 157.877 33.1024H166.181ZM175.976 40.8544C174.968 40.8544 174.064 40.6864 173.264 40.3504C172.464 39.9984 171.832 39.5184 171.368 38.9104C170.904 38.2864 170.648 37.5744 170.6 36.7744H172.856C172.92 37.4304 173.224 37.9664 173.768 38.3824C174.328 38.7984 175.056 39.0064 175.952 39.0064C176.784 39.0064 177.44 38.8224 177.92 38.4544C178.4 38.0864 178.64 37.6224 178.64 37.0624C178.64 36.4864 178.384 36.0624 177.872 35.7904C177.36 35.5024 176.568 35.2224 175.496 34.9504C174.52 34.6944 173.72 34.4384 173.096 34.1824C172.488 33.9104 171.96 33.5184 171.512 33.0064C171.08 32.4784 170.864 31.7904 170.864 30.9424C170.864 30.2704 171.064 29.6544 171.464 29.0944C171.864 28.5344 172.432 28.0944 173.168 27.7744C173.904 27.4384 174.744 27.2704 175.688 27.2704C177.144 27.2704 178.32 27.6384 179.216 28.3744C180.112 29.1104 180.592 30.1184 180.656 31.3984H178.472C178.424 30.7104 178.144 30.1584 177.632 29.7424C177.136 29.3264 176.464 29.1184 175.616 29.1184C174.832 29.1184 174.208 29.2864 173.744 29.6224C173.28 29.9584 173.048 30.3984 173.048 30.9424C173.048 31.3744 173.184 31.7344 173.456 32.0224C173.744 32.2944 174.096 32.5184 174.512 32.6944C174.944 32.8544 175.536 33.0384 176.288 33.2464C177.232 33.5024 178 33.7584 178.592 34.0144C179.184 34.2544 179.688 34.6224 180.104 35.1184C180.536 35.6144 180.76 36.2624 180.776 37.0624C180.776 37.7824 180.576 38.4304 180.176 39.0064C179.776 39.5824 179.208 40.0384 178.472 40.3744C177.752 40.6944 176.92 40.8544 175.976 40.8544ZM195.523 27.4864V40.6384H193.339V38.6944C192.923 39.3664 192.339 39.8944 191.587 40.2784C190.851 40.6464 190.035 40.8304 189.139 40.8304C188.115 40.8304 187.195 40.6224 186.379 40.2064C185.563 39.7744 184.915 39.1344 184.435 38.2864C183.971 37.4384 183.739 36.4064 183.739 35.1904V27.4864H185.899V34.9024C185.899 36.1984 186.227 37.1984 186.883 37.9024C187.539 38.5904 188.435 38.9344 189.571 38.9344C190.739 38.9344 191.659 38.5744 192.331 37.8544C193.003 37.1344 193.339 36.0864 193.339 34.7104V27.4864H195.523ZM201.395 22.8784V40.6384H199.211V22.8784H201.395ZM207.781 29.2864V37.0384C207.781 37.6784 207.917 38.1344 208.189 38.4064C208.461 38.6624 208.933 38.7904 209.605 38.7904H211.213V40.6384H209.245C208.029 40.6384 207.117 40.3584 206.509 39.7984C205.901 39.2384 205.597 38.3184 205.597 37.0384V29.2864H203.893V27.4864H205.597V24.1744H207.781V27.4864H211.213V29.2864H207.781Z" fill="#F9B935"/>
<defs>
<filter id="filter0_d_2927_7640" x="1.09814" y="93.8079" width="354.259" height="65.8306" filterUnits="userSpaceOnUse" color-interpolation-filters="sRGB">
<feFlood flood-opacity="0" result="BackgroundImageFix"/>
<feColorMatrix in="SourceAlpha" type="matrix" values="0 0 0 0 0 0 0 0 0 0 0 0 0 0 0 0 0 0 127 0" result="hardAlpha"/>
<feOffset dy="4"/>
<feGaussianBlur stdDeviation="5"/>
<feComposite in2="hardAlpha" operator="out"/>
<feColorMatrix type="matrix" values="0 0 0 0 0.270588 0 0 0 0 0.352941 0 0 0 0 0.392157 0 0 0 0.5 0"/>
<feBlend mode="normal" in2="BackgroundImageFix" result="effect1_dropShadow_2927_7640"/>
<feBlend mode="normal" in="SourceGraphic" in2="effect1_dropShadow_2927_7640" result="shape"/>
</filter>
</defs>
</svg>
