<svg width="357" height="160" viewBox="0 0 357 160" fill="none" xmlns="http://www.w3.org/2000/svg">
<g filter="url(#filter0_d_5469_14047)">
<rect x="11.0981" y="99.9829" width="334.259" height="45.8307" rx="20" fill="white"/>
</g>
<rect x="0.228027" y="0.813477" width="356" height="155" rx="20" fill="#455A64"/>
<mask id="mask0_5469_14047" style="mask-type:alpha" maskUnits="userSpaceOnUse" x="0" y="0" width="357" height="156">
<rect x="0.228027" y="0.813477" width="356" height="155" rx="20" fill="#455A64"/>
</mask>
<g mask="url(#mask0_5469_14047)">
<path d="M51.1219 171.592C52.2459 170.306 53.3831 168.813 54.292 167.254C55.2097 165.7 55.978 164.066 56.6191 162.468C57.9934 159.228 59.0384 156.04 59.596 153.673C60.2854 151.285 60.6191 149.7 60.6191 149.7C60.6191 149.7 58.9067 150.411 56.4391 151.733C55.2228 152.391 53.7475 153.217 52.3118 154.17C50.8628 155.127 49.3568 156.224 47.9034 157.454C44.9923 159.908 42.2086 162.903 40.9309 166.161C40.2503 167.798 39.8595 169.511 39.8683 171.236C39.9166 172.958 40.5094 174.683 41.5368 176.378C45.6817 176.106 48.7728 174.178 51.1219 171.592Z" fill="#F9B935" fill-opacity="0.34"/>
<path d="M45.6818 149.525C46.3492 148.959 46.9903 148.34 47.5962 147.685C48.2241 147.035 48.8388 146.333 49.4052 145.622C50.5424 144.19 51.5567 142.658 52.4304 141.139C52.8739 140.375 53.2691 139.624 53.6643 138.86C54.0726 138.083 54.4502 137.323 54.8015 136.572C55.4952 135.101 56.0748 133.714 56.5358 132.524C57.4227 130.14 57.9365 128.585 57.9365 128.585C57.9365 128.585 56.1889 129.174 53.6818 130.329C51.1878 131.488 47.8948 133.187 44.7378 135.374C43.1659 136.471 41.6116 137.688 40.2373 139C38.8981 140.304 37.7082 141.727 36.7817 143.233C35.8641 144.748 35.1791 146.342 34.9464 148.006C34.7576 149.666 34.9596 151.391 35.6577 153.125C39.6665 153.323 42.9727 151.799 45.6818 149.525Z" fill="#F9B935" fill-opacity="0.34"/>
<path d="M33.8922 128.383C37.7253 128.857 41.0886 127.619 43.9646 125.568C45.4091 124.545 46.7132 123.311 47.9295 121.981C49.1852 120.668 50.318 119.254 51.3279 117.832C52.3554 116.422 53.1852 114.965 54.0458 113.674C54.8844 112.37 55.5914 111.149 56.1578 110.1C56.7242 109.055 57.1545 108.176 57.453 107.562C57.756 106.96 57.9272 106.613 57.9272 106.613C57.9272 106.613 57.5057 106.719 56.7373 106.916C55.969 107.109 54.9196 107.434 53.6594 107.865C51.1347 108.73 47.7802 110.06 44.5003 111.891C43.6748 112.348 42.8581 112.839 42.059 113.357C41.2774 113.884 40.5354 114.442 39.8153 115.03C38.3795 116.203 37.0799 117.498 36.0261 118.885C33.8614 121.682 32.9921 124.923 33.8922 128.383Z" fill="#F9B935" fill-opacity="0.34"/>
<path d="M46.7314 99.4039C49.6468 97.6958 52.4789 95.3292 54.7621 92.9275C55.3373 92.3347 55.8642 91.7244 56.3955 91.1316C56.9575 90.5652 57.4844 89.9944 57.9805 89.4412C58.9684 88.3391 59.8071 87.3029 60.5008 86.4072C61.1638 85.5115 61.7654 84.7958 62.1825 84.2908C62.5821 83.7815 62.8104 83.4917 62.8104 83.4917C62.8104 83.4917 61.098 83.6366 58.4855 84.1108C55.8817 84.5718 52.5667 85.4412 49.1331 86.8023C47.4383 87.4785 45.6951 88.282 44.1276 89.2305C42.604 90.192 41.1814 91.2897 39.9871 92.5147C39.39 93.1294 38.8499 93.7749 38.3757 94.4467C37.9015 95.1185 37.4932 95.821 37.2473 96.563C36.6985 98.0427 36.5009 99.641 36.7511 101.309C40.3779 102.025 43.7544 101.09 46.7314 99.4039Z" fill="#F9B935" fill-opacity="0.34"/>
<path d="M70.371 63.8075C69.0933 63.8338 67.5785 63.9173 65.9319 64.0753C64.2678 64.2378 62.6037 64.5188 60.8255 64.9052C59.0735 65.2872 57.2821 65.7921 55.5521 66.4419C54.6872 66.7713 53.8398 67.1225 53.0231 67.5221C52.2152 67.926 51.5039 68.3783 50.8057 68.8701C48.0615 70.8327 45.831 73.3882 45.7344 76.6417C49.0275 77.8141 52.3864 77.3969 55.539 76.2729C58.8452 75.184 61.9144 73.3662 64.6103 71.487C67.5082 69.6648 69.8441 67.7285 71.6399 66.2707C73.4928 64.8393 74.5861 63.8382 74.5861 63.8382C74.5861 63.8382 72.9352 63.7328 70.371 63.8075Z" fill="#F9B935" fill-opacity="0.34"/>
<path d="M86.7585 44.8437C84.2689 44.6285 80.8441 44.4748 77.3622 44.7954C73.8496 45.1027 70.056 45.8096 66.8727 47.2454C63.8211 48.7251 61.2174 50.8634 60.1592 53.8491C61.5642 54.657 63.079 55.083 64.6422 55.241C66.2448 55.4079 67.9264 55.3025 69.5949 55.0127C71.2678 54.7229 72.9539 54.2531 74.5829 53.6603C76.2206 53.072 77.7793 52.3739 79.4039 51.6669C82.596 50.2487 85.3095 48.6373 87.3907 47.4123C89.5115 46.2092 90.8111 45.3267 90.8111 45.3267C90.8111 45.3267 89.2436 45.0544 86.7585 44.8437Z" fill="#F9B935" fill-opacity="0.34"/>
<path d="M84.3386 27.3337C81.344 28.7607 78.7754 30.7936 77.6953 33.6784C82.9115 36.8265 90.3934 34.4819 96.3693 31.5137C99.4384 30.0384 102.266 28.4094 104.251 27.1229C106.262 25.8452 107.478 24.9232 107.478 24.9232C107.478 24.9232 101.37 24.0977 94.4637 24.8178C91.0213 25.1778 87.3155 25.8935 84.3386 27.3337Z" fill="#F9B935" fill-opacity="0.34"/>
<path d="M316.58 171.232C316.597 169.506 316.207 167.798 315.522 166.161C314.24 162.898 311.447 159.899 308.558 157.449C307.096 156.22 305.594 155.122 304.145 154.174C302.709 153.217 301.239 152.396 300.018 151.728C297.546 150.407 295.838 149.695 295.838 149.695C295.838 149.695 296.163 151.289 296.861 153.669C297.427 156.036 298.455 159.223 299.842 162.464C300.479 164.066 301.247 165.695 302.169 167.25C303.074 168.804 304.207 170.301 305.335 171.592C307.684 174.174 310.775 176.101 314.925 176.369C315.943 174.679 316.527 172.958 316.58 171.232Z" fill="#F9B935" fill-opacity="0.34"/>
<path d="M321.506 148.01C321.269 146.351 320.588 144.752 319.67 143.237C318.748 141.731 317.554 140.313 316.215 139.009C314.841 137.696 313.282 136.476 311.71 135.378C308.557 133.187 305.269 131.488 302.77 130.329C300.259 129.174 298.516 128.585 298.516 128.585C298.516 128.585 299.029 130.14 299.921 132.528C300.377 133.714 300.952 135.097 301.655 136.581C302.002 137.319 302.38 138.087 302.783 138.86C303.179 139.624 303.574 140.37 304.013 141.139C304.895 142.658 305.905 144.19 307.051 145.622C307.609 146.337 308.224 147.031 308.856 147.694C309.453 148.34 310.094 148.959 310.77 149.529C313.479 151.799 316.781 153.323 320.794 153.13C321.493 151.391 321.695 149.67 321.506 148.01Z" fill="#F9B935" fill-opacity="0.34"/>
<path d="M320.417 118.898C319.359 117.506 318.063 116.215 316.636 115.043C315.912 114.459 315.17 113.897 314.384 113.37C313.589 112.852 312.768 112.365 311.951 111.908C308.667 110.073 305.313 108.738 302.788 107.873C301.528 107.443 300.483 107.122 299.71 106.925C298.937 106.727 298.516 106.622 298.516 106.622C298.516 106.622 298.691 106.968 298.999 107.57C299.284 108.185 299.723 109.058 300.285 110.108C300.856 111.157 301.558 112.378 302.393 113.682C303.258 114.973 304.079 116.431 305.115 117.84C306.129 119.263 307.266 120.676 308.518 121.989C309.734 123.32 311.038 124.553 312.487 125.577C315.359 127.631 318.722 128.865 322.559 128.391C323.46 124.922 322.581 121.682 320.417 118.898Z" fill="#F9B935" fill-opacity="0.34"/>
<path d="M318.077 94.4511C317.607 93.7749 317.063 93.1338 316.461 92.5191C315.267 91.2941 313.849 90.1964 312.325 89.2348C310.762 88.2864 309.015 87.4829 307.32 86.8067C303.882 85.45 300.571 84.5762 297.963 84.1152C295.355 83.6454 293.638 83.4961 293.638 83.4961C293.638 83.4961 293.866 83.7859 294.266 84.2952C294.683 84.8001 295.289 85.5202 295.948 86.4203C296.633 87.3117 297.489 88.3435 298.472 89.45C298.96 89.9988 299.495 90.5696 300.053 91.1316C300.584 91.7244 301.111 92.3347 301.691 92.9275C303.978 95.3292 306.811 97.6958 309.717 99.4082C312.699 101.09 316.071 102.025 319.715 101.318C319.961 99.6497 319.763 98.0515 319.21 96.5718C318.955 95.8298 318.56 95.1229 318.077 94.4511Z" fill="#F9B935" fill-opacity="0.34"/>
<path d="M305.646 68.8657C304.944 68.3827 304.237 67.9216 303.429 67.5177C302.612 67.1181 301.76 66.7669 300.9 66.4376C299.17 65.7877 297.374 65.2828 295.622 64.9008C293.853 64.5144 292.184 64.2334 290.52 64.0797C288.873 63.9129 287.363 63.8338 286.081 63.8031C283.517 63.7285 281.861 63.8338 281.861 63.8338C281.861 63.8338 282.959 64.8393 284.816 66.2707C286.603 67.7197 288.939 69.6604 291.833 71.4826C294.529 73.3574 297.602 75.1752 300.913 76.2641C304.065 77.3881 307.416 77.8096 310.713 76.6329C310.621 73.3837 308.386 70.8327 305.646 68.8657Z" fill="#F9B935" fill-opacity="0.34"/>
<path d="M289.576 47.2414C286.388 45.8144 282.604 45.1031 279.091 44.7957C275.609 44.4752 272.176 44.6333 269.69 44.8484C267.214 45.0548 265.629 45.3358 265.629 45.3358C265.629 45.3358 266.929 46.2095 269.054 47.4126C271.139 48.6376 273.848 50.2535 277.036 51.6673C278.661 52.3698 280.228 53.0723 281.853 53.6607C283.491 54.249 285.172 54.7276 286.858 55.013C288.522 55.3028 290.2 55.4126 291.802 55.2414C293.374 55.0833 294.885 54.6618 296.29 53.8495C295.231 50.8638 292.623 48.7255 289.576 47.2414Z" fill="#F9B935" fill-opacity="0.34"/>
<path d="M260.083 31.5142C266.059 34.4824 273.532 36.827 278.753 33.6832C277.673 30.7941 275.1 28.7612 272.11 27.3342C269.137 25.894 265.431 25.1783 261.989 24.8139C255.073 24.0938 248.966 24.9192 248.966 24.9192C248.966 24.9192 250.186 25.8413 252.197 27.1234C254.186 28.4099 257.019 30.0389 260.083 31.5142Z" fill="#F9B935" fill-opacity="0.34"/>
<path d="M325.484 179.483C329.26 180.15 332.825 179.118 336.079 176.989C337.848 175.874 339.306 174.455 340.742 172.87C342.16 171.29 343.464 169.542 344.632 167.746C346.863 164.168 348.404 160.427 349.501 157.586C350.472 154.758 350.898 152.835 350.898 152.835C350.898 152.835 349.128 153.625 346.56 155.017C345.264 155.702 343.815 156.545 342.186 157.511C340.557 158.477 338.841 159.562 337.155 160.756C333.774 163.136 330.608 165.906 328.167 168.989C328.052 169.138 327.965 169.279 327.846 169.432C329.032 163.922 330.011 158.363 330.74 152.782C333.901 152.646 336.667 151.347 339.06 149.305C339.776 148.686 340.474 148.005 341.119 147.281C341.752 146.548 342.322 145.77 342.871 144.962C343.969 143.338 344.926 141.573 345.76 139.777C346.173 138.881 346.555 137.977 346.902 137.099C347.223 136.234 347.521 135.382 347.785 134.556C348.316 132.901 348.733 131.347 349.054 130.012C349.725 127.351 349.91 125.529 349.91 125.529C349.91 125.529 348.32 126.39 345.976 127.856C343.613 129.318 340.535 131.399 337.624 133.898C336.167 135.145 334.779 136.484 333.506 137.928C332.966 138.526 332.461 139.14 331.987 139.768C332.259 135.057 332.338 130.332 332.175 125.626C334.428 125.011 336.364 123.759 338.024 122.087C339.258 120.826 340.364 119.338 341.282 117.727C342.156 116.102 342.889 114.35 343.495 112.576C344.088 110.811 344.645 109.046 344.926 107.342C345.225 105.652 345.431 104.054 345.576 102.693C345.717 101.318 345.796 100.177 345.835 99.3775C345.857 98.5784 345.826 98.1086 345.826 98.1086C345.826 98.1086 345.493 98.3588 344.874 98.8111C344.276 99.2677 343.385 99.922 342.34 100.734C340.259 102.381 337.558 104.686 335.056 107.338C334.437 108.001 333.826 108.686 333.242 109.393C332.645 110.095 332.044 110.811 331.499 111.553C331.346 111.751 331.218 111.953 331.065 112.163C330.463 107.654 329.62 103.171 328.513 98.7145C330.617 97.9242 332.311 96.5279 333.655 94.6969C335.745 91.9966 336.729 88.383 337.26 84.7299C337.387 83.821 337.506 82.9077 337.558 82.0076C337.576 81.1119 337.576 80.225 337.55 79.3688C337.497 77.652 337.37 76.0449 337.225 74.6706C337.106 73.2919 336.86 72.1503 336.676 71.36C336.483 70.5653 336.373 70.1086 336.373 70.1086C336.373 70.1086 335.249 71.259 333.703 73.1339C332.158 75.0087 329.971 77.6168 328.145 80.4972C327.205 81.9461 326.375 83.4478 325.633 85.0065C325.335 85.5817 325.084 86.1657 324.838 86.7452C322.99 81.6168 320.97 76.888 318.753 72.4752C321.045 71.461 322.634 69.6871 323.622 67.4215C324.755 64.5675 324.944 60.9056 324.531 57.3271C323.956 53.8232 322.955 50.3106 321.949 47.7815C320.882 45.292 320.013 43.6498 320.013 43.6498C320.013 43.6498 319.214 44.9012 318.186 46.9034C317.673 47.9045 317.106 49.0856 316.54 50.3897C315.991 51.685 315.337 53.1646 314.819 54.6751C314.283 56.1899 313.826 57.7618 313.528 59.3468C313.383 60.1372 313.264 60.9319 313.207 61.7222C313.194 62.0033 313.163 62.2974 313.141 62.5785C309.914 57.5027 306.358 52.7739 302.428 48.1899C303.512 47.6279 304.404 46.9078 305.071 46.034C305.897 44.9495 306.384 43.6542 306.59 42.2228C306.81 40.7914 306.757 39.2152 306.507 37.5862C306.261 35.9528 305.835 34.258 305.194 32.6861C303.952 29.5159 302.336 26.4073 300.922 24.2119C299.482 22.0516 298.393 20.6642 298.393 20.6642C298.393 20.6642 297.853 21.9199 297.242 23.9089C296.632 25.8979 295.965 28.5807 295.539 31.5884C295.135 34.5785 295.126 37.7267 295.956 40.6685C296.009 40.8749 296.061 41.0768 296.127 41.2788C291.543 36.4973 286.511 31.7552 281.014 26.7849C286.459 23.7157 284.983 17.2789 281.936 11.4435C280.377 8.56757 278.41 5.94628 276.865 3.99678C275.311 2.05606 274.16 0.822253 274.16 0.822253C274.16 0.822253 272.628 5.78383 272.685 11.4172C272.716 14.2405 273.185 17.1867 274.345 19.9529C274.59 20.5105 274.871 21.0505 275.188 21.5687C275.179 21.5643 275.179 21.5643 275.17 21.5599C270.16 17.1252 261.44 12.5412 261.44 12.5412C296.154 41.6169 322.656 76.7738 326.608 117.085C328.035 131.724 326.274 146.337 323.995 160.857C321.431 177.248 317.299 193.586 308.808 208.782C295.688 232.269 278.173 251.061 254.353 265.744C254.353 265.744 218.595 283.676 180.277 284.071V284.053C179.359 284.067 178.441 284.062 177.515 284.062C177.071 284.062 176.637 284.062 176.193 284.053V284.058C138.34 283.509 102.112 265.735 102.112 265.735C78.2878 251.048 60.7774 232.251 47.649 208.769C39.1573 193.581 35.0255 177.23 32.4613 160.848C30.1869 146.328 28.413 131.716 29.8444 117.077C33.8049 76.7694 60.3032 41.6081 95.0167 12.5324C95.0167 12.5324 86.2966 17.1164 81.2779 21.5511C81.2779 21.5555 81.2735 21.5555 81.2691 21.5555C81.5897 21.033 81.8707 20.5017 82.1122 19.9441C83.2714 17.1735 83.7412 14.2273 83.7719 11.404C83.8202 5.77504 82.2922 0.813477 82.2922 0.813477C82.2922 0.813477 81.1374 2.04728 79.5875 3.988C78.0419 5.9375 76.0661 8.56318 74.5074 11.4304C71.4602 17.2745 69.9937 23.7069 75.4382 26.7761C69.9322 31.7421 64.9091 36.4885 60.3164 41.2657C60.3823 41.0681 60.4393 40.8661 60.492 40.6553C61.3175 37.7179 61.3087 34.5697 60.9091 31.5796C60.4832 28.5719 59.8158 25.8848 59.2055 23.9001C58.5952 21.9111 58.0551 20.651 58.0551 20.651C58.0551 20.651 56.9662 22.0429 55.5305 24.2075C54.121 26.4029 52.4964 29.5116 51.2538 32.6817C50.6128 34.2492 50.1825 35.9484 49.941 37.5818C49.6907 39.2108 49.6424 40.7783 49.8488 42.2184C50.0683 43.6498 50.5513 44.9451 51.3812 46.0252C52.0486 46.9034 52.9311 47.6191 54.0288 48.1855C50.0991 52.7695 46.5338 57.5027 43.3109 62.5741C43.289 62.2887 43.267 62.0033 43.2451 61.7179C43.1836 60.9319 43.0826 60.1328 42.9245 59.3424C42.626 57.7574 42.1737 56.1855 41.638 54.6707C41.1112 53.1646 40.4569 51.685 39.9081 50.3897C39.3504 49.0812 38.7797 47.9045 38.2659 46.9034C37.2429 44.9012 36.4438 43.6498 36.4438 43.6498C36.4438 43.6498 35.5744 45.2832 34.5074 47.7815C33.4976 50.3106 32.5008 53.8189 31.9213 57.3271C31.5129 60.9056 31.7017 64.5675 32.8258 67.4215C33.8225 69.6827 35.4032 71.4566 37.7039 72.4709C35.4778 76.888 33.458 81.6168 31.6183 86.7452C31.3812 86.1569 31.1134 85.5817 30.8236 85.0021C30.0815 83.4478 29.2473 81.9417 28.3121 80.4972C26.4811 77.6124 24.2989 75.0087 22.7533 73.1339C21.2034 71.259 20.075 70.1086 20.075 70.1086C20.075 70.1086 19.9696 70.5653 19.772 71.3644C19.5876 72.1547 19.3417 73.2919 19.2232 74.675C19.0783 76.0449 18.9553 77.652 18.9026 79.3731C18.8763 80.2293 18.8763 81.1163 18.8938 82.012C18.9465 82.9165 19.0607 83.8254 19.188 84.7343C19.7325 88.3874 20.7116 91.9966 22.7972 94.7013C24.1452 96.5323 25.8444 97.9242 27.9432 98.7189C26.8324 103.171 25.9937 107.654 25.3878 112.168C25.2517 111.961 25.1068 111.759 24.9575 111.558C24.4087 110.815 23.8159 110.095 23.2144 109.397C22.6348 108.69 22.0245 108.01 21.3966 107.338C18.9026 104.69 16.1935 102.39 14.1167 100.739C13.0805 99.9176 12.1848 99.2634 11.5876 98.8023C10.9729 98.3588 10.626 98.1042 10.626 98.1042C10.626 98.1042 10.5953 98.5784 10.6173 99.3775C10.6656 100.177 10.7358 101.318 10.8807 102.688C11.0212 104.058 11.2276 105.652 11.5349 107.342C11.8115 109.046 12.3692 110.811 12.9575 112.576C13.5679 114.35 14.3055 116.102 15.1837 117.727C16.1013 119.338 17.199 120.831 18.4416 122.087C20.0881 123.759 22.0333 125.006 24.2857 125.626C24.1233 130.332 24.2023 135.053 24.4745 139.764C23.9959 139.14 23.4866 138.526 22.9553 137.928C21.682 136.484 20.2901 135.145 18.8368 133.898C15.9257 131.404 12.8434 129.318 10.4855 127.86C8.13646 126.385 6.55579 125.525 6.55579 125.525C6.55579 125.525 6.73581 127.356 7.39442 130.016C7.72373 131.351 8.14085 132.905 8.67214 134.556C8.93997 135.386 9.22538 136.238 9.55468 137.103C9.89716 137.981 10.2879 138.886 10.7007 139.781C11.5349 141.568 12.4877 143.342 13.5854 144.967C14.1343 145.779 14.7051 146.552 15.3285 147.276C15.9872 148.01 16.6765 148.69 17.3966 149.301C19.7896 151.351 22.5645 152.646 25.7127 152.787C26.4548 158.368 27.4295 163.926 28.6019 169.437C28.5009 169.283 28.4043 169.138 28.2945 168.993C25.8532 165.906 22.6875 163.14 19.3022 160.756C17.6205 159.566 15.8994 158.482 14.2704 157.516C12.637 156.55 11.1968 155.702 9.89277 155.022C7.31539 153.625 5.55908 152.84 5.55908 152.84C5.55908 152.84 5.98059 154.763 6.94656 157.59C8.05303 160.431 9.5898 164.163 11.8247 167.751C13.0014 169.542 14.3011 171.294 15.7149 172.875C17.1463 174.455 18.6128 175.878 20.3735 176.993C23.6271 179.118 27.1924 180.155 30.9729 179.483C31.1485 180.185 31.3329 180.879 31.5173 181.573C32.8214 186.504 34.4108 191.377 36.3076 196.168C35.9564 195.803 35.5876 195.443 35.21 195.088C34.4328 194.372 33.5898 193.7 32.716 193.041C31.8379 192.383 30.9992 191.737 30.0771 191.127C28.2462 189.898 26.2879 188.765 24.3121 187.746C22.3626 186.714 20.3121 185.797 18.5382 184.967C16.7468 184.146 15.0519 183.439 13.603 182.855C10.6919 181.696 8.738 181.055 8.738 181.055C8.738 181.055 9.56786 183.03 11.0739 185.889C11.8072 187.32 12.9356 188.958 14.0991 190.675C15.3022 192.396 16.6326 194.201 18.1255 195.917C19.7281 197.639 21.4537 199.285 23.2627 200.738C24.1628 201.467 25.0805 202.143 26.0157 202.754C26.4855 203.052 26.9553 203.347 27.4251 203.619C27.9301 203.887 28.4306 204.137 28.9268 204.361C32.7906 206.122 36.6984 206.657 40.4086 205.397C43.0694 210.767 46.1649 216.01 49.7434 221.081C49.177 220.655 48.5886 220.247 47.9739 219.865C46.9992 219.263 45.9717 218.701 44.918 218.17C43.9169 217.612 42.8631 217.098 41.7829 216.607C39.6359 215.628 37.3614 214.771 35.0958 214.003C33.963 213.63 32.8346 213.27 31.7237 212.927C30.6304 212.598 29.581 212.277 28.5799 211.974C26.5601 211.377 24.6677 210.877 23.0519 210.473C19.8071 209.669 17.6557 209.274 17.6557 209.274C17.6557 209.274 18.9817 211.206 21.221 213.968C22.2879 215.355 23.7983 216.883 25.4493 218.482C27.0958 220.084 28.9268 221.735 30.8587 223.303C32.9092 224.822 35.1134 226.244 37.3175 227.443C38.4196 228.049 39.5349 228.594 40.6413 229.072C41.739 229.555 42.8455 229.968 44.0047 230.258C48.4745 231.447 52.6325 231.351 56.0837 229.375C59.57 233.722 63.2538 238.104 67.1528 242.389C66.9904 242.319 66.8323 242.253 66.6742 242.187C66.099 241.959 65.5151 241.757 64.9267 241.551C64.3471 241.349 63.7895 241.129 63.2011 240.936C62.0332 240.541 60.8345 240.194 59.6139 239.865C57.1726 239.228 54.6435 238.727 52.1452 238.319C49.6029 237.937 47.2978 237.537 45.0672 237.261C42.8587 236.98 40.8038 236.765 39.0519 236.602C35.5524 236.291 33.2561 236.216 33.2561 236.216C33.2561 236.216 35.1221 237.981 38.1298 240.431C38.8763 241.041 39.7017 241.696 40.5799 242.376C41.4756 243.044 42.5074 243.698 43.5524 244.378C45.6556 245.731 47.9476 247.096 50.3274 248.37C50.9289 248.677 51.5129 248.997 52.1364 249.283C52.7686 249.564 53.4053 249.832 54.0464 250.095C55.3241 250.618 56.615 251.101 57.8883 251.522C60.4481 252.383 62.9684 253.006 65.3526 253.3C69.4185 253.731 73.0891 253.199 75.93 251.469C79.1265 254.556 82.4547 257.524 85.9234 260.33C84.874 260.176 83.807 260.04 82.7269 259.93C80.1012 259.667 77.3394 259.627 74.8235 259.518C69.7126 259.36 64.8169 259.579 61.1901 259.834C59.3724 259.957 57.8839 260.097 56.8521 260.198C55.8202 260.299 55.2538 260.356 55.2538 260.356C55.2538 260.356 55.3943 260.449 55.6534 260.629C55.9168 260.813 56.334 261.046 56.8521 261.349C57.8883 261.963 59.3899 262.82 61.2253 263.79C63.0562 264.773 65.2165 265.876 67.5743 266.973C70.0156 267.983 72.6764 268.98 75.3943 269.862C76.751 270.301 78.1341 270.71 79.4953 271.074C80.189 271.263 80.874 271.43 81.5589 271.597C82.2571 271.733 82.9596 271.86 83.6489 271.97C86.4415 272.413 89.1462 272.646 91.6402 272.576C95.0474 272.484 98.0199 271.799 100.365 270.389C101.664 271.149 102.977 271.882 104.312 272.58C104.606 272.738 104.843 272.787 105.019 272.756C123.03 282.67 145.317 288.769 163.662 290.96C148.97 293.691 131.706 296.703 113.37 299.496L93.5809 316.326C93.5809 316.326 138.108 301.493 179.64 292.045C221.172 301.493 265.699 316.326 265.699 316.326L245.91 299.496C227.104 296.633 209.427 293.537 194.494 290.754C217.212 288.167 236.281 281.502 251.578 272.756C251.736 272.738 251.903 272.699 252.118 272.585C253.453 271.882 254.766 271.149 256.066 270.389C258.397 271.799 261.383 272.484 264.786 272.576C267.275 272.642 269.985 272.413 272.773 271.966C273.466 271.851 274.173 271.728 274.871 271.592C275.561 271.425 276.241 271.259 276.931 271.074C278.301 270.705 279.679 270.293 281.036 269.858C283.75 268.975 286.415 267.979 288.856 266.973C291.214 265.876 293.379 264.773 295.21 263.786C297.04 262.815 298.538 261.963 299.587 261.344C300.105 261.041 300.518 260.804 300.781 260.629C301.045 260.444 301.177 260.352 301.177 260.352C301.177 260.352 300.615 260.299 299.587 260.194C298.551 260.093 297.054 259.957 295.24 259.829C291.618 259.575 286.727 259.36 281.611 259.513C279.095 259.623 276.338 259.663 273.703 259.935C272.632 260.036 271.561 260.172 270.511 260.33C273.976 257.524 277.308 254.556 280.505 251.469C283.346 253.199 287.016 253.726 291.078 253.296C293.462 253.002 295.987 252.378 298.538 251.522C299.82 251.101 301.111 250.613 302.384 250.091C303.029 249.836 303.666 249.564 304.298 249.283C304.922 248.993 305.506 248.672 306.107 248.365C308.487 247.092 310.779 245.726 312.882 244.378C313.923 243.698 314.95 243.048 315.85 242.376C316.733 241.696 317.559 241.041 318.309 240.431C321.313 237.981 323.174 236.216 323.174 236.216C323.174 236.216 320.887 236.29 317.392 236.607C315.631 236.769 313.58 236.98 311.376 237.261C309.146 237.542 306.841 237.933 304.298 238.319C301.804 238.727 299.271 239.228 296.825 239.865C295.605 240.194 294.406 240.541 293.242 240.936C292.654 241.129 292.096 241.349 291.512 241.555C290.924 241.757 290.344 241.963 289.774 242.192C289.607 242.253 289.453 242.319 289.291 242.389C293.194 238.104 296.874 233.726 300.36 229.375C303.82 231.351 307.978 231.447 312.439 230.258C313.602 229.968 314.7 229.555 315.811 229.076C316.913 228.593 318.028 228.049 319.126 227.443C321.33 226.244 323.539 224.822 325.58 223.303C327.512 221.739 329.352 220.089 331.003 218.486C332.65 216.892 334.16 215.355 335.223 213.968C337.457 211.215 338.788 209.274 338.788 209.274C338.788 209.274 336.632 209.674 333.396 210.473C331.776 210.877 329.888 211.377 327.868 211.974C326.863 212.277 325.813 212.602 324.715 212.927C323.605 213.27 322.481 213.625 321.352 214.007C319.082 214.767 316.812 215.632 314.661 216.607C313.58 217.103 312.531 217.617 311.526 218.17C310.476 218.701 309.444 219.268 308.478 219.865C307.855 220.251 307.271 220.655 306.696 221.081C310.274 216.01 313.379 210.767 316.031 205.397C319.75 206.657 323.653 206.122 327.508 204.365C328.013 204.137 328.513 203.891 329.018 203.619C329.493 203.347 329.958 203.057 330.428 202.754C331.367 202.148 332.285 201.467 333.185 200.738C334.985 199.294 336.715 197.643 338.322 195.917C339.82 194.196 341.146 192.392 342.344 190.675C343.508 188.954 344.641 187.316 345.365 185.889C346.876 183.035 347.706 181.055 347.706 181.055C347.706 181.055 345.747 181.696 342.845 182.855C341.387 183.439 339.701 184.146 337.905 184.967C336.131 185.797 334.081 186.723 332.127 187.746C330.156 188.769 328.193 189.893 326.371 191.127C325.444 191.737 324.601 192.383 323.728 193.041C322.845 193.7 322.002 194.381 321.229 195.092C320.847 195.448 320.483 195.803 320.136 196.168C322.033 191.382 323.622 186.504 324.931 181.573C325.124 180.87 325.304 180.176 325.484 179.483Z" fill="#F9B935" fill-opacity="0.34"/>
</g>
<path d="M85.9755 79.2615V102.301L70.7595 79.2615H64.0395V112.813H70.7595V89.8215L85.9755 112.813H92.6955V79.2615H85.9755ZM132.024 95.9655C132.024 85.9335 124.44 78.8295 114.888 78.8295C105.432 78.8295 97.7044 85.9335 97.7044 95.9655C97.7044 106.045 105.432 113.149 114.888 113.149C124.392 113.149 132.024 106.045 132.024 95.9655ZM104.616 95.9655C104.616 89.1495 108.792 84.8775 114.888 84.8775C120.936 84.8775 125.112 89.1495 125.112 95.9655C125.112 102.781 120.936 107.149 114.888 107.149C108.792 107.149 104.616 102.781 104.616 95.9655ZM135.248 84.7335H144.176V112.813H150.896V84.7335H159.824V79.3095H135.248V84.7335ZM182.885 94.5255V84.7815H188.213C192.005 84.7815 193.685 86.6055 193.685 89.6775C193.685 92.6535 192.005 94.5255 188.213 94.5255H182.885ZM200.597 89.6775C200.597 83.8695 196.565 79.3095 188.501 79.3095H176.165V112.813H182.885V99.9495H188.501C197.141 99.9495 200.597 94.7655 200.597 89.6775ZM228.12 112.813H235.224L223.176 79.2615H215.352L203.304 112.813H210.36L212.568 106.429H225.912L228.12 112.813ZM224.088 101.053H214.392L219.24 87.0375L224.088 101.053ZM263.151 103.117C263.151 91.3095 245.967 95.0535 245.967 88.3335C245.967 85.5975 247.935 84.3015 250.575 84.3975C253.455 84.4455 255.231 86.1735 255.375 88.3815H262.767C262.335 82.3335 257.631 78.8295 250.767 78.8295C243.855 78.8295 238.959 82.4775 238.959 88.5255C238.911 100.669 256.191 96.3015 256.191 103.549C256.191 105.949 254.319 107.629 251.151 107.629C248.031 107.629 246.255 105.853 246.063 103.165H238.863C238.959 109.501 244.335 113.149 251.295 113.149C258.927 113.149 263.151 108.397 263.151 103.117ZM292.401 103.117C292.401 91.3095 275.217 95.0535 275.217 88.3335C275.217 85.5975 277.185 84.3015 279.825 84.3975C282.705 84.4455 284.481 86.1735 284.625 88.3815H292.017C291.585 82.3335 286.881 78.8295 280.017 78.8295C273.105 78.8295 268.209 82.4775 268.209 88.5255C268.161 100.669 285.441 96.3015 285.441 103.549C285.441 105.949 283.569 107.629 280.401 107.629C277.281 107.629 275.505 105.853 275.313 103.165H268.113C268.209 109.501 273.585 113.149 280.545 113.149C288.177 113.149 292.401 108.397 292.401 103.117Z" fill="white"/>
<path d="M150.644 40.8135L146.66 33.9735H144.02V40.8135H141.836V24.0855H147.236C148.5 24.0855 149.564 24.3015 150.428 24.7335C151.308 25.1655 151.964 25.7495 152.396 26.4855C152.828 27.2215 153.044 28.0615 153.044 29.0055C153.044 30.1575 152.708 31.1735 152.036 32.0535C151.38 32.9335 150.388 33.5175 149.06 33.8055L153.26 40.8135H150.644ZM144.02 32.2215H147.236C148.42 32.2215 149.308 31.9335 149.9 31.3575C150.492 30.7655 150.788 29.9815 150.788 29.0055C150.788 28.0135 150.492 27.2455 149.9 26.7015C149.324 26.1575 148.436 25.8855 147.236 25.8855H144.02V32.2215ZM168.437 33.7335C168.437 34.1495 168.413 34.5895 168.365 35.0535H157.853C157.933 36.3495 158.373 37.3655 159.173 38.1015C159.989 38.8215 160.973 39.1815 162.125 39.1815C163.069 39.1815 163.853 38.9655 164.477 38.5335C165.117 38.0855 165.565 37.4935 165.821 36.7575H168.173C167.821 38.0215 167.117 39.0535 166.061 39.8535C165.005 40.6375 163.693 41.0295 162.125 41.0295C160.877 41.0295 159.757 40.7495 158.765 40.1895C157.789 39.6295 157.021 38.8375 156.461 37.8135C155.901 36.7735 155.621 35.5735 155.621 34.2135C155.621 32.8535 155.893 31.6615 156.437 30.6375C156.981 29.6135 157.741 28.8295 158.717 28.2855C159.709 27.7255 160.845 27.4455 162.125 27.4455C163.373 27.4455 164.477 27.7175 165.437 28.2615C166.397 28.8055 167.133 29.5575 167.645 30.5175C168.173 31.4615 168.437 32.5335 168.437 33.7335ZM166.181 33.2775C166.181 32.4455 165.997 31.7335 165.629 31.1415C165.261 30.5335 164.757 30.0775 164.117 29.7735C163.493 29.4535 162.797 29.2935 162.029 29.2935C160.925 29.2935 159.981 29.6455 159.197 30.3495C158.429 31.0535 157.989 32.0295 157.877 33.2775H166.181ZM175.976 41.0295C174.968 41.0295 174.064 40.8615 173.264 40.5255C172.464 40.1735 171.832 39.6935 171.368 39.0855C170.904 38.4615 170.648 37.7495 170.6 36.9495H172.856C172.92 37.6055 173.224 38.1415 173.768 38.5575C174.328 38.9735 175.056 39.1815 175.952 39.1815C176.784 39.1815 177.44 38.9975 177.92 38.6295C178.4 38.2615 178.64 37.7975 178.64 37.2375C178.64 36.6615 178.384 36.2375 177.872 35.9655C177.36 35.6775 176.568 35.3975 175.496 35.1255C174.52 34.8695 173.72 34.6135 173.096 34.3575C172.488 34.0855 171.96 33.6935 171.512 33.1815C171.08 32.6535 170.864 31.9655 170.864 31.1175C170.864 30.4455 171.064 29.8295 171.464 29.2695C171.864 28.7095 172.432 28.2695 173.168 27.9495C173.904 27.6135 174.744 27.4455 175.688 27.4455C177.144 27.4455 178.32 27.8135 179.216 28.5495C180.112 29.2855 180.592 30.2935 180.656 31.5735H178.472C178.424 30.8855 178.144 30.3335 177.632 29.9175C177.136 29.5015 176.464 29.2935 175.616 29.2935C174.832 29.2935 174.208 29.4615 173.744 29.7975C173.28 30.1335 173.048 30.5735 173.048 31.1175C173.048 31.5495 173.184 31.9095 173.456 32.1975C173.744 32.4695 174.096 32.6935 174.512 32.8695C174.944 33.0295 175.536 33.2135 176.288 33.4215C177.232 33.6775 178 33.9335 178.592 34.1895C179.184 34.4295 179.688 34.7975 180.104 35.2935C180.536 35.7895 180.76 36.4375 180.776 37.2375C180.776 37.9575 180.576 38.6055 180.176 39.1815C179.776 39.7575 179.208 40.2135 178.472 40.5495C177.752 40.8695 176.92 41.0295 175.976 41.0295ZM195.523 27.6615V40.8135H193.339V38.8695C192.923 39.5415 192.339 40.0695 191.587 40.4535C190.851 40.8215 190.035 41.0055 189.139 41.0055C188.115 41.0055 187.195 40.7975 186.379 40.3815C185.563 39.9495 184.915 39.3095 184.435 38.4615C183.971 37.6135 183.739 36.5815 183.739 35.3655V27.6615H185.899V35.0775C185.899 36.3735 186.227 37.3735 186.883 38.0775C187.539 38.7655 188.435 39.1095 189.571 39.1095C190.739 39.1095 191.659 38.7495 192.331 38.0295C193.003 37.3095 193.339 36.2615 193.339 34.8855V27.6615H195.523ZM201.395 23.0535V40.8135H199.211V23.0535H201.395ZM207.781 29.4615V37.2135C207.781 37.8535 207.917 38.3095 208.189 38.5815C208.461 38.8375 208.933 38.9655 209.605 38.9655H211.213V40.8135H209.245C208.029 40.8135 207.117 40.5335 206.509 39.9735C205.901 39.4135 205.597 38.4935 205.597 37.2135V29.4615H203.893V27.6615H205.597V24.3495H207.781V27.6615H211.213V29.4615H207.781Z" fill="#F9B935"/>
<defs>
<filter id="filter0_d_5469_14047" x="1.09814" y="93.9829" width="354.259" height="65.8306" filterUnits="userSpaceOnUse" color-interpolation-filters="sRGB">
<feFlood flood-opacity="0" result="BackgroundImageFix"/>
<feColorMatrix in="SourceAlpha" type="matrix" values="0 0 0 0 0 0 0 0 0 0 0 0 0 0 0 0 0 0 127 0" result="hardAlpha"/>
<feOffset dy="4"/>
<feGaussianBlur stdDeviation="5"/>
<feComposite in2="hardAlpha" operator="out"/>
<feColorMatrix type="matrix" values="0 0 0 0 0.270588 0 0 0 0 0.352941 0 0 0 0 0.392157 0 0 0 0.5 0"/>
<feBlend mode="normal" in2="BackgroundImageFix" result="effect1_dropShadow_5469_14047"/>
<feBlend mode="normal" in="SourceGraphic" in2="effect1_dropShadow_5469_14047" result="shape"/>
</filter>
</defs>
</svg>
