<svg width="325" height="340" viewBox="0 0 325 340" fill="none" xmlns="http://www.w3.org/2000/svg">
<path d="M273.794 339.089H272.984V270.125L246.25 233.532V201.211H247.06V233.264L273.794 269.866V339.089Z" fill="#EBEBEB"/>
<path d="M246.701 201.689C246.15 201.69 245.611 201.528 245.152 201.222C244.693 200.916 244.335 200.48 244.123 199.97C243.91 199.46 243.854 198.898 243.961 198.355C244.067 197.813 244.332 197.314 244.721 196.923C245.11 196.531 245.607 196.264 246.147 196.156C246.688 196.047 247.248 196.102 247.757 196.313C248.267 196.525 248.702 196.883 249.009 197.342C249.315 197.802 249.479 198.342 249.479 198.895C249.479 199.635 249.186 200.344 248.666 200.868C248.145 201.391 247.439 201.687 246.701 201.689ZM246.701 196.922C246.31 196.92 245.927 197.035 245.601 197.252C245.275 197.469 245.02 197.779 244.87 198.141C244.719 198.504 244.679 198.903 244.755 199.288C244.831 199.673 245.02 200.027 245.296 200.304C245.573 200.582 245.926 200.771 246.31 200.847C246.694 200.923 247.092 200.883 247.453 200.732C247.814 200.581 248.123 200.326 248.339 199.999C248.556 199.672 248.67 199.288 248.669 198.895C248.673 198.633 248.625 198.373 248.529 198.13C248.432 197.887 248.287 197.665 248.104 197.479C247.921 197.292 247.703 197.144 247.462 197.043C247.221 196.941 246.963 196.889 246.701 196.889V196.922Z" fill="#EBEBEB"/>
<path d="M266.909 339.089H266.1V274.552L239.365 237.951V220.02H240.175V237.683L266.909 274.284V339.089Z" fill="#EBEBEB"/>
<path d="M239.774 220.462C239.223 220.464 238.683 220.301 238.224 219.995C237.765 219.689 237.407 219.254 237.195 218.743C236.983 218.233 236.926 217.671 237.033 217.129C237.14 216.586 237.404 216.088 237.793 215.696C238.183 215.305 238.679 215.038 239.219 214.929C239.76 214.821 240.32 214.876 240.83 215.087C241.339 215.298 241.774 215.656 242.081 216.116C242.387 216.575 242.551 217.116 242.551 217.669C242.551 218.408 242.259 219.117 241.738 219.641C241.217 220.165 240.511 220.46 239.774 220.462ZM239.774 215.695C239.382 215.694 238.999 215.809 238.673 216.026C238.347 216.243 238.093 216.552 237.942 216.915C237.792 217.277 237.752 217.676 237.828 218.061C237.904 218.446 238.092 218.8 238.369 219.078C238.646 219.355 238.998 219.544 239.382 219.621C239.766 219.697 240.164 219.657 240.525 219.506C240.887 219.355 241.195 219.1 241.412 218.773C241.628 218.445 241.743 218.061 241.741 217.669C241.741 217.145 241.534 216.643 241.165 216.273C240.796 215.903 240.296 215.695 239.774 215.695Z" fill="#EBEBEB"/>
<path d="M280.431 229.117H279.621V339.091H280.431V229.117Z" fill="#EBEBEB"/>
<path d="M280.027 229.52C279.478 229.52 278.941 229.357 278.484 229.051C278.028 228.745 277.672 228.31 277.461 227.801C277.251 227.292 277.196 226.732 277.303 226.191C277.411 225.651 277.675 225.155 278.063 224.765C278.452 224.375 278.947 224.11 279.485 224.003C280.024 223.895 280.582 223.95 281.09 224.161C281.597 224.372 282.031 224.729 282.336 225.187C282.641 225.645 282.804 226.184 282.804 226.735C282.802 227.473 282.509 228.18 281.988 228.702C281.468 229.224 280.763 229.518 280.027 229.52ZM280.027 224.761C279.638 224.761 279.258 224.877 278.934 225.094C278.61 225.311 278.358 225.619 278.209 225.98C278.061 226.34 278.022 226.737 278.097 227.12C278.173 227.502 278.361 227.854 278.636 228.13C278.911 228.406 279.262 228.594 279.643 228.67C280.025 228.746 280.42 228.707 280.78 228.558C281.139 228.409 281.447 228.156 281.663 227.831C281.879 227.507 281.995 227.125 281.995 226.735C281.992 226.212 281.784 225.711 281.416 225.342C281.047 224.972 280.548 224.763 280.027 224.761Z" fill="#EBEBEB"/>
<path d="M286.819 338.482H286.01V281.01L304.154 246.675V176.258H304.963V246.878L286.819 281.213V338.482Z" fill="#EBEBEB"/>
<path d="M304.557 176.665C304.005 176.665 303.467 176.501 303.008 176.194C302.55 175.887 302.193 175.45 301.983 174.939C301.772 174.428 301.717 173.866 301.826 173.324C301.934 172.782 302.2 172.284 302.59 171.893C302.98 171.503 303.477 171.238 304.018 171.131C304.559 171.024 305.119 171.08 305.628 171.293C306.137 171.506 306.571 171.865 306.876 172.326C307.181 172.786 307.343 173.327 307.342 173.88C307.34 174.619 307.045 175.328 306.523 175.85C306.001 176.372 305.294 176.665 304.557 176.665ZM304.557 171.898C304.166 171.898 303.784 172.015 303.459 172.232C303.134 172.45 302.881 172.759 302.731 173.122C302.582 173.484 302.543 173.882 302.619 174.266C302.695 174.651 302.883 175.004 303.16 175.281C303.436 175.558 303.788 175.747 304.171 175.823C304.554 175.9 304.952 175.861 305.313 175.711C305.674 175.561 305.982 175.307 306.199 174.981C306.416 174.655 306.532 174.272 306.532 173.88C306.532 173.354 306.324 172.85 305.954 172.479C305.583 172.107 305.081 171.898 304.557 171.898Z" fill="#EBEBEB"/>
<path d="M293.167 338.608H292.357V284.677L292.406 284.588L313.756 246.72V206.277H314.566V246.931L314.509 247.02L293.167 284.888V338.608Z" fill="#EBEBEB"/>
<path d="M314.16 206.68C313.611 206.68 313.074 206.517 312.617 206.211C312.16 205.905 311.804 205.47 311.594 204.961C311.384 204.452 311.329 203.892 311.436 203.351C311.543 202.811 311.808 202.315 312.196 201.925C312.585 201.536 313.079 201.27 313.618 201.163C314.157 201.055 314.715 201.111 315.223 201.321C315.73 201.532 316.164 201.889 316.469 202.347C316.774 202.805 316.937 203.344 316.937 203.895C316.935 204.633 316.642 205.34 316.121 205.862C315.601 206.384 314.896 206.678 314.16 206.68ZM314.16 201.921C313.771 201.921 313.39 202.037 313.067 202.254C312.743 202.471 312.491 202.779 312.342 203.14C312.193 203.5 312.154 203.897 312.23 204.28C312.306 204.663 312.494 205.014 312.769 205.29C313.044 205.566 313.394 205.754 313.776 205.83C314.158 205.906 314.553 205.867 314.913 205.718C315.272 205.569 315.58 205.316 315.796 204.991C316.012 204.667 316.127 204.285 316.127 203.895C316.125 203.372 315.917 202.871 315.549 202.502C315.18 202.132 314.681 201.924 314.16 201.921Z" fill="#EBEBEB"/>
<path d="M52.0069 339.087H51.1973V198.213L77.9397 161.612V129.559H78.7494V161.88L52.0069 198.481V339.087Z" fill="#EBEBEB"/>
<path d="M78.344 130.005C77.7925 130.007 77.2529 129.844 76.7936 129.538C76.3344 129.231 75.9761 128.795 75.7643 128.284C75.5525 127.774 75.4967 127.211 75.6039 126.669C75.7111 126.126 75.9765 125.627 76.3665 125.236C76.7565 124.845 77.2535 124.579 77.7946 124.471C78.3356 124.364 78.8963 124.42 79.4055 124.632C79.9148 124.845 80.3497 125.204 80.6551 125.665C80.9605 126.125 81.1227 126.666 81.1211 127.22C81.119 127.958 80.8257 128.665 80.3054 129.187C79.785 129.709 79.0799 130.003 78.344 130.005ZM78.344 125.238C77.953 125.237 77.5702 125.351 77.2443 125.568C76.9184 125.785 76.6639 126.094 76.5131 126.456C76.3624 126.818 76.3221 127.216 76.3974 127.601C76.4727 127.986 76.6602 128.34 76.9362 128.618C77.2121 128.896 77.5641 129.085 77.9476 129.163C78.331 129.24 78.7286 129.201 79.0901 129.051C79.4515 128.901 79.7605 128.647 79.978 128.321C80.1954 127.995 80.3115 127.612 80.3115 127.22C80.3115 126.696 80.1045 126.193 79.7357 125.821C79.367 125.45 78.8666 125.24 78.344 125.238Z" fill="#EBEBEB"/>
<path d="M58.8956 339.084H58.0859V202.636L58.1669 202.522L84.8203 166.034V148.363H85.63V166.302L58.8956 202.895V339.084Z" fill="#EBEBEB"/>
<path d="M85.2268 148.81C84.6753 148.811 84.1357 148.649 83.6764 148.342C83.2172 148.036 82.859 147.6 82.6471 147.089C82.4353 146.578 82.3795 146.016 82.4867 145.473C82.5939 144.931 82.8594 144.432 83.2494 144.041C83.6394 143.65 84.1364 143.383 84.6774 143.276C85.2184 143.168 85.7791 143.224 86.2883 143.437C86.7976 143.649 87.2325 144.009 87.5379 144.469C87.8433 144.93 88.0055 145.471 88.0039 146.024C88.0018 146.762 87.7085 147.47 87.1882 147.992C86.6678 148.514 85.9627 148.808 85.2268 148.81ZM85.2268 144.043C84.8358 144.041 84.453 144.156 84.1271 144.373C83.8012 144.59 83.5467 144.899 83.3959 145.26C83.2452 145.622 83.2049 146.021 83.2802 146.406C83.3555 146.791 83.543 147.145 83.819 147.423C84.0949 147.701 84.4469 147.89 84.8304 147.967C85.2138 148.044 85.6114 148.006 85.9729 147.856C86.3343 147.706 86.6433 147.452 86.8608 147.126C87.0782 146.8 87.1943 146.417 87.1943 146.024C87.1964 145.763 87.1472 145.505 87.0493 145.263C86.9515 145.021 86.8071 144.801 86.6243 144.616C86.4415 144.43 86.2239 144.282 85.9841 144.181C85.7443 144.08 85.487 144.028 85.2268 144.027V144.043Z" fill="#EBEBEB"/>
<path d="M45.376 121.652H44.5664V339.099H45.376V121.652Z" fill="#EBEBEB"/>
<path d="M44.9707 122.052C44.4199 122.052 43.8814 121.888 43.4234 121.581C42.9653 121.274 42.6084 120.838 42.3976 120.328C42.1868 119.817 42.1316 119.255 42.2391 118.713C42.3465 118.172 42.6118 117.674 43.0013 117.283C43.3908 116.892 43.8871 116.626 44.4274 116.519C44.9676 116.411 45.5276 116.466 46.0366 116.677C46.5455 116.889 46.9805 117.247 47.2865 117.706C47.5925 118.166 47.7559 118.706 47.7559 119.258C47.7559 119.999 47.4624 120.71 46.9401 121.234C46.4178 121.758 45.7094 122.052 44.9707 122.052ZM44.9707 117.285C44.5796 117.285 44.1974 117.401 43.8723 117.62C43.5473 117.838 43.2941 118.148 43.1448 118.51C42.9955 118.873 42.9569 119.272 43.0338 119.656C43.1106 120.041 43.2996 120.394 43.5767 120.671C43.8538 120.947 44.2066 121.135 44.5903 121.211C44.974 121.287 45.3715 121.246 45.7323 121.095C46.0932 120.944 46.4012 120.688 46.6173 120.362C46.8333 120.035 46.9478 119.651 46.9462 119.258C46.9462 118.999 46.8951 118.741 46.7957 118.501C46.6963 118.261 46.5507 118.044 46.3671 117.86C46.1836 117.677 45.9657 117.532 45.7261 117.433C45.4865 117.334 45.2298 117.284 44.9707 117.285Z" fill="#EBEBEB"/>
<path d="M38.9889 338.485H38.1792V209.565L20.0352 175.229V95.6602H20.8448V175.026L38.9889 209.37V338.485Z" fill="#EBEBEB"/>
<path d="M20.4389 96.0676C19.8887 96.0644 19.3519 95.8979 18.896 95.589C18.4401 95.28 18.0856 94.8426 17.8773 94.3319C17.669 93.8212 17.6161 93.26 17.7254 92.7191C17.8347 92.1783 18.1012 91.6821 18.4914 91.293C18.8815 90.9039 19.3778 90.6395 19.9177 90.533C20.4575 90.4265 21.0167 90.4827 21.5246 90.6947C22.0326 90.9066 22.4666 91.2646 22.772 91.7237C23.0773 92.1827 23.2403 92.7222 23.2403 93.274C23.2403 93.6423 23.1677 94.0069 23.0267 94.3469C22.8857 94.6869 22.6791 94.9956 22.4188 95.2552C22.1584 95.5148 21.8495 95.7202 21.5097 95.8597C21.1699 95.9991 20.806 96.0698 20.4389 96.0676ZM20.4389 91.3006C20.0485 91.3039 19.6679 91.423 19.345 91.643C19.0221 91.8631 18.7714 92.1741 18.6246 92.5369C18.4778 92.8998 18.4414 93.2981 18.5201 93.6816C18.5988 94.0651 18.7891 94.4166 19.0668 94.6918C19.3445 94.967 19.6973 95.1534 20.0806 95.2277C20.4639 95.3019 20.8605 95.2606 21.2204 95.1089C21.5803 94.9572 21.8873 94.702 22.1027 94.3754C22.3181 94.0488 22.4322 93.6656 22.4306 93.274C22.4306 93.0128 22.379 92.7542 22.2786 92.5132C22.1782 92.2722 22.0311 92.0535 21.8458 91.87C21.6605 91.6864 21.4408 91.5415 21.1993 91.4438C20.9578 91.3461 20.6993 91.2974 20.4389 91.3006Z" fill="#EBEBEB"/>
<path d="M32.6382 338.607H31.8285V213.244L10.4297 175.287V125.676H11.2393V175.067L32.6382 213.033V338.607Z" fill="#EBEBEB"/>
<path d="M10.8379 126.083C10.2867 126.083 9.74789 125.919 9.2897 125.612C8.8315 125.305 8.47453 124.868 8.26396 124.357C8.0534 123.846 7.99872 123.284 8.10685 122.742C8.21497 122.2 8.48104 121.702 8.87136 121.311C9.26168 120.921 9.75871 120.656 10.2995 120.549C10.8403 120.442 11.4006 120.498 11.9093 120.711C12.4181 120.924 12.8526 121.283 13.1576 121.744C13.4627 122.204 13.6247 122.745 13.6231 123.298C13.6209 124.037 13.3265 124.746 12.8044 125.268C12.2824 125.79 11.5752 126.083 10.8379 126.083ZM10.8379 121.316C10.4472 121.316 10.0652 121.433 9.74035 121.65C9.41548 121.868 9.16227 122.177 9.01274 122.54C8.86322 122.902 8.8241 123.3 8.90032 123.684C8.97655 124.069 9.1647 124.422 9.44098 124.699C9.71727 124.976 10.0693 125.165 10.4525 125.241C10.8357 125.318 11.2329 125.278 11.5939 125.129C11.9549 124.979 12.2634 124.725 12.4805 124.399C12.6976 124.073 12.8134 123.69 12.8134 123.298C12.8177 123.035 12.7698 122.774 12.6723 122.531C12.5749 122.287 12.4299 122.065 12.2459 121.878C12.0619 121.692 11.8426 121.544 11.6008 121.443C11.3591 121.342 11.0997 121.291 10.8379 121.292V121.316Z" fill="#EBEBEB"/>
<g opacity="0.5">
<path d="M43.2872 55.1792C39.1237 55.1792 35.0538 56.4175 31.592 58.7376C28.1302 61.0577 25.4321 64.3553 23.8389 68.2135C22.2456 72.0717 21.8287 76.3171 22.6409 80.4129C23.4532 84.5087 25.4581 88.271 28.4021 91.2239C31.3461 94.1768 35.0969 96.1878 39.1804 97.0025C43.2638 97.8172 47.4964 97.399 51.3429 95.8009C55.1894 94.2028 58.4771 91.4965 60.7902 88.0243C63.1032 84.552 64.3378 80.4697 64.3378 76.2937C64.325 70.6977 62.1031 65.3346 58.1581 61.3777C54.2131 57.4207 48.8662 55.1921 43.2872 55.1792ZM43.2872 92.9498C40.005 92.953 36.7957 91.9796 34.0652 90.1528C31.3348 88.326 29.206 85.7278 27.9481 82.6871C26.6902 79.6464 26.3598 76.2997 26.9988 73.0706C27.6377 69.8415 29.2173 66.8751 31.5375 64.5467C33.8578 62.2182 36.8145 60.6325 40.0335 59.99C43.2525 59.3476 46.5892 59.6773 49.6214 60.9375C52.6535 62.1977 55.2449 64.3317 57.0675 67.0695C58.8901 69.8074 59.8621 73.026 59.8605 76.318C59.8584 80.727 58.1118 84.9548 55.0044 88.0732C51.897 91.1916 47.6828 92.9455 43.2872 92.9498ZM43.2872 55.1792C39.1237 55.1792 35.0538 56.4175 31.592 58.7376C28.1302 61.0577 25.4321 64.3553 23.8389 68.2135C22.2456 72.0717 21.8287 76.3171 22.6409 80.4129C23.4532 84.5087 25.4581 88.271 28.4021 91.2239C31.3461 94.1768 35.0969 96.1878 39.1804 97.0025C43.2638 97.8172 47.4964 97.399 51.3429 95.8009C55.1894 94.2028 58.4771 91.4965 60.7902 88.0243C63.1032 84.552 64.3378 80.4697 64.3378 76.2937C64.325 70.6977 62.1031 65.3346 58.1581 61.3777C54.2131 57.4207 48.8662 55.1921 43.2872 55.1792ZM43.2872 92.9498C40.005 92.953 36.7957 91.9796 34.0652 90.1528C31.3348 88.326 29.206 85.7278 27.9481 82.6871C26.6902 79.6464 26.3598 76.2997 26.9988 73.0706C27.6377 69.8415 29.2173 66.8751 31.5375 64.5467C33.8578 62.2182 36.8145 60.6325 40.0335 59.99C43.2525 59.3476 46.5892 59.6773 49.6214 60.9375C52.6535 62.1977 55.2449 64.3317 57.0675 67.0695C58.8901 69.8074 59.8621 73.026 59.8605 76.318C59.8584 80.727 58.1118 84.9548 55.0044 88.0732C51.897 91.1916 47.6828 92.9455 43.2872 92.9498ZM43.2872 40.6914C36.2615 40.6882 29.3926 42.7749 23.5494 46.6877C17.7062 50.6004 13.1512 56.1634 10.4603 62.6731C7.76951 69.1827 7.0638 76.3465 8.43248 83.2585C9.80116 90.1705 13.1827 96.52 18.1495 101.504C23.1163 106.488 29.4451 109.883 36.3356 111.259C43.226 112.635 50.3686 111.93 56.8598 109.234C63.3509 106.538 68.8992 101.972 72.8028 96.1128C76.7064 90.2537 78.79 83.365 78.79 76.318C78.79 66.8721 75.05 57.8128 68.3924 51.1319C61.7348 44.4511 52.7046 40.6957 43.2872 40.6914ZM43.2872 99.4709C38.7192 99.4741 34.2528 98.1183 30.4532 95.5749C26.6536 93.0315 23.6915 89.4149 21.9415 85.1826C20.1916 80.9503 19.7325 76.2925 20.6223 71.7984C21.5121 67.3043 23.7108 63.1759 26.9403 59.9355C30.1698 56.6951 34.285 54.4883 38.7651 53.5942C43.2453 52.7001 47.8892 53.159 52.1094 54.9128C56.3295 56.6665 59.9362 59.6364 62.4732 63.4466C65.0102 67.2568 66.3636 71.7362 66.3619 76.318C66.3534 82.4545 63.9198 88.3373 59.5945 92.6772C55.2693 97.0171 49.4051 99.4601 43.2872 99.4709ZM43.2872 55.1792C39.1237 55.1792 35.0538 56.4175 31.592 58.7376C28.1302 61.0577 25.4321 64.3553 23.8389 68.2135C22.2456 72.0717 21.8287 76.3171 22.6409 80.4129C23.4532 84.5087 25.4581 88.271 28.4021 91.2239C31.3461 94.1768 35.0969 96.1878 39.1804 97.0025C43.2638 97.8172 47.4964 97.399 51.3429 95.8009C55.1894 94.2028 58.4771 91.4965 60.7902 88.0243C63.1032 84.552 64.3378 80.4697 64.3378 76.2937C64.325 70.6977 62.1031 65.3346 58.1581 61.3777C54.2131 57.4207 48.8662 55.1921 43.2872 55.1792ZM43.2872 92.9498C40.005 92.953 36.7957 91.9796 34.0652 90.1528C31.3348 88.326 29.206 85.7278 27.9481 82.6871C26.6902 79.6464 26.3598 76.2997 26.9988 73.0706C27.6377 69.8415 29.2173 66.8751 31.5375 64.5467C33.8578 62.2182 36.8145 60.6325 40.0335 59.99C43.2525 59.3476 46.5892 59.6773 49.6214 60.9375C52.6535 62.1977 55.2449 64.3317 57.0675 67.0695C58.8901 69.8074 59.8621 73.026 59.8605 76.318C59.8584 80.727 58.1118 84.9548 55.0044 88.0732C51.897 91.1916 47.6828 92.9455 43.2872 92.9498Z" fill="#EBEBEB"/>
<path d="M47.4494 41.3325H39.3125L40.1221 33.1953H46.6398L47.4494 41.3325Z" fill="#EBEBEB"/>
<path d="M29.4505 43.932L22.4066 48.0087L19.0547 40.5537L24.6898 37.2891L29.4505 43.932Z" fill="#EBEBEB"/>
<path d="M15.1599 55.2022L11.0955 62.2593L4.47266 57.4923L7.72742 51.832L15.1599 55.2022Z" fill="#EBEBEB"/>
<path d="M8.39972 72.125V80.2866L0.287109 79.4745V72.9371L8.39972 72.125Z" fill="#EBEBEB"/>
<path d="M10.9901 90.1797L15.0545 97.2449L7.62195 100.607L4.36719 94.9548L10.9901 90.1797Z" fill="#EBEBEB"/>
<path d="M22.2292 104.516L29.273 108.592L24.5123 115.235L18.8691 111.971L22.2292 104.516Z" fill="#EBEBEB"/>
<path d="M39.1016 111.293H47.2385L46.4288 119.43H39.9112L39.1016 111.293Z" fill="#EBEBEB"/>
<path d="M57.1016 108.694L64.1455 104.617L67.4974 112.072L61.8623 115.337L57.1016 108.694Z" fill="#EBEBEB"/>
<path d="M71.3887 97.4207L75.4531 90.3555L82.084 95.1306L78.8212 100.791L71.3887 97.4207Z" fill="#EBEBEB"/>
<path d="M78.1504 80.4972V72.3438L86.263 73.1558V79.6851L78.1504 80.4972Z" fill="#EBEBEB"/>
<path d="M75.5585 62.4471L71.4941 55.3819L78.9266 52.0117L82.1895 57.672L75.5585 62.4471Z" fill="#EBEBEB"/>
<path d="M64.3209 48.1103L57.2852 44.0336L62.0378 37.3906L67.681 40.6552L64.3209 48.1103Z" fill="#EBEBEB"/>
<path d="M31.8555 79.7113L40.5024 87.9297L51.9184 84.5351L54.7036 72.9221L46.0566 64.6875L34.6325 68.0821L31.8555 79.7113ZM39.4985 76.406C39.4795 75.6563 39.6826 74.9178 40.0821 74.2838C40.4815 73.6498 41.0594 73.1488 41.7427 72.8443C42.4259 72.5397 43.1839 72.4451 43.9207 72.5725C44.6576 72.7 45.3402 73.0437 45.8823 73.5602C46.4245 74.0767 46.8017 74.7428 46.9664 75.4744C47.1312 76.2059 47.0759 76.97 46.8078 77.6701C46.5396 78.3702 46.0705 78.9748 45.4598 79.4075C44.849 79.8402 44.1241 80.0816 43.3767 80.1011C42.8801 80.114 42.3858 80.0287 41.9222 79.85C41.4585 79.6713 41.0344 79.4027 40.6743 79.0596C40.3141 78.7164 40.0249 78.3054 39.8232 77.8501C39.6214 77.3948 39.5111 76.9041 39.4985 76.406Z" fill="#EBEBEB"/>
</g>
<path d="M299.204 132.096C295.116 132.197 291.149 133.512 287.806 135.875C284.463 138.238 281.894 141.543 280.424 145.371C278.954 149.199 278.65 153.378 279.549 157.38C280.447 161.382 282.51 165.026 285.474 167.852C288.439 170.678 292.173 172.558 296.203 173.254C300.233 173.951 304.379 173.433 308.115 171.765C311.852 170.098 315.011 167.356 317.194 163.887C319.376 160.418 320.484 156.377 320.376 152.277C320.232 146.786 317.921 141.577 313.952 137.794C309.982 134.01 304.678 131.961 299.204 132.096ZM300.135 166.285C297.481 166.355 294.865 165.634 292.62 164.213C290.374 162.791 288.599 160.734 287.519 158.301C286.44 155.868 286.104 153.168 286.554 150.543C287.004 147.918 288.22 145.486 290.048 143.555C291.876 141.623 294.235 140.279 296.825 139.692C299.415 139.105 302.12 139.302 304.599 140.257C307.077 141.212 309.218 142.884 310.749 145.059C312.281 147.235 313.135 149.817 313.203 152.48C313.249 154.247 312.948 156.006 312.316 157.657C311.684 159.307 310.734 160.816 309.521 162.098C308.307 163.381 306.854 164.41 305.243 165.129C303.633 165.847 301.897 166.24 300.135 166.285Z" fill="#EBEBEB"/>
<path d="M303.198 132.847L295.256 133.058L295.547 127.406L302.616 127.219L303.198 132.847Z" fill="#EBEBEB"/>
<path d="M288.148 135.932L282.683 141.714L278.902 137.516L283.768 132.367L288.148 135.932Z" fill="#EBEBEB"/>
<path d="M279.679 148.797L279.89 156.764L274.255 156.471L274.068 149.382L279.679 148.797Z" fill="#EBEBEB"/>
<path d="M282.755 163.891L288.52 169.372L284.334 173.165L279.201 168.284L282.755 163.891Z" fill="#EBEBEB"/>
<path d="M295.572 172.387L303.523 172.176L303.231 177.828L296.163 178.015L295.572 172.387Z" fill="#EBEBEB"/>
<path d="M310.631 169.302L316.096 163.52L319.877 167.718L315.011 172.867L310.631 169.302Z" fill="#EBEBEB"/>
<path d="M319.099 156.439L318.889 148.473L324.524 148.765L324.71 155.855L319.099 156.439Z" fill="#EBEBEB"/>
<path d="M316.024 141.341L310.26 135.859L314.446 132.066L319.579 136.947L316.024 141.341Z" fill="#EBEBEB"/>
<path d="M92.3107 5.15966C88.2245 5.26699 84.2618 6.5871 80.9235 8.9531C77.5852 11.3191 75.0213 14.6248 73.5558 18.4522C72.0903 22.2796 71.7891 26.4569 72.6902 30.456C73.5913 34.4551 75.6543 38.0964 78.6184 40.9196C81.5825 43.7429 85.3146 45.6212 89.3428 46.3172C93.3711 47.0132 97.5146 46.4957 101.25 44.8299C104.985 43.1642 108.143 40.4251 110.327 36.9589C112.51 33.4927 113.62 29.4551 113.515 25.3565C113.447 22.6332 112.844 19.9501 111.741 17.4607C110.638 14.9713 109.057 12.7245 107.088 10.8486C105.118 8.9728 102.799 7.50482 100.264 6.52865C97.7282 5.55248 95.0257 5.08728 92.3107 5.15966ZM93.2094 39.3408C90.5547 39.4122 87.9386 38.6922 85.6919 37.2719C83.4453 35.8517 81.6691 33.795 80.5881 31.3619C79.5071 28.9289 79.1699 26.229 79.6191 23.6037C80.0682 20.9784 81.2836 18.5457 83.1115 16.6134C84.9394 14.6811 87.2976 13.336 89.8878 12.7483C92.4779 12.1606 95.1837 12.3567 97.6628 13.3118C100.142 14.2669 102.283 15.9381 103.815 18.1139C105.347 20.2897 106.201 22.8723 106.269 25.5351C106.363 29.1045 105.04 32.5652 102.591 35.1569C100.142 37.7486 96.7679 39.2592 93.2094 39.357V39.3408Z" fill="#EBEBEB"/>
<path d="M96.3042 5.93251L88.3535 6.14365L88.645 0.48335L95.7132 0.304688L96.3042 5.93251Z" fill="#EBEBEB"/>
<path d="M81.2522 9.01432L75.7791 14.7964L71.998 10.5898L76.864 5.44922L81.2522 9.01432Z" fill="#EBEBEB"/>
<path d="M72.781 21.8711L72.9834 29.8377L67.3483 29.5535L67.1621 22.4639L72.781 21.8711Z" fill="#EBEBEB"/>
<path d="M75.859 36.9727L81.6237 42.4624L77.4297 46.2549L72.3047 41.3742L75.859 36.9727Z" fill="#EBEBEB"/>
<path d="M88.6758 45.4611L96.6184 45.25L96.3269 50.9103L89.2587 51.0971L88.6758 45.4611Z" fill="#EBEBEB"/>
<path d="M103.729 42.3837L109.202 36.6016L112.983 40.8082L108.117 45.9488L103.729 42.3837Z" fill="#EBEBEB"/>
<path d="M112.195 29.5252L111.984 21.5586L117.619 21.8509L117.806 28.9324L112.195 29.5252Z" fill="#EBEBEB"/>
<path d="M109.12 14.4268L103.355 8.93702L107.549 5.14453L112.674 10.0252L109.12 14.4268Z" fill="#EBEBEB"/>
<path d="M174.488 248.562L173.727 248.27C177.557 238.127 181.823 202.451 161.542 177.26C155.785 170.106 148.134 163.251 140.734 156.633C131.334 148.22 122.46 140.269 117.182 131.775C111.692 122.915 110.3 112.13 113.554 103.611C114.633 100.622 116.402 97.9319 118.717 95.7609C121.032 93.5899 123.827 91.9999 126.873 91.1211L127.092 91.9332C124.163 92.7768 121.476 94.3043 119.249 96.3906C117.023 98.4769 115.321 101.063 114.283 103.936C111.109 112.219 112.477 122.736 117.837 131.377C123.051 139.774 131.885 147.684 141.244 156.056C148.668 162.707 156.344 169.578 162.141 176.781C182.641 202.216 178.358 238.297 174.488 248.562Z" fill="#263238"/>
<path d="M176.657 239.853H175.847C176.414 223.847 174.916 194.473 158.586 177.655C156.456 175.47 154.019 173.074 151.445 170.541C138.15 157.49 119.958 139.624 117.132 122.408C113.78 102.008 126.678 94.025 126.807 93.9844L127.22 94.6828C127.099 94.7559 114.671 102.487 117.925 122.294C120.711 139.242 138.798 157.003 152.011 169.98C154.594 172.514 157.031 174.91 159.161 177.102C175.71 194.075 177.224 223.692 176.657 239.853Z" fill="#263238"/>
<path d="M77.6065 311.73C77.0883 310.26 64.8142 275.454 64.8142 258.343C64.6828 249.1 68.1408 240.168 74.457 233.436C81.9057 225.567 92.9573 220.881 107.32 219.492L107.474 221.116C69.421 224.779 66.4334 250.539 66.4334 258.343C66.4334 275.178 79.0072 310.829 79.1367 311.186L77.6065 311.73Z" fill="#263238"/>
<path d="M72.4804 313.66C72.2214 312.117 66.3434 275.743 68.5618 258.803C71.1445 239.053 83.0706 228.317 107.255 223.988L107.538 225.612C83.8478 229.827 72.6748 239.857 70.1973 259.014C68.0112 275.719 74.0431 313.018 74.1078 313.424L72.4804 313.66Z" fill="#263238"/>
<path d="M257.897 312.134L256.464 311.322C256.586 311.103 268.252 288.844 264.755 269.816C263.014 260.363 255.039 244.698 220.953 245.762L220.896 244.138C256.197 243.001 264.512 259.567 266.342 269.524C269.953 289.136 258.391 311.184 257.897 312.134Z" fill="#263238"/>
<path d="M261.734 315.643L260.115 315.415C260.164 315.098 264.584 283.232 261.079 270.75C257.03 256.408 245.137 249.976 221.244 249.237L221.301 247.613C246.019 248.377 258.382 255.166 262.641 270.311C266.252 283.126 261.921 314.327 261.734 315.643Z" fill="#263238"/>
<path d="M180.043 82.4633L171.266 63.2734L122.938 83.4459C121.378 84.071 119.961 85.0074 118.772 86.1983C117.583 87.3891 116.648 88.8096 116.022 90.3738C115.397 91.938 115.095 93.6132 115.134 95.2979C115.174 96.9827 115.553 98.6419 116.251 100.175C116.952 101.708 117.956 103.081 119.203 104.212C120.449 105.344 121.912 106.208 123.503 106.755C125.093 107.301 126.778 107.517 128.454 107.389C130.13 107.262 131.763 106.794 133.253 106.014L180.043 82.4633Z" fill="#FFBC32"/>
<path d="M244.799 78.6752L246.046 69.8802L256.806 69.7422L259.065 77.4652L244.799 78.6752Z" fill="#FFBC32"/>
<path d="M236.409 67.2422L246.027 69.8977L242.392 78.3598L215.066 73.7065L236.409 67.2422Z" fill="#FFBC32"/>
<path d="M256.803 69.744L260.883 76.9878L270.405 70.4261L267.903 66.7148L256.803 69.744Z" fill="#FFBC32"/>
<path d="M246.045 69.8867L242.58 77.9346L244.863 78.2107L246.045 69.8867Z" fill="#37474F"/>
<path d="M256.803 69.7422L258.924 76.978L260.584 76.4745L256.803 69.7422Z" fill="#37474F"/>
<path opacity="0.1" d="M240.846 76.3738C240.476 76.5627 240.058 76.6341 239.647 76.5785C239.236 76.523 238.851 76.3431 238.545 76.0628C238.238 75.7825 238.024 75.4152 237.931 75.0098C237.838 74.6043 237.87 74.1801 238.024 73.7935C238.177 73.407 238.444 73.0765 238.79 72.8462C239.135 72.6158 239.542 72.4966 239.957 72.5043C240.372 72.512 240.774 72.6463 241.111 72.8893C241.448 73.1323 241.702 73.4724 241.841 73.8644C242.011 74.3324 242.004 74.8466 241.82 75.3093C241.636 75.7719 241.29 76.1508 240.846 76.3738ZM239.623 73.0442C239.365 73.1871 239.154 73.4012 239.014 73.6611C238.874 73.9211 238.811 74.2158 238.833 74.5104C238.856 74.805 238.961 75.087 239.139 75.3229C239.316 75.5589 239.557 75.7388 239.833 75.8414C240.109 75.944 240.409 75.9649 240.697 75.9017C240.984 75.8385 241.248 75.6937 241.456 75.4847C241.664 75.2756 241.808 75.011 241.871 74.7224C241.933 74.4337 241.912 74.1331 241.809 73.8563C241.733 73.6474 241.613 73.4576 241.456 73.2999C241.3 73.1423 241.111 73.0207 240.903 72.9435C240.695 72.8662 240.473 72.8352 240.252 72.8526C240.031 72.87 239.816 72.9354 239.623 73.0442Z" fill="black"/>
<path opacity="0.1" d="M256.14 77.1678C255.8 77.4034 255.397 77.5297 254.984 77.5298C254.571 77.53 254.168 77.404 253.828 77.1686C253.489 76.9332 253.228 76.5995 253.082 76.2121C252.936 75.8247 252.912 75.4019 253.011 75C253.111 74.5981 253.33 74.2361 253.64 73.9623C253.949 73.6884 254.335 73.5157 254.745 73.4672C255.155 73.4186 255.57 73.4965 255.935 73.6905C256.3 73.8844 256.597 74.1852 256.787 74.5528C257.015 74.9931 257.075 75.5016 256.956 75.983C256.836 76.4643 256.546 76.8856 256.14 77.1678ZM254.52 74.0169C254.282 74.1903 254.098 74.4289 253.991 74.7041C253.883 74.9793 253.857 75.2797 253.915 75.5695C253.973 75.8592 254.112 76.1262 254.317 76.3387C254.522 76.5511 254.783 76.7001 255.07 76.7679C255.357 76.8357 255.657 76.8195 255.935 76.7212C256.213 76.6228 256.457 76.4465 256.638 76.2132C256.818 75.9799 256.929 75.6994 256.955 75.405C256.982 75.1107 256.923 74.8149 256.787 74.5528C256.685 74.3563 256.542 74.1841 256.367 74.048C256.193 73.9119 255.991 73.8151 255.776 73.7643C255.561 73.7134 255.337 73.7096 255.121 73.7532C254.904 73.7968 254.699 73.8867 254.52 74.0169Z" fill="black"/>
<path d="M237.85 22.0101L241.971 30.0904L254.569 26.5741L253.662 18.7617L237.85 22.0101Z" fill="#FFBC32"/>
<path d="M224.209 45.3688L241.972 30.0933L235.851 23.2148L214.639 37.1504L224.209 45.3688Z" fill="#FFBC32"/>
<path d="M254.57 26.5764L255.485 18.4961L269.136 21.8663L267.678 26.3409L254.57 26.5764Z" fill="#FFBC32"/>
<path d="M241.972 30.093L236.32 23.7424L238.158 22.6055L241.972 30.093Z" fill="#37474F"/>
<path d="M254.567 26.5741L253.717 19.2571L255.401 19.0703L254.567 26.5741Z" fill="#37474F"/>
<path opacity="0.1" d="M236.416 28.7127C236.199 29.0504 235.884 29.3139 235.514 29.468C235.144 29.6221 234.736 29.6595 234.344 29.5755C233.952 29.4914 233.594 29.2897 233.319 28.9971C233.044 28.7046 232.865 28.3351 232.804 27.9377C232.743 27.5403 232.805 27.1337 232.98 26.7721C233.155 26.4104 233.436 26.1108 233.784 25.9129C234.133 25.715 234.534 25.6283 234.933 25.6642C235.332 25.7001 235.711 25.857 236.02 26.114C236.388 26.4257 236.631 26.8608 236.704 27.3387C236.777 27.8165 236.675 28.3047 236.416 28.7127ZM236.416 28.7127C236.563 28.4721 236.639 28.1946 236.634 27.9125C236.63 27.6305 236.545 27.3555 236.391 27.1199C236.236 26.8842 236.018 26.6975 235.761 26.5817C235.505 26.4658 235.221 26.4255 234.942 26.4656C234.664 26.5056 234.403 26.6243 234.189 26.8077C233.976 26.9912 233.818 27.2319 233.736 27.5016C233.654 27.7713 233.65 28.059 233.724 28.331C233.799 28.603 233.949 28.848 234.157 29.0375C234.32 29.1817 234.512 29.2886 234.72 29.351C234.928 29.4134 235.147 29.4297 235.362 29.3988C235.577 29.3679 235.782 29.2906 235.964 29.1721C236.146 29.0536 236.301 28.8969 236.416 28.7127Z" fill="black"/>
<path opacity="0.1" d="M252.321 23.0994C252.103 23.4372 251.788 23.7006 251.418 23.8547C251.048 24.0088 250.64 24.0463 250.248 23.9622C249.856 23.8781 249.499 23.6764 249.224 23.3838C248.949 23.0913 248.769 22.7218 248.708 22.3244C248.648 21.927 248.709 21.5205 248.884 21.1588C249.059 20.7972 249.34 20.4975 249.689 20.2996C250.038 20.1017 250.438 20.015 250.838 20.0509C251.237 20.0868 251.616 20.2437 251.924 20.5007C252.295 20.8104 252.541 21.2457 252.614 21.7246C252.687 22.2034 252.583 22.6925 252.321 23.0994ZM252.321 23.0994C252.469 22.8589 252.545 22.5811 252.541 22.2985C252.538 22.0159 252.454 21.7402 252.299 21.5039C252.145 21.2675 251.926 21.0802 251.669 20.964C251.412 20.8478 251.128 20.8074 250.849 20.8477C250.57 20.8879 250.308 21.0071 250.095 21.1912C249.881 21.3754 249.724 21.6169 249.642 21.8873C249.56 22.1578 249.557 22.446 249.633 22.7183C249.709 22.9905 249.86 23.2354 250.07 23.4242C250.232 23.5669 250.424 23.6727 250.631 23.7342C250.838 23.7958 251.056 23.8117 251.27 23.7808C251.484 23.75 251.688 23.6731 251.87 23.5555C252.051 23.4379 252.205 23.2823 252.321 23.0994Z" fill="black"/>
<path opacity="0.1" d="M268.138 24.9344L267.685 26.3393L254.569 26.5749L241.97 30.0912L224.207 45.3667L215.188 37.6437L216.669 36.5068L233.745 29.4091L234.279 29.1817L236.619 28.2153L239.315 27.0865L240.246 26.6967L244.432 24.9588L254.35 24.707H254.771L268.138 24.9344Z" fill="black"/>
<path d="M255.549 37.5977L257.257 46.5145L271.434 45.9379L272.729 38.1824L255.549 37.5977Z" fill="#FFBC32"/>
<path d="M235.963 56.2157L257.257 46.5112L253.29 38.1953L229.049 45.6585L235.963 56.2157Z" fill="#FFBC32"/>
<path d="M271.434 45.9374L274.551 38.4336L287.651 43.0219L285.019 46.9119L271.434 45.9374Z" fill="#FFBC32"/>
<path d="M257.259 46.5129L253.6 38.8386L255.68 38.2539L257.259 46.5129Z" fill="#37474F"/>
<path d="M271.434 45.9401L272.648 38.6719L274.324 38.9642L271.434 45.9401Z" fill="#37474F"/>
<path opacity="0.1" d="M252.53 43.1164C252.312 43.4531 251.997 43.7153 251.627 43.8683C251.256 44.0213 250.849 44.0578 250.457 43.9731C250.066 43.8884 249.709 43.6864 249.435 43.3939C249.161 43.1014 248.981 42.7322 248.921 42.3352C248.861 41.9382 248.922 41.5322 249.097 41.1709C249.272 40.8096 249.552 40.5102 249.9 40.3122C250.248 40.1142 250.649 40.0271 251.047 40.0623C251.446 40.0976 251.825 40.2536 252.133 40.5096C252.501 40.8236 252.743 41.26 252.816 41.7388C252.889 42.2176 252.788 42.7067 252.53 43.1164ZM252.53 43.1164C252.68 42.8748 252.758 42.5953 252.754 42.3109C252.751 42.0264 252.667 41.7488 252.512 41.5106C252.357 41.2725 252.137 41.0837 251.879 40.9664C251.62 40.8492 251.334 40.8083 251.053 40.8487C250.773 40.8891 250.509 41.009 250.294 41.1943C250.079 41.3797 249.921 41.6228 249.839 41.8951C249.757 42.1673 249.754 42.4575 249.83 42.7314C249.907 43.0053 250.06 43.2515 250.271 43.4412C250.435 43.5828 250.627 43.6875 250.835 43.7483C251.042 43.8092 251.26 43.8247 251.474 43.794C251.688 43.7632 251.893 43.6868 252.075 43.5699C252.258 43.4531 252.413 43.2984 252.53 43.1164Z" fill="black"/>
<path opacity="0.1" d="M270.592 41.8641C270.376 42.2029 270.063 42.4679 269.694 42.6239C269.325 42.78 268.917 42.8198 268.524 42.7379C268.132 42.6561 267.774 42.4565 267.497 42.1658C267.221 41.875 267.039 41.5067 266.976 41.1098C266.913 40.7129 266.971 40.3061 267.144 39.9435C267.317 39.5809 267.596 39.2795 267.943 39.0794C268.291 38.8793 268.691 38.79 269.09 38.8232C269.489 38.8564 269.869 39.0106 270.179 39.2654C270.55 39.5749 270.796 40.0089 270.872 40.4869C270.948 40.9649 270.849 41.4542 270.592 41.8641ZM270.592 41.8641C270.742 41.6225 270.819 41.343 270.816 41.0586C270.813 40.7741 270.729 40.4965 270.574 40.2583C270.419 40.0202 270.199 39.8314 269.941 39.7141C269.682 39.5968 269.396 39.556 269.115 39.5964C268.834 39.6367 268.571 39.7566 268.356 39.942C268.141 40.1274 267.983 40.3705 267.901 40.6427C267.818 40.915 267.816 41.2051 267.892 41.479C267.969 41.7529 268.122 41.9992 268.333 42.1889C268.496 42.3318 268.688 42.4376 268.896 42.4992C269.104 42.5608 269.322 42.5767 269.537 42.5459C269.751 42.515 269.956 42.4382 270.138 42.3205C270.321 42.2029 270.475 42.0472 270.592 41.8641Z" fill="black"/>
<path opacity="0.1" d="M251.131 49.3047L235.966 56.2156L233.869 53.016L251.131 49.3047Z" fill="black"/>
<path d="M260.058 51.4141L259.863 60.4852L273.846 62.9052L276.736 55.5882L260.058 51.4141Z" fill="#FFBC32"/>
<path d="M238.845 65.662L259.864 60.489L257.726 51.5234L234.287 53.8866L238.845 65.662Z" fill="#FFBC32"/>
<path d="M273.848 62.9101L278.463 56.2266L289.409 62.9101L286.923 66.7188L273.848 62.9101Z" fill="#FFBC32"/>
<path d="M259.866 60.4872L257.891 52.212L260.044 52.082L259.866 60.4872Z" fill="#37474F"/>
<path d="M273.848 62.9088L276.552 56.0547L278.123 56.6962L273.848 62.9088Z" fill="#37474F"/>
<path opacity="0.1" d="M256.012 55.7947C255.795 56.1325 255.48 56.3959 255.11 56.55C254.739 56.7041 254.331 56.7416 253.939 56.6575C253.547 56.5734 253.19 56.3717 252.915 56.0792C252.64 55.7866 252.46 55.4171 252.4 55.0197C252.339 54.6223 252.4 54.2158 252.575 53.8541C252.751 53.4925 253.031 53.1928 253.38 52.9949C253.729 52.797 254.13 52.7103 254.529 52.7462C254.928 52.7821 255.307 52.939 255.615 53.196C255.984 53.5077 256.227 53.9428 256.3 54.4207C256.373 54.8985 256.271 55.3867 256.012 55.7947ZM256.012 55.7947C256.162 55.5531 256.24 55.2736 256.236 54.9892C256.233 54.7047 256.149 54.4271 255.994 54.189C255.839 53.9508 255.619 53.762 255.361 53.6447C255.102 53.5275 254.816 53.4866 254.535 53.527C254.255 53.5674 253.991 53.6873 253.776 53.8726C253.561 54.058 253.403 54.3011 253.321 54.5734C253.239 54.8456 253.236 55.1358 253.312 55.4097C253.389 55.6836 253.542 55.9298 253.753 56.1196C253.916 56.2637 254.108 56.3707 254.316 56.433C254.524 56.4954 254.743 56.5117 254.957 56.4808C255.172 56.4499 255.378 56.3726 255.56 56.2541C255.742 56.1356 255.896 55.9789 256.012 55.7947Z" fill="black"/>
<path opacity="0.1" d="M274.229 58.2244C274.011 58.5622 273.697 58.8256 273.326 58.9797C272.956 59.1338 272.548 59.1713 272.156 59.0872C271.764 59.0031 271.407 58.8014 271.132 58.5088C270.857 58.2163 270.677 57.8468 270.617 57.4494C270.556 57.052 270.617 56.6455 270.792 56.2838C270.967 55.9222 271.248 55.6225 271.597 55.4246C271.946 55.2267 272.347 55.14 272.746 55.1759C273.145 55.2118 273.524 55.3687 273.832 55.6257C274.202 55.9364 274.446 56.3716 274.519 56.85C274.592 57.3283 274.489 57.8169 274.229 58.2244ZM274.229 58.2244C274.379 57.9828 274.456 57.7033 274.453 57.4189C274.45 57.1344 274.366 56.8568 274.211 56.6186C274.056 56.3805 273.836 56.1917 273.578 56.0744C273.319 55.9572 273.033 55.9163 272.752 55.9567C272.471 55.9971 272.208 56.117 271.993 56.3023C271.778 56.4877 271.62 56.7308 271.538 57.0031C271.455 57.2753 271.452 57.5655 271.529 57.8394C271.606 58.1133 271.759 58.3595 271.97 58.5492C272.133 58.6934 272.325 58.8004 272.533 58.8627C272.74 58.9251 272.959 58.9414 273.174 58.9105C273.389 58.8796 273.595 58.8023 273.777 58.6838C273.959 58.5653 274.113 58.4086 274.229 58.2244Z" fill="black"/>
<path d="M252.027 27L254.019 35.8518L267.111 34.4875L268.155 26.6914L252.027 27Z" fill="#FFBC32"/>
<path d="M233.049 46.2445L254.019 35.8497L249.792 27.6719L225.803 35.9146L233.049 46.2445Z" fill="#FFBC32"/>
<path d="M267.111 34.4879L269.986 26.8867L282.932 31.9786L280.422 35.9578L267.111 34.4879Z" fill="#FFBC32"/>
<path d="M254.02 35.8503L250.117 28.2978L252.174 27.6562L254.02 35.8503Z" fill="#37474F"/>
<path d="M267.111 34.4843L268.091 27.1836L269.767 27.4191L267.111 34.4843Z" fill="#37474F"/>
<path opacity="0.1" d="M249.565 32.2857C249.345 32.6192 249.028 32.8777 248.658 33.0269C248.289 33.1762 247.882 33.2091 247.493 33.1214C247.104 33.0337 246.751 32.8294 246.48 32.5357C246.209 32.242 246.034 31.8728 245.977 31.4768C245.92 31.0809 245.985 30.677 246.162 30.3188C246.339 29.9605 246.621 29.6647 246.97 29.4706C247.318 29.2765 247.718 29.1932 248.115 29.2319C248.512 29.2706 248.887 29.4293 249.192 29.687C249.558 30.001 249.798 30.4379 249.867 30.916C249.935 31.3942 249.828 31.8811 249.565 32.2857ZM249.565 32.2857C249.714 32.0463 249.791 31.7692 249.789 31.487C249.787 31.2047 249.704 30.929 249.552 30.692C249.399 30.4551 249.182 30.2666 248.926 30.1488C248.67 30.031 248.386 29.9887 248.108 30.0268C247.829 30.0649 247.567 30.1818 247.352 30.3639C247.137 30.546 246.978 30.7858 246.894 31.0551C246.81 31.3245 246.804 31.6123 246.877 31.8848C246.95 32.1574 247.099 32.4035 247.306 32.5943C247.468 32.7379 247.659 32.8448 247.866 32.9077C248.073 32.9705 248.291 32.9879 248.506 32.9586C248.72 32.9294 248.926 32.8541 249.108 32.738C249.291 32.6219 249.447 32.4676 249.565 32.2857Z" fill="black"/>
<path opacity="0.1" d="M266.333 30.4885C266.113 30.8241 265.796 31.0847 265.425 31.2357C265.054 31.3867 264.646 31.421 264.255 31.334C263.864 31.247 263.508 31.0429 263.236 30.7487C262.963 30.4545 262.786 30.084 262.728 29.6865C262.67 29.2891 262.734 28.8833 262.911 28.523C263.088 28.1627 263.37 27.8649 263.72 27.6692C264.07 27.4734 264.47 27.3889 264.869 27.4268C265.268 27.4648 265.646 27.6234 265.952 27.8816C266.319 28.1969 266.559 28.6345 266.629 29.1136C266.699 29.5927 266.594 30.0811 266.333 30.4885ZM266.333 30.4885C266.455 30.3246 266.542 30.1374 266.588 29.9386C266.635 29.7397 266.641 29.5333 266.605 29.3322C266.569 29.1311 266.492 28.9395 266.379 28.7693C266.267 28.5991 266.121 28.4538 265.95 28.3425C265.779 28.2313 265.587 28.1563 265.386 28.1223C265.185 28.0883 264.98 28.096 264.782 28.1449C264.584 28.1938 264.398 28.2829 264.236 28.4066C264.074 28.5303 263.939 28.6861 263.839 28.8643C263.643 29.1598 263.558 29.5158 263.599 29.8685C263.641 30.2212 263.806 30.5475 264.066 30.7889C264.228 30.9331 264.42 31.0405 264.627 31.1041C264.834 31.1676 265.053 31.1858 265.268 31.1573C265.483 31.1288 265.689 31.0544 265.873 30.939C266.057 30.8236 266.214 30.6699 266.333 30.4885Z" fill="black"/>
<path opacity="0.1" d="M250.398 37.6445L233.048 46.2446L230.797 43.0368L250.398 37.6445Z" fill="black"/>
<path d="M198.486 45.9921L226.233 27.6875L243.357 64.9627L211.214 73.3191L198.486 45.9921Z" fill="#FFBC32"/>
<path opacity="0.1" d="M198.486 45.9921L226.233 27.6875L243.357 64.9627L211.214 73.3191L198.486 45.9921Z" fill="black"/>
<path d="M196.598 46.553L218.847 30.8633L236.408 67.2452L210.005 75.2362L196.598 46.553Z" fill="#FFBC32"/>
<path opacity="0.1" d="M218.806 38.8052C218.588 39.1392 218.274 39.3989 217.905 39.55C217.537 39.7011 217.131 39.7366 216.742 39.6516C216.353 39.5667 215.999 39.3653 215.727 39.0742C215.454 38.7831 215.276 38.4159 215.216 38.0212C215.156 37.6264 215.217 37.2227 215.39 36.8633C215.564 36.5039 215.842 36.2057 216.188 36.0082C216.534 35.8107 216.931 35.7232 217.328 35.7571C217.725 35.7911 218.102 35.945 218.409 36.1984C218.783 36.5084 219.03 36.9453 219.103 37.426C219.176 37.9067 219.07 38.3976 218.806 38.8052ZM218.806 38.8052C218.957 38.5637 219.036 38.284 219.033 37.999C219.031 37.714 218.947 37.4357 218.792 37.1968C218.637 36.958 218.417 36.7686 218.159 36.6509C217.9 36.5333 217.613 36.4924 217.332 36.533C217.05 36.5736 216.787 36.694 216.571 36.88C216.356 37.0661 216.198 37.31 216.117 37.583C216.035 37.8559 216.033 38.1467 216.111 38.4208C216.189 38.6949 216.343 38.941 216.555 39.1301C216.719 39.2715 216.91 39.3761 217.117 39.4369C217.324 39.4977 217.541 39.5132 217.755 39.4824C217.968 39.4516 218.172 39.3752 218.354 39.2584C218.535 39.1416 218.689 38.987 218.806 38.8052Z" fill="black"/>
<path opacity="0.1" d="M223.359 47.714C223.141 48.0491 222.827 48.31 222.459 48.4622C222.09 48.6144 221.684 48.6508 221.295 48.5664C220.905 48.4821 220.55 48.2811 220.277 47.9899C220.004 47.6988 219.825 47.3313 219.765 46.9362C219.705 46.541 219.765 46.1367 219.939 45.777C220.113 45.4172 220.392 45.1188 220.738 44.9214C221.085 44.724 221.483 44.6369 221.88 44.6715C222.277 44.7061 222.654 44.8609 222.962 45.1153C223.33 45.427 223.573 45.8621 223.646 46.34C223.719 46.8179 223.617 47.306 223.359 47.714ZM223.359 47.714C223.507 47.4735 223.583 47.1957 223.579 46.9131C223.575 46.6305 223.491 46.3549 223.337 46.1185C223.182 45.8821 222.964 45.6948 222.707 45.5786C222.45 45.4624 222.166 45.422 221.887 45.4623C221.608 45.5025 221.346 45.6217 221.132 45.8059C220.919 45.99 220.762 46.2315 220.68 46.5019C220.598 46.7724 220.595 47.0607 220.671 47.3329C220.746 47.6051 220.898 47.85 221.108 48.0389C221.27 48.1816 221.462 48.2873 221.669 48.3489C221.876 48.4104 222.094 48.4263 222.308 48.3955C222.521 48.3646 222.726 48.2877 222.907 48.1701C223.089 48.0525 223.243 47.8969 223.359 47.714Z" fill="black"/>
<path opacity="0.1" d="M227.916 56.6228C227.699 56.9606 227.384 57.224 227.014 57.3781C226.644 57.5322 226.236 57.5697 225.844 57.4856C225.452 57.4015 225.094 57.1998 224.819 56.9073C224.544 56.6148 224.365 56.2453 224.304 55.8478C224.243 55.4504 224.305 55.0439 224.48 54.6823C224.655 54.3206 224.936 54.0209 225.284 53.823C225.633 53.6252 226.034 53.5384 226.433 53.5743C226.832 53.6102 227.211 53.7671 227.52 54.0241C227.888 54.3358 228.131 54.771 228.204 55.2488C228.277 55.7267 228.175 56.2149 227.916 56.6228ZM227.916 56.6228C228.066 56.3812 228.144 56.1018 228.141 55.8173C228.137 55.5329 228.053 55.2552 227.898 55.0171C227.743 54.7789 227.523 54.5901 227.265 54.4729C227.007 54.3556 226.72 54.3147 226.44 54.3551C226.159 54.3955 225.895 54.5154 225.68 54.7008C225.465 54.8861 225.307 55.1292 225.225 55.4015C225.143 55.6738 225.14 55.9639 225.217 56.2378C225.293 56.5117 225.446 56.758 225.657 56.9477C225.821 57.0905 226.013 57.1963 226.22 57.2579C226.428 57.3196 226.647 57.3355 226.861 57.3046C227.076 57.2738 227.281 57.1969 227.463 57.0793C227.645 56.9616 227.8 56.8059 227.916 56.6228Z" fill="black"/>
<path opacity="0.1" d="M232.466 65.5422C232.247 65.8789 231.932 66.1411 231.562 66.2941C231.192 66.4471 230.784 66.4836 230.393 66.3989C230.001 66.3142 229.645 66.1122 229.371 65.8197C229.096 65.5272 228.917 65.158 228.857 64.761C228.796 64.364 228.857 63.958 229.032 63.5967C229.207 63.2354 229.487 62.9359 229.836 62.738C230.184 62.54 230.584 62.4529 230.983 62.4881C231.382 62.5234 231.76 62.6793 232.069 62.9354C232.441 63.2464 232.687 63.6832 232.76 64.1634C232.833 64.6436 232.728 65.134 232.466 65.5422ZM232.466 65.5422C232.615 65.3006 232.693 65.0211 232.69 64.7367C232.687 64.4522 232.603 64.1746 232.448 63.9364C232.292 63.6983 232.073 63.5095 231.814 63.3922C231.556 63.2749 231.27 63.2341 230.989 63.2745C230.708 63.3148 230.445 63.4347 230.23 63.6201C230.014 63.8055 229.857 64.0486 229.774 64.3208C229.692 64.5931 229.689 64.8832 229.766 65.1571C229.843 65.431 229.995 65.6773 230.207 65.867C230.371 66.0086 230.563 66.1133 230.77 66.1741C230.978 66.235 231.196 66.2505 231.41 66.2197C231.624 66.189 231.829 66.1126 232.011 65.9957C232.193 65.8788 232.348 65.7242 232.466 65.5422Z" fill="black"/>
<path d="M188.302 82.8219L176.383 56.7578L169.693 59.8355L181.612 85.8995L188.302 82.8219Z" fill="#455A64"/>
<path d="M199.08 73.4943L190.469 54.6641L178.046 60.3792L186.657 79.2094L199.08 73.4943Z" fill="#37474F"/>
<path d="M216.499 76.8085L199.213 39.0078L186.055 45.0615L203.341 82.8622L216.499 76.8085Z" fill="#455A64"/>
<path d="M197.459 52.6083C198.101 52.3138 198.642 51.8347 199.013 51.2316C199.384 50.6286 199.569 49.9287 199.543 49.2205C199.517 48.5123 199.283 47.8277 198.869 47.2533C198.455 46.679 197.881 46.2406 197.218 45.9938C196.556 45.747 195.836 45.7028 195.149 45.8668C194.461 46.0308 193.838 46.3956 193.357 46.9151C192.877 47.4346 192.561 48.0854 192.449 48.7852C192.338 49.4849 192.435 50.2021 192.73 50.8461C192.925 51.2736 193.202 51.6583 193.545 51.9784C193.888 52.2984 194.291 52.5474 194.73 52.7111C195.169 52.8748 195.636 52.95 196.105 52.9323C196.573 52.9147 197.033 52.8046 197.459 52.6083Z" fill="#37474F"/>
<path d="M208.055 75.8162C208.697 75.5205 209.237 75.0407 209.606 74.4375C209.976 73.8342 210.159 73.1344 210.133 72.4268C210.106 71.7191 209.871 71.0352 209.457 70.4616C209.043 69.8879 208.468 69.4503 207.806 69.204C207.144 68.9577 206.425 68.9138 205.738 69.0778C205.051 69.2419 204.428 69.6065 203.948 70.1255C203.467 70.6446 203.151 71.2948 203.039 71.9941C202.927 72.6933 203.025 73.4101 203.319 74.0539C203.514 74.4817 203.792 74.8667 204.136 75.1868C204.48 75.5069 204.883 75.7559 205.323 75.9196C205.763 76.0832 206.23 76.1583 206.699 76.1406C207.168 76.1229 207.629 76.0126 208.055 75.8162Z" fill="#37474F"/>
<path d="M140.756 89.0823L175.66 174.214C176.393 176.001 176.767 177.915 176.762 179.847C176.757 181.779 176.372 183.691 175.63 185.474C174.888 187.257 173.803 188.875 172.437 190.237C171.071 191.6 169.451 192.678 167.669 193.412C164.077 194.899 160.044 194.895 156.455 193.401C152.867 191.907 150.016 189.046 148.529 185.446L113.625 100.273C112.893 98.4862 112.518 96.5721 112.523 94.6402C112.529 92.7082 112.913 90.7962 113.655 89.0134C114.397 87.2306 115.483 85.6119 116.848 84.2498C118.214 82.8877 119.835 81.8089 121.616 81.075C123.397 80.34 125.305 79.9641 127.231 79.9688C129.157 79.9734 131.063 80.3585 132.84 81.1021C134.617 81.8457 136.231 82.9331 137.589 84.3024C138.948 85.6716 140.024 87.2959 140.756 89.0823Z" fill="#37474F"/>
<path d="M156.735 177.327C157.113 176.311 157.783 175.43 158.66 174.795C159.537 174.161 160.581 173.801 161.662 173.761C162.743 173.722 163.811 174.004 164.731 174.573C165.652 175.141 166.384 175.971 166.836 176.957C167.287 177.942 167.437 179.04 167.267 180.111C167.097 181.182 166.614 182.178 165.88 182.975C165.146 183.771 164.193 184.331 163.142 184.585C162.091 184.839 160.988 184.774 159.973 184.4C159.296 184.151 158.675 183.769 158.146 183.278C157.617 182.787 157.189 182.196 156.888 181.539C156.587 180.881 156.419 180.171 156.392 179.448C156.366 178.725 156.482 178.004 156.735 177.327Z" fill="#263238"/>
<path d="M121.887 92.3202C122.264 91.3014 122.934 90.4178 123.812 89.781C124.691 89.1441 125.737 88.7826 126.82 88.7421C127.903 88.7016 128.973 88.9839 129.896 89.5534C130.819 90.1229 131.553 90.954 132.005 91.9417C132.458 92.9294 132.608 94.0294 132.437 95.1027C132.266 96.176 131.782 97.1744 131.046 97.9718C130.31 98.7693 129.354 99.3299 128.3 99.583C127.247 99.836 126.142 99.7701 125.125 99.3935C124.449 99.143 123.829 98.7612 123.3 98.27C122.771 97.7787 122.344 97.1877 122.043 96.5307C121.742 95.8736 121.574 95.1635 121.547 94.4411C121.52 93.7186 121.635 92.9979 121.887 92.3202Z" fill="#263238"/>
<path d="M263.354 313.52H69.9549C63.2833 313.52 57.875 318.944 57.875 325.636V326.594C57.875 333.286 63.2833 338.711 69.9549 338.711H263.354C270.026 338.711 275.434 333.286 275.434 326.594V325.636C275.434 318.944 270.026 313.52 263.354 313.52Z" fill="#455A64"/>
<path d="M117.529 236.973H226.831C230.405 236.975 233.832 238.4 236.358 240.936C238.884 243.471 240.303 246.909 240.303 250.494V311.458H117.529V236.973Z" fill="#263238"/>
<path d="M260.034 271.06V313.525H73.2734V248.622L88.7457 233.793H196.072V256.231H244.561L260.034 271.06Z" fill="#455A64"/>
<path d="M260.034 271.06V313.525H73.2734V248.622L79.1029 243.035L88.7457 233.793H196.064V256.231H244.561L260.034 271.06Z" fill="#455A64"/>
<path d="M260.034 313.52V309.167L73.2734 303.734V313.52H260.034Z" fill="#37474F"/>
<path d="M107.392 293.293H81.4512V295.973H107.392V293.293Z" fill="#263238"/>
<path d="M107.392 299.152H81.4512V301.832H107.392V299.152Z" fill="#263238"/>
<path d="M107.392 305.012H81.4512V307.692H107.392V305.012Z" fill="#263238"/>
<path d="M251.601 286.65C252.551 274.816 243.756 264.451 231.958 263.499C220.16 262.547 209.826 271.368 208.877 283.202C207.928 295.036 216.722 305.401 228.52 306.353C240.318 307.305 250.652 298.484 251.601 286.65Z" fill="#263238"/>
<path d="M230.264 304.257H229.956C224.765 304.216 219.801 302.113 216.151 298.409C212.502 294.706 210.464 289.702 210.485 284.495C210.505 279.287 212.582 274.3 216.26 270.625C219.938 266.95 224.918 264.887 230.11 264.887C235.302 264.887 240.282 266.95 243.96 270.625C247.639 274.3 249.715 279.287 249.736 284.495C249.756 289.702 247.718 294.706 244.069 298.409C240.419 302.113 235.456 304.216 230.264 304.257ZM229.981 302.632H230.264C234.892 302.595 239.316 300.72 242.569 297.417C245.822 294.115 247.637 289.654 247.618 285.012C247.6 280.37 245.748 275.925 242.469 272.649C239.19 269.373 234.75 267.534 230.122 267.534C225.494 267.534 221.055 269.373 217.776 272.649C214.496 275.925 212.645 280.37 212.626 285.012C212.607 289.654 214.423 294.115 217.676 297.417C220.928 300.72 225.353 302.595 229.981 302.632Z" fill="#455A64"/>
<path d="M235.048 299.684C235.061 299.242 235.194 298.812 235.432 298.44C235.671 298.069 236.005 297.769 236.4 297.573C236.853 297.354 237.294 297.11 237.72 296.842C238.093 296.606 238.522 296.476 238.963 296.465C239.404 296.455 239.839 296.566 240.222 296.785L242.861 298.409L248.011 289.769L245.363 288.185C244.988 287.949 244.684 287.615 244.484 287.219C244.284 286.822 244.196 286.378 244.23 285.935C244.23 285.7 244.23 285.448 244.23 285.205C244.23 284.961 244.23 284.701 244.23 284.457C244.213 284.015 244.316 283.577 244.528 283.189C244.741 282.801 245.055 282.479 245.436 282.257L248.124 280.754L243.266 271.959L240.57 273.462C240.18 273.669 239.741 273.766 239.3 273.741C238.859 273.717 238.433 273.573 238.068 273.324C237.656 273.045 237.229 272.791 236.789 272.56C236.4 272.352 236.075 272.042 235.848 271.663C235.621 271.284 235.501 270.85 235.502 270.408L235.55 267.33L225.519 267.168L225.47 270.246C225.453 270.686 225.318 271.113 225.079 271.482C224.839 271.851 224.504 272.148 224.11 272.341C223.665 272.56 223.228 272.804 222.807 273.064C222.434 273.3 222.004 273.43 221.563 273.44C221.123 273.45 220.688 273.34 220.305 273.121L217.657 271.529L212.508 280.161L215.163 281.786C215.535 282.019 215.837 282.35 216.036 282.741C216.236 283.133 216.326 283.572 216.297 284.011C216.281 284.26 216.281 284.509 216.297 284.758C216.285 285.001 216.285 285.245 216.297 285.489C216.316 285.934 216.213 286.377 215.999 286.768C215.785 287.159 215.468 287.483 215.083 287.706L212.395 289.208L217.252 298.003L219.94 296.501C220.328 296.287 220.768 296.186 221.21 296.209C221.652 296.232 222.078 296.378 222.442 296.631C222.863 296.907 223.292 297.159 223.73 297.394C224.121 297.602 224.449 297.912 224.677 298.293C224.906 298.674 225.026 299.11 225.025 299.554L224.976 302.632L235.008 302.786L235.048 299.684ZM223.802 284.847C223.819 283.56 224.216 282.307 224.943 281.247C225.67 280.187 226.695 279.367 227.887 278.892C229.08 278.417 230.386 278.308 231.64 278.578C232.895 278.849 234.041 279.487 234.933 280.411C235.825 281.336 236.424 282.506 236.652 283.772C236.881 285.039 236.73 286.344 236.217 287.524C235.705 288.704 234.855 289.705 233.774 290.399C232.694 291.094 231.433 291.451 230.15 291.425C228.441 291.391 226.814 290.68 225.625 289.448C224.436 288.216 223.781 286.562 223.802 284.847Z" fill="#455A64"/>
<path d="M230.263 297.125H230.069C226.798 297.099 223.671 295.775 221.372 293.442C219.074 291.108 217.79 287.957 217.803 284.676C217.816 281.396 219.124 278.254 221.441 275.939C223.758 273.624 226.895 272.324 230.166 272.324C233.436 272.324 236.574 273.624 238.891 275.939C241.208 278.254 242.516 281.396 242.529 284.676C242.542 287.957 241.258 291.108 238.959 293.442C236.661 295.775 233.534 297.099 230.263 297.125ZM230.109 294.689C232.031 294.719 233.918 294.177 235.533 293.132C237.147 292.086 238.416 290.583 239.179 288.814C239.942 287.045 240.165 285.088 239.819 283.192C239.474 281.296 238.575 279.545 237.237 278.161C235.899 276.777 234.182 275.822 232.303 275.417C230.425 275.012 228.468 275.175 226.681 275.886C224.895 276.596 223.359 277.822 222.267 279.408C221.175 280.995 220.576 282.87 220.547 284.798C220.508 287.381 221.494 289.874 223.287 291.729C225.08 293.584 227.534 294.648 230.109 294.689Z" fill="#263238"/>
<path d="M142.258 275.437C137.398 282.745 130.03 288.006 121.556 290.22C113.081 292.434 104.091 291.447 96.2942 287.447C88.4977 283.447 82.4388 276.712 79.2696 268.523C76.1004 260.335 76.0421 251.264 79.1056 243.035L88.7485 233.793H140.873C145.407 239.722 147.979 246.924 148.227 254.392C148.475 261.86 146.388 269.219 142.258 275.437Z" fill="#263238"/>
<path d="M192.568 253.375H189.734V256.217H192.568V253.375Z" fill="#263238"/>
<path d="M192.568 247.914H189.734V250.756H192.568V247.914Z" fill="#263238"/>
<path d="M192.568 242.445H189.734V245.288H192.568V242.445Z" fill="#FFBC32"/>
<path d="M192.568 236.973H189.734V239.815H192.568V236.973Z" fill="#263238"/>
<path d="M173.872 163.153C169.61 160.313 164.435 159.198 159.386 160.031C154.337 160.864 149.79 163.584 146.66 167.644L90.0744 237.988C87.6809 241.094 85.9507 244.661 84.9918 248.466C84.0329 252.272 83.8657 256.235 84.5007 260.109C85.1357 263.982 86.5593 267.683 88.6828 270.981C90.8062 274.278 93.584 277.101 96.843 279.275C100.1 281.445 103.767 282.92 107.616 283.608C111.465 284.296 115.414 284.183 119.218 283.275C123.022 282.367 126.598 280.684 129.726 278.331C132.853 275.977 135.465 273.004 137.398 269.595L180.228 190.066C182.755 185.605 183.505 180.349 182.326 175.356C181.147 170.363 178.126 166.003 173.872 163.153Z" fill="#FFBC32"/>
<path d="M80.4872 260.77C81.5767 267.44 84.7021 273.608 89.4326 278.422C94.1631 283.236 100.266 286.459 106.899 287.649C113.533 288.838 120.371 287.934 126.472 285.062C132.572 282.19 137.634 277.49 140.959 271.612L141.769 270.052L172.641 212.71L183.798 192.01C186.787 186.65 187.647 180.355 186.207 174.386C184.766 168.416 181.131 163.213 176.029 159.817C170.927 156.421 164.735 155.083 158.691 156.071C152.648 157.059 147.2 160.301 143.437 165.146L88.0087 234.117L86.94 235.433C84.19 238.987 82.1981 243.07 81.088 247.429C79.9779 251.787 79.7734 256.329 80.4872 260.77ZM159.605 164.204C160.103 164.071 160.613 163.995 161.128 163.976C161.589 163.911 162.054 163.881 162.52 163.887C163.637 163.859 164.753 163.957 165.848 164.179C166.313 164.263 166.772 164.375 167.224 164.512C167.729 164.655 168.226 164.823 168.714 165.016C168.795 165.016 168.884 165.097 168.989 165.138C169.394 165.308 169.799 165.503 170.179 165.698C170.66 165.944 171.128 166.215 171.58 166.51C171.981 166.773 172.365 167.06 172.73 167.371C172.928 167.504 173.11 167.659 173.272 167.834C173.541 168.041 173.79 168.272 174.017 168.524C174.143 168.636 174.26 168.758 174.365 168.89C174.642 169.158 174.897 169.448 175.126 169.758C175.398 170.067 175.647 170.396 175.871 170.741C175.885 170.748 175.898 170.758 175.908 170.771C175.918 170.784 175.924 170.799 175.928 170.814C176.04 170.962 176.142 171.117 176.235 171.277C176.391 171.514 176.532 171.761 176.656 172.016C176.801 172.245 176.928 172.484 177.037 172.731C177.211 173.061 177.362 173.403 177.49 173.754C177.7 174.221 177.871 174.704 178 175.2C178.179 175.682 178.304 176.183 178.373 176.694C178.487 177.196 178.566 177.707 178.608 178.221C179.001 181.593 178.321 185.004 176.665 187.966L167.459 205.02L134.968 265.513L133.81 267.649L133.6 267.965C133.373 268.363 133.138 268.777 132.863 269.175C132.252 270.098 131.581 270.98 130.855 271.815L130.191 272.521C129.77 272.968 129.325 273.382 128.879 273.788L128.758 273.885C124.375 277.77 118.748 279.949 112.9 280.026C107.051 280.103 101.369 278.074 96.886 274.306C92.4027 270.538 89.4154 265.283 88.4669 259.494C87.5183 253.705 88.6715 247.766 91.7169 242.758C91.7436 242.691 91.779 242.628 91.8222 242.571L91.8707 242.482C92.2918 241.8 92.7614 241.15 93.2633 240.484C93.5062 240.159 93.741 239.859 94.0001 239.574L94.7369 238.657L149.793 170.197C151.883 167.481 154.79 165.513 158.083 164.585C158.579 164.417 159.088 164.289 159.605 164.204Z" fill="#FFBC32"/>
<path opacity="0.1" d="M80.4872 260.77C81.5767 267.44 84.7021 273.608 89.4326 278.422C94.1631 283.236 100.266 286.459 106.899 287.649C113.533 288.838 120.371 287.934 126.472 285.062C132.572 282.19 137.634 277.49 140.959 271.612L141.769 270.052L172.641 212.71L183.798 192.01C186.787 186.65 187.647 180.355 186.207 174.386C184.766 168.416 181.131 163.213 176.029 159.817C170.927 156.421 164.735 155.083 158.691 156.071C152.648 157.059 147.2 160.301 143.437 165.146L88.0087 234.117L86.94 235.433C84.19 238.987 82.1981 243.07 81.088 247.429C79.9779 251.787 79.7734 256.329 80.4872 260.77ZM159.605 164.204C160.103 164.071 160.613 163.995 161.128 163.976C161.589 163.911 162.054 163.881 162.52 163.887C163.637 163.859 164.753 163.957 165.848 164.179C166.313 164.263 166.772 164.375 167.224 164.512C167.729 164.655 168.226 164.823 168.714 165.016C168.795 165.016 168.884 165.097 168.989 165.138C169.394 165.308 169.799 165.503 170.179 165.698C170.66 165.944 171.128 166.215 171.58 166.51C171.981 166.773 172.365 167.06 172.73 167.371C172.928 167.504 173.11 167.659 173.272 167.834C173.541 168.041 173.79 168.272 174.017 168.524C174.143 168.636 174.26 168.758 174.365 168.89C174.642 169.158 174.897 169.448 175.126 169.758C175.398 170.067 175.647 170.396 175.871 170.741C175.885 170.748 175.898 170.758 175.908 170.771C175.918 170.784 175.924 170.799 175.928 170.814C176.04 170.962 176.142 171.117 176.235 171.277C176.391 171.514 176.532 171.761 176.656 172.016C176.801 172.245 176.928 172.484 177.037 172.731C177.211 173.061 177.362 173.403 177.49 173.754C177.7 174.221 177.871 174.704 178 175.2C178.179 175.682 178.304 176.183 178.373 176.694C178.487 177.196 178.566 177.707 178.608 178.221C179.001 181.593 178.321 185.004 176.665 187.966L167.459 205.02L134.968 265.513L133.81 267.649L133.6 267.965C133.373 268.363 133.138 268.777 132.863 269.175C132.252 270.098 131.581 270.98 130.855 271.815L130.191 272.521C129.77 272.968 129.325 273.382 128.879 273.788L128.758 273.885C124.375 277.77 118.748 279.949 112.9 280.026C107.051 280.103 101.369 278.074 96.886 274.306C92.4027 270.538 89.4154 265.283 88.4669 259.494C87.5183 253.705 88.6715 247.766 91.7169 242.758C91.7436 242.691 91.779 242.628 91.8222 242.571L91.8707 242.482C92.2918 241.8 92.7614 241.15 93.2633 240.484C93.5062 240.159 93.741 239.859 94.0001 239.574L94.7369 238.657L149.793 170.197C151.883 167.481 154.79 165.513 158.083 164.585C158.579 164.417 159.088 164.289 159.605 164.204Z" fill="black"/>
<path d="M132.899 269.183C135.575 265.145 136.998 260.402 136.988 255.553C136.977 250.704 135.533 245.967 132.839 241.941C130.144 237.916 126.32 234.782 121.85 232.936C117.379 231.09 112.464 230.615 107.725 231.571C102.985 232.527 98.6351 234.872 95.224 238.308C91.813 241.744 89.4943 246.117 88.5612 250.875C87.6281 255.632 88.1225 260.561 89.9818 265.037C91.8411 269.513 94.9819 273.335 99.0069 276.02C101.68 277.804 104.677 279.042 107.827 279.663C110.977 280.285 114.218 280.278 117.365 279.643C120.512 279.008 123.504 277.757 126.169 275.962C128.834 274.168 131.121 271.864 132.899 269.183Z" fill="#263238"/>
<path d="M112.499 278.484C107.418 278.475 102.485 276.764 98.4838 273.623C94.4822 270.482 91.641 266.091 90.4109 261.146C89.1808 256.201 89.6322 250.985 91.6935 246.327C93.7548 241.668 97.308 237.834 101.789 235.431C106.271 233.029 111.423 232.196 116.43 233.066C121.437 233.935 126.011 236.456 129.426 240.23C132.842 244.003 134.903 248.813 135.284 253.895C135.664 258.977 134.341 264.041 131.526 268.284C129.872 270.788 127.739 272.938 125.252 274.611C122.764 276.284 119.971 277.445 117.033 278.029C115.54 278.329 114.022 278.481 112.499 278.484ZM112.58 233.559C108.777 233.551 105.037 234.534 101.725 236.409C98.4133 238.285 95.6432 240.991 93.6854 244.261C91.7276 247.532 90.6489 251.256 90.5547 255.069C90.4606 258.883 91.3541 262.656 93.1482 266.019C94.9422 269.383 97.5753 272.223 100.79 274.261C104.005 276.299 107.693 277.465 111.491 277.647C115.29 277.828 119.071 277.018 122.465 275.296C125.859 273.574 128.749 270.999 130.854 267.821C133.058 264.503 134.324 260.646 134.516 256.663C134.708 252.68 133.819 248.719 131.944 245.203C130.068 241.686 127.277 238.746 123.867 236.696C120.457 234.645 116.556 233.561 112.58 233.559Z" fill="#455A64"/>
<path d="M129.131 259.964C128.722 259.69 128.397 259.307 128.193 258.858C127.988 258.409 127.912 257.912 127.973 257.423C128.047 256.871 128.085 256.315 128.086 255.758C128.087 255.266 128.224 254.784 128.481 254.366C128.739 253.947 129.106 253.608 129.544 253.386L132.604 251.86L127.681 241.863L124.613 243.381C124.169 243.594 123.676 243.679 123.187 243.627C122.699 243.575 122.234 243.389 121.844 243.089L121.18 242.618L120.484 242.18C120.06 241.936 119.711 241.579 119.477 241.149C119.243 240.719 119.132 240.233 119.156 239.743L119.375 236.324L108.25 235.602L108.031 239.029C107.993 239.518 107.822 239.988 107.536 240.388C107.251 240.787 106.862 241.101 106.412 241.294C105.906 241.512 105.411 241.756 104.931 242.025C104.505 242.27 104.021 242.392 103.531 242.378C103.04 242.364 102.564 242.213 102.153 241.944L99.3116 240.052L93.1502 249.35L95.984 251.243C96.3899 251.519 96.712 251.903 96.9148 252.351C97.1176 252.8 97.1933 253.296 97.1337 253.784C97.077 254.337 97.0365 254.889 97.0284 255.409C97.0269 255.9 96.891 256.382 96.6354 256.802C96.3799 257.221 96.0146 257.562 95.5792 257.788L92.4863 259.347L97.4332 269.352L100.51 267.834C100.949 267.621 101.439 267.534 101.925 267.582C102.411 267.631 102.874 267.814 103.263 268.11C103.481 268.279 103.708 268.436 103.943 268.581C104.169 268.735 104.396 268.889 104.631 269.019C105.054 269.264 105.401 269.621 105.635 270.051C105.869 270.48 105.981 270.966 105.959 271.456L105.74 274.874L116.857 275.589L117.067 272.17C117.104 271.68 117.274 271.209 117.56 270.81C117.845 270.41 118.235 270.097 118.686 269.904C119.196 269.683 119.694 269.434 120.176 269.157C120.602 268.914 121.087 268.793 121.577 268.809C122.067 268.824 122.544 268.976 122.953 269.247L125.787 271.139L131.956 261.84L129.131 259.964ZM108.574 261.589C107.395 260.8 106.475 259.678 105.931 258.365C105.388 257.052 105.245 255.607 105.52 254.213C105.795 252.818 106.477 251.537 107.478 250.531C108.479 249.525 109.756 248.839 111.146 248.561C112.536 248.282 113.977 248.424 115.286 248.967C116.596 249.51 117.716 250.431 118.504 251.612C119.292 252.794 119.713 254.183 119.714 255.605C119.715 257.027 119.295 258.417 118.508 259.599C117.987 260.385 117.316 261.059 116.534 261.585C115.752 262.11 114.874 262.475 113.951 262.659C113.028 262.843 112.078 262.842 111.155 262.657C110.233 262.472 109.355 262.106 108.574 261.58V261.589Z" fill="#455A64"/>
<path d="M176.075 188.801C177.828 186.159 178.761 183.055 178.755 179.882C178.749 176.708 177.805 173.607 176.043 170.971C174.28 168.336 171.778 166.283 168.853 165.074C165.927 163.865 162.71 163.553 159.608 164.177C156.506 164.802 153.658 166.335 151.424 168.583C149.191 170.831 147.672 173.693 147.06 176.807C146.448 179.92 146.77 183.146 147.986 186.076C149.202 189.007 151.257 191.509 153.89 193.268C155.639 194.436 157.601 195.247 159.662 195.654C161.724 196.062 163.845 196.058 165.905 195.643C167.965 195.229 169.923 194.411 171.668 193.237C173.413 192.063 174.911 190.556 176.075 188.801Z" fill="#263238"/>
<path d="M162.731 195.031C159.374 195.024 156.116 193.894 153.473 191.818C150.83 189.743 148.953 186.842 148.141 183.575C147.329 180.308 147.627 176.863 148.989 173.786C150.351 170.709 152.698 168.176 155.659 166.589C158.619 165.002 162.023 164.452 165.33 165.026C168.638 165.6 171.659 167.266 173.916 169.758C176.172 172.251 177.534 175.428 177.786 178.785C178.037 182.142 177.164 185.488 175.305 188.29C173.926 190.367 172.056 192.07 169.862 193.246C167.668 194.422 165.219 195.035 162.731 195.031ZM162.78 165.601C161.828 165.603 160.879 165.698 159.946 165.885C156.38 166.611 153.228 168.683 151.143 171.674C149.057 174.665 148.198 178.345 148.741 181.954C149.285 185.563 151.19 188.824 154.063 191.063C156.937 193.303 160.558 194.349 164.178 193.986C167.799 193.623 171.142 191.878 173.516 189.112C175.89 186.346 177.114 182.771 176.935 179.126C176.755 175.481 175.186 172.044 172.551 169.527C169.916 167.009 166.418 165.604 162.78 165.601Z" fill="#455A64"/>
<path d="M173.54 182.751C173.278 182.575 173.07 182.331 172.937 182.045C172.804 181.758 172.752 181.441 172.787 181.127C172.827 180.762 172.851 180.405 172.859 180.047C172.859 179.728 172.946 179.415 173.112 179.143C173.278 178.871 173.515 178.65 173.799 178.504L175.79 177.513L172.552 171.017L170.592 171.967C170.305 172.105 169.985 172.161 169.667 172.128C169.35 172.096 169.048 171.975 168.795 171.78L168.358 171.471L167.904 171.187C167.624 171.025 167.394 170.786 167.242 170.499C167.091 170.212 167.023 169.887 167.046 169.563L167.184 167.346L159.962 166.875L159.816 169.108C159.792 169.427 159.681 169.732 159.496 169.991C159.31 170.251 159.057 170.454 158.764 170.578C158.432 170.717 158.11 170.877 157.8 171.057C157.521 171.214 157.205 171.292 156.885 171.282C156.566 171.272 156.255 171.175 155.987 171L154.149 169.774L150.1 175.816L151.946 177.042C152.206 177.22 152.413 177.465 152.545 177.751C152.678 178.037 152.731 178.353 152.699 178.667C152.656 179.024 152.632 179.381 152.627 179.739C152.629 180.058 152.542 180.372 152.376 180.644C152.21 180.917 151.972 181.138 151.687 181.282L149.688 182.28L152.926 188.777L154.926 187.786C155.211 187.646 155.53 187.589 155.846 187.621C156.162 187.652 156.463 187.771 156.715 187.965C156.854 188.077 157 188.18 157.152 188.274C157.298 188.371 157.452 188.477 157.598 188.558C157.879 188.72 158.11 188.958 158.263 189.245C158.416 189.533 158.486 189.857 158.464 190.182L158.326 192.407L165.548 192.87L165.686 190.645C165.71 190.327 165.821 190.021 166.007 189.762C166.192 189.503 166.445 189.3 166.739 189.175C167.073 189.029 167.397 188.867 167.71 188.688C167.987 188.529 168.302 188.45 168.621 188.46C168.94 188.47 169.249 188.569 169.516 188.745L171.362 189.979L175.41 183.929L173.54 182.751ZM160.172 183.823C159.409 183.309 158.816 182.579 158.466 181.726C158.116 180.873 158.026 179.935 158.207 179.03C158.388 178.126 158.832 177.296 159.482 176.644C160.133 175.993 160.962 175.549 161.864 175.369C162.766 175.189 163.7 175.282 164.55 175.634C165.4 175.986 166.127 176.583 166.639 177.35C167.15 178.116 167.425 179.017 167.427 179.939C167.429 180.862 167.158 181.764 166.65 182.532C166.31 183.045 165.873 183.486 165.363 183.828C164.853 184.171 164.281 184.409 163.679 184.529C163.077 184.649 162.457 184.649 161.855 184.527C161.254 184.406 160.682 184.167 160.172 183.823Z" fill="#455A64"/>
<path d="M162.807 178.38L162.531 178.08L163.13 177.527L163.406 177.828L162.807 178.38Z" fill="#FFBC32"/>
<path d="M164.595 176.721L164.328 176.428L165.526 175.324L165.794 175.624L164.595 176.721ZM167.024 174.52L166.749 174.219L167.947 173.115L168.223 173.415L167.024 174.52ZM169.453 172.311L169.178 172.01L170.376 170.906L170.651 171.206L169.453 172.311ZM171.882 170.102L171.607 169.801L172.805 168.705L173.08 168.997L171.882 170.102ZM174.311 167.901L174.036 167.601L175.234 166.496L175.509 166.797L174.311 167.901ZM176.74 165.692L176.465 165.392L177.663 164.287L177.938 164.588L176.74 165.692ZM210.316 164.637H208.697V164.23H210.316V164.637ZM207.077 164.637H205.458V164.23H207.077V164.637ZM203.839 164.637H202.219V164.23H203.839V164.637ZM200.6 164.637H198.981V164.23H200.6V164.637ZM197.362 164.637H195.742V164.23H197.362V164.637ZM194.123 164.637H192.504V164.23H194.123V164.637ZM190.884 164.637H189.265V164.23H190.884V164.637ZM187.646 164.637H186.027V164.23H187.646V164.637ZM184.407 164.637H182.788V164.23H184.407V164.637ZM181.169 164.637H179.549V164.23H181.169V164.637Z" fill="#FFBC32"/>
<path d="M212.591 164.23H211.781V164.637H212.591V164.23Z" fill="#FFBC32"/>
<path d="M212.525 165.655C213.196 165.655 213.739 165.11 213.739 164.437C213.739 163.764 213.196 163.219 212.525 163.219C211.854 163.219 211.311 163.764 211.311 164.437C211.311 165.11 211.854 165.655 212.525 165.655Z" fill="#FFBC32"/>
<path d="M225.003 162.867H218.906V165.596H225.003V162.867Z" fill="#FFBC32"/>
<path d="M231.358 171.547H225.262V174.276H231.358V171.547Z" fill="#FFBC32"/>
<path d="M238.768 162.867H227.215V165.596H238.768V162.867Z" fill="#FFBC32"/>
<path d="M242.847 162.867H240.904V165.596H242.847V162.867Z" fill="#FFBC32"/>
<path d="M245.947 162.867H244.004V165.596H245.947V162.867Z" fill="#FFBC32"/>
<path d="M249.049 162.867H247.105V165.596H249.049V162.867Z" fill="#FFBC32"/>
<path d="M230.46 167.172H218.906V169.901H230.46V167.172Z" fill="#FFBC32"/>
<path d="M234.533 167.172H232.59V169.901H234.533V167.172Z" fill="#FFBC32"/>
<path d="M237.64 167.172H235.697V169.901H237.64V167.172Z" fill="#FFBC32"/>
<path d="M240.744 167.172H238.801V169.901H240.744V167.172Z" fill="#FFBC32"/>
<path d="M220.849 171.547H218.906V174.276H220.849V171.547Z" fill="#FFBC32"/>
<path d="M223.949 171.547H222.006V174.276H223.949V171.547Z" fill="#FFBC32"/>
<path d="M225.635 282.856L225.039 283.406L225.313 283.705L225.909 283.155L225.635 282.856Z" fill="#FFBC32"/>
<path d="M227.107 282.084L226.832 281.784L228.03 280.679L228.306 280.98L227.107 282.084ZM229.536 279.875L229.261 279.575L230.459 278.47L230.735 278.771L229.536 279.875ZM231.925 277.666L231.658 277.366L232.856 276.261L233.123 276.562L231.925 277.666ZM234.354 275.457L234.078 275.157L235.277 274.061L235.552 274.361L234.354 275.457ZM236.783 273.257L236.507 272.956L237.706 271.852L237.981 272.152L236.783 273.257ZM239.211 271.048L238.936 270.747L240.134 269.643L240.41 269.943L239.211 271.048ZM272.787 269.992H271.168V269.586H272.787V269.992ZM269.549 269.992H267.929V269.586H269.549V269.992ZM266.31 269.992H264.691V269.586H266.31V269.992ZM263.072 269.992H261.452V269.586H263.072V269.992ZM259.833 269.992H258.214V269.586H259.833V269.992ZM256.594 269.992H254.975V269.586H256.594V269.992ZM253.356 269.992H251.737V269.586H253.356V269.992ZM250.117 269.992H248.498V269.586H250.117V269.992ZM246.879 269.992H245.259V269.586H246.879V269.992ZM243.64 269.992H242.021V269.586H243.64V269.992Z" fill="#FFBC32"/>
<path d="M275.097 269.551H274.287V269.957H275.097V269.551Z" fill="#FFBC32"/>
<path d="M275.039 270.971C275.709 270.971 276.253 270.426 276.253 269.753C276.253 269.081 275.709 268.535 275.039 268.535C274.368 268.535 273.824 269.081 273.824 269.753C273.824 270.426 274.368 270.971 275.039 270.971Z" fill="#FFBC32"/>
<path d="M287.507 268.188H281.41V270.916H287.507V268.188Z" fill="#FFBC32"/>
<path d="M293.864 276.871H287.768V279.6H293.864V276.871Z" fill="#FFBC32"/>
<path d="M301.28 268.188H289.727V270.916H301.28V268.188Z" fill="#FFBC32"/>
<path d="M305.351 268.188H303.408V270.916H305.351V268.188Z" fill="#FFBC32"/>
<path d="M308.459 268.188H306.516V270.916H308.459V268.188Z" fill="#FFBC32"/>
<path d="M311.562 268.188H309.619V270.916H311.562V268.188Z" fill="#FFBC32"/>
<path d="M292.964 272.492H281.41V275.221H292.964V272.492Z" fill="#FFBC32"/>
<path d="M297.047 272.492H295.104V275.221H297.047V272.492Z" fill="#FFBC32"/>
<path d="M300.146 272.492H298.203V275.221H300.146V272.492Z" fill="#FFBC32"/>
<path d="M303.248 272.492H301.305V275.221H303.248V272.492Z" fill="#FFBC32"/>
<path d="M283.353 276.871H281.41V279.6H283.353V276.871Z" fill="#FFBC32"/>
<path d="M286.457 276.871H284.514V279.6H286.457V276.871Z" fill="#FFBC32"/>
<path d="M109.366 255.371L108.705 255.84L108.939 256.171L109.6 255.702L109.366 255.371Z" fill="#FFBC32"/>
<path d="M85.289 272.947H85.038V272.541H85.1595L86.2768 271.729L86.5116 272.062L85.289 272.947ZM83.4187 272.947H81.7995V272.541H83.4187V272.947ZM80.1802 272.947H78.5609V272.541H80.1802V272.947ZM76.9416 272.947H75.3223V272.541H76.9416V272.947ZM73.703 272.947H72.0838V272.541H73.703V272.947ZM70.4645 272.947H68.8452V272.541H70.4645V272.947ZM67.2259 272.947H65.6066V272.541H67.2259V272.947ZM63.9873 272.947H62.368V272.541H63.9873V272.947ZM60.7488 272.947H59.1295V272.541H60.7488V272.947ZM57.5102 272.947H55.8909V272.541H57.5102V272.947ZM54.2716 272.947H52.6523V272.541H54.2716V272.947ZM87.7827 271.144L87.5479 270.811L88.8676 269.877L89.1024 270.21L87.7827 271.144ZM90.4221 269.268L90.1873 268.943L91.5071 268.001L91.7419 268.334L90.4221 269.268ZM93.0616 267.4L92.8268 267.067L94.1465 266.125L94.3813 266.458L93.0616 267.4ZM95.701 265.524L95.4662 265.191L96.7859 264.257L97.0207 264.59L95.701 265.524ZM98.3404 263.648L98.1056 263.315L99.4254 262.381L99.6602 262.714L98.3404 263.648ZM100.98 261.772L100.745 261.439L102.065 260.505L102.3 260.838L100.98 261.772ZM103.619 259.905L103.385 259.572L104.704 258.63L104.939 258.962L103.619 259.905ZM106.259 258.029L106.024 257.696L107.344 256.762L107.578 257.087L106.259 258.029Z" fill="#FFBC32"/>
<path d="M51.0831 272.539H50.2734V272.945H51.0831V272.539Z" fill="#FFBC32"/>
<path d="M50.3381 271.527C50.0959 271.526 49.8588 271.596 49.6567 271.73C49.4546 271.864 49.2966 272.055 49.2028 272.279C49.109 272.503 49.0837 272.749 49.1299 272.988C49.1762 273.226 49.292 273.446 49.4626 273.618C49.6333 273.79 49.8511 273.908 50.0885 273.956C50.3258 274.004 50.5721 273.98 50.7959 273.887C51.0198 273.795 51.2112 273.638 51.3459 273.436C51.4806 273.234 51.5525 272.997 51.5525 272.754C51.5536 272.593 51.523 272.434 51.4624 272.285C51.4019 272.136 51.3126 272.001 51.1997 271.887C51.0868 271.773 50.9526 271.683 50.8047 271.621C50.6568 271.559 50.4982 271.527 50.3381 271.527Z" fill="#FFBC32"/>
<path d="M19.54 271.379H13.4434V274.108H19.54V271.379Z" fill="#FFBC32"/>
<path d="M25.8974 280.062H19.8008V282.791H25.8974V280.062Z" fill="#FFBC32"/>
<path d="M33.3036 271.379H21.75V274.108H33.3036V271.379Z" fill="#FFBC32"/>
<path d="M37.3826 271.379H35.4395V274.108H37.3826V271.379Z" fill="#FFBC32"/>
<path d="M40.4861 271.379H38.543V274.108H40.4861V271.379Z" fill="#FFBC32"/>
<path d="M43.5877 271.379H41.6445V274.108H43.5877V271.379Z" fill="#FFBC32"/>
<path d="M24.9969 275.684H13.4434V278.412H24.9969V275.684Z" fill="#FFBC32"/>
<path d="M29.0701 275.684H27.127V278.412H29.0701V275.684Z" fill="#FFBC32"/>
<path d="M32.1775 275.684H30.2344V278.412H32.1775V275.684Z" fill="#FFBC32"/>
<path d="M35.281 275.684H33.3379V278.412H35.281V275.684Z" fill="#FFBC32"/>
<path d="M15.3865 280.062H13.4434V282.791H15.3865V280.062Z" fill="#FFBC32"/>
<path d="M18.4881 280.062H16.5449V282.791H18.4881V280.062Z" fill="#FFBC32"/>
<path d="M210.188 43.2283L209.914 43.5273L210.51 44.0767L210.784 43.7777L210.188 43.2283Z" fill="#FFBC32"/>
<path d="M208.721 42.4083L207.531 41.3119L207.798 41.0115L208.988 42.1078L208.721 42.4083ZM206.34 40.2156L205.15 39.1193L205.417 38.8188L206.608 39.9151L206.34 40.2156ZM203.96 38.023L202.77 36.9266L203.037 36.6262L204.227 37.7225L203.96 38.023ZM201.572 35.8303L200.381 34.7259L200.657 34.4335L201.847 35.5298L201.572 35.8303ZM199.191 33.6295L198.001 32.5332L198.276 32.2408L199.467 33.3372L199.191 33.6295ZM196.811 31.4369L195.621 30.3324L195.896 30.0319L197.086 31.1445L196.811 31.4369ZM194.431 29.2442L193.265 28.1479L193.54 27.8474L194.73 28.9437L194.431 29.2442ZM192.05 27.084L190.836 25.9552L191.111 25.6547L192.301 26.7511L192.05 27.084ZM189.67 24.8914L188.48 23.795L188.755 23.4946L189.945 24.5909L189.67 24.8914ZM187.29 22.6987L186.302 21.781H186.188V21.375H186.456L187.597 22.3658L187.29 22.6987ZM184.569 21.781H182.95V21.375H184.569V21.781ZM181.331 21.781H179.711V21.375H181.331V21.781ZM178.092 21.781H176.473V21.375H178.092V21.781ZM174.853 21.781H173.234V21.375H174.853V21.781ZM171.615 21.781H169.996V21.375H171.615V21.781ZM168.376 21.781H166.757V21.375H168.376V21.781ZM165.138 21.781H163.518V21.375H165.138V21.781ZM161.899 21.781H160.28V21.375H161.899V21.781ZM158.661 21.781H157.041V21.375H158.661V21.781ZM155.422 21.781H153.803V21.375H155.422V21.781Z" fill="#FFBC32"/>
<path d="M152.241 21.3477H151.432V21.7537H152.241V21.3477Z" fill="#FFBC32"/>
<path d="M151.494 20.3282C151.252 20.3265 151.014 20.3973 150.812 20.5314C150.61 20.6656 150.452 20.857 150.358 21.0814C150.265 21.3058 150.24 21.553 150.287 21.7916C150.334 22.0303 150.45 22.2495 150.622 22.4215C150.793 22.5935 151.012 22.7104 151.25 22.7575C151.488 22.8045 151.734 22.7796 151.958 22.6858C152.182 22.5919 152.372 22.4335 152.506 22.2306C152.64 22.0277 152.71 21.7895 152.709 21.5463C152.707 21.2239 152.578 20.9153 152.351 20.6873C152.123 20.4593 151.816 20.3303 151.494 20.3282Z" fill="#FFBC32"/>
<path d="M142.112 20.4023H136.016V23.131H142.112V20.4023Z" fill="#FFBC32"/>
<path d="M121.667 24.7031H115.57V27.4318H121.667V24.7031Z" fill="#FFBC32"/>
<path d="M127.071 20.4023H115.518V23.131H127.071V20.4023Z" fill="#FFBC32"/>
<path d="M131.14 20.4023H129.197V23.131H131.14V20.4023Z" fill="#FFBC32"/>
<path d="M134.25 20.4023H132.307V23.131H134.25V20.4023Z" fill="#FFBC32"/>
<path d="M145.668 20.4023H143.725V23.131H145.668V20.4023Z" fill="#FFBC32"/>
<path d="M134.542 24.7031H122.988V27.4318H134.542V24.7031Z" fill="#FFBC32"/>
<path d="M137.959 24.7031H136.016V27.4318H137.959V24.7031Z" fill="#FFBC32"/>
<path d="M117.461 29.082H115.518V31.8107H117.461V29.082Z" fill="#FFBC32"/>
<path d="M120.558 29.082H118.615V31.8107H120.558V29.082Z" fill="#FFBC32"/>
</svg>
