<svg width="370" height="69" viewBox="0 0 370 69" fill="none" xmlns="http://www.w3.org/2000/svg">
<g clip-path="url(#clip0_6747_17211)">
<path d="M60.5 48.5156V3.23438C60.5 1.44199 59.067 0 57.2857 0H13.3571C6.25893 0 0.5 5.79492 0.5 12.9375V56.0625C0.5 63.2051 6.25893 69 13.3571 69H57.2857C59.067 69 60.5 67.558 60.5 65.7656V63.6094C60.5 62.5986 60.0312 61.6822 59.308 61.0893C58.7455 59.0139 58.7455 53.0977 59.308 51.0223C60.0312 50.4428 60.5 49.5264 60.5 48.5156ZM17.6429 18.0586C17.6429 17.6139 18.0045 17.25 18.4464 17.25H46.8393C47.2812 17.25 47.6429 17.6139 47.6429 18.0586V20.7539C47.6429 21.1986 47.2812 21.5625 46.8393 21.5625H18.4464C18.0045 21.5625 17.6429 21.1986 17.6429 20.7539V18.0586ZM17.6429 26.6836C17.6429 26.2389 18.0045 25.875 18.4464 25.875H46.8393C47.2812 25.875 47.6429 26.2389 47.6429 26.6836V29.3789C47.6429 29.8236 47.2812 30.1875 46.8393 30.1875H18.4464C18.0045 30.1875 17.6429 29.8236 17.6429 29.3789V26.6836ZM51.5804 60.375H13.3571C10.9866 60.375 9.07143 58.4479 9.07143 56.0625C9.07143 53.6906 11 51.75 13.3571 51.75H51.5804C51.3259 54.0545 51.3259 58.0705 51.5804 60.375Z" fill="#CCCCCC"/>
</g>
<path d="M99.652 12.444V31.092L87.304 12.444H83.2V37.5H87.304V18.816L99.652 37.5H103.756V12.444H99.652ZM128.045 27.564C128.045 21.336 123.581 17.34 117.929 17.34C112.277 17.34 107.813 21.336 107.813 27.564C107.813 33.792 112.097 37.824 117.749 37.824C123.437 37.824 128.045 33.792 128.045 27.564ZM111.989 27.564C111.989 23.064 114.761 20.904 117.857 20.904C120.917 20.904 123.833 23.064 123.833 27.564C123.833 32.064 120.809 34.26 117.749 34.26C114.653 34.26 111.989 32.064 111.989 27.564ZM141.454 37.5H145.558V12.48H141.454V37.5ZM151.594 31.992C151.594 36.024 153.79 37.5 157.318 37.5H160.558V34.08H158.038C156.31 34.08 155.734 33.468 155.734 31.992V21.012H160.558V17.664H155.734V12.732H151.594V17.664H149.254V21.012H151.594V31.992ZM172.693 20.796C175.753 20.796 178.165 22.74 178.237 25.8H167.257C167.689 22.668 169.921 20.796 172.693 20.796ZM181.981 31.596H177.553C176.797 33.144 175.393 34.368 172.873 34.368C169.849 34.368 167.509 32.388 167.221 29.112H182.377C182.485 28.428 182.521 27.78 182.521 27.096C182.521 21.264 178.525 17.34 172.873 17.34C167.005 17.34 162.973 21.336 162.973 27.564C162.973 33.792 167.185 37.824 172.873 37.824C177.733 37.824 180.865 35.052 181.981 31.596ZM214.675 37.5H218.743V25.8C218.743 20.256 215.215 17.34 210.571 17.34C207.691 17.34 204.883 18.852 203.659 21.264C202.291 18.672 199.663 17.34 196.531 17.34C194.155 17.34 191.995 18.312 190.663 19.932V17.664H186.559V37.5H190.663V26.412C190.663 22.776 192.643 20.904 195.667 20.904C198.655 20.904 200.635 22.776 200.635 26.412V37.5H204.703V26.412C204.703 22.776 206.683 20.904 209.707 20.904C212.695 20.904 214.675 22.776 214.675 26.412V37.5ZM239.473 28.428V37.5H243.577V28.428L251.857 12.48H247.321L241.525 24.756L235.729 12.48H231.157L239.473 28.428ZM263.466 20.796C266.526 20.796 268.938 22.74 269.01 25.8H258.03C258.462 22.668 260.694 20.796 263.466 20.796ZM272.754 31.596H268.326C267.57 33.144 266.166 34.368 263.646 34.368C260.622 34.368 258.282 32.388 257.994 29.112H273.15C273.258 28.428 273.294 27.78 273.294 27.096C273.294 21.264 269.298 17.34 263.646 17.34C257.778 17.34 253.746 21.336 253.746 27.564C253.746 33.792 257.958 37.824 263.646 37.824C268.506 37.824 271.638 35.052 272.754 31.596ZM277.981 31.992C277.981 36.024 280.177 37.5 283.705 37.5H286.945V34.08H284.425C282.697 34.08 282.121 33.468 282.121 31.992V21.012H286.945V17.664H282.121V12.732H277.981V17.664H275.641V21.012H277.981V31.992Z" fill="#CCCCCC"/>
<path d="M81.188 55.916C81.188 59.26 83.636 61.596 86.756 61.596C89.172 61.596 91.092 60.396 91.924 58.252H90.18C89.572 59.58 88.388 60.332 86.756 60.332C84.42 60.332 82.676 58.636 82.676 55.916C82.676 53.18 84.42 51.484 86.756 51.484C88.388 51.484 89.572 52.236 90.18 53.58H91.924C91.092 51.42 89.172 50.204 86.756 50.204C83.636 50.204 81.188 52.572 81.188 55.916ZM94.0914 61.5H95.5474V49.66H94.0914V61.5ZM98.0289 61.5H99.4849V52.732H98.0289V61.5ZM98.7809 51.308C99.3089 51.308 99.7409 50.876 99.7409 50.316C99.7409 49.756 99.3089 49.324 98.7809 49.324C98.2209 49.324 97.7889 49.756 97.7889 50.316C97.7889 50.876 98.2209 51.308 98.7809 51.308ZM101.422 57.1C101.422 59.884 103.198 61.644 105.694 61.644C107.87 61.644 109.294 60.428 109.742 58.684H108.174C107.854 59.788 106.99 60.412 105.694 60.412C104.094 60.412 102.91 59.276 102.91 57.1C102.91 54.956 104.094 53.82 105.694 53.82C106.99 53.82 107.87 54.492 108.174 55.548H109.742C109.294 53.708 107.87 52.588 105.694 52.588C103.198 52.588 101.422 54.348 101.422 57.1ZM111.685 61.5H113.141V57.628L116.581 61.5H118.565L114.421 57.1L118.549 52.732H116.517L113.141 56.62V49.66H111.685V61.5ZM124.505 59.1C124.505 60.86 125.385 61.5 126.937 61.5H128.249V60.268H127.177C126.281 60.268 125.961 59.964 125.961 59.1V53.932H128.249V52.732H125.961V50.524H124.505V52.732H123.369V53.932H124.505V59.1ZM130.013 61.5H131.469V56.652C131.469 54.764 132.493 53.836 133.981 53.836C135.453 53.836 136.429 54.748 136.429 56.54V61.5H137.869V56.332C137.869 53.82 136.317 52.572 134.365 52.572C133.133 52.572 132.045 53.068 131.469 53.996V49.66H130.013V61.5ZM143.976 53.82C145.48 53.82 146.76 54.764 146.744 56.476H141.208C141.368 54.764 142.552 53.82 143.976 53.82ZM148.072 58.796H146.504C146.184 59.74 145.352 60.412 144.04 60.412C142.552 60.412 141.304 59.436 141.192 57.66H148.2C148.232 57.356 148.248 57.1 148.248 56.78C148.248 54.38 146.584 52.588 144.04 52.588C141.48 52.588 139.704 54.332 139.704 57.1C139.704 59.884 141.544 61.644 144.04 61.644C146.216 61.644 147.624 60.396 148.072 58.796ZM155.171 50.332L153.635 53.964H155.251L156.195 50.332H155.171ZM157.779 50.332L156.243 53.964H157.859L158.803 50.332H157.779ZM159.967 57.052C159.967 59.772 161.807 61.644 164.095 61.644C165.567 61.644 166.623 60.94 167.183 60.188V61.5H169.023V52.684H167.183V53.964C166.639 53.244 165.615 52.54 164.127 52.54C161.807 52.54 159.967 54.332 159.967 57.052ZM167.183 57.084C167.183 58.988 165.887 60.06 164.511 60.06C163.151 60.06 161.839 58.956 161.839 57.052C161.839 55.148 163.151 54.124 164.511 54.124C165.887 54.124 167.183 55.196 167.183 57.084ZM170.811 57.052C170.811 59.772 172.651 61.644 174.971 61.644C176.411 61.644 177.467 60.972 178.027 60.172V61.5H179.867V49.66H178.027V53.916C177.355 53.084 176.139 52.54 174.987 52.54C172.651 52.54 170.811 54.332 170.811 57.052ZM178.027 57.084C178.027 58.988 176.731 60.06 175.355 60.06C173.995 60.06 172.683 58.956 172.683 57.052C172.683 55.148 173.995 54.124 175.355 54.124C176.731 54.124 178.027 55.196 178.027 57.084ZM181.655 57.052C181.655 59.772 183.495 61.644 185.815 61.644C187.255 61.644 188.311 60.972 188.871 60.172V61.5H190.711V49.66H188.871V53.916C188.199 53.084 186.983 52.54 185.831 52.54C183.495 52.54 181.655 54.332 181.655 57.052ZM188.871 57.084C188.871 58.988 187.575 60.06 186.199 60.06C184.839 60.06 183.527 58.956 183.527 57.052C183.527 55.148 184.839 54.124 186.199 54.124C187.575 54.124 188.871 55.196 188.871 57.084ZM196.754 54.188L198.434 50.38H196.45L195.474 54.188H196.754ZM193.874 54.188L195.554 50.38H193.57L192.594 54.188H193.874ZM205.782 54.364V49.66H204.326V61.5H205.782V59.884C206.326 60.844 207.462 61.644 209.062 61.644C211.414 61.644 213.222 59.804 213.222 57.084C213.222 54.348 211.43 52.588 209.062 52.588C207.51 52.588 206.342 53.388 205.782 54.364ZM211.734 57.084C211.734 59.148 210.374 60.364 208.758 60.364C207.174 60.364 205.782 59.164 205.782 57.1C205.782 55.068 207.174 53.852 208.758 53.852C210.374 53.852 211.734 55.02 211.734 57.084ZM222.914 52.732H221.458V57.548C221.458 59.436 220.45 60.364 218.946 60.364C217.474 60.364 216.498 59.452 216.498 57.676V52.732H215.058V57.868C215.058 60.38 216.642 61.628 218.658 61.628C219.826 61.628 220.898 61.116 221.458 60.204V61.5H222.914V52.732ZM225.693 59.1C225.693 60.86 226.573 61.5 228.125 61.5H229.437V60.268H228.365C227.469 60.268 227.149 59.964 227.149 59.1V53.932H229.437V52.732H227.149V50.524H225.693V52.732H224.557V53.932H225.693V59.1ZM231.521 59.1C231.521 60.86 232.401 61.5 233.953 61.5H235.265V60.268H234.193C233.297 60.268 232.977 59.964 232.977 59.1V53.932H235.265V52.732H232.977V50.524H231.521V52.732H230.385V53.932H231.521V59.1ZM245.349 57.1C245.349 54.332 243.413 52.588 240.917 52.588C238.437 52.588 236.485 54.332 236.485 57.1C236.485 59.884 238.373 61.644 240.853 61.644C243.349 61.644 245.349 59.884 245.349 57.1ZM237.973 57.1C237.973 54.892 239.365 53.852 240.901 53.852C242.405 53.852 243.861 54.892 243.861 57.1C243.861 59.324 242.373 60.364 240.853 60.364C239.333 60.364 237.973 59.324 237.973 57.1ZM253.679 61.5H255.119V56.332C255.119 53.82 253.567 52.572 251.535 52.572C250.351 52.572 249.295 53.068 248.719 53.98V52.732H247.263V61.5H248.719V56.652C248.719 54.764 249.743 53.836 251.231 53.836C252.703 53.836 253.679 54.748 253.679 56.54V61.5ZM262.083 59.1C262.083 60.86 262.963 61.5 264.515 61.5H265.827V60.268H264.755C263.859 60.268 263.539 59.964 263.539 59.1V53.932H265.827V52.732H263.539V50.524H262.083V52.732H260.947V53.932H262.083V59.1ZM275.911 57.1C275.911 54.332 273.975 52.588 271.479 52.588C268.999 52.588 267.047 54.332 267.047 57.1C267.047 59.884 268.935 61.644 271.415 61.644C273.911 61.644 275.911 59.884 275.911 57.1ZM268.535 57.1C268.535 54.892 269.927 53.852 271.463 53.852C272.967 53.852 274.423 54.892 274.423 57.1C274.423 59.324 272.935 60.364 271.415 60.364C269.895 60.364 268.535 59.324 268.535 57.1ZM281.547 57.084C281.547 59.804 283.355 61.644 285.691 61.644C287.307 61.644 288.443 60.812 288.971 59.868V61.5H290.443V52.732H288.971V54.332C288.459 53.42 287.339 52.588 285.707 52.588C283.355 52.588 281.547 54.348 281.547 57.084ZM288.971 57.1C288.971 59.164 287.595 60.364 285.995 60.364C284.395 60.364 283.035 59.148 283.035 57.084C283.035 55.02 284.395 53.852 285.995 53.852C287.595 53.852 288.971 55.068 288.971 57.1ZM292.36 57.084C292.36 59.804 294.168 61.644 296.52 61.644C298.12 61.644 299.256 60.828 299.784 59.852V61.5H301.256V49.66H299.784V54.3C299.176 53.292 297.912 52.588 296.536 52.588C294.168 52.588 292.36 54.348 292.36 57.084ZM299.784 57.1C299.784 59.164 298.408 60.364 296.808 60.364C295.208 60.364 293.848 59.148 293.848 57.084C293.848 55.02 295.208 53.852 296.808 53.852C298.408 53.852 299.784 55.068 299.784 57.1ZM303.172 57.084C303.172 59.804 304.98 61.644 307.332 61.644C308.932 61.644 310.068 60.828 310.596 59.852V61.5H312.068V49.66H310.596V54.3C309.988 53.292 308.724 52.588 307.348 52.588C304.98 52.588 303.172 54.348 303.172 57.084ZM310.596 57.1C310.596 59.164 309.22 60.364 307.62 60.364C306.02 60.364 304.66 59.148 304.66 57.084C304.66 55.02 306.02 53.852 307.62 53.852C309.22 53.852 310.596 55.068 310.596 57.1ZM318.251 57.084C318.251 59.804 320.059 61.644 322.395 61.644C324.011 61.644 325.147 60.812 325.675 59.868V61.5H327.147V52.732H325.675V54.332C325.163 53.42 324.043 52.588 322.411 52.588C320.059 52.588 318.251 54.348 318.251 57.084ZM325.675 57.1C325.675 59.164 324.299 60.364 322.699 60.364C321.099 60.364 319.739 59.148 319.739 57.084C319.739 55.02 321.099 53.852 322.699 53.852C324.299 53.852 325.675 55.068 325.675 57.1ZM333.873 61.5H335.329V52.732H333.873V61.5ZM334.625 51.308C335.153 51.308 335.585 50.876 335.585 50.316C335.585 49.756 335.153 49.324 334.625 49.324C334.065 49.324 333.633 49.756 333.633 50.316C333.633 50.876 334.065 51.308 334.625 51.308ZM338.13 59.1C338.13 60.86 339.01 61.5 340.562 61.5H341.874V60.268H340.802C339.906 60.268 339.586 59.964 339.586 59.1V53.932H341.874V52.732H339.586V50.524H338.13V52.732H336.994V53.932H338.13V59.1ZM347.366 53.82C348.87 53.82 350.15 54.764 350.134 56.476H344.598C344.758 54.764 345.942 53.82 347.366 53.82ZM351.462 58.796H349.894C349.574 59.74 348.742 60.412 347.43 60.412C345.942 60.412 344.694 59.436 344.582 57.66H351.59C351.622 57.356 351.638 57.1 351.638 56.78C351.638 54.38 349.974 52.588 347.43 52.588C344.87 52.588 343.094 54.332 343.094 57.1C343.094 59.884 344.934 61.644 347.43 61.644C349.606 61.644 351.014 60.396 351.462 58.796ZM366.216 61.5H367.656V56.332C367.656 53.82 366.104 52.572 364.104 52.572C362.76 52.572 361.512 53.26 361 54.524C360.424 53.212 359.224 52.572 357.784 52.572C356.632 52.572 355.592 53.068 355.016 53.996V52.732H353.56V61.5H355.016V56.668C355.016 54.78 356.024 53.836 357.496 53.836C358.936 53.836 359.896 54.748 359.896 56.54V61.5H361.336V56.668C361.336 54.78 362.344 53.836 363.816 53.836C365.256 53.836 366.216 54.748 366.216 56.54V61.5Z" fill="#CCCCCC"/>
<defs>
<clipPath id="clip0_6747_17211">
<rect width="60" height="69" fill="white" transform="translate(0.5)"/>
</clipPath>
</defs>
</svg>
