<svg width="487" height="415" viewBox="0 0 487 415" fill="none" xmlns="http://www.w3.org/2000/svg">
<path opacity="0.5" d="M613.94 246.84C615.873 237.758 616.846 228.498 616.844 219.213C616.844 201.985 613.451 184.926 606.858 169.01C600.265 153.094 590.602 138.632 578.42 126.45C566.239 114.268 551.777 104.605 535.86 98.0125C519.944 91.4198 502.885 88.0265 485.658 88.0265C477.526 88.035 469.413 88.786 461.418 90.2702C458.074 89.6543 454.687 90.2701 451.211 89.8742C438.847 63.0083 418.991 40.2824 394.027 24.4253C369.063 8.56817 340.052 0.254001 310.479 0.481093H262.087C241.833 0.382666 221.759 4.28103 203.015 11.9529C184.271 19.6247 167.224 30.9193 152.851 45.1897C138.479 59.46 127.063 76.4258 119.257 95.115C111.452 113.804 107.411 133.85 107.365 154.104C107.365 155.247 107.365 155.819 107.365 156.963C75.3615 162.615 46.6528 180.092 26.9357 205.926C7.21858 231.76 -2.06583 264.062 0.924867 296.422C3.91557 328.783 18.9628 358.836 43.0805 380.619C67.1983 402.402 98.6237 414.321 131.121 414.012H606.242C628.41 415.022 650.071 407.183 666.46 392.221C682.849 377.259 692.624 356.4 693.633 334.232C694.642 312.063 686.804 290.402 671.842 274.013C656.88 257.624 636.021 247.849 613.852 246.84H613.94Z" fill="#DDEDFF"/>
<path opacity="0.4" d="M613.939 246.84C615.872 237.758 616.845 228.498 616.842 219.213C616.842 201.985 613.449 184.926 606.857 169.01C600.264 153.094 590.601 138.632 578.419 126.45C566.237 114.268 551.775 104.605 535.859 98.0125C519.943 91.4198 502.884 88.0265 485.656 88.0265C477.525 88.035 469.411 88.786 461.416 90.2702C458.073 89.6543 454.685 90.2701 451.21 89.8742C438.846 63.0083 418.99 40.2824 394.026 24.4253C369.062 8.56817 340.051 0.254001 310.477 0.481093C290.224 0.382666 270.15 4.28103 251.406 11.9529C232.661 19.6247 215.614 30.9193 201.242 45.1897C186.869 59.46 175.454 76.4258 167.648 95.115C159.843 113.804 155.801 133.85 155.755 154.104C155.755 155.247 155.755 155.819 155.755 156.963C123.752 162.615 95.0434 180.092 75.3263 205.926C55.6092 231.76 46.3248 264.062 49.3155 296.422C52.3062 328.783 67.3534 358.836 91.4712 380.619C115.589 402.402 147.014 414.321 179.511 414.012H606.24C628.409 415.022 650.07 407.183 666.459 392.221C682.848 377.259 692.622 356.4 693.632 334.232C694.641 312.063 686.802 290.402 671.841 274.013C656.879 257.624 636.019 247.849 613.851 246.84H613.939Z" fill="#DDEDFF"/>
<path d="M467.002 228.1L420.863 203.184L388.325 263.437L434.464 288.353L467.002 228.1Z" fill="#0073EE"/>
<path opacity="0.6" d="M467.002 228.1L420.863 203.184L388.325 263.437L434.464 288.353L467.002 228.1Z" fill="white"/>
<path d="M455.512 232.924L423.145 215.445L421.387 218.7L453.754 236.179L455.512 232.924Z" fill="#0073EE"/>
<path d="M452.437 238.631L420.07 221.152L418.312 224.407L450.679 241.886L452.437 238.631Z" fill="#0073EE"/>
<path d="M449.353 244.327L416.986 226.848L415.228 230.103L447.595 247.582L449.353 244.327Z" fill="#0073EE"/>
<path d="M446.265 250.022L413.898 232.543L412.141 235.798L444.508 253.277L446.265 250.022Z" fill="#0073EE"/>
<path d="M443.191 255.713L410.824 238.234L409.066 241.49L441.433 258.968L443.191 255.713Z" fill="#0073EE"/>
<path d="M440.117 261.428L407.75 243.949L405.992 247.204L438.359 264.683L440.117 261.428Z" fill="#0073EE"/>
<path d="M437.049 267.121L404.682 249.643L402.924 252.898L435.291 270.377L437.049 267.121Z" fill="#0073EE"/>
<path d="M422.54 266.658L401.586 255.342L399.828 258.597L420.782 269.913L422.54 266.658Z" fill="#0073EE"/>
<path d="M344.413 228.553C337.886 227.885 331.703 225.297 326.647 221.115C321.591 216.933 317.888 211.346 316.007 205.06C314.127 198.774 314.152 192.071 316.081 185.799C318.009 179.528 321.754 173.969 326.842 169.826C331.93 165.682 338.132 163.141 344.665 162.523C351.197 161.904 357.766 163.237 363.541 166.352C369.315 169.467 374.037 174.225 377.108 180.023C380.179 185.821 381.462 192.4 380.794 198.928C379.886 207.676 375.547 215.707 368.727 221.261C361.907 226.814 353.164 229.437 344.413 228.553Z" fill="#0073EE"/>
<path opacity="0.3" d="M350.128 225.693C366.796 224.41 379.269 209.858 377.986 193.19C376.703 176.522 362.151 164.049 345.483 165.332C328.815 166.615 316.342 181.167 317.625 197.835C318.908 214.503 333.46 226.976 350.128 225.693Z" fill="white"/>
<path d="M358.061 185.729C354.571 183.258 349.703 174.811 349.703 174.766L346.558 205.38C346.633 204.691 343.907 203.987 342.065 203.882C337.676 203.418 333.977 205.485 333.677 208.375C333.378 211.266 336.673 214.142 341.166 214.591C345.659 215.04 349.209 212.973 349.523 210.008C349.523 209.559 349.209 209.079 349.254 208.675L351.665 185.085C353.468 187.16 355.681 188.838 358.165 190.013C361.476 191.511 362.659 196.109 362.659 196.109C362.821 194.132 362.485 192.146 361.682 190.333C360.879 188.52 359.634 186.937 358.061 185.729Z" fill="white"/>
<path opacity="0.5" d="M353.413 206.142C365.118 200.072 370.529 187.287 365.498 177.587C360.468 167.886 346.901 164.943 335.196 171.013C323.491 177.083 318.08 189.868 323.11 199.568C328.141 209.269 341.707 212.212 353.413 206.142Z" fill="white"/>
<path d="M282.857 152.481L211.574 158.279L215.915 211.648L287.198 205.85L282.857 152.481Z" fill="#0073EE"/>
<path d="M279.688 156.224L215.496 161.445L219.26 207.723L283.452 202.502L279.688 156.224Z" fill="#0073EE"/>
<path opacity="0.5" d="M279.688 156.224L215.496 161.445L219.26 207.723L283.452 202.502L279.688 156.224Z" fill="white"/>
<path d="M282.934 196.214L283.443 202.505L219.249 207.732L217.422 185.235L229.718 172.564L250.942 190.133L260.737 181.701L282.934 196.214Z" fill="#0073EE"/>
<path opacity="0.3" d="M282.934 196.214L283.443 202.505L219.249 207.732L217.422 185.235L229.718 172.564L250.942 190.133L260.737 181.701L282.934 196.214Z" fill="white"/>
<path d="M269.977 169.255C270.059 170.277 269.837 171.3 269.338 172.195C268.839 173.09 268.086 173.817 267.174 174.285C266.262 174.752 265.232 174.938 264.214 174.82C263.196 174.702 262.236 174.285 261.455 173.621C260.674 172.958 260.108 172.077 259.827 171.092C259.546 170.106 259.564 169.06 259.878 168.084C260.192 167.109 260.789 166.248 261.592 165.612C262.395 164.975 263.369 164.591 264.39 164.507C265.069 164.452 265.751 164.531 266.4 164.74C267.048 164.948 267.648 165.283 268.167 165.724C268.686 166.165 269.113 166.703 269.423 167.309C269.734 167.915 269.922 168.577 269.977 169.255Z" fill="#0073EE"/>
<path opacity="0.3" d="M269.977 169.255C270.059 170.277 269.837 171.3 269.338 172.195C268.839 173.09 268.086 173.817 267.174 174.285C266.262 174.752 265.232 174.938 264.214 174.82C263.196 174.702 262.236 174.285 261.455 173.621C260.674 172.958 260.108 172.077 259.827 171.092C259.546 170.106 259.564 169.06 259.878 168.084C260.192 167.109 260.789 166.248 261.592 165.612C262.395 164.975 263.369 164.591 264.39 164.507C265.069 164.452 265.751 164.531 266.4 164.74C267.048 164.948 267.648 165.283 268.167 165.724C268.686 166.165 269.113 166.703 269.423 167.309C269.734 167.915 269.922 168.577 269.977 169.255Z" fill="white"/>
<path d="M145.964 215.492L143.208 213.799C142.719 213.497 142.166 213.314 141.594 213.265C141.022 213.215 140.446 213.301 139.913 213.515L127.676 218.682C127.162 218.891 126.71 219.23 126.366 219.666C126.022 220.102 125.798 220.619 125.714 221.168L125.265 224.164C125.189 224.711 124.968 225.229 124.626 225.663C124.284 226.098 123.832 226.433 123.317 226.635L116.008 229.631C115.591 229.8 115.214 230.055 114.901 230.38C114.588 230.704 114.347 231.091 114.194 231.514C114.04 231.938 113.976 232.389 114.008 232.839C114.039 233.288 114.165 233.726 114.376 234.124L133.847 274.024C134.258 274.851 134.966 275.493 135.828 275.823C136.691 276.153 137.646 276.147 138.505 275.807L196.408 251.633C196.828 251.467 197.209 251.213 197.524 250.89C197.84 250.566 198.083 250.18 198.239 249.755C198.395 249.331 198.459 248.879 198.427 248.428C198.396 247.977 198.269 247.538 198.056 247.139L178.585 207.254C178.176 206.425 177.47 205.779 176.607 205.446C175.744 205.113 174.787 205.117 173.927 205.457L149.259 215.776C148.725 215.99 148.15 216.076 147.577 216.026C147.005 215.977 146.452 215.794 145.964 215.492Z" fill="#0073EE"/>
<path d="M181.328 206.937L128.292 229.164C127.21 229.631 126.338 230.48 125.841 231.549C125.344 232.617 125.257 233.831 125.596 234.96L137.204 271.7C137.367 272.226 137.64 272.712 138.006 273.125C138.371 273.538 138.82 273.869 139.322 274.095C139.825 274.322 140.37 274.439 140.921 274.439C141.473 274.44 142.018 274.323 142.521 274.096L195.571 251.9C196.649 251.427 197.517 250.577 198.013 249.51C198.509 248.443 198.6 247.232 198.267 246.103L186.645 209.363C186.486 208.833 186.217 208.342 185.853 207.924C185.49 207.507 185.041 207.172 184.537 206.942C184.034 206.712 183.487 206.593 182.933 206.592C182.379 206.591 181.832 206.709 181.328 206.937Z" fill="#0073EE"/>
<path opacity="0.5" d="M181.328 206.937L128.292 229.164C127.21 229.631 126.338 230.48 125.841 231.549C125.344 232.617 125.257 233.831 125.596 234.96L137.204 271.7C137.367 272.226 137.64 272.712 138.006 273.125C138.371 273.538 138.82 273.869 139.322 274.095C139.825 274.322 140.37 274.439 140.921 274.439C141.473 274.44 142.018 274.323 142.521 274.096L195.571 251.9C196.649 251.427 197.517 250.577 198.013 249.51C198.509 248.443 198.6 247.232 198.267 246.103L186.645 209.363C186.486 208.833 186.217 208.342 185.853 207.924C185.49 207.507 185.041 207.172 184.537 206.942C184.034 206.712 183.487 206.593 182.933 206.592C182.379 206.591 181.832 206.709 181.328 206.937Z" fill="white"/>
<path d="M373.757 295.064C374.415 291.971 374.747 288.819 374.746 285.658C374.746 279.792 373.591 273.985 371.346 268.566C369.102 263.147 365.812 258.223 361.664 254.076C357.517 249.929 352.593 246.639 347.175 244.394C341.756 242.15 335.948 240.994 330.083 240.994C327.314 240.997 324.552 241.253 321.83 241.758C320.692 241.549 319.539 241.758 318.355 241.623C314.146 232.477 307.386 224.74 298.887 219.341C290.387 213.942 280.511 211.112 270.442 211.189H253.967C247.071 211.156 240.237 212.483 233.855 215.095C227.474 217.707 221.67 221.552 216.777 226.41C211.884 231.269 207.997 237.045 205.34 243.408C202.682 249.771 201.306 256.595 201.291 263.491C201.291 263.88 201.291 264.075 201.291 264.464C190.395 266.389 180.621 272.339 173.908 281.134C167.195 289.929 164.034 300.927 165.052 311.944C166.071 322.961 171.194 333.193 179.405 340.609C187.616 348.025 198.315 352.084 209.378 351.978H371.136C378.684 352.322 386.058 349.653 391.638 344.559C397.218 339.466 400.546 332.364 400.889 324.817C401.233 317.269 398.564 309.894 393.47 304.315C388.377 298.735 381.275 295.407 373.727 295.064H373.757Z" fill="#0073EE"/>
<path opacity="0.5" d="M373.757 295.064C374.415 291.971 374.747 288.819 374.746 285.658C374.746 279.792 373.591 273.985 371.346 268.566C369.102 263.147 365.812 258.223 361.664 254.076C357.517 249.929 352.593 246.639 347.175 244.394C341.756 242.15 335.948 240.994 330.083 240.994C327.314 240.997 324.552 241.253 321.83 241.758C320.692 241.549 319.539 241.758 318.355 241.623C314.146 232.477 307.386 224.74 298.887 219.341C290.387 213.942 280.511 211.112 270.442 211.189H253.967C247.071 211.156 240.237 212.483 233.855 215.095C227.474 217.707 221.67 221.552 216.777 226.41C211.884 231.269 207.997 237.045 205.34 243.408C202.682 249.771 201.306 256.595 201.291 263.491C201.291 263.88 201.291 264.075 201.291 264.464C190.395 266.389 180.621 272.339 173.908 281.134C167.195 289.929 164.034 300.927 165.052 311.944C166.071 322.961 171.194 333.193 179.405 340.609C187.616 348.025 198.315 352.084 209.378 351.978H371.136C378.684 352.322 386.058 349.653 391.638 344.559C397.218 339.466 400.546 332.364 400.889 324.817C401.233 317.269 398.564 309.894 393.47 304.315C388.377 298.735 381.275 295.407 373.727 295.064H373.757Z" fill="white"/>
<path opacity="0.4" d="M373.757 295.064C374.415 291.971 374.746 288.819 374.745 285.658C374.745 279.792 373.59 273.985 371.345 268.566C369.101 263.147 365.811 258.223 361.664 254.076C357.516 249.929 352.593 246.639 347.174 244.394C341.755 242.15 335.947 240.994 330.082 240.994C327.314 240.997 324.551 241.253 321.829 241.758C320.691 241.549 319.538 241.758 318.355 241.623C314.145 232.477 307.385 224.74 298.886 219.341C290.387 213.942 280.51 211.112 270.441 211.189C263.546 211.156 256.712 212.483 250.33 215.095C243.948 217.707 238.145 221.552 233.251 226.41C228.358 231.269 224.472 237.045 221.814 243.408C219.157 249.771 217.781 256.595 217.765 263.491C217.765 263.88 217.765 264.075 217.765 264.464C206.869 266.389 197.095 272.339 190.383 281.134C183.67 289.929 180.509 300.927 181.527 311.944C182.545 322.961 187.668 333.193 195.879 340.609C204.09 348.025 214.789 352.084 225.853 351.978H371.136C378.683 352.322 386.058 349.653 391.637 344.559C397.217 339.466 400.545 332.364 400.889 324.817C401.232 317.269 398.564 309.894 393.47 304.315C388.376 298.735 381.274 295.407 373.727 295.064H373.757Z" fill="white"/>
<path d="M236.665 295.723C231.817 295.723 228.121 299.275 228.121 304.291C228.121 309.307 231.817 312.835 236.689 312.835C241.153 312.835 244.201 309.715 244.873 306.307V303.379H235.801V305.947H241.561C241.057 308.323 239.401 309.811 236.809 309.811C233.689 309.811 231.577 307.699 231.577 304.291C231.577 300.955 233.665 298.819 236.665 298.819C238.441 298.819 239.833 299.563 240.601 300.979H244.465C243.385 297.619 240.409 295.723 236.665 295.723ZM247.359 312.691H250.719V299.395H247.359V312.691ZM249.063 297.811C250.239 297.811 251.127 296.947 251.127 295.843C251.127 294.739 250.239 293.875 249.063 293.875C247.863 293.875 246.999 294.739 246.999 295.843C246.999 296.947 247.863 297.811 249.063 297.811ZM264.359 308.899C264.263 304.027 256.895 305.539 256.895 303.115C256.895 302.347 257.543 301.843 258.791 301.843C260.111 301.843 260.927 302.539 261.023 303.571H264.239C264.047 300.931 262.103 299.179 258.887 299.179C255.599 299.179 253.631 300.955 253.631 303.163C253.631 308.035 261.143 306.523 261.143 308.899C261.143 309.667 260.423 310.267 259.103 310.267C257.759 310.267 256.823 309.499 256.703 308.491H253.319C253.463 310.963 255.791 312.907 259.127 312.907C262.367 312.907 264.359 311.179 264.359 308.899ZM266.301 304.291C266.301 309.307 269.973 312.835 274.797 312.835C278.517 312.835 281.541 310.867 282.669 307.411H278.805C278.013 309.043 276.573 309.835 274.773 309.835C271.845 309.835 269.757 307.675 269.757 304.291C269.757 300.883 271.845 298.747 274.773 298.747C276.573 298.747 278.013 299.539 278.805 301.147H282.669C281.541 297.715 278.517 295.723 274.797 295.723C269.973 295.723 266.301 299.275 266.301 304.291ZM285.539 312.691H288.899V294.931H285.539V312.691ZM305.059 306.043C305.059 301.843 302.059 299.179 298.219 299.179C294.379 299.179 291.379 301.843 291.379 306.043C291.379 310.219 294.283 312.907 298.123 312.907C301.987 312.907 305.059 310.219 305.059 306.043ZM294.787 306.043C294.787 303.379 296.395 302.107 298.171 302.107C299.947 302.107 301.603 303.379 301.603 306.043C301.603 308.683 299.899 309.979 298.123 309.979C296.323 309.979 294.787 308.683 294.787 306.043ZM320.075 299.395H316.691V306.715C316.691 308.851 315.539 310.003 313.715 310.003C311.939 310.003 310.763 308.851 310.763 306.715V299.395H307.403V307.195C307.403 310.843 309.635 312.859 312.731 312.859C314.387 312.859 315.851 312.139 316.691 311.011V312.691H320.075V299.395ZM322.526 305.995C322.526 310.147 325.214 312.907 328.598 312.907C330.686 312.907 332.174 311.947 332.966 310.723V312.691H336.374V294.931H332.966V301.243C332.054 299.995 330.374 299.179 328.622 299.179C325.214 299.179 322.526 301.843 322.526 305.995ZM332.99 306.043C332.99 308.563 331.31 309.955 329.462 309.955C327.662 309.955 325.958 308.515 325.958 305.995C325.958 303.475 327.662 302.131 329.462 302.131C331.31 302.131 332.99 303.523 332.99 306.043Z" fill="white"/>
</svg>
