<svg width="974" height="223" viewBox="0 0 974 223" fill="none" xmlns="http://www.w3.org/2000/svg">
<mask id="mask0_3298_36344" style="mask-type:alpha" maskUnits="userSpaceOnUse" x="40" y="25" width="934" height="143">
<rect x="40.5" y="26.0039" width="933" height="141" rx="19.5" fill="white" stroke="#CCCCCC"/>
</mask>
<g mask="url(#mask0_3298_36344)">
<path d="M77.2041 -18.5799L285.353 25.4402C290.496 26.5293 295.327 28.7656 299.483 31.982C303.639 35.1984 307.014 39.3116 309.354 44.0141C311.694 48.7166 312.94 53.8867 312.998 59.1378C313.056 64.3888 311.924 69.585 309.688 74.3378L244.078 213.714C240.374 221.582 233.857 227.782 225.809 231.094C217.76 234.407 208.763 234.593 200.584 231.616L27.9364 168.811C19.8402 165.866 13.1224 160.031 9.07858 152.432C5.03476 144.832 3.95132 136.007 6.03717 127.657L36.1399 7.06491C38.3266 -1.6892 43.8289 -9.25434 51.4883 -14.0377C59.1477 -18.821 68.3667 -20.4494 77.2041 -18.5799Z" fill="#E2F0FF"/>
<path opacity="0.7" d="M69.204 -14.5838L277.353 29.4363C282.496 30.5254 287.327 32.7617 291.483 35.9781C295.639 39.1945 299.014 43.3077 301.354 48.0102C303.694 52.7127 304.94 57.8828 304.998 63.1338C305.056 68.3849 303.924 73.5811 301.688 78.3339L236.078 217.71C232.374 225.578 225.857 231.778 217.809 235.09C209.76 238.403 200.763 238.589 192.584 235.612L19.9364 172.807C11.8401 169.862 5.12238 164.027 1.07855 156.428C-2.96527 148.829 -4.04871 140.003 -1.96286 131.653L28.1399 11.061C30.3265 2.3069 35.8288 -5.25824 43.4883 -10.0416C51.1477 -14.8249 60.3666 -16.4533 69.204 -14.5838Z" fill="white"/>
</g>
</svg>
