<svg width="316" height="258" viewBox="0 0 316 258" fill="none" xmlns="http://www.w3.org/2000/svg">
<path d="M80.2041 0.756085L288.353 44.7762C293.496 45.8652 298.327 48.1016 302.483 51.318C306.639 54.5344 310.014 58.6476 312.354 63.3501C314.694 68.0526 315.94 73.2226 315.998 78.4737C316.056 83.7248 314.924 88.921 312.688 93.6737L247.078 233.05C243.374 240.918 236.857 247.118 228.809 250.43C220.76 253.743 211.763 253.929 203.584 250.952L30.9364 188.147C22.8402 185.202 16.1224 179.367 12.0786 171.768C8.03477 164.168 6.95132 155.343 9.03716 146.993L39.1399 26.4008C41.3266 17.6467 46.8289 10.0816 54.4883 5.29825C62.1477 0.514902 71.3667 -1.11343 80.2041 0.756085V0.756085Z" fill="#E2F0FF"/>
<path opacity="0.7" d="M72.204 4.75218L280.353 48.7723C285.496 49.8613 290.327 52.0977 294.483 55.3141C298.639 58.5305 302.014 62.6437 304.354 67.3462C306.694 72.0487 307.94 77.2187 307.998 82.4698C308.056 87.7209 306.924 92.9171 304.688 97.6698L239.078 237.046C235.374 244.914 228.857 251.114 220.809 254.426C212.76 257.739 203.763 257.925 195.584 254.948L22.9364 192.143C14.8401 189.198 8.12237 183.363 4.07855 175.764C0.0347214 168.164 -1.0487 159.339 1.03713 150.989L31.1399 30.3969C33.3265 21.6428 38.8288 14.0777 46.4883 9.29435C54.1477 4.511 63.3666 2.88266 72.204 4.75218Z" fill="white"/>
</svg>
