<svg width="27" height="26" viewBox="0 0 27 26" fill="none" xmlns="http://www.w3.org/2000/svg">
<path d="M26.1235 4.0625C26.1235 4.97707 25.3974 5.81953 24.1735 6.5C22.6958 7.31758 20.497 7.89648 17.963 8.06914C17.7802 7.98281 17.5872 7.89648 17.3942 7.81523C15.3884 6.97734 12.7274 6.5 9.87354 6.5C9.45205 6.5 9.04072 6.51016 8.62939 6.53047L8.57353 6.5C7.34971 5.81953 6.62354 4.97707 6.62354 4.0625C6.62354 1.81898 10.945 0 16.3735 0C21.7563 0 26.1235 1.81898 26.1235 4.0625ZM8.28408 8.18086C8.80205 8.14531 9.33018 8.125 9.87354 8.125C13.0321 8.125 15.8353 8.74961 17.6177 9.71953C18.8771 10.4051 19.6235 11.2582 19.6235 12.1875C19.6235 12.3449 19.588 12.5887 19.5169 12.7816C19.2833 13.452 18.613 14.0664 17.7395 14.5895C17.7345 14.5895 17.7243 14.5945 17.7192 14.5996C17.704 14.6098 17.6888 14.6148 17.6735 14.625C15.8962 15.6102 13.0626 16.25 9.87354 16.25C6.84697 16.25 4.1383 15.6762 2.34979 14.7723C2.25482 14.7215 2.1624 14.6301 2.07303 14.625C0.848691 13.9445 0.123535 13.1016 0.123535 12.1875C0.123535 10.4203 2.83678 8.91211 6.62354 8.35859C7.15674 8.27734 7.71025 8.21641 8.28408 8.18086ZM20.0247 9.47578C21.4618 9.25234 22.7771 8.89688 23.8942 8.43477C24.722 8.08945 25.4888 7.66289 26.1235 7.13984V8.9375C26.1235 9.91758 25.2856 10.8215 23.8993 11.5223C23.1528 11.898 22.254 12.2129 21.2384 12.4566C21.2435 12.3703 21.2485 12.2789 21.2485 12.1875C21.2485 11.0754 20.7103 10.1613 20.0247 9.47578ZM19.6235 17.0625C19.6235 17.9766 18.8974 18.8195 17.6735 19.5C17.5821 19.5051 17.4907 19.5965 17.3993 19.6473C15.6067 20.5512 12.9001 21.125 9.87354 21.125C6.68447 21.125 3.85189 20.4852 2.07303 19.5C0.848691 18.8195 0.12355 17.9766 0.12355 17.0625V15.2648C0.755762 15.7879 1.52611 16.2145 2.35436 16.5598C4.36072 17.3977 7.01963 17.875 9.87354 17.875C12.7274 17.875 15.3884 17.3977 17.3942 16.5598C17.7903 16.3973 18.1712 16.2094 18.5317 16.0063C18.8415 15.8336 19.131 15.6406 19.4052 15.4375C19.4813 15.3816 19.5524 15.3207 19.6235 15.2648V17.0625ZM21.2485 14.1223C22.1677 13.8684 23.1021 13.6398 23.8942 13.3098C24.722 12.9645 25.4888 12.5379 26.1235 12.0148V13.8125C26.1235 14.3457 25.8696 14.8789 25.3669 15.3816C24.5392 16.2094 23.0817 16.8898 21.2384 17.3316C21.2435 17.2453 21.2485 17.1539 21.2485 17.0625V14.1223ZM9.87354 22.75C12.7274 22.75 15.3884 22.2727 17.3942 21.4348C18.222 21.0895 18.9888 20.6629 19.6235 20.1398V21.9375C19.6235 24.182 15.2563 26 9.87354 26C4.48869 26 0.12355 24.182 0.12355 21.9375V20.1398C0.755762 20.6629 1.52611 21.0895 2.35436 21.4348C4.36072 22.2727 7.01963 22.75 9.87354 22.75Z" fill="white"/>
</svg>
