<svg width="30" height="26" viewBox="0 0 30 26" fill="none" xmlns="http://www.w3.org/2000/svg">
<path fill-rule="evenodd" clip-rule="evenodd" d="M19.1919 7.42857L26.5856 0.0348213C26.5535 0.03107 26.5213 0.0263289 26.489 0.0215628L26.489 0.0215618L26.489 0.0215612C26.4163 0.0108436 26.3428 0 26.2664 0H21.2719L13.8433 7.42857H19.1919ZM9.90617 7.42857L17.3347 0H11.9838L4.55527 7.42857H9.90617ZM29.1508 1.40388L23.1267 7.42857H29.9807V3.71429C29.9807 2.83621 29.6615 2.03996 29.1508 1.40388ZM8.04902 0H3.98072C1.92916 0 0.266434 1.66272 0.266434 3.71429V7.42857H0.618246L8.04902 0ZM0.266434 22.2857C0.266434 24.3373 1.92916 26 3.98072 26H26.2664C28.318 26 29.9807 24.3373 29.9807 22.2857V9.28571H0.266434V22.2857ZM9.3924 23.5998H8.6084V20.4974H9.3924V23.5998ZM9.4876 19.6686C9.4876 19.9262 9.2804 20.1278 9.006 20.1278C8.726 20.1278 8.5244 19.9262 8.5244 19.6686C8.5244 19.411 8.726 19.2094 9.006 19.2094C9.2804 19.2094 9.4876 19.411 9.4876 19.6686ZM4.11956 21.6398C4.11956 20.4694 4.98196 19.6406 6.11316 19.6406C6.98676 19.6406 7.68116 20.083 7.93316 20.867H7.03156C6.85236 20.5366 6.52756 20.363 6.11316 20.363C5.41316 20.363 4.92596 20.8614 4.92596 21.6398C4.92596 22.435 5.41876 22.9278 6.14676 22.9278C6.75156 22.9278 7.13796 22.5806 7.25556 22.0262H5.91156V21.427H8.02836V22.1102C7.87156 22.9054 7.16036 23.6334 6.11876 23.6334C4.98196 23.6334 4.11956 22.8102 4.11956 21.6398ZM12.575 22.715C12.5619 22.0491 11.9665 21.8943 11.4756 21.7666C11.1284 21.6764 10.8334 21.5997 10.8334 21.3654C10.8334 21.1862 10.9846 21.0686 11.2758 21.0686C11.5838 21.0686 11.7742 21.231 11.7966 21.4718H12.547C12.5022 20.8558 12.0486 20.447 11.2982 20.447C10.531 20.447 10.0718 20.8614 10.0718 21.3766C10.0718 22.0459 10.6795 22.1989 11.1792 22.3246C11.5282 22.4124 11.8246 22.487 11.8246 22.715C11.8246 22.8942 11.6566 23.0342 11.3486 23.0342C11.035 23.0342 10.8166 22.855 10.7886 22.6198H9.99899C10.0326 23.1966 10.5758 23.6502 11.3542 23.6502C12.1102 23.6502 12.575 23.247 12.575 22.715ZM14.333 23.5998C13.7394 23.5998 13.3418 23.3478 13.3418 22.6366V21.1414H12.9722V20.4974H13.3418V19.7302H14.1314V20.4974H14.8258V21.1414H14.1314V22.6422C14.1314 22.8494 14.2154 22.939 14.4618 22.939H14.8258V23.5998H14.333ZM18.3184 20.4974H17.5288V22.2054C17.5288 22.7038 17.26 22.9726 16.8344 22.9726C16.42 22.9726 16.1456 22.7038 16.1456 22.2054V20.4974H15.3616V22.3174C15.3616 23.1686 15.8824 23.639 16.6048 23.639C16.9912 23.639 17.3328 23.471 17.5288 23.2078V23.5998H18.3184V20.4974ZM19.876 19.4558V20.951C20.0664 20.6654 20.4304 20.447 20.9008 20.447C21.696 20.447 22.3176 21.0686 22.3176 22.0374C22.3176 23.0062 21.696 23.6502 20.9008 23.6502C20.4136 23.6502 20.0664 23.4262 19.876 23.1574V23.5998H19.092V19.4558H19.876ZM20.6936 22.9614C21.1192 22.9614 21.5168 22.6254 21.5168 22.0374C21.5168 21.4494 21.1192 21.1358 20.6936 21.1358C20.2736 21.1358 19.876 21.4606 19.876 22.0486C19.876 22.6366 20.2736 22.9614 20.6936 22.9614ZM24.2201 21.091C24.6233 21.091 24.9481 21.3486 24.9593 21.7574H23.4865C23.5481 21.3318 23.8449 21.091 24.2201 21.091ZM25.6929 22.6254H24.8473C24.7465 22.8326 24.5617 23.0006 24.2257 23.0006C23.8337 23.0006 23.5201 22.743 23.4809 22.2838H25.7489C25.7657 22.183 25.7713 22.0822 25.7713 21.9814C25.7713 21.0574 25.1385 20.447 24.2425 20.447C23.3241 20.447 22.6857 21.0686 22.6857 22.0486C22.6857 23.023 23.3409 23.6502 24.2425 23.6502C25.0097 23.6502 25.5249 23.1966 25.6929 22.6254ZM9.81797 14.4345C9.81797 14.1992 9.69538 13.9808 9.49388 13.8568L5.43612 11.3773C5.22729 11.2498 4.9659 11.2449 4.75257 11.3645C4.53919 11.4843 4.40706 11.7099 4.40706 11.9545V16.9145C4.40706 17.1597 4.53919 17.3851 4.75257 17.5049C4.9659 17.6247 5.22729 17.6191 5.43612 17.4796L9.49388 14.9995C9.69538 14.8882 9.81797 14.6698 9.81797 14.4345Z" fill="white"/>
</svg>
