<svg width="34" height="26" viewBox="0 0 34 26" fill="none" xmlns="http://www.w3.org/2000/svg">
<path d="M21.4959 3.13066C21.9682 3.20378 22.1713 3.78777 21.826 4.13409L19.8963 5.99726L20.3534 8.63789C20.3787 9.11523 19.9319 9.48085 19.4951 9.2625L17.1338 8.01835L14.7522 9.27773C14.3155 9.49609 13.8229 9.13046 13.894 8.6582L14.351 6.01249L12.4213 4.13409C12.076 3.78777 12.2791 3.20378 12.7514 3.13066L15.4073 2.74777L16.6057 0.321539C16.8241 -0.116246 17.4436 -0.0980159 17.6416 0.321539L18.8401 2.74777L21.4959 3.13066ZM20.3737 13C21.2725 13 21.9987 13.7262 21.9987 14.625V24.375C21.9987 25.2738 21.2725 26 20.3737 26H13.8737C12.9748 26 12.2487 25.2738 12.2487 24.375V14.625C12.2487 13.7262 12.9748 13 13.8737 13H20.3737ZM8.99866 16.25C9.89749 16.25 10.6237 16.9762 10.6237 17.875V24.375C10.6237 25.2738 9.89749 26 8.99866 26H2.49866C1.60135 26 0.873657 25.2738 0.873657 24.375V17.875C0.873657 16.9762 1.60135 16.25 2.49866 16.25H8.99866ZM23.6237 21.125C23.6237 20.2262 24.3498 19.5 25.2487 19.5H31.7487C32.6475 19.5 33.3737 20.2262 33.3737 21.125V24.375C33.3737 25.2738 32.6475 26 31.7487 26H25.2487C24.3498 26 23.6237 25.2738 23.6237 24.375V21.125Z" fill="white"/>
</svg>
