<svg width="32" height="26" viewBox="0 0 32 26" fill="none" xmlns="http://www.w3.org/2000/svg">
<path d="M0.921997 8.83284V8.48843C0.921997 4.33767 3.92194 0.797354 8.01213 0.115655C10.6665 -0.335049 13.4752 0.547358 15.411 2.48616L16.1236 3.19755L16.7828 2.48616C18.772 0.547358 21.5273 -0.335049 24.2351 0.115655C28.3265 0.797354 31.3253 4.33767 31.3253 8.48843V8.83284C31.3253 11.2972 30.3039 13.6546 28.4987 15.3351L17.7685 25.3527C17.3231 25.7684 16.7353 26 16.1236 26C15.512 26 14.9241 25.7684 14.4788 25.3527L3.74796 15.3351C1.94514 13.6546 0.922015 11.2972 0.922015 8.83284H0.921997Z" fill="white"/>
</svg>
