<svg width="17" height="15" viewBox="0 0 17 15" fill="none" xmlns="http://www.w3.org/2000/svg">
<path d="M0.5 5.12769V4.94116C0.5 2.69307 2.1248 0.775604 4.34008 0.40639C5.7777 0.162284 7.29893 0.640204 8.3474 1.69028L8.73333 2.07557L9.09033 1.69028C10.1677 0.640204 11.66 0.162284 13.1266 0.40639C15.3425 0.775604 16.9667 2.69307 16.9667 4.94116V5.12769C16.9667 6.46239 16.4135 7.73921 15.4358 8.64937L9.62421 14.075C9.383 14.3001 9.0646 14.4256 8.73333 14.4256C8.40207 14.4256 8.08367 14.3001 7.84246 14.075L2.03056 8.64937C1.05414 7.73921 0.50001 6.46239 0.50001 5.12769H0.5Z" fill="#FB5B5B"/>
</svg>
