<svg width="27" height="26" viewBox="0 0 27 26" fill="none" xmlns="http://www.w3.org/2000/svg">
<path d="M26.1236 5.5192C26.1236 8.64732 23.6281 11.0906 20.5522 11.0906C19.049 11.0906 17.6852 10.5509 16.687 9.5817L11.2258 12.3094C11.2548 12.5357 11.2142 12.7156 11.2142 13C11.2142 13.2321 11.2548 13.4121 11.2258 13.6906L16.687 16.4183C17.6852 15.4491 19.049 14.8571 20.5522 14.8571C23.6281 14.8571 26.1236 17.3004 26.1236 20.4286C26.1236 23.5045 23.6281 26 20.5522 26C17.424 26 14.9807 23.5045 14.9807 20.4286C14.9807 20.1442 14.9923 19.9643 15.0214 19.7379L9.5602 17.0103C8.56199 17.9795 7.19815 18.5714 5.69502 18.5714C2.61797 18.5714 0.123596 16.0759 0.123596 13C0.123596 9.87187 2.61797 7.42857 5.69502 7.42857C7.19815 7.42857 8.56199 8.02054 9.5602 8.98973L15.0214 6.26205C14.9923 5.98348 14.9807 5.80357 14.9807 5.57143C14.9807 2.49437 17.424 0 20.5522 0C23.6281 0 26.1236 2.49437 26.1236 5.57143V5.5192ZM5.64279 14.8049C6.72226 14.8049 7.49994 14.0272 7.49994 12.9478C7.49994 11.9728 6.72226 11.0906 5.64279 11.0906C4.66953 11.0906 3.78565 11.9728 3.78565 12.9478C3.78565 14.0272 4.66953 14.8049 5.64279 14.8049ZM20.5522 3.66205C19.5249 3.66205 18.695 4.5442 18.695 5.5192C18.695 6.59866 19.5249 7.37634 20.5522 7.37634C21.5794 7.37634 22.4093 6.59866 22.4093 5.5192C22.4093 4.5442 21.5794 3.66205 20.5522 3.66205ZM20.5522 22.2857C21.5794 22.2857 22.4093 21.4558 22.4093 20.4286C22.4093 19.4013 21.5794 18.5714 20.5522 18.5714C19.5249 18.5714 18.695 19.4013 18.695 20.4286C18.695 21.4558 19.5249 22.2857 20.5522 22.2857Z" fill="white"/>
</svg>
