<svg width="23" height="18" viewBox="0 0 23 18" fill="none" xmlns="http://www.w3.org/2000/svg">
<path d="M14.3306 5.47785L19.9292 0.803265C19.8501 0.79556 19.771 0.78125 19.6875 0.78125H15.9056L10.2806 5.47785H14.3306ZM7.29932 5.47785L12.9243 0.78125H8.87256L3.24756 5.47785H7.29932ZM21.8716 1.66883L17.3101 5.47785H22.5V3.12955C22.5 2.5744 22.2583 2.07098 21.8716 1.66883ZM5.89307 0.78125H2.8125C1.25903 0.78125 0 1.83248 0 3.12955V5.47785H0.266396L5.89307 0.78125ZM0 14.8711C0 16.1681 1.25903 17.2194 2.8125 17.2194H19.6875C21.241 17.2194 22.5 16.1681 22.5 14.8711V6.652H0V14.8711Z" fill="#68717A"/>
</svg>
