<svg width="34" height="26" viewBox="0 0 34 26" fill="none" xmlns="http://www.w3.org/2000/svg">
<path d="M18.7708 21.9375C18.7708 22.3862 18.407 22.75 17.9583 22.75H9.83327C9.38446 22.75 9.02077 22.3862 9.02077 21.9375V6.5H3.33327C1.98706 6.5 0.895782 7.5918 0.895782 8.9375V23.5625C0.895782 24.9087 1.98707 26 3.33328 26H24.4583C25.8045 26 26.8958 24.9087 26.8958 23.5625L26.8958 19.5H18.7708V21.9375ZM6.17702 22.293C6.17702 22.5453 5.97232 22.75 5.71999 22.75H4.19655C3.94422 22.75 3.73952 22.5453 3.73952 22.293V20.7695C3.73952 20.5172 3.94422 20.3125 4.19655 20.3125H5.71999C5.97232 20.3125 6.17702 20.5172 6.17702 20.7695V22.293ZM6.17702 17.0117C6.17702 17.2641 5.97232 17.4688 5.71999 17.4688H4.19655C3.94422 17.4688 3.73952 17.2641 3.73952 17.0117V15.4883C3.73952 15.2359 3.94422 15.0312 4.19655 15.0312H5.71999C5.97232 15.0312 6.17702 15.2359 6.17702 15.4883V17.0117ZM6.17702 11.7305C6.17702 11.9828 5.97232 12.1875 5.71999 12.1875H4.19655C3.94422 12.1875 3.73952 11.9828 3.73952 11.7305V10.207C3.73952 9.95312 3.94417 9.75 4.19655 9.75H5.71999C5.97232 9.75 6.17702 9.9547 6.17702 10.207V11.7305ZM21.6145 20.7695C21.6145 20.5172 21.8192 20.3125 22.0715 20.3125H23.595C23.8473 20.3125 24.052 20.5172 24.052 20.7695V22.293C24.052 22.5453 23.8473 22.75 23.595 22.75H22.0715C21.8192 22.75 21.6145 22.5453 21.6145 22.293V20.7695ZM30.9126 0H13.0376C11.7376 0 10.6001 1.09129 10.6001 2.4375V15.4375C10.6001 16.7837 11.6914 17.875 13.0376 17.875H30.9126C32.2588 17.875 33.3501 16.7837 33.3501 15.4375V2.4375C33.3958 1.09129 32.304 0 30.9126 0ZM16.2876 3.25C17.1854 3.25 17.9126 3.9777 17.9126 4.875C17.9126 5.7723 17.1854 6.5 16.2876 6.5C15.4344 6.5 14.6626 5.77383 14.6626 4.875C14.6626 3.97617 15.4344 3.25 16.2876 3.25ZM30.0493 14.1984C29.9071 14.4625 29.6329 14.625 29.3333 14.625H14.6626C14.3579 14.625 14.1243 14.4523 13.9821 14.1832C13.845 13.909 13.8704 13.5789 14.0532 13.3352L17.6079 8.46016C17.7602 8.24688 18.004 8.125 18.2173 8.125C18.4767 8.125 18.7207 8.24896 18.8739 8.45884L20.0088 10.0158L23.1948 5.23677C23.3462 5.01059 23.6001 4.875 23.9149 4.875C24.1865 4.875 24.44 5.01069 24.5908 5.23682L30.0092 13.3618C30.1762 13.6094 30.1915 13.9293 30.0493 14.1984Z" fill="white"/>
</svg>
