<svg width="20" height="20" viewBox="0 0 20 20" fill="none" xmlns="http://www.w3.org/2000/svg">
<rect width="20" height="20" rx="10" fill="#007BFF"/>
<mask id="path-2-outside-1_3844_37343" maskUnits="userSpaceOnUse" x="1" y="1" width="18" height="18" fill="black">
<rect fill="white" x="1" y="1" width="18" height="18"/>
<path fill-rule="evenodd" clip-rule="evenodd" d="M9.941 2C10.1281 2 10.5472 2.03364 10.8691 2.07477C11.1946 2.11589 11.6325 2.19065 11.842 2.23925C12.0554 2.29159 12.4034 2.39252 12.6204 2.46729C12.8375 2.54206 13.1556 2.6729 13.3315 2.7514C13.5073 2.83364 13.6907 2.93832 13.7356 2.98318C13.7843 3.02804 13.8591 3.13271 13.904 3.21495C13.9564 3.31464 13.9826 3.43302 13.9826 3.57009C13.9826 3.71589 13.9564 3.8243 13.889 3.94393C13.8404 4.03364 13.7244 4.16075 13.6383 4.2243C13.5111 4.31028 13.4213 4.34019 13.2641 4.3514C13.077 4.36262 12.9984 4.34019 12.6017 4.1757C12.3547 4.07103 12.0104 3.94393 11.8346 3.89159C11.6587 3.83925 11.3818 3.77196 11.2171 3.73832C11.0524 3.70467 10.7082 3.66355 10.4499 3.64112C10.1281 3.61495 9.83622 3.61495 9.51439 3.64486C9.25617 3.66729 8.88569 3.71963 8.6911 3.76075C8.4965 3.80187 8.1597 3.89533 7.94265 3.96635C7.7256 4.03738 7.39629 4.17196 7.21292 4.26168C7.02955 4.3514 6.70023 4.54206 6.48318 4.68411C6.26613 4.82617 5.95553 5.06168 5.79087 5.20374C5.62621 5.34579 5.368 5.60374 5.21457 5.77944C5.06488 5.9514 4.82164 6.26916 4.67943 6.48598C4.53349 6.7028 4.34263 7.03178 4.25656 7.21495C4.16675 7.39813 4.03203 7.7271 3.96093 7.94392C3.88982 8.16075 3.79627 8.4972 3.7551 8.69159C3.71394 8.88598 3.66155 9.25607 3.63909 9.51402C3.60916 9.85421 3.60916 10.1159 3.63909 10.4673C3.66155 10.7327 3.71394 11.114 3.7551 11.3084C3.79627 11.5028 3.88982 11.8393 3.96093 12.0561C4.03203 12.2729 4.16675 12.6019 4.25656 12.785C4.34263 12.9682 4.53349 13.2972 4.67943 13.514C4.82164 13.7308 5.07237 14.0561 5.23328 14.243C5.39794 14.4262 5.68235 14.7028 5.86572 14.8561C6.04909 15.0093 6.33724 15.2224 6.50189 15.3308C6.66655 15.4393 6.96967 15.6112 7.1755 15.7121C7.38132 15.8168 7.7256 15.9626 7.94265 16.0336C8.1597 16.1047 8.4965 16.1981 8.6911 16.2393C8.88569 16.2804 9.25617 16.3327 9.51439 16.3551C9.85493 16.385 10.1169 16.385 10.4687 16.3551C10.7344 16.3327 11.1161 16.2804 11.3107 16.2393C11.5052 16.1981 11.842 16.1084 12.0591 16.0336C12.2761 15.9626 12.6129 15.8243 12.8075 15.7271C13.0021 15.6336 13.3315 15.443 13.5373 15.3047C13.7431 15.1664 14.0537 14.9308 14.2258 14.7813C14.4017 14.628 14.6599 14.3701 14.8021 14.2056C14.9444 14.0411 15.1614 13.7533 15.2886 13.5701C15.4159 13.3869 15.6067 13.0579 15.7115 12.8411C15.82 12.6243 15.9697 12.2729 16.0408 12.0561C16.1157 11.8393 16.2055 11.5028 16.2466 11.3084C16.2916 11.114 16.3402 10.7589 16.3589 10.5234C16.3776 10.2879 16.3851 9.85047 16.3739 9.5514C16.3552 9.05794 16.3589 8.99439 16.4263 8.85981C16.4674 8.77757 16.5685 8.65421 16.6471 8.59065C16.7256 8.52336 16.8641 8.45234 16.9502 8.42991C17.04 8.41121 17.1747 8.40374 17.2496 8.41495C17.3281 8.42617 17.4629 8.4785 17.5489 8.5271C17.6388 8.5757 17.751 8.68037 17.8034 8.75888C17.8558 8.83738 17.9082 8.99813 17.9306 9.14019C17.9531 9.27477 17.9793 9.53645 17.9943 9.71963C18.0092 9.94019 17.9943 10.2654 17.9568 10.6542C17.9194 10.9832 17.8521 11.4467 17.7997 11.6822C17.7473 11.9178 17.6425 12.3065 17.5639 12.5421C17.4853 12.7776 17.3356 13.1477 17.2346 13.3645C17.1336 13.5813 16.9614 13.9103 16.8491 14.0935C16.7369 14.2766 16.5198 14.5981 16.3664 14.8037C16.213 15.0093 15.8762 15.3869 15.618 15.6449C15.3597 15.9028 15.0192 16.2056 14.8658 16.3252C14.7123 16.4411 14.4167 16.6393 14.2109 16.7701C14.0051 16.8972 13.6533 17.0953 13.425 17.2037C13.1967 17.3121 12.7851 17.4729 12.5082 17.5664C12.2312 17.6561 11.8271 17.7645 11.61 17.8093C11.393 17.8505 10.9926 17.9103 10.7194 17.9439C10.4499 17.9738 10.1206 18 9.98965 18C9.86241 18 9.49567 17.9664 9.17759 17.929C8.8595 17.8878 8.43662 17.8206 8.24203 17.7757C8.04743 17.7346 7.68444 17.6299 7.43745 17.5477C7.19046 17.4654 6.77134 17.2935 6.50189 17.1626C6.23245 17.0318 5.88069 16.8336 5.71603 16.729C5.55137 16.6206 5.28193 16.4299 5.11727 16.3065C4.95261 16.1794 4.61581 15.8766 4.36509 15.6299C4.1181 15.3794 3.81498 15.043 3.68774 14.8785C3.56425 14.714 3.3734 14.4449 3.26487 14.2804C3.16009 14.1159 2.96175 13.7607 2.83077 13.4953C2.6998 13.2299 2.52391 12.8 2.43784 12.5421C2.35177 12.2841 2.24324 11.8916 2.1946 11.6636C2.14969 11.4355 2.07859 10.9757 2.04491 10.6355C1.98503 10.0523 1.98503 9.98131 2.04491 9.38318C2.07859 9.03551 2.14595 8.56449 2.1946 8.33645C2.24324 8.10841 2.35177 7.71589 2.43784 7.45794C2.52391 7.2 2.70354 6.76636 2.83452 6.4972C2.96924 6.2243 3.205 5.80935 3.36217 5.58131C3.51934 5.34953 3.72517 5.06542 3.81872 4.95327C3.91602 4.84112 4.1181 4.61682 4.27527 4.45607C4.4287 4.29159 4.69066 4.0486 4.85532 3.90654C5.01997 3.76822 5.34555 3.52523 5.57757 3.36822C5.80584 3.21121 6.22123 2.9757 6.49441 2.84112C6.76385 2.71028 7.19795 2.53084 7.45616 2.44486C7.71438 2.35888 8.10731 2.25047 8.33558 2.20187C8.56386 2.15701 8.9306 2.0972 9.15887 2.07477C9.38715 2.0486 9.578 2.02243 9.58549 2.01495C9.59297 2.00748 9.75389 2 9.941 2ZM17.2608 3.62617C17.3543 3.63738 17.4965 3.68598 17.5789 3.73084C17.6575 3.7757 17.7772 3.88785 17.8408 3.97757C17.9269 4.10093 17.9568 4.18692 17.9643 4.3514C17.9756 4.48224 17.9568 4.61682 17.9194 4.71028C17.8745 4.82617 16.9876 5.73084 14.1285 8.58692C10.8953 11.8131 10.3751 12.3178 10.2441 12.3514C10.1618 12.3738 10.0533 12.3925 10.0009 12.3925C9.94848 12.3925 9.83996 12.3738 9.75763 12.3514C9.63039 12.3178 9.39838 12.1047 8.28694 10.9981C7.5572 10.2729 6.93225 9.61869 6.89109 9.54393C6.84992 9.45794 6.81998 9.3271 6.81998 9.21495C6.81998 9.11402 6.84618 8.96449 6.87986 8.88972C6.9098 8.81121 6.97342 8.70654 7.01832 8.66168C7.06323 8.61308 7.16801 8.53832 7.25034 8.49346C7.34764 8.44112 7.47113 8.41495 7.60585 8.41495C7.72934 8.41495 7.86406 8.44112 7.94265 8.48224C8.01375 8.51963 8.50773 8.97944 10.0009 10.4673L13.3801 7.09159C15.2362 5.23738 16.7631 3.71963 16.7743 3.71963C16.7855 3.71963 16.8604 3.69346 16.9427 3.66355C17.0363 3.62617 17.156 3.61495 17.2608 3.62617Z"/>
</mask>
<path fill-rule="evenodd" clip-rule="evenodd" d="M9.941 2C10.1281 2 10.5472 2.03364 10.8691 2.07477C11.1946 2.11589 11.6325 2.19065 11.842 2.23925C12.0554 2.29159 12.4034 2.39252 12.6204 2.46729C12.8375 2.54206 13.1556 2.6729 13.3315 2.7514C13.5073 2.83364 13.6907 2.93832 13.7356 2.98318C13.7843 3.02804 13.8591 3.13271 13.904 3.21495C13.9564 3.31464 13.9826 3.43302 13.9826 3.57009C13.9826 3.71589 13.9564 3.8243 13.889 3.94393C13.8404 4.03364 13.7244 4.16075 13.6383 4.2243C13.5111 4.31028 13.4213 4.34019 13.2641 4.3514C13.077 4.36262 12.9984 4.34019 12.6017 4.1757C12.3547 4.07103 12.0104 3.94393 11.8346 3.89159C11.6587 3.83925 11.3818 3.77196 11.2171 3.73832C11.0524 3.70467 10.7082 3.66355 10.4499 3.64112C10.1281 3.61495 9.83622 3.61495 9.51439 3.64486C9.25617 3.66729 8.88569 3.71963 8.6911 3.76075C8.4965 3.80187 8.1597 3.89533 7.94265 3.96635C7.7256 4.03738 7.39629 4.17196 7.21292 4.26168C7.02955 4.3514 6.70023 4.54206 6.48318 4.68411C6.26613 4.82617 5.95553 5.06168 5.79087 5.20374C5.62621 5.34579 5.368 5.60374 5.21457 5.77944C5.06488 5.9514 4.82164 6.26916 4.67943 6.48598C4.53349 6.7028 4.34263 7.03178 4.25656 7.21495C4.16675 7.39813 4.03203 7.7271 3.96093 7.94392C3.88982 8.16075 3.79627 8.4972 3.7551 8.69159C3.71394 8.88598 3.66155 9.25607 3.63909 9.51402C3.60916 9.85421 3.60916 10.1159 3.63909 10.4673C3.66155 10.7327 3.71394 11.114 3.7551 11.3084C3.79627 11.5028 3.88982 11.8393 3.96093 12.0561C4.03203 12.2729 4.16675 12.6019 4.25656 12.785C4.34263 12.9682 4.53349 13.2972 4.67943 13.514C4.82164 13.7308 5.07237 14.0561 5.23328 14.243C5.39794 14.4262 5.68235 14.7028 5.86572 14.8561C6.04909 15.0093 6.33724 15.2224 6.50189 15.3308C6.66655 15.4393 6.96967 15.6112 7.1755 15.7121C7.38132 15.8168 7.7256 15.9626 7.94265 16.0336C8.1597 16.1047 8.4965 16.1981 8.6911 16.2393C8.88569 16.2804 9.25617 16.3327 9.51439 16.3551C9.85493 16.385 10.1169 16.385 10.4687 16.3551C10.7344 16.3327 11.1161 16.2804 11.3107 16.2393C11.5052 16.1981 11.842 16.1084 12.0591 16.0336C12.2761 15.9626 12.6129 15.8243 12.8075 15.7271C13.0021 15.6336 13.3315 15.443 13.5373 15.3047C13.7431 15.1664 14.0537 14.9308 14.2258 14.7813C14.4017 14.628 14.6599 14.3701 14.8021 14.2056C14.9444 14.0411 15.1614 13.7533 15.2886 13.5701C15.4159 13.3869 15.6067 13.0579 15.7115 12.8411C15.82 12.6243 15.9697 12.2729 16.0408 12.0561C16.1157 11.8393 16.2055 11.5028 16.2466 11.3084C16.2916 11.114 16.3402 10.7589 16.3589 10.5234C16.3776 10.2879 16.3851 9.85047 16.3739 9.5514C16.3552 9.05794 16.3589 8.99439 16.4263 8.85981C16.4674 8.77757 16.5685 8.65421 16.6471 8.59065C16.7256 8.52336 16.8641 8.45234 16.9502 8.42991C17.04 8.41121 17.1747 8.40374 17.2496 8.41495C17.3281 8.42617 17.4629 8.4785 17.5489 8.5271C17.6388 8.5757 17.751 8.68037 17.8034 8.75888C17.8558 8.83738 17.9082 8.99813 17.9306 9.14019C17.9531 9.27477 17.9793 9.53645 17.9943 9.71963C18.0092 9.94019 17.9943 10.2654 17.9568 10.6542C17.9194 10.9832 17.8521 11.4467 17.7997 11.6822C17.7473 11.9178 17.6425 12.3065 17.5639 12.5421C17.4853 12.7776 17.3356 13.1477 17.2346 13.3645C17.1336 13.5813 16.9614 13.9103 16.8491 14.0935C16.7369 14.2766 16.5198 14.5981 16.3664 14.8037C16.213 15.0093 15.8762 15.3869 15.618 15.6449C15.3597 15.9028 15.0192 16.2056 14.8658 16.3252C14.7123 16.4411 14.4167 16.6393 14.2109 16.7701C14.0051 16.8972 13.6533 17.0953 13.425 17.2037C13.1967 17.3121 12.7851 17.4729 12.5082 17.5664C12.2312 17.6561 11.8271 17.7645 11.61 17.8093C11.393 17.8505 10.9926 17.9103 10.7194 17.9439C10.4499 17.9738 10.1206 18 9.98965 18C9.86241 18 9.49567 17.9664 9.17759 17.929C8.8595 17.8878 8.43662 17.8206 8.24203 17.7757C8.04743 17.7346 7.68444 17.6299 7.43745 17.5477C7.19046 17.4654 6.77134 17.2935 6.50189 17.1626C6.23245 17.0318 5.88069 16.8336 5.71603 16.729C5.55137 16.6206 5.28193 16.4299 5.11727 16.3065C4.95261 16.1794 4.61581 15.8766 4.36509 15.6299C4.1181 15.3794 3.81498 15.043 3.68774 14.8785C3.56425 14.714 3.3734 14.4449 3.26487 14.2804C3.16009 14.1159 2.96175 13.7607 2.83077 13.4953C2.6998 13.2299 2.52391 12.8 2.43784 12.5421C2.35177 12.2841 2.24324 11.8916 2.1946 11.6636C2.14969 11.4355 2.07859 10.9757 2.04491 10.6355C1.98503 10.0523 1.98503 9.98131 2.04491 9.38318C2.07859 9.03551 2.14595 8.56449 2.1946 8.33645C2.24324 8.10841 2.35177 7.71589 2.43784 7.45794C2.52391 7.2 2.70354 6.76636 2.83452 6.4972C2.96924 6.2243 3.205 5.80935 3.36217 5.58131C3.51934 5.34953 3.72517 5.06542 3.81872 4.95327C3.91602 4.84112 4.1181 4.61682 4.27527 4.45607C4.4287 4.29159 4.69066 4.0486 4.85532 3.90654C5.01997 3.76822 5.34555 3.52523 5.57757 3.36822C5.80584 3.21121 6.22123 2.9757 6.49441 2.84112C6.76385 2.71028 7.19795 2.53084 7.45616 2.44486C7.71438 2.35888 8.10731 2.25047 8.33558 2.20187C8.56386 2.15701 8.9306 2.0972 9.15887 2.07477C9.38715 2.0486 9.578 2.02243 9.58549 2.01495C9.59297 2.00748 9.75389 2 9.941 2ZM17.2608 3.62617C17.3543 3.63738 17.4965 3.68598 17.5789 3.73084C17.6575 3.7757 17.7772 3.88785 17.8408 3.97757C17.9269 4.10093 17.9568 4.18692 17.9643 4.3514C17.9756 4.48224 17.9568 4.61682 17.9194 4.71028C17.8745 4.82617 16.9876 5.73084 14.1285 8.58692C10.8953 11.8131 10.3751 12.3178 10.2441 12.3514C10.1618 12.3738 10.0533 12.3925 10.0009 12.3925C9.94848 12.3925 9.83996 12.3738 9.75763 12.3514C9.63039 12.3178 9.39838 12.1047 8.28694 10.9981C7.5572 10.2729 6.93225 9.61869 6.89109 9.54393C6.84992 9.45794 6.81998 9.3271 6.81998 9.21495C6.81998 9.11402 6.84618 8.96449 6.87986 8.88972C6.9098 8.81121 6.97342 8.70654 7.01832 8.66168C7.06323 8.61308 7.16801 8.53832 7.25034 8.49346C7.34764 8.44112 7.47113 8.41495 7.60585 8.41495C7.72934 8.41495 7.86406 8.44112 7.94265 8.48224C8.01375 8.51963 8.50773 8.97944 10.0009 10.4673L13.3801 7.09159C15.2362 5.23738 16.7631 3.71963 16.7743 3.71963C16.7855 3.71963 16.8604 3.69346 16.9427 3.66355C17.0363 3.62617 17.156 3.61495 17.2608 3.62617Z" fill="white"/>
<path fill-rule="evenodd" clip-rule="evenodd" d="M9.941 2C10.1281 2 10.5472 2.03364 10.8691 2.07477C11.1946 2.11589 11.6325 2.19065 11.842 2.23925C12.0554 2.29159 12.4034 2.39252 12.6204 2.46729C12.8375 2.54206 13.1556 2.6729 13.3315 2.7514C13.5073 2.83364 13.6907 2.93832 13.7356 2.98318C13.7843 3.02804 13.8591 3.13271 13.904 3.21495C13.9564 3.31464 13.9826 3.43302 13.9826 3.57009C13.9826 3.71589 13.9564 3.8243 13.889 3.94393C13.8404 4.03364 13.7244 4.16075 13.6383 4.2243C13.5111 4.31028 13.4213 4.34019 13.2641 4.3514C13.077 4.36262 12.9984 4.34019 12.6017 4.1757C12.3547 4.07103 12.0104 3.94393 11.8346 3.89159C11.6587 3.83925 11.3818 3.77196 11.2171 3.73832C11.0524 3.70467 10.7082 3.66355 10.4499 3.64112C10.1281 3.61495 9.83622 3.61495 9.51439 3.64486C9.25617 3.66729 8.88569 3.71963 8.6911 3.76075C8.4965 3.80187 8.1597 3.89533 7.94265 3.96635C7.7256 4.03738 7.39629 4.17196 7.21292 4.26168C7.02955 4.3514 6.70023 4.54206 6.48318 4.68411C6.26613 4.82617 5.95553 5.06168 5.79087 5.20374C5.62621 5.34579 5.368 5.60374 5.21457 5.77944C5.06488 5.9514 4.82164 6.26916 4.67943 6.48598C4.53349 6.7028 4.34263 7.03178 4.25656 7.21495C4.16675 7.39813 4.03203 7.7271 3.96093 7.94392C3.88982 8.16075 3.79627 8.4972 3.7551 8.69159C3.71394 8.88598 3.66155 9.25607 3.63909 9.51402C3.60916 9.85421 3.60916 10.1159 3.63909 10.4673C3.66155 10.7327 3.71394 11.114 3.7551 11.3084C3.79627 11.5028 3.88982 11.8393 3.96093 12.0561C4.03203 12.2729 4.16675 12.6019 4.25656 12.785C4.34263 12.9682 4.53349 13.2972 4.67943 13.514C4.82164 13.7308 5.07237 14.0561 5.23328 14.243C5.39794 14.4262 5.68235 14.7028 5.86572 14.8561C6.04909 15.0093 6.33724 15.2224 6.50189 15.3308C6.66655 15.4393 6.96967 15.6112 7.1755 15.7121C7.38132 15.8168 7.7256 15.9626 7.94265 16.0336C8.1597 16.1047 8.4965 16.1981 8.6911 16.2393C8.88569 16.2804 9.25617 16.3327 9.51439 16.3551C9.85493 16.385 10.1169 16.385 10.4687 16.3551C10.7344 16.3327 11.1161 16.2804 11.3107 16.2393C11.5052 16.1981 11.842 16.1084 12.0591 16.0336C12.2761 15.9626 12.6129 15.8243 12.8075 15.7271C13.0021 15.6336 13.3315 15.443 13.5373 15.3047C13.7431 15.1664 14.0537 14.9308 14.2258 14.7813C14.4017 14.628 14.6599 14.3701 14.8021 14.2056C14.9444 14.0411 15.1614 13.7533 15.2886 13.5701C15.4159 13.3869 15.6067 13.0579 15.7115 12.8411C15.82 12.6243 15.9697 12.2729 16.0408 12.0561C16.1157 11.8393 16.2055 11.5028 16.2466 11.3084C16.2916 11.114 16.3402 10.7589 16.3589 10.5234C16.3776 10.2879 16.3851 9.85047 16.3739 9.5514C16.3552 9.05794 16.3589 8.99439 16.4263 8.85981C16.4674 8.77757 16.5685 8.65421 16.6471 8.59065C16.7256 8.52336 16.8641 8.45234 16.9502 8.42991C17.04 8.41121 17.1747 8.40374 17.2496 8.41495C17.3281 8.42617 17.4629 8.4785 17.5489 8.5271C17.6388 8.5757 17.751 8.68037 17.8034 8.75888C17.8558 8.83738 17.9082 8.99813 17.9306 9.14019C17.9531 9.27477 17.9793 9.53645 17.9943 9.71963C18.0092 9.94019 17.9943 10.2654 17.9568 10.6542C17.9194 10.9832 17.8521 11.4467 17.7997 11.6822C17.7473 11.9178 17.6425 12.3065 17.5639 12.5421C17.4853 12.7776 17.3356 13.1477 17.2346 13.3645C17.1336 13.5813 16.9614 13.9103 16.8491 14.0935C16.7369 14.2766 16.5198 14.5981 16.3664 14.8037C16.213 15.0093 15.8762 15.3869 15.618 15.6449C15.3597 15.9028 15.0192 16.2056 14.8658 16.3252C14.7123 16.4411 14.4167 16.6393 14.2109 16.7701C14.0051 16.8972 13.6533 17.0953 13.425 17.2037C13.1967 17.3121 12.7851 17.4729 12.5082 17.5664C12.2312 17.6561 11.8271 17.7645 11.61 17.8093C11.393 17.8505 10.9926 17.9103 10.7194 17.9439C10.4499 17.9738 10.1206 18 9.98965 18C9.86241 18 9.49567 17.9664 9.17759 17.929C8.8595 17.8878 8.43662 17.8206 8.24203 17.7757C8.04743 17.7346 7.68444 17.6299 7.43745 17.5477C7.19046 17.4654 6.77134 17.2935 6.50189 17.1626C6.23245 17.0318 5.88069 16.8336 5.71603 16.729C5.55137 16.6206 5.28193 16.4299 5.11727 16.3065C4.95261 16.1794 4.61581 15.8766 4.36509 15.6299C4.1181 15.3794 3.81498 15.043 3.68774 14.8785C3.56425 14.714 3.3734 14.4449 3.26487 14.2804C3.16009 14.1159 2.96175 13.7607 2.83077 13.4953C2.6998 13.2299 2.52391 12.8 2.43784 12.5421C2.35177 12.2841 2.24324 11.8916 2.1946 11.6636C2.14969 11.4355 2.07859 10.9757 2.04491 10.6355C1.98503 10.0523 1.98503 9.98131 2.04491 9.38318C2.07859 9.03551 2.14595 8.56449 2.1946 8.33645C2.24324 8.10841 2.35177 7.71589 2.43784 7.45794C2.52391 7.2 2.70354 6.76636 2.83452 6.4972C2.96924 6.2243 3.205 5.80935 3.36217 5.58131C3.51934 5.34953 3.72517 5.06542 3.81872 4.95327C3.91602 4.84112 4.1181 4.61682 4.27527 4.45607C4.4287 4.29159 4.69066 4.0486 4.85532 3.90654C5.01997 3.76822 5.34555 3.52523 5.57757 3.36822C5.80584 3.21121 6.22123 2.9757 6.49441 2.84112C6.76385 2.71028 7.19795 2.53084 7.45616 2.44486C7.71438 2.35888 8.10731 2.25047 8.33558 2.20187C8.56386 2.15701 8.9306 2.0972 9.15887 2.07477C9.38715 2.0486 9.578 2.02243 9.58549 2.01495C9.59297 2.00748 9.75389 2 9.941 2ZM17.2608 3.62617C17.3543 3.63738 17.4965 3.68598 17.5789 3.73084C17.6575 3.7757 17.7772 3.88785 17.8408 3.97757C17.9269 4.10093 17.9568 4.18692 17.9643 4.3514C17.9756 4.48224 17.9568 4.61682 17.9194 4.71028C17.8745 4.82617 16.9876 5.73084 14.1285 8.58692C10.8953 11.8131 10.3751 12.3178 10.2441 12.3514C10.1618 12.3738 10.0533 12.3925 10.0009 12.3925C9.94848 12.3925 9.83996 12.3738 9.75763 12.3514C9.63039 12.3178 9.39838 12.1047 8.28694 10.9981C7.5572 10.2729 6.93225 9.61869 6.89109 9.54393C6.84992 9.45794 6.81998 9.3271 6.81998 9.21495C6.81998 9.11402 6.84618 8.96449 6.87986 8.88972C6.9098 8.81121 6.97342 8.70654 7.01832 8.66168C7.06323 8.61308 7.16801 8.53832 7.25034 8.49346C7.34764 8.44112 7.47113 8.41495 7.60585 8.41495C7.72934 8.41495 7.86406 8.44112 7.94265 8.48224C8.01375 8.51963 8.50773 8.97944 10.0009 10.4673L13.3801 7.09159C15.2362 5.23738 16.7631 3.71963 16.7743 3.71963C16.7855 3.71963 16.8604 3.69346 16.9427 3.66355C17.0363 3.62617 17.156 3.61495 17.2608 3.62617Z" stroke="white" mask="url(#path-2-outside-1_3844_37343)"/>
</svg>
