<svg width="145" height="110" viewBox="0 0 145 110" fill="none" xmlns="http://www.w3.org/2000/svg">
<path fill-rule="evenodd" clip-rule="evenodd" d="M69.2842 0.00289866C72.7646 -0.0208127 74.5403 0.0977442 77.0973 0.477126C78.9203 0.737951 81.8562 1.33074 83.6082 1.78125C85.3602 2.23177 87.9646 3.06167 89.4088 3.63074C90.8531 4.19981 93.0786 5.19569 94.3808 5.85961C95.683 6.52353 97.7191 7.66168 98.8792 8.39673C100.039 9.13178 102.076 10.5782 103.378 11.5978C104.68 12.6411 106.716 14.3957 110.007 17.5256L115.074 12.5462C119.477 8.20704 120.235 7.56683 120.874 7.56683C121.514 7.56683 122.176 8.1359 125.917 11.906C129.895 15.8658 130.25 16.2926 130.25 17.0514C130.25 17.8101 129.8 18.3318 118.459 29.737L119.383 31.7524C119.904 32.8669 120.732 34.8823 121.229 36.2576C121.75 37.6329 122.484 40.0751 122.887 41.7112C123.289 43.3473 123.786 45.7422 123.976 47.0463C124.189 48.3504 124.402 51.0772 124.497 53.0927C124.568 55.2978 124.52 57.9535 124.355 59.7319C124.189 61.368 123.81 64.0236 123.479 65.6597C123.171 67.2958 122.508 69.8566 122.058 71.3504C121.585 72.8443 120.732 75.1917 120.14 76.567C119.548 77.9422 118.483 80.1237 117.749 81.4278C117.039 82.7319 116.021 84.4391 115.5 85.2216C114.979 86.0041 113.89 87.4979 113.109 88.5412C112.327 89.5845 110.457 91.6948 108.942 93.2598C107.45 94.801 105.366 96.7453 104.325 97.599C103.283 98.4288 101.531 99.733 100.418 100.492C99.3054 101.25 97.435 102.412 96.2749 103.076C95.1148 103.74 92.9129 104.807 91.4213 105.447C89.9297 106.088 87.4674 107.012 85.9758 107.487C84.4842 107.961 81.8562 108.601 80.1752 108.909C78.4942 109.218 76.4107 109.597 75.5583 109.739C74.706 109.881 72.0543 110 69.6393 110C67.2244 110 64.5727 109.881 63.7203 109.739C62.868 109.597 60.8082 109.218 59.1035 108.909C57.3988 108.577 54.7945 107.937 53.3029 107.463C51.8113 107.012 49.4674 106.135 48.0942 105.566C46.7209 104.973 44.377 103.811 42.8854 102.981C41.3938 102.128 39.2393 100.776 38.1029 99.9701C36.9664 99.1639 35.2854 97.8598 34.3384 97.0773C33.415 96.2948 31.5209 94.4928 30.124 93.0464C28.7508 91.6 26.9514 89.5845 26.1701 88.5412C25.3888 87.4979 24.2997 86.0041 23.7789 85.2216C23.258 84.4391 22.2399 82.7319 21.506 81.4278C20.7957 80.1237 19.7303 77.9422 19.1384 76.567C18.5701 75.1917 17.6941 72.8443 17.2206 71.3504C16.7708 69.8566 16.1078 67.2958 15.8 65.6597C15.4686 64.0236 15.0898 61.368 14.924 59.7319C14.7583 57.9535 14.7109 55.2978 14.782 53.0927C14.8767 51.0772 15.1134 48.303 15.3028 46.9277C15.5159 45.5525 15.9894 43.205 16.3683 41.7112C16.7471 40.2174 17.3863 38.0122 17.8125 36.8504C18.215 35.6885 18.9726 33.7442 19.4935 32.5823C20.0144 31.4205 21.0561 29.3339 21.8374 27.9586C22.6187 26.5834 23.9209 24.5442 24.7259 23.406C25.5309 22.2679 26.8331 20.5844 27.6144 19.6359C28.3957 18.7112 30.2187 16.8143 31.6393 15.4153C33.0599 14.04 35.096 12.238 36.1377 11.4555C37.1795 10.673 38.6711 9.5823 39.4524 9.06065C40.2337 8.539 41.9384 7.51941 43.2406 6.78435C44.5427 6.07301 46.7209 5.006 48.0942 4.41322C49.4674 3.84414 51.7403 2.99053 53.1845 2.54002C54.6287 2.06579 57.2331 1.42558 58.9851 1.09362C60.7372 0.761663 62.7733 0.382281 63.4836 0.263724C64.1939 0.145167 66.8219 0.02661 69.2842 0.00289866ZM59.8138 4.74517C58.3695 5.02971 55.6705 5.76476 53.7764 6.38126C51.8823 6.99776 49.0175 8.1359 47.3839 8.91838C45.7502 9.72457 43.2642 11.1235 41.82 12.072C40.3994 13.0204 38.4106 14.4431 37.4399 15.2493C36.4692 16.0318 34.6935 17.6442 33.5334 18.8297C32.3496 19.9916 30.7396 21.7699 29.9583 22.7421C29.1533 23.7143 27.7328 25.6823 26.7857 27.1287C25.8387 28.5751 24.4418 31.0174 23.6842 32.5823C22.9265 34.1473 21.7901 37.0164 21.1271 38.9844C20.4879 40.9287 19.7539 43.703 19.4698 45.1494C19.2094 46.5958 18.8779 48.8721 18.7359 50.2473C18.6175 51.6226 18.4991 53.7566 18.4991 54.9896C18.4991 56.2226 18.6175 58.3566 18.7359 59.7319C18.8779 61.1071 19.2094 63.3834 19.4698 64.8298C19.7539 66.2762 20.4879 69.0267 21.1271 70.9948C21.7901 72.9391 22.9265 75.8319 23.6842 77.3969C24.4418 78.9618 25.815 81.3567 26.7147 82.7319C27.6144 84.1072 29.0349 86.0752 29.8636 87.1185C30.6923 88.1618 32.4443 90.0824 33.7465 91.3866C35.0723 92.6907 37.2032 94.5639 38.5054 95.5361C39.8075 96.5319 41.891 97.9546 43.1222 98.7371C44.3533 99.4959 46.6026 100.705 48.0942 101.393C49.5857 102.08 52.1428 103.1 53.7764 103.622C55.41 104.167 57.9671 104.831 59.4586 105.139C60.9502 105.447 63.3415 105.803 64.7858 105.945C66.23 106.088 68.4082 106.206 69.6393 106.206C70.8705 106.206 73.0013 106.111 74.3745 105.969C75.7478 105.827 78.0207 105.495 79.4649 105.234C80.9091 104.949 83.6082 104.214 85.5023 103.598C87.3964 102.981 90.0481 101.938 91.4213 101.298C92.7945 100.658 94.9253 99.4959 96.1565 98.7371C97.3877 97.9546 99.4711 96.5319 100.773 95.5361C102.076 94.5639 104.325 92.5958 105.745 91.1495C107.19 89.7268 109.155 87.4742 110.125 86.1701C111.12 84.8659 112.54 82.7793 113.322 81.5463C114.079 80.3133 115.287 78.0608 115.973 76.567C116.66 75.0731 117.678 72.5123 118.199 70.8762C118.743 69.2401 119.406 66.6793 119.714 65.1855C120.022 63.6917 120.401 61.1308 120.566 59.4948C120.732 57.7164 120.78 55.1556 120.709 53.0927C120.614 51.1958 120.401 48.6349 120.211 47.402C120.022 46.169 119.596 44.0824 119.264 42.7782C118.933 41.4741 118.365 39.5061 117.986 38.3916C117.607 37.2772 116.92 35.5463 116.494 34.5267C116.044 33.5071 115.595 32.6772 115.476 32.7009C115.358 32.7009 114.056 33.9576 112.588 35.4988L109.936 38.2731C111.357 42.4937 111.972 44.7463 112.233 45.9793C112.493 47.2123 112.824 49.3937 112.99 50.8401C113.156 52.3813 113.203 54.7525 113.132 56.6494C113.038 58.404 112.824 60.7515 112.635 61.8659C112.446 62.9803 112.09 64.735 111.83 65.7783C111.546 66.8216 111.001 68.6474 110.575 69.8092C110.173 70.9711 109.273 73.0577 108.586 74.4329C107.9 75.8082 106.692 77.8948 105.935 79.0566C105.153 80.2185 103.851 81.9969 103.023 82.969C102.194 83.9412 100.868 85.3876 100.063 86.1701C99.2817 86.9525 97.9085 88.1855 96.9852 88.9206C96.0618 89.6556 94.4755 90.8175 93.4338 91.4814C92.392 92.169 90.2612 93.3546 88.6985 94.1134C87.1359 94.8959 84.9577 95.8206 83.845 96.2C82.7322 96.6031 80.6013 97.1721 79.1098 97.5278C77.6182 97.8598 75.1085 98.2629 73.5459 98.4051C71.9122 98.5711 69.4499 98.6185 67.7453 98.5474C66.1116 98.4526 63.8861 98.2392 62.7733 98.0495C61.6605 97.8598 60.0742 97.5515 59.2219 97.3381C58.3695 97.101 56.8306 96.6505 55.7889 96.3185C54.7471 95.9866 52.5689 95.0855 50.9353 94.3031C49.3016 93.5443 46.8156 92.1216 45.3714 91.1495C43.9272 90.201 41.8437 88.5649 40.7072 87.5453C39.5708 86.5257 38.0318 85.0082 37.2979 84.1546C36.5402 83.301 35.3328 81.8072 34.6225 80.835C33.8885 79.8628 32.7758 78.1556 32.1128 77.0412C31.4736 75.9267 30.4318 73.9113 29.8399 72.536C29.2243 71.1608 28.3957 68.9319 27.9695 67.5566C27.567 66.1814 27.0225 63.8339 26.762 62.3401C26.5016 60.8463 26.2412 58.3329 26.1465 56.7679C26.0754 55.1556 26.1228 52.6896 26.2885 51.0772C26.4306 49.5123 26.8331 46.9989 27.1645 45.505C27.5197 44.0112 28.1116 41.8772 28.4904 40.7628C28.8692 39.6483 29.6979 37.6803 30.3134 36.3762C30.929 35.072 32.0655 32.9854 32.8468 31.7524C33.6044 30.5194 34.9066 28.6937 35.6879 27.7215C36.4929 26.7493 37.9608 25.0895 39.0025 24.07C40.0206 23.0267 41.7253 21.5328 42.767 20.7266C43.8088 19.8967 45.5608 18.6638 46.6736 17.9761C47.7864 17.2885 49.7515 16.2215 51.0537 15.605C52.3558 14.9648 54.534 14.0875 55.9072 13.6369C57.2805 13.1864 59.4586 12.5936 60.7608 12.3328C62.063 12.0483 64.62 11.6926 66.4431 11.5503C69.0001 11.3369 70.5154 11.3369 73.1197 11.5503C74.9901 11.7163 76.7658 11.9771 77.0973 12.1194C77.4288 12.2854 77.8076 12.6885 77.9496 13.0204C78.0917 13.3524 78.139 13.8978 78.068 14.2772C77.997 14.6328 77.6418 15.107 77.263 15.3205C76.6711 15.6761 76.3397 15.6761 73.5459 15.3916C71.6518 15.2019 69.4263 15.1545 67.7453 15.2256C66.2537 15.3205 64.1228 15.5576 63.0101 15.7473C61.8973 15.9369 60.1926 16.3163 59.2219 16.5772C58.2512 16.8617 56.6886 17.3596 55.7889 17.6916C54.8892 18.0235 53.1135 18.806 51.8823 19.4225C50.6512 20.0627 48.6624 21.2009 47.5022 21.9834C46.3421 22.7421 44.5427 24.0937 43.5247 24.971C42.5303 25.8246 40.8493 27.5318 39.8075 28.7174C38.7658 29.9267 37.3689 31.7287 36.706 32.7009C36.0667 33.6731 34.9539 35.5937 34.2673 36.9689C33.5571 38.3442 32.6574 40.4308 32.2312 41.5927C31.8287 42.7545 31.2131 44.8411 30.9053 46.2164C30.5976 47.5916 30.2187 50.1525 30.053 51.9071C29.8399 54.3968 29.8399 55.7958 30.053 58.1906C30.2187 59.8741 30.5976 62.3875 30.9053 63.7628C31.2131 65.1381 31.8287 67.2247 32.2312 68.3865C32.6574 69.5484 33.5097 71.5401 34.1253 72.7731C34.7409 74.0061 35.901 75.9979 36.6823 77.1597C37.4636 78.3216 38.8842 80.1948 39.8549 81.2855C40.8019 82.3999 42.4356 84.036 43.4773 84.9371C44.5191 85.8381 46.3895 87.2371 47.6206 88.067C48.8518 88.8969 50.9353 90.1061 52.2375 90.7464C53.5396 91.3866 55.5758 92.2402 56.7359 92.6433C57.896 93.0464 59.8375 93.5917 60.9976 93.8525C62.1577 94.1134 64.1702 94.4216 65.425 94.5639C66.7035 94.7062 68.5502 94.8247 69.521 94.8247C70.4917 94.8247 72.3384 94.7062 73.5932 94.5639C74.8717 94.4453 77.0263 94.066 78.3995 93.7814C79.7727 93.4732 81.9509 92.8092 83.2531 92.335C84.5552 91.8371 86.5204 90.9835 87.6331 90.4381C88.7459 89.8927 90.6163 88.7783 91.7764 87.9958C92.9366 87.2134 94.807 85.767 95.8961 84.8185C97.0088 83.8701 98.6425 82.234 99.5422 81.1907C100.466 80.1474 101.839 78.3216 102.62 77.1597C103.378 75.9979 104.443 74.1721 104.964 73.1288C105.509 72.0855 106.266 70.3309 106.716 69.2164C107.142 68.102 107.758 66.1339 108.066 64.8298C108.397 63.5257 108.776 61.6525 108.942 60.6803C109.084 59.7082 109.249 57.7875 109.344 56.4123C109.415 55.037 109.344 52.7607 109.202 51.3143C109.036 49.8679 108.752 47.8999 108.563 46.9277C108.373 45.9556 107.923 44.272 107.568 43.1813L106.929 41.237C71.4861 76.7092 70.4207 77.7525 69.6393 77.7525C68.858 77.7525 67.9583 76.8989 54.0842 62.9803C40.1864 49.0855 39.334 48.1844 39.334 47.402C39.334 46.6432 39.7128 46.2164 43.6667 42.2329C47.6206 38.2968 48.0705 37.9174 48.8044 37.9174C49.5857 37.9174 50.3197 38.605 59.6481 47.9473L69.6393 57.9535L99.2344 28.3143C96.9378 25.9906 95.7067 24.8761 95.0437 24.3308C94.3571 23.7854 93.6942 23.0504 93.5521 22.6947C93.4101 22.2916 93.4101 21.8174 93.5285 21.5091C93.6232 21.2009 93.8836 20.8452 94.0493 20.6792C94.2387 20.537 94.6412 20.3473 94.9727 20.2524C95.3989 20.1576 95.8487 20.2998 96.63 20.8215C97.2219 21.2009 98.6662 22.4339 99.8263 23.5483L101.957 25.5638L107.308 20.2524C104.088 17.1462 102.336 15.605 101.365 14.8225C100.395 14.0637 98.6188 12.7833 97.4587 12.0009C96.2986 11.2421 93.8836 9.89054 92.1316 9.01322C90.3795 8.1359 87.5384 6.97404 85.8574 6.40497C84.1764 5.85961 81.501 5.14827 79.9384 4.84002C78.3758 4.53177 75.9372 4.15239 74.4929 4.03383C73.0487 3.89157 70.6574 3.79672 69.1658 3.79672C67.6742 3.82043 65.5434 3.93899 64.4306 4.03383C63.3178 4.15239 61.258 4.48435 59.8138 4.74517ZM69.6393 62.5772C68.858 62.5772 68.1714 61.937 58.7957 52.5473L48.8044 42.5411L43.9508 47.402L69.6393 73.1288L125.633 17.0514C121.963 13.3761 120.851 12.3091 120.78 12.3091C120.709 12.3091 109.368 23.6194 95.5646 37.4432C71.7939 61.2257 70.4207 62.5772 69.6393 62.5772ZM84.4369 14.04C84.8157 14.1112 86.0468 14.5617 87.1596 15.0359C88.2724 15.5339 89.4088 16.1978 89.6929 16.4823C90.0007 16.7906 90.2375 17.3359 90.2375 17.6916C90.2375 18.071 90.0718 18.5926 89.8824 18.8772C89.6929 19.1854 89.2431 19.4699 88.8643 19.5411C88.4144 19.6359 87.4911 19.3514 85.739 18.5689C84.3658 17.9761 83.0637 17.3122 82.8269 17.0988C82.5901 16.8617 82.4007 16.34 82.4007 15.8184C82.377 15.1308 82.5191 14.8462 83.0637 14.4431C83.5135 14.0875 83.9397 13.9689 84.4369 14.04Z" fill="#4D5F67"/>
<mask id="mask0_3780_35840" style="mask-type:alpha" maskUnits="userSpaceOnUse" x="14" y="0" width="117" height="110">
<path fill-rule="evenodd" clip-rule="evenodd" d="M69.2841 0.135707C72.7645 0.112031 74.5402 0.230411 77.0972 0.609227C78.9202 0.869663 81.856 1.46156 83.6081 1.91141C85.3601 2.36125 87.9645 3.18991 89.4087 3.75813C90.8529 4.32636 93.0785 5.32075 94.3806 5.98368C95.6828 6.6466 97.719 7.78305 98.8791 8.51701C100.039 9.25096 102.075 10.6952 103.378 11.7133C104.68 12.755 106.716 14.507 110.007 17.6323L115.073 12.6603C119.477 8.3276 120.235 7.68835 120.874 7.68835C121.513 7.68835 122.176 8.25657 125.917 12.0211C129.895 15.9749 130.25 16.4011 130.25 17.1587C130.25 17.9164 129.8 18.4372 118.459 29.8254L119.382 31.8379C119.903 32.9506 120.732 34.9631 121.229 36.3363C121.75 37.7095 122.484 40.1481 122.887 41.7818C123.289 43.4154 123.786 45.8067 123.976 47.1089C124.189 48.4111 124.402 51.1338 124.497 53.1463C124.568 55.3481 124.52 57.9998 124.354 59.7755C124.189 61.4092 123.81 64.0609 123.478 65.6945C123.171 67.3282 122.508 69.8852 122.058 71.3768C121.584 72.8684 120.732 75.2123 120.14 76.5855C119.548 77.9587 118.483 80.1369 117.749 81.4391C117.039 82.7412 116.021 84.4459 115.5 85.2272C114.979 86.0085 113.89 87.5001 113.108 88.5419C112.327 89.5836 110.457 91.6908 108.941 93.2534C107.45 94.7923 105.366 96.7338 104.325 97.5861C103.283 98.4147 101.531 99.7169 100.418 100.475C99.3053 101.232 97.4349 102.392 96.2747 103.055C95.1146 103.718 92.9127 104.784 91.4212 105.423C89.9296 106.062 87.4673 106.985 85.9757 107.459C84.4841 107.932 81.856 108.572 80.1751 108.88C78.4941 109.187 76.4106 109.566 75.5582 109.708C74.7059 109.85 72.0542 109.969 69.6392 109.969C67.2243 109.969 64.5726 109.85 63.7202 109.708C62.8679 109.566 60.8081 109.187 59.1034 108.88C57.3988 108.548 54.7944 107.909 53.3028 107.435C51.8112 106.985 49.4673 106.109 48.0941 105.541C46.7209 104.949 44.377 103.789 42.8854 102.961C41.3938 102.108 39.2393 100.759 38.1028 99.9537C36.9664 99.1487 35.2854 97.8465 34.3383 97.0652C33.415 96.2839 31.5209 94.4845 30.124 93.0403C28.7508 91.5961 26.9514 89.5836 26.1701 88.5419C25.3888 87.5001 24.2997 86.0085 23.7788 85.2272C23.258 84.4459 22.2399 82.7412 21.5059 81.4391C20.7957 80.1369 19.7302 77.9587 19.1383 76.5855C18.5701 75.2123 17.6941 72.8684 17.2206 71.3768C16.7707 69.8852 16.1078 67.3282 15.8 65.6945C15.4686 64.0609 15.0898 61.4092 14.924 59.7755C14.7583 57.9998 14.7109 55.3481 14.782 53.1463C14.8767 51.1338 15.1134 48.3637 15.3028 46.9905C15.5159 45.6173 15.9894 43.2734 16.3683 41.7818C16.7471 40.2902 17.3863 38.0883 17.8125 36.9282C18.215 35.7681 18.9726 33.8266 19.4935 32.6665C20.0144 31.5064 21.0561 29.4229 21.8374 28.0497C22.6187 26.6765 23.9209 24.6404 24.7259 23.5039C25.5309 22.3675 26.833 20.6865 27.6144 19.7394C28.3957 18.8161 30.2187 16.922 31.6393 15.5251C33.0598 14.1519 35.096 12.3525 36.1377 11.5712C37.1795 10.7899 38.671 9.70081 39.4523 9.17994C40.2337 8.65907 41.9383 7.641 43.2405 6.90704C44.5427 6.19676 46.7209 5.13134 48.0941 4.53944C49.4673 3.97122 51.7402 3.11888 53.1844 2.66904C54.6287 2.19552 57.233 1.55627 58.985 1.2248C60.7371 0.893339 62.7732 0.514523 63.4835 0.396143C64.1938 0.277763 66.8218 0.159383 69.2841 0.135707ZM59.8137 4.8709C58.3695 5.15502 55.6704 5.88897 53.7763 6.50455C51.8822 7.12012 49.0175 8.25657 47.3838 9.03788C45.7502 9.84286 43.2642 11.2397 41.8199 12.1868C40.3994 13.1338 38.4106 14.5544 37.4399 15.3594C36.4692 16.1407 34.6935 17.7506 33.5333 18.9344C32.3495 20.0946 30.7396 21.8703 29.9583 22.841C29.1533 23.8117 27.7327 25.7768 26.7857 27.221C25.8387 28.6653 24.4418 31.1039 23.6841 32.6665C22.9265 34.2291 21.7901 37.0939 21.1271 39.059C20.4879 41.0005 19.7539 43.7706 19.4698 45.2148C19.2094 46.659 18.8779 48.9319 18.7359 50.3051C18.6175 51.6783 18.4991 53.8092 18.4991 55.0403C18.4991 56.2715 18.6175 58.4023 18.7359 59.7755C18.8779 61.1487 19.2094 63.4216 19.4698 64.8659C19.7539 66.3101 20.4879 69.0565 21.1271 71.0216C21.7901 72.9631 22.9265 75.8515 23.6841 77.4141C24.4418 78.9768 25.815 81.368 26.7147 82.7412C27.6144 84.1144 29.0349 86.0796 29.8636 87.1213C30.6922 88.163 32.4443 90.0808 33.7464 91.383C35.0723 92.6852 37.2031 94.5556 38.5053 95.5263C39.8075 96.5207 41.891 97.9412 43.1221 98.7225C44.3533 99.4802 46.6025 100.688 48.0941 101.374C49.5857 102.061 52.1427 103.079 53.7763 103.6C55.41 104.144 57.967 104.807 59.4586 105.115C60.9502 105.423 63.3414 105.778 64.7857 105.92C66.2299 106.062 68.4081 106.18 69.6392 106.18C70.8704 106.18 73.0012 106.086 74.3744 105.944C75.7476 105.802 78.0205 105.47 79.4648 105.21C80.909 104.926 83.6081 104.192 85.5022 103.576C87.3962 102.961 90.0479 101.919 91.4212 101.28C92.7944 100.64 94.9252 99.4802 96.1563 98.7225C97.3875 97.9412 99.471 96.5207 100.773 95.5263C102.075 94.5556 104.325 92.5905 105.745 91.1462C107.189 89.7257 109.154 87.4764 110.125 86.1743C111.12 84.8721 112.54 82.7886 113.321 81.5574C114.079 80.3263 115.287 78.0771 115.973 76.5855C116.66 75.0939 117.678 72.5369 118.199 70.9032C118.743 69.2696 119.406 66.7126 119.714 65.221C120.022 63.7294 120.401 61.1724 120.566 59.5388C120.732 57.7631 120.779 55.2061 120.708 53.1463C120.614 51.2522 120.401 48.6952 120.211 47.464C120.022 46.2329 119.596 44.1494 119.264 42.8472C118.933 41.545 118.364 39.5799 117.986 38.4671C117.607 37.3544 116.92 35.626 116.494 34.608C116.044 33.5899 115.594 32.7612 115.476 32.7849C115.358 32.7849 114.055 34.0397 112.587 35.5787L109.936 38.3488C111.356 42.5631 111.972 44.8123 112.232 46.0435C112.493 47.2746 112.824 49.4528 112.99 50.897C113.156 52.436 113.203 54.8036 113.132 56.6977C113.037 58.4497 112.824 60.7936 112.635 61.9064C112.445 63.0191 112.09 64.7712 111.83 65.8129C111.546 66.8547 111.001 68.6777 110.575 69.8378C110.173 70.998 109.273 73.0814 108.586 74.4546C107.9 75.8279 106.692 77.9113 105.935 79.0715C105.153 80.2316 103.851 82.0073 103.022 82.978C102.194 83.9487 100.868 85.393 100.063 86.1743C99.2816 86.9556 97.9084 88.1867 96.985 88.9207C96.0616 89.6546 94.4753 90.8148 93.4336 91.4777C92.3919 92.1643 90.261 93.3481 88.6984 94.1057C87.1358 94.887 84.9576 95.8104 83.8448 96.1892C82.7321 96.5917 80.6012 97.1599 79.1096 97.5151C77.618 97.8465 75.1084 98.249 73.5458 98.3911C71.9121 98.5568 69.4498 98.6042 67.7452 98.5331C66.1115 98.4384 63.886 98.2253 62.7732 98.0359C61.6604 97.8465 60.0741 97.5387 59.2218 97.3257C58.3695 97.0889 56.8305 96.6391 55.7888 96.3076C54.747 95.9761 52.5689 95.0764 50.9352 94.2951C49.3016 93.5375 46.8156 92.1169 45.3713 91.1462C43.9271 90.1992 41.8436 88.5655 40.7072 87.5475C39.5707 86.5294 38.0318 85.0141 37.2978 84.1618C36.5402 83.3095 35.3327 81.8179 34.6224 80.8472C33.8885 79.8764 32.7757 78.1718 32.1128 77.059C31.4735 75.9462 30.4318 73.9338 29.8399 72.5606C29.2243 71.1874 28.3957 68.9618 27.9695 67.5886C27.567 66.2154 27.0225 63.8715 26.762 62.3799C26.5016 60.8883 26.2411 58.3786 26.1464 56.816C26.0754 55.2061 26.1228 52.7438 26.2885 51.1338C26.4306 49.5712 26.833 47.0615 27.1645 45.5699C27.5196 44.0783 28.1115 41.9475 28.4904 40.8347C28.8692 39.722 29.6978 37.7569 30.3134 36.4547C30.929 35.1525 32.0654 33.069 32.8467 31.8379C33.6044 30.6067 34.9066 28.7837 35.6879 27.8129C36.4928 26.8422 37.9608 25.1849 39.0025 24.1668C40.0206 23.1251 41.7252 21.6335 42.767 20.8285C43.8087 19.9999 45.5608 18.7687 46.6735 18.0821C47.7863 17.3955 49.7514 16.3301 51.0536 15.7145C52.3558 15.0753 54.534 14.1992 55.9072 13.7494C57.2804 13.2996 59.4586 12.7077 60.7607 12.4472C62.0629 12.1631 64.6199 11.808 66.443 11.6659C69 11.4528 70.5153 11.4528 73.1196 11.6659C74.99 11.8316 76.7657 12.0921 77.0972 12.2341C77.4286 12.3999 77.8075 12.8024 77.9495 13.1338C78.0916 13.4653 78.1389 14.0098 78.0679 14.3887C77.9969 14.7438 77.6417 15.2173 77.2629 15.4304C76.671 15.7855 76.3395 15.7855 73.5458 15.5014C71.6517 15.312 69.4262 15.2647 67.7452 15.3357C66.2536 15.4304 64.1227 15.6672 63.01 15.8566C61.8972 16.046 60.1925 16.4248 59.2218 16.6852C58.2511 16.9693 56.6885 17.4665 55.7888 17.798C54.8891 18.1295 53.1134 18.9108 51.8822 19.5263C50.6511 20.1656 48.6623 21.302 47.5022 22.0834C46.3421 22.841 44.5427 24.1905 43.5246 25.0665C42.5302 25.9189 40.8492 27.6235 39.8075 28.8073C38.7657 30.0148 37.3689 31.8142 36.7059 32.7849C36.0667 33.7556 34.9539 35.6734 34.2673 37.0466C33.557 38.4198 32.6573 40.5033 32.2312 41.6634C31.8287 42.8235 31.2131 44.907 30.9053 46.2802C30.5975 47.6534 30.2187 50.2104 30.053 51.9625C29.8399 54.4484 29.8399 55.8453 30.053 58.2366C30.2187 59.9176 30.5975 62.4272 30.9053 63.8004C31.2131 65.1737 31.8287 67.2571 32.2312 68.4173C32.6573 69.5774 33.5097 71.5662 34.1252 72.7973C34.7408 74.0285 35.9009 76.0173 36.6823 77.1774C37.4636 78.3375 38.8841 80.2079 39.8548 81.297C40.8019 82.4098 42.4355 84.0434 43.4773 84.9431C44.519 85.8428 46.3894 87.2397 47.6206 88.0683C48.8517 88.897 50.9352 90.1045 52.2374 90.7437C53.5396 91.383 55.5757 92.2353 56.7358 92.6378C57.8959 93.0403 59.8374 93.5848 60.9975 93.8453C62.1576 94.1057 64.1701 94.4135 65.4249 94.5556C66.7034 94.6976 68.5501 94.816 69.5209 94.816C70.4916 94.816 72.3383 94.6976 73.5931 94.5556C74.8716 94.4372 77.0261 94.0584 78.3994 93.7743C79.7726 93.4665 81.9508 92.8035 83.2529 92.33C84.5551 91.8328 86.5202 90.9805 87.633 90.4359C88.7458 89.8914 90.6162 88.7786 91.7763 87.9973C92.9364 87.216 94.8068 85.7718 95.8959 84.8247C97.0087 83.8777 98.6423 82.244 99.542 81.2023C100.465 80.1606 101.839 78.3375 102.62 77.1774C103.378 76.0173 104.443 74.1942 104.964 73.1525C105.508 72.1107 106.266 70.3587 106.716 69.2459C107.142 68.1332 107.758 66.168 108.065 64.8659C108.397 63.5637 108.776 61.6933 108.941 60.7226C109.083 59.7519 109.249 57.8341 109.344 56.4609C109.415 55.0877 109.344 52.8148 109.202 51.3706C109.036 49.9263 108.752 47.9612 108.563 46.9905C108.373 46.0198 107.923 44.3388 107.568 43.2497L106.929 41.3083C71.486 76.7275 70.4205 77.7693 69.6392 77.7693C68.8579 77.7693 67.9582 76.917 54.0841 63.0191C40.1863 49.145 39.334 48.2453 39.334 47.464C39.334 46.7064 39.7128 46.2802 43.6667 42.3027C47.6206 38.3724 48.0704 37.9936 48.8044 37.9936C49.5857 37.9936 50.3196 38.6802 59.648 48.0086L69.6392 57.9998L99.2342 28.4048C96.9377 26.0846 95.7065 24.9718 95.0436 24.4273C94.357 23.8827 93.694 23.1488 93.552 22.7936C93.4099 22.3911 93.4099 21.9176 93.5283 21.6098C93.623 21.302 93.8835 20.9469 94.0492 20.7812C94.2386 20.6391 94.6411 20.4497 94.9725 20.355C95.3987 20.2603 95.8486 20.4024 96.6299 20.9232C97.2218 21.302 98.666 22.5332 99.8261 23.646L101.957 25.6584L107.308 20.355C104.088 17.2534 102.336 15.7145 101.365 14.9332C100.394 14.1756 98.6187 12.8971 97.4585 12.1158C96.2984 11.3581 93.8835 10.0086 92.1314 9.13258C90.3794 8.25657 87.5383 7.09645 85.8573 6.52822C84.1763 5.98368 81.5009 5.2734 79.9383 4.96561C78.3757 4.65782 75.9371 4.27901 74.4928 4.16063C73.0486 4.01857 70.6573 3.92387 69.1657 3.92387C67.6741 3.94754 65.5433 4.06592 64.4305 4.16063C63.3178 4.27901 61.2579 4.61047 59.8137 4.8709ZM69.6392 62.6166C68.8579 62.6166 68.1713 61.9774 58.7956 52.6017L48.8044 42.6104L43.9508 47.464L69.6392 73.1525L125.633 17.1587C121.963 13.489 120.85 12.4235 120.779 12.4235C120.708 12.4235 109.368 23.717 95.5644 37.5201C71.7937 61.2671 70.4205 62.6166 69.6392 62.6166ZM84.4367 14.1519C84.8155 14.2229 86.0467 14.6728 87.1595 15.1463C88.2722 15.6435 89.4087 16.3064 89.6928 16.5905C90.0006 16.8983 90.2374 17.4429 90.2374 17.798C90.2374 18.1768 90.0716 18.6977 89.8822 18.9818C89.6928 19.2896 89.243 19.5737 88.8641 19.6447C88.4143 19.7394 87.4909 19.4553 85.7389 18.674C84.3657 18.0821 83.0635 17.4192 82.8268 17.2061C82.59 16.9693 82.4006 16.4485 82.4006 15.9276C82.3769 15.241 82.519 14.9569 83.0635 14.5544C83.5134 14.1992 83.9395 14.0809 84.4367 14.1519Z" fill="#263238"/>
</mask>
<g mask="url(#mask0_3780_35840)">
<path d="M68.6122 78.7386L36.5312 48.0782L49.3163 35.7667L70.2695 57.1934L120.226 7.35547L135.26 14.2215L128.157 20.4956L68.6122 78.7386Z" fill="#007BFF"/>
<path d="M78.6758 21.44L81.0434 12.9167L86.0153 11.4961L96.6695 16.9416L88.6197 23.5709L78.6758 21.44Z" fill="#007BFF"/>
</g>
</svg>
