<svg width="146" height="110" viewBox="0 0 146 110" fill="none" xmlns="http://www.w3.org/2000/svg">
<path fill-rule="evenodd" clip-rule="evenodd" d="M63.7017 0C64.0864 0 64.72 0.203662 65.1047 0.452582C65.4667 0.701502 65.942 1.22197 66.123 1.58404C66.3945 2.14976 66.4624 3.48488 66.4624 9.16478C66.4624 14.8447 66.3945 16.1798 66.123 16.7455C65.942 17.1302 65.5573 17.5828 65.2631 17.7638C64.9915 17.9449 64.3127 18.1033 63.7469 18.1033C63.1812 18.1033 62.5023 17.9449 62.2082 17.7638C61.9366 17.5828 61.5519 17.1302 61.3709 16.7455C61.0993 16.1798 61.0314 14.8447 61.0314 9.16478C61.0314 3.80169 61.0993 2.12713 61.3483 1.62929C61.5067 1.28986 61.9366 0.792018 62.2987 0.520469C62.6607 0.24892 63.2944 0 63.679 0H63.7017ZM87.1907 32.2465L89.001 32.7443C89.9967 33.0385 91.8296 33.7626 93.0742 34.3962C94.3188 35.0072 95.9708 36.0255 96.7401 36.6591C97.5322 37.2701 98.7315 38.4695 99.433 39.3294C100.112 40.1666 101.085 41.5017 101.583 42.3164C102.058 43.131 102.759 44.6246 103.144 45.6655C103.506 46.6838 103.981 48.4036 104.162 49.4898C104.344 50.5986 104.502 51.9564 104.502 52.5674C104.502 53.1557 104.366 53.9025 104.208 54.2193C104.072 54.5587 103.619 54.9887 103.257 55.1923C102.692 55.4865 101.651 55.577 97.1475 55.6223C92.8027 55.6902 91.3997 55.6223 90.1777 55.3507C89.3404 55.1471 88.0279 54.6719 87.2359 54.2872C86.4439 53.8799 85.2446 52.9747 84.4526 52.1827C83.6605 51.3907 82.7554 50.1913 82.348 49.3993C81.9634 48.6073 81.4881 47.3401 81.3071 46.5707C81.0808 45.5976 80.9677 43.9004 80.9677 37.5643H57.4787C36.3431 37.5643 33.8992 37.5869 32.7677 37.9264C31.8399 38.2205 31.2289 38.6052 30.369 39.4651C29.5091 40.325 29.1244 40.936 28.8303 41.8638C28.4908 42.9953 28.4682 45.937 28.4682 104.546H99.0709V84.8591C99.0709 68.1814 99.1162 65.0586 99.3877 64.425C99.5914 63.9951 100.044 63.5425 100.519 63.2936C100.972 63.0899 101.538 62.9089 101.786 62.9089C102.035 62.9089 102.578 63.0446 102.963 63.2257C103.416 63.4293 103.868 63.8819 104.095 64.3571C104.479 65.1039 104.502 66.5748 104.502 104.546H106.539C108.009 104.546 108.801 104.66 109.39 104.954C109.865 105.18 110.318 105.633 110.521 106.085C110.702 106.47 110.838 107.013 110.838 107.262C110.838 107.511 110.748 107.963 110.612 108.28C110.476 108.597 110.114 109.095 109.141 109.977H63.317C20.3443 109.955 17.4705 109.932 17.0405 109.57C16.7916 109.366 16.4069 108.936 16.1806 108.62C15.9769 108.303 15.7959 107.782 15.7959 107.443C15.7959 107.081 15.9769 106.447 16.2032 105.995C16.4295 105.519 16.8821 105.067 17.3347 104.863C17.8099 104.66 18.8735 104.546 23.0372 104.546V73.5898C23.0372 47.0232 23.0825 42.4522 23.3766 41.2528C23.5577 40.4608 24.0329 39.1936 24.4176 38.4242C24.8249 37.6095 25.7301 36.4102 26.5221 35.6182C27.3141 34.8262 28.5134 33.921 29.3281 33.5137C30.0975 33.129 31.3195 32.6764 32.0436 32.4954C33.1298 32.2238 37.5651 32.1786 87.1907 32.2465ZM86.376 41.2755C86.376 43.7194 86.4892 45.0545 86.7607 45.937C87.0549 46.8648 87.4396 47.4758 88.2995 48.3357C89.1594 49.1956 89.7704 49.603 90.6982 49.8745C91.6712 50.1687 92.7122 50.2366 95.3598 50.1913L98.7768 50.1234C98.3016 48.2 97.7811 46.8875 97.3059 45.9597C96.808 44.9414 95.8576 43.6289 94.9751 42.6785C94.1604 41.7959 92.8932 40.6645 92.1464 40.1666C91.4223 39.6688 90.2456 39.0578 89.5667 38.7636C88.8879 38.4921 87.8695 38.1753 87.3264 38.0621L86.3308 37.8358L86.376 41.2755ZM124.823 104.569C126.814 104.569 127.81 104.66 128.33 104.886C128.738 105.089 129.258 105.542 129.462 105.904C129.688 106.289 129.869 106.855 129.869 107.171C129.869 107.466 129.756 107.986 129.643 108.303C129.507 108.597 129.122 109.117 128.783 109.434C128.195 109.977 128.059 110 124.891 110C121.7 110 121.587 109.977 120.976 109.434C120.636 109.117 120.252 108.597 120.139 108.303C120.003 107.986 119.912 107.533 119.912 107.285C119.912 107.036 120.048 106.492 120.229 106.085C120.41 105.678 120.908 105.18 121.315 104.954C121.904 104.66 122.65 104.569 124.823 104.569ZM38.7871 8.30488C39.1491 8.37276 39.6696 8.55379 39.9185 8.7122C40.1674 8.8706 41.7967 11.3824 43.5165 14.279C46.0057 18.4653 46.6846 19.7552 46.662 20.3888C46.662 20.8188 46.5036 21.4297 46.2999 21.7466C46.0962 22.0407 45.6663 22.4481 45.3269 22.6517C44.9874 22.8328 44.3764 22.9912 43.9691 22.9912C43.5618 22.9912 42.9508 22.7649 42.5887 22.4933C42.2267 22.2444 40.5521 19.7326 38.8323 16.9039C36.3205 12.7854 35.7321 11.6087 35.7095 10.9299C35.7095 10.4546 35.8905 9.7984 36.1621 9.43633C36.411 9.07426 36.9541 8.64431 37.3614 8.48591C37.7687 8.30488 38.4024 8.23699 38.7871 8.30488ZM89.182 8.1691C89.4083 8.1691 89.8835 8.30488 90.2682 8.50854C90.6303 8.68957 91.1508 9.11952 91.3997 9.45896C91.6712 9.84365 91.8523 10.432 91.8523 10.9299C91.8523 11.6087 91.2413 12.7854 88.7294 16.9039C87.0323 19.7326 85.3351 22.2444 84.9956 22.4933C84.6336 22.7649 84.0226 22.9912 83.6153 22.9912C83.2079 22.9912 82.5743 22.8328 82.2349 22.6517C81.8955 22.4481 81.4655 22.0181 81.3071 21.6787C81.1261 21.3392 80.9903 20.683 80.9677 20.2078C80.9677 19.5063 81.5334 18.4201 84.0905 14.1658C86.6928 9.7984 87.3264 8.89323 88.0053 8.55379C88.4353 8.3275 88.9784 8.1691 89.182 8.1691ZM63.7243 77.4141C81.0356 77.4141 84.2715 77.4594 84.8825 77.7309C85.3351 77.9346 85.7877 78.3872 86.014 78.8624C86.2402 79.315 86.4213 79.8807 86.4213 80.1296C86.4213 80.3785 86.2629 80.899 86.0818 81.3063C85.9008 81.7363 85.4256 82.2115 84.9504 82.4378C84.2036 82.7998 82.7327 82.8451 63.7922 82.8451C44.8516 82.8451 43.3581 82.7998 42.6114 82.4378C42.1362 82.2115 41.6836 81.7363 41.4799 81.3063C41.2989 80.899 41.1631 80.3785 41.1631 80.1296C41.1631 79.8807 41.2989 79.3376 41.4799 78.9303C41.6609 78.5229 42.1588 78.0251 42.5661 77.7988C43.245 77.4367 44.829 77.4141 63.7243 77.4141ZM63.7243 90.9916C81.0356 90.9916 84.2715 91.0368 84.8825 91.3084C85.3351 91.512 85.7877 91.9646 86.014 92.4398C86.2402 92.8924 86.4213 93.4581 86.4213 93.7071C86.4213 93.956 86.2629 94.4764 86.0818 94.8838C85.9008 95.3137 85.4256 95.7889 84.9504 96.0152C84.2036 96.3773 82.7327 96.4225 63.7922 96.4225C44.8516 96.4225 43.3581 96.3773 42.6114 96.0152C42.1362 95.7889 41.6836 95.3137 41.4799 94.8838C41.2989 94.4764 41.1631 93.956 41.1631 93.7071C41.1631 93.4581 41.2989 92.915 41.4799 92.5077C41.6609 92.1004 42.1588 91.6025 42.5661 91.3763C43.245 91.0142 44.829 90.9916 63.7243 90.9916Z" fill="#4D5F67"/>
<mask id="mask0_3780_35828" style="mask-type:alpha" maskUnits="userSpaceOnUse" x="15" y="0" width="115" height="110">
<path fill-rule="evenodd" clip-rule="evenodd" d="M63.7017 0C64.0864 0 64.72 0.203662 65.1047 0.452582C65.4667 0.701502 65.942 1.22197 66.123 1.58404C66.3945 2.14976 66.4624 3.48488 66.4624 9.16478C66.4624 14.8447 66.3945 16.1798 66.123 16.7455C65.942 17.1302 65.5573 17.5828 65.2631 17.7638C64.9915 17.9449 64.3127 18.1033 63.7469 18.1033C63.1812 18.1033 62.5023 17.9449 62.2082 17.7638C61.9366 17.5828 61.5519 17.1302 61.3709 16.7455C61.0993 16.1798 61.0314 14.8447 61.0314 9.16478C61.0314 3.80169 61.0993 2.12713 61.3483 1.62929C61.5067 1.28986 61.9366 0.792018 62.2987 0.520469C62.6607 0.24892 63.2944 0 63.679 0H63.7017ZM87.1907 32.2465L89.001 32.7443C89.9967 33.0385 91.8296 33.7626 93.0742 34.3962C94.3188 35.0072 95.9708 36.0255 96.7401 36.6591C97.5322 37.2701 98.7315 38.4695 99.433 39.3294C100.112 40.1666 101.085 41.5017 101.583 42.3164C102.058 43.131 102.759 44.6246 103.144 45.6655C103.506 46.6838 103.981 48.4036 104.162 49.4898C104.344 50.5986 104.502 51.9564 104.502 52.5674C104.502 53.1557 104.366 53.9025 104.208 54.2193C104.072 54.5587 103.619 54.9887 103.257 55.1923C102.692 55.4865 101.651 55.577 97.1475 55.6223C92.8027 55.6902 91.3997 55.6223 90.1777 55.3507C89.3404 55.1471 88.0279 54.6719 87.2359 54.2872C86.4439 53.8799 85.2446 52.9747 84.4526 52.1827C83.6605 51.3907 82.7554 50.1913 82.348 49.3993C81.9634 48.6073 81.4881 47.3401 81.3071 46.5707C81.0808 45.5976 80.9677 43.9004 80.9677 37.5643H57.4787C36.3431 37.5643 33.8992 37.5869 32.7677 37.9264C31.8399 38.2205 31.2289 38.6052 30.369 39.4651C29.5091 40.325 29.1244 40.936 28.8303 41.8638C28.4908 42.9953 28.4682 45.937 28.4682 104.546H99.0709V84.8591C99.0709 68.1814 99.1162 65.0586 99.3877 64.425C99.5914 63.9951 100.044 63.5425 100.519 63.2936C100.972 63.0899 101.538 62.9089 101.786 62.9089C102.035 62.9089 102.578 63.0446 102.963 63.2257C103.416 63.4293 103.868 63.8819 104.095 64.3571C104.479 65.1039 104.502 66.5748 104.502 104.546H106.539C108.009 104.546 108.801 104.66 109.39 104.954C109.865 105.18 110.318 105.633 110.521 106.085C110.702 106.47 110.838 107.013 110.838 107.262C110.838 107.511 110.748 107.963 110.612 108.28C110.476 108.597 110.114 109.095 109.141 109.977H63.317C20.3443 109.955 17.4705 109.932 17.0405 109.57C16.7916 109.366 16.4069 108.936 16.1806 108.62C15.9769 108.303 15.7959 107.782 15.7959 107.443C15.7959 107.081 15.9769 106.447 16.2032 105.995C16.4295 105.519 16.8821 105.067 17.3347 104.863C17.8099 104.66 18.8735 104.546 23.0372 104.546V73.5898C23.0372 47.0232 23.0825 42.4522 23.3766 41.2528C23.5577 40.4608 24.0329 39.1936 24.4176 38.4242C24.8249 37.6095 25.7301 36.4102 26.5221 35.6182C27.3141 34.8262 28.5134 33.921 29.3281 33.5137C30.0975 33.129 31.3195 32.6764 32.0436 32.4954C33.1298 32.2238 37.5651 32.1786 87.1907 32.2465ZM86.376 41.2755C86.376 43.7194 86.4892 45.0545 86.7607 45.937C87.0549 46.8648 87.4396 47.4758 88.2995 48.3357C89.1594 49.1956 89.7704 49.603 90.6982 49.8745C91.6712 50.1687 92.7122 50.2366 95.3598 50.1913L98.7768 50.1234C98.3016 48.2 97.7811 46.8875 97.3059 45.9597C96.808 44.9414 95.8576 43.6289 94.9751 42.6785C94.1604 41.7959 92.8932 40.6645 92.1464 40.1666C91.4223 39.6688 90.2456 39.0578 89.5667 38.7636C88.8879 38.4921 87.8695 38.1753 87.3264 38.0621L86.3308 37.8358L86.376 41.2755ZM124.823 104.569C126.814 104.569 127.81 104.66 128.33 104.886C128.738 105.089 129.258 105.542 129.462 105.904C129.688 106.289 129.869 106.855 129.869 107.171C129.869 107.466 129.756 107.986 129.643 108.303C129.507 108.597 129.122 109.117 128.783 109.434C128.195 109.977 128.059 110 124.891 110C121.7 110 121.587 109.977 120.976 109.434C120.636 109.117 120.252 108.597 120.139 108.303C120.003 107.986 119.912 107.533 119.912 107.285C119.912 107.036 120.048 106.492 120.229 106.085C120.41 105.678 120.908 105.18 121.315 104.954C121.904 104.66 122.65 104.569 124.823 104.569ZM38.7871 8.30488C39.1491 8.37276 39.6696 8.55379 39.9185 8.7122C40.1674 8.8706 41.7967 11.3824 43.5165 14.279C46.0057 18.4653 46.6846 19.7552 46.662 20.3888C46.662 20.8188 46.5036 21.4297 46.2999 21.7466C46.0962 22.0407 45.6663 22.4481 45.3269 22.6517C44.9874 22.8328 44.3764 22.9912 43.9691 22.9912C43.5618 22.9912 42.9508 22.7649 42.5887 22.4933C42.2267 22.2444 40.5521 19.7326 38.8323 16.9039C36.3205 12.7854 35.7321 11.6087 35.7095 10.9299C35.7095 10.4546 35.8905 9.7984 36.1621 9.43633C36.411 9.07426 36.9541 8.64431 37.3614 8.48591C37.7687 8.30488 38.4024 8.23699 38.7871 8.30488ZM89.182 8.1691C89.4083 8.1691 89.8835 8.30488 90.2682 8.50854C90.6303 8.68957 91.1508 9.11952 91.3997 9.45896C91.6712 9.84365 91.8523 10.432 91.8523 10.9299C91.8523 11.6087 91.2413 12.7854 88.7294 16.9039C87.0323 19.7326 85.3351 22.2444 84.9956 22.4933C84.6336 22.7649 84.0226 22.9912 83.6153 22.9912C83.2079 22.9912 82.5743 22.8328 82.2349 22.6517C81.8955 22.4481 81.4655 22.0181 81.3071 21.6787C81.1261 21.3392 80.9903 20.683 80.9677 20.2078C80.9677 19.5063 81.5334 18.4201 84.0905 14.1658C86.6928 9.7984 87.3264 8.89323 88.0053 8.55379C88.4353 8.3275 88.9784 8.1691 89.182 8.1691ZM63.7243 77.4141C81.0356 77.4141 84.2715 77.4594 84.8825 77.7309C85.3351 77.9346 85.7877 78.3872 86.014 78.8624C86.2402 79.315 86.4213 79.8807 86.4213 80.1296C86.4213 80.3785 86.2629 80.899 86.0818 81.3063C85.9008 81.7363 85.4256 82.2115 84.9504 82.4378C84.2036 82.7998 82.7327 82.8451 63.7922 82.8451C44.8516 82.8451 43.3581 82.7998 42.6114 82.4378C42.1362 82.2115 41.6836 81.7363 41.4799 81.3063C41.2989 80.899 41.1631 80.3785 41.1631 80.1296C41.1631 79.8807 41.2989 79.3376 41.4799 78.9303C41.6609 78.5229 42.1588 78.0251 42.5661 77.7988C43.245 77.4367 44.829 77.4141 63.7243 77.4141ZM63.7243 90.9916C81.0356 90.9916 84.2715 91.0368 84.8825 91.3084C85.3351 91.512 85.7877 91.9646 86.014 92.4398C86.2402 92.8924 86.4213 93.4581 86.4213 93.7071C86.4213 93.956 86.2629 94.4764 86.0818 94.8838C85.9008 95.3137 85.4256 95.7889 84.9504 96.0152C84.2036 96.3773 82.7327 96.4225 63.7922 96.4225C44.8516 96.4225 43.3581 96.3773 42.6114 96.0152C42.1362 95.7889 41.6836 95.3137 41.4799 94.8838C41.2989 94.4764 41.1631 93.956 41.1631 93.7071C41.1631 93.4581 41.2989 92.915 41.4799 92.5077C41.6609 92.1004 42.1588 91.6025 42.5661 91.3763C43.245 91.0142 44.829 90.9916 63.7243 90.9916Z" fill="#263238"/>
</mask>
<g mask="url(#mask0_3780_35828)">
<rect x="32.9941" y="71.9609" width="59.5145" height="28.9652" fill="#007BFF"/>
<rect x="32.9941" y="-3.16797" width="59.5145" height="28.9652" fill="#007BFF"/>
<rect x="116.723" y="81.0117" width="59.5145" height="28.9652" fill="#007BFF"/>
</g>
</svg>
