<svg width="146" height="110" viewBox="0 0 146 110" fill="none" xmlns="http://www.w3.org/2000/svg">
<path fill-rule="evenodd" clip-rule="evenodd" d="M81.45 15.4501L83.4811 16.4489C84.6061 16.9796 86.1998 18.1033 87.0123 18.9461C87.856 19.7577 88.9497 21.2872 89.4497 22.3173C89.9497 23.3474 90.4809 25.0018 90.8247 27.7799H97.7932C103.387 27.7799 104.949 27.8736 105.887 28.2794C106.543 28.5291 107.543 29.1222 108.137 29.5904C108.73 30.0586 109.543 31.1199 109.949 31.9939C110.48 33.1177 110.668 34.1165 110.668 37.7687H112.23C113.199 37.7687 114.324 38.0184 115.261 38.4554C116.043 38.8612 117.105 39.6416 117.605 40.1722C118.074 40.7341 118.636 41.5769 118.824 42.0451C119.011 42.5446 120.418 47.0707 121.949 52.1275C123.792 58.2144 124.949 61.5544 125.355 61.9602C125.917 62.5221 126.542 62.6157 130.761 62.7406C133.886 62.8654 135.761 63.0527 136.292 63.3337C136.73 63.5522 137.542 64.114 138.136 64.5823C138.73 65.0193 139.542 66.1118 139.948 66.9546C140.636 68.4217 140.667 68.8587 140.667 82.562L141.823 82.8117C142.479 82.9366 143.292 83.28 143.667 83.5921C144.011 83.873 144.636 84.6222 144.979 85.2153C145.573 86.1829 145.667 86.7448 145.667 90.2097C145.636 93.5184 145.542 94.2676 145.011 95.204C144.698 95.7971 143.948 96.5775 143.386 96.9209C142.479 97.4827 141.698 97.5452 125.605 97.8573L125.011 99.8238C124.667 100.885 123.824 102.633 123.074 103.726C122.324 104.787 120.886 106.317 119.855 107.097C118.855 107.877 117.168 108.845 116.136 109.251C114.543 109.906 113.73 110 110.668 110C107.605 110 106.793 109.906 105.199 109.251C104.168 108.845 102.481 107.877 101.481 107.097C100.449 106.317 99.0119 104.787 98.262 103.726C97.512 102.633 96.6683 100.885 95.7308 97.8573H55.607L55.0132 99.8238C54.6695 100.885 53.8258 102.633 53.0758 103.726C52.3258 104.787 50.8884 106.317 49.8571 107.097C48.8572 107.877 47.1697 108.845 46.1385 109.251C44.5448 109.906 43.7323 110 40.6699 110C37.6075 110 36.795 109.906 35.2013 109.251C34.1701 108.845 32.4826 107.877 31.4827 107.097C30.4515 106.317 29.014 104.787 28.264 103.726C27.514 102.633 26.6703 100.885 25.7328 97.8573L14.8582 97.7012C4.98346 97.5452 3.85849 97.4827 3.01476 96.9833C2.51478 96.6711 1.79605 96.0156 1.45231 95.5786C0.921075 94.8607 0.796079 94.1427 0.702332 90.6779C0.608585 87.057 0.671083 86.4951 1.26482 85.3089C1.7023 84.3725 2.29603 83.7794 3.17101 83.3424C3.85849 82.999 4.70221 82.7181 5.04595 82.7181C5.67094 82.7181 5.67094 82.4996 5.82718 24.5024L6.82715 22.4734C7.35839 21.3497 8.42085 19.8201 9.17083 19.071C9.92081 18.353 11.1395 17.3542 11.9208 16.9172C12.702 16.4801 13.8894 15.9183 14.5769 15.731C15.5456 15.4188 23.3267 15.3564 81.45 15.4501ZM13.6082 22.0364C12.9207 22.567 12.0457 23.6908 11.6083 24.5336L10.827 26.0319L10.6708 72.7293C13.8269 72.7293 15.2644 72.9478 15.8894 73.2288C16.5456 73.4785 17.5456 74.0716 18.1393 74.5398C18.733 75.008 19.5455 76.1005 19.9518 76.9433C20.6392 78.4104 20.6705 78.8474 20.6705 85.6211V92.7068L25.7328 92.5508C26.6703 89.5229 27.514 87.7749 28.264 86.7136C29.014 85.6211 30.4515 84.0915 31.4827 83.3112C32.4826 82.5308 34.1701 81.5631 35.2013 81.1573C36.795 80.5018 37.6075 80.4082 40.6699 80.4082C43.7323 80.4082 44.5448 80.5018 46.1385 81.1573C47.1697 81.5631 48.8572 82.5308 49.8571 83.3112C50.8884 84.0915 52.3258 85.6211 53.0758 86.7136C53.8258 87.7749 54.6695 89.5229 55.0132 90.6154L55.607 92.5508L85.6686 92.7068C85.6686 36.3952 85.5748 27.3429 85.2936 26.1255C85.1061 25.2515 84.5124 23.9405 83.9811 23.285C83.4499 22.5983 82.3249 21.693 81.45 21.256L79.9187 20.4444C25.5454 20.3508 17.3268 20.4132 16.2644 20.6942C15.4519 20.9127 14.2644 21.5057 13.6082 22.0364ZM90.6684 37.7687H105.668C105.543 34.7721 105.324 34.179 104.793 33.6483C104.106 32.9616 103.887 32.9304 97.387 32.8367L90.6997 32.7431L90.6684 37.7687ZM90.6684 92.7068L95.762 92.5508C96.6683 89.5229 97.512 87.7749 98.262 86.6824C99.0119 85.6211 100.449 84.0915 101.481 83.3112C102.481 82.5308 104.168 81.5631 105.199 81.1573C106.793 80.5018 107.605 80.377 110.668 80.377C113.761 80.377 114.543 80.5018 116.136 81.1573C117.168 81.5631 118.855 82.5308 119.886 83.3112C120.886 84.0915 122.324 85.6211 123.074 86.6824C123.824 87.7749 124.699 89.5229 125.011 90.5842L125.605 92.5508L130.667 92.7068C130.667 87.0882 130.792 86.2141 131.292 85.2153C131.709 84.3829 132.334 83.7586 133.167 83.3424C133.855 82.999 134.698 82.7181 135.042 82.7181C135.667 82.7181 135.667 82.5308 135.605 76.0069C135.511 69.5142 135.48 69.2957 134.792 68.609C134.136 67.9535 133.73 67.8598 129.324 67.7037C126.73 67.6101 124.199 67.3604 123.73 67.1731C123.23 66.9546 122.386 66.3927 121.855 65.8933C121.293 65.4251 120.574 64.4574 120.23 63.8019C119.918 63.1152 118.418 58.4329 116.886 53.3761C114.668 45.9158 113.98 44.0429 113.324 43.4498C112.543 42.7631 112.512 42.7631 101.606 42.7631H90.6684V92.7068ZM10.6708 82.7181H15.6706C15.5456 79.7215 15.3581 79.1284 14.7957 78.5977C14.2957 78.0671 13.6395 77.8486 12.4207 77.7549L10.7645 77.6301L10.6708 82.7181ZM35.3888 86.8697C34.7951 87.2755 33.7639 88.2119 33.1076 88.9611C32.4201 89.7414 31.6702 91.0837 31.3577 91.9265C31.0764 92.8005 30.8577 94.2676 30.8577 95.204C30.8577 96.1717 31.1077 97.7012 31.4202 98.6377C31.8577 99.8863 32.5139 100.854 33.7639 102.103C35.0138 103.382 35.9825 104.007 37.2325 104.444C38.17 104.756 39.7324 105.006 40.6699 105.006C41.6074 105.006 43.1698 104.756 44.1073 104.444C45.3573 104.007 46.2947 103.382 47.576 102.103C48.8259 100.854 49.4821 99.8863 49.8884 98.6377C50.2009 97.7012 50.4821 96.1717 50.4821 95.204C50.4821 94.2676 50.2009 92.7381 49.8884 91.7704C49.4821 90.553 48.8259 89.5854 47.576 88.3368C46.3572 87.1194 45.3573 86.4327 44.2635 86.0581C43.3886 85.7771 42.0761 85.465 41.2949 85.4026C40.4824 85.3089 39.1387 85.4338 38.17 85.7147C37.2325 85.9957 35.9513 86.4951 35.3888 86.8697ZM105.387 86.8697C104.793 87.2755 103.762 88.2119 103.106 88.9611C102.418 89.7414 101.668 91.0837 101.356 91.9265C101.074 92.8005 100.856 94.2676 100.856 95.204C100.856 96.1717 101.106 97.7012 101.418 98.6377C101.856 99.8863 102.512 100.854 103.762 102.103C105.012 103.382 105.98 104.007 107.23 104.444C108.168 104.756 109.73 105.006 110.668 105.006C111.605 105.006 113.168 104.756 114.105 104.444C115.355 104.007 116.293 103.382 117.574 102.103C118.824 100.854 119.48 99.8863 119.886 98.6377C120.199 97.7012 120.48 96.1717 120.48 95.204C120.48 94.2676 120.199 92.7381 119.886 91.7704C119.48 90.553 118.824 89.5854 117.574 88.3368C116.355 87.1194 115.355 86.4327 114.261 86.0581C113.387 85.7771 112.074 85.465 111.293 85.4026C110.48 85.3089 109.137 85.4338 108.168 85.7147C107.23 85.9957 105.949 86.4951 105.387 86.8697ZM10.6708 92.7068H15.6706V87.7125H10.6708V92.7068Z" fill="#4D5F67"/>
<path d="M113.544 90.9908C113.012 90.6163 112.075 90.3665 110.981 90.3041C109.825 90.2105 108.919 90.3665 108.231 90.7099C107.669 90.9908 106.888 91.6776 106.513 92.2082C105.981 92.9574 105.825 93.6129 105.825 95.2048C105.825 96.7344 105.981 97.4211 106.45 98.0766C106.794 98.5448 107.575 99.2003 108.169 99.5437C108.825 99.9183 109.825 100.168 110.669 100.168C111.575 100.168 112.512 99.9183 113.231 99.4813C113.887 99.1067 114.7 98.2951 115.044 97.702C115.387 97.0777 115.637 96.0164 115.637 95.2048C115.637 94.362 115.387 93.3632 115.012 92.7077C114.669 92.1146 114.012 91.3342 113.544 90.9908Z" fill="#4D5F67"/>
<path d="M43.5447 90.9908C43.0135 90.6163 42.076 90.3665 40.9823 90.3041C39.8261 90.2105 38.9198 90.3665 38.2324 90.7099C37.6699 90.9908 36.8886 91.6776 36.5137 92.2082C35.9824 92.9574 35.8262 93.6129 35.8262 95.2048C35.8262 96.7344 35.9824 97.4211 36.4512 98.0766C36.7949 98.5448 37.5761 99.2003 38.1699 99.5437C38.8261 99.9183 39.8261 100.168 40.6698 100.168C41.576 100.168 42.5135 99.9183 43.2322 99.4813C43.8884 99.1067 44.7009 98.2951 45.0446 97.702C45.3884 97.0777 45.6384 96.0164 45.6384 95.2048C45.6384 94.362 45.3884 93.3632 45.0134 92.7077C44.6697 92.1146 44.0134 91.3342 43.5447 90.9908Z" fill="#4D5F67"/>
<path d="M110.542 48.4446C109.886 47.7578 109.761 47.7266 103.448 47.7578C97.1674 47.7578 97.0112 47.7578 96.2924 48.4758C95.5424 49.1937 95.5424 49.2249 95.6049 56.5292C95.6362 63.6774 95.6674 63.8335 96.3549 64.5202C97.0736 65.2069 97.2299 65.2382 105.136 65.2382C109.542 65.2382 113.417 65.1133 113.729 64.9572C114.011 64.8324 114.448 64.3017 114.667 63.8023C115.042 62.9907 114.917 62.304 113.167 56.0298C111.854 51.3788 111.011 48.944 110.542 48.4446Z" fill="#4D5F67"/>
<path d="M80.6684 57.7475H60.669V60.2447V62.7419H80.6684V57.7475Z" fill="#4D5F67"/>
<path d="M80.6684 47.7588H50.6693V50.2559V52.7531H80.6684V47.7588Z" fill="#4D5F67"/>
<path d="M80.6684 37.77H40.6696V40.2672V42.7644H80.6684V37.77Z" fill="#4D5F67"/>
<path d="M80.6684 27.7812H30.6699V30.2784V32.7756H80.6684V27.7812Z" fill="#4D5F67"/>
<mask id="mask0_3780_35804" style="mask-type:alpha" maskUnits="userSpaceOnUse" x="0" y="15" width="146" height="95">
<path fill-rule="evenodd" clip-rule="evenodd" d="M81.45 15.4501L83.4811 16.4489C84.6061 16.9796 86.1998 18.1033 87.0123 18.9461C87.856 19.7577 88.9497 21.2872 89.4497 22.3173C89.9497 23.3474 90.4809 25.0018 90.8247 27.7799H97.7932C103.387 27.7799 104.949 27.8736 105.887 28.2794C106.543 28.5291 107.543 29.1222 108.137 29.5904C108.73 30.0586 109.543 31.1199 109.949 31.9939C110.48 33.1177 110.668 34.1165 110.668 37.7687H112.23C113.199 37.7687 114.324 38.0184 115.261 38.4554C116.043 38.8612 117.105 39.6416 117.605 40.1722C118.074 40.7341 118.636 41.5769 118.824 42.0451C119.011 42.5446 120.418 47.0707 121.949 52.1275C123.792 58.2144 124.949 61.5544 125.355 61.9602C125.917 62.5221 126.542 62.6157 130.761 62.7406C133.886 62.8654 135.761 63.0527 136.292 63.3337C136.73 63.5522 137.542 64.114 138.136 64.5823C138.73 65.0193 139.542 66.1118 139.948 66.9546C140.636 68.4217 140.667 68.8587 140.667 82.562L141.823 82.8117C142.479 82.9366 143.292 83.28 143.667 83.5921C144.011 83.873 144.636 84.6222 144.979 85.2153C145.573 86.1829 145.667 86.7448 145.667 90.2097C145.636 93.5184 145.542 94.2676 145.011 95.204C144.698 95.7971 143.948 96.5775 143.386 96.9209C142.479 97.4827 141.698 97.5452 125.605 97.8573L125.011 99.8238C124.667 100.885 123.824 102.633 123.074 103.726C122.324 104.787 120.886 106.317 119.855 107.097C118.855 107.877 117.168 108.845 116.136 109.251C114.543 109.906 113.73 110 110.668 110C107.605 110 106.793 109.906 105.199 109.251C104.168 108.845 102.481 107.877 101.481 107.097C100.449 106.317 99.0119 104.787 98.262 103.726C97.512 102.633 96.6683 100.885 95.7308 97.8573H55.607L55.0132 99.8238C54.6695 100.885 53.8258 102.633 53.0758 103.726C52.3258 104.787 50.8884 106.317 49.8571 107.097C48.8572 107.877 47.1697 108.845 46.1385 109.251C44.5448 109.906 43.7323 110 40.6699 110C37.6075 110 36.795 109.906 35.2013 109.251C34.1701 108.845 32.4826 107.877 31.4827 107.097C30.4515 106.317 29.014 104.787 28.264 103.726C27.514 102.633 26.6703 100.885 25.7328 97.8573L14.8582 97.7012C4.98346 97.5452 3.85849 97.4827 3.01476 96.9833C2.51478 96.6711 1.79605 96.0156 1.45231 95.5786C0.921076 94.8607 0.796079 94.1427 0.702332 90.6779C0.608585 87.057 0.671083 86.4951 1.26482 85.3089C1.7023 84.3725 2.29603 83.7794 3.17101 83.3424C3.85849 82.999 4.70221 82.7181 5.04595 82.7181C5.67094 82.7181 5.67094 82.4996 5.82718 24.5024L6.82715 22.4734C7.35839 21.3497 8.42085 19.8201 9.17083 19.071C9.92081 18.353 11.1395 17.3542 11.9208 16.9172C12.702 16.4801 13.8894 15.9183 14.5769 15.731C15.5456 15.4188 23.3267 15.3564 81.45 15.4501V15.4501ZM13.6082 22.0364C12.9207 22.567 12.0457 23.6908 11.6083 24.5336L10.827 26.0319L10.6708 72.7293C13.8269 72.7293 15.2644 72.9478 15.8894 73.2288C16.5456 73.4785 17.5456 74.0716 18.1393 74.5398C18.7331 75.008 19.5455 76.1005 19.9518 76.9433C20.6392 78.4104 20.6705 78.8474 20.6705 85.6211V92.7068L25.7328 92.5508C26.6703 89.5229 27.514 87.7749 28.264 86.7136C29.014 85.6211 30.4515 84.0915 31.4827 83.3112C32.4826 82.5308 34.1701 81.5631 35.2013 81.1573C36.795 80.5018 37.6075 80.4082 40.6699 80.4082C43.7323 80.4082 44.5448 80.5018 46.1385 81.1573C47.1697 81.5631 48.8572 82.5308 49.8571 83.3112C50.8884 84.0915 52.3258 85.6211 53.0758 86.7136C53.8258 87.7749 54.6695 89.5229 55.0132 90.6154L55.607 92.5508L85.6686 92.7068C85.6686 36.3952 85.5748 27.3429 85.2936 26.1255C85.1061 25.2515 84.5124 23.9405 83.9811 23.285C83.4499 22.5983 82.3249 21.693 81.45 21.256L79.9187 20.4444C25.5454 20.3508 17.3268 20.4132 16.2644 20.6942C15.4519 20.9127 14.2644 21.5057 13.6082 22.0364V22.0364ZM90.6684 37.7687H105.668C105.543 34.7721 105.324 34.179 104.793 33.6483C104.106 32.9616 103.887 32.9304 97.387 32.8367L90.6997 32.7431L90.6684 37.7687ZM90.6684 92.7068L95.762 92.5508C96.6683 89.5229 97.512 87.7749 98.262 86.6824C99.0119 85.6211 100.449 84.0915 101.481 83.3112C102.481 82.5308 104.168 81.5631 105.199 81.1573C106.793 80.5018 107.605 80.377 110.668 80.377C113.762 80.377 114.543 80.5018 116.136 81.1573C117.168 81.5631 118.855 82.5308 119.886 83.3112C120.886 84.0915 122.324 85.6211 123.074 86.6824C123.824 87.7749 124.699 89.5229 125.011 90.5842L125.605 92.5508L130.667 92.7068C130.667 87.0882 130.792 86.2142 131.292 85.2153C131.709 84.3829 132.334 83.7586 133.167 83.3424C133.855 82.999 134.698 82.7181 135.042 82.7181C135.667 82.7181 135.667 82.5308 135.605 76.0069C135.511 69.5142 135.48 69.2957 134.792 68.609C134.136 67.9535 133.73 67.8598 129.324 67.7037C126.73 67.6101 124.199 67.3604 123.73 67.1731C123.23 66.9546 122.386 66.3927 121.855 65.8933C121.293 65.4251 120.574 64.4574 120.23 63.8019C119.918 63.1152 118.418 58.4329 116.886 53.3761C114.668 45.9158 113.98 44.0429 113.324 43.4498C112.543 42.7631 112.512 42.7631 101.606 42.7631H90.6684V92.7068ZM10.6708 82.7181H15.6706C15.5456 79.7215 15.3581 79.1284 14.7957 78.5977C14.2957 78.0671 13.6395 77.8486 12.4207 77.7549L10.7645 77.6301L10.6708 82.7181ZM35.3888 86.8697C34.7951 87.2755 33.7639 88.2119 33.1076 88.9611C32.4201 89.7414 31.6702 91.0837 31.3577 91.9265C31.0764 92.8005 30.8577 94.2676 30.8577 95.204C30.8577 96.1717 31.1077 97.7012 31.4202 98.6377C31.8577 99.8863 32.5139 100.854 33.7639 102.103C35.0138 103.382 35.9825 104.007 37.2325 104.444C38.17 104.756 39.7324 105.006 40.6699 105.006C41.6074 105.006 43.1698 104.756 44.1073 104.444C45.3573 104.007 46.2947 103.382 47.576 102.103C48.8259 100.854 49.4821 99.8863 49.8884 98.6377C50.2009 97.7012 50.4821 96.1717 50.4821 95.204C50.4821 94.2676 50.2009 92.7381 49.8884 91.7704C49.4821 90.553 48.8259 89.5854 47.576 88.3368C46.3572 87.1194 45.3573 86.4327 44.2635 86.0581C43.3886 85.7771 42.0761 85.465 41.2949 85.4026C40.4824 85.3089 39.1387 85.4338 38.17 85.7147C37.2325 85.9956 35.9513 86.4951 35.3888 86.8697V86.8697ZM105.387 86.8697C104.793 87.2755 103.762 88.2119 103.106 88.9611C102.418 89.7414 101.668 91.0837 101.356 91.9265C101.074 92.8005 100.856 94.2676 100.856 95.204C100.856 96.1717 101.106 97.7012 101.418 98.6377C101.856 99.8863 102.512 100.854 103.762 102.103C105.012 103.382 105.98 104.007 107.23 104.444C108.168 104.756 109.73 105.006 110.668 105.006C111.605 105.006 113.168 104.756 114.105 104.444C115.355 104.007 116.293 103.382 117.574 102.103C118.824 100.854 119.48 99.8863 119.886 98.6377C120.199 97.7012 120.48 96.1717 120.48 95.204C120.48 94.2676 120.199 92.7381 119.886 91.7704C119.48 90.553 118.824 89.5854 117.574 88.3368C116.355 87.1194 115.355 86.4327 114.261 86.0581C113.387 85.7771 112.074 85.465 111.293 85.4026C110.48 85.3089 109.137 85.4338 108.168 85.7147C107.23 85.9956 105.949 86.4951 105.387 86.8697V86.8697ZM10.6708 92.7068H15.6706V87.7125H10.6708V92.7068Z" fill="#263238"/>
<path d="M113.544 90.9908C113.012 90.6163 112.075 90.3665 110.981 90.3041C109.825 90.2105 108.919 90.3665 108.231 90.7099C107.669 90.9908 106.888 91.6776 106.513 92.2082C105.981 92.9574 105.825 93.6129 105.825 95.2048C105.825 96.7344 105.981 97.4211 106.45 98.0766C106.794 98.5448 107.575 99.2003 108.169 99.5437C108.825 99.9183 109.825 100.168 110.669 100.168C111.575 100.168 112.512 99.9183 113.231 99.4813C113.887 99.1067 114.7 98.2951 115.044 97.702C115.387 97.0777 115.637 96.0164 115.637 95.2048C115.637 94.362 115.387 93.3632 115.012 92.7077C114.669 92.1146 114.012 91.3342 113.544 90.9908Z" fill="#263238"/>
<path d="M43.5447 90.9908C43.0135 90.6163 42.076 90.3665 40.9823 90.3041C39.8261 90.2105 38.9198 90.3665 38.2324 90.7099C37.6699 90.9908 36.8886 91.6776 36.5137 92.2082C35.9824 92.9574 35.8262 93.6129 35.8262 95.2048C35.8262 96.7344 35.9824 97.4211 36.4512 98.0766C36.7949 98.5448 37.5761 99.2003 38.1699 99.5437C38.8261 99.9183 39.8261 100.168 40.6698 100.168C41.576 100.168 42.5135 99.9183 43.2322 99.4813C43.8884 99.1067 44.7009 98.2951 45.0446 97.702C45.3884 97.0777 45.6384 96.0164 45.6384 95.2048C45.6384 94.362 45.3884 93.3632 45.0134 92.7077C44.6697 92.1146 44.0134 91.3342 43.5447 90.9908Z" fill="#263238"/>
<path d="M110.542 48.4446C109.886 47.7578 109.761 47.7266 103.448 47.7578C97.1674 47.7578 97.0112 47.7578 96.2924 48.4758C95.5424 49.1937 95.5424 49.2249 95.6049 56.5292C95.6362 63.6774 95.6674 63.8335 96.3549 64.5202C97.0736 65.2069 97.2299 65.2382 105.136 65.2382C109.542 65.2382 113.417 65.1133 113.729 64.9572C114.011 64.8324 114.448 64.3017 114.667 63.8023C115.042 62.9907 114.917 62.304 113.167 56.0298C111.854 51.3788 111.011 48.944 110.542 48.4446Z" fill="#263238"/>
<path d="M80.6684 57.7475H60.669V60.2447V62.7419H80.6684V57.7475Z" fill="#263238"/>
<path d="M80.6684 47.7588H50.6693V50.2559V52.7531H80.6684V47.7588Z" fill="#263238"/>
<path d="M80.6684 37.77H40.6696V40.2672V42.7644H80.6684V37.77Z" fill="#263238"/>
<path d="M80.6684 27.7812H30.6699V30.2784V32.7756H80.6684V27.7812Z" fill="#263238"/>
</mask>
<g mask="url(#mask0_3780_35804)">
<rect x="26.1553" y="24.1914" width="56.6406" height="41.0644" fill="#007BFF"/>
<path d="M94.124 45.1484H111.258L117.63 67.2383H94.124V45.1484Z" fill="#007BFF"/>
<rect x="35.7842" y="90.1797" width="9.9121" height="9.9121" fill="#007BFF"/>
<rect x="105.734" y="90.1797" width="9.9121" height="9.9121" fill="#007BFF"/>
</g>
</svg>
