<svg width="91" height="91" viewBox="0 0 91 91" fill="none" xmlns="http://www.w3.org/2000/svg">
<path d="M53.273 0.273438H37.4908L36.9724 3.09396C36.7132 4.61934 36.3388 6.72034 36.1372 7.75645L35.8204 9.62721C32.9405 10.6345 31.8461 11.0375 31.5293 11.1526C31.2125 11.2965 30.0893 11.8146 29.0237 12.3038L27.0654 13.2248C21.363 9.22428 19.5775 8.07304 19.4335 8.04426C19.2607 8.04426 16.6687 10.5482 13.616 13.599L8.11524 19.1249L13.5296 26.7518C12.1472 29.5435 11.312 31.5294 10.7936 32.9397L9.84321 35.53C7.02085 36.048 4.91848 36.3934 3.3921 36.6524L0.569744 37.1129C0.569744 49.057 0.684942 52.6546 0.800141 52.8272C0.915339 52.9711 1.83692 53.259 2.87371 53.4316C3.91049 53.6331 5.92647 53.9785 7.33765 54.2375L9.92961 54.698C10.9952 57.9215 11.8016 59.8498 12.4064 61.0873C13.04 62.2961 13.4432 63.4762 13.328 63.6776C13.2128 63.8503 12.4928 64.8864 11.744 65.9801C10.9952 67.045 10.3616 67.966 10.3616 68.0523C10.3616 68.1386 10.4768 68.1962 10.6496 68.1962C10.8224 68.1962 12.9824 66.2967 15.4879 63.9654C17.9647 61.6054 20.5567 59.159 21.2478 58.4971C21.9102 57.8063 22.4574 57.2307 22.4574 57.2019C22.4574 57.1444 22.1118 56.2809 21.651 55.2448C21.1902 54.2087 20.5855 52.5394 20.2687 51.5033C19.8655 50.0355 19.7215 48.654 19.7215 45.1715C19.7215 41.3725 19.8079 40.3651 20.3839 38.408C20.7583 37.1417 21.5358 35.0695 22.1694 33.8031C22.7742 32.5368 23.811 30.7811 24.4446 29.9177C25.107 29.0543 26.3166 27.644 27.1518 26.8094C27.9581 25.9459 29.7437 24.5069 31.0973 23.6147C32.4509 22.6937 34.6397 21.5425 35.9932 21.0244C37.3468 20.5064 39.478 19.8732 40.7452 19.6429C42.3579 19.3264 44.0571 19.24 46.5051 19.3551C49.0682 19.4703 50.6234 19.7005 52.4954 20.2473C53.8778 20.6503 55.8073 21.3986 56.8153 21.8878C57.7945 22.4059 59.3209 23.2693 60.1849 23.8737C61.0489 24.4493 62.5752 25.7445 63.5832 26.723C64.5624 27.6728 66.06 29.5435 66.924 30.8675C67.788 32.1626 68.8248 34.0334 69.228 35.0407C69.6311 36.0192 70.1783 37.5734 70.4087 38.4944C70.6679 39.3866 70.9847 41.3149 71.1287 42.7252C71.2727 44.3657 71.2727 46.2076 71.0999 47.7618C70.9559 49.1145 70.6103 50.9853 70.3511 51.935C70.0919 52.8848 69.4872 54.5541 68.9688 55.6765C68.4792 56.799 67.4136 58.6698 66.6072 59.8498C65.8296 61.0298 64.2744 62.8142 63.18 63.8215C62.0857 64.8288 60.4729 66.124 59.6089 66.6996C58.7449 67.2752 57.1321 68.1674 56.0089 68.6567C54.8858 69.1748 52.8986 69.8655 51.545 70.1821C50.1914 70.4987 48.1179 70.844 46.9371 70.9304C45.7275 71.0455 43.7115 70.988 42.3291 70.7865C40.9756 70.6138 38.5852 70.0094 37.0012 69.4626C35.4172 68.9157 33.8045 68.3977 33.4013 68.3113C32.7965 68.1674 32.3933 68.4552 30.8381 70.1245C29.8013 71.1894 27.7278 73.3768 26.2014 74.9597C24.675 76.5427 23.1486 78.2695 22.803 78.7876C22.227 79.5934 22.227 79.7085 22.6878 79.651C22.947 79.5934 23.9838 79.0178 24.9918 78.3558C25.971 77.6651 26.9214 77.1183 27.0654 77.1183C27.2382 77.1183 28.1021 77.4924 29.0237 77.9529C29.9165 78.4134 31.7021 79.1329 32.9693 79.5646C34.2365 80.0251 35.4172 80.5144 35.59 80.6871C35.7916 80.8598 36.1948 82.7017 36.5404 84.7452C36.886 86.7886 37.2892 88.7745 37.4332 89.1487L37.7212 89.7818C51.113 89.8106 52.9274 89.7243 53.1578 89.4365C53.3306 89.235 53.7626 87.3642 54.1082 85.3208C54.4538 83.2774 54.857 81.3203 54.9722 81.0037C55.145 80.6295 55.8074 80.2554 57.0457 79.8812C58.0537 79.5646 59.8969 78.8163 61.1353 78.2119C62.3449 77.6075 63.4968 77.1183 63.6408 77.1183C63.8136 77.1183 65.628 78.3271 67.7016 79.7949L71.4743 82.4427L82.7062 71.2182L77.263 63.4474C78.9622 59.8785 79.7686 57.9502 80.1142 56.8566C80.575 55.5039 80.9494 54.8131 81.3526 54.6692C81.6694 54.5541 83.7141 54.1512 85.8741 53.777C89.2725 53.1726 89.8485 52.9999 89.9637 52.5107C90.0501 52.1941 90.1365 48.654 90.1365 44.6823C90.1365 39.1563 90.05 37.3432 89.7908 37.1992C89.5893 37.1129 87.4869 36.6812 85.1541 36.2783L80.8918 35.53C79.7686 32.1914 78.9622 30.2343 78.3862 28.9967L77.3206 26.8094C80.8342 21.7439 82.0438 20.0171 82.2454 19.7005C82.6198 19.1537 82.3318 18.7795 77.551 13.9731C74.7287 11.1526 72.1367 8.64866 71.7911 8.4472C71.1863 8.07304 70.8695 8.21695 67.3848 10.6345L63.6408 13.2248C60.6169 11.7282 58.7161 10.9223 57.4489 10.4619C56.1817 10.0301 55.1162 9.65599 55.0874 9.65599C55.0298 9.62721 54.6842 7.81402 54.281 5.59789C53.8778 3.38177 53.5034 1.28077 53.417 0.935397L53.273 0.273438Z" fill="#4D5F67"/>
<path d="M37.462 33.6592C36.742 33.5153 35.446 33.3714 34.5821 33.3714C33.7181 33.3714 32.2205 33.6304 31.2701 33.947C30.3197 34.2636 28.8509 34.9543 28.0157 35.5012C27.1806 36.0768 26.5182 36.71 26.5182 36.969C26.5182 37.1993 26.8638 37.4583 27.2958 37.5446C27.7277 37.631 28.6493 37.8324 29.3117 37.9763C30.0029 38.1202 31.2989 38.6095 32.1917 39.07C33.1133 39.5305 34.5821 40.4515 35.446 41.1134C36.31 41.8042 37.2604 42.61 37.5484 42.9554C37.8364 43.3008 38.0668 43.934 38.038 44.3657C38.038 44.7974 38.182 45.4593 38.3548 45.8047C38.6716 46.4091 38.47 46.6394 36.1372 48.8843C34.7261 50.237 30.3197 54.439 26.3742 58.238C22.3998 62.0371 16.0063 68.1962 12.1184 71.9377C8.23043 75.6792 4.22729 79.5646 3.1905 80.5432C2.15372 81.5217 1.08814 82.673 0.800141 83.1047C0.512145 83.5652 0.310547 84.4286 0.310547 85.2345C0.310547 85.9828 0.425744 86.9325 0.598541 87.3355C0.742539 87.7096 1.28973 88.4291 1.80813 88.8896C2.32652 89.3789 3.2193 89.8969 3.7665 90.0984C4.31369 90.2711 5.20647 90.3287 5.78247 90.2135C6.32966 90.0984 7.10725 89.8394 7.51044 89.6379C7.91364 89.4365 9.44001 87.9111 10.9376 86.2706C12.4064 84.6301 15.0847 81.8095 16.8415 79.9676C18.5983 78.1544 22.1694 74.4129 24.819 71.6211C27.4398 68.8582 30.8093 65.2893 32.3069 63.6488C33.7757 62.0371 36.6844 58.9288 38.758 56.7414C40.8028 54.5541 42.8475 52.4819 43.2795 52.1365C43.9995 51.5609 44.1723 51.5321 44.9787 51.8487C45.6123 52.0789 46.1595 52.6833 46.7067 53.6619C47.1387 54.439 48.4059 55.9356 49.4714 57.0005C50.537 58.0654 51.7178 58.9863 52.0634 59.0727C52.6106 59.2166 53.3018 58.6985 56.1817 55.878C58.9465 53.1726 59.6377 52.338 59.6377 51.7048C59.6377 51.1004 59.1193 50.4096 57.5353 48.8267C56.3545 47.6755 54.9722 46.553 54.4538 46.3228C53.9354 46.0637 53.1866 45.5169 52.8122 45.0852C52.4378 44.6535 52.1498 44.1066 52.1498 43.8764C52.1498 43.6174 50.9402 42.2071 49.4714 40.7393C48.0027 39.2427 46.4475 37.89 46.0155 37.7173C45.5835 37.5158 44.9787 37.4007 44.6619 37.4007C44.3451 37.4007 43.5675 36.969 42.9627 36.4509C42.3579 35.9329 41.1484 35.1558 40.3132 34.7529C39.4492 34.3212 38.182 33.8319 37.462 33.6592Z" fill="#4D5F67"/>
<mask id="mask0_4363_39006" style="mask-type:alpha" maskUnits="userSpaceOnUse" x="0" y="0" width="91" height="91">
<path d="M53.273 0.273438H37.4908L36.9724 3.09396C36.7132 4.61934 36.3388 6.72034 36.1372 7.75645L35.8204 9.62721C32.9405 10.6345 31.8461 11.0375 31.5293 11.1526C31.2125 11.2965 30.0893 11.8146 29.0237 12.3038L27.0654 13.2248C21.363 9.22428 19.5775 8.07304 19.4335 8.04426C19.2607 8.04426 16.6687 10.5482 13.616 13.599L8.11524 19.1249L13.5296 26.7518C12.1472 29.5435 11.312 31.5294 10.7936 32.9397L9.84321 35.53C7.02085 36.048 4.91848 36.3934 3.3921 36.6524L0.569744 37.1129C0.569744 49.057 0.684942 52.6546 0.800141 52.8272C0.915339 52.9711 1.83692 53.259 2.87371 53.4316C3.91049 53.6331 5.92647 53.9785 7.33765 54.2375L9.92961 54.698C10.9952 57.9215 11.8016 59.8498 12.4064 61.0873C13.04 62.2961 13.4432 63.4762 13.328 63.6776C13.2128 63.8503 12.4928 64.8864 11.744 65.9801C10.9952 67.045 10.3616 67.966 10.3616 68.0523C10.3616 68.1386 10.4768 68.1962 10.6496 68.1962C10.8224 68.1962 12.9824 66.2967 15.4879 63.9654C17.9647 61.6054 20.5567 59.159 21.2478 58.4971C21.9102 57.8063 22.4574 57.2307 22.4574 57.2019C22.4574 57.1444 22.1118 56.2809 21.651 55.2448C21.1902 54.2087 20.5855 52.5394 20.2687 51.5033C19.8655 50.0355 19.7215 48.654 19.7215 45.1715C19.7215 41.3725 19.8079 40.3651 20.3839 38.408C20.7583 37.1417 21.5358 35.0695 22.1694 33.8031C22.7742 32.5368 23.811 30.7811 24.4446 29.9177C25.107 29.0543 26.3166 27.644 27.1518 26.8094C27.9581 25.9459 29.7437 24.5069 31.0973 23.6147C32.4509 22.6937 34.6397 21.5425 35.9932 21.0244C37.3468 20.5064 39.478 19.8732 40.7452 19.6429C42.3579 19.3264 44.0571 19.24 46.5051 19.3551C49.0682 19.4703 50.6234 19.7005 52.4954 20.2473C53.8778 20.6503 55.8073 21.3986 56.8153 21.8878C57.7945 22.4059 59.3209 23.2693 60.1849 23.8737C61.0489 24.4493 62.5752 25.7445 63.5832 26.723C64.5624 27.6728 66.06 29.5435 66.924 30.8675C67.788 32.1626 68.8248 34.0334 69.228 35.0407C69.6311 36.0192 70.1783 37.5734 70.4087 38.4944C70.6679 39.3866 70.9847 41.3149 71.1287 42.7252C71.2727 44.3657 71.2727 46.2076 71.0999 47.7618C70.9559 49.1145 70.6103 50.9853 70.3511 51.935C70.0919 52.8848 69.4872 54.5541 68.9688 55.6765C68.4792 56.799 67.4136 58.6698 66.6072 59.8498C65.8296 61.0298 64.2744 62.8142 63.18 63.8215C62.0857 64.8288 60.4729 66.124 59.6089 66.6996C58.7449 67.2752 57.1321 68.1674 56.0089 68.6567C54.8858 69.1748 52.8986 69.8655 51.545 70.1821C50.1914 70.4987 48.1179 70.844 46.9371 70.9304C45.7275 71.0455 43.7115 70.988 42.3291 70.7865C40.9756 70.6138 38.5852 70.0094 37.0012 69.4626C35.4172 68.9157 33.8045 68.3977 33.4013 68.3113C32.7965 68.1674 32.3933 68.4552 30.8381 70.1245C29.8013 71.1894 27.7278 73.3768 26.2014 74.9597C24.675 76.5427 23.1486 78.2695 22.803 78.7876C22.227 79.5934 22.227 79.7085 22.6878 79.651C22.947 79.5934 23.9838 79.0178 24.9918 78.3558C25.971 77.6651 26.9214 77.1183 27.0654 77.1183C27.2382 77.1183 28.1021 77.4924 29.0237 77.9529C29.9165 78.4134 31.7021 79.1329 32.9693 79.5646C34.2365 80.0251 35.4172 80.5144 35.59 80.6871C35.7916 80.8598 36.1948 82.7017 36.5404 84.7452C36.886 86.7886 37.2892 88.7745 37.4332 89.1487L37.7212 89.7818C51.113 89.8106 52.9274 89.7243 53.1578 89.4365C53.3306 89.235 53.7626 87.3642 54.1082 85.3208C54.4538 83.2774 54.857 81.3203 54.9722 81.0037C55.145 80.6295 55.8074 80.2554 57.0457 79.8812C58.0537 79.5646 59.8969 78.8163 61.1353 78.2119C62.3449 77.6075 63.4968 77.1183 63.6408 77.1183C63.8136 77.1183 65.628 78.3271 67.7016 79.7949L71.4743 82.4427L82.7062 71.2182L77.263 63.4474C78.9622 59.8785 79.7686 57.9502 80.1142 56.8566C80.575 55.5039 80.9494 54.8131 81.3526 54.6692C81.6694 54.5541 83.7141 54.1512 85.8741 53.777C89.2725 53.1726 89.8485 52.9999 89.9637 52.5107C90.0501 52.1941 90.1365 48.654 90.1365 44.6823C90.1365 39.1563 90.05 37.3432 89.7908 37.1992C89.5893 37.1129 87.4869 36.6812 85.1541 36.2783L80.8918 35.53C79.7686 32.1914 78.9622 30.2343 78.3862 28.9967L77.3206 26.8094C80.8342 21.7439 82.0438 20.0171 82.2454 19.7005C82.6198 19.1537 82.3318 18.7795 77.551 13.9731C74.7287 11.1526 72.1367 8.64866 71.7911 8.4472C71.1863 8.07304 70.8695 8.21695 67.3848 10.6345L63.6408 13.2248C60.6169 11.7282 58.7161 10.9223 57.4489 10.4619C56.1817 10.0301 55.1162 9.65599 55.0874 9.65599C55.0298 9.62721 54.6842 7.81402 54.281 5.59789C53.8778 3.38177 53.5034 1.28077 53.417 0.935397L53.273 0.273438Z" fill="#263238"/>
<path d="M37.462 33.6592C36.742 33.5153 35.446 33.3714 34.5821 33.3714C33.7181 33.3714 32.2205 33.6304 31.2701 33.947C30.3197 34.2636 28.8509 34.9543 28.0157 35.5012C27.1806 36.0768 26.5182 36.71 26.5182 36.969C26.5182 37.1993 26.8638 37.4583 27.2958 37.5446C27.7277 37.631 28.6493 37.8324 29.3117 37.9763C30.0029 38.1202 31.2989 38.6095 32.1917 39.07C33.1133 39.5305 34.5821 40.4515 35.446 41.1134C36.31 41.8042 37.2604 42.61 37.5484 42.9554C37.8364 43.3008 38.0668 43.934 38.038 44.3657C38.038 44.7974 38.182 45.4593 38.3548 45.8047C38.6716 46.4091 38.47 46.6394 36.1372 48.8843C34.7261 50.237 30.3197 54.439 26.3742 58.238C22.3998 62.0371 16.0063 68.1962 12.1184 71.9377C8.23043 75.6792 4.22729 79.5646 3.1905 80.5432C2.15372 81.5217 1.08814 82.673 0.800141 83.1047C0.512145 83.5652 0.310547 84.4286 0.310547 85.2345C0.310547 85.9828 0.425744 86.9325 0.598541 87.3355C0.742539 87.7096 1.28973 88.4291 1.80813 88.8896C2.32652 89.3789 3.2193 89.8969 3.7665 90.0984C4.31369 90.2711 5.20647 90.3287 5.78247 90.2135C6.32966 90.0984 7.10725 89.8394 7.51044 89.6379C7.91364 89.4365 9.44001 87.9111 10.9376 86.2706C12.4064 84.6301 15.0847 81.8095 16.8415 79.9676C18.5983 78.1544 22.1694 74.4129 24.819 71.6211C27.4398 68.8582 30.8093 65.2893 32.3069 63.6488C33.7757 62.0371 36.6844 58.9288 38.758 56.7414C40.8028 54.5541 42.8475 52.4819 43.2795 52.1365C43.9995 51.5609 44.1723 51.5321 44.9787 51.8487C45.6123 52.0789 46.1595 52.6833 46.7067 53.6619C47.1387 54.439 48.4059 55.9356 49.4714 57.0005C50.537 58.0654 51.7178 58.9863 52.0634 59.0727C52.6106 59.2166 53.3018 58.6985 56.1817 55.878C58.9465 53.1726 59.6377 52.338 59.6377 51.7048C59.6377 51.1004 59.1193 50.4096 57.5353 48.8267C56.3545 47.6755 54.9722 46.553 54.4538 46.3228C53.9354 46.0637 53.1866 45.5169 52.8122 45.0852C52.4378 44.6535 52.1498 44.1066 52.1498 43.8764C52.1498 43.6174 50.9402 42.2071 49.4714 40.7393C48.0027 39.2427 46.4475 37.89 46.0155 37.7173C45.5835 37.5158 44.9787 37.4007 44.6619 37.4007C44.3451 37.4007 43.5675 36.969 42.9627 36.4509C42.3579 35.9329 41.1484 35.1558 40.3132 34.7529C39.4492 34.3212 38.182 33.8319 37.462 33.6592Z" fill="#263238"/>
</mask>
<g mask="url(#mask0_4363_39006)">
<path d="M28.2973 69.521C27.3947 70.0844 14.3869 87.1446 7.99576 95.6042C5.69284 95.6042 0.607626 95.8298 -1.30981 96.7324C-3.70662 97.8607 -5.15234 88.7728 -5.15234 88.0679C-5.15234 87.504 12.9769 65.527 21.8122 58.3836C23.0811 57.2556 25.6189 54.8305 25.6189 54.154V47.8095L24.068 36.6714C25.8538 34.087 31.0046 28.918 37.3209 28.918C45.2163 28.918 57.9052 40.9015 60.725 45.6951C63.5447 50.4887 61.4299 50.6289 59.738 54.9996C58.0462 59.3702 53.5346 60.6394 46.9081 60.7804C40.2817 60.9214 29.4255 68.8168 28.2973 69.521Z" fill="#007BFF"/>
</g>
</svg>
