<svg width="145" height="110" viewBox="0 0 145 110" fill="none" xmlns="http://www.w3.org/2000/svg">
<path fill-rule="evenodd" clip-rule="evenodd" d="M14.0383 0.00240389C14.6703 -0.0263236 15.4172 0.203498 16.0492 0.63441C16.8823 1.18023 19.1805 4.94353 28.9191 21.8066C37.5086 36.6874 40.9272 42.3467 41.2719 42.318C41.5305 42.318 52.3033 36.2565 88.5861 15.4865H113.723L114.699 16.4345C115.274 16.9804 121.393 27.2935 129.982 42.2031C137.854 55.8774 144.404 67.4546 144.547 67.9142C144.777 68.575 144.72 69.0346 144.289 69.9251C143.772 71.0168 142.795 71.6201 124.208 82.3641C113.464 88.5406 104.042 93.9413 103.237 94.3435C101.887 95.033 101.542 95.0617 92.3207 95.0617L91.4302 96.8428C90.9418 97.8483 89.764 99.6294 88.816 100.807C87.868 101.985 86.3167 103.565 85.3974 104.283C84.4494 105.03 82.9843 106.036 82.1225 106.553C81.2606 107.07 79.7094 107.817 78.6752 108.19C77.641 108.592 75.6013 109.167 74.1649 109.454C72.6998 109.741 71.0336 110 70.4878 110C69.942 110 69.1089 109.799 68.6205 109.569C68.1609 109.339 67.5002 108.793 67.1842 108.334C66.8107 107.874 66.5809 107.127 66.5809 106.409C66.5809 105.643 66.8011 104.982 67.2416 104.427C67.6151 103.967 68.1609 103.479 68.4769 103.307C68.7929 103.163 70.1718 102.933 71.5795 102.789C72.9584 102.646 74.8831 102.215 75.8886 101.87C76.8653 101.497 78.3879 100.721 79.2497 100.175C80.1115 99.6294 81.6628 98.2792 84.5356 95.2053L76.8941 94.9181L75.9173 93.8264C75.1704 93.0221 74.9406 92.505 74.9406 91.6719C74.9406 91.0973 75.1704 90.2068 75.4864 89.7471C75.8886 89.0864 80.3701 86.386 94.3604 78.3136C104.472 72.5106 112.89 67.6557 113.091 67.5408C113.378 67.3971 110.103 61.508 100.882 45.5642C93.9582 33.6136 88.2127 23.8175 88.0978 23.8175C87.9541 23.8175 83.9036 26.087 79.0486 28.8735C74.1649 31.6888 70.0282 34.1019 69.8271 34.2743C69.5398 34.5329 69.9133 35.366 71.6369 38.3249C73.1308 40.8816 73.7915 42.3467 73.7915 43.0075C73.7915 43.4958 73.5904 44.2715 73.3606 44.7024C73.102 45.162 72.4987 45.7653 71.9817 46.0526C71.2922 46.4548 70.7751 46.541 69.9133 46.4261C69.2813 46.3111 68.5343 45.9951 68.2183 45.7366C67.9311 45.4493 66.7245 43.582 65.5754 41.5424C64.3976 39.5315 63.3634 37.9514 63.2485 38.0089C63.1049 38.0663 58.8819 40.4795 53.8259 43.3522C48.7698 46.225 44.6043 48.6093 44.5469 48.6381C44.5182 48.6381 44.8054 49.2413 45.2076 49.9595C45.6385 50.7639 45.9258 51.7119 45.9258 52.4588C45.9258 53.4643 45.7534 53.8665 44.9491 54.6996C44.116 55.5614 43.7712 55.705 42.6509 55.705C41.5592 55.705 41.157 55.5614 40.3527 54.757C39.7781 54.2112 33.9752 44.4439 12.4583 7.0981L2.00145 7.29919L1.1109 6.43736C0.53635 5.86281 0.162893 5.17335 0.047983 4.42644C-0.066927 3.62207 0.0192555 3.01879 0.363986 2.41551C0.622533 1.92715 1.13963 1.3526 1.48436 1.12278C1.91527 0.835502 3.7251 0.605682 7.57459 0.375862C10.591 0.203497 13.4925 0.0311314 14.0383 0.00240389ZM95.7393 22.7546C95.7967 22.927 101.284 32.4645 107.92 43.9268L120.014 64.7542C131.62 64.8691 134.981 64.8404 134.981 64.7542C134.981 64.668 129.465 55.0443 122.714 43.3522L110.419 22.0651C106.196 22.18 102.864 22.2662 100.307 22.2949C96.716 22.3524 95.6531 22.4673 95.7393 22.7259V22.7546ZM37.1639 0.031131C37.6523 0.00240345 38.4567 0.26095 39.0312 0.663135C39.8356 1.18023 41.4156 3.70825 46.9025 13.0734C51.7862 21.4619 53.7971 25.1964 53.8833 26.0008C53.9982 26.7477 53.8833 27.4659 53.5673 28.0692C53.3088 28.5863 52.7342 29.2183 52.2459 29.4481C51.7862 29.6779 51.0393 29.879 50.6084 29.879C50.1488 29.879 49.3731 29.5917 48.8273 29.247C48.1091 28.7299 46.4429 26.087 35.4403 7.0981L31.8493 7.32792C29.2064 7.47156 28.0573 7.44283 27.5402 7.18428C27.138 6.98319 26.5347 6.55227 26.1613 6.20754C25.8166 5.89154 25.4431 5.14463 25.3569 4.59881C25.2707 4.05298 25.3282 3.27734 25.5005 2.87516C25.6729 2.47297 26.1326 1.84097 26.5635 1.43878C27.2529 0.778049 27.5977 0.691864 31.7919 0.404589C34.2912 0.232224 36.7043 0.0598585 37.1639 0.031131ZM46.7876 61.508C47.9655 61.508 49.7753 61.6229 50.8095 61.7953C51.8437 61.9389 53.6535 62.3985 54.8313 62.8007C56.0092 63.2029 57.9626 64.0647 59.1405 64.7255C60.6056 65.5586 62.1568 66.7938 64.0241 68.6611C65.518 70.155 67.1842 72.1084 67.6725 72.9703C68.1896 73.8321 68.9365 75.3259 69.31 76.2739C69.7122 77.2219 70.2293 78.7732 70.4878 79.7212C70.7464 80.6692 71.0049 82.7376 71.1198 84.3176C71.2347 86.4147 71.1486 87.9086 70.8038 89.7758C70.5165 91.1835 69.8845 93.3955 69.3674 94.6595C68.8791 95.9235 67.7587 97.9919 66.8969 99.2272C66.0351 100.491 64.4263 102.33 63.3059 103.364C62.2143 104.369 60.4045 105.748 59.2841 106.38C58.1924 107.041 56.239 107.932 54.975 108.363C53.711 108.793 51.8437 109.282 50.8095 109.425C49.7753 109.598 48.0516 109.741 46.9313 109.741C45.8396 109.741 43.7712 109.483 42.3349 109.196C40.9272 108.908 38.8588 108.305 37.7385 107.845C36.6468 107.386 34.837 106.409 33.7166 105.662C32.625 104.944 30.729 103.306 29.5511 102.071C28.3733 100.807 26.9657 99.0836 26.4773 98.2217C25.9602 97.3599 25.2133 95.8948 24.8398 94.9468C24.4376 93.9988 23.8918 92.39 23.6045 91.3559C23.2598 90.0057 23.1162 88.4257 23.1162 85.6104C23.1162 82.4216 23.2311 81.33 23.7482 79.4339C24.1216 78.1699 24.8398 76.2452 25.3856 75.1248C25.9027 74.0044 26.9944 72.2808 27.77 71.2466C28.5457 70.2124 30.0108 68.6324 31.0162 67.7131C32.0217 66.7651 33.7741 65.5011 34.8657 64.8404C35.9861 64.1796 37.9108 63.2891 39.1748 62.8582C40.4389 62.4273 42.1912 61.9676 43.0531 61.7953C43.9149 61.6516 45.6098 61.5367 46.7876 61.508ZM38.9163 70.471C37.9683 70.9881 36.3595 72.1946 35.3254 73.1426C34.2912 74.1194 32.9697 75.6706 32.4239 76.5899C31.8781 77.5379 31.1311 79.1179 30.7577 80.1521C30.3555 81.3012 30.0108 82.9674 29.9246 84.4613C29.8384 86.1274 29.9246 87.5926 30.2406 89.0577C30.4704 90.2355 31.1599 92.189 31.7631 93.3668C32.5388 94.8893 33.4581 96.1534 35.0094 97.6759C36.2159 98.9112 37.9108 100.233 38.8876 100.75C39.8356 101.267 41.6454 101.928 42.9094 102.272C44.1734 102.588 46.0407 102.847 47.0749 102.847C48.1091 102.847 49.9764 102.588 51.2404 102.272C52.5044 101.928 54.3142 101.267 55.2622 100.75C56.2103 100.233 57.9626 98.8537 59.1692 97.6759C60.6917 96.1821 61.6397 94.9181 62.3579 93.5104C62.9038 92.39 63.5932 90.4653 63.8805 89.2013C64.254 87.5064 64.3401 86.2711 64.2252 84.4613C64.139 83.1111 63.823 81.3012 63.507 80.4394C63.191 79.5776 62.6739 78.2848 62.3005 77.5667C61.9557 76.8485 61.1227 75.6132 60.4619 74.8088C59.8299 74.0044 58.6521 72.8266 57.8477 72.1946C57.0721 71.5626 55.6932 70.6721 54.8313 70.2411C53.9695 69.8102 52.6768 69.2644 51.9586 69.0346C51.2404 68.8048 49.3731 68.575 47.7931 68.4888C45.4949 68.4026 44.4894 68.4888 42.7658 68.9484C41.588 69.2931 39.8356 69.9539 38.9163 70.471Z" fill="#4D5F67"/>
<mask id="mask0_3780_35795" style="mask-type:alpha" maskUnits="userSpaceOnUse" x="0" y="0" width="145" height="110">
<path fill-rule="evenodd" clip-rule="evenodd" d="M14.0383 0.00240389C14.6703 -0.0263236 15.4172 0.203498 16.0492 0.63441C16.8823 1.18023 19.1805 4.94353 28.9191 21.8066C37.5086 36.6874 40.9272 42.3467 41.2719 42.318C41.5305 42.318 52.3033 36.2565 88.5861 15.4865H113.723L114.699 16.4345C115.274 16.9804 121.393 27.2935 129.982 42.2031C137.854 55.8774 144.404 67.4546 144.547 67.9142C144.777 68.5749 144.72 69.0346 144.289 69.9251C143.772 71.0168 142.795 71.6201 124.208 82.3641C113.464 88.5406 104.042 93.9413 103.237 94.3435C101.887 95.033 101.542 95.0617 92.3207 95.0617L91.4302 96.8428C90.9418 97.8483 89.764 99.6294 88.816 100.807C87.868 101.985 86.3167 103.565 85.3974 104.283C84.4494 105.03 82.9843 106.036 82.1225 106.553C81.2606 107.07 79.7093 107.817 78.6752 108.19C77.641 108.592 75.6013 109.167 74.1649 109.454C72.6998 109.741 71.0336 110 70.4878 110C69.942 110 69.1089 109.799 68.6205 109.569C68.1609 109.339 67.5002 108.793 67.1842 108.334C66.8107 107.874 66.5809 107.127 66.5809 106.409C66.5809 105.643 66.8011 104.982 67.2416 104.427C67.6151 103.967 68.1609 103.479 68.4769 103.306C68.7929 103.163 70.1718 102.933 71.5795 102.789C72.9584 102.646 74.8831 102.215 75.8886 101.87C76.8653 101.497 78.3879 100.721 79.2497 100.175C80.1115 99.6294 81.6628 98.2792 84.5356 95.2053L76.8941 94.9181L75.9173 93.8264C75.1704 93.022 74.9406 92.505 74.9406 91.6719C74.9406 91.0973 75.1704 90.2067 75.4864 89.7471C75.8886 89.0864 80.3701 86.386 94.3604 78.3136C104.472 72.5106 112.89 67.6557 113.091 67.5408C113.378 67.3971 110.103 61.508 100.882 45.5642C93.9582 33.6136 88.2127 23.8175 88.0978 23.8175C87.9541 23.8175 83.9036 26.087 79.0486 28.8735C74.1649 31.6888 70.0282 34.1019 69.8271 34.2743C69.5398 34.5329 69.9133 35.366 71.6369 38.3249C73.1307 40.8816 73.7915 42.3467 73.7915 43.0075C73.7915 43.4958 73.5904 44.2715 73.3606 44.7024C73.102 45.162 72.4987 45.7653 71.9817 46.0526C71.2922 46.4548 70.7751 46.541 69.9133 46.426C69.2813 46.3111 68.5343 45.9951 68.2183 45.7366C67.9311 45.4493 66.7245 43.582 65.5754 41.5424C64.3976 39.5314 63.3634 37.9514 63.2485 38.0089C63.1049 38.0663 58.8819 40.4795 53.8259 43.3522C48.7698 46.225 44.6043 48.6093 44.5469 48.6381C44.5182 48.6381 44.8054 49.2413 45.2076 49.9595C45.6385 50.7639 45.9258 51.7119 45.9258 52.4588C45.9258 53.4643 45.7534 53.8665 44.9491 54.6996C44.116 55.5614 43.7712 55.705 42.6509 55.705C41.5592 55.705 41.157 55.5614 40.3527 54.757C39.7781 54.2112 33.9752 44.4438 12.4583 7.0981L2.00145 7.29919L1.1109 6.43736C0.53635 5.86281 0.162893 5.17335 0.047983 4.42644C-0.066927 3.62207 0.0192555 3.01879 0.363986 2.41551C0.622533 1.92715 1.13963 1.3526 1.48436 1.12278C1.91527 0.835502 3.7251 0.605682 7.57459 0.375862C10.591 0.203497 13.4925 0.0311314 14.0383 0.00240389ZM95.7393 22.7546C95.7967 22.927 101.284 32.4645 107.92 43.9268L120.014 64.7542C131.62 64.8691 134.981 64.8404 134.981 64.7542C134.981 64.668 129.465 55.0443 122.714 43.3522L110.419 22.0651C106.196 22.18 102.864 22.2662 100.307 22.2949C96.716 22.3524 95.6531 22.4673 95.7393 22.7259V22.7546ZM37.1639 0.031131C37.6523 0.00240345 38.4567 0.26095 39.0312 0.663135C39.8356 1.18023 41.4156 3.70825 46.9025 13.0734C51.7862 21.4618 53.7971 25.1964 53.8833 26.0008C53.9982 26.7477 53.8833 27.4659 53.5673 28.0692C53.3088 28.5863 52.7342 29.2183 52.2459 29.4481C51.7862 29.6779 51.0393 29.879 50.6084 29.879C50.1487 29.879 49.3731 29.5917 48.8273 29.247C48.1091 28.7299 46.4429 26.087 35.4403 7.0981L31.8493 7.32792C29.2064 7.47156 28.0573 7.44283 27.5402 7.18428C27.138 6.98319 26.5347 6.55227 26.1613 6.20754C25.8166 5.89154 25.4431 5.14463 25.3569 4.59881C25.2707 4.05298 25.3282 3.27734 25.5005 2.87516C25.6729 2.47297 26.1326 1.84097 26.5635 1.43878C27.2529 0.778049 27.5977 0.691864 31.7919 0.404589C34.2912 0.232224 36.7043 0.0598585 37.1639 0.031131ZM46.7876 61.508C47.9655 61.508 49.7753 61.6229 50.8095 61.7953C51.8437 61.9389 53.6535 62.3985 54.8313 62.8007C56.0092 63.2029 57.9626 64.0647 59.1405 64.7255C60.6056 65.5586 62.1568 66.7938 64.0241 68.6611C65.518 70.155 67.1842 72.1084 67.6725 72.9703C68.1896 73.8321 68.9365 75.3259 69.31 76.2739C69.7122 77.2219 70.2293 78.7732 70.4878 79.7212C70.7464 80.6692 71.0049 82.7376 71.1198 84.3176C71.2347 86.4147 71.1486 87.9086 70.8038 89.7758C70.5165 91.1835 69.8845 93.3955 69.3674 94.6595C68.8791 95.9235 67.7587 97.9919 66.8969 99.2272C66.0351 100.491 64.4263 102.33 63.3059 103.364C62.2143 104.369 60.4045 105.748 59.2841 106.38C58.1924 107.041 56.239 107.932 54.975 108.363C53.711 108.793 51.8437 109.282 50.8095 109.425C49.7753 109.598 48.0516 109.741 46.9313 109.741C45.8396 109.741 43.7712 109.483 42.3349 109.196C40.9272 108.908 38.8588 108.305 37.7385 107.845C36.6468 107.386 34.837 106.409 33.7166 105.662C32.625 104.944 30.729 103.306 29.5511 102.071C28.3733 100.807 26.9657 99.0835 26.4773 98.2217C25.9602 97.3599 25.2133 95.8948 24.8398 94.9468C24.4376 93.9988 23.8918 92.39 23.6045 91.3559C23.2598 90.0057 23.1162 88.4257 23.1162 85.6104C23.1162 82.4216 23.2311 81.33 23.7482 79.4339C24.1216 78.1699 24.8398 76.2452 25.3856 75.1248C25.9027 74.0044 26.9944 72.2808 27.77 71.2466C28.5457 70.2124 30.0108 68.6324 31.0162 67.7131C32.0217 66.7651 33.7741 65.5011 34.8657 64.8404C35.9861 64.1796 37.9108 63.2891 39.1748 62.8582C40.4389 62.4273 42.1912 61.9676 43.0531 61.7953C43.9149 61.6516 45.6098 61.5367 46.7876 61.508ZM38.9163 70.471C37.9683 70.9881 36.3595 72.1946 35.3254 73.1426C34.2912 74.1194 32.9697 75.6706 32.4239 76.5899C31.8781 77.5379 31.1311 79.1179 30.7577 80.1521C30.3555 81.3012 30.0108 82.9674 29.9246 84.4613C29.8384 86.1274 29.9246 87.5925 30.2406 89.0576C30.4704 90.2355 31.1599 92.1889 31.7631 93.3668C32.5388 94.8893 33.4581 96.1534 35.0094 97.6759C36.2159 98.9112 37.9108 100.233 38.8876 100.75C39.8356 101.267 41.6454 101.928 42.9094 102.272C44.1734 102.588 46.0407 102.847 47.0749 102.847C48.1091 102.847 49.9764 102.588 51.2404 102.272C52.5044 101.928 54.3142 101.267 55.2622 100.75C56.2102 100.233 57.9626 98.8537 59.1692 97.6759C60.6917 96.1821 61.6397 94.9181 62.3579 93.5104C62.9038 92.39 63.5932 90.4653 63.8805 89.2013C64.254 87.5064 64.3401 86.2711 64.2252 84.4613C64.139 83.1111 63.823 81.3012 63.507 80.4394C63.191 79.5776 62.6739 78.2848 62.3005 77.5667C61.9557 76.8485 61.1227 75.6132 60.4619 74.8088C59.8299 74.0044 58.6521 72.8266 57.8477 72.1946C57.0721 71.5626 55.6932 70.6721 54.8313 70.2411C53.9695 69.8102 52.6768 69.2644 51.9586 69.0346C51.2404 68.8048 49.3731 68.575 47.7931 68.4888C45.4949 68.4026 44.4894 68.4888 42.7658 68.9484C41.588 69.2931 39.8356 69.9539 38.9163 70.471Z" fill="#263238"/>
</mask>
<g mask="url(#mask0_3780_35795)">
<path d="M19.966 125.971C5.02768 121.72 13.7417 84.7473 19.966 66.7927C22.4556 64.4466 28.9287 59.6682 34.904 59.3235C42.3732 58.8926 68.8025 58.8926 77.5643 66.7927C86.3262 74.6927 68.3715 98.6802 65.0679 106.437C61.7642 114.193 38.6389 131.286 19.966 125.971Z" fill="#007BFF"/>
<path d="M41.2233 34.0452L19.8213 -0.571468L36.0523 -7.03516L59.178 16.3778L57.7416 29.4488L41.2233 34.0452Z" fill="#007BFF"/>
</g>
</svg>
