<svg width="82" height="74" viewBox="0 0 82 74" fill="none" xmlns="http://www.w3.org/2000/svg">
<g filter="url(#filter0_d_671_2587)">
<path fill-rule="evenodd" clip-rule="evenodd" d="M21.25 6.73047C15.7272 6.73047 11.25 11.2076 11.25 16.7305V41.7305C11.25 47.2533 15.7272 51.7305 21.25 51.7305H34.248L41.2673 58.7493L48.252 51.7305H61.25C66.7728 51.7305 71.25 47.2533 71.25 41.7305V16.7305C71.25 11.2076 66.7728 6.73047 61.25 6.73047H21.25Z" fill="white"/>
<path d="M34.248 51.7305L34.6016 51.3769L34.4551 51.2305H34.248V51.7305ZM41.2673 58.7493L40.9137 59.1028L41.2681 59.4572L41.6217 59.1019L41.2673 58.7493ZM48.252 51.7305V51.2305H48.0441L47.8975 51.3778L48.252 51.7305ZM11.75 16.7305C11.75 11.4838 16.0033 7.23047 21.25 7.23047V6.23047C15.451 6.23047 10.75 10.9315 10.75 16.7305H11.75ZM11.75 41.7305V16.7305H10.75V41.7305H11.75ZM21.25 51.2305C16.0033 51.2305 11.75 46.9772 11.75 41.7305H10.75C10.75 47.5295 15.451 52.2305 21.25 52.2305V51.2305ZM34.248 51.2305H21.25V52.2305H34.248V51.2305ZM41.6208 58.3957L34.6016 51.3769L33.8945 52.084L40.9137 59.1028L41.6208 58.3957ZM47.8975 51.3778L40.9129 58.3966L41.6217 59.1019L48.6064 52.0832L47.8975 51.3778ZM61.25 51.2305H48.252V52.2305H61.25V51.2305ZM70.75 41.7305C70.75 46.9772 66.4967 51.2305 61.25 51.2305V52.2305C67.049 52.2305 71.75 47.5295 71.75 41.7305H70.75ZM70.75 16.7305V41.7305H71.75V16.7305H70.75ZM61.25 7.23047C66.4967 7.23047 70.75 11.4838 70.75 16.7305H71.75C71.75 10.9315 67.049 6.23047 61.25 6.23047V7.23047ZM21.25 7.23047H61.25V6.23047H21.25V7.23047Z" fill="#F9B935"/>
</g>
<g clip-path="url(#clip0_671_2587)">
<path d="M49.0625 16.2617C49.9268 16.2617 50.625 16.9614 50.625 17.8242C50.625 18.687 49.9268 19.3867 49.0625 19.3867V19.9229C49.0625 21.9941 48.2373 23.9814 46.7725 25.4463L43.4619 28.7617L46.7725 32.0771C48.2373 33.542 49.0625 35.5293 49.0625 37.5996V38.1367C49.9268 38.1367 50.625 38.835 50.625 39.6992C50.625 40.5635 49.9268 41.2617 49.0625 41.2617H33.4375C32.5747 41.2617 31.875 40.5635 31.875 39.6992C31.875 38.835 32.5747 38.1367 33.4375 38.1367V37.5996C33.4375 35.5293 34.2607 33.542 35.7256 32.0771L39.0381 28.7617L35.7256 25.4463C34.2607 23.9814 33.4375 21.9941 33.4375 19.9229V19.3867C32.5747 19.3867 31.875 18.687 31.875 17.8242C31.875 16.9614 32.5747 16.2617 33.4375 16.2617H49.0625ZM37.2998 22.5117H45.1562C45.6641 21.75 45.9375 20.8506 45.9375 19.9229V19.3867H36.5625V19.9229C36.5625 20.8506 36.8359 21.75 37.2998 22.5117ZM37.2998 35.0117H45.1562C44.9854 34.7529 44.79 34.5088 44.5654 34.2842L41.25 30.9736L37.9346 34.2842C37.71 34.5088 37.5146 34.7529 37.2998 35.0117Z" fill="#F9B935"/>
</g>
<defs>
<filter id="filter0_d_671_2587" x="0.75" y="0.230469" width="81" height="73.2266" filterUnits="userSpaceOnUse" color-interpolation-filters="sRGB">
<feFlood flood-opacity="0" result="BackgroundImageFix"/>
<feColorMatrix in="SourceAlpha" type="matrix" values="0 0 0 0 0 0 0 0 0 0 0 0 0 0 0 0 0 0 127 0" result="hardAlpha"/>
<feOffset dy="4"/>
<feGaussianBlur stdDeviation="5"/>
<feComposite in2="hardAlpha" operator="out"/>
<feColorMatrix type="matrix" values="0 0 0 0 0.976471 0 0 0 0 0.72549 0 0 0 0 0.207843 0 0 0 0.5 0"/>
<feBlend mode="normal" in2="BackgroundImageFix" result="effect1_dropShadow_671_2587"/>
<feBlend mode="normal" in="SourceGraphic" in2="effect1_dropShadow_671_2587" result="shape"/>
</filter>
<clipPath id="clip0_671_2587">
<rect width="18.75" height="25" fill="white" transform="translate(31.875 16.2617)"/>
</clipPath>
</defs>
</svg>
