<svg width="82" height="74" viewBox="0 0 82 74" fill="none" xmlns="http://www.w3.org/2000/svg">
<g filter="url(#filter0_d_685_2640)">
<path fill-rule="evenodd" clip-rule="evenodd" d="M21.25 6.98535C15.7272 6.98535 11.25 11.4625 11.25 16.9854V41.9854C11.25 47.5082 15.7272 51.9854 21.25 51.9854H34.248L41.2673 59.0041L48.252 51.9854H61.25C66.7728 51.9854 71.25 47.5082 71.25 41.9854V16.9854C71.25 11.4625 66.7728 6.98535 61.25 6.98535H21.25Z" fill="white"/>
<path d="M34.248 51.9854L34.6016 51.6318L34.4551 51.4854H34.248V51.9854ZM41.2673 59.0041L40.9137 59.3577L41.2681 59.7121L41.6217 59.3568L41.2673 59.0041ZM48.252 51.9854V51.4854H48.0441L47.8975 51.6327L48.252 51.9854ZM11.75 16.9854C11.75 11.7386 16.0033 7.48535 21.25 7.48535V6.48535C15.451 6.48535 10.75 11.1864 10.75 16.9854H11.75ZM11.75 41.9854V16.9854H10.75V41.9854H11.75ZM21.25 51.4854C16.0033 51.4854 11.75 47.2321 11.75 41.9854H10.75C10.75 47.7843 15.451 52.4854 21.25 52.4854V51.4854ZM34.248 51.4854H21.25V52.4854H34.248V51.4854ZM41.6208 58.6506L34.6016 51.6318L33.8945 52.3389L40.9137 59.3577L41.6208 58.6506ZM47.8975 51.6327L40.9129 58.6514L41.6217 59.3568L48.6064 52.338L47.8975 51.6327ZM61.25 51.4854H48.252V52.4854H61.25V51.4854ZM70.75 41.9854C70.75 47.2321 66.4967 51.4854 61.25 51.4854V52.4854C67.049 52.4854 71.75 47.7843 71.75 41.9854H70.75ZM70.75 16.9854V41.9854H71.75V16.9854H70.75ZM61.25 7.48535C66.4967 7.48535 70.75 11.7386 70.75 16.9854H71.75C71.75 11.1864 67.049 6.48535 61.25 6.48535V7.48535ZM21.25 7.48535H61.25V6.48535H21.25V7.48535Z" fill="#00DB76"/>
</g>
<g clip-path="url(#clip0_685_2640)">
<path d="M28.75 29.0166C28.75 22.1123 34.3457 16.5166 41.25 16.5166C48.1543 16.5166 53.75 22.1123 53.75 29.0166C53.75 35.9209 48.1543 41.5166 41.25 41.5166C34.3457 41.5166 28.75 35.9209 28.75 29.0166ZM46.9043 26.8584C47.4365 26.3262 47.4365 25.457 46.9043 24.9248C46.3721 24.3926 45.5029 24.3926 44.9707 24.9248L39.6875 30.208L37.5293 28.0498C36.9971 27.5176 36.1279 27.5176 35.5957 28.0498C35.0635 28.582 35.0635 29.4512 35.5957 29.9834L38.7207 33.1084C39.2529 33.6406 40.1221 33.6406 40.6543 33.1084L46.9043 26.8584Z" fill="#00DB76"/>
</g>
<defs>
<filter id="filter0_d_685_2640" x="0.75" y="0.485352" width="81" height="73.2266" filterUnits="userSpaceOnUse" color-interpolation-filters="sRGB">
<feFlood flood-opacity="0" result="BackgroundImageFix"/>
<feColorMatrix in="SourceAlpha" type="matrix" values="0 0 0 0 0 0 0 0 0 0 0 0 0 0 0 0 0 0 127 0" result="hardAlpha"/>
<feOffset dy="4"/>
<feGaussianBlur stdDeviation="5"/>
<feComposite in2="hardAlpha" operator="out"/>
<feColorMatrix type="matrix" values="0 0 0 0 0 0 0 0 0 0.858398 0 0 0 0 0.460992 0 0 0 0.5 0"/>
<feBlend mode="normal" in2="BackgroundImageFix" result="effect1_dropShadow_685_2640"/>
<feBlend mode="normal" in="SourceGraphic" in2="effect1_dropShadow_685_2640" result="shape"/>
</filter>
<clipPath id="clip0_685_2640">
<rect width="25" height="25" fill="white" transform="translate(28.75 16.5166)"/>
</clipPath>
</defs>
</svg>
