<svg width="82" height="74" viewBox="0 0 82 74" fill="none" xmlns="http://www.w3.org/2000/svg">
<g filter="url(#filter0_d_671_2623)">
<path fill-rule="evenodd" clip-rule="evenodd" d="M21.25 6.73047C15.7272 6.73047 11.25 11.2076 11.25 16.7305V41.7305C11.25 47.2533 15.7272 51.7305 21.25 51.7305H34.248L41.2673 58.7493L48.252 51.7305H61.25C66.7728 51.7305 71.25 47.2533 71.25 41.7305V16.7305C71.25 11.2076 66.7728 6.73047 61.25 6.73047H21.25Z" fill="white"/>
<path d="M34.248 51.7305L34.6016 51.3769L34.4551 51.2305H34.248V51.7305ZM41.2673 58.7493L40.9137 59.1028L41.2681 59.4572L41.6217 59.1019L41.2673 58.7493ZM48.252 51.7305V51.2305H48.0441L47.8975 51.3778L48.252 51.7305ZM11.75 16.7305C11.75 11.4838 16.0033 7.23047 21.25 7.23047V6.23047C15.451 6.23047 10.75 10.9315 10.75 16.7305H11.75ZM11.75 41.7305V16.7305H10.75V41.7305H11.75ZM21.25 51.2305C16.0033 51.2305 11.75 46.9772 11.75 41.7305H10.75C10.75 47.5295 15.451 52.2305 21.25 52.2305V51.2305ZM34.248 51.2305H21.25V52.2305H34.248V51.2305ZM41.6208 58.3957L34.6016 51.3769L33.8945 52.084L40.9137 59.1028L41.6208 58.3957ZM47.8975 51.3778L40.9129 58.3966L41.6217 59.1019L48.6064 52.0832L47.8975 51.3778ZM61.25 51.2305H48.252V52.2305H61.25V51.2305ZM70.75 41.7305C70.75 46.9772 66.4967 51.2305 61.25 51.2305V52.2305C67.049 52.2305 71.75 47.5295 71.75 41.7305H70.75ZM70.75 16.7305V41.7305H71.75V16.7305H70.75ZM61.25 7.23047C66.4967 7.23047 70.75 11.4838 70.75 16.7305H71.75C71.75 10.9315 67.049 6.23047 61.25 6.23047V7.23047ZM21.25 7.23047H61.25V6.23047H21.25V7.23047Z" fill="#F9B935"/>
</g>
<path d="M48.3076 18.7617C49.6895 17.3809 51.9258 17.3809 53.3076 18.7617C53.6543 19.1069 53.6543 19.6665 53.3076 20.0117L39.5039 33.8154C39.7383 34.4307 39.8701 35.0947 39.8701 35.793C39.8701 38.8154 37.4238 41.2617 34.4014 41.2617C31.3809 41.2617 28.9326 38.8154 28.9326 35.793C28.9326 32.7705 31.3809 30.2803 34.4014 30.2803C35.0996 30.2803 35.7637 30.4561 36.3789 30.6904L38.2637 28.7178L36.3789 26.833C35.7637 27.0674 35.0996 27.1992 34.4014 27.1992C31.3809 27.1992 28.9326 24.7529 28.9326 21.7305C28.9326 18.71 31.3809 16.2617 34.4014 16.2617C37.4238 16.2617 39.8701 18.71 39.8701 21.7305C39.8701 22.4287 39.7383 23.0928 39.5039 23.708L41.3887 25.5928L48.3076 18.7617ZM36.7451 21.6865C36.7451 20.436 35.6953 19.3428 34.4014 19.3428C33.1069 19.3428 32.0576 20.436 32.0576 21.6865C32.0576 23.0244 33.1069 24.0303 34.4014 24.0303C35.6953 24.0303 36.7451 23.0244 36.7451 21.6865ZM34.4014 38.1367C35.6953 38.1367 36.7451 37.0869 36.7451 35.793C36.7451 34.499 35.6953 33.4492 34.4014 33.4492C33.1069 33.4492 32.0576 34.499 32.0576 35.793C32.0576 37.0869 33.1069 38.1367 34.4014 38.1367ZM42.5361 32.9902L45.6611 29.8652L53.3076 37.5117C53.6543 37.8584 53.6543 38.415 53.3076 38.7617C51.9258 40.1436 49.6895 40.1436 48.3076 38.7617L42.5361 32.9902Z" fill="#F9B935"/>
<defs>
<filter id="filter0_d_671_2623" x="0.75" y="0.230469" width="81" height="73.2266" filterUnits="userSpaceOnUse" color-interpolation-filters="sRGB">
<feFlood flood-opacity="0" result="BackgroundImageFix"/>
<feColorMatrix in="SourceAlpha" type="matrix" values="0 0 0 0 0 0 0 0 0 0 0 0 0 0 0 0 0 0 127 0" result="hardAlpha"/>
<feOffset dy="4"/>
<feGaussianBlur stdDeviation="5"/>
<feComposite in2="hardAlpha" operator="out"/>
<feColorMatrix type="matrix" values="0 0 0 0 0.976471 0 0 0 0 0.72549 0 0 0 0 0.207843 0 0 0 0.5 0"/>
<feBlend mode="normal" in2="BackgroundImageFix" result="effect1_dropShadow_671_2623"/>
<feBlend mode="normal" in="SourceGraphic" in2="effect1_dropShadow_671_2623" result="shape"/>
</filter>
</defs>
</svg>
