<svg width="30" height="31" viewBox="0 0 30 31" fill="none" xmlns="http://www.w3.org/2000/svg">
<path d="M23.2529 3.92969C24.9111 2.27266 27.5947 2.27266 29.2529 3.92969C29.6689 4.34395 29.6689 5.01543 29.2529 5.42969L12.6885 21.9941C12.9697 22.7324 13.1279 23.5293 13.1279 24.3672C13.1279 27.9941 10.1924 30.9297 6.56543 30.9297C2.94082 30.9297 0.00292969 27.9941 0.00292969 24.3672C0.00292969 20.7402 2.94082 17.752 6.56543 17.752C7.40332 17.752 8.2002 17.9629 8.93848 18.2441L11.2002 15.877L8.93848 13.6152C8.2002 13.8965 7.40332 14.0547 6.56543 14.0547C2.94082 14.0547 0.00292969 11.1191 0.00292969 7.49219C0.00292969 3.86758 2.94082 0.929688 6.56543 0.929688C10.1924 0.929688 13.1279 3.86758 13.1279 7.49219C13.1279 8.33008 12.9697 9.12695 12.6885 9.86523L14.9502 12.127L23.2529 3.92969ZM9.37793 7.43945C9.37793 5.93887 8.11816 4.62695 6.56543 4.62695C5.01211 4.62695 3.75293 5.93887 3.75293 7.43945C3.75293 9.04492 5.01211 10.252 6.56543 10.252C8.11816 10.252 9.37793 9.04492 9.37793 7.43945ZM6.56543 27.1797C8.11816 27.1797 9.37793 25.9199 9.37793 24.3672C9.37793 22.8145 8.11816 21.5547 6.56543 21.5547C5.01211 21.5547 3.75293 22.8145 3.75293 24.3672C3.75293 25.9199 5.01211 27.1797 6.56543 27.1797ZM16.3271 21.0039L20.0771 17.2539L29.2529 26.4297C29.6689 26.8457 29.6689 27.5137 29.2529 27.9297C27.5947 29.5879 24.9111 29.5879 23.2529 27.9297L16.3271 21.0039Z" fill="white"/>
</svg>
