<svg width="82" height="74" viewBox="0 0 82 74" fill="none" xmlns="http://www.w3.org/2000/svg">
<g filter="url(#filter0_d_671_2626)">
<path fill-rule="evenodd" clip-rule="evenodd" d="M21.25 6.73047C15.7272 6.73047 11.25 11.2076 11.25 16.7305V41.7305C11.25 47.2533 15.7272 51.7305 21.25 51.7305H34.248L41.2673 58.7493L48.252 51.7305H61.25C66.7728 51.7305 71.25 47.2533 71.25 41.7305V16.7305C71.25 11.2076 66.7728 6.73047 61.25 6.73047H21.25Z" fill="white"/>
<path d="M34.248 51.7305L34.6016 51.3769L34.4551 51.2305H34.248V51.7305ZM41.2673 58.7493L40.9137 59.1028L41.2681 59.4572L41.6217 59.1019L41.2673 58.7493ZM48.252 51.7305V51.2305H48.0441L47.8975 51.3778L48.252 51.7305ZM11.75 16.7305C11.75 11.4838 16.0033 7.23047 21.25 7.23047V6.23047C15.451 6.23047 10.75 10.9315 10.75 16.7305H11.75ZM11.75 41.7305V16.7305H10.75V41.7305H11.75ZM21.25 51.2305C16.0033 51.2305 11.75 46.9772 11.75 41.7305H10.75C10.75 47.5295 15.451 52.2305 21.25 52.2305V51.2305ZM34.248 51.2305H21.25V52.2305H34.248V51.2305ZM41.6208 58.3957L34.6016 51.3769L33.8945 52.084L40.9137 59.1028L41.6208 58.3957ZM47.8975 51.3778L40.9129 58.3966L41.6217 59.1019L48.6064 52.0832L47.8975 51.3778ZM61.25 51.2305H48.252V52.2305H61.25V51.2305ZM70.75 41.7305C70.75 46.9772 66.4967 51.2305 61.25 51.2305V52.2305C67.049 52.2305 71.75 47.5295 71.75 41.7305H70.75ZM70.75 16.7305V41.7305H71.75V16.7305H70.75ZM61.25 7.23047C66.4967 7.23047 70.75 11.4838 70.75 16.7305H71.75C71.75 10.9315 67.049 6.23047 61.25 6.23047V7.23047ZM21.25 7.23047H61.25V6.23047H21.25V7.23047Z" fill="#F9B935"/>
</g>
<path d="M51.4644 18.9403C51.4644 17.4609 50.2647 16.2617 48.7859 16.2617H32.7144C31.2356 16.2617 30.0359 17.4609 30.0359 18.9403V35.9046H51.4644V18.9403ZM45.8227 23.784L40.912 30.034C40.687 30.3218 40.3539 30.5049 39.9895 30.5397C39.9466 30.4972 39.8963 30.4972 39.8071 30.4972C39.4879 30.4972 39.1815 30.3845 38.9376 30.1753L35.8126 27.4967C35.2981 27.0653 35.2367 26.2171 35.7167 25.659C36.1997 25.0977 37.0453 25.0346 37.6051 25.5143L39.6681 27.2827L43.7155 22.1331C44.1725 21.5522 45.0163 21.4512 45.5956 21.9065C46.1798 22.361 46.2803 23.2037 45.8227 23.784ZM54.143 30.5474H53.2501V36.7974C53.2501 37.2905 52.8504 37.6903 52.3573 37.6903H29.143C28.6497 37.6903 28.2501 37.2885 28.2501 36.7974V30.5474H27.3573C25.8779 30.5474 24.6787 31.7472 24.6787 33.226V38.5831C24.6787 40.0619 25.8779 41.2617 27.3573 41.2617H54.143C55.6224 41.2617 56.8216 40.0625 56.8216 38.5831V33.226C56.8216 31.7472 55.6218 30.5474 54.143 30.5474Z" fill="#F9B935"/>
<defs>
<filter id="filter0_d_671_2626" x="0.75" y="0.230469" width="81" height="73.2266" filterUnits="userSpaceOnUse" color-interpolation-filters="sRGB">
<feFlood flood-opacity="0" result="BackgroundImageFix"/>
<feColorMatrix in="SourceAlpha" type="matrix" values="0 0 0 0 0 0 0 0 0 0 0 0 0 0 0 0 0 0 127 0" result="hardAlpha"/>
<feOffset dy="4"/>
<feGaussianBlur stdDeviation="5"/>
<feComposite in2="hardAlpha" operator="out"/>
<feColorMatrix type="matrix" values="0 0 0 0 0.976471 0 0 0 0 0.72549 0 0 0 0 0.207843 0 0 0 0.5 0"/>
<feBlend mode="normal" in2="BackgroundImageFix" result="effect1_dropShadow_671_2626"/>
<feBlend mode="normal" in="SourceGraphic" in2="effect1_dropShadow_671_2626" result="shape"/>
</filter>
</defs>
</svg>
