<svg width="82" height="74" viewBox="0 0 82 74" fill="none" xmlns="http://www.w3.org/2000/svg">
<g filter="url(#filter0_d_671_2622)">
<path fill-rule="evenodd" clip-rule="evenodd" d="M21.25 6.73047C15.7272 6.73047 11.25 11.2076 11.25 16.7305V41.7305C11.25 47.2533 15.7272 51.7305 21.25 51.7305H34.248L41.2673 58.7493L48.252 51.7305H61.25C66.7728 51.7305 71.25 47.2533 71.25 41.7305V16.7305C71.25 11.2076 66.7728 6.73047 61.25 6.73047H21.25Z" fill="white"/>
<path d="M34.248 51.7305L34.6016 51.3769L34.4551 51.2305H34.248V51.7305ZM41.2673 58.7493L40.9137 59.1028L41.2681 59.4572L41.6217 59.1019L41.2673 58.7493ZM48.252 51.7305V51.2305H48.0441L47.8975 51.3778L48.252 51.7305ZM11.75 16.7305C11.75 11.4838 16.0033 7.23047 21.25 7.23047V6.23047C15.451 6.23047 10.75 10.9315 10.75 16.7305H11.75ZM11.75 41.7305V16.7305H10.75V41.7305H11.75ZM21.25 51.2305C16.0033 51.2305 11.75 46.9772 11.75 41.7305H10.75C10.75 47.5295 15.451 52.2305 21.25 52.2305V51.2305ZM34.248 51.2305H21.25V52.2305H34.248V51.2305ZM41.6208 58.3957L34.6016 51.3769L33.8945 52.084L40.9137 59.1028L41.6208 58.3957ZM47.8975 51.3778L40.9129 58.3966L41.6217 59.1019L48.6064 52.0832L47.8975 51.3778ZM61.25 51.2305H48.252V52.2305H61.25V51.2305ZM70.75 41.7305C70.75 46.9772 66.4967 51.2305 61.25 51.2305V52.2305C67.049 52.2305 71.75 47.5295 71.75 41.7305H70.75ZM70.75 16.7305V41.7305H71.75V16.7305H70.75ZM61.25 7.23047C66.4967 7.23047 70.75 11.4838 70.75 16.7305H71.75C71.75 10.9315 67.049 6.23047 61.25 6.23047V7.23047ZM21.25 7.23047H61.25V6.23047H21.25V7.23047Z" fill="#F9B935"/>
</g>
<path d="M45.724 16.2617C47.206 16.2617 48.4085 17.4609 48.4085 18.9403V33.226C48.4085 34.7048 47.206 35.9046 45.724 35.9046H38.269L38.8619 37.6903H43.0395C44.0294 37.6903 44.8292 38.4883 44.8292 39.476C44.8292 40.4637 44.0294 41.2617 43.0395 41.2617H28.7224C27.7342 41.2617 26.9328 40.4637 26.9328 39.476C26.9328 38.4883 27.7342 37.6903 28.7224 37.6903H32.9001L33.4929 35.9046H26.038C24.5554 35.9046 23.3535 34.7048 23.3535 33.226V18.9403C23.3535 17.4609 24.5554 16.2617 26.038 16.2617H45.724ZM26.9328 19.8331V32.3331H44.8292V19.8331H26.9328ZM56.4618 16.2617C57.9439 16.2617 59.1463 17.4609 59.1463 18.9403V38.5831C59.1463 40.0619 57.9439 41.2617 56.4618 41.2617H52.8826C51.4005 41.2617 50.1981 40.0619 50.1981 38.5831V18.9403C50.1981 17.4609 51.4005 16.2617 52.8826 16.2617H56.4618ZM53.7774 19.8331C53.2852 19.8331 52.8826 20.2349 52.8826 20.726C52.8826 21.2171 53.2852 21.6189 53.7774 21.6189H55.567C56.0592 21.6189 56.4618 21.2171 56.4618 20.726C56.4618 20.2349 56.0592 19.8331 55.567 19.8331H53.7774ZM53.7774 25.1903H55.567C56.0592 25.1903 56.4618 24.7885 56.4618 24.2974C56.4618 23.8064 56.0592 23.4046 55.567 23.4046H53.7774C53.2852 23.4046 52.8826 23.8064 52.8826 24.2974C52.8826 24.7885 53.2852 25.1903 53.7774 25.1903ZM54.6722 36.7974C55.6621 36.7974 56.4618 35.9994 56.4618 35.0117C56.4618 34.024 55.6621 33.226 54.6722 33.226C53.6823 33.226 52.8826 34.024 52.8826 35.0117C52.8826 35.9994 53.6823 36.7974 54.6722 36.7974Z" fill="#F9B935"/>
<defs>
<filter id="filter0_d_671_2622" x="0.75" y="0.230469" width="81" height="73.2266" filterUnits="userSpaceOnUse" color-interpolation-filters="sRGB">
<feFlood flood-opacity="0" result="BackgroundImageFix"/>
<feColorMatrix in="SourceAlpha" type="matrix" values="0 0 0 0 0 0 0 0 0 0 0 0 0 0 0 0 0 0 127 0" result="hardAlpha"/>
<feOffset dy="4"/>
<feGaussianBlur stdDeviation="5"/>
<feComposite in2="hardAlpha" operator="out"/>
<feColorMatrix type="matrix" values="0 0 0 0 0.976471 0 0 0 0 0.72549 0 0 0 0 0.207843 0 0 0 0.5 0"/>
<feBlend mode="normal" in2="BackgroundImageFix" result="effect1_dropShadow_671_2622"/>
<feBlend mode="normal" in="SourceGraphic" in2="effect1_dropShadow_671_2622" result="shape"/>
</filter>
</defs>
</svg>
