<svg width="44" height="31" viewBox="0 0 44 31" fill="none" xmlns="http://www.w3.org/2000/svg">
<path d="M27.504 0.929688C29.2825 0.929688 30.7254 2.36875 30.7254 4.14397V21.2868C30.7254 23.0614 29.2825 24.5011 27.504 24.5011H18.5581L19.2694 26.644H24.2827C25.4705 26.644 26.4302 27.6016 26.4302 28.7868C26.4302 29.9721 25.4705 30.9297 24.2827 30.9297H7.10212C5.91626 30.9297 4.95456 29.9721 4.95456 28.7868C4.95456 27.6016 5.91626 26.644 7.10212 26.644H12.1154L12.8267 24.5011H3.88077C2.10165 24.5011 0.659424 23.0614 0.659424 21.2868V4.14397C0.659424 2.36875 2.10165 0.929688 3.88077 0.929688H27.504ZM4.95456 5.2154V20.2154H26.4302V5.2154H4.95456ZM40.3894 0.929688C42.1679 0.929688 43.6108 2.36875 43.6108 4.14397V27.7154C43.6108 29.49 42.1679 30.9297 40.3894 30.9297H36.0943C34.3158 30.9297 32.8729 29.49 32.8729 27.7154V4.14397C32.8729 2.36875 34.3158 0.929688 36.0943 0.929688H40.3894ZM37.1681 5.2154C36.5775 5.2154 36.0943 5.69754 36.0943 6.28683C36.0943 6.87612 36.5775 7.35826 37.1681 7.35826H39.3156C39.9062 7.35826 40.3894 6.87612 40.3894 6.28683C40.3894 5.69754 39.9062 5.2154 39.3156 5.2154H37.1681ZM37.1681 11.644H39.3156C39.9062 11.644 40.3894 11.1618 40.3894 10.5725C40.3894 9.98326 39.9062 9.50112 39.3156 9.50112H37.1681C36.5775 9.50112 36.0943 9.98326 36.0943 10.5725C36.0943 11.1618 36.5775 11.644 37.1681 11.644ZM38.2418 25.5725C39.4297 25.5725 40.3894 24.615 40.3894 23.4297C40.3894 22.2444 39.4297 21.2868 38.2418 21.2868C37.054 21.2868 36.0943 22.2444 36.0943 23.4297C36.0943 24.615 37.054 25.5725 38.2418 25.5725Z" fill="white"/>
</svg>
