<svg width="23" height="31" viewBox="0 0 23 31" fill="none" xmlns="http://www.w3.org/2000/svg">
<path d="M19.345 4.67969H16.2434C15.4824 2.5 13.4561 0.929688 11.0556 0.929688C8.65507 0.929688 6.62875 2.5 5.86888 4.67969H2.76609C1.24059 4.67969 0.00292969 5.93828 0.00292969 7.49219V28.1172C0.00292969 29.6699 1.24059 30.9297 2.76609 30.9297H19.345C20.8705 30.9297 22.1082 29.6711 22.1082 28.1172V7.49219C22.1082 5.93828 20.8705 4.67969 19.345 4.67969ZM11.0556 4.67969C12.0727 4.67969 12.8977 5.51934 12.8977 6.55469C12.8977 7.59004 12.0727 8.42969 11.0556 8.42969C10.0384 8.42969 9.21346 7.5918 9.21346 6.55469C9.21346 5.51758 10.0366 4.67969 11.0556 4.67969ZM16.2883 16.3281L11.2225 22.8906C10.9895 23.1927 10.6457 23.385 10.2709 23.4216C10.2266 23.377 10.1806 23.4297 10.1345 23.4297C9.80621 23.4297 9.48689 23.3107 9.23533 23.091L6.01165 20.2785C5.43253 19.7731 5.36576 18.8851 5.86232 18.2956C6.35791 17.7062 7.23066 17.6382 7.81035 18.1437L9.93913 20.0005L14.1138 14.5935C14.5852 13.9817 15.4551 13.8774 16.0538 14.3554C16.6567 14.834 16.7603 15.7187 16.2883 16.3281Z" fill="white"/>
</svg>
