<svg width="82" height="74" viewBox="0 0 82 74" fill="none" xmlns="http://www.w3.org/2000/svg">
<g filter="url(#filter0_d_671_2625)">
<path fill-rule="evenodd" clip-rule="evenodd" d="M21.25 6.73047C15.7272 6.73047 11.25 11.2076 11.25 16.7305V41.7305C11.25 47.2533 15.7272 51.7305 21.25 51.7305H34.248L41.2673 58.7493L48.252 51.7305H61.25C66.7728 51.7305 71.25 47.2533 71.25 41.7305V16.7305C71.25 11.2076 66.7728 6.73047 61.25 6.73047H21.25Z" fill="white"/>
<path d="M34.248 51.7305L34.6016 51.3769L34.4551 51.2305H34.248V51.7305ZM41.2673 58.7493L40.9137 59.1028L41.2681 59.4572L41.6217 59.1019L41.2673 58.7493ZM48.252 51.7305V51.2305H48.0441L47.8975 51.3778L48.252 51.7305ZM11.75 16.7305C11.75 11.4838 16.0033 7.23047 21.25 7.23047V6.23047C15.451 6.23047 10.75 10.9315 10.75 16.7305H11.75ZM11.75 41.7305V16.7305H10.75V41.7305H11.75ZM21.25 51.2305C16.0033 51.2305 11.75 46.9772 11.75 41.7305H10.75C10.75 47.5295 15.451 52.2305 21.25 52.2305V51.2305ZM34.248 51.2305H21.25V52.2305H34.248V51.2305ZM41.6208 58.3957L34.6016 51.3769L33.8945 52.084L40.9137 59.1028L41.6208 58.3957ZM47.8975 51.3778L40.9129 58.3966L41.6217 59.1019L48.6064 52.0832L47.8975 51.3778ZM61.25 51.2305H48.252V52.2305H61.25V51.2305ZM70.75 41.7305C70.75 46.9772 66.4967 51.2305 61.25 51.2305V52.2305C67.049 52.2305 71.75 47.5295 71.75 41.7305H70.75ZM70.75 16.7305V41.7305H71.75V16.7305H70.75ZM61.25 7.23047C66.4967 7.23047 70.75 11.4838 70.75 16.7305H71.75C71.75 10.9315 67.049 6.23047 61.25 6.23047V7.23047ZM21.25 7.23047H61.25V6.23047H21.25V7.23047Z" fill="#F9B935"/>
</g>
<g clip-path="url(#clip0_671_2625)">
<path d="M47.6575 19.3867H45.0728C44.4386 17.5703 42.75 16.2617 40.7496 16.2617C38.7492 16.2617 37.0606 17.5703 36.4274 19.3867H33.8417C32.5704 19.3867 31.5391 20.4355 31.5391 21.7305V38.918C31.5391 40.2119 32.5704 41.2617 33.8417 41.2617H47.6575C48.9287 41.2617 49.9601 40.2129 49.9601 38.918V21.7305C49.9601 20.4355 48.9287 19.3867 47.6575 19.3867ZM40.7496 19.3867C41.5972 19.3867 42.2847 20.0864 42.2847 20.9492C42.2847 21.812 41.5972 22.5117 40.7496 22.5117C39.9019 22.5117 39.2145 21.8135 39.2145 20.9492C39.2145 20.085 39.9005 19.3867 40.7496 19.3867ZM45.1102 29.0937L40.8887 34.5625C40.6946 34.8143 40.408 34.9745 40.0957 35.005C40.0588 34.9678 40.0204 35.0117 39.982 35.0117C39.7085 35.0117 39.4424 34.9125 39.2327 34.7294L36.5463 32.3857C36.0637 31.9646 36.0081 31.2246 36.4219 30.7333C36.8349 30.2421 37.5622 30.1855 38.0452 30.6067L39.8192 32.1541L43.2981 27.6482C43.6909 27.1384 44.4159 27.0515 44.9148 27.4499C45.4172 27.8486 45.5036 28.5859 45.1102 29.0937Z" fill="#F9B935"/>
</g>
<defs>
<filter id="filter0_d_671_2625" x="0.75" y="0.230469" width="81" height="73.2266" filterUnits="userSpaceOnUse" color-interpolation-filters="sRGB">
<feFlood flood-opacity="0" result="BackgroundImageFix"/>
<feColorMatrix in="SourceAlpha" type="matrix" values="0 0 0 0 0 0 0 0 0 0 0 0 0 0 0 0 0 0 127 0" result="hardAlpha"/>
<feOffset dy="4"/>
<feGaussianBlur stdDeviation="5"/>
<feComposite in2="hardAlpha" operator="out"/>
<feColorMatrix type="matrix" values="0 0 0 0 0.976471 0 0 0 0 0.72549 0 0 0 0 0.207843 0 0 0 0.5 0"/>
<feBlend mode="normal" in2="BackgroundImageFix" result="effect1_dropShadow_671_2625"/>
<feBlend mode="normal" in="SourceGraphic" in2="effect1_dropShadow_671_2625" result="shape"/>
</filter>
<clipPath id="clip0_671_2625">
<rect width="18.4211" height="25" fill="white" transform="translate(31.5391 16.2617)"/>
</clipPath>
</defs>
</svg>
