<svg width="82" height="74" viewBox="0 0 82 74" fill="none" xmlns="http://www.w3.org/2000/svg">
<g filter="url(#filter0_d_671_2624)">
<path fill-rule="evenodd" clip-rule="evenodd" d="M21.25 6.73047C15.7272 6.73047 11.25 11.2076 11.25 16.7305V41.7305C11.25 47.2533 15.7272 51.7305 21.25 51.7305H34.248L41.2673 58.7493L48.252 51.7305H61.25C66.7728 51.7305 71.25 47.2533 71.25 41.7305V16.7305C71.25 11.2076 66.7728 6.73047 61.25 6.73047H21.25Z" fill="white"/>
<path d="M34.248 51.7305L34.6016 51.3769L34.4551 51.2305H34.248V51.7305ZM41.2673 58.7493L40.9137 59.1028L41.2681 59.4572L41.6217 59.1019L41.2673 58.7493ZM48.252 51.7305V51.2305H48.0441L47.8975 51.3778L48.252 51.7305ZM11.75 16.7305C11.75 11.4838 16.0033 7.23047 21.25 7.23047V6.23047C15.451 6.23047 10.75 10.9315 10.75 16.7305H11.75ZM11.75 41.7305V16.7305H10.75V41.7305H11.75ZM21.25 51.2305C16.0033 51.2305 11.75 46.9772 11.75 41.7305H10.75C10.75 47.5295 15.451 52.2305 21.25 52.2305V51.2305ZM34.248 51.2305H21.25V52.2305H34.248V51.2305ZM41.6208 58.3957L34.6016 51.3769L33.8945 52.084L40.9137 59.1028L41.6208 58.3957ZM47.8975 51.3778L40.9129 58.3966L41.6217 59.1019L48.6064 52.0832L47.8975 51.3778ZM61.25 51.2305H48.252V52.2305H61.25V51.2305ZM70.75 41.7305C70.75 46.9772 66.4967 51.2305 61.25 51.2305V52.2305C67.049 52.2305 71.75 47.5295 71.75 41.7305H70.75ZM70.75 16.7305V41.7305H71.75V16.7305H70.75ZM61.25 7.23047C66.4967 7.23047 70.75 11.4838 70.75 16.7305H71.75C71.75 10.9315 67.049 6.23047 61.25 6.23047V7.23047ZM21.25 7.23047H61.25V6.23047H21.25V7.23047Z" fill="#F9B935"/>
</g>
<path d="M57.2095 23.6609C57.2095 24.0096 57.0952 24.3605 56.8598 24.6539L54.3682 27.7602C54.053 28.1532 53.5892 28.3575 53.1209 28.3575C52.7713 28.3575 52.4192 28.2435 52.1249 28.0087L49.2299 25.7022V38.8424C49.2299 40.1786 48.1581 41.2617 46.836 41.2617H35.6645C34.3429 41.2617 33.2707 40.178 33.2707 38.8424V25.7022L30.3332 28.0107C30.0813 28.2426 29.7292 28.3131 29.3796 28.3131C28.9114 28.3131 28.4475 28.1086 28.1323 27.7159L25.6407 24.6539C25.4053 24.3615 25.291 24.0087 25.291 23.6609C25.291 23.1941 25.496 22.7315 25.89 22.417L32.6228 17.044C33.2607 16.5384 34.0537 16.2617 34.8217 16.2617H36.5423C36.9263 18.548 38.8813 20.294 41.2503 20.294C43.6192 20.294 45.5757 18.548 45.9578 16.2617H47.6335C48.4489 16.2617 49.2404 16.5384 49.8773 17.0465L56.6101 22.4195C57.0051 22.7335 57.2095 23.1972 57.2095 23.6609Z" fill="#F9B935"/>
<defs>
<filter id="filter0_d_671_2624" x="0.75" y="0.230469" width="81" height="73.2266" filterUnits="userSpaceOnUse" color-interpolation-filters="sRGB">
<feFlood flood-opacity="0" result="BackgroundImageFix"/>
<feColorMatrix in="SourceAlpha" type="matrix" values="0 0 0 0 0 0 0 0 0 0 0 0 0 0 0 0 0 0 127 0" result="hardAlpha"/>
<feOffset dy="4"/>
<feGaussianBlur stdDeviation="5"/>
<feComposite in2="hardAlpha" operator="out"/>
<feColorMatrix type="matrix" values="0 0 0 0 0.976471 0 0 0 0 0.72549 0 0 0 0 0.207843 0 0 0 0.5 0"/>
<feBlend mode="normal" in2="BackgroundImageFix" result="effect1_dropShadow_671_2624"/>
<feBlend mode="normal" in="SourceGraphic" in2="effect1_dropShadow_671_2624" result="shape"/>
</filter>
</defs>
</svg>
