<svg width="40" height="31" viewBox="0 0 40 31" fill="none" xmlns="http://www.w3.org/2000/svg">
<path d="M39.2861 9.80872C39.2861 10.2271 39.1489 10.6482 38.8665 11.0003L35.8765 14.7279C35.4983 15.1994 34.9417 15.4446 34.3797 15.4446C33.9602 15.4446 33.5377 15.3078 33.1846 15.0261L29.7106 12.2583V28.0265C29.7106 29.6299 28.4244 30.9297 26.8379 30.9297H13.4321C11.8462 30.9297 10.5595 29.6293 10.5595 28.0265V12.2583L7.03446 15.0285C6.73223 15.3067 6.30971 15.3914 5.89018 15.3914C5.32833 15.3914 4.77163 15.146 4.3934 14.6746L1.40355 11.0003C1.12107 10.6494 0.983887 10.2261 0.983887 9.80872C0.983887 9.24852 1.22992 8.6934 1.70265 8.31598L9.78203 1.8684C10.5475 1.26174 11.4991 0.929688 12.4207 0.929688H14.4854C14.9463 3.67324 17.2923 5.7684 20.135 5.7684C22.9778 5.7684 25.3256 3.67324 25.784 0.929688H27.7949C28.7734 0.929688 29.7231 1.26174 30.4874 1.87142L38.5668 8.319C39.0407 8.69582 39.2861 9.25227 39.2861 9.80872Z" fill="white"/>
</svg>
