<svg width="82" height="71" viewBox="0 0 82 71" fill="none" xmlns="http://www.w3.org/2000/svg">
<path d="M79.8455 66.999H73.4297V67.0475H79.8455V66.999Z" fill="#EBEBEB"/>
<path d="M56.8557 67.5254H55.1724V67.5738H56.8557V67.5254Z" fill="#EBEBEB"/>
<path d="M73.2359 65.2012H69.5186V65.2496H73.2359V65.2012Z" fill="#EBEBEB"/>
<path d="M11.2224 65.5264H2.85596V65.5748H11.2224V65.5264Z" fill="#EBEBEB"/>
<path d="M14.1749 65.5264H12.9487V65.5748H14.1749V65.5264Z" fill="#EBEBEB"/>
<path d="M36.3087 66.3438H18.1616V66.3922H36.3087V66.3438Z" fill="#EBEBEB"/>
<path d="M38.604 55.2421H1.19987C0.906848 55.2416 0.626004 55.1248 0.418988 54.9174C0.211972 54.71 0.0957027 54.429 0.0957031 54.136V1.55638C0.0982539 1.26504 0.215649 0.98647 0.42239 0.78118C0.62913 0.57589 0.908518 0.46046 1.19987 0.459961H38.604C38.8973 0.459961 39.1787 0.576496 39.3861 0.783931C39.5935 0.991366 39.7101 1.27271 39.7101 1.56606V54.136C39.7101 54.4293 39.5935 54.7107 39.3861 54.9181C39.1787 55.1255 38.8973 55.2421 38.604 55.2421ZM1.19987 0.498704C0.919692 0.499217 0.651166 0.610876 0.453232 0.809173C0.255299 1.00747 0.144131 1.2762 0.144131 1.55638V54.136C0.144131 54.4162 0.255299 54.6849 0.453232 54.8832C0.651166 55.0815 0.919692 55.1931 1.19987 55.1936H38.604C38.8843 55.1931 39.153 55.0815 39.3513 54.8833C39.5495 54.6851 39.6611 54.4163 39.6616 54.136V1.55638C39.6611 1.27602 39.5495 1.0073 39.3513 0.809055C39.153 0.610813 38.8843 0.499216 38.604 0.498704H1.19987Z" fill="#EBEBEB"/>
<path d="M80.5058 55.2421H43.0998C42.8066 55.2416 42.5255 55.1249 42.3182 54.9175C42.1109 54.7102 41.9942 54.4292 41.9937 54.136V1.55638C41.9967 1.26486 42.1145 0.986295 42.3216 0.781059C42.5286 0.575823 42.8082 0.460455 43.0998 0.459961H80.5058C80.7968 0.460969 81.0757 0.576625 81.282 0.78186C81.4883 0.987095 81.6055 1.26537 81.608 1.55638V54.136C81.608 54.4287 81.492 54.7094 81.2854 54.9167C81.0788 55.1241 80.7985 55.2411 80.5058 55.2421ZM43.0998 0.498704C42.8194 0.499216 42.5507 0.610813 42.3524 0.809055C42.1542 1.0073 42.0426 1.27602 42.0421 1.55638V54.136C42.0426 54.4163 42.1542 54.6851 42.3524 54.8833C42.5507 55.0815 42.8194 55.1931 43.0998 55.1936H80.5058C80.7861 55.1931 81.0549 55.0815 81.2531 54.8833C81.4514 54.6851 81.563 54.4163 81.5635 54.136V1.55638C81.563 1.27602 81.4514 1.0073 81.2531 0.809055C81.0549 0.610813 80.7861 0.499216 80.5058 0.498704H43.0998Z" fill="#EBEBEB"/>
<path d="M72.8545 33.6859V9.77002L56.8654 9.77002V33.6859H72.8545Z" fill="#E6E6E6"/>
<path d="M72.3682 33.6834V9.76758L56.3791 9.76758V33.6834H72.3682Z" fill="#F5F5F5"/>
<path d="M70.3131 11.8232H58.4346V31.6304H70.3131V11.8232Z" fill="white"/>
<path d="M58.7056 31.6304V11.8232H58.4363V31.6304H58.7056Z" fill="#E6E6E6"/>
<path d="M34.3094 63.8818H41.0894V42.0135H34.3094V63.8818Z" fill="#E6E6E6"/>
<path d="M35.5958 63.8816H34.3076V60.7783H36.946L35.5958 63.8816Z" fill="#F0F0F0"/>
<path d="M70.5394 63.8779H77.3193V42.0096H70.5394V63.8779Z" fill="#E6E6E6"/>
<path d="M34.3094 63.4263H71.6631V42.0132H34.3094V63.4263Z" fill="#F0F0F0"/>
<path d="M35.3071 43.319V48.2412H57.9987V43.319H35.3071Z" fill="#E6E6E6"/>
<path d="M58.8643 43.317V48.2393H70.6653V43.317H58.8643Z" fill="#E6E6E6"/>
<path d="M63.5931 43.9119H65.9274C66.8649 43.9321 67.7906 43.7006 68.6084 43.2417H60.9141C61.7312 43.7003 62.6563 43.9317 63.5931 43.9119Z" fill="#F0F0F0"/>
<path d="M39.9189 43.9119H53.1437C54.0812 43.9321 55.0069 43.7006 55.8247 43.2417H37.2476C38.0625 43.6988 38.9847 43.9302 39.9189 43.9119Z" fill="#F0F0F0"/>
<path d="M35.3091 49.6495V54.5718H58.0007V49.6495H35.3091Z" fill="#E6E6E6"/>
<path d="M58.8643 49.6495V54.5718H70.6653V49.6495H58.8643Z" fill="#E6E6E6"/>
<path d="M63.5931 50.2445H65.9274C66.8646 50.2644 67.7901 50.0336 68.6084 49.5762H60.9141C61.7317 50.0333 62.6565 50.264 63.5931 50.2445Z" fill="#F0F0F0"/>
<path d="M39.9189 50.244H53.1437C54.0812 50.2641 55.0069 50.0327 55.8247 49.5737H37.2476C38.0625 50.0308 38.9847 50.2622 39.9189 50.244Z" fill="#F0F0F0"/>
<path d="M35.3071 55.982V60.9043H57.9987V55.982H35.3071Z" fill="#E6E6E6"/>
<path d="M58.8643 55.982V60.9043H70.6653V55.982H58.8643Z" fill="#E6E6E6"/>
<path d="M63.5931 56.575H65.9274C66.8649 56.5952 67.7906 56.3637 68.6084 55.9048H60.9141C61.7313 56.3632 62.6563 56.5946 63.5931 56.575Z" fill="#F0F0F0"/>
<path d="M39.9208 56.575H53.1437C54.0818 56.5949 55.0081 56.3635 55.8266 55.9048H37.2476C38.063 56.3624 38.9859 56.5938 39.9208 56.575Z" fill="#F0F0F0"/>
<path d="M70.3751 63.8816H71.6613V60.7783H69.0249L70.3751 63.8816Z" fill="#F0F0F0"/>
<path d="M73.9044 38.1216C73.9044 38.1216 73.7107 40.3435 66.1559 40.3435C58.601 40.3435 58.4189 38.1216 58.4189 38.1216H73.9044Z" fill="#FAFAFA"/>
<path d="M73.9045 39.7842C73.9045 39.7842 73.7108 42.0061 66.1559 42.0061C58.6011 42.0061 58.4287 39.7842 58.4287 39.7842H73.9045Z" fill="#EBEBEB"/>
<path d="M21.0903 63.8818H28.8427L26.5453 43.9429H21.0903V63.8818Z" fill="#E6E6E6"/>
<path d="M8.00684 63.8821H25.2473L27.0663 40.5454H9.8258L8.00684 63.8821Z" fill="#E0E0E0"/>
<path d="M6.76514 63.8821H24.7069L26.5258 40.5454H8.58604L6.76514 63.8821Z" fill="#F5F5F5"/>
<path d="M23.0121 62.0418L24.5444 42.3838H10.2813L8.74902 62.0418H23.0121Z" fill="white"/>
<path d="M48.6808 4.46777H4.74854V36.4866H48.6808V4.46777Z" fill="#EBEBEB"/>
<path d="M47.1778 6.16113H6.25195V34.792H47.1778V6.16113Z" fill="#FAFAFA"/>
<path d="M15.0583 34.7939H10.7637L14.8084 6.16113H19.103L15.0583 34.7939Z" fill="white"/>
<path d="M25.6716 34.7939H21.375L25.4197 6.16113H29.7163L25.6716 34.7939Z" fill="white"/>
<path d="M39.3534 34.7939H37.2051L41.2498 6.16113H43.3981L39.3534 34.7939Z" fill="white"/>
<path d="M29.4491 34.7939H27.3008L31.3455 6.16113H33.4938L29.4491 34.7939Z" fill="white"/>
<path d="M19.9706 6.16113H17.9463V34.792H19.9706V6.16113Z" fill="#EBEBEB"/>
<path d="M19.9705 34.7935H20.4219L20.4219 6.16263H19.9705L19.9705 34.7935Z" fill="#E0E0E0"/>
<path d="M48.6809 36.4868H49.0044L49.0044 4.46795H48.6809L48.6809 36.4868Z" fill="#E0E0E0"/>
<path d="M50.146 64.833L52.6023 63.415L54.1016 66.4157L52.0502 67.6051L50.146 64.833Z" fill="#FFC3BD"/>
<path opacity="0.2" d="M50.1475 64.833L52.6037 63.415L53.4425 65.0965L51.2129 66.3866L50.1475 64.833Z" fill="black"/>
<path d="M51.0291 55.1547C52.7725 51.1254 55.6337 46.4376 54.4598 42.1216L46.6415 40.8857C46.6415 40.8857 45.0259 50.5443 45.3456 54.5057C45.6788 58.6241 50.541 65.9348 50.541 65.9348L53.3401 64.2921C53.3401 64.2921 52.1236 58.0429 51.0291 55.1547Z" fill="#007BFF"/>
<g opacity="0.4">
<path d="M51.0291 55.1547C52.7725 51.1254 55.6337 46.4376 54.4598 42.1216L46.6415 40.8857C46.6415 40.8857 45.0259 50.5443 45.3456 54.5057C45.6788 58.6241 50.541 65.9348 50.541 65.9348L53.3401 64.2921C53.3401 64.2921 52.1236 58.0429 51.0291 55.1547Z" fill="black"/>
</g>
<path d="M53.6229 64.2592L50.4247 66.1479L49.4058 64.8248L53.1754 62.8276L53.6229 64.2592Z" fill="#007BFF"/>
<path opacity="0.2" d="M51.6002 53.8818C52.5416 51.842 53.6264 49.6685 54.2405 47.4893C52.3944 47.7992 50.8292 49.2985 51.6002 53.8818Z" fill="black"/>
<path d="M54.0198 65.7046C54.0085 65.6891 53.9934 65.6767 53.9761 65.6685C53.9587 65.6602 53.9396 65.6564 53.9204 65.6574C53.9012 65.6583 53.8825 65.664 53.8661 65.674C53.8496 65.6839 53.8359 65.6978 53.8261 65.7143C53.4232 66.4059 52.2629 67.0703 51.8135 67.3066C51.709 67.3635 51.6306 67.4586 51.5946 67.572C51.3757 68.2462 50.5098 69.2535 50.5098 69.2535C50.5451 69.4087 50.5977 69.5594 50.6667 69.7029C50.6882 69.7474 50.7194 69.7865 50.7581 69.8172C50.7968 69.848 50.8419 69.8697 50.89 69.8807C50.9382 69.8917 50.9883 69.8917 51.0365 69.8807C51.0846 69.8697 51.1297 69.848 51.1684 69.8172L54.7347 66.9115C54.7652 66.8871 54.7901 66.8564 54.8079 66.8216C54.8257 66.7868 54.8358 66.7486 54.8376 66.7095C54.8395 66.6705 54.8329 66.6315 54.8185 66.5952C54.8041 66.5589 54.7821 66.526 54.754 66.4989C54.4916 66.251 54.2463 65.9857 54.0198 65.7046Z" fill="#263238"/>
<path d="M54.7578 66.2007L57.5918 66.2278L57.3342 69.5752L54.9651 69.5558L54.7578 66.2007Z" fill="#FFC3BD"/>
<path d="M57.5881 69.0599C57.5904 69.042 57.5879 69.0238 57.581 69.0071C57.5741 68.9904 57.5629 68.9758 57.5487 68.9646C57.5345 68.9535 57.5176 68.9463 57.4997 68.9436C57.4818 68.941 57.4636 68.943 57.4467 68.9495C56.6719 69.2323 55.3721 69.0173 54.882 68.9185C54.7632 68.8966 54.6406 68.9209 54.5391 68.9863C53.9115 69.3737 52.7957 69.6062 52.7957 69.6062C52.7177 69.7411 52.6528 69.8831 52.602 70.0304C52.5857 70.0795 52.5814 70.1318 52.5893 70.1829C52.5971 70.234 52.617 70.2825 52.6472 70.3245C52.6775 70.3664 52.7172 70.4006 52.7632 70.4243C52.8092 70.4479 52.8602 70.4603 52.9119 70.4604H57.2821C57.3193 70.4605 57.3561 70.453 57.3904 70.4385C57.4246 70.4239 57.4556 70.4027 57.4815 70.3759C57.5073 70.3491 57.5275 70.3175 57.5408 70.2827C57.5542 70.248 57.5604 70.2109 57.5591 70.1737C57.5424 69.8022 57.5521 69.43 57.5881 69.0599Z" fill="#263238"/>
<path opacity="0.2" d="M54.7578 66.2021L57.5938 66.2273L57.4485 68.1025L54.874 68.0792L54.7578 66.2021Z" fill="black"/>
<path d="M59.3877 54.9246C60.271 50.7152 61.8614 45.2389 60.7437 43.0693L51.583 41.6514C51.583 41.6514 52.7201 50.3685 53.0204 54.419C53.3322 58.6361 54.5701 67.3513 54.5701 67.3513H57.6365C57.6365 67.3513 59.7771 59.9456 59.3877 54.9246Z" fill="#007BFF"/>
<path opacity="0.4" d="M59.3877 54.9246C60.271 50.7152 61.8614 45.2389 60.7437 43.0693L51.583 41.6514C51.583 41.6514 52.7201 50.3685 53.0204 54.419C53.3322 58.6361 54.5701 67.3513 54.5701 67.3513H57.6365C57.6365 67.3513 59.7771 59.9456 59.3877 54.9246Z" fill="black"/>
<path d="M57.9754 67.4746H54.2852L54.2271 65.9365L58.2931 66.0024L57.9754 67.4746Z" fill="#007BFF"/>
<path d="M54.0043 28.3548L53.7719 28.5485L53.5549 28.719C53.4096 28.8294 53.2644 28.934 53.1171 29.0405C52.8266 29.2517 52.5263 29.4473 52.2261 29.6449C51.6156 30.0364 50.9852 30.396 50.3374 30.722C49.6685 31.0635 48.9758 31.3561 48.2646 31.5975C47.4977 31.868 46.7009 32.0449 45.8916 32.1244L45.7347 32.1399C45.3336 32.1791 44.9326 32.0641 44.6131 31.8184C44.0554 31.3818 43.6115 30.8169 43.3191 30.1718C43.1921 29.9062 43.0884 29.6301 43.0092 29.3466C42.9292 29.0852 42.8645 28.8194 42.8155 28.5504C42.7754 28.2921 42.7444 28.0339 42.7225 27.7756C42.705 27.5218 42.7012 27.27 42.7012 27.0201C42.7012 26.7702 42.7205 26.5242 42.7419 26.2801L42.7864 25.9101L42.8503 25.5227C42.8859 25.3078 42.9901 25.1101 43.1475 24.9595C43.3048 24.8088 43.5068 24.7132 43.7231 24.687C43.9393 24.6608 44.1583 24.7054 44.347 24.8142C44.5358 24.923 44.6842 25.09 44.77 25.2902L44.8514 25.484C44.8804 25.5556 44.9153 25.666 44.9502 25.759L45.0509 26.0477C45.1168 26.2414 45.1904 26.4351 45.2621 26.6288C45.3961 26.9886 45.5506 27.3405 45.725 27.6826C45.8661 27.974 46.041 28.2477 46.2461 28.4981C46.3544 28.6487 46.5046 28.7639 46.6781 28.8294L45.3996 28.5214C45.9092 28.3971 46.406 28.2253 46.8834 28.008C47.1411 27.8957 47.4007 27.7659 47.6583 27.6303C47.9159 27.4947 48.1813 27.3552 48.4331 27.2041C48.9523 26.9019 49.4753 26.5804 49.9829 26.2356C50.2405 26.067 50.4943 25.8907 50.748 25.7183L51.1238 25.453L51.4706 25.2069L51.55 25.1508C51.9749 24.8253 52.5116 24.6819 53.0422 24.7522C53.5728 24.8225 54.0537 25.1007 54.3792 25.5256C54.7046 25.9505 54.848 26.4872 54.7777 27.0178C54.7074 27.5484 54.4292 28.0293 54.0043 28.3548Z" fill="#FFC3BD"/>
<path d="M44.7741 25.4374L43.7726 26.0902C42.5464 26.3595 42.4728 24.7226 42.4728 24.7226L42.1202 23.9477C42.0663 23.8072 42.0641 23.652 42.1142 23.51C42.1642 23.368 42.2632 23.2485 42.3934 23.1729L43.0888 22.7118C43.2261 22.608 43.3984 22.5619 43.5692 22.5832C43.74 22.6046 43.8957 22.6917 44.0031 22.8261L44.4177 23.4421C44.5377 23.621 44.6121 23.8265 44.6346 24.0407L44.7741 25.4374Z" fill="#FFC3BD"/>
<path d="M53.9384 24.2866C52.0206 24.1723 48.0785 26.646 48.0785 26.646C47.6253 28.0911 48.4156 30.8302 49.5721 31.5082C49.5721 31.5082 52.5068 30.2471 53.8861 29.0209C55.5559 27.5429 57.8184 24.519 53.9384 24.2866Z" fill="#263238"/>
<path d="M54.117 24.2866C56.7492 24.4434 59.3562 24.8897 61.8907 25.6174C63.3532 26.0591 64.2637 27.1536 63.6089 30.1871C62.2801 36.3414 62.3885 41.3683 61.2514 43.4797C61.2514 43.4797 47.9472 44.3011 46.167 41.2327C46.5273 33.6333 50.1691 27.8432 51.7847 25.4489C52.0407 25.071 52.3898 24.7654 52.7984 24.5618C53.2069 24.3582 53.6611 24.2634 54.117 24.2866Z" fill="#263238"/>
<path d="M54.8762 25.1332C55.219 24.8872 55.5038 25.1042 55.7169 24.6877C55.8371 24.3527 55.8371 23.9863 55.7169 23.6513L59.5602 22.2856C59.289 23.5796 59.0759 24.6102 59.5737 25.2107C59.5912 26.2083 57.284 27.1207 55.3353 26.7507C53.6054 26.4175 54.3764 25.4877 54.8762 25.1332Z" fill="#FFC3BD"/>
<path opacity="0.2" d="M55.7378 23.7693L58.6435 23.502C57.764 24.5054 56.3945 24.918 55.7513 24.5422C55.8122 24.2875 55.8075 24.0216 55.7378 23.7693Z" fill="black"/>
<path d="M55.4574 20.1279C55.3044 18.6382 56.7553 16.7534 57.9757 17.4043C59.1961 18.0552 55.4574 20.1279 55.4574 20.1279Z" fill="#263238"/>
<path d="M60.5733 20.9779C59.7984 22.6729 59.2444 23.81 57.9562 24.1587C55.3992 24.8541 54.5565 23.4497 54.8026 21.5513C55.0253 19.8447 56.2457 17.3555 58.208 17.3284C58.6425 17.3224 59.0713 17.4267 59.4544 17.6316C59.8376 17.8365 60.1625 18.1352 60.3988 18.4998C60.6351 18.8644 60.775 19.283 60.8055 19.7164C60.8361 20.1498 60.7561 20.5838 60.5733 20.9779Z" fill="#FFC3BD"/>
<path d="M60.1297 22.3356C59.2522 22.2097 58.609 20.6251 59.5272 19.796C60.4454 18.9669 60.1297 18.1727 59.4633 17.9364C58.7969 17.7 57.5862 17.8705 57.3092 17.2777C57.0322 16.685 58.8783 16.2549 59.9495 16.9368C61.0208 17.6187 60.9665 17.2061 60.9665 17.2061C60.9976 17.2434 61.0174 17.2888 61.0238 17.3369C61.0302 17.3851 61.0228 17.434 61.0026 17.4782C60.9823 17.5223 60.95 17.5598 60.9094 17.5864C60.8687 17.613 60.8214 17.6275 60.7728 17.6283C61.6155 18.1882 62.5492 19.5364 61.6794 20.0885C62.7681 20.7065 61.075 22.1709 60.1297 22.3356Z" fill="#263238"/>
<path d="M61.4023 19.996C61.5486 20.0592 61.7124 20.0686 61.8649 20.0225C62.0174 19.9764 62.1486 19.8778 62.2353 19.7441C62.2353 19.7441 62.4193 20.4648 61.4023 19.996Z" fill="#263238"/>
<path d="M57.1019 21.7936C57.185 21.7582 57.2647 21.7154 57.3401 21.6658C57.3444 21.6616 57.3478 21.6566 57.3501 21.6512C57.3525 21.6457 57.3537 21.6398 57.3537 21.6338C57.3537 21.6278 57.3525 21.6219 57.3501 21.6164C57.3478 21.611 57.3444 21.606 57.3401 21.6018C57.3321 21.5916 57.3206 21.5845 57.3078 21.5821C57.295 21.5796 57.2817 21.5818 57.2704 21.5883C57.1014 21.7011 56.9092 21.7744 56.708 21.8029C56.5068 21.8314 56.3018 21.8143 56.1081 21.7529C56.0971 21.7486 56.0848 21.7488 56.0739 21.7535C56.063 21.7582 56.0544 21.7671 56.05 21.7781C56.0456 21.7892 56.0458 21.8015 56.0506 21.8124C56.0553 21.8233 56.0641 21.8319 56.0752 21.8362C56.4107 21.9513 56.7771 21.9361 57.1019 21.7936Z" fill="#263238"/>
<path opacity="0.2" d="M58.1343 20.4568C58.3521 20.4113 58.5791 20.4537 58.7658 20.575C58.5496 20.5768 58.3352 20.5367 58.1343 20.4568Z" fill="black"/>
<path opacity="0.2" d="M58.1167 20.606C58.2171 20.6061 58.3163 20.6282 58.4073 20.6707C58.4984 20.7132 58.579 20.7751 58.6436 20.852C58.4524 20.8085 58.2728 20.7246 58.1167 20.606Z" fill="black"/>
<path d="M60.4645 22.8145C60.2924 22.9692 60.0912 23.0881 59.8727 23.1643C59.6542 23.2405 59.4227 23.2724 59.1918 23.2581C58.5719 23.2155 58.6533 22.7274 58.9981 22.2508C59.3041 21.8189 59.8059 21.2048 60.3541 21.476C60.9023 21.7472 60.881 22.4291 60.4645 22.8145Z" fill="#FFC3BD"/>
<path d="M57.7818 20.4121C57.7276 20.5535 57.6075 20.6388 57.5164 20.6058C57.4254 20.5729 57.3924 20.4257 57.4467 20.2843C57.5009 20.1429 57.6191 20.0576 57.7121 20.0906C57.805 20.1235 57.8283 20.261 57.7818 20.4121Z" fill="#263238"/>
<path d="M56.1373 19.7651C56.085 19.9066 55.9649 19.9918 55.8738 19.9589C55.7828 19.9259 55.7499 19.7787 55.8041 19.6373C55.8583 19.4959 55.9765 19.4107 56.0675 19.4436C56.1586 19.4765 56.1915 19.6237 56.1373 19.7651Z" fill="#263238"/>
<path d="M56.6485 19.9961L56.2359 21.2359C56.0872 21.2734 55.9309 21.2677 55.7853 21.2193C55.6398 21.1709 55.5111 21.0819 55.4146 20.9627C55.8252 20.3254 56.6485 19.9961 56.6485 19.9961Z" fill="#ED847E"/>
<path d="M58.528 19.5777C58.5424 19.5826 58.5581 19.5826 58.5725 19.5777C58.5956 19.573 58.6159 19.5594 58.629 19.5398C58.642 19.5202 58.6468 19.4962 58.6422 19.4731C58.6185 19.3334 58.5619 19.2013 58.477 19.0877C58.3921 18.9742 58.2814 18.8826 58.1541 18.8203C58.1433 18.8156 58.1317 18.8131 58.1199 18.813C58.1082 18.8129 58.0965 18.8152 58.0856 18.8197C58.0748 18.8242 58.0649 18.8309 58.0567 18.8393C58.0485 18.8477 58.0421 18.8577 58.0379 18.8687C58.0294 18.8906 58.0297 18.9149 58.0387 18.9366C58.0478 18.9582 58.0648 18.9755 58.0863 18.9849C58.1876 19.0348 58.2756 19.1081 58.343 19.1987C58.4103 19.2893 58.4552 19.3947 58.4737 19.506C58.4756 19.5217 58.4816 19.5366 58.4911 19.5492C58.5007 19.5618 58.5134 19.5716 58.528 19.5777Z" fill="#263238"/>
<path d="M55.5234 19.1034C55.5374 19.1074 55.5523 19.1078 55.5666 19.1044C55.5808 19.101 55.594 19.094 55.6047 19.084C55.6858 19.0075 55.784 18.9514 55.8912 18.9204C55.9983 18.8894 56.1113 18.8844 56.2207 18.9058C56.2319 18.909 56.2436 18.91 56.2552 18.9086C56.2668 18.9072 56.2779 18.9035 56.288 18.8977C56.2982 18.8919 56.307 18.8842 56.3141 18.8749C56.3211 18.8657 56.3263 18.8551 56.3292 18.8438C56.3324 18.8325 56.3334 18.8207 56.332 18.809C56.3307 18.7973 56.327 18.786 56.3212 18.7757C56.3155 18.7654 56.3077 18.7564 56.2985 18.7491C56.2892 18.7419 56.2786 18.7365 56.2672 18.7334C56.1301 18.7056 55.9884 18.7108 55.8536 18.7485C55.7189 18.7863 55.5951 18.8554 55.4924 18.9504C55.4757 18.9671 55.4663 18.9897 55.4663 19.0133C55.4663 19.0369 55.4757 19.0596 55.4924 19.0763C55.5003 19.0877 55.511 19.097 55.5234 19.1034Z" fill="#263238"/>
<path d="M35.0092 30.2914L34.1684 32.5869C34.0995 32.7849 33.9783 32.9605 33.8177 33.0952C33.6571 33.2299 33.463 33.3187 33.256 33.3521L22.0846 35.0432C21.364 35.1536 20.9378 35.8936 21.1335 36.6956L25.0445 52.8009C25.2383 53.6048 25.9821 54.1666 26.7027 54.0581L53.2937 50.0308C54.0144 49.9204 54.4405 49.1824 54.2468 48.3784L49.5338 28.9703C49.3401 28.1664 48.5962 27.6046 47.8756 27.7131L35.9215 29.5166C35.7135 29.5508 35.5187 29.641 35.3579 29.7775C35.1972 29.914 35.0766 30.0917 35.0092 30.2914Z" fill="#007BFF"/>
<path opacity="0.3" d="M35.0092 30.2914L34.1684 32.5869C34.0995 32.7849 33.9783 32.9605 33.8177 33.0952C33.6571 33.2299 33.463 33.3187 33.256 33.3521L22.0846 35.0432C21.364 35.1536 20.9378 35.8936 21.1335 36.6956L25.0445 52.8009C25.2383 53.6048 25.9821 54.1666 26.7027 54.0581L53.2937 50.0308C54.0144 49.9204 54.4405 49.1824 54.2468 48.3784L49.5338 28.9703C49.3401 28.1664 48.5962 27.6046 47.8756 27.7131L35.9215 29.5166C35.7135 29.5508 35.5187 29.641 35.3579 29.7775C35.1972 29.914 35.0766 30.0917 35.0092 30.2914Z" fill="black"/>
<path d="M29.2771 6.73797C29.5391 6.73844 29.801 6.75266 30.0616 6.78059C31.0533 5.40637 32.397 4.32485 33.9515 3.64983C35.5059 2.97481 37.2135 2.73125 38.8947 2.94476C40.5758 3.15828 42.1684 3.82098 43.5047 4.86314C44.8411 5.90531 45.8718 7.28839 46.4885 8.86688C48.0896 9.14107 49.5293 10.0066 50.5224 11.2921C51.5155 12.5776 51.9896 14.1892 51.8507 15.8077C51.7118 17.4261 50.9701 18.9334 49.7725 20.0309C48.5749 21.1283 47.0087 21.7359 45.3843 21.7333H29.2771C27.3094 21.7017 25.4331 20.8978 24.0528 19.4952C22.6725 18.0926 21.8989 16.2035 21.8989 14.2356C21.8989 12.2678 22.6725 10.3787 24.0528 8.97609C25.4331 7.57344 27.3094 6.7696 29.2771 6.73797Z" fill="#007BFF"/>
<path d="M29.9722 19.1108V37.8042H43.6793V23.1808L39.6113 19.1108H29.9722Z" fill="#007BFF"/>
<path opacity="0.6" d="M29.9722 19.1108V37.8042H43.6793V23.1808L39.6113 19.1108H29.9722Z" fill="white"/>
<path opacity="0.4" d="M39.6118 23.1808V19.1108L43.6798 23.1808H39.6118Z" fill="#007BFF"/>
<path d="M30.414 53.989L29.4429 54.1357L29.4721 54.3292L30.4432 54.1825L30.414 53.989Z" fill="#007BFF"/>
<path d="M34.8902 53.3152L31.498 53.8276L31.5273 54.0211L34.9195 53.5087L34.8902 53.3152Z" fill="#007BFF"/>
<path d="M39.8981 32.1267L38.6331 34.2363C38.5219 34.422 38.3716 34.5812 38.1926 34.703C38.0136 34.8247 37.8103 34.9061 37.5967 34.9414L26.4272 36.6344C26.0711 36.6962 25.7491 36.884 25.5201 37.1635C25.291 37.4431 25.1702 37.7957 25.1797 38.157L25.8287 52.8482C25.8311 53.0159 25.8697 53.181 25.9419 53.3322C26.0141 53.4835 26.1182 53.6174 26.247 53.7247C26.3758 53.832 26.5263 53.9101 26.6881 53.9538C26.85 53.9974 27.0194 54.0055 27.1847 53.9776L53.7757 49.9483C54.1318 49.8866 54.4538 49.6988 54.6828 49.4192C54.9119 49.1397 55.0327 48.787 55.0232 48.4258L54.2483 30.7242C54.2459 30.5566 54.2073 30.3915 54.1351 30.2402C54.0629 30.0889 53.9588 29.9551 53.83 29.8478C53.7012 29.7405 53.5507 29.6624 53.3889 29.6187C53.227 29.5751 53.0576 29.5669 52.8923 29.5949L40.9286 31.4139C40.7152 31.4503 40.5124 31.533 40.3344 31.6562C40.1564 31.7793 40.0074 31.9399 39.8981 32.1267Z" fill="#007BFF"/>
<path d="M40.2874 16.4003C40.2397 16.4006 40.193 16.3866 40.1533 16.3603C40.1136 16.3339 40.0826 16.2963 40.0643 16.2522C40.046 16.2082 40.0413 16.1597 40.0506 16.1129C40.06 16.0662 40.0831 16.0233 40.1169 15.9897C40.7655 15.3388 41.2067 14.5104 41.3848 13.609C41.5628 12.7076 41.4698 11.7737 41.1175 10.9251C40.7651 10.0765 40.1692 9.35138 39.405 8.84125C38.6408 8.33111 37.7426 8.05885 36.8238 8.05885C35.905 8.05885 35.0068 8.33111 34.2426 8.84125C33.4784 9.35138 32.8825 10.0765 32.5301 10.9251C32.1778 11.7737 32.0848 12.7076 32.2628 13.609C32.4409 14.5104 32.8821 15.3388 33.5307 15.9897C33.5532 16.012 33.571 16.0386 33.5832 16.0678C33.5954 16.0971 33.6016 16.1285 33.6016 16.1601C33.6016 16.1918 33.5954 16.2232 33.5832 16.2525C33.571 16.2817 33.5532 16.3083 33.5307 16.3306C33.4851 16.3751 33.4239 16.4 33.3602 16.4C33.2965 16.4 33.2353 16.3751 33.1897 16.3306C32.4715 15.6124 31.9824 14.6974 31.7842 13.7012C31.5861 12.7051 31.6878 11.6725 32.0764 10.7341C32.4651 9.79577 33.1233 8.99373 33.9678 8.42944C34.8123 7.86515 35.8052 7.56396 36.8209 7.56396C37.8366 7.56396 38.8294 7.86515 39.674 8.42944C40.5185 8.99373 41.1767 9.79577 41.5653 10.7341C41.954 11.6725 42.0557 12.7051 41.8575 13.7012C41.6594 14.6974 41.1703 15.6124 40.452 16.3306C40.4082 16.3742 40.3492 16.3992 40.2874 16.4003Z" fill="white"/>
<path d="M38.8849 17.8397V12.4796C38.8849 12.2479 38.7929 12.0257 38.629 11.8618C38.4652 11.698 38.243 11.606 38.0113 11.606H35.6402C35.4085 11.606 35.1863 11.698 35.0224 11.8618C34.8586 12.0257 34.7666 12.2479 34.7666 12.4796V17.8397H33.8735L36.8257 20.3831L39.776 17.8397H38.8849Z" fill="white"/>
<path d="M62.7796 31.1575L62.6614 31.4229L62.551 31.6651C62.4754 31.8258 62.396 31.9808 62.3185 32.1377C62.1616 32.4496 61.9912 32.7518 61.8207 33.0559C61.4733 33.6643 61.095 34.2546 60.6875 34.8245C60.4783 35.1112 60.2652 35.4057 60.0366 35.6788C59.808 35.9519 59.5659 36.2328 59.3102 36.504C58.7803 37.0751 58.1898 37.587 57.5493 38.0305L57.4157 38.1215C57.3471 38.1676 57.2737 38.2059 57.1968 38.2358C56.5148 38.4857 55.796 38.6206 55.0698 38.6349C54.4587 38.6565 53.8468 38.6325 53.2392 38.5632C52.66 38.4956 52.0845 38.3986 51.5152 38.2726C50.9487 38.1479 50.3899 37.9907 49.8415 37.8019C49.622 37.7244 49.4356 37.5742 49.3134 37.3761C49.1912 37.178 49.1405 36.9441 49.1697 36.7132C49.1989 36.4823 49.3063 36.2683 49.4739 36.1069C49.6416 35.9455 49.8595 35.8464 50.0914 35.826H50.132L51.7031 35.6924C52.2261 35.6459 52.7414 35.5955 53.2411 35.5277C53.491 35.4948 53.737 35.4618 53.9753 35.4212C54.2136 35.3805 54.446 35.3301 54.6669 35.2817C55.03 35.2096 55.3806 35.0843 55.7071 34.9098L55.3565 35.1151C55.7354 34.7648 56.084 34.3831 56.3987 33.9741C56.5691 33.7591 56.7338 33.5305 56.8946 33.2961C57.0554 33.0617 57.2181 32.8215 57.375 32.5775C57.683 32.0835 57.989 31.574 58.2757 31.0529C58.423 30.7934 58.5605 30.528 58.7019 30.2665L59.0893 29.5071L59.1358 29.4161C59.3791 28.954 59.7919 28.6042 60.2876 28.4401C60.7834 28.2761 61.3234 28.3105 61.7942 28.5361C62.2651 28.7618 62.6302 29.1611 62.8129 29.6503C62.9955 30.1395 62.9815 30.6804 62.7738 31.1595L62.7796 31.1575Z" fill="#FFC3BD"/>
<path d="M63.3994 27.7329C64.3311 31.0803 61.9659 34.4083 61.9659 34.4083C60.7126 34.7667 57.4097 33.4804 56.7085 32.2484C56.7085 32.2484 57.8611 29.0831 59.2268 27.4056C60.4937 25.8365 62.8511 25.7706 63.3994 27.7329Z" fill="#263238"/>
<path d="M50.4806 35.9093L50.6743 37.091C50.4147 38.3191 48.8921 37.7147 48.8921 37.7147H48.0436C47.8939 37.7059 47.7521 37.6442 47.6435 37.5406C47.5349 37.437 47.4667 37.2983 47.4509 37.1491L47.3153 36.3238C47.2771 36.156 47.3059 35.9799 47.3957 35.833C47.4854 35.6861 47.6289 35.58 47.7957 35.5374L48.526 35.4134C48.7385 35.3769 48.9568 35.3935 49.1614 35.4618L50.4806 35.9093Z" fill="#FFC3BD"/>
</svg>
