<svg width="28" height="24" viewBox="0 0 28 24" fill="none" xmlns="http://www.w3.org/2000/svg">
<path fill-rule="evenodd" clip-rule="evenodd" d="M5.70076 3.5867C7.08196 2.1741 8.79332 1.12786 10.6802 0.54248L11.3762 2.78599C9.86203 3.25574 8.48869 4.09533 7.3803 5.22891C6.27192 6.3625 5.4634 7.75435 5.0278 9.27875C4.5922 10.8031 4.54323 12.412 4.88532 13.9601C5.22742 15.5082 5.94979 16.9466 6.98719 18.1455C8.02458 19.3444 9.34432 20.266 10.8272 20.8269C12.31 21.3879 13.9093 21.5706 15.4804 21.3585C17.0516 21.1465 18.5452 20.5464 19.8262 19.6123C20.9787 18.7721 21.9265 17.6855 22.602 16.434C23.4209 14.2663 21.799 12.3143 20.9156 11.2511C20.7592 11.0629 20.626 10.9025 20.5335 10.7738L14.9197 14.647L15.7663 11.2603C15.7663 11.2603 20.6695 7.60396 21.0041 7.69956C21.3387 7.79516 26.3968 13.6725 25.4707 16.0799C25.266 16.612 25.0055 17.0648 24.7237 17.4473C23.8787 19.0501 22.6775 20.4405 21.2101 21.5104C19.6137 22.6743 17.7525 23.4222 15.7946 23.6864C13.8367 23.9507 11.8438 23.723 9.99602 23.024C8.14818 22.3249 6.50362 21.1765 5.21088 19.6825C3.91814 18.1886 3.01797 16.3961 2.59167 14.467C2.16538 12.5379 2.2264 10.533 2.76922 8.63335C3.31204 6.73374 4.31956 4.9993 5.70076 3.5867Z" fill="white"/>
<path d="M21.7049 17.2082C21.7838 17.4454 21.7839 17.4453 21.7841 17.4453L21.7843 17.4452L21.7848 17.445L21.7859 17.4447L21.7884 17.4438L21.7948 17.4415C21.7998 17.4397 21.806 17.4373 21.8133 17.4344C21.8281 17.4284 21.8476 17.42 21.8713 17.4086C21.9186 17.3859 21.9824 17.3512 22.058 17.3005C22.2095 17.1989 22.4067 17.034 22.6122 16.7737L22.6124 16.7735C22.8747 16.4405 23.1479 15.9562 23.3578 15.2564C23.3957 15.1304 23.4355 15.0106 23.4769 14.8966C23.4581 14.9762 23.4402 15.058 23.4232 15.1422L21.7049 17.2082ZM21.7049 17.2082L21.7838 17.4454L21.5001 17.5398L21.4601 17.2626M21.7049 17.2082L21.4601 17.2626M21.4601 17.2626C21.4085 17.0968 21.0769 15.9612 21.2888 14.7324L21.5352 14.7749L21.2888 14.7326C21.3618 14.3071 21.4993 13.8672 21.7407 13.4502C22.3484 12.4 23.2874 11.8296 24.1749 11.5229C25.0603 11.2169 25.9083 11.168 26.3654 11.1681L21.4601 17.2626ZM22.5985 17.315L22.5989 17.3143C22.8742 16.8731 23.2156 16.1642 23.4231 15.1424L22.5985 17.315ZM22.5985 17.315C22.4719 17.5192 22.3586 17.6665 22.2788 17.7611C22.2388 17.8085 22.2072 17.8426 22.1865 17.8641C22.1762 17.8748 22.1685 17.8824 22.1639 17.8869L22.1594 17.8913C22.1593 17.8914 22.1593 17.8913 22.1593 17.8914C22.1591 17.8915 22.1591 17.8915 22.1591 17.8916C22.159 17.8916 22.1589 17.8918 22.1589 17.8918C22.1589 17.8918 22.1588 17.8918 22.1589 17.8918L21.7314 18.2845M22.5985 17.315L21.7314 18.2845M21.7314 18.2845L22.3115 18.3246M21.7314 18.2845L22.3115 18.3246M22.3115 18.3246L22.3287 18.0752M22.3115 18.3246L22.3287 18.0752M22.3287 18.0752L22.3115 18.3246L22.3116 18.3246L22.3118 18.3247L22.3123 18.3247L22.3136 18.3248L22.3177 18.325L22.3312 18.3257C22.3426 18.3263 22.3587 18.327 22.3791 18.3275C22.4198 18.3286 22.4779 18.3292 22.5501 18.3275C22.6941 18.324 22.8956 18.3112 23.1284 18.274C23.315 18.2442 23.5235 18.1984 23.7381 18.1287L23.7384 18.1286M22.3287 18.0752L23.7384 18.1286M23.7384 18.1286C24.1601 17.991 24.616 17.7579 24.9903 17.3629C25.3674 16.9651 25.6497 16.4157 25.7395 15.6684L25.7395 15.6683M23.7384 18.1286L25.7395 15.6683M25.7395 15.6683C25.9546 13.8704 26.3356 12.7518 26.6032 12.148L26.6034 12.1476M25.7395 15.6683L26.6034 12.1476M26.6034 12.1476C26.6944 11.9414 26.7725 11.7953 26.8264 11.7028C26.8534 11.6565 26.8743 11.6236 26.8878 11.6032C26.8946 11.593 26.8995 11.5859 26.9023 11.5818L26.905 11.578L26.9051 11.578C26.9052 11.5777 26.9053 11.5776 26.9052 11.5777L27.172 11.2197L26.7262 11.1802L26.7041 11.4292M26.6034 12.1476L26.7041 11.4292M26.7041 11.4292L26.7261 11.1802L26.7261 11.1802L26.726 11.1802L26.7258 11.1802L26.7252 11.1801L26.7235 11.18L26.718 11.1795L26.6984 11.1781C26.6816 11.1769 26.6575 11.1754 26.6266 11.1739C26.5649 11.171 26.4763 11.1681 26.3655 11.1681L26.7041 11.4292Z" fill="white" stroke="#007BFF" stroke-width="0.5"/>
<path d="M2.66884 15.6682L2.66885 15.6683C2.75848 16.4155 3.04074 16.965 3.41778 17.3628C3.79215 17.7578 4.2481 17.9909 4.66988 18.1285L4.6702 18.1286C4.88528 18.1984 5.09385 18.2442 5.2798 18.2739C5.51252 18.3111 5.71411 18.3239 5.8583 18.3274C5.93052 18.3291 5.98866 18.3285 6.02949 18.3274C6.04991 18.3269 6.06603 18.3262 6.07744 18.3256L6.09098 18.3249L6.09501 18.3247L6.09633 18.3246L6.09681 18.3246L6.09701 18.3245L6.0971 18.3245L6.07996 18.0751L6.09717 18.3245L6.67737 18.2845L6.24981 17.8917L6.24975 17.8916L6.24961 17.8915L6.24939 17.8913L6.24931 17.8912L6.24925 17.8912L6.24918 17.8911L6.24472 17.8868C6.24012 17.8823 6.23249 17.8747 6.22213 17.864C6.20142 17.8425 6.16984 17.8084 6.1299 17.7611C6.05003 17.6664 5.93676 17.5191 5.81022 17.3149L5.80975 17.3141C5.53424 16.8729 5.19282 16.164 4.98512 15.1421C4.96804 15.0577 4.95008 14.9757 4.93131 14.896C4.97272 15.0101 5.01258 15.1301 5.05053 15.2564C5.26027 15.9563 5.53387 16.4405 5.79604 16.7734L5.79619 16.7736C6.00159 17.0338 6.19868 17.1988 6.35011 17.3004C6.42567 17.3511 6.48948 17.3857 6.53678 17.4085C6.56042 17.4199 6.57992 17.4283 6.59469 17.4342C6.60207 17.4372 6.60827 17.4396 6.61321 17.4414L6.61967 17.4437L6.62218 17.4446L6.62325 17.4449L6.62373 17.4451L6.62397 17.4452C6.62408 17.4452 6.62419 17.4453 6.70319 17.2081L6.62419 17.4453L6.89996 17.5371L6.94647 17.2683L6.94824 17.2627C6.99971 17.0976 7.33145 15.9617 7.11946 14.7323C7.04646 14.3068 6.90899 13.8671 6.66762 13.4501C6.05987 12.3999 5.1209 11.8296 4.2335 11.5228C3.3481 11.2168 2.50004 11.1678 2.04303 11.1678C1.93214 11.1678 1.84341 11.1707 1.78168 11.1737C1.75081 11.1752 1.72668 11.1767 1.70988 11.1778L1.69025 11.1793L1.6847 11.1797L1.68301 11.1799L1.68244 11.1799L1.68223 11.1799L1.68214 11.1799L1.6821 11.18L1.7041 11.429L1.68206 11.18L1.23583 11.2194L1.50323 11.5778C1.50325 11.5778 1.50327 11.5779 1.50328 11.5779L1.50602 11.5817C1.50888 11.5858 1.51378 11.5929 1.52054 11.6031C1.53406 11.6235 1.55504 11.6564 1.58205 11.7027C1.63607 11.7952 1.71429 11.9413 1.80535 12.1475L1.80538 12.1475C2.07239 12.7517 2.45371 13.8703 2.66884 15.6682Z" fill="white" stroke="#007BFF" stroke-width="0.5"/>
<mask id="path-4-outside-1_3567_8471" maskUnits="userSpaceOnUse" x="6.30078" y="0.981689" width="16" height="22" fill="black">
<rect fill="white" x="6.30078" y="0.981689" width="16" height="22"/>
<path fill-rule="evenodd" clip-rule="evenodd" d="M19.6939 3.6004C19.6939 2.70787 18.9678 1.98169 18.0751 1.98169C17.1823 1.98169 16.4559 2.7078 16.4559 3.6004C16.4559 4.3354 16.9481 4.95754 17.6202 5.15458V6.90379L15.6547 8.86944V15.1047L14.6435 16.1161V13.7546L13.5085 12.62V8.69277C14.3755 8.4313 15.0088 7.62522 15.0088 6.67414C15.0088 5.51187 14.0632 4.56627 12.901 4.56627C11.7385 4.56627 10.7929 5.51194 10.7929 6.67414C10.7929 7.62549 11.4265 8.43176 12.294 8.69299V13.123L13.4289 14.2579V18.2985L11.698 16.5674V14.5202L9.37622 12.1985V11.0893C10.0474 10.8919 10.5389 10.2703 10.5389 9.53582C10.5389 8.64307 9.81253 7.91675 8.92001 7.91675C8.02748 7.91675 7.30078 8.64307 7.30078 9.53582C7.30078 10.2709 7.79329 10.8929 8.46536 11.0898V12.5758L10.7867 14.8974V16.945L13.417 19.5749L13.4289 19.563V21.2127C13.4289 21.5482 13.7008 21.8202 14.0362 21.8202C14.3716 21.8202 14.6435 21.5481 14.6435 21.2127V20.8936L18.6671 16.8699V14.8889L20.2923 13.2634V10.3613C20.7654 10.2024 21.107 9.75486 21.107 9.22919C21.107 8.57079 20.5715 8.03508 19.9129 8.03508C19.2545 8.03508 18.7188 8.57079 18.7188 9.22919C18.7188 9.75492 19.0606 10.2025 19.5337 10.3614V12.9491L17.908 14.5743V16.5556L14.6435 19.8199V17.4042L16.5656 15.4821V9.2466L18.5311 7.28132V5.15427C19.2024 4.95689 19.6939 4.33504 19.6939 3.6004ZM18.0751 4.30861C17.6847 4.30861 17.3669 3.99114 17.3669 3.6004C17.3669 3.21047 17.6847 2.89255 18.0751 2.89255C18.4654 2.89255 18.7831 3.2104 18.7831 3.6004C18.7831 3.99114 18.4654 4.30861 18.0751 4.30861ZM19.9129 9.6644C19.6731 9.6644 19.4781 9.46903 19.4781 9.22919C19.4781 8.98936 19.6731 8.79384 19.9129 8.79384C20.1527 8.79384 20.3479 8.98936 20.3479 9.22919C20.3479 9.46903 20.1527 9.6644 19.9129 9.6644ZM8.21164 9.53582C8.21164 9.92597 8.52949 10.2438 8.92001 10.2438C9.3103 10.2438 9.628 9.92597 9.628 9.53582C9.628 9.14545 9.3103 8.82761 8.92001 8.82761C8.52949 8.82761 8.21164 9.14553 8.21164 9.53582ZM12.901 7.56726C12.4083 7.56726 12.0077 7.16665 12.0077 6.67414C12.0077 6.18163 12.4083 5.7808 12.901 5.7808C13.3935 5.7808 13.7941 6.18156 13.7941 6.67414C13.794 7.16665 13.3935 7.56726 12.901 7.56726Z"/>
</mask>
<path fill-rule="evenodd" clip-rule="evenodd" d="M19.6939 3.6004C19.6939 2.70787 18.9678 1.98169 18.0751 1.98169C17.1823 1.98169 16.4559 2.7078 16.4559 3.6004C16.4559 4.3354 16.9481 4.95754 17.6202 5.15458V6.90379L15.6547 8.86944V15.1047L14.6435 16.1161V13.7546L13.5085 12.62V8.69277C14.3755 8.4313 15.0088 7.62522 15.0088 6.67414C15.0088 5.51187 14.0632 4.56627 12.901 4.56627C11.7385 4.56627 10.7929 5.51194 10.7929 6.67414C10.7929 7.62549 11.4265 8.43176 12.294 8.69299V13.123L13.4289 14.2579V18.2985L11.698 16.5674V14.5202L9.37622 12.1985V11.0893C10.0474 10.8919 10.5389 10.2703 10.5389 9.53582C10.5389 8.64307 9.81253 7.91675 8.92001 7.91675C8.02748 7.91675 7.30078 8.64307 7.30078 9.53582C7.30078 10.2709 7.79329 10.8929 8.46536 11.0898V12.5758L10.7867 14.8974V16.945L13.417 19.5749L13.4289 19.563V21.2127C13.4289 21.5482 13.7008 21.8202 14.0362 21.8202C14.3716 21.8202 14.6435 21.5481 14.6435 21.2127V20.8936L18.6671 16.8699V14.8889L20.2923 13.2634V10.3613C20.7654 10.2024 21.107 9.75486 21.107 9.22919C21.107 8.57079 20.5715 8.03508 19.9129 8.03508C19.2545 8.03508 18.7188 8.57079 18.7188 9.22919C18.7188 9.75492 19.0606 10.2025 19.5337 10.3614V12.9491L17.908 14.5743V16.5556L14.6435 19.8199V17.4042L16.5656 15.4821V9.2466L18.5311 7.28132V5.15427C19.2024 4.95689 19.6939 4.33504 19.6939 3.6004ZM18.0751 4.30861C17.6847 4.30861 17.3669 3.99114 17.3669 3.6004C17.3669 3.21047 17.6847 2.89255 18.0751 2.89255C18.4654 2.89255 18.7831 3.2104 18.7831 3.6004C18.7831 3.99114 18.4654 4.30861 18.0751 4.30861ZM19.9129 9.6644C19.6731 9.6644 19.4781 9.46903 19.4781 9.22919C19.4781 8.98936 19.6731 8.79384 19.9129 8.79384C20.1527 8.79384 20.3479 8.98936 20.3479 9.22919C20.3479 9.46903 20.1527 9.6644 19.9129 9.6644ZM8.21164 9.53582C8.21164 9.92597 8.52949 10.2438 8.92001 10.2438C9.3103 10.2438 9.628 9.92597 9.628 9.53582C9.628 9.14545 9.3103 8.82761 8.92001 8.82761C8.52949 8.82761 8.21164 9.14553 8.21164 9.53582ZM12.901 7.56726C12.4083 7.56726 12.0077 7.16665 12.0077 6.67414C12.0077 6.18163 12.4083 5.7808 12.901 5.7808C13.3935 5.7808 13.7941 6.18156 13.7941 6.67414C13.794 7.16665 13.3935 7.56726 12.901 7.56726Z" fill="white"/>
<path d="M17.6202 5.15458H18.1202V4.78013L17.7608 4.67478L17.6202 5.15458ZM17.6202 6.90379L17.9737 7.25732L18.1202 7.11088V6.90379H17.6202ZM15.6547 8.86944L15.3012 8.51591L15.1547 8.66235V8.86944H15.6547ZM15.6547 15.1047L16.0083 15.4583L16.1547 15.3118V15.1047H15.6547ZM14.6435 16.1161H14.1435V17.3232L14.997 16.4696L14.6435 16.1161ZM14.6435 13.7546H15.1435V13.5474L14.997 13.401L14.6435 13.7546ZM13.5085 12.62H13.0085V12.8272L13.155 12.9736L13.5085 12.62ZM13.5085 8.69277L13.3641 8.21406L13.0085 8.32131V8.69277H13.5085ZM12.294 8.69299H12.794V8.32138L12.4382 8.21423L12.294 8.69299ZM12.294 13.123H11.794V13.3301L11.9405 13.4765L12.294 13.123ZM13.4289 14.2579H13.9289V14.0509L13.7824 13.9044L13.4289 14.2579ZM13.4289 18.2985L13.0753 18.652L13.9289 19.5057V18.2985H13.4289ZM11.698 16.5674H11.198V16.7744L11.3444 16.9209L11.698 16.5674ZM11.698 14.5202H12.198V14.3131L12.0516 14.1666L11.698 14.5202ZM9.37622 12.1985H8.87622V12.4056L9.02268 12.552L9.37622 12.1985ZM9.37622 11.0893L9.23512 10.6096L8.87622 10.7152V11.0893H9.37622ZM8.46536 11.0898H8.96536V10.7153L8.60595 10.61L8.46536 11.0898ZM8.46536 12.5758H7.96536V12.7829L8.11179 12.9293L8.46536 12.5758ZM10.7867 14.8974H11.2867V14.6903L11.1403 14.5438L10.7867 14.8974ZM10.7867 16.945H10.2867V17.1522L10.4332 17.2986L10.7867 16.945ZM13.417 19.5749L13.0635 19.9285L13.4171 20.282L13.7706 19.9284L13.417 19.5749ZM13.4289 19.563H13.9289V18.3556L13.0752 19.2096L13.4289 19.563ZM14.6435 20.8936L14.2899 20.5401L14.1435 20.6865V20.8936H14.6435ZM18.6671 16.8699L19.0207 17.2235L19.1671 17.077V16.8699H18.6671ZM18.6671 14.8889L18.3135 14.5354L18.1671 14.6818V14.8889H18.6671ZM20.2923 13.2634L20.6459 13.617L20.7923 13.4705V13.2634H20.2923ZM20.2923 10.3613L20.1331 9.88734L19.7923 10.0018V10.3613H20.2923ZM19.5337 10.3614H20.0337V10.0018L19.6928 9.88737L19.5337 10.3614ZM19.5337 12.9491L19.8872 13.3027L20.0337 13.1562V12.9491H19.5337ZM17.908 14.5743L17.5545 14.2207L17.408 14.3672V14.5743H17.908ZM17.908 16.5556L18.2615 16.9091L18.408 16.7627V16.5556H17.908ZM14.6435 19.8199H14.1435V21.027L14.997 20.1735L14.6435 19.8199ZM14.6435 17.4042L14.2899 17.0507L14.1435 17.1971V17.4042H14.6435ZM16.5656 15.4821L16.9191 15.8357L17.0656 15.6892V15.4821H16.5656ZM16.5656 9.2466L16.2121 8.89302L16.0656 9.03947V9.2466H16.5656ZM18.5311 7.28132L18.8846 7.63489L19.0311 7.48844V7.28132H18.5311ZM18.5311 5.15427L18.3901 4.67458L18.0311 4.78011V5.15427H18.5311ZM13.7941 6.67414L14.2941 6.67421V6.67414H13.7941ZM18.0751 2.48169C18.6917 2.48169 19.1939 2.98403 19.1939 3.6004H20.1939C20.1939 2.43171 19.244 1.48169 18.0751 1.48169V2.48169ZM16.9559 3.6004C16.9559 2.98409 17.4583 2.48169 18.0751 2.48169V1.48169C16.9063 1.48169 15.9559 2.4315 15.9559 3.6004H16.9559ZM17.7608 4.67478C17.2955 4.53835 16.9559 4.107 16.9559 3.6004H15.9559C15.9559 4.5638 16.6007 5.37672 17.4795 5.63438L17.7608 4.67478ZM18.1202 6.90379V5.15458H17.1202V6.90379H18.1202ZM16.0083 9.22298L17.9737 7.25732L17.2666 6.55026L15.3012 8.51591L16.0083 9.22298ZM16.1547 15.1047V8.86944H15.1547V15.1047H16.1547ZM14.997 16.4696L16.0083 15.4583L15.3012 14.7512L14.2899 15.7625L14.997 16.4696ZM14.1435 13.7546V16.1161H15.1435V13.7546H14.1435ZM13.155 12.9736L14.29 14.1082L14.997 13.401L13.862 12.2664L13.155 12.9736ZM13.0085 8.69277V12.62H14.0085V8.69277H13.0085ZM14.5088 6.67414C14.5088 7.3981 14.0264 8.01435 13.3641 8.21406L13.6529 9.17147C14.7247 8.84825 15.5088 7.85234 15.5088 6.67414H14.5088ZM12.901 5.06627C13.7871 5.06627 14.5088 5.78801 14.5088 6.67414H15.5088C15.5088 5.23572 14.3394 4.06627 12.901 4.06627V5.06627ZM11.2929 6.67414C11.2929 5.78812 12.0146 5.06627 12.901 5.06627V4.06627C11.4624 4.06627 10.2929 5.23576 10.2929 6.67414H11.2929ZM12.4382 8.21423C11.7756 8.01468 11.2929 7.39829 11.2929 6.67414H10.2929C10.2929 7.85269 11.0775 8.84883 12.1499 9.17175L12.4382 8.21423ZM12.794 13.123V8.69299H11.794V13.123H12.794ZM13.7824 13.9044L12.6476 12.7695L11.9405 13.4765L13.0753 14.6115L13.7824 13.9044ZM13.9289 18.2985V14.2579H12.9289V18.2985H13.9289ZM11.3444 16.9209L13.0753 18.652L13.7824 17.9449L12.0516 16.2138L11.3444 16.9209ZM11.198 14.5202V16.5674H12.198V14.5202H11.198ZM9.02268 12.552L11.3445 14.8738L12.0516 14.1666L9.72977 11.8449L9.02268 12.552ZM8.87622 11.0893V12.1985H9.87622V11.0893H8.87622ZM9.51733 11.569C10.395 11.3108 11.0389 10.4986 11.0389 9.53582H10.0389C10.0389 10.042 9.69979 10.473 9.23512 10.6096L9.51733 11.569ZM11.0389 9.53582C11.0389 8.36698 10.0887 7.41675 8.92001 7.41675V8.41675C9.53635 8.41675 10.0389 8.91917 10.0389 9.53582H11.0389ZM8.92001 7.41675C7.75144 7.41675 6.80078 8.36683 6.80078 9.53582H7.80078C7.80078 8.91932 8.30352 8.41675 8.92001 8.41675V7.41675ZM6.80078 9.53582C6.80078 10.4995 7.44606 11.3122 8.32478 11.5696L8.60595 10.61C8.14051 10.4736 7.80078 10.0423 7.80078 9.53582H6.80078ZM8.96536 12.5758V11.0898H7.96536V12.5758H8.96536ZM11.1403 14.5438L8.81893 12.2222L8.11179 12.9293L10.4331 15.2509L11.1403 14.5438ZM11.2867 16.945V14.8974H10.2867V16.945H11.2867ZM13.7705 19.2213L11.1402 16.5915L10.4332 17.2986L13.0635 19.9285L13.7705 19.2213ZM13.0752 19.2096L13.0634 19.2214L13.7706 19.9284L13.7825 19.9165L13.0752 19.2096ZM13.9289 21.2127V19.563H12.9289V21.2127H13.9289ZM14.0362 21.3202C13.9771 21.3202 13.9289 21.2722 13.9289 21.2127H12.9289C12.9289 21.8242 13.4245 22.3202 14.0362 22.3202V21.3202ZM14.1435 21.2127C14.1435 21.2722 14.0952 21.3202 14.0362 21.3202V22.3202C14.6481 22.3202 15.1435 21.824 15.1435 21.2127H14.1435ZM14.1435 20.8936V21.2127H15.1435V20.8936H14.1435ZM18.3135 16.5164L14.2899 20.5401L14.997 21.2472L19.0207 17.2235L18.3135 16.5164ZM18.1671 14.8889V16.8699H19.1671V14.8889H18.1671ZM19.9388 12.9099L18.3135 14.5354L19.0207 15.2424L20.6459 13.617L19.9388 12.9099ZM19.7923 10.3613V13.2634H20.7923V10.3613H19.7923ZM20.607 9.22919C20.607 9.53313 20.4092 9.79459 20.1331 9.88734L20.4516 10.8353C21.1216 10.6102 21.607 9.9766 21.607 9.22919H20.607ZM19.9129 8.53508C20.2953 8.53508 20.607 8.84689 20.607 9.22919H21.607C21.607 8.29468 20.8476 7.53508 19.9129 7.53508V8.53508ZM19.2188 9.22919C19.2188 8.84693 19.5306 8.53508 19.9129 8.53508V7.53508C18.9783 7.53508 18.2188 8.29464 18.2188 9.22919H19.2188ZM19.6928 9.88737C19.4166 9.79464 19.2188 9.53311 19.2188 9.22919H18.2188C18.2188 9.97673 18.7045 10.6104 19.3745 10.8354L19.6928 9.88737ZM20.0337 12.9491V10.3614H19.0337V12.9491H20.0337ZM18.2615 14.9279L19.8872 13.3027L19.1801 12.5955L17.5545 14.2207L18.2615 14.9279ZM18.408 16.5556V14.5743H17.408V16.5556H18.408ZM14.997 20.1735L18.2615 16.9091L17.5544 16.202L14.2899 19.4663L14.997 20.1735ZM14.1435 17.4042V19.8199H15.1435V17.4042H14.1435ZM16.212 15.1286L14.2899 17.0507L14.997 17.7578L16.9191 15.8357L16.212 15.1286ZM16.0656 9.2466V15.4821H17.0656V9.2466H16.0656ZM18.1776 6.92774L16.2121 8.89302L16.9191 9.60017L18.8846 7.63489L18.1776 6.92774ZM18.0311 5.15427V7.28132H19.0311V5.15427H18.0311ZM19.1939 3.6004C19.1939 4.10686 18.8548 4.53795 18.3901 4.67458L18.6721 5.63397C19.5501 5.37583 20.1939 4.56322 20.1939 3.6004H19.1939ZM16.8669 3.6004C16.8669 4.26745 17.4087 4.80861 18.0751 4.80861V3.80861C17.9607 3.80861 17.8669 3.71482 17.8669 3.6004H16.8669ZM18.0751 2.39255C17.4087 2.39255 16.8669 2.93419 16.8669 3.6004H17.8669C17.8669 3.48675 17.9607 3.39255 18.0751 3.39255V2.39255ZM19.2831 3.6004C19.2831 2.93426 18.7415 2.39255 18.0751 2.39255V3.39255C18.1892 3.39255 18.2831 3.48654 18.2831 3.6004H19.2831ZM18.0751 4.80861C18.7415 4.80861 19.2831 4.26728 19.2831 3.6004H18.2831C18.2831 3.715 18.1892 3.80861 18.0751 3.80861V4.80861ZM18.9781 9.22919C18.9781 9.74462 19.3964 10.1644 19.9129 10.1644V9.1644C19.9498 9.1644 19.9781 9.19344 19.9781 9.22919H18.9781ZM19.9129 8.29384C19.3961 8.29384 18.9781 8.714 18.9781 9.22919H19.9781C19.9781 9.26473 19.95 9.29384 19.9129 9.29384V8.29384ZM20.8479 9.22919C20.8479 8.71378 20.4294 8.29384 19.9129 8.29384V9.29384C19.876 9.29384 19.8479 9.26495 19.8479 9.22919H20.8479ZM19.9129 10.1644C20.4292 10.1644 20.8479 9.74484 20.8479 9.22919H19.8479C19.8479 9.19322 19.8763 9.1644 19.9129 9.1644V10.1644ZM8.92001 9.74382C8.80546 9.74382 8.71164 9.64966 8.71164 9.53582H7.71164C7.71164 10.2023 8.25352 10.7438 8.92001 10.7438V9.74382ZM9.128 9.53582C9.128 9.64989 9.03409 9.74382 8.92001 9.74382V10.7438C9.58651 10.7438 10.128 10.202 10.128 9.53582H9.128ZM8.92001 9.32761C9.03399 9.32761 9.128 9.42143 9.128 9.53582H10.128C10.128 8.86948 9.58661 8.32761 8.92001 8.32761V9.32761ZM8.71164 9.53582C8.71164 9.4217 8.8056 9.32761 8.92001 9.32761V8.32761C8.25338 8.32761 7.71164 8.86935 7.71164 9.53582H8.71164ZM11.5077 6.67414C11.5077 7.44284 12.1322 8.06726 12.901 8.06726V7.06726C12.6844 7.06726 12.5077 6.89045 12.5077 6.67414H11.5077ZM12.901 5.2808C12.1321 5.2808 11.5077 5.9056 11.5077 6.67414H12.5077C12.5077 6.45767 12.6846 6.2808 12.901 6.2808V5.2808ZM14.2941 6.67414C14.2941 5.90555 13.6697 5.2808 12.901 5.2808V6.2808C13.1172 6.2808 13.2941 6.45756 13.2941 6.67414H14.2941ZM12.901 8.06726C13.6697 8.06726 14.294 7.44274 14.2941 6.67421L13.2941 6.67406C13.294 6.89056 13.1173 7.06726 12.901 7.06726V8.06726Z" fill="#007BFF" mask="url(#path-4-outside-1_3567_8471)"/>
</svg>
