<svg width="26" height="18" viewBox="0 0 26 18" fill="none" xmlns="http://www.w3.org/2000/svg">
<path d="M4.19336 7.93014C5.57227 7.93014 6.69336 6.81996 6.69336 5.45449C6.69336 4.08901 5.57227 2.97883 4.19336 2.97883C2.81445 2.97883 1.69336 4.08901 1.69336 5.45449C1.69336 6.81996 2.81445 7.93014 4.19336 7.93014ZM21.6934 7.93014C23.0723 7.93014 24.1934 6.81996 24.1934 5.45449C24.1934 4.08901 23.0723 2.97883 21.6934 2.97883C20.3145 2.97883 19.1934 4.08901 19.1934 5.45449C19.1934 6.81996 20.3145 7.93014 21.6934 7.93014ZM22.9434 9.16797H20.4434C19.7559 9.16797 19.1348 9.44261 18.6816 9.88746C20.2559 10.7423 21.373 12.2857 21.6152 14.1193H24.1934C24.8848 14.1193 25.4434 13.5661 25.4434 12.8815V11.6436C25.4434 10.2781 24.3223 9.16797 22.9434 9.16797ZM12.9434 9.16797C15.3613 9.16797 17.3184 7.23 17.3184 4.83557C17.3184 2.44115 15.3613 0.503174 12.9434 0.503174C10.5254 0.503174 8.56836 2.44115 8.56836 4.83557C8.56836 7.23 10.5254 9.16797 12.9434 9.16797ZM15.9434 10.4058H15.6191C14.8066 10.7926 13.9043 11.0247 12.9434 11.0247C11.9824 11.0247 11.084 10.7926 10.2676 10.4058H9.94336C7.45898 10.4058 5.44336 12.4018 5.44336 14.862V15.976C5.44336 17.0011 6.2832 17.8328 7.31836 17.8328H18.5684C19.6035 17.8328 20.4434 17.0011 20.4434 15.976V14.862C20.4434 12.4018 18.4277 10.4058 15.9434 10.4058ZM7.20508 9.88746C6.75195 9.44261 6.13086 9.16797 5.44336 9.16797H2.94336C1.56445 9.16797 0.443359 10.2781 0.443359 11.6436V12.8815C0.443359 13.5661 1.00195 14.1193 1.69336 14.1193H4.26758C4.51367 12.2857 5.63086 10.7423 7.20508 9.88746Z" fill="white"/>
</svg>
