<svg width="92" height="70" viewBox="0 0 92 70" fill="none" xmlns="http://www.w3.org/2000/svg">
<path d="M22.1363 65.8268C21.5935 65.2578 13.6319 49.3227 22.4983 34.7154C31.3644 20.1084 53.6204 21.8159 62.4863 27.5068C71.3529 33.198 75.6953 40.5964 76.6 48.3739C77.5048 56.1519 71.5335 68.2928 71.5335 68.2928L22.1363 65.8268Z" fill="#DDECFF"/>
<path d="M84.5628 38.9993H74.3346C73.7015 38.9993 73.1885 38.4866 73.1885 37.8532V32.7473C73.1885 32.1142 73.7015 31.6012 74.3346 31.6012H84.5628C85.1959 31.6012 85.7089 32.1142 85.7089 32.7473V37.8532C85.7089 38.4866 85.1959 38.9993 84.5628 38.9993Z" fill="#60A8FF"/>
<path d="M79.449 41.8926L81.0698 38.0511H77.8281L79.449 41.8926Z" fill="#60A8FF"/>
<path d="M79.4092 34.0301H82.337V34.4585L83.7724 33.6307L82.337 32.8033V33.2317H79.4092V34.0301Z" fill="#223A7A"/>
<path d="M83.7727 35.7135H80.8446V35.2853L79.4092 36.1128L80.8446 36.9405V36.5119H83.7727V35.7135Z" fill="white"/>
<path d="M77.6132 36.4667L77.4738 36.5178C77.4738 36.5178 77.0395 36.0218 76.8139 35.4815C76.5884 34.9414 76.5806 34.2817 76.5806 34.2817L76.6821 34.2391L76.063 32.7574C75.953 32.8436 75.8477 32.9545 75.7625 33.0982C75.412 33.6903 75.4468 34.599 75.7994 35.4867C76.1517 36.3743 76.5285 37.166 77.2162 37.6639C77.6222 37.9575 77.9697 38.0093 78.2395 37.9663L77.6132 36.4667Z" fill="#223A7A"/>
<path d="M78.057 36.2922L77.8643 36.3624L78.4983 37.8791C78.5698 37.8558 78.6342 37.8269 78.6899 37.7966C78.8536 37.7068 78.9251 37.5101 78.8563 37.3368L78.5256 36.5024C78.452 36.3172 78.2441 36.2239 78.057 36.2922Z" fill="#223A7A"/>
<path d="M76.5468 32.4975C76.4687 32.5254 76.3841 32.5635 76.2988 32.6139L76.931 34.1272L77.1437 34.0383C77.3285 33.9611 77.4179 33.7509 77.345 33.5645L77.0126 32.7113C76.9407 32.5259 76.7339 32.4301 76.5468 32.4975Z" fill="#223A7A"/>
<path d="M19.1783 63.2656V46.1926C19.1783 46.1926 18.9885 41.5921 21.4073 40.2642C23.8258 38.9363 34.0223 39.6478 34.0223 39.6478V63.2656H19.1783Z" fill="#1C83FF"/>
<path d="M37.2081 23.6653C37.2081 23.6653 36.5917 28.8347 36.3544 29.2615L36.1174 29.6883L34.9316 30.4945C34.9316 30.4945 37.2081 33.7194 40.0062 34.2412C42.8043 34.7629 42.5671 33.1031 42.5671 33.1031L42.1403 32.202L42.7094 27.2696C42.7094 27.2696 37.6349 24.9457 37.2081 23.6653Z" fill="#FF9D8C"/>
<path d="M33.4609 30.9215L35.3105 30.1154C35.3105 30.1154 36.4961 32.0599 39.2468 33.198C41.9974 34.336 42.0449 33.6722 42.1872 33.198C42.3294 32.7237 42.1398 32.202 42.1398 32.202L42.3433 30.5415L43.4432 30.908L47.2618 61.7954L37.4446 62.2699L33.4609 30.9215Z" fill="white"/>
<path d="M42.5195 30.5738C42.5195 30.5738 43.1834 32.1071 43.8 35.7116C44.4164 39.3159 44.9857 45.3865 45.1281 49.5599C45.2702 53.7334 45.3651 63.2659 45.3651 63.2659H57.7432C57.8853 63.2659 58.7391 58.5707 58.7391 58.5707C58.7391 58.5707 53.3327 53.9388 53.0482 53.1801C52.8584 52.6742 52.9533 43.2996 52.1469 38.9838C51.3403 34.668 50.2975 33.7985 48.1158 32.7235C45.8611 31.6124 42.5195 30.5738 42.5195 30.5738Z" fill="#223A7A"/>
<path d="M48.97 57.8315C48.9068 57.8315 48.8554 57.7802 48.8554 57.7169C48.8554 57.3779 48.7949 52.5603 48.7367 47.9015C48.6784 43.2419 48.6182 38.4234 48.6182 38.083C48.6182 38.0195 48.6693 37.9684 48.7328 37.9684C48.7958 37.9684 48.8474 38.0195 48.8474 38.083C48.8474 38.422 48.9077 43.2396 48.9657 47.8983C49.0241 52.558 49.0846 57.3765 49.0846 57.7169C49.0846 57.7802 49.0331 57.8315 48.97 57.8315Z" fill="#8593B6"/>
<path d="M24.3078 56.6734L24.2129 63.2656H38.6304C38.6304 63.2656 39.2467 57.6696 39.0097 57.1479C38.7727 56.6262 24.3078 56.6734 24.3078 56.6734Z" fill="#223A7A"/>
<path d="M40.354 29.1194C40.9415 29.593 41.7452 29.973 42.371 30.203L42.7095 27.2698C42.7095 27.2698 38.8978 25.5236 37.6045 24.2246C37.8747 25.7005 38.5395 27.6565 40.354 29.1194Z" fill="#8E9BBB"/>
<path d="M47.168 14.0379C47.168 14.0379 48.164 15.7454 48.3535 17.832C48.5433 19.9186 48.3535 25.2778 46.6463 27.5543C44.9388 29.8307 41.3819 29.1666 39.7696 27.7913C38.2897 26.5292 36.8291 25.1355 36.4497 22.3848C36.0704 19.6341 37.2559 14.4172 40.6232 13.3266C43.9905 12.2357 47.168 14.0379 47.168 14.0379Z" fill="#FF9D8C"/>
<path d="M51.4452 60.2841C51.4452 60.2841 51.278 60.2841 51.0232 60.2775C50.9636 60.275 50.8971 60.2775 50.8283 60.275C50.583 60.2683 50.2851 60.2612 49.9848 60.252C49.9183 60.2497 49.8495 60.2474 49.7831 60.2452C49.4848 60.2385 49.2306 60.275 48.9922 60.2612H48.9856C48.9349 60.2589 48.8616 60.2658 48.802 60.2681C48.7722 60.2704 48.7447 60.2727 48.7263 60.2704C48.5888 60.2452 48.5613 60.2131 48.4125 60.1466C48.2198 60.0595 45.6135 59.4773 43.4932 59.491C41.3751 59.5002 39.4749 59.6446 39.1654 59.3856C38.8537 59.1222 38.6657 56.4607 40.4743 56.2865L42.6978 57.13C42.6978 57.13 47.7748 56.5272 49.6364 57.9002C51.5025 59.2735 51.4452 60.2841 51.4452 60.2841Z" fill="#FF9D8C"/>
<path d="M48.9865 60.2612C48.9356 60.2587 48.8628 60.2661 48.8027 60.2679C48.7573 60.1948 48.6608 60.0618 48.6081 60.0068C48.035 59.4223 46.6505 59.0438 46.1483 58.9224C46.1029 58.9109 46.0729 58.865 46.0846 58.8194C46.0937 58.7738 46.1419 58.7463 46.19 58.7555C46.9208 58.9318 48.4731 59.3833 48.9132 60.1237C48.9265 60.1443 48.9631 60.2156 48.9865 60.2612Z" fill="#223A7A"/>
<path d="M49.9865 60.2518C49.92 60.2502 49.851 60.2484 49.7848 60.245C49.1592 59.1037 48.1353 58.7763 46.87 58.369L46.7952 58.3445C46.7521 58.3296 46.7253 58.2808 46.7407 58.2351C46.7551 58.192 46.8019 58.1655 46.8496 58.1806L46.9225 58.2051C48.2602 58.6347 49.3364 58.9794 49.9865 60.2518Z" fill="#223A7A"/>
<path d="M51.0245 60.2773C50.9647 60.2757 50.8982 60.2763 50.8292 60.2747C50.4498 59.4768 49.1939 58.1416 47.5323 57.8303C47.4844 57.8223 47.4532 57.778 47.4612 57.7301C47.4715 57.6843 47.5155 57.6536 47.5616 57.6614C49.2735 57.983 50.6543 59.3808 51.0245 60.2773Z" fill="#223A7A"/>
<path d="M37.5871 20.0373C37.5871 20.0373 38.6305 19.5392 39.3656 18.1403C40.1005 16.7413 40.0059 15.4845 40.0059 15.4845C40.0059 15.4845 41.3337 15.2711 43.3257 15.8639C45.3174 16.4566 47.6887 17.2628 49.6805 16.1247C51.6726 14.9864 51.6726 13.1606 50.7003 12.4017C49.6115 11.552 47.4517 12.0698 47.4517 12.0698C47.4517 12.0698 48.2815 11.2636 47.8311 10.7893C47.3804 10.3151 45.7442 10.9317 45.7442 10.9317C45.7442 10.9317 43.7527 9.34293 39.982 9.53249C36.2117 9.72229 34.4096 12.3542 34.1962 15.2947C33.9828 18.2352 35.0498 21.1754 35.0498 21.1754L37.5871 20.0373Z" fill="#223A7A"/>
<path d="M45.2361 20.75C45.0222 21.2767 45.0277 21.8883 44.9736 22.4474C44.9319 22.8822 44.8519 23.3893 45.2503 23.6829C45.4408 23.8232 46.3409 24.2014 45.8779 24.5079C45.7012 24.6248 45.4052 24.5929 45.2044 24.5835C45.066 24.5771 44.9262 24.5711 44.7882 24.5608C44.6394 24.5498 44.4939 24.5049 44.3446 24.5042C44.2573 24.5037 44.2302 24.62 44.3015 24.6644C44.5411 24.8143 44.892 24.8604 45.1712 24.8712C45.4504 24.8822 45.6397 24.8693 45.891 24.7447C46.0457 24.6679 46.1956 24.5594 46.2201 24.3756C46.2479 24.1688 46.0925 23.9834 45.937 23.8679C45.7576 23.7349 45.5375 23.673 45.3564 23.5435C45.1054 23.3636 45.1263 23.061 45.1439 22.7804C45.1861 22.1063 45.3413 21.4436 45.4016 20.7724C45.4107 20.6697 45.2689 20.6697 45.2361 20.75Z" fill="#8E9BBB"/>
<path d="M47.1749 22.327C47.1038 22.7268 46.8134 23.0097 46.5253 22.9585C46.2372 22.9077 46.0613 22.542 46.1317 22.1425C46.2028 21.7427 46.4932 21.4599 46.7813 21.5108C47.0695 21.5619 47.2457 21.9273 47.1749 22.327Z" fill="#223A7A"/>
<path d="M43.5465 22.0102C43.4823 22.4416 43.1786 22.7536 42.8678 22.7075C42.5569 22.6612 42.3568 22.2741 42.4212 21.8429C42.4854 21.4115 42.7891 21.0993 43.1002 21.1456C43.4108 21.1919 43.6107 21.5791 43.5465 22.0102Z" fill="#223A7A"/>
<path d="M46.3306 20.6792C46.5523 20.7165 46.7755 20.6785 46.9995 20.6941C47.0529 20.698 47.1063 20.7058 47.1597 20.711C47.1977 20.7145 47.0886 20.6996 47.1418 20.7083C47.1533 20.7103 47.1647 20.7122 47.1757 20.714C47.2039 20.7191 47.2319 20.7248 47.2594 20.7317C47.3071 20.7431 47.3532 20.761 47.4008 20.7715C47.4439 20.7809 47.4918 20.791 47.5358 20.789C47.5599 20.7858 47.5844 20.7826 47.6085 20.7793C47.5936 20.7819 47.5778 20.7846 47.5629 20.7876C47.5627 20.7929 47.6456 20.7793 47.6534 20.7777C47.7807 20.7479 47.8593 20.6008 47.8237 20.4781C47.8134 20.4426 47.7976 20.4105 47.7754 20.3814C47.766 20.3688 47.7564 20.3567 47.7463 20.3445C47.7552 20.3546 47.7642 20.3649 47.7731 20.3752C47.7637 20.3619 47.7538 20.3491 47.7435 20.3363C47.7307 20.3152 47.7142 20.2982 47.6926 20.2856C47.675 20.2721 47.6578 20.2576 47.6395 20.2448C47.5805 20.204 47.5031 20.1802 47.4336 20.1623C47.3013 20.1281 47.1627 20.1109 47.0263 20.11C46.8906 20.1093 46.7567 20.1235 46.6226 20.1421C46.5046 20.1586 46.373 20.1987 46.277 20.27C46.2027 20.3252 46.1573 20.3961 46.1701 20.493C46.1809 20.5733 46.2444 20.6647 46.3306 20.6792Z" fill="#223A7A"/>
<path d="M43.801 20.0446C43.7708 20.0268 43.7398 20.0112 43.7084 19.9967C43.6816 19.9843 43.608 19.9458 43.6635 19.9763C43.6433 19.9651 43.6232 19.9541 43.6028 19.9438C43.5106 19.8975 43.4153 19.8665 43.3162 19.8411C43.0996 19.7861 42.8718 19.7721 42.6501 19.7955C42.4133 19.8202 42.1969 19.8775 41.992 20.0013C41.9631 20.0187 41.9333 20.0357 41.9093 20.06C41.893 20.0806 41.8769 20.1015 41.8614 20.1223C41.8657 20.1155 41.8703 20.1086 41.8747 20.1019C41.8114 20.146 41.7747 20.2186 41.7754 20.2949C41.7759 20.3688 41.8141 20.4302 41.8779 20.4657C41.9553 20.5088 42.0287 20.4882 42.1082 20.4676H41.9883C42.0541 20.4779 42.1004 20.4804 42.1669 20.4657C42.1692 20.4653 42.2309 20.4501 42.1903 20.4586C42.1522 20.4666 42.2547 20.4506 42.2659 20.4492C42.279 20.4472 42.3505 20.4403 42.2751 20.4476C42.2889 20.446 42.3028 20.4444 42.3166 20.4426C42.3524 20.4382 42.3883 20.4339 42.4241 20.4311C42.5809 20.4185 42.7365 20.4114 42.8938 20.4063C43.0393 20.4015 43.1872 20.4004 43.333 20.4066C43.3953 20.4093 43.4574 20.4114 43.5196 20.4132C43.5546 20.4141 43.5397 20.4196 43.5159 20.4121C43.5287 20.416 43.5416 20.4185 43.5549 20.4219C43.5808 20.4293 43.606 20.4375 43.6312 20.4472C43.732 20.4859 43.8535 20.4128 43.8911 20.3197C43.9315 20.2184 43.8973 20.1019 43.801 20.0446Z" fill="#223A7A"/>
<path d="M44.9274 26.6373C45.1447 26.2 45.541 25.8791 45.9988 25.6728C45.6013 25.6324 43.7254 25.4587 43.2518 25.7276C42.7216 26.0288 43.3499 27.2379 44.4465 27.2984C44.5618 27.3048 44.6666 27.2957 44.7665 27.2799C44.7754 27.0591 44.8261 26.8404 44.9274 26.6373Z" fill="#223A7A"/>
<path d="M36.2598 24.0923C36.2598 24.0923 36.4496 24.8274 37.5402 25.681C38.6311 26.5347 40.2118 27.1591 40.2118 27.1591L40.3383 26.6057C40.3383 26.6057 38.7021 25.8944 37.9434 25.1119C37.1845 24.3295 37.0898 23.9025 37.0898 23.9025L36.2598 24.0923Z" fill="#DEE1EB"/>
<path d="M40.5278 26.1964C41.4057 26.1556 41.8956 26.8496 41.9568 27.2987C42.018 27.748 41.5962 28.2513 40.6094 27.8092C39.3837 27.2597 39.6501 26.2372 40.5278 26.1964Z" fill="#223A7A"/>
<path d="M36.9466 18.662C36.9466 18.662 37.3255 15.9365 39.152 14.0853C42.6378 10.5523 45.6016 10.7655 45.6016 10.7655C45.6016 10.7655 45.578 10.2676 44.4633 9.88825C43.4174 9.53204 42.9459 9.72229 42.9459 9.72229C42.9459 9.72229 40.0767 9.95931 37.6581 12.6389C35.2394 15.3186 34.9785 18.7331 34.9785 18.7331L36.9466 18.662Z" fill="#DEE1EB"/>
<path d="M36.6869 18.3301C34.4034 17.9431 33.13 19.7292 33.0351 21.5314C32.9402 23.3336 34.2498 24.7036 35.9992 24.5665C39.9354 24.258 39.485 18.8041 36.6869 18.3301Z" fill="white"/>
<path d="M35.5493 22.8151C34.9467 22.8151 34.4369 22.5123 34.1458 21.9786C33.8338 21.4072 33.8599 20.7037 34.2125 20.1866C34.2393 20.1476 34.2927 20.1373 34.3319 20.1639C34.3711 20.1907 34.3814 20.2441 34.3546 20.2835C34.038 20.7477 34.0153 21.3808 34.2968 21.8964C34.5636 22.3853 35.0349 22.6624 35.5931 22.6425C36.1148 22.6287 36.557 22.3899 36.8382 21.9704C37.1591 21.4918 37.2329 20.8305 37.0262 20.2863C36.821 19.7462 36.2587 19.3781 35.7471 19.445C35.701 19.4512 35.6568 19.4182 35.6506 19.3712C35.6444 19.3242 35.6774 19.2809 35.7244 19.2747C36.3227 19.195 36.951 19.6037 37.1871 20.2251C37.4129 20.8199 37.332 21.5427 36.981 22.066C36.6679 22.5331 36.1767 22.7988 35.5977 22.8144C35.5816 22.8149 35.5653 22.8151 35.5493 22.8151Z" fill="#818FB3"/>
<path d="M33.8884 30.2575C33.8884 30.2575 26.9642 31.9648 24.5457 34.7154C22.1269 37.4661 20.9888 51.03 20.9414 53.5434C20.8939 56.0573 22.6486 57.1007 23.6921 57.8118C24.7352 58.5233 29.3355 59.8035 33.0347 59.9937C36.7339 60.1833 40.2436 59.9937 40.2436 59.9937C40.2436 59.9937 40.2317 59.1871 40.8006 58.0016C41.3285 56.902 41.9981 56.6737 41.9981 56.6737L38.8208 55.5356C38.8208 55.5356 38.2642 45.5657 37.398 40.739C36.402 35.1897 33.8884 30.2575 33.8884 30.2575Z" fill="#223A7A"/>
<path d="M45.3656 53.9425C45.35 53.9425 45.334 53.9393 45.3193 53.9326C45.2613 53.9072 45.2352 53.8395 45.2609 53.7816C45.9096 52.3177 46.5819 49.4442 46.9603 47.4282L46.9915 47.2652C47.1061 46.6722 47.2487 45.9345 46.9642 45.4259C46.8191 45.166 46.4913 44.6025 46.1761 44.0611C45.849 43.4986 45.5405 42.9675 45.4548 42.8091C45.2877 42.4992 45.8133 41.6724 46.5748 40.5379C46.7804 40.2312 46.958 39.9665 47.0616 39.7872C47.3333 39.3178 47.1524 38.8878 46.9434 38.3897L46.8718 38.2182C46.6823 37.7529 46.4668 37.2866 46.2587 36.8358C46.1734 36.6515 46.0881 36.4674 46.0042 36.2817C45.8933 36.0369 45.7812 35.7873 45.668 35.5349C44.9979 34.0411 44.305 32.4961 43.4177 31.0039C43.3849 30.9495 43.4032 30.8792 43.4576 30.8468C43.5117 30.8147 43.5823 30.8324 43.6146 30.8867C44.5088 32.3904 45.2047 33.9414 45.8772 35.4412C45.9905 35.6935 46.1021 35.9425 46.2131 36.1873C46.2969 36.3723 46.382 36.5559 46.4668 36.7397C46.6763 37.1931 46.8925 37.6617 47.0843 38.1318L47.1547 38.3012C47.3679 38.8089 47.5884 39.3341 47.2601 39.9016C47.1526 40.088 46.9732 40.3555 46.765 40.6652C46.3685 41.2568 45.5423 42.4882 45.6565 42.6997C45.7404 42.8554 46.0485 43.3847 46.3744 43.9458C46.6903 44.4888 47.0192 45.0536 47.1646 45.3138C47.4901 45.896 47.3383 46.6793 47.2168 47.309L47.1856 47.4706C47.0479 48.2048 46.3173 51.9638 45.4708 53.8744C45.4513 53.9173 45.4092 53.9425 45.3656 53.9425Z" fill="#8593B6"/>
<path d="M38.6068 54.3457C38.5774 54.3457 38.5479 54.3344 38.5254 54.3122C37.9865 53.7689 35.3878 49.269 35.1943 48.4228C35.0882 47.9595 35.3543 46.7847 35.6113 45.6482C35.8105 44.7678 36.0166 43.8573 35.9581 43.6107C35.8703 43.2425 35.206 42.6993 34.5633 42.1744C33.7869 41.5403 32.9842 40.8843 32.8285 40.2936C32.6518 39.6222 32.8031 35.4189 32.903 32.6377C32.9388 31.6376 32.9672 30.8477 32.967 30.566C32.967 30.5028 33.0183 30.4514 33.0816 30.4514C33.1448 30.4514 33.1962 30.5025 33.1962 30.5658C33.1964 30.8519 33.168 31.6436 33.132 32.646C33.0385 35.2456 32.8822 39.5963 33.0502 40.2354C33.1868 40.7539 33.995 41.4143 34.7084 41.9969C35.4114 42.5716 36.0755 43.1139 36.1809 43.5582C36.252 43.8559 36.0587 44.7098 35.835 45.6987C35.5952 46.7584 35.3234 47.9593 35.4176 48.3721C35.6074 49.2017 38.1589 53.6174 38.6881 54.1506C38.7326 54.1957 38.7324 54.2682 38.6875 54.3126C38.6652 54.3344 38.6359 54.3457 38.6068 54.3457Z" fill="#8593B6"/>
<path d="M29.2877 52.3775C29.2824 52.3775 29.2769 52.377 29.2716 52.3764C29.2088 52.3674 29.1652 52.3094 29.174 52.2471C29.2583 51.6506 30.5738 39.7771 30.6343 38.8678C30.6385 38.8043 30.693 38.7548 30.7563 38.761C30.8193 38.7651 30.8672 38.8199 30.8631 38.8827C30.8024 39.7938 29.4852 51.682 29.4011 52.2789C29.3929 52.336 29.3438 52.3775 29.2877 52.3775Z" fill="#8593B6"/>
<path d="M38.7259 55.6023C38.7117 55.6023 38.697 55.5995 38.6828 55.594C38.3915 55.4758 37.1032 55.0416 35.4728 54.4915C32.1814 53.3816 27.6739 51.8616 26.8166 51.416C26.7605 51.3869 26.7387 51.3179 26.7678 51.2615C26.7969 51.2051 26.8659 51.1829 26.9223 51.2129C27.7638 51.65 32.447 53.2291 35.5459 54.2739C37.1803 54.8252 38.4712 55.2608 38.769 55.3811C38.8277 55.4052 38.8559 55.4719 38.832 55.5305C38.8142 55.5755 38.7711 55.6023 38.7259 55.6023Z" fill="#8593B6"/>
<path d="M37.1425 60.3302C34.2458 60.3302 28.6303 59.8083 24.3645 58.2995C24.3049 58.2782 24.2735 58.2129 24.2948 58.1528C24.3156 58.0932 24.3819 58.0621 24.4408 58.0829C29.8298 59.9894 37.3685 60.3149 38.7711 59.9999C38.833 59.9864 38.8942 60.0249 38.9082 60.0868C38.922 60.1485 38.8832 60.2099 38.8213 60.2236C38.5178 60.2917 37.9308 60.3302 37.1425 60.3302Z" fill="#8593B6"/>
<path d="M3.98968 31.8568C4.88892 32.6478 6.02793 33.1549 6.81692 34.0692C7.12728 34.4293 7.40625 34.8121 7.69461 35.1894C7.90435 35.4641 8.46434 35.92 8.55512 36.2647C8.59523 36.4169 8.58675 36.2109 8.54663 36.0584C8.54503 36.0522 8.54159 36.0458 8.53976 36.0394C8.46113 35.3405 8.40452 34.6389 8.37999 33.9358C8.35569 33.2349 8.39924 32.5307 8.35523 31.8306C8.29334 30.8431 7.98504 29.8866 7.17771 29.2679C6.78322 28.9656 6.27618 28.7813 5.91332 28.4457C5.56902 28.1271 5.70725 27.7622 5.90965 27.4069C6.09899 27.0745 6.32867 26.7476 6.40248 26.3648C6.48638 25.9297 6.32294 25.4812 6.1022 25.1105C5.63252 24.3222 4.59093 23.4429 3.60458 23.5609C2.7819 23.6593 2.68883 24.608 2.70052 25.2694C2.71198 25.9119 2.77548 26.5528 2.78167 27.196C2.78809 27.8566 2.67577 28.5046 2.66637 29.1625C2.65055 30.2811 3.16745 31.1333 3.98968 31.8568Z" fill="#6BAEFF"/>
<path d="M12.3443 42.1219C12.5947 41.525 12.8819 40.9666 13.2351 40.4235C13.7197 39.6786 14.2572 38.9526 14.5825 38.1182C14.9149 37.2664 14.866 36.3557 14.8988 35.4586C14.9229 34.7993 15.1186 34.1419 15.0659 33.4811C15.0405 33.164 14.8578 32.6513 14.4477 32.7038C14.1286 32.7446 13.9391 33.1402 13.8164 33.3926C13.6023 33.8331 13.454 34.3033 13.2949 34.7652C13.233 34.946 13.1739 35.1301 13.0953 35.3045C13.0499 35.4061 12.9046 35.6536 12.7677 35.6199C12.5348 35.5624 12.7462 34.6109 12.7808 34.4422C12.955 33.5961 13.217 32.8094 13.2532 31.9386C13.3059 30.676 13.2078 29.173 11.973 28.4828C11.65 28.3022 11.2413 28.1947 10.9346 28.4647C10.6318 28.7311 10.5463 29.1925 10.5014 29.5723C10.3636 30.7384 10.638 31.8426 11.0116 32.9396C11.3202 33.8455 11.6879 34.7803 11.7147 35.749C11.7406 36.6817 11.2555 37.5078 11.0277 38.3887C10.6648 39.7925 10.7398 40.5368 10.7382 40.9913C10.7357 41.5609 10.7565 42.1244 10.798 42.6922C10.8365 43.2143 10.8817 43.7363 10.9454 44.2559C10.9585 44.3611 10.9704 44.4707 10.9844 44.5807C10.7838 44.0975 10.7137 43.5444 10.5477 43.0589C10.2525 42.1961 9.90954 41.3517 9.62645 40.4845C9.39241 39.7682 9.17121 39.0471 8.86222 38.3585C8.57225 37.7127 8.22222 37.0294 7.68149 36.5556C7.35461 36.2691 6.95852 36.1015 6.52139 36.1047C6.24173 36.107 5.99051 36.204 5.72369 36.2741C5.39498 36.361 5.13642 36.331 4.86617 36.1233C3.98113 35.443 3.71203 34.2233 3.05668 33.3619C2.5682 32.7193 1.40856 31.6243 0.55608 32.3249C0.103822 32.6964 -0.0208755 33.4148 0.00273452 33.9652C0.0325336 34.6561 0.334421 35.2878 0.693843 35.8652C1.07619 36.4795 1.56993 37.0292 1.9211 37.6607C2.12901 38.0337 2.16133 38.3915 2.12832 38.8121C2.09738 39.2082 2.06276 39.5919 2.19778 39.9745C2.6035 41.1229 3.87042 40.9624 4.85585 40.9922C5.54512 41.0131 6.28483 41.1158 6.93949 41.3363C7.69593 41.5912 8.18807 42.0834 8.45855 42.8318C8.65408 43.373 8.75884 43.9882 9.12743 44.448C9.30095 44.6644 9.53017 44.8242 9.78255 44.9358C10.1667 45.1057 11.3383 45.1797 11.347 45.0727C11.3759 44.7146 11.546 44.3364 11.6521 43.9969C11.8517 43.3594 12.086 42.7378 12.3443 42.1219Z" fill="#6BAEFF"/>
<path d="M17.7851 41.9055C17.6833 41.2492 17.7028 40.5254 17.3919 39.923C17.3697 39.8796 17.3108 39.8686 17.2707 39.8909C17.0481 40.0144 17.0387 40.3741 17.0206 40.5946C16.9903 40.9606 17.0128 41.3274 16.9679 41.6921C16.8888 42.333 16.7407 42.9936 16.5099 43.5979C16.2486 44.2809 15.7736 44.6688 15.0834 44.882C14.6401 45.019 14.2053 45.1385 13.8353 45.4326C13.5038 45.6957 13.2737 46.059 13.1032 46.4418C12.6424 47.4752 12.4231 48.6298 12.2094 49.7333C12.0657 50.4766 11.9486 51.223 11.7679 51.9588C11.5875 52.6939 11.3941 53.4256 11.2905 54.1765C11.273 54.2143 11.2545 54.2519 11.2384 54.2902C11.1912 54.4028 11.3668 54.4633 11.4275 54.37C12.1397 53.2738 13.0073 52.2898 14.1911 51.6858C14.7256 51.4135 15.4357 51.3564 15.8816 50.928C16.2208 50.602 16.2674 50.1048 16.2167 49.6615C16.1502 49.079 15.871 48.5995 15.5802 48.1032C15.4206 47.8309 15.232 47.5384 15.2964 47.2072C15.3571 46.8948 15.6171 46.6651 15.8749 46.5046C16.3671 46.1991 16.9424 46.0618 17.3454 45.6212C17.7197 45.2125 17.9272 44.7032 17.9687 44.1526C18.0239 43.4184 17.8974 42.6305 17.7851 41.9055Z" fill="#6BAEFF"/>
<path d="M8.0734 45.6906C7.44487 44.8813 6.68637 44.1828 5.83297 43.6159C5.37751 43.3136 4.30314 42.7167 4.08629 43.6091C3.95907 44.1319 4.47093 44.6463 4.80766 44.9741C5.31378 45.4665 5.89922 45.8917 6.32626 46.4595C5.79744 46.6277 5.24502 46.6607 4.78565 47.0263C4.2417 47.4593 3.99781 48.2951 4.53694 48.8253C4.79986 49.0838 5.14828 49.2422 5.47561 49.4011C5.90105 49.6067 6.33428 49.7935 6.77027 49.9757C7.71192 50.3691 8.66549 50.7679 9.46846 51.4125C10.2868 52.069 11.0563 53.1791 11.1212 54.2503C11.1276 54.3525 11.0886 54.2595 11.1496 54.2129C11.183 54.243 11.2954 54.1891 11.2947 54.1295C11.2779 52.5396 10.9923 51.0263 10.3427 49.5703C9.74054 48.2201 8.98113 46.8601 8.0734 45.6906Z" fill="#6BAEFF"/>
<path d="M5.90229 30.8936C6.24911 31.6131 6.61151 32.3161 6.99637 33.018C7.36703 33.6935 7.73699 34.3638 8.01413 35.0845C8.35544 35.9718 8.71326 36.8463 9.07405 37.7256C9.44906 38.6395 9.78442 39.571 10.0531 40.5219C10.578 42.3786 10.9679 44.2892 11.1607 46.2091C11.2588 47.1856 11.3033 48.1678 11.2764 49.1489C11.2556 49.9154 11.1692 50.6737 11.097 51.4363C11.022 52.2299 10.9681 53.0329 11.0344 53.8292C11.0898 54.4946 11.1957 55.2859 11.7124 55.7609C11.8135 55.8542 11.9565 55.7382 11.8979 55.6178C11.2842 54.3589 11.3184 52.9866 11.436 51.6215C11.5006 50.8679 11.5905 50.1178 11.6159 49.3616C11.6482 48.3991 11.6104 47.4348 11.5199 46.4762C11.3418 44.592 10.9661 42.73 10.4787 40.9026C10.2289 39.9655 9.91943 39.0468 9.56322 38.1451C9.20609 37.241 8.79348 36.3619 8.44759 35.4533C7.82158 33.8107 6.86755 32.354 6.02286 30.8227C5.97885 30.7432 5.86378 30.8136 5.90229 30.8936Z" fill="#43578E"/>
<path d="M11.1895 44.327C11.2888 43.1307 11.3947 41.9786 11.7981 40.8373C11.9861 40.305 12.2139 39.7874 12.3955 39.2531C12.5456 38.8114 12.77 38.2058 12.6545 37.7363C12.6414 37.6841 12.5651 37.6866 12.5509 37.7363C12.4736 38.0045 12.4821 38.2986 12.4264 38.5735C12.3723 38.841 12.3001 39.1039 12.2169 39.3641C12.04 39.9169 11.8087 40.4467 11.6083 40.9909C11.2212 42.0421 11.0224 43.2065 11.1072 44.327C11.1111 44.3799 11.185 44.3799 11.1895 44.327Z" fill="#43578E"/>
<path d="M4.25664 37.4514C4.73159 38.5987 6.15896 38.665 7.19872 38.9219C7.9414 39.1053 8.48925 39.6007 8.88305 40.2441C9.31376 40.9471 9.60533 41.7735 9.84487 42.5583C9.84762 42.5673 9.86069 42.5638 9.85862 42.5546C9.56774 41.1798 9.15124 39.5236 7.73373 38.8839C6.59769 38.3716 5.1011 38.629 4.37446 37.4017C4.3387 37.3419 4.22798 37.3822 4.25664 37.4514Z" fill="#43578E"/>
<path d="M10.4385 44.1454C10.4948 44.2218 10.5466 44.3018 10.6051 44.3762C10.634 44.4134 10.6631 44.4482 10.6995 44.478C10.7369 44.5085 10.7807 44.5463 10.8318 44.5454C10.8531 44.545 10.868 44.5216 10.8566 44.5023C10.8329 44.464 10.7905 44.4407 10.7575 44.4116C10.7236 44.3815 10.6888 44.352 10.6558 44.321C10.5895 44.2582 10.5288 44.1899 10.4637 44.1255C10.4513 44.1136 10.4272 44.1305 10.4385 44.1454Z" fill="#43578E"/>
<path d="M7.46808 47.7848C8.2871 48.4576 9.04308 49.2528 9.64341 50.1245C9.9304 50.5412 10.1952 50.9822 10.4356 51.4279C10.6981 51.914 10.8702 52.4277 11.0758 52.938C11.0914 52.9767 11.162 52.9776 11.1567 52.9272C11.043 51.8485 10.3595 50.9233 9.81235 50.0257C9.52811 49.5595 9.17465 49.1838 8.7946 48.7948C8.40194 48.3932 8.00217 48.0133 7.54189 47.6895C7.48596 47.6498 7.41467 47.7408 7.46808 47.7848Z" fill="#43578E"/>
<path d="M13.9912 46.5147C13.5965 46.7386 13.5839 47.3614 13.5761 47.7596C13.5612 48.5241 13.7505 49.242 13.4149 49.9705C13.1119 50.6286 12.6278 51.1783 12.2471 51.7894C11.8906 52.361 11.5392 53.0925 11.547 53.7808C11.5475 53.8205 11.6087 53.8432 11.6272 53.8026C11.7707 53.4902 11.8223 53.1349 11.925 52.8073C12.0405 52.4392 12.2021 52.1048 12.4109 51.7806C12.7772 51.2129 13.227 50.6964 13.5241 50.0858C13.8372 49.4423 13.7913 48.8051 13.7707 48.108C13.7574 47.6638 13.7129 46.9493 14.0714 46.6188C14.1276 46.5672 14.0559 46.4783 13.9912 46.5147Z" fill="#43578E"/>
<path d="M11.3527 53.8515C9.76345 53.8295 6.73633 53.8121 6.73633 53.8121L7.48543 59.3737C7.65391 60.6246 8.72186 61.5582 9.98442 61.5582H11.2896H11.4157H12.7209C13.9835 61.5582 15.0512 60.6246 15.2197 59.3737L15.9688 53.8121C15.969 53.8123 12.9421 53.8297 11.3527 53.8515Z" fill="white"/>
<path d="M88.1669 43.6313L79.1005 61.59L52.6689 61.7798L60.8261 43.3784L88.1669 43.6313Z" fill="#F6F7FA"/>
<path d="M35.126 61.6677L35.131 60.2303H52.2416L60.1143 42.9673H87.4788L88.1666 43.6311H61.4342L53.2534 61.6531C53.2534 61.6535 35.126 61.6205 35.126 61.6677Z" fill="#DADEE8"/>
<path d="M74.4415 53.5413C74.1426 54.4371 72.5222 55.1291 70.8216 55.0863C69.121 55.0439 67.9845 54.2831 68.2829 53.3873C68.5816 52.4917 70.2022 51.7999 71.9028 51.8425C73.6034 51.8852 74.7399 52.646 74.4415 53.5413Z" fill="#DADEE8"/>
<path d="M53.2542 61.7679C53.2384 61.7679 53.2219 61.7645 53.2068 61.7576C53.1492 61.7315 53.1238 61.6636 53.1499 61.6058L61.3609 43.5169H88.1672C88.2305 43.5169 88.2818 43.5685 88.2818 43.6315C88.2818 43.6948 88.2305 43.7461 88.1672 43.7461H61.509L53.3585 61.7007C53.3395 61.7429 53.2973 61.7679 53.2542 61.7679Z" fill="white"/>
<path d="M33.9362 63.0287H2.49316V70H33.9362V63.0287Z" fill="#596B9B"/>
<path d="M90.3282 63.0287H33.7559V70H90.3282V63.0287Z" fill="#7A89AF"/>
<path d="M33.9362 63.0287H33.7565H2.49316V64.3089H33.7565H33.9362H90.3288V63.0287H33.9362Z" fill="#BDC4D7"/>
<path d="M35.3107 61.6533H0.974609V63.3605H35.3107V61.6533Z" fill="#6F7FA9"/>
<path d="M91.7039 61.6533H35.1318V63.3605H91.7039V61.6533Z" fill="#9CA6C3"/>
<path d="M25.997 25.0759H14.8971C14.2103 25.0759 13.6533 24.5191 13.6533 23.8321V18.2906C13.6533 17.6039 14.2103 17.0469 14.8971 17.0469H25.997C26.684 17.0469 27.2408 17.6039 27.2408 18.2906V23.8321C27.2408 24.5191 26.684 25.0759 25.997 25.0759Z" fill="white"/>
<path d="M30.4042 21.0615L26.2354 19.3024V22.8205L30.4042 21.0615Z" fill="white"/>
<path d="M18.5817 21.0615C18.5817 21.4856 18.2379 21.8294 17.8138 21.8294C17.3897 21.8294 17.0459 21.4856 17.0459 21.0615C17.0459 20.6372 17.3897 20.2936 17.8138 20.2936C18.2379 20.2936 18.5817 20.6372 18.5817 21.0615Z" fill="#223A7A"/>
<path d="M21.2155 21.0615C21.2155 21.4856 20.8717 21.8294 20.4476 21.8294C20.0235 21.8294 19.6797 21.4856 19.6797 21.0615C19.6797 20.6372 20.0235 20.2936 20.4476 20.2936C20.8717 20.2936 21.2155 20.6372 21.2155 21.0615Z" fill="#223A7A"/>
<path d="M23.8483 21.0615C23.8483 21.4856 23.5045 21.8294 23.0804 21.8294C22.6563 21.8294 22.3125 21.4856 22.3125 21.0615C22.3125 20.6372 22.6563 20.2936 23.0804 20.2936C23.5045 20.2936 23.8483 20.6372 23.8483 21.0615Z" fill="#223A7A"/>
<path d="M82.5068 0H56.8813C55.2352 0 53.9014 1.33408 53.9014 2.9799V15.1368C53.9014 16.7824 55.2352 18.1167 56.8813 18.1167H59.1783C59.2427 19.2185 59.0848 20.8579 58.1647 22.954C61.1253 21.5883 62.8301 19.5376 63.7206 18.1167H82.5068C84.1527 18.1167 85.4867 16.7824 85.4867 15.1368V2.9799C85.4867 1.33408 84.1527 0 82.5068 0Z" fill="#60A8FF"/>
<path d="M71.576 5.79383H58.8658C58.5165 5.79383 58.2334 5.51074 58.2334 5.16163C58.2334 4.8123 58.5163 4.52921 58.8658 4.52921H71.5758C71.9247 4.52921 72.2082 4.8123 72.2082 5.16163C72.2082 5.51074 71.9249 5.79383 71.576 5.79383Z" fill="white"/>
<path d="M80.6895 9.47721H58.6208C58.4069 9.47721 58.2334 9.30392 58.2334 9.09006C58.2334 8.87596 58.4071 8.70267 58.6208 8.70267H80.6895C80.9034 8.70267 81.0764 8.87596 81.0764 9.09006C81.0766 9.30392 80.9034 9.47721 80.6895 9.47721Z" fill="#D2E6FF"/>
<path d="M80.6895 11.6273H58.6208C58.4069 11.6273 58.2334 11.454 58.2334 11.2399C58.2334 11.0261 58.4071 10.8528 58.6208 10.8528H80.6895C80.9034 10.8528 81.0764 11.0261 81.0764 11.2399C81.0766 11.4538 80.9034 11.6273 80.6895 11.6273Z" fill="#D2E6FF"/>
<path d="M75.8751 13.9196H58.6206C58.4067 13.9196 58.2334 13.746 58.2334 13.5322C58.2334 13.3183 58.4069 13.145 58.6206 13.145H75.8751C76.0892 13.145 76.2623 13.3183 76.2623 13.5322C76.2625 13.7458 76.0892 13.9196 75.8751 13.9196Z" fill="#D2E6FF"/>
<path d="M80.5162 5.79383H74.4527C74.1034 5.79383 73.8203 5.51074 73.8203 5.16163C73.8203 4.8123 74.1032 4.52921 74.4527 4.52921H80.5159C80.8648 4.52921 81.1481 4.8123 81.1481 5.16163C81.1481 5.51074 80.865 5.79383 80.5162 5.79383Z" fill="white"/>
<path d="M65.2338 33.7513H58.3491C58.0958 33.7513 57.8906 33.5459 57.8906 33.2928V28.5896C57.8906 28.3366 58.0958 28.1312 58.3491 28.1312H65.2336C65.4866 28.1312 65.692 28.3366 65.692 28.5896V33.2928C65.6922 33.5459 65.4866 33.7513 65.2338 33.7513Z" fill="white"/>
<path d="M61.8399 31.7812C61.8011 31.7812 61.7619 31.7681 61.7301 31.7417L57.9834 28.6472C57.91 28.5867 57.9 28.4783 57.96 28.4052C58.0212 28.3318 58.1292 28.322 58.2023 28.382L61.8364 31.3839L65.3781 28.302C65.4499 28.2399 65.5585 28.2472 65.6207 28.319C65.6832 28.3905 65.6754 28.4992 65.6042 28.5615L61.9522 31.739C61.9205 31.767 61.8802 31.7812 61.8399 31.7812Z" fill="#6F7FA9"/>
<path d="M58.093 33.6229C58.0501 33.6229 58.0077 33.6073 57.9743 33.5755C57.9055 33.5101 57.9028 33.4013 57.9685 33.3325L60.589 30.5777C60.6539 30.5089 60.7632 30.5059 60.8318 30.5715C60.901 30.6371 60.9035 30.7459 60.838 30.8147L58.2175 33.5695C58.1838 33.605 58.1384 33.6229 58.093 33.6229Z" fill="#6F7FA9"/>
<path d="M65.4918 33.5221C65.4477 33.5221 65.4033 33.5054 65.37 33.4717L62.7601 30.8546C62.6932 30.7872 62.6932 30.6783 62.7606 30.6114C62.828 30.5443 62.9368 30.5445 63.0038 30.6116L65.6135 33.2287C65.6804 33.2961 65.6804 33.405 65.613 33.4719C65.5793 33.5054 65.5353 33.5221 65.4918 33.5221Z" fill="#6F7FA9"/>
<path d="M68.351 27.9575C68.351 29.2278 67.3214 30.2577 66.051 30.2577C64.7806 30.2577 63.751 29.2278 63.751 27.9575C63.751 26.6871 64.7806 25.6574 66.051 25.6574C67.3214 25.6574 68.351 26.6871 68.351 27.9575Z" fill="#FF5F42"/>
<path d="M69.0666 33.9174L69.0426 33.6414C69.3466 33.7774 69.6106 33.9534 69.8346 34.1694C70.0586 34.3854 70.2306 34.6214 70.3506 34.8774C70.4706 35.1334 70.5306 35.3974 70.5306 35.6694C70.5306 36.1254 70.4026 36.5454 70.1466 36.9294C69.8986 37.3054 69.5626 37.6094 69.1386 37.8414C68.7146 38.0654 68.2426 38.1774 67.7226 38.1774C67.2026 38.1774 66.7306 38.0654 66.3066 37.8414C65.8826 37.6094 65.5426 37.3054 65.2866 36.9294C65.0386 36.5454 64.9146 36.1254 64.9146 35.6694C64.9146 35.3014 64.9906 34.9854 65.1426 34.7214C65.3026 34.4494 65.4986 34.2214 65.7306 34.0374C65.9706 33.8534 66.2066 33.7014 66.4386 33.5814L66.3426 33.9174C66.1426 33.8374 65.9466 33.7254 65.7546 33.5814C65.5706 33.4294 65.4186 33.2374 65.2986 33.0054C65.1786 32.7734 65.1186 32.5014 65.1186 32.1894C65.1186 31.7414 65.2346 31.3374 65.4666 30.9774C65.6986 30.6094 66.0106 30.3174 66.4026 30.1014C66.8026 29.8854 67.2426 29.7774 67.7226 29.7774C68.2106 29.7774 68.6466 29.8854 69.0306 30.1014C69.4226 30.3174 69.7346 30.6094 69.9666 30.9774C70.1986 31.3374 70.3146 31.7414 70.3146 32.1894C70.3146 32.5334 70.2466 32.8214 70.1106 33.0534C69.9746 33.2854 69.8106 33.4694 69.6186 33.6054C69.4266 33.7414 69.2426 33.8454 69.0666 33.9174ZM66.5586 32.2134C66.5586 32.4294 66.6066 32.6214 66.7026 32.7894C66.8066 32.9574 66.9466 33.0934 67.1226 33.1974C67.2986 33.2934 67.4986 33.3414 67.7226 33.3414C67.9466 33.3414 68.1426 33.2934 68.3106 33.1974C68.4866 33.0934 68.6226 32.9574 68.7186 32.7894C68.8226 32.6214 68.8746 32.4294 68.8746 32.2134C68.8746 31.8934 68.7626 31.6294 68.5386 31.4214C68.3226 31.2054 68.0506 31.0974 67.7226 31.0974C67.3866 31.0974 67.1066 31.2054 66.8826 31.4214C66.6666 31.6294 66.5586 31.8934 66.5586 32.2134ZM67.7226 36.8574C68.1066 36.8574 68.4306 36.7414 68.6946 36.5094C68.9586 36.2694 69.0906 35.9814 69.0906 35.6454C69.0906 35.4134 69.0306 35.2054 68.9106 35.0214C68.7906 34.8374 68.6266 34.6934 68.4186 34.5894C68.2106 34.4774 67.9786 34.4214 67.7226 34.4214C67.4666 34.4214 67.2346 34.4774 67.0266 34.5894C66.8186 34.6934 66.6546 34.8374 66.5346 35.0214C66.4146 35.2054 66.3546 35.4134 66.3546 35.6454C66.3546 35.9814 66.4866 36.2694 66.7506 36.5094C67.0146 36.7414 67.3386 36.8574 67.7226 36.8574ZM67.3266 53.2974C67.0306 53.2974 66.7146 53.2534 66.3786 53.1654C66.0426 53.0694 65.7666 52.9334 65.5506 52.7574C65.4466 52.6694 65.3626 52.5574 65.2986 52.4214C65.2426 52.2774 65.2146 52.1414 65.2146 52.0134C65.2146 51.8774 65.2706 51.7494 65.3826 51.6294C65.5026 51.5094 65.6706 51.4494 65.8866 51.4494C66.0306 51.4494 66.2106 51.5254 66.4266 51.6774C66.5546 51.7574 66.6946 51.8294 66.8466 51.8934C66.9986 51.9574 67.1546 51.9894 67.3146 51.9894C67.6986 51.9894 68.0306 51.9214 68.3106 51.7854C68.5906 51.6414 68.8066 51.4454 68.9586 51.1974C69.1106 50.9494 69.1866 50.6574 69.1866 50.3214C69.1866 50.0174 69.1146 49.7574 68.9706 49.5414C68.8346 49.3254 68.6506 49.1574 68.4186 49.0374C68.1946 48.9174 67.9506 48.8574 67.6866 48.8574C67.4386 48.8574 67.2226 48.8974 67.0386 48.9774C66.8546 49.0574 66.6866 49.1414 66.5346 49.2294C66.3826 49.3094 66.2306 49.3494 66.0786 49.3494C65.8146 49.3494 65.6186 49.2934 65.4906 49.1814C65.3626 49.0614 65.2826 48.9214 65.2506 48.7614C65.2186 48.6014 65.2106 48.4574 65.2266 48.3294L65.5986 45.4134C65.6306 45.2454 65.7106 45.1094 65.8386 45.0054C65.9746 44.8934 66.1346 44.8374 66.3186 44.8374H69.7866C69.9786 44.8374 70.1386 44.9014 70.2666 45.0294C70.3946 45.1574 70.4586 45.3174 70.4586 45.5094C70.4586 45.6934 70.3946 45.8494 70.2666 45.9774C70.1386 46.0974 69.9786 46.1574 69.7866 46.1574H66.6906L66.8226 46.0494L66.4986 48.4854L66.3426 48.0294C66.3906 47.9494 66.4946 47.8734 66.6546 47.8014C66.8146 47.7294 66.9986 47.6694 67.2066 47.6214C67.4146 47.5654 67.6186 47.5374 67.8186 47.5374C68.3546 47.5374 68.8346 47.6614 69.2586 47.9094C69.6826 48.1494 70.0146 48.4814 70.2546 48.9054C70.5026 49.3214 70.6266 49.7934 70.6266 50.3214C70.6266 50.9214 70.4906 51.4454 70.2186 51.8934C69.9466 52.3414 69.5626 52.6894 69.0666 52.9374C68.5786 53.1774 67.9986 53.2974 67.3266 53.2974Z" fill="white"/>
<path d="M89.153 27.1109H75.7157C75.2094 27.1109 74.7988 26.7004 74.7988 26.194V24.0916C74.7988 23.5853 75.2094 23.1747 75.7157 23.1747H89.153C89.6594 23.1747 90.0699 23.5853 90.0699 24.0916V26.194C90.0699 26.7004 89.6594 27.1109 89.153 27.1109Z" fill="#223A7A"/>
<path d="M76.6854 26.1748C76.6247 26.1748 76.5763 26.1535 76.5398 26.1104C76.5034 26.0675 76.4874 26.0137 76.4915 25.9493L76.5495 25.4395C76.5541 25.4266 76.552 25.4181 76.5435 25.4138C76.5346 25.4094 76.524 25.4115 76.5107 25.4202L76.0915 25.7232C76.0399 25.762 75.986 25.7762 75.9303 25.7652C75.8746 25.7546 75.8295 25.7212 75.7946 25.6652C75.7559 25.5965 75.7488 25.5362 75.7722 25.4846C75.7956 25.433 75.8357 25.3966 75.8914 25.3751L76.3627 25.1621C76.3755 25.1578 76.3821 25.1513 76.3821 25.1429C76.3821 25.1341 76.3755 25.1277 76.3627 25.1234L75.8914 24.9104C75.8311 24.8847 75.7923 24.8439 75.7754 24.788C75.7584 24.7321 75.7646 24.6762 75.7946 24.6202C75.8292 24.5643 75.8746 24.5311 75.9303 24.52C75.986 24.5095 76.0401 24.5214 76.0915 24.5558L76.5107 24.8655C76.524 24.874 76.5346 24.876 76.5435 24.8717C76.552 24.8676 76.5541 24.8588 76.5495 24.846L76.4915 24.3362C76.4871 24.2718 76.5045 24.2179 76.5435 24.1751C76.5822 24.132 76.6336 24.1107 76.6982 24.1107C76.7583 24.1107 76.8078 24.132 76.8463 24.1751C76.8851 24.2179 76.9 24.2718 76.8912 24.3362L76.8332 24.846C76.8291 24.8588 76.8312 24.8676 76.8399 24.8717C76.8484 24.876 76.8594 24.874 76.8722 24.8655L77.2917 24.5622C77.343 24.5233 77.3978 24.5095 77.4561 24.52C77.514 24.5311 77.5581 24.5643 77.5881 24.6202C77.6268 24.689 77.6346 24.7493 77.6105 24.8008C77.5872 24.8524 77.5475 24.8891 77.4913 24.9104L77.0205 25.1234C77.0075 25.1277 77.0013 25.1341 77.0013 25.1429C77.0013 25.1513 77.0075 25.1578 77.0205 25.1621L77.4913 25.3751C77.5516 25.4007 77.5915 25.4418 77.6105 25.4975C77.63 25.5536 77.6229 25.6095 77.5881 25.6652C77.5581 25.7212 77.514 25.7546 77.4561 25.7652C77.3978 25.7762 77.343 25.764 77.2917 25.7299L76.8722 25.4202C76.8594 25.4115 76.8484 25.4094 76.8399 25.4138C76.8312 25.4181 76.8291 25.4266 76.8332 25.4395L76.8912 25.9493C76.9 26.0137 76.8839 26.0675 76.8431 26.1104C76.8021 26.1535 76.7494 26.1748 76.6854 26.1748Z" fill="white"/>
<path d="M79.4645 26.1748C79.404 26.1748 79.3556 26.1535 79.3191 26.1104C79.2827 26.0675 79.2666 26.0137 79.2705 25.9493L79.3288 25.4395C79.3333 25.4266 79.3311 25.4181 79.3226 25.4138C79.3139 25.4094 79.3033 25.4115 79.29 25.4202L78.871 25.7232C78.8192 25.762 78.7653 25.7762 78.7096 25.7652C78.6539 25.7546 78.6088 25.7212 78.5739 25.6652C78.5352 25.5965 78.5281 25.5362 78.5515 25.4846C78.5749 25.433 78.6147 25.3966 78.6709 25.3751L79.1419 25.1621C79.1548 25.1578 79.1614 25.1513 79.1614 25.1429C79.1614 25.1341 79.1548 25.1277 79.1419 25.1234L78.6709 24.9104C78.6104 24.8847 78.5716 24.8439 78.5545 24.788C78.5377 24.7321 78.5439 24.6762 78.5739 24.6202C78.6085 24.5643 78.6539 24.5311 78.7096 24.52C78.7653 24.5095 78.8194 24.5214 78.871 24.5558L79.29 24.8655C79.3033 24.874 79.3139 24.876 79.3226 24.8717C79.3311 24.8676 79.3333 24.8588 79.3288 24.846L79.2705 24.3362C79.2664 24.2718 79.2838 24.2179 79.3226 24.1751C79.3613 24.132 79.4127 24.1107 79.4775 24.1107C79.5376 24.1107 79.5871 24.132 79.6258 24.1751C79.6646 24.2179 79.6792 24.2718 79.6705 24.3362L79.6125 24.846C79.6082 24.8588 79.6105 24.8676 79.6192 24.8717C79.6277 24.876 79.6387 24.874 79.6513 24.8655L80.0708 24.5622C80.1223 24.5233 80.1771 24.5095 80.2351 24.52C80.2931 24.5311 80.3373 24.5643 80.3674 24.6202C80.4059 24.689 80.4137 24.7493 80.3901 24.8008C80.3665 24.8524 80.3268 24.8891 80.2706 24.9104L79.7998 25.1234C79.7865 25.1277 79.7806 25.1341 79.7806 25.1429C79.7806 25.1513 79.7865 25.1578 79.7998 25.1621L80.2706 25.3751C80.3307 25.4007 80.371 25.4418 80.3901 25.4975C80.4096 25.5536 80.4022 25.6095 80.3674 25.6652C80.3373 25.7212 80.2931 25.7546 80.2351 25.7652C80.1771 25.7762 80.1223 25.764 80.0708 25.7299L79.6513 25.4202C79.6387 25.4115 79.6277 25.4094 79.6192 25.4138C79.6105 25.4181 79.6082 25.4266 79.6125 25.4395L79.6705 25.9493C79.6792 26.0137 79.6632 26.0675 79.6222 26.1104C79.5814 26.1535 79.5287 26.1748 79.4645 26.1748Z" fill="white"/>
<path d="M82.2439 26.1748C82.1834 26.1748 82.1348 26.1535 82.0984 26.1104C82.0619 26.0675 82.0459 26.0137 82.05 25.9493L82.1082 25.4395C82.1126 25.4266 82.1105 25.4181 82.102 25.4138C82.0933 25.4094 82.0826 25.4115 82.0695 25.4202L81.65 25.7232C81.5984 25.762 81.5446 25.7762 81.4891 25.7652C81.4332 25.7546 81.388 25.7212 81.3534 25.6652C81.3144 25.5965 81.3073 25.5362 81.3309 25.4846C81.3545 25.433 81.3942 25.3966 81.4504 25.3751L81.9214 25.1621C81.934 25.1578 81.9407 25.1513 81.9407 25.1429C81.9407 25.1341 81.934 25.1277 81.9214 25.1234L81.4504 24.9104C81.3898 24.8847 81.3509 24.8439 81.3339 24.788C81.3172 24.7321 81.3234 24.6762 81.3534 24.6202C81.3878 24.5643 81.4332 24.5311 81.4891 24.52C81.5446 24.5095 81.5987 24.5214 81.65 24.5558L82.0695 24.8655C82.0826 24.874 82.0933 24.876 82.102 24.8717C82.1105 24.8676 82.1126 24.8588 82.1082 24.846L82.05 24.3362C82.0456 24.2718 82.0633 24.2179 82.102 24.1751C82.1408 24.132 82.1921 24.1107 82.257 24.1107C82.3171 24.1107 82.3663 24.132 82.4051 24.1751C82.4443 24.2179 82.4589 24.2718 82.45 24.3362L82.3922 24.846C82.3879 24.8588 82.3899 24.8676 82.3989 24.8717C82.4074 24.876 82.4181 24.874 82.431 24.8655L82.8505 24.5622C82.902 24.5233 82.9566 24.5095 83.0148 24.52C83.0728 24.5311 83.117 24.5643 83.1471 24.6202C83.1856 24.689 83.1934 24.7493 83.1698 24.8008C83.1462 24.8524 83.1063 24.8891 83.0503 24.9104L82.5795 25.1234C82.5662 25.1277 82.56 25.1341 82.56 25.1429C82.56 25.1513 82.5662 25.1578 82.5795 25.1621L83.0503 25.3751C83.1104 25.4007 83.1505 25.4418 83.1698 25.4975C83.189 25.5536 83.1817 25.6095 83.1471 25.6652C83.117 25.7212 83.0728 25.7546 83.0148 25.7652C82.9566 25.7762 82.902 25.764 82.8505 25.7299L82.431 25.4202C82.4181 25.4115 82.4074 25.4094 82.3989 25.4138C82.3899 25.4181 82.3879 25.4266 82.3922 25.4395L82.45 25.9493C82.4589 26.0137 82.4427 26.0675 82.4019 26.1104C82.3608 26.1535 82.3079 26.1748 82.2439 26.1748Z" fill="white"/>
<path d="M85.0231 26.1748C84.9625 26.1748 84.9142 26.1535 84.8777 26.1104C84.8413 26.0675 84.8252 26.0137 84.8294 25.9493L84.8874 25.4395C84.8919 25.4266 84.8899 25.4181 84.8812 25.4138C84.8725 25.4094 84.8619 25.4115 84.8486 25.4202L84.4294 25.7232C84.3778 25.762 84.3239 25.7762 84.2682 25.7652C84.2125 25.7546 84.1674 25.7212 84.1325 25.6652C84.0938 25.5965 84.0867 25.5362 84.1101 25.4846C84.1334 25.433 84.1736 25.3966 84.2295 25.3751L84.7005 25.1621C84.7134 25.1578 84.72 25.1513 84.72 25.1429C84.72 25.1341 84.7134 25.1277 84.7005 25.1234L84.2295 24.9104C84.169 24.8847 84.1302 24.8439 84.1133 24.788C84.0963 24.7321 84.1025 24.6762 84.1325 24.6202C84.1671 24.5643 84.2125 24.5311 84.2682 24.52C84.3239 24.5095 84.378 24.5214 84.4294 24.5558L84.8486 24.8655C84.8619 24.874 84.8725 24.876 84.8812 24.8717C84.8899 24.8676 84.8919 24.8588 84.8874 24.846L84.8294 24.3362C84.825 24.2718 84.8424 24.2179 84.8812 24.1751C84.9201 24.132 84.9715 24.1107 85.0361 24.1107C85.0962 24.1107 85.1457 24.132 85.1842 24.1751C85.2232 24.2179 85.2378 24.2718 85.2291 24.3362L85.1711 24.846C85.167 24.8588 85.1691 24.8676 85.1778 24.8717C85.1863 24.876 85.1973 24.874 85.2101 24.8655L85.6294 24.5622C85.6812 24.5233 85.7357 24.5095 85.7939 24.52C85.8517 24.5311 85.8959 24.5643 85.926 24.6202C85.9647 24.689 85.9725 24.7493 85.9487 24.8008C85.9251 24.8524 85.8854 24.8891 85.8292 24.9104L85.3584 25.1234C85.3454 25.1277 85.3392 25.1341 85.3392 25.1429C85.3392 25.1513 85.3454 25.1578 85.3584 25.1621L85.8292 25.3751C85.8895 25.4007 85.9296 25.4418 85.9487 25.4975C85.9681 25.5536 85.9608 25.6095 85.926 25.6652C85.8959 25.7212 85.8517 25.7546 85.7939 25.7652C85.7357 25.7762 85.6812 25.764 85.6294 25.7299L85.2101 25.4202C85.1973 25.4115 85.1863 25.4094 85.1778 25.4138C85.1691 25.4181 85.167 25.4266 85.1711 25.4395L85.2291 25.9493C85.2378 26.0137 85.2218 26.0675 85.181 26.1104C85.14 26.1535 85.0872 26.1748 85.0231 26.1748Z" fill="white"/>
<path d="M87.8024 26.1748C87.7418 26.1748 87.6935 26.1535 87.657 26.1104C87.6206 26.0675 87.6045 26.0137 87.6084 25.9493L87.6667 25.4395C87.6712 25.4266 87.669 25.4181 87.6605 25.4138C87.6518 25.4094 87.6412 25.4115 87.6279 25.4202L87.2087 25.7232C87.1571 25.762 87.1032 25.7762 87.0475 25.7652C86.9918 25.7546 86.9467 25.7212 86.9118 25.6652C86.8731 25.5965 86.866 25.5362 86.8894 25.4846C86.9127 25.433 86.9526 25.3966 87.0088 25.3751L87.4798 25.1621C87.4927 25.1578 87.4993 25.1513 87.4993 25.1429C87.4993 25.1341 87.4927 25.1277 87.4798 25.1234L87.0088 24.9104C86.9483 24.8847 86.9095 24.8439 86.8923 24.788C86.8756 24.7321 86.8818 24.6762 86.9118 24.6202C86.9464 24.5643 86.9918 24.5311 87.0475 24.52C87.1032 24.5095 87.1573 24.5214 87.2087 24.5558L87.6279 24.8655C87.6412 24.874 87.6518 24.876 87.6605 24.8717C87.669 24.8676 87.6712 24.8588 87.6667 24.846L87.6084 24.3362C87.6043 24.2718 87.6217 24.2179 87.6605 24.1751C87.6992 24.132 87.7506 24.1107 87.8154 24.1107C87.8755 24.1107 87.925 24.132 87.9635 24.1751C88.0025 24.2179 88.0171 24.2718 88.0084 24.3362L87.9504 24.846C87.9461 24.8588 87.9484 24.8676 87.9571 24.8717C87.9656 24.876 87.9763 24.874 87.9892 24.8655L88.4087 24.5622C88.46 24.5233 88.515 24.5095 88.573 24.52C88.631 24.5311 88.6752 24.5643 88.7053 24.6202C88.7438 24.689 88.7516 24.7493 88.728 24.8008C88.7043 24.8524 88.6647 24.8891 88.6085 24.9104L88.1377 25.1234C88.1244 25.1277 88.1182 25.1341 88.1182 25.1429C88.1182 25.1513 88.1244 25.1578 88.1377 25.1621L88.6085 25.3751C88.6686 25.4007 88.7089 25.4418 88.728 25.4975C88.7474 25.5536 88.7401 25.6095 88.7053 25.6652C88.6752 25.7212 88.631 25.7546 88.573 25.7652C88.515 25.7762 88.46 25.764 88.4087 25.7299L87.9892 25.4202C87.9763 25.4115 87.9656 25.4094 87.9571 25.4138C87.9484 25.4181 87.9461 25.4266 87.9504 25.4395L88.0084 25.9493C88.0171 26.0137 88.0011 26.0675 87.9601 26.1104C87.9193 26.1535 87.8665 26.1748 87.8024 26.1748Z" fill="#67ACFF"/>
</svg>
