<svg width="29" height="7" viewBox="0 0 29 7" fill="none" xmlns="http://www.w3.org/2000/svg">
<path d="M12.6768 0.0618386C12.5537 0.114609 12.4868 0.19904 12.1808 0.684524C11.9837 0.990589 11.4842 1.77862 11.0656 2.42945L10.3057 3.61853H10.7173H11.1289L12.0084 2.21133C12.4939 1.43737 12.8949 0.807653 12.9055 0.807653C12.9231 0.807653 13.8201 2.25355 13.8483 2.32391C13.8553 2.33798 13.4578 2.35205 12.9617 2.35205C12.4657 2.35205 12.0611 2.36261 12.0611 2.37316C12.0611 2.38723 12.1456 2.52795 12.2476 2.68978L12.4305 2.98529H13.3663H14.3056L14.4921 3.30191L14.6785 3.61853H15.0761C15.2942 3.61853 15.4736 3.60798 15.4736 3.59742C15.4736 3.58335 15.2484 3.22451 14.974 2.79532C14.6996 2.36964 14.2247 1.62031 13.9151 1.13834C13.2924 0.16386 13.2537 0.111091 13.0919 0.0442486C12.9406 -0.0190752 12.8457 -0.0155572 12.6768 0.0618386Z" fill="white"/>
<path d="M1.45523 0.0653568C1.06122 0.146271 0.762187 0.318652 0.473711 0.631754C-0.444485 1.62383 0.0374799 3.221 1.35673 3.56576C1.51856 3.60798 1.81758 3.61853 2.84484 3.61853C3.98819 3.61853 4.15705 3.61149 4.36461 3.55169C4.95212 3.38986 5.42353 2.92197 5.60295 2.32039C5.67331 2.08117 5.67682 1.62383 5.60646 1.37053C5.44112 0.737294 4.92045 0.234221 4.2837 0.0829468C4.10428 0.0407309 3.81229 0.0301769 2.82725 0.0336949C2.15179 0.0372129 1.53263 0.0512849 1.45523 0.0653568ZM4.33295 0.786546C5.05414 1.1489 5.21245 2.08469 4.64957 2.64405C4.57569 2.72144 4.43849 2.82346 4.33999 2.87272L4.16409 2.9677L2.89409 2.97826C1.68038 2.98881 1.61706 2.98529 1.43061 2.91493C1.1562 2.81291 0.938086 2.60887 0.797366 2.32391C0.695345 2.11987 0.681273 2.05654 0.684791 1.82435C0.684791 1.61679 0.705899 1.51477 0.776259 1.35998C0.927532 1.03281 1.22656 0.783028 1.56781 0.702114C1.64168 0.684524 2.24678 0.670452 2.9152 0.67397L4.12891 0.681006L4.33295 0.786546Z" fill="white"/>
<path d="M6.0459 1.82435V3.61853H6.38011H6.71432V2.14097V0.663416H7.91747C9.06434 0.663416 9.12766 0.666934 9.2719 0.737293C9.45483 0.825243 9.59907 1.04688 9.59907 1.24037C9.59907 1.40923 9.4865 1.62383 9.34578 1.72585C9.2332 1.80676 9.21209 1.80676 8.15669 1.82435L7.08019 1.84194L8.10392 2.72848L9.12414 3.61853H9.61666L10.1092 3.61501L9.95087 3.47781C9.86292 3.40041 9.56741 3.15064 9.29301 2.92549C9.0186 2.69682 8.79345 2.49981 8.79345 2.48925C8.78993 2.47518 8.9201 2.45759 9.08193 2.45407C9.61666 2.42945 10.0142 2.15153 10.1936 1.66604C10.3625 1.21222 10.2569 0.751365 9.8981 0.39253C9.71517 0.213112 9.64481 0.167378 9.44428 0.104055C9.21561 0.0336947 9.13118 0.0301767 7.62548 0.0301767H6.0459V1.82435Z" fill="white"/>
<path d="M16.5832 0.0723926C16.2912 0.125163 15.9148 0.329206 15.6931 0.55084C14.7362 1.50773 15.1197 3.12601 16.3932 3.53058C16.6711 3.61853 16.6887 3.61853 17.8813 3.61853H19.088L19.2709 3.33357C19.3694 3.17878 19.4504 3.03806 19.4504 3.02047C19.4504 3.00288 18.8347 2.98529 18.0537 2.97826C16.6676 2.9677 16.6535 2.9677 16.5023 2.88679C16.2666 2.76014 16.0485 2.54202 15.9429 2.32039C15.862 2.15504 15.8444 2.07765 15.8444 1.84194C15.8444 1.3635 16.066 1.00466 16.4882 0.797099L16.7239 0.681006L17.8743 0.670452L19.0282 0.659898L19.2217 0.360868C19.3272 0.195522 19.4152 0.0548026 19.4152 0.0477666C19.4152 0.0161047 16.7591 0.0372127 16.5832 0.0723926Z" fill="white"/>
<path d="M19.8084 1.73992L19.819 3.44967L19.9175 3.5341L20.016 3.61853H21.6624H23.3053L23.5023 3.30895L23.7028 3.00288L22.1021 2.99233L20.505 2.98529V1.50773V0.0301767H20.1532H19.7979L19.8084 1.73992Z" fill="white"/>
<path d="M24.9908 0.0723926C24.3541 0.192004 23.7877 0.730257 23.6153 1.3846C23.5098 1.7751 23.5766 2.32039 23.7701 2.68274C23.9002 2.93252 24.2802 3.30543 24.5194 3.42152C24.9029 3.60798 24.9979 3.61853 26.2925 3.61853H27.4886L27.6539 3.36172C27.7454 3.22451 27.8298 3.08028 27.8404 3.04862C27.8615 2.99233 27.7665 2.98881 26.4613 2.97826L25.0612 2.9677L24.8853 2.87272C24.6637 2.75662 24.435 2.52092 24.3435 2.31687L24.2732 2.15856L25.7577 2.14801L27.2423 2.13745L27.4288 1.84546C27.5273 1.68363 27.6117 1.54291 27.6117 1.53236C27.6117 1.51829 26.8589 1.50422 25.9407 1.5007L24.2661 1.49014L24.3576 1.30721C24.4666 1.09261 24.6496 0.916711 24.9099 0.779509L25.0964 0.681006L26.2643 0.670452L27.4323 0.659898L27.5801 0.424192C27.661 0.294026 27.7525 0.153306 27.7806 0.107573L27.8298 0.0301767L26.5 0.0336947C25.7648 0.0372127 25.0893 0.0512846 24.9908 0.0723926Z" fill="white"/>
<path d="M28.269 0.1006C28.1424 0.202622 28.0861 0.385558 28.1389 0.54035C28.1952 0.712731 28.3253 0.804199 28.5153 0.804199C28.649 0.804199 28.6912 0.786609 28.7932 0.684587C28.8917 0.586084 28.9128 0.536832 28.9128 0.41722C28.9128 0.297608 28.8917 0.248356 28.7932 0.149852C28.6912 0.0478306 28.649 0.0302406 28.5153 0.0302406C28.4133 0.0302406 28.3288 0.0548666 28.269 0.1006ZM28.7264 0.185032C28.8038 0.251874 28.8249 0.297608 28.8249 0.41722C28.8249 0.536832 28.8038 0.582566 28.7264 0.649407C28.5153 0.832343 28.2128 0.695141 28.2128 0.41722C28.2128 0.139298 28.5153 0.00209665 28.7264 0.185032Z" fill="white"/>
<path d="M28.3752 0.195583C28.3611 0.206137 28.3506 0.311676 28.3506 0.424252C28.3506 0.582562 28.3611 0.628296 28.4034 0.628296C28.435 0.628296 28.4561 0.596634 28.4561 0.540346C28.4561 0.491094 28.4702 0.452396 28.4843 0.452396C28.5019 0.452396 28.5335 0.491094 28.5546 0.540346C28.5757 0.589598 28.6215 0.628296 28.6496 0.628296C28.6918 0.628296 28.6953 0.614224 28.6707 0.564972C28.6531 0.529792 28.6461 0.438324 28.6567 0.35741C28.6742 0.230763 28.6672 0.213173 28.5933 0.195583C28.4843 0.163921 28.4034 0.163921 28.3752 0.195583ZM28.5793 0.311676C28.5793 0.33982 28.5511 0.367964 28.5194 0.375C28.4737 0.382036 28.4561 0.364446 28.4561 0.311676C28.4561 0.258907 28.4737 0.241317 28.5194 0.248353C28.5511 0.255389 28.5793 0.283533 28.5793 0.311676Z" fill="white"/>
<path d="M6.64295 5.34499C6.63501 6.2079 6.63236 6.2476 6.57942 6.31907C6.4656 6.4726 6.18238 6.49906 6.05003 6.36672C6.01562 6.33231 5.98121 6.25555 5.97062 6.19731L5.95209 6.08879H5.78269H5.61328L5.62916 6.18672C5.66357 6.38525 5.70063 6.45936 5.8171 6.56259C6.11885 6.82729 6.66412 6.75317 6.87323 6.41966L6.95264 6.2926L6.96058 5.36882L6.96852 4.44767H6.80971H6.65089L6.64295 5.34499Z" fill="white"/>
<path d="M7.5752 5.56991V6.69751H8.03312C8.6975 6.69751 8.89338 6.64986 9.09719 6.44076C9.3063 6.22635 9.41483 5.8796 9.39365 5.50638C9.36189 4.98758 9.13425 4.63024 8.75838 4.51112C8.6578 4.47936 8.48045 4.46348 8.09929 4.45554L7.5752 4.4423V5.56991ZM8.62339 4.76523C8.77162 4.82347 8.8775 4.92934 8.9622 5.10669C9.03896 5.2708 9.04426 5.29992 9.04426 5.58579C9.04426 5.84784 9.03631 5.90872 8.98338 6.02518C8.84838 6.32164 8.68162 6.40899 8.21841 6.42752L7.89283 6.44076V5.57255V4.70435L8.22105 4.72023C8.40105 4.73082 8.58104 4.74935 8.62339 4.76523Z" fill="white"/>
<path d="M10.751 5.57255V6.69751H11.4657H12.1803V6.55193V6.40634H11.6245H11.0686V6.04901V5.69167L11.5795 5.68637L12.0877 5.67843V5.54608V5.41374L11.5795 5.4058L11.0686 5.4005V5.06963V4.73876L11.6059 4.73347L12.1406 4.72553V4.59318V4.46083L11.4471 4.45289L10.751 4.4476V5.57255Z" fill="white"/>
<path d="M13.7415 4.87113V5.29729L13.6409 5.21523C13.3285 4.96642 12.8468 5.08024 12.6589 5.44817C12.5424 5.67845 12.5239 6.03844 12.6165 6.30049C12.7012 6.54136 12.9659 6.724 13.2253 6.724C13.3682 6.724 13.5668 6.64988 13.6568 6.56253L13.7415 6.48048V6.589V6.70018L13.895 6.69224C13.977 6.68694 14.0432 6.67635 14.0406 6.66312C14.0353 6.65253 14.0326 6.14961 14.0326 5.5461V4.44762H13.8871H13.7415V4.87113ZM13.5297 5.38199C13.6541 5.46405 13.7176 5.58581 13.7335 5.76845C13.7732 6.21049 13.625 6.47783 13.3259 6.5043C13.1538 6.52018 13.0321 6.45401 12.95 6.30049C12.8944 6.1999 12.8839 6.14696 12.8812 5.94315C12.8812 5.66257 12.9341 5.49052 13.0559 5.38729C13.1671 5.29729 13.4 5.292 13.5297 5.38199Z" fill="white"/>
<path d="M21.2859 4.87113V5.29729L21.1853 5.21523C20.873 4.96642 20.3912 5.08024 20.2033 5.44817C20.0868 5.67845 20.0683 6.03314 20.1636 6.30578C20.243 6.53871 20.5156 6.724 20.7777 6.724C20.9127 6.724 21.1138 6.64724 21.2012 6.56253L21.2859 6.48048V6.589V6.70018L21.4394 6.69224C21.5215 6.68694 21.5877 6.67635 21.585 6.66312C21.5797 6.65253 21.5771 6.14961 21.5771 5.5461V4.44762H21.4315H21.2859V4.87113ZM21.0741 5.38199C21.2356 5.48787 21.2727 5.58846 21.2727 5.90344C21.2727 6.14961 21.2647 6.19461 21.2091 6.29255C21.1244 6.44077 20.9603 6.52548 20.7936 6.5043C20.5395 6.47783 20.4309 6.31107 20.4283 5.94315C20.4256 5.66257 20.4786 5.49052 20.6003 5.38729C20.7115 5.29729 20.9444 5.292 21.0741 5.38199Z" fill="white"/>
<path d="M17.6008 5.11719C17.4261 5.16749 17.344 5.23101 17.2858 5.35542C17.2037 5.53806 17.2143 5.55924 17.3784 5.55924C17.5214 5.55924 17.524 5.55659 17.5531 5.46395C17.6061 5.30778 17.8284 5.2469 18.0164 5.33689C18.1116 5.38189 18.1619 5.47983 18.1619 5.62541V5.71011L17.8867 5.72335C17.6696 5.73658 17.5796 5.75246 17.4658 5.8054C17.0079 6.01451 17.0476 6.61802 17.524 6.72125C17.6008 6.73713 17.6828 6.75037 17.7067 6.75037C17.8125 6.75037 17.9608 6.68684 18.0561 6.60214L18.1566 6.51214L18.1725 6.60478C18.1911 6.69743 18.1937 6.69743 18.3234 6.69743H18.4558L18.4478 6.03834C18.4399 5.42159 18.4372 5.37395 18.3843 5.30248C18.2599 5.13043 17.8761 5.04043 17.6008 5.11719ZM18.1619 6.00128C18.1566 6.26597 18.0508 6.43803 17.8602 6.48832C17.6511 6.5439 17.4473 6.4195 17.4473 6.23421C17.4473 6.04628 17.6431 5.9351 17.9846 5.93246C18.1619 5.92981 18.1619 5.92981 18.1619 6.00128Z" fill="white"/>
<path d="M19.579 5.14643C19.4916 5.1729 19.4201 5.21525 19.3619 5.27878L19.2746 5.37407V5.25496V5.13584H19.129H18.9834V5.9167V6.7002L19.1369 6.69225L19.2878 6.68431L19.301 6.15492C19.3116 5.69965 19.3222 5.6123 19.3619 5.54877C19.4254 5.45348 19.5551 5.40054 19.7245 5.40054H19.8595L19.8516 5.26025C19.8437 5.13584 19.8384 5.12261 19.7775 5.11732C19.7404 5.11467 19.6531 5.1279 19.579 5.14643Z" fill="white"/>
<path d="M22.3185 5.18074C22.1359 5.27338 22.0432 5.42691 22.0618 5.60955C22.0856 5.83189 22.1994 5.91924 22.5964 6.02512C22.9326 6.11247 22.9803 6.14158 22.9803 6.26334C22.9803 6.44069 22.7817 6.54657 22.5594 6.48569C22.4482 6.45657 22.345 6.35334 22.345 6.27129C22.345 6.22893 22.3238 6.22099 22.1862 6.22099C22.0088 6.22099 22.0035 6.22893 22.0538 6.41157C22.0882 6.53333 22.2312 6.66039 22.3767 6.69744C22.5382 6.74244 22.9194 6.72127 23.0411 6.66039C23.3191 6.52539 23.3932 6.10188 23.1708 5.92718C23.11 5.87954 22.9988 5.84248 22.6044 5.73395C22.4217 5.68101 22.3715 5.63602 22.3715 5.5169C22.3715 5.44279 22.3873 5.41632 22.4588 5.37397C22.5567 5.31309 22.7473 5.30515 22.8479 5.35544C22.885 5.37397 22.9273 5.42955 22.9432 5.47985C22.9723 5.56984 22.9776 5.57249 23.1152 5.57249H23.2582L23.2555 5.4719C23.2476 5.24691 23.0623 5.1278 22.7023 5.11457C22.4853 5.10662 22.4509 5.11192 22.3185 5.18074Z" fill="white"/>
<path d="M14.4093 5.16761C14.4172 5.18614 14.5337 5.53818 14.6713 5.94846L14.9201 6.69755H15.0922H15.2669L15.4628 6.07551C15.5713 5.73141 15.6666 5.46671 15.6772 5.48524C15.6878 5.50377 15.7698 5.78435 15.8625 6.10992L16.0292 6.7002L16.1986 6.69225L16.368 6.68431L16.6407 5.9167L16.9107 5.14908L16.7651 5.14114C16.6857 5.13584 16.6168 5.13849 16.6115 5.14379C16.6063 5.14908 16.5215 5.40319 16.4263 5.70759C16.3283 6.01199 16.2436 6.27668 16.233 6.29521C16.2224 6.31374 16.1377 6.05963 16.0451 5.73141L15.8757 5.1332L15.6798 5.14114L15.4839 5.14908L15.296 5.7367C15.1928 6.06228 15.1028 6.32168 15.0948 6.31374C15.0869 6.3058 15.0022 6.0411 14.9069 5.72347L14.7349 5.14908L14.5654 5.14114C14.4357 5.13584 14.4013 5.14114 14.4093 5.16761Z" fill="white"/>
</svg>
