<svg width="26" height="21" viewBox="0 0 26 21" fill="none" xmlns="http://www.w3.org/2000/svg">
<path d="M11.3291 11.418H8.8291C8.66334 11.418 8.50437 11.3521 8.38716 11.2349C8.26995 11.1177 8.2041 10.9587 8.2041 10.793V8.29297C8.2041 8.12721 8.26995 7.96824 8.38716 7.85103C8.50437 7.73382 8.66334 7.66797 8.8291 7.66797H11.3291C11.4949 7.66797 11.6538 7.73382 11.771 7.85103C11.8883 7.96824 11.9541 8.12721 11.9541 8.29297V9.74297C12.3881 9.23984 13.0088 8.91797 13.7041 8.91797H19.0533L19.3131 8.62383C19.3977 8.51835 19.447 8.38895 19.4541 8.25391C19.4453 8.09766 19.3792 7.95013 19.2686 7.83945L16.9541 5.79297V2.04297C16.9541 1.87721 16.8883 1.71824 16.771 1.60103C16.6538 1.48382 16.4949 1.41797 16.3291 1.41797H15.0791C14.9133 1.41797 14.7544 1.48382 14.6372 1.60103C14.5199 1.71824 14.4541 1.87721 14.4541 2.04297V3.57812L10.9971 0.516406C10.7822 0.324219 10.3701 0.167969 10.0811 0.167969C9.79199 0.167969 9.38066 0.324219 9.16426 0.516406L0.89082 7.84062C0.779505 7.95048 0.712962 8.09776 0.704102 8.25391C0.710849 8.38766 0.759346 8.51594 0.842773 8.6207L1.57676 9.45312C1.68755 9.56493 1.83599 9.63149 1.99316 9.63984C2.12588 9.6332 2.2533 9.58572 2.35801 9.50391L3.2041 8.75703V15.168C3.2041 15.4995 3.3358 15.8174 3.57022 16.0519C3.80464 16.2863 4.12258 16.418 4.4541 16.418H11.3291V11.418ZM25.2873 17.668H23.8291V11.418C23.8291 10.7277 23.3256 10.168 22.7041 10.168H13.7041C13.0826 10.168 12.5791 10.7277 12.5791 11.418V17.668H11.1209C11.0104 17.668 10.9043 17.7119 10.8262 17.79C10.748 17.8682 10.7041 17.9742 10.7041 18.0848V18.5012C10.7056 18.9423 10.8814 19.3649 11.193 19.6771C11.5047 19.9893 11.9271 20.1657 12.3682 20.168H24.04C24.4812 20.1657 24.9035 19.9893 25.2152 19.6771C25.5268 19.3649 25.7026 18.9423 25.7041 18.5012V18.0848C25.7041 17.9742 25.6602 17.8682 25.582 17.79C25.5039 17.7119 25.3978 17.668 25.2873 17.668ZM21.9541 17.668H14.4541V12.043H21.9541V17.668Z" fill="white"/>
</svg>
