<svg width="300" height="200" viewBox="0 0 300 200" fill="none" xmlns="http://www.w3.org/2000/svg">
<path d="M146.64 65.6717C146.318 65.6723 145.997 65.6184 145.692 65.5124L140.8 63.8242C140.319 63.6568 139.891 63.3669 139.557 62.9833C139.224 62.5998 138.998 62.136 138.9 61.6381L137.92 56.5693C137.824 56.0709 137.861 55.556 138.029 55.0765C138.196 54.597 138.487 54.1698 138.872 53.8378L142.788 50.4612C143.175 50.1291 143.642 49.9036 144.143 49.8072C144.644 49.7108 145.162 49.7468 145.644 49.9117L150.54 51.604C151.022 51.7701 151.452 52.0595 151.786 52.4432C152.121 52.8269 152.347 53.2914 152.444 53.79L153.42 58.8548C153.516 59.3535 153.478 59.8683 153.312 60.3482C153.146 60.828 152.856 61.2563 152.472 61.5904L148.552 64.9669C148.021 65.4235 147.342 65.6738 146.64 65.6717ZM142 60.8696L146.576 62.4624L150.24 59.3088L149.324 54.5744L144.748 52.9817L141.088 56.1392L142 60.8696Z" fill="#F5F5F5"/>
<path d="M203.776 50.9588C203.454 50.9594 203.133 50.9055 202.828 50.7996L200.348 49.9435C199.867 49.7768 199.438 49.4871 199.105 49.1034C198.771 48.7198 198.545 48.2556 198.448 47.7575L197.952 45.1932C197.857 44.6951 197.894 44.1807 198.06 43.7014C198.226 43.2221 198.516 42.7946 198.9 42.4616L200.9 40.7495C201.286 40.4177 201.752 40.1927 202.253 40.0969C202.754 40.0012 203.271 40.0381 203.752 40.2039L206.228 41.06C206.71 41.2261 207.14 41.5156 207.474 41.8993C207.809 42.283 208.036 42.7474 208.132 43.2461L208.628 45.8103C208.725 46.3088 208.687 46.8236 208.52 47.3031C208.353 47.7826 208.062 48.2098 207.676 48.5419L205.676 50.2541C205.147 50.7064 204.474 50.9563 203.776 50.9588ZM201.556 46.977L203.716 47.7216L205.44 46.2324L205.008 44.0026L202.852 43.258L201.124 44.7711L201.556 46.977Z" fill="#F5F5F5"/>
<path d="M272.272 88.4795C271.955 88.4773 271.643 88.4046 271.359 88.2668C271.074 88.129 270.825 87.9296 270.628 87.6832L269.232 85.9471C269.001 85.6599 268.85 85.3176 268.794 84.9543C268.738 84.591 268.778 84.2194 268.912 83.8765L269.712 81.806C269.846 81.4636 270.068 81.1624 270.355 80.9324C270.643 80.7025 270.987 80.552 271.352 80.496L273.56 80.1575C273.925 80.1024 274.299 80.1437 274.643 80.2771C274.988 80.4105 275.292 80.6315 275.524 80.9181L276.92 82.6541C277.15 82.9413 277.301 83.2836 277.357 83.6469C277.413 84.0102 277.373 84.3818 277.24 84.7247L276.44 86.7952C276.306 87.1383 276.083 87.4402 275.794 87.6702C275.506 87.9002 275.161 88.0503 274.796 88.1052L272.588 88.4437C272.483 88.4637 272.378 88.4757 272.272 88.4795ZM273.892 81.7383H273.816L271.608 82.0768C271.519 82.0898 271.436 82.1258 271.365 82.181C271.295 82.2362 271.241 82.3087 271.208 82.3913L270.408 84.4619C270.375 84.5441 270.365 84.6335 270.378 84.7209C270.392 84.8083 270.428 84.8907 270.484 84.9596L271.88 86.6957C271.936 86.7637 272.009 86.8163 272.092 86.8483C272.174 86.8804 272.264 86.8909 272.352 86.8788L274.56 86.5404C274.648 86.5281 274.732 86.4924 274.803 86.4371C274.873 86.3819 274.927 86.3089 274.96 86.2258L275.76 84.1553C275.791 84.0729 275.801 83.9837 275.788 83.8964C275.774 83.8092 275.738 83.7269 275.684 83.6575L274.288 81.9215C274.239 81.864 274.178 81.8178 274.11 81.7861C274.042 81.7545 273.967 81.7382 273.892 81.7383Z" fill="#E0E0E0"/>
<path d="M23.08 105.784C22.6742 105.784 22.2737 105.693 21.9076 105.519C21.5416 105.344 21.2192 105.091 20.964 104.777L17.684 100.7C17.3896 100.33 17.1977 99.8896 17.1275 99.4229C17.0574 98.9562 17.1113 98.4793 17.284 98.0398L19.2 93.1701C19.3727 92.7303 19.6583 92.3434 20.0281 92.0479C20.398 91.7523 20.8393 91.5585 21.308 91.4858L26.508 90.6894C26.9774 90.6192 27.457 90.6727 27.8992 90.8446C28.3413 91.0165 28.7305 91.3007 29.028 91.6689L32.28 95.7383C32.5747 96.1088 32.7667 96.5498 32.8369 97.0172C32.9071 97.4845 32.853 97.9621 32.68 98.4022L30.8 103.276C30.6275 103.717 30.3415 104.105 29.9709 104.401C29.6002 104.698 29.1578 104.892 28.688 104.964L23.488 105.761C23.3529 105.78 23.2164 105.788 23.08 105.784ZM19.904 99.0154L23.104 102.997L28.184 102.225L30.048 97.4465L26.848 93.4647L21.768 94.2412L19.904 99.0154Z" fill="#E0E0E0"/>
<path d="M36.3521 70.0955H33.2601C32.8917 70.0966 32.5295 70.0017 32.2094 69.82C31.8894 69.6384 31.6228 69.3764 31.4361 69.0602L29.8881 66.3964C29.7054 66.0766 29.6094 65.7151 29.6094 65.3472C29.6094 64.9793 29.7054 64.6177 29.8881 64.298L31.4361 61.6341C31.621 61.3155 31.8869 61.0509 32.2071 60.867C32.5273 60.6832 32.8905 60.5866 33.2601 60.5869H36.3521C36.7218 60.5866 37.085 60.6832 37.4052 60.867C37.7254 61.0509 37.9913 61.3155 38.1761 61.6341L39.7241 64.282C39.9068 64.6018 40.0029 64.9634 40.0029 65.3312C40.0029 65.6991 39.9068 66.0607 39.7241 66.3805L38.1761 69.0602C37.9892 69.3761 37.7225 69.6379 37.4025 69.8195C37.0826 70.0011 36.7204 70.0962 36.3521 70.0955ZM33.2601 62.1637C33.1712 62.1639 33.0839 62.1871 33.0067 62.2311C32.9296 62.2751 32.8653 62.3383 32.8201 62.4146L31.2761 65.0784C31.2312 65.1551 31.2074 65.2424 31.2074 65.3312C31.2074 65.4201 31.2312 65.5074 31.2761 65.5841L32.8201 68.2639C32.8651 68.3406 32.9292 68.4044 33.0064 68.449C33.0835 68.4937 33.1709 68.5177 33.2601 68.5187H36.3521C36.4427 68.5191 36.5318 68.4958 36.6104 68.451C36.6891 68.4063 36.7545 68.3417 36.8001 68.2639L38.3441 65.6C38.3891 65.5233 38.4128 65.436 38.4128 65.3472C38.4128 65.2583 38.3891 65.1711 38.3441 65.0943L36.8001 62.4146C36.755 62.3383 36.6907 62.2751 36.6135 62.2311C36.5364 62.1871 36.449 62.1639 36.3601 62.1637H33.2601Z" fill="#EBEBEB"/>
<path d="M89.1118 39.973L83.0798 36.1943L75.6758 23.7551L65.3758 17.4797L63.3838 19.6259L64.4278 21.0275L67.6798 25.3677L80.5878 42.617L85.8518 45.4998L89.1118 39.973Z" fill="#EBEBEB"/>
<path d="M81.5316 48.9162L79.8036 43.1903L60.8356 21.6168L58.3076 23.106L62.3116 34.4502L73.3236 45.2171L75.7916 51.9384L81.5316 48.9162Z" fill="#EBEBEB"/>
<path d="M91.8082 41.0402C91.8082 41.0402 113.228 52.7427 117.544 56.6927C121.86 60.6427 131.944 77.0915 130.92 79.1939C129.896 81.2963 129.112 81.583 126.788 79.5443C124.464 77.5057 116.952 66.2371 114.936 64.4134C112.92 62.5898 87.8242 47.9566 87.8242 47.9566L91.8082 41.0402Z" fill="#E0E0E0"/>
<path d="M77.284 46.0533C81.0307 46.0533 84.068 43.0298 84.068 39.3002C84.068 35.5705 81.0307 32.547 77.284 32.547C73.5373 32.547 70.5 35.5705 70.5 39.3002C70.5 43.0298 73.5373 46.0533 77.284 46.0533Z" fill="#EBEBEB"/>
<path d="M75.6002 45.8343C76.1465 45.9367 76.7004 45.9939 77.2562 46.0055C77.9068 46.0078 78.5541 45.9125 79.1762 45.7228C80.6737 45.2866 81.9718 44.3449 82.8478 43.0595C83.7237 41.7742 84.1227 40.2253 83.9762 38.679C83.9082 38.0336 83.7409 37.4024 83.4802 36.8075C83.3565 36.5022 83.2122 36.2055 83.0482 35.9196C82.8728 35.6309 82.6762 35.3554 82.4602 35.0954C81.5676 33.9932 80.3434 33.2051 78.9676 32.8468C77.5917 32.4884 76.1367 32.5788 74.8162 33.1044C74.5033 33.2297 74.1987 33.3747 73.9042 33.5385C73.6252 33.7105 73.358 33.9007 73.1042 34.1079C72.5979 34.5048 72.1566 34.9776 71.7962 35.5095C71.1163 36.4902 70.7117 37.6339 70.6242 38.8223C70.5593 39.7665 70.695 40.7136 71.0224 41.6021C71.3498 42.4905 71.8615 43.3003 72.5242 43.9788C72.9744 44.4517 73.4936 44.8544 74.0642 45.1733C74.5565 45.4315 75.0688 45.6498 75.5962 45.8264C75.5604 45.8309 75.5241 45.8309 75.4882 45.8264L75.1762 45.7388C75.0063 45.6958 74.8404 45.6385 74.6802 45.5675C74.4556 45.4829 74.2377 45.3817 74.0282 45.2649C73.4372 44.9612 72.8974 44.5675 72.4282 44.0982C71.7394 43.4143 71.2048 42.5922 70.8599 41.6867C70.5151 40.7811 70.3679 39.8128 70.4282 38.8462C70.515 37.6237 70.9294 36.4468 71.6282 35.4378C71.9993 34.8892 72.4526 34.4005 72.9722 33.9884C73.5047 33.5478 74.106 33.1968 74.7522 32.9492C76.1115 32.4065 77.6097 32.3116 79.0272 32.6785C80.4446 33.0454 81.7066 33.8548 82.6282 34.9878C82.8474 35.258 83.0479 35.5427 83.2282 35.84C83.3979 36.1357 83.5462 36.4431 83.6722 36.7598C83.9265 37.3687 84.0831 38.0137 84.1362 38.671C84.2462 39.8101 84.0643 40.9583 83.6075 42.0084C83.1507 43.0584 82.4339 43.9761 81.5242 44.6756C80.8323 45.2133 80.0415 45.6109 79.1962 45.8463C78.5627 46.0308 77.904 46.1155 77.2442 46.0971C77.0032 46.0981 76.7625 46.0808 76.5242 46.0454C76.3477 46.033 76.1724 46.0064 76.0002 45.9657L75.6842 45.8901C75.6537 45.8755 75.6255 45.8567 75.6002 45.8343Z" fill="#E0E0E0"/>
<path d="M76.3244 42.9912C75.5904 42.8022 74.9292 42.4007 74.4245 41.8375C73.9199 41.2743 73.5943 40.5747 73.4892 39.8273C73.384 39.0798 73.504 38.3182 73.8338 37.6386C74.1637 36.9591 74.6886 36.3922 75.3422 36.0097C75.9958 35.6273 76.7487 35.4464 77.5056 35.49C78.2625 35.5336 78.9894 35.7998 79.5943 36.2548C80.1992 36.7098 80.655 37.3332 80.9038 38.0461C81.1527 38.759 81.1835 39.5294 80.9924 40.2597C80.7365 41.2377 80.1013 42.0746 79.2261 42.5867C78.3509 43.0989 77.3073 43.2443 76.3244 42.9912Z" fill="#E0E0E0"/>
<path d="M76.3241 42.9912C76.3241 42.9633 76.6561 43.0708 77.2561 43.0708C77.9741 43.0643 78.6757 42.8561 79.2801 42.47C79.8844 42.084 80.3669 41.5359 80.6721 40.8888C80.9518 40.2841 81.065 39.6162 81.0001 38.9536C80.9272 38.2233 80.6392 37.5306 80.1721 36.9627C79.6732 36.3492 78.9899 35.911 78.2225 35.7125C77.455 35.514 76.6439 35.5656 75.9081 35.8598C75.5587 35.9893 75.2331 36.1749 74.9441 36.4092C74.6597 36.6349 74.4127 36.9037 74.2121 37.2056C73.8321 37.7527 73.6044 38.3901 73.5521 39.0532C73.5081 39.632 73.6012 40.213 73.8241 40.7494C74.1467 41.5365 74.7257 42.1928 75.4681 42.6129C75.7454 42.7621 76.0312 42.8951 76.3241 43.0111C76.01 42.9562 75.7072 42.8499 75.4281 42.6965C74.6479 42.2902 74.0331 41.6275 73.6881 40.8211C73.4464 40.2643 73.3408 39.6584 73.3801 39.0532C73.4255 38.3561 73.6575 37.6838 74.0521 37.1061C74.2569 36.7885 74.5091 36.5038 74.8001 36.2619C75.1047 36.0113 75.4477 35.811 75.8161 35.6686C76.5922 35.3559 77.4487 35.3001 78.2591 35.5095C79.0695 35.7189 79.7907 36.1824 80.3161 36.8313C80.8137 37.4293 81.1214 38.1611 81.2001 38.9337C81.2626 39.6295 81.1369 40.3293 80.8361 40.9605C80.5738 41.507 80.1861 41.9844 79.7041 42.3541C79.0071 42.8913 78.1453 43.1726 77.2641 43.1505C76.944 43.1502 76.6262 43.0963 76.3241 42.9912Z" fill="#E0E0E0"/>
<path d="M87.6302 39.7469L84.8583 44.5493C84.0461 45.9565 84.5337 47.7527 85.9473 48.5612L86.2074 48.71C87.621 49.5185 89.4254 49.0332 90.2376 47.626L93.0095 42.8236C93.8218 41.4164 93.3342 39.6202 91.9206 38.8117L91.6605 38.6629C90.2469 37.8544 88.4425 38.3397 87.6302 39.7469Z" fill="#EBEBEB"/>
<path d="M84.8555 44.5521C84.6898 44.9067 84.5779 45.2837 84.5235 45.671C84.4822 46.1261 84.5437 46.5846 84.7035 47.0129C84.8028 47.2765 84.9373 47.5256 85.1035 47.7535C85.2988 48.0036 85.5339 48.2201 85.7995 48.3946C86.0908 48.5901 86.4052 48.7492 86.7355 48.8684C87.3128 49.0631 87.9376 49.0687 88.5184 48.8846C89.0992 48.7005 89.6056 48.3362 89.9635 47.8451C90.8835 46.32 91.8555 44.572 92.9035 42.7762C93.1431 42.3505 93.269 41.8706 93.269 41.3826C93.269 40.8946 93.1431 40.4147 92.9035 39.9889C92.6913 39.5801 92.3807 39.2299 91.9995 38.9696C91.6297 38.7109 91.2125 38.5269 90.7715 38.4281C90.3629 38.3455 89.9412 38.3527 89.5357 38.4489C89.1302 38.5452 88.7506 38.7283 88.4235 38.9855C87.7955 39.4594 87.5195 40.1801 87.1515 40.7614L85.5035 43.5487L85.0475 44.3013C84.999 44.3918 84.9414 44.4772 84.8755 44.5561C84.9152 44.4606 84.9606 44.3675 85.0115 44.2774C85.1195 44.0862 85.2595 43.8274 85.4355 43.5089C85.8355 42.824 86.3595 41.8684 87.0355 40.6937L87.5635 39.762C87.7582 39.414 88.0174 39.1059 88.3275 38.8541C88.6703 38.5798 89.0689 38.3828 89.4957 38.2769C89.9226 38.1711 90.3674 38.1588 90.7995 38.2409C91.2612 38.3414 91.6988 38.5307 92.0875 38.7984C92.5131 39.0636 92.8641 39.4322 93.1075 39.8695C93.3691 40.3269 93.5067 40.8443 93.5067 41.3706C93.5067 41.897 93.3691 42.4143 93.1075 42.8718C92.0555 44.6756 91.1075 46.3957 90.1435 47.9526C89.8782 48.3061 89.5392 48.5984 89.1498 48.8094C88.7604 49.0204 88.3298 49.1451 87.8875 49.175C87.4875 49.1979 87.0869 49.1438 86.7075 49.0157C86.3665 48.8855 86.0428 48.7143 85.7435 48.5061C85.4662 48.3203 85.2216 48.0902 85.0195 47.8252C84.8506 47.579 84.716 47.3111 84.6195 47.0288C84.4855 46.6679 84.4257 46.2838 84.4435 45.8994C84.4614 45.515 84.5566 45.1381 84.7235 44.791C84.7607 44.7078 84.8048 44.6279 84.8555 44.5521Z" fill="#E0E0E0"/>
<path d="M76.5879 55.3388C76.5879 55.3388 84.7039 78.2821 87.9199 83.1638C91.1359 88.0455 105.796 100.62 108.044 99.9591C110.292 99.2981 110.688 98.5695 109.064 95.9773C107.44 93.3851 97.4639 84.1553 95.9919 81.8737C94.5199 79.5921 84.0679 52.5675 84.0679 52.5675L76.5879 55.3388Z" fill="#E0E0E0"/>
<path d="M81.1983 49.0876L75.9874 51.0291C74.4605 51.598 73.6859 53.2914 74.2574 54.8113L74.3626 55.091C74.9341 56.611 76.6352 57.382 78.1621 56.8131L83.373 54.8716C84.8999 54.3027 85.6744 52.6093 85.1029 51.0894L84.9978 50.8097C84.4263 49.2897 82.7252 48.5187 81.1983 49.0876Z" fill="#EBEBEB"/>
<path d="M81.1996 49.0834C81.2912 49.0359 81.3878 48.9985 81.4876 48.972C81.7749 48.8904 82.073 48.8528 82.3716 48.8605C82.8453 48.8762 83.3085 49.003 83.7236 49.2308C83.9812 49.378 84.218 49.5588 84.4276 49.7683C84.6561 50.011 84.8451 50.2877 84.9876 50.5886C85.1456 50.9165 85.2612 51.263 85.3316 51.6199C85.4018 52.0161 85.3909 52.4224 85.2996 52.8144C85.1961 53.2459 84.9993 53.6496 84.723 53.9976C84.4467 54.3456 84.0974 54.6294 83.6996 54.8292C82.0036 55.5101 80.1436 56.1751 78.1836 56.9157C77.6875 57.0977 77.1527 57.1493 76.6307 57.0657C76.1087 56.982 75.6172 56.7657 75.2036 56.4379C74.8095 56.1203 74.5015 55.7097 74.3076 55.2433C74.1028 54.814 73.9859 54.3483 73.9636 53.8736C73.9488 53.4324 74.0314 52.9935 74.2056 52.5875C74.3798 52.1816 74.6412 51.8187 74.9716 51.5243C75.2716 51.2612 75.6191 51.0572 75.9956 50.923L77.0036 50.5527L80.0516 49.4538L80.8836 49.1631C80.9794 49.1249 81.0784 49.0956 81.1796 49.0755C81.0915 49.1286 80.9976 49.1713 80.8996 49.2029L80.0996 49.5294L77.0756 50.6921C76.4476 50.9589 75.6796 51.1142 75.1076 51.6517C74.7997 51.932 74.5566 52.2755 74.395 52.6584C74.2334 53.0413 74.1572 53.4545 74.1716 53.8696C74.2005 54.3187 74.3159 54.758 74.5116 55.1637C74.6946 55.5944 74.9834 55.9723 75.3516 56.2627C75.7375 56.5684 76.1962 56.7697 76.6833 56.8472C77.1703 56.9246 77.6692 56.8755 78.1316 56.7046C80.0796 55.968 81.9716 55.2951 83.6356 54.6421C84.1783 54.3682 84.6198 53.93 84.8966 53.3905C85.1733 52.851 85.271 52.238 85.1756 51.6398C85.1095 51.2946 85.0006 50.9589 84.8516 50.6403C84.7222 50.3489 84.5467 50.08 84.3316 49.844C84.1357 49.6391 83.9122 49.4622 83.6676 49.3184C83.2709 49.0877 82.826 48.9514 82.3676 48.9202C81.9722 48.915 81.5783 48.97 81.1996 49.0834Z" fill="#E0E0E0"/>
<path d="M285.904 181.136C285.904 181.192 224.928 181.24 149.728 181.24C74.528 181.24 13.54 181.192 13.54 181.136C13.54 181.081 74.504 181.033 149.728 181.033C224.952 181.033 285.904 181.081 285.904 181.136Z" fill="#263238"/>
<path d="M34.7998 135.584C34.9078 135.25 47.3718 94.691 47.3718 94.691L47.0598 89.654L50.3198 84.3104L54.3678 85.6443L53.8158 91.6171L50.9358 95.9732L38.3998 136.751L34.7998 135.584Z" fill="#E0E0E0"/>
<path d="M34.7998 135.584L35.0398 135.652L35.7318 135.867L38.3998 136.699L38.3558 136.723C40.3838 130.109 45.0718 114.803 50.8478 95.9573L53.7238 91.6052V91.649C53.8998 89.7417 54.0878 87.7149 54.2758 85.6762L54.3478 85.7837L54.0118 85.6762L50.2998 84.4538L50.4198 84.41L47.1598 89.7536V89.6939C47.2638 91.4114 47.3665 93.0904 47.4678 94.7309V94.7667C43.8238 106.549 40.6678 116.754 38.4238 124.017C37.2958 127.653 36.3918 130.547 35.7718 132.542C35.4638 133.538 35.2198 134.306 35.0558 134.832L34.8678 135.425L34.7998 135.628C34.8134 135.562 34.8307 135.497 34.8518 135.433C34.8918 135.294 34.9478 135.099 35.0238 134.848C35.1838 134.322 35.4238 133.558 35.7118 132.57C36.3158 130.579 37.1958 127.68 38.2998 124.049C40.5318 116.762 43.6598 106.529 47.2758 94.707V94.7428C47.1718 93.1023 47.0665 91.4233 46.9598 89.7058V89.674V89.6461L50.2198 84.3025L50.2598 84.2308L50.3398 84.2587L54.0558 85.4771L54.3878 85.5886L54.4678 85.6125V85.6961C54.2798 87.7468 54.0918 89.7735 53.9118 91.6689V91.6967V91.7166L51.0358 96.0728V96.0449C45.1998 114.851 40.4718 130.137 38.4238 136.751V136.787H38.3878L35.7158 135.907L35.0398 135.68L34.7998 135.584Z" fill="#263238"/>
<path d="M31.796 137.547L26.196 145.081L18.368 173.352C18.368 173.352 17.244 179.118 23.64 180.754C30.84 182.594 32.48 177.115 32.48 177.115L40.08 149.509L40 139.936L41.876 137.83C41.9608 137.732 42.0203 137.615 42.0494 137.488C42.0784 137.362 42.076 137.231 42.0425 137.106C42.0091 136.981 41.9454 136.865 41.8572 136.77C41.7689 136.675 41.6587 136.603 41.536 136.56L32.544 133.605C32.419 133.566 32.2864 133.559 32.1577 133.583C32.029 133.607 31.9082 133.662 31.806 133.743C31.7037 133.825 31.623 133.93 31.5711 134.05C31.5191 134.169 31.4975 134.3 31.508 134.43L31.796 137.547Z" fill="#007BFF"/>
<path d="M40.0485 140.267C40.0285 140.323 38.1444 139.777 35.8404 139.049C33.5364 138.32 31.6764 137.683 31.6964 137.627C31.7164 137.571 33.5965 138.121 35.9045 138.849C38.2125 139.578 40.0645 140.211 40.0485 140.267Z" fill="#263238"/>
<path d="M40.0959 149.513C39.9064 149.501 39.7187 149.469 39.5359 149.417C39.1759 149.342 38.6639 149.218 38.0279 149.059C36.7559 148.744 35.0119 148.262 33.1119 147.657C31.2119 147.052 29.5119 146.439 28.2839 145.965C27.6759 145.726 27.1839 145.527 26.8479 145.384C26.6696 145.32 26.4981 145.238 26.3359 145.141C26.5223 145.179 26.7045 145.235 26.8799 145.308L28.3359 145.826C29.5679 146.264 31.2719 146.857 33.1719 147.458C35.0719 148.059 36.8079 148.565 38.0639 148.919L39.5559 149.338C39.7409 149.379 39.9217 149.438 40.0959 149.513Z" fill="#263238"/>
<g opacity="0.3">
<path d="M29.5685 148.078L29.3727 148.021C28.6728 147.818 27.94 148.218 27.7359 148.915L20.8042 172.573C20.6001 173.269 21.0019 173.999 21.7018 174.202L21.8976 174.259C22.5975 174.462 23.3303 174.062 23.5344 173.365L30.4661 149.708C30.6702 149.011 30.2684 148.281 29.5685 148.078Z" fill="black"/>
</g>
<g opacity="0.3">
<path d="M33.5812 149.374L33.3854 149.317C32.6855 149.113 31.9527 149.513 31.7486 150.21L24.8169 173.868C24.6128 174.565 25.0146 175.294 25.7145 175.497L25.9103 175.554C26.6102 175.757 27.343 175.357 27.5471 174.661L34.4788 151.003C34.6829 150.306 34.2811 149.577 33.5812 149.374Z" fill="black"/>
</g>
<g opacity="0.3">
<path d="M37.2006 150.565L37.005 150.508C36.3059 150.302 35.5715 150.699 35.3646 151.395L28.3376 175.024C28.1307 175.72 28.5296 176.451 29.2287 176.657L29.4243 176.715C30.1233 176.921 30.8577 176.524 31.0647 175.828L38.0916 152.198C38.2985 151.502 37.8996 150.771 37.2006 150.565Z" fill="black"/>
</g>
<path d="M50.9081 95.9772C50.2964 95.8751 49.6981 95.7055 49.1241 95.4715C48.5281 95.3047 47.9536 95.0695 47.4121 94.7708C48.0219 94.8754 48.6187 95.045 49.1921 95.2764C49.7892 95.4439 50.3649 95.679 50.9081 95.9772Z" fill="#263238"/>
<path d="M54.3758 85.6444C54.3459 85.834 54.299 86.0205 54.2358 86.2018C54.1198 86.6 53.9678 87.1017 53.7798 87.7229L52.1798 92.8993L52.1478 92.9988L52.0478 92.9669L50.2038 92.3259L48.3078 91.6649L48.2158 91.633L48.2438 91.5415C48.8198 89.4948 49.3278 87.699 49.7038 86.3651C49.8878 85.7479 50.0358 85.2382 50.1518 84.856C50.1988 84.671 50.2603 84.4899 50.3358 84.3145C50.3139 84.5046 50.2751 84.6925 50.2198 84.8759L49.8198 86.4009C49.4638 87.7269 48.9838 89.5267 48.4318 91.5773L48.3678 91.4539L50.2678 92.1148L52.1078 92.7559L51.9758 92.8236L53.6558 87.6831C53.8638 87.0659 54.0558 86.5642 54.1678 86.1819C54.2218 85.9972 54.2914 85.8174 54.3758 85.6444Z" fill="#263238"/>
<path d="M172.36 45.1375C172.037 45.138 171.717 45.0841 171.412 44.9782L166.512 43.2899C166.031 43.1225 165.603 42.8326 165.269 42.4491C164.936 42.0655 164.709 41.6017 164.612 41.1039L163.632 36.035C163.536 35.5366 163.573 35.0218 163.741 34.5423C163.908 34.0628 164.199 33.6355 164.584 33.3035L168.504 29.9269C168.89 29.5955 169.357 29.3707 169.857 29.275C170.357 29.1792 170.874 29.2159 171.356 29.3814L176.252 31.0697C176.734 31.2365 177.163 31.5261 177.497 31.9097C177.831 32.2933 178.059 32.7574 178.156 33.2557L179.136 38.3246C179.23 38.823 179.192 39.3372 179.025 39.8163C178.858 40.2954 178.568 40.7228 178.184 41.0561L174.264 44.4327C173.735 44.8875 173.059 45.1376 172.36 45.1375ZM167.72 40.3354L172.3 41.9281L175.96 38.7745L175.044 34.0202L170.468 32.4275L166.8 35.6129L167.72 40.3354Z" fill="#E0E0E0"/>
<path d="M167.719 40.3354C167.686 40.2323 167.659 40.1273 167.639 40.0208L167.439 39.0851C167.267 38.2449 167.039 37.0623 166.731 35.6169C166.728 35.6033 166.729 35.5892 166.733 35.5759C166.737 35.5626 166.745 35.5507 166.755 35.5413L170.403 32.3558C170.418 32.3481 170.435 32.3441 170.451 32.3441C170.468 32.3441 170.485 32.3481 170.499 32.3558L175.075 33.9485L175.147 34.0282V34.0959V34.1755L175.179 34.3308L175.239 34.6414C175.279 34.8444 175.315 35.0395 175.355 35.2546C175.435 35.6527 175.511 36.0509 175.587 36.4491C175.739 37.2455 175.887 38.01 176.027 38.7466C176.031 38.7633 176.03 38.7807 176.024 38.7968C176.018 38.8129 176.008 38.8272 175.995 38.8382L172.347 41.9838C172.336 41.9905 172.323 41.994 172.309 41.994C172.296 41.994 172.283 41.9905 172.271 41.9838L168.923 40.7893L168.023 40.4548C167.919 40.4211 167.818 40.3798 167.719 40.3314C167.834 40.3552 167.946 40.3871 168.055 40.4269L168.979 40.7216L172.323 41.8365H172.247L175.895 38.6511L175.863 38.7466C175.719 38.006 175.567 37.2415 175.415 36.4491C175.339 36.0509 175.259 35.6527 175.179 35.2546C175.139 35.0515 175.103 34.8564 175.063 34.6414L175.003 34.3308L174.971 34.1755V34.0959V34.056V34.0282C174.971 34.0282 175.099 34.1755 175.035 34.1038L170.463 32.5111H170.559L166.883 35.6527L166.911 35.5771C167.171 37.0185 167.387 38.1931 167.539 39.0333C167.607 39.4315 167.663 39.7461 167.703 39.985C167.719 40.101 167.725 40.2183 167.719 40.3354Z" fill="#263238"/>
<path d="M172.36 45.1374C172.36 45.1374 172.532 45.1375 172.856 45.0737C173.323 44.9852 173.761 44.7843 174.132 44.4884L178.112 41.0203C178.548 40.646 178.859 40.1489 179.004 39.5948C179.082 39.3029 179.115 39.0006 179.1 38.6988C179.065 38.3842 179.011 38.0718 178.94 37.7631C178.688 36.477 178.42 35.1073 178.14 33.6658C178.09 33.3053 177.992 32.953 177.848 32.6186C177.692 32.2813 177.471 31.9782 177.196 31.7273C176.921 31.4763 176.599 31.2825 176.248 31.1573L175.12 30.7591L172.804 29.9627L171.604 29.5646C171.224 29.4053 170.816 29.3201 170.404 29.3137C169.99 29.3132 169.58 29.4029 169.204 29.5765C168.839 29.759 168.504 29.9967 168.212 30.2813L166.36 31.874L164.572 33.415C164.028 33.9115 163.7 34.6004 163.66 35.3342C163.654 35.6896 163.695 36.0443 163.78 36.3894C163.848 36.7438 163.912 37.0902 163.98 37.4326C164.108 38.1175 164.236 38.7785 164.356 39.4235C164.476 40.0686 164.592 40.6898 164.716 41.2711C164.865 41.8224 165.177 42.3162 165.612 42.6886C165.814 42.8603 166.039 43.0037 166.28 43.1147C166.516 43.2182 166.768 43.2939 167 43.3815L168.34 43.8513L170.484 44.6079C170.927 44.786 171.382 44.9363 171.844 45.0578C172.164 45.1175 172.34 45.1136 172.34 45.1215C172.173 45.1417 172.003 45.1417 171.836 45.1215C171.368 45.0143 170.908 44.8746 170.46 44.7034L168.324 43.9748L166.98 43.5208C166.74 43.4372 166.496 43.3655 166.244 43.258C165.989 43.1434 165.751 42.9947 165.536 42.816C165.075 42.4279 164.741 41.9103 164.58 41.3308C164.444 40.7256 164.336 40.1124 164.208 39.4713C164.08 38.8303 163.952 38.1653 163.808 37.4804C163.739 37.1433 163.671 36.7969 163.604 36.4412C163.514 36.0819 163.471 35.7125 163.476 35.3422C163.517 34.5559 163.866 33.8171 164.448 33.2836L166.232 31.7386L168.084 30.1459C168.244 30.0105 168.392 29.8751 168.564 29.7477C168.739 29.6181 168.927 29.506 169.124 29.4132C169.523 29.2291 169.957 29.134 170.396 29.1345C170.832 29.1413 171.262 29.2305 171.664 29.3973L172.864 29.7955L175.18 30.5919L176.308 30.99C176.689 31.1253 177.038 31.3352 177.336 31.6072C177.628 31.874 177.863 32.1962 178.028 32.5549C178.179 32.9044 178.281 33.2728 178.332 33.6499C178.599 35.0966 178.859 36.4637 179.112 37.7512C179.184 38.0675 179.236 38.388 179.268 38.7108C179.291 39.1692 179.208 39.6267 179.025 40.0479C178.842 40.4691 178.563 40.8427 178.212 41.1397L174.188 44.5601C173.8 44.8547 173.346 45.0489 172.864 45.1255C172.697 45.1501 172.528 45.1541 172.36 45.1374Z" fill="#263238"/>
<path d="M138.268 36.8473C137.951 36.8466 137.638 36.7745 137.352 36.6367C137.067 36.4988 136.817 36.2986 136.62 36.051L135.224 34.3189C134.993 34.0309 134.842 33.6879 134.786 33.324C134.73 32.9601 134.771 32.5879 134.904 32.2443L135.704 30.1738C135.838 29.8311 136.061 29.5297 136.35 29.2998C136.638 29.0699 136.982 28.9195 137.348 28.8638L139.552 28.5253C139.917 28.4702 140.291 28.5115 140.636 28.6449C140.98 28.7783 141.284 28.9993 141.516 29.2858L142.912 31.0219C143.142 31.3091 143.293 31.6514 143.349 32.0147C143.405 32.378 143.365 32.7496 143.232 33.0925L142.432 35.167C142.299 35.5099 142.079 35.8123 141.792 36.0442C141.506 36.2761 141.164 36.4294 140.8 36.489L138.592 36.8234C138.484 36.8396 138.376 36.8475 138.268 36.8473ZM139.868 30.1061H139.792L137.6 30.4366C137.511 30.4497 137.428 30.4856 137.358 30.5408C137.287 30.596 137.233 30.6685 137.2 30.7512L136.4 32.8257C136.368 32.9081 136.358 32.9973 136.372 33.0845C136.385 33.1718 136.421 33.2541 136.476 33.3234L137.872 35.0555C137.928 35.1242 138.001 35.1772 138.083 35.2093C138.166 35.2414 138.256 35.2515 138.344 35.2387L140.552 34.9002C140.64 34.8875 140.724 34.8517 140.794 34.7965C140.864 34.7413 140.919 34.6685 140.952 34.5856L141.752 32.5151C141.784 32.4328 141.794 32.3435 141.781 32.2561C141.768 32.1687 141.731 32.0863 141.676 32.0174L140.28 30.2853C140.231 30.2283 140.17 30.1827 140.102 30.1517C140.033 30.1208 139.959 30.1052 139.884 30.1061H139.868Z" fill="#E0E0E0"/>
<path d="M139.884 30.1061C139.94 30.0887 140 30.0887 140.056 30.1061C140.126 30.1248 140.19 30.1589 140.244 30.2056C140.312 30.2724 140.376 30.3429 140.436 30.4167L141.572 31.7745L141.756 32.0014C141.826 32.0951 141.865 32.2076 141.868 32.324C141.866 32.4386 141.838 32.5513 141.788 32.6545C141.752 32.754 141.712 32.8536 141.676 32.9571C141.516 33.3553 141.348 33.8052 141.172 34.2671C141.128 34.3826 141.084 34.498 141.036 34.6175C140.984 34.7613 140.878 34.8796 140.74 34.948C140.611 34.9957 140.477 35.0265 140.34 35.0396L139.94 35.1033C139.4 35.1829 138.872 35.2745 138.272 35.3502C138.186 35.3504 138.101 35.3324 138.022 35.2974C137.944 35.2624 137.873 35.2111 137.816 35.1471L137.552 34.8166L137.036 34.1795L136.544 33.5583L136.42 33.407C136.373 33.3512 136.335 33.288 136.308 33.2199C136.254 33.0789 136.254 32.9229 136.308 32.7819L136.828 31.4798L137.064 30.8905C137.099 30.7902 137.144 30.694 137.2 30.6038C137.264 30.5141 137.353 30.4449 137.456 30.4047C138.224 30.2654 138.808 30.2096 139.228 30.1539C139.443 30.112 139.661 30.0933 139.88 30.0981C139.827 30.1177 139.772 30.1311 139.716 30.138L139.244 30.2335C138.844 30.3132 138.212 30.4008 137.512 30.5401C137.437 30.573 137.372 30.6252 137.324 30.6914C137.279 30.7743 137.242 30.8609 137.212 30.9502L136.988 31.5435L136.484 32.8536C136.448 32.9498 136.448 33.0559 136.484 33.1522C136.54 33.2547 136.608 33.3497 136.688 33.4349L137.2 34.06L137.716 34.6971L137.976 35.0197C138.014 35.0614 138.06 35.0947 138.112 35.1174C138.164 35.14 138.22 35.1515 138.276 35.1511L139.912 34.9082L140.312 34.8484C140.434 34.8409 140.553 34.8168 140.668 34.7768C140.763 34.7319 140.836 34.6519 140.872 34.5538C140.916 34.4343 140.964 34.3189 141.008 34.2034C141.192 33.7495 141.364 33.3115 141.528 32.9013C141.574 32.8031 141.614 32.7036 141.648 32.6027C141.692 32.5199 141.718 32.4291 141.724 32.3359C141.72 32.251 141.694 32.1687 141.648 32.097L141.472 31.874L140.388 30.4764C140.34 30.3788 140.27 30.2941 140.182 30.2296C140.094 30.1651 139.992 30.1228 139.884 30.1061Z" fill="#263238"/>
<path d="M138.268 36.8473C138.355 36.8276 138.443 36.8143 138.532 36.8075L139.296 36.6761L140.496 36.473C140.745 36.4459 140.99 36.387 141.224 36.2978C141.48 36.1924 141.712 36.0351 141.904 35.8359C142.124 35.6178 142.293 35.354 142.4 35.0634C142.516 34.7608 142.64 34.4423 142.764 34.1118C142.984 33.4468 143.432 32.7659 143.268 32.0054C143.197 31.6197 143.02 31.2613 142.756 30.9701L141.956 29.9826L141.556 29.473C141.428 29.3017 141.278 29.1489 141.108 29.019C140.762 28.7606 140.341 28.6208 139.908 28.6208C139.685 28.629 139.463 28.6543 139.244 28.6965L138.576 28.796L137.276 28.9991C136.877 29.0853 136.514 29.2909 136.236 29.5884C136.102 29.7311 135.989 29.892 135.9 30.0662C135.816 30.2375 135.748 30.4365 135.676 30.6157L135.248 31.6948C135.099 32.0201 134.981 32.3588 134.896 32.7062C134.849 33.0198 134.873 33.3401 134.968 33.6428C135.063 33.9456 135.226 34.223 135.444 34.4542L136.448 35.7284C136.6 35.9116 136.724 36.0947 136.868 36.2341C136.998 36.3616 137.145 36.4714 137.304 36.5606C137.61 36.7223 137.946 36.8198 138.292 36.8473C138.292 36.8473 138.268 36.8473 138.22 36.8473C138.172 36.8473 138.108 36.8473 138.02 36.8473C137.757 36.8236 137.502 36.7492 137.268 36.6283C137.099 36.539 136.942 36.4293 136.8 36.3018C136.643 36.1411 136.495 35.9723 136.356 35.7961L135.328 34.5418C135.093 34.2967 134.916 34.0016 134.812 33.6788C134.708 33.356 134.68 33.0139 134.728 32.6783C134.808 32.3159 134.925 31.9624 135.076 31.6231L135.496 30.5441C135.572 30.3569 135.632 30.1738 135.724 29.9786C135.819 29.7859 135.942 29.6076 136.088 29.4491C136.387 29.1289 136.773 28.9032 137.2 28.8C137.64 28.7244 138.068 28.6646 138.512 28.593L139.18 28.4934C139.409 28.4476 139.642 28.421 139.876 28.4138C140.352 28.4095 140.817 28.5605 141.2 28.8438C141.384 28.9835 141.547 29.1484 141.684 29.3336L142.084 29.8433C142.356 30.1777 142.62 30.5122 142.884 30.8347C143.169 31.1517 143.359 31.5422 143.432 31.9616C143.503 32.3638 143.458 32.7778 143.304 33.1561C143.168 33.5026 143.032 33.841 142.904 34.1715C142.776 34.502 142.648 34.8126 142.528 35.1192C142.416 35.4186 142.24 35.6903 142.012 35.9155C141.606 36.3038 141.074 36.5342 140.512 36.5646L139.312 36.7318C138.98 36.7756 138.72 36.8114 138.544 36.8234C138.453 36.8422 138.36 36.8502 138.268 36.8473Z" fill="#263238"/>
<path d="M177.235 31.651C176.954 32.133 176.606 32.5739 176.203 32.961C175.849 33.3969 175.423 33.7699 174.943 34.064C175.28 33.6237 175.651 33.2097 176.051 32.8256C176.4 32.3908 176.797 31.9967 177.235 31.651Z" fill="#263238"/>
<path d="M169.735 29.3615C169.997 29.8297 170.177 30.3386 170.267 30.8666C170.43 31.3814 170.501 31.9202 170.479 32.4593C170.3 31.9599 170.166 31.4455 170.079 30.9223C169.917 30.4136 169.802 29.8912 169.735 29.3615Z" fill="#263238"/>
<path d="M166.752 35.5214C166.229 35.4188 165.715 35.2723 165.216 35.0834C164.697 34.9565 164.189 34.7888 163.696 34.5817C164.772 34.6681 165.815 34.9889 166.752 35.5214Z" fill="#263238"/>
<path d="M165.899 42.4298C166.109 42.0134 166.378 41.6298 166.699 41.291C166.975 40.9117 167.303 40.5738 167.675 40.2876C167.469 40.7056 167.199 41.0896 166.875 41.4264C166.6 41.8057 166.271 42.1436 165.899 42.4298Z" fill="#263238"/>
<path d="M172.636 44.6079C172.475 44.198 172.38 43.7652 172.356 43.3257C172.26 42.8947 172.234 42.4509 172.28 42.0117C172.44 42.4234 172.534 42.8573 172.56 43.2978C172.654 43.7279 172.68 44.1699 172.636 44.6079Z" fill="#263238"/>
<path d="M178.328 39.5071C177.918 39.4595 177.519 39.3437 177.148 39.1647C176.751 39.0514 176.376 38.871 176.04 38.6311C176.846 38.794 177.62 39.0901 178.328 39.5071Z" fill="#263238"/>
<path d="M257.736 70.0396C260.444 66.7905 263.152 63.5094 265.264 59.8462C267.376 56.1829 268.864 52.0896 268.972 47.8689C268.972 47.2278 268.712 42.7881 268.092 42.6089C267.652 42.4815 267.348 46.4035 266.988 46.6863C263.532 49.378 261.288 53.3717 259.996 57.5447C258.78 61.6134 258.022 65.8041 257.736 70.0396Z" fill="#263238"/>
<path d="M222.46 94.735C223.54 91.9477 228.86 78.0113 228.832 78.0113C228.804 78.0113 219.668 73.265 222.832 63.5971C224.352 58.9265 228.268 49.5652 231.908 41.1317C233.797 36.7623 237.27 33.261 241.635 31.3243C245.999 29.3876 250.936 29.1574 255.464 30.6795L256.396 30.994C266.26 34.9758 268.396 45.5157 264.128 55.2194L244.528 100.413L227.352 95.1292L222.46 94.735Z" fill="#FFBF9D"/>
<path d="M228.837 78.0193C228.837 78.0193 234.809 80.4084 242.681 78.5449C242.681 78.5449 237.233 84.6729 227.881 80.5637L228.837 78.0193Z" fill="#FF9A6C"/>
<path d="M231.892 50.4371C231.768 50.7943 231.788 51.1859 231.948 51.5286C232.109 51.8714 232.397 52.1383 232.752 52.2727C232.923 52.3454 233.107 52.3834 233.293 52.3844C233.479 52.3854 233.663 52.3495 233.835 52.2786C234.007 52.2078 234.163 52.1035 234.294 51.9719C234.424 51.8403 234.527 51.684 234.596 51.5122C234.722 51.155 234.703 50.7631 234.542 50.42C234.381 50.077 234.092 49.8102 233.736 49.6766C233.566 49.6033 233.382 49.5649 233.196 49.5636C233.009 49.5623 232.825 49.5982 232.653 49.6691C232.481 49.74 232.325 49.8445 232.195 49.9764C232.064 50.1083 231.961 50.265 231.892 50.4371Z" fill="#263238"/>
<path d="M232.604 45.8302C232.716 46.0691 234.024 45.647 235.508 46.1527C236.992 46.6584 237.832 47.7454 238.052 47.6339C238.16 47.5822 238.096 47.1999 237.736 46.6942C237.245 46.0347 236.56 45.5435 235.776 45.2886C235 45.0219 234.159 45.0107 233.376 45.2568C232.8 45.4519 232.548 45.7227 232.604 45.8302Z" fill="#263238"/>
<path d="M244.929 55.6574C244.803 56.014 244.823 56.4054 244.983 56.7478C245.144 57.0902 245.433 57.3562 245.788 57.489C245.959 57.5623 246.143 57.6007 246.329 57.602C246.516 57.6033 246.7 57.5674 246.872 57.4965C247.044 57.4256 247.2 57.3211 247.33 57.1892C247.461 57.0573 247.564 56.9006 247.633 56.7285C247.757 56.3713 247.737 55.9797 247.577 55.637C247.416 55.2942 247.128 55.0273 246.773 54.8929C246.601 54.8203 246.417 54.7825 246.231 54.7817C246.045 54.781 245.861 54.8173 245.689 54.8885C245.517 54.9598 245.361 55.0645 245.231 55.1965C245.1 55.3286 244.997 55.4852 244.929 55.6574Z" fill="#263238"/>
<path d="M246.96 51.3212C247.068 51.5601 248.38 51.142 249.864 51.6437C251.348 52.1454 252.184 53.2364 252.408 53.1289C252.512 53.0732 252.452 52.6909 252.092 52.1892C251.6 51.5287 250.914 51.0362 250.128 50.7796C249.353 50.512 248.511 50.5009 247.728 50.7478C247.168 50.9429 246.904 51.2137 246.96 51.3212Z" fill="#263238"/>
<path d="M237.772 60.8974C237.808 60.8178 236.936 60.348 235.504 59.6551C235.14 59.4879 234.804 59.2928 234.828 59.0101C234.852 58.7273 235.128 58.3531 235.46 57.9788L237.56 55.4782C240.508 51.8945 242.78 48.9201 242.632 48.8007C242.484 48.6812 239.98 51.4844 237.032 55.0561C236.316 55.9401 235.628 56.7802 234.976 57.5886C234.688 57.9867 234.276 58.3849 234.276 59.0061C234.287 59.1573 234.332 59.3043 234.407 59.436C234.482 59.5676 234.587 59.6807 234.712 59.7666C234.904 59.8933 235.111 59.9962 235.328 60.0732C236.8 60.6585 237.736 60.9811 237.772 60.8974Z" fill="#263238"/>
<path d="M241.801 63.39C241.561 63.2984 241.001 64.9031 239.249 65.576C237.497 66.2489 235.821 65.5004 235.733 65.7194C235.677 65.8109 236.013 66.1574 236.729 66.4241C237.67 66.7531 238.698 66.7432 239.633 66.3963C240.528 66.0595 241.258 65.3901 241.669 64.5288C241.957 63.8837 241.913 63.4179 241.801 63.39Z" fill="#263238"/>
<path d="M249.076 45.3485C249.076 45.7984 250.636 46.109 252.308 46.9014C253.98 47.6938 255.232 48.6454 255.584 48.3627C255.744 48.2233 255.628 47.7614 255.184 47.1682C254.588 46.4347 253.832 45.8465 252.973 45.4483C252.114 45.0501 251.175 44.8526 250.228 44.8706C249.508 44.9264 249.08 45.1374 249.076 45.3485Z" fill="#263238"/>
<path d="M234.888 41.1197C235.036 41.5457 236.176 41.5179 237.412 41.9161C238.648 42.3142 239.612 42.9075 239.968 42.6368C240.132 42.5014 240.084 42.1112 239.736 41.6373C239.253 41.0508 238.606 40.62 237.877 40.3996C237.148 40.1792 236.37 40.179 235.64 40.399C235.088 40.618 234.828 40.9166 234.888 41.1197Z" fill="#263238"/>
<path d="M260.905 62.0919C261.097 62.0919 268.213 62.3667 265.773 68.861C263.333 75.3554 257.265 71.5886 257.325 71.3974C257.385 71.2063 260.905 62.0919 260.905 62.0919Z" fill="#FFBF9D"/>
<path d="M260.248 69.6893C260.284 69.6893 260.332 69.8128 260.492 69.972C260.718 70.1893 261.022 70.3094 261.336 70.3065C262.136 70.3065 263.112 69.4345 263.584 68.2718C263.811 67.7196 263.911 67.1235 263.876 66.5278C263.893 66.3004 263.853 66.0725 263.76 65.8641C263.668 65.6558 263.525 65.4734 263.344 65.3332C263.226 65.2464 263.08 65.2047 262.933 65.2157C262.786 65.2266 262.648 65.2895 262.544 65.3929C262.388 65.5442 262.38 65.6876 262.344 65.6876C262.308 65.6876 262.244 65.5243 262.396 65.2894C262.491 65.1439 262.632 65.0335 262.796 64.9748C263.027 64.9069 263.275 64.9311 263.488 65.0425C263.734 65.1973 263.937 65.4119 264.077 65.6662C264.217 65.9204 264.29 66.206 264.288 66.4959C264.353 67.1638 264.254 67.8374 264 68.4589C263.464 69.753 262.332 70.7326 261.284 70.6529C261.089 70.6374 260.9 70.579 260.731 70.4819C260.561 70.3848 260.415 70.2515 260.304 70.0915C260.2 69.8566 260.22 69.6933 260.248 69.6893Z" fill="#FF9A6C"/>
<path d="M240.257 32.0014C239.425 31.0219 243.901 28.8159 246.945 28.6487C251.545 28.3779 257.949 29.5725 261.165 31.9735C265.045 34.8603 267.825 38.3962 268.489 43.1704C269.153 47.9446 268.205 52.8502 266.345 57.3019C265.777 58.6597 265.081 60.0334 263.897 60.9134C262.437 62.0004 260.341 62.2353 259.653 64.2461C259.539 64.6134 259.353 64.9545 259.106 65.2498C258.858 65.545 258.555 65.7886 258.213 65.9663C256.533 66.7626 255.533 65.0306 255.321 63.5772C254.869 60.4873 255.877 57.3934 256.873 54.419C257.581 52.3166 258.313 50.1704 259.673 48.4065C260.409 47.4469 261.313 46.6226 261.997 45.6192C262.681 44.6158 263.125 43.3615 262.797 42.2028C262.713 41.9473 262.605 41.7006 262.473 41.4662C261.868 40.3299 260.971 39.3742 259.873 38.6969C258.775 38.0196 257.516 37.6451 256.225 37.6118C252.053 37.5043 245.025 37.0384 243.885 35.1749C242.217 32.4911 242.101 31.1134 242.101 31.1134L240.257 32.0014Z" fill="#263238"/>
<path d="M262 27.9996C262.42 28.2107 272.248 34.2551 272.184 43.0708C272.12 51.8866 270.5 54.0447 270.5 54.0447C270.83 54.4488 271.099 54.8981 271.3 55.3786C271.564 56.0476 270.056 58.3172 268.764 57.5606C259.94 49.4099 247.78 44.7272 233.908 40.4388L223.444 36.7079C220.38 36.0429 219.616 34.9081 221.112 34.6015C222.26 34.3626 231.764 33.8848 231.764 33.8848L233.816 33.2556L240.216 28.7522C240.216 28.7522 239.968 27.7328 241.268 27.4024C242.568 27.0719 253.736 23.8187 262 27.9996Z" fill="#007BFF"/>
<path d="M233.809 33.2716C233.809 33.2716 233.949 33.3274 234.209 33.415L235.409 33.7892C236.441 34.0958 237.909 34.6135 239.717 35.2745C244.395 37.0667 248.906 39.2624 253.201 41.8365C257.492 44.4214 261.632 47.2477 265.601 50.3018C267.137 51.4606 268.357 52.4242 269.201 53.0891L270.181 53.8496C270.405 54.0209 270.529 54.1045 270.529 54.1045C270.529 54.1045 270.421 54.001 270.201 53.8178L269.245 53.0214C268.409 52.3445 267.197 51.365 265.673 50.1943C261.718 47.1043 257.577 44.2585 253.273 41.6732C248.965 39.0896 244.429 36.905 239.721 35.147C237.783 34.4238 235.81 33.7978 233.809 33.2716Z" fill="#263238"/>
<g opacity="0.3">
<path d="M270.137 36.011C270.137 36.011 259.289 30.2294 253.297 30.9302L254.001 30.8346L248.401 31.2965C247.453 31.3762 246.369 31.404 245.721 30.7152C245.721 30.7152 249.117 29.2817 254.481 29.3096C259.845 29.3375 267.717 31.2328 270.137 36.011Z" fill="black"/>
</g>
<path d="M270.28 36.1066C270.04 35.7462 269.772 35.4041 269.48 35.0833C268.699 34.1952 267.816 33.4013 266.848 32.7181C265.416 31.6969 263.841 30.8919 262.172 30.329C260.139 29.5836 257.969 29.2835 255.808 29.449C254.699 29.5603 253.598 29.7412 252.512 29.9906C251.464 30.2255 250.444 30.3887 249.48 30.6675C248.597 30.9594 247.689 31.1752 246.768 31.3125C245.963 31.3918 245.149 31.2841 244.392 30.998C241.556 30.0702 240.024 28.8956 240.216 28.7642C240.227 28.8786 240.279 28.985 240.364 29.0628C240.595 29.2869 240.853 29.4809 241.132 29.6402C242.15 30.2468 243.231 30.742 244.356 31.1174C245.13 31.4152 245.962 31.5323 246.788 31.4598C247.719 31.3303 248.637 31.1212 249.532 30.8347C250.476 30.5759 251.508 30.4007 252.556 30.1658C253.636 29.9265 254.728 29.751 255.828 29.6402C257.963 29.4803 260.107 29.772 262.12 30.4963C263.776 31.0477 265.344 31.8321 266.776 32.8256C267.743 33.495 268.632 34.2682 269.428 35.1311C269.712 35.4377 269.924 35.6846 270.06 35.8558C270.196 36.027 270.28 36.1066 270.28 36.1066Z" fill="#263238"/>
<g opacity="0.3">
<path d="M272.056 46.7142C270 45.9935 268.624 44.9304 266.732 43.7836C264.732 42.5652 262.688 41.4502 260.732 40.1362C259.248 39.1408 257.452 38.0896 256.792 36.5526C256.573 36.9255 256.455 37.3484 256.449 37.7803C256.442 38.2121 256.548 38.6383 256.756 39.0174C257.176 39.8137 258.956 41.2352 259.716 41.7489C264.04 44.6755 267.044 46.6744 271.876 48.7091C271.979 48.0501 272.038 47.385 272.052 46.7182" fill="black"/>
</g>
<path d="M272.16 42.0952C273.272 43.1026 273.94 43.7556 273.596 44.8825C273.312 45.8142 272.736 46.8734 271.768 46.7261C271.482 46.6599 271.211 46.541 270.968 46.3757L257.72 38.6549C257.241 38.4458 256.852 38.073 256.624 37.6037C256.36 36.8551 257.024 36.0349 257.788 35.8278C258.552 35.6208 259.368 35.8278 260.128 36.0906C264.44 37.4803 268.372 39.6145 272.16 42.0912" fill="#007BFF"/>
<path d="M256.768 37.8905C256.646 37.6603 256.588 37.4019 256.6 37.1419C256.63 36.791 256.758 36.4556 256.971 36.1739C257.183 35.8923 257.47 35.6757 257.8 35.5492C258.648 35.2625 259.772 35.4536 260.876 35.8996C261.98 36.3455 263.224 36.8512 264.476 37.4286C266.651 38.3887 268.735 39.54 270.704 40.8689C271.456 41.3825 272.036 41.8364 272.44 42.151L272.896 42.5213C272.948 42.567 273.004 42.607 273.064 42.6408C273.064 42.6408 273.02 42.585 272.92 42.4934L272.484 42.0953C272.084 41.7648 271.528 41.2989 270.78 40.7614C268.824 39.395 266.738 38.2228 264.552 37.2613C263.28 36.68 262.052 36.1783 260.924 35.7363C259.796 35.2943 258.64 35.1032 257.724 35.4257C257.377 35.5636 257.077 35.7979 256.86 36.1008C256.643 36.4037 256.518 36.7623 256.5 37.1339C256.495 37.3334 256.538 37.5313 256.624 37.7113C256.662 37.7789 256.71 37.8396 256.768 37.8905Z" fill="#263238"/>
<path d="M238.208 30.1816L247.212 33.0525L245.592 35.3023L235.94 31.7744L238.208 30.1816Z" fill="white"/>
<path d="M249.008 42.7045C249.028 42.6568 245.24 40.7136 240.54 38.3962C235.84 36.0788 232 34.2034 232 34.2511C232 34.2989 235.768 36.242 240.468 38.5595C245.168 40.8769 248.984 42.7483 249.008 42.7045Z" fill="#263238"/>
<path d="M251.276 91.0119L251.396 85.1268L231.164 92.6086C231.164 92.6086 227.424 80.5159 227.424 79.9465L222.94 82.7337L215.488 79.5483L208.036 75.885L192.964 102.165L177.152 148.569L214.4 173.304L242.024 143.839L258.824 118.355L268.056 102.221L251.276 91.0119Z" fill="#007BFF"/>
<path d="M229.365 92.521C229.341 92.3255 229.331 92.1286 229.337 91.9317C229.337 91.5335 229.337 90.9681 229.313 90.2832L229.405 90.339C227.181 91.4199 225.129 92.8191 223.313 94.492L223.153 94.6433V94.4243C223.153 94.1615 223.121 93.8828 223.105 93.6001C222.941 90.7133 222.805 88.1012 222.705 86.2059C222.665 85.2821 222.633 84.5255 222.609 83.9641C222.609 83.7199 222.609 83.5168 222.609 83.3549C222.582 83.3499 222.558 83.3353 222.542 83.3139C222.526 83.2925 222.518 83.2659 222.521 83.2392C222.523 83.2126 222.536 83.1878 222.556 83.1698C222.576 83.1517 222.602 83.1417 222.629 83.1417C222.655 83.1417 222.681 83.1517 222.701 83.1698C222.721 83.1878 222.734 83.2126 222.736 83.2392C222.739 83.2659 222.731 83.2925 222.715 83.3139C222.699 83.3353 222.675 83.3499 222.649 83.3549C222.649 83.5142 222.681 83.7172 222.705 83.9601C222.745 84.5216 222.797 85.2781 222.861 86.1979C222.989 88.0893 223.145 90.7013 223.309 93.5882C223.309 93.8709 223.341 94.1496 223.353 94.4124L223.181 94.3407C225.011 92.6561 227.095 91.267 229.357 90.2235L229.453 90.1837V90.2832C229.453 90.9681 229.425 91.5216 229.417 91.9317C229.414 92.1292 229.396 92.3261 229.365 92.521Z" fill="#263238"/>
<path d="M249.412 91.2946C249.34 91.3445 249.262 91.386 249.18 91.418L248.504 91.7405L246 92.8833L237.696 96.5784L233.752 98.3145L233.584 98.3862L233.616 98.207C233.942 96.3401 234.094 94.4475 234.072 92.5528L234.164 92.6086L232.296 93.5124L231.796 93.7434C231.684 93.7951 231.624 93.819 231.62 93.8111C231.669 93.7714 231.723 93.7379 231.78 93.7115L232.264 93.4487L234.108 92.4931L234.196 92.4453V92.5528C234.252 94.4633 234.118 96.3746 233.796 98.2588L233.66 98.1512L237.6 96.4072L245.928 92.7638L248.464 91.6808L249.156 91.3981C249.237 91.3533 249.323 91.3185 249.412 91.2946Z" fill="#263238"/>
<path d="M214.041 61.8451H61.6805C58.4618 61.8451 55.8525 64.4425 55.8525 67.6466V172.663C55.8525 175.867 58.4618 178.465 61.6805 178.465H214.041C217.259 178.465 219.869 175.867 219.869 172.663V67.6466C219.869 64.4425 217.259 61.8451 214.041 61.8451Z" fill="#455A64"/>
<path d="M49.4404 170.931H227.14V174.049C227.14 175.928 226.39 177.731 225.055 179.06C223.72 180.39 221.909 181.136 220.02 181.136H56.5604C54.6721 181.136 52.8611 180.39 51.5258 179.06C50.1906 177.731 49.4404 175.928 49.4404 174.049V170.931Z" fill="#455A64"/>
<path d="M215.009 66.48H60.2568V164.962H215.009V66.48Z" fill="#263238"/>
<path d="M121.692 169.84L123.896 173.611H154.924L156.972 169.84H121.692Z" fill="#263238"/>
<path d="M210.828 69.8127H64.7484C64.026 69.8127 63.4404 70.3957 63.4404 71.1148V163.342C63.4404 164.061 64.026 164.644 64.7484 164.644H210.828C211.551 164.644 212.136 164.061 212.136 163.342V71.1148C212.136 70.3957 211.551 69.8127 210.828 69.8127Z" fill="#EBEBEB"/>
<path d="M211.98 164.783H63.2842L63.4402 76.9004H211.98V164.783Z" fill="#FAFAFA"/>
<path d="M75.9368 73.4759C75.925 73.714 75.8434 73.9434 75.702 74.1358C75.5605 74.3282 75.3655 74.475 75.1411 74.5581C74.9166 74.6413 74.6727 74.657 74.4393 74.6035C74.206 74.5499 73.9935 74.4294 73.8283 74.2569C73.6631 74.0844 73.5523 73.8674 73.5097 73.6328C73.4672 73.3982 73.4947 73.1563 73.5888 72.9372C73.6829 72.718 73.8396 72.5311 74.0394 72.3997C74.2392 72.2682 74.4733 72.198 74.7128 72.1978C75.0452 72.2061 75.3607 72.3453 75.5902 72.585C75.8197 72.8246 75.9443 73.145 75.9368 73.4759Z" fill="#263238"/>
<path d="M68.512 73.4759C68.5002 73.714 68.4186 73.9434 68.2771 74.1358C68.1357 74.3282 67.9407 74.475 67.7163 74.5581C67.4918 74.6413 67.2478 74.657 67.0145 74.6035C66.7812 74.5499 66.5687 74.4294 66.4035 74.2569C66.2382 74.0844 66.1275 73.8674 66.0849 73.6328C66.0424 73.3982 66.0698 73.1563 66.164 72.9372C66.2581 72.718 66.4148 72.5311 66.6146 72.3997C66.8144 72.2682 67.0485 72.198 67.288 72.1978C67.6204 72.2061 67.9359 72.3453 68.1654 72.585C68.3948 72.8246 68.5195 73.145 68.512 73.4759Z" fill="#263238"/>
<path d="M72.3284 73.4759C72.3166 73.714 72.235 73.9434 72.0936 74.1358C71.9521 74.3282 71.7571 74.475 71.5327 74.5581C71.3083 74.6413 71.0643 74.657 70.8309 74.6035C70.5976 74.5499 70.3851 74.4294 70.2199 74.2569C70.0547 74.0844 69.9439 73.8674 69.9013 73.6328C69.8588 73.3982 69.8863 73.1563 69.9804 72.9372C70.0745 72.718 70.2312 72.5311 70.431 72.3997C70.6308 72.2682 70.8649 72.198 71.1044 72.1978C71.4368 72.2061 71.7523 72.3453 71.9818 72.585C72.2113 72.8246 72.3359 73.145 72.3284 73.4759Z" fill="#263238"/>
<path d="M218.461 169.84C218.461 169.904 182.061 169.951 137.161 169.951C92.2605 169.951 55.8525 169.904 55.8525 169.84C55.8525 169.776 92.2525 169.724 137.161 169.724C182.069 169.724 218.461 169.776 218.461 169.84Z" fill="#263238"/>
<path d="M121.817 93.7474C124.234 92.2947 126.836 91.1699 129.553 90.4027L131.153 82.7775L144.089 82.5505L145.953 90.116C148.694 90.7898 151.333 91.8236 153.801 93.19L160.341 88.9254L169.649 97.8726L165.601 104.534C167.061 106.942 168.191 109.533 168.961 112.239L176.617 113.832L176.845 126.709L169.245 128.564C168.566 131.286 167.527 133.905 166.153 136.353L170.441 142.863L161.453 152.129L154.769 148.095C152.35 149.549 149.747 150.674 147.029 151.44L145.429 159.065L132.489 159.288L130.629 151.723C127.895 151.056 125.262 150.029 122.801 148.669L116.261 152.937L106.953 143.99L111.005 137.336C109.544 134.929 108.412 132.338 107.641 129.632L99.9848 128.039L99.7568 115.162L107.357 113.306C108.033 110.577 109.071 107.95 110.445 105.494L106.161 98.9835L115.149 89.7178L121.817 93.7474ZM128.713 110.905C126.806 112.871 125.528 115.356 125.04 118.045C124.552 120.734 124.876 123.507 125.971 126.012C127.066 128.518 128.882 130.645 131.191 132.123C133.5 133.601 136.197 134.364 138.942 134.316C141.687 134.268 144.355 133.411 146.611 131.854C148.866 130.296 150.607 128.108 151.613 125.565C152.619 123.023 152.845 120.24 152.263 117.57C151.68 114.899 150.315 112.461 148.341 110.563C147.029 109.303 145.48 108.313 143.784 107.649C142.087 106.985 140.276 106.66 138.453 106.693C136.63 106.726 134.832 107.116 133.161 107.84C131.49 108.565 129.978 109.611 128.713 110.917V110.905Z" fill="#E0E0E0"/>
<path d="M173.501 98.6729C173.678 97.7203 173.981 96.7952 174.401 95.9214L172.801 93.7712L175.697 90.3947L178.097 91.645C178.897 91.0958 179.768 90.6553 180.685 90.3349L181.085 87.6791L185.529 87.3326L186.329 89.893C187.286 90.069 188.216 90.3716 189.093 90.7928L191.253 89.2001L194.645 92.0869L193.389 94.476C193.943 95.2736 194.386 96.1414 194.709 97.0562L197.373 97.4544L197.721 101.882L195.149 102.679C194.973 103.632 194.669 104.558 194.245 105.43L195.845 107.584L192.949 110.957L190.549 109.706C189.748 110.258 188.876 110.7 187.957 111.02L187.557 113.676L183.113 114.023L182.313 111.458C181.355 111.284 180.426 110.983 179.549 110.563L177.385 112.155L174.001 109.237L175.257 106.848C174.704 106.049 174.26 105.182 173.937 104.267L171.273 103.869L170.925 99.4414L173.497 98.645L173.501 98.6729ZM179.529 100.015C179.434 101.011 179.655 102.011 180.162 102.875C180.668 103.739 181.434 104.422 182.352 104.83C183.27 105.237 184.293 105.348 185.277 105.146C186.261 104.944 187.157 104.439 187.837 103.704C188.518 102.968 188.95 102.038 189.072 101.046C189.194 100.053 189 99.0467 188.517 98.1696C188.034 97.2924 187.286 96.5883 186.38 96.1564C185.474 95.7245 184.454 95.5866 183.465 95.7621C182.432 95.9454 181.488 96.4605 180.777 97.2285C180.066 97.9965 179.628 98.9751 179.529 100.015Z" fill="#E0E0E0"/>
<path d="M76.0889 143.122C76.1212 141.978 76.3083 140.844 76.6449 139.749L74.3769 137.547L77.1529 133.096L80.1609 134.131C81.001 133.346 81.9427 132.677 82.9609 132.14L82.9369 128.975L88.0649 127.78L89.4529 130.627C90.6021 130.659 91.7417 130.845 92.8409 131.181L95.0769 128.923L99.5489 131.686L98.5089 134.681C99.2973 135.517 99.9699 136.454 100.509 137.468L103.689 137.444L104.889 142.545L102.025 143.918C101.989 145.062 101.801 146.196 101.465 147.291L103.733 149.513L100.957 153.968L97.9489 152.933C97.1095 153.719 96.1677 154.389 95.1489 154.924L95.1729 158.09L90.0489 159.284L88.6569 156.437C87.5108 156.397 86.3753 156.205 85.2809 155.864L83.0489 158.121L78.5729 155.358L79.6129 152.364C78.8245 151.527 78.1519 150.59 77.6129 149.576L74.4129 149.6L73.2129 144.5L76.0729 143.114L76.0889 143.122ZM83.5009 144.555C83.7578 145.637 84.331 146.618 85.148 147.376C85.9649 148.133 86.989 148.633 88.0909 148.811C89.1929 148.989 90.3232 148.838 91.3391 148.378C92.355 147.917 93.2109 147.167 93.7988 146.222C94.3866 145.277 94.68 144.18 94.642 143.07C94.6039 141.959 94.236 140.884 93.5848 139.982C92.9336 139.079 92.0282 138.389 90.9831 137.998C89.938 137.607 88.8 137.534 87.7129 137.786C86.988 137.954 86.3037 138.264 85.6992 138.696C85.0948 139.128 84.5821 139.675 84.1907 140.305C83.7993 140.935 83.5368 141.636 83.4185 142.368C83.3001 143.099 83.3281 143.847 83.5009 144.567V144.555Z" fill="#E0E0E0"/>
<path d="M85.2923 100.588C85.4229 99.8691 85.6517 99.1711 85.9723 98.5137L84.7723 96.8891L86.9563 94.3447L88.7563 95.2884C89.3601 94.8736 90.0165 94.5403 90.7083 94.2969L91.0043 92.306L94.3563 92.0432L94.9563 93.9744C95.6777 94.1081 96.3784 94.3357 97.0403 94.6513L98.6723 93.4568L101.224 95.6308L100.28 97.4226C100.697 98.023 101.031 98.6766 101.272 99.3658L103.272 99.6564L103.536 102.993L101.6 103.575C101.468 104.293 101.241 104.99 100.924 105.649L102.124 107.27L99.9403 109.814L98.1403 108.87C97.5373 109.287 96.8807 109.62 96.1883 109.862L95.8963 111.853L92.5443 112.112L91.9403 110.18C91.218 110.05 90.5169 109.822 89.8563 109.503L88.2283 110.698L85.6723 108.524L86.6163 106.732C86.1993 106.132 85.8656 105.478 85.6243 104.789L83.6243 104.494L83.3643 101.158L85.3043 100.56L85.2923 100.588ZM89.8323 102.209C89.8888 102.915 90.1543 103.588 90.5951 104.144C91.0358 104.7 91.6322 105.113 92.3088 105.332C92.9855 105.551 93.712 105.565 94.3968 105.373C95.0816 105.181 95.6939 104.792 96.1564 104.253C96.6189 103.715 96.9108 103.053 96.9953 102.35C97.0799 101.646 96.9532 100.934 96.6314 100.303C96.3096 99.671 95.8069 99.1485 95.187 98.801C94.5671 98.4536 93.8576 98.2968 93.1483 98.3504C92.6757 98.3861 92.2149 98.5144 91.7922 98.7278C91.3696 98.9412 90.9934 99.2356 90.6853 99.5941C90.3773 99.9526 90.1433 100.368 89.9969 100.817C89.8505 101.265 89.7946 101.739 89.8323 102.209Z" fill="#EBEBEB"/>
<path d="M173.668 136.524C173.784 135.907 173.98 135.307 174.252 134.74L173.208 133.347L175.084 131.161L176.632 131.957C177.15 131.6 177.714 131.313 178.308 131.105L178.56 129.385L181.44 129.162L181.956 130.822C182.577 130.935 183.18 131.131 183.748 131.404L185.148 130.364L187.344 132.232L186.544 133.769C186.903 134.286 187.191 134.848 187.4 135.441L189.128 135.692L189.352 138.559L187.684 139.072C187.57 139.69 187.374 140.29 187.1 140.856L188.144 142.25L186.268 144.432L184.724 143.636C184.204 143.991 183.639 144.278 183.044 144.488L182.792 146.204L179.912 146.427L179.396 144.77C178.776 144.655 178.174 144.46 177.604 144.189L176.204 145.228L174 143.361L174.8 141.824C174.441 141.308 174.153 140.747 173.944 140.156L172.22 139.905L171.992 137.038L173.66 136.524H173.668ZM177.568 137.914C177.615 138.523 177.843 139.105 178.223 139.585C178.603 140.065 179.118 140.422 179.702 140.611C180.286 140.8 180.913 140.812 181.503 140.645C182.094 140.479 182.622 140.141 183.02 139.676C183.418 139.21 183.668 138.638 183.738 138.031C183.809 137.424 183.697 136.809 183.416 136.266C183.136 135.722 182.699 135.274 182.162 134.977C181.625 134.681 181.012 134.55 180.4 134.601C179.584 134.668 178.828 135.054 178.297 135.675C177.766 136.296 177.504 137.101 177.568 137.914Z" fill="#EBEBEB"/>
<path d="M138.293 140.844H118.401C117.232 140.841 116.084 140.533 115.072 139.95C114.06 139.367 113.219 138.53 112.634 137.522C112.049 136.515 111.74 135.372 111.737 134.208C111.735 133.044 112.04 131.9 112.621 130.89L122.573 113.732L132.521 96.5744C133.107 95.565 133.951 94.7269 134.965 94.1442C135.98 93.5616 137.131 93.2549 138.303 93.2549C139.474 93.2549 140.625 93.5616 141.64 94.1442C142.655 94.7269 143.498 95.565 144.085 96.5744L154.037 113.732L163.989 130.89C164.57 131.9 164.875 133.045 164.872 134.209C164.87 135.373 164.56 136.516 163.975 137.524C163.389 138.532 162.548 139.369 161.535 139.952C160.523 140.534 159.374 140.842 158.205 140.844H138.293Z" fill="#007BFF"/>
<path d="M159.717 132.857C159.717 132.857 159.769 132.956 159.869 133.163C160.039 133.578 160.105 134.029 160.059 134.474C160.013 134.92 159.857 135.348 159.605 135.72C159.407 136.013 159.153 136.265 158.857 136.46C158.513 136.678 158.119 136.807 157.713 136.835C154.321 136.87 149.425 136.862 143.369 136.878L122.097 136.902H119.057C118.514 136.896 117.987 136.723 117.548 136.407C117.109 136.09 116.779 135.645 116.605 135.134C116.419 134.624 116.385 134.071 116.505 133.542C116.537 133.41 116.581 133.279 116.625 133.143C116.669 133.008 116.741 132.893 116.801 132.773L117.201 132.076C117.713 131.141 118.233 130.201 118.753 129.249L125.201 117.467L131.689 105.693C132.731 103.79 133.758 101.922 134.769 100.09C135.025 99.6365 135.261 99.1786 135.533 98.7286C135.803 98.269 136.189 97.8874 136.653 97.6217C137.107 97.3626 137.617 97.2151 138.14 97.1916C138.663 97.168 139.185 97.2691 139.661 97.4863C140.133 97.699 140.545 98.0245 140.861 98.434C141.134 98.847 141.381 99.2766 141.601 99.7201C142.069 100.572 142.533 101.412 142.985 102.241C143.897 103.897 144.778 105.504 145.629 107.063C147.337 110.172 148.925 113.071 150.373 115.715C153.269 121.007 155.609 125.291 157.229 128.258L159.085 131.67C159.293 132.068 159.453 132.355 159.561 132.562C159.669 132.769 159.721 132.869 159.721 132.869C159.721 132.869 159.657 132.769 159.545 132.57L159.049 131.69L157.157 128.294C155.525 125.335 153.157 121.067 150.245 115.787L145.481 107.142L142.825 102.328C142.369 101.5 141.909 100.66 141.437 99.8077C141.217 99.3776 140.972 98.9601 140.705 98.5574C140.41 98.1751 140.025 97.8703 139.585 97.6695C139.137 97.4647 138.646 97.3694 138.153 97.3915C137.661 97.4137 137.18 97.5527 136.753 97.7969C136.319 98.0493 135.958 98.4085 135.705 98.8401C135.441 99.2741 135.201 99.74 134.949 100.194L131.869 105.796C129.781 109.603 127.613 113.541 125.397 117.579L118.921 129.353C118.397 130.304 117.881 131.248 117.365 132.18C117.084 132.619 116.862 133.093 116.705 133.589C116.591 134.086 116.622 134.604 116.797 135.083C116.955 135.557 117.258 135.97 117.664 136.263C118.07 136.557 118.559 136.716 119.061 136.719H122.101L143.373 136.739L157.713 136.759C158.106 136.736 158.487 136.616 158.821 136.409C159.112 136.22 159.364 135.977 159.561 135.692C159.869 135.241 160.033 134.708 160.033 134.163C160.028 133.709 159.92 133.263 159.717 132.857Z" fill="#263238"/>
<path d="M135.068 129.186C135.068 127.43 136.476 126.12 138.48 126.12C140.484 126.12 141.86 127.43 141.86 129.186C141.86 130.942 140.484 132.311 138.48 132.311C136.476 132.311 135.068 130.918 135.068 129.186ZM135.1 111.2H141.86L140.724 124.451H136.208L135.1 111.2Z" fill="white"/>
<path d="M139.245 94.5916C138.836 94.454 138.411 94.3658 137.981 94.3288C136.935 94.3064 135.914 94.6471 135.093 95.2924C134.291 95.9577 133.646 96.7894 133.201 97.7293C132.837 98.446 132.665 98.9238 132.633 98.9039C132.644 98.7863 132.672 98.6709 132.717 98.5615C132.817 98.2564 132.934 97.9572 133.069 97.6656C133.492 96.6791 134.146 95.808 134.977 95.1252C135.833 94.4491 136.911 94.1141 138.001 94.1855C138.327 94.2098 138.648 94.2878 138.949 94.4164C139.145 94.508 139.253 94.5797 139.245 94.5916Z" fill="white"/>
<path d="M130.925 101.87C131.007 101.527 131.155 101.202 131.361 100.915C131.653 100.425 131.929 100.051 131.981 100.078C131.896 100.417 131.747 100.736 131.541 101.018C131.392 101.339 131.183 101.628 130.925 101.87Z" fill="white"/>
<g opacity="0.3">
<path d="M148.277 103.806L117.281 122.815L113.257 129.759L150.465 107.576L148.277 103.806Z" fill="white"/>
</g>
<g opacity="0.3">
<path d="M153.156 112.231L112.072 136.353C112.237 136.985 112.542 137.573 112.964 138.073L153.88 113.481L153.156 112.231Z" fill="white"/>
</g>
<path d="M254.688 157.218C253.127 155.504 251.102 154.275 248.857 153.676C246.612 153.077 244.242 153.135 242.028 153.841L238.2 149.66L237.668 149.067L207.376 115.982C208.228 114.018 208.539 111.864 208.277 109.741C208.015 107.618 207.19 105.603 205.887 103.903C204.583 102.202 202.849 100.878 200.861 100.066C198.873 99.2539 196.704 98.9834 194.576 99.2822L193.096 99.8675L198.244 103.304L197.968 108.898L193.804 112.661L188.184 112.386L184.512 108.357L182.996 108.95C182.56 112.323 184.832 116.575 187.308 119.303C188.868 121.014 190.888 122.242 193.129 122.842C195.371 123.441 197.738 123.386 199.948 122.683L230.748 156.322L231.692 157.369L234.612 160.554C233.699 162.674 233.417 165.01 233.799 167.284C234.181 169.559 235.212 171.676 236.768 173.384C239.232 176.091 242.504 177.899 245.908 177.808L247.428 177.218L243.752 173.185L244.028 167.61L248.192 163.847L253.792 164.118L255.944 168.741L257.464 168.148C257.933 166.239 257.925 164.244 257.441 162.339C256.957 160.434 256.012 158.676 254.688 157.218Z" fill="#E0E0E0"/>
<g opacity="0.3">
<path d="M254.688 157.218C253.127 155.504 251.102 154.275 248.857 153.676C246.612 153.077 244.242 153.135 242.028 153.841L238.2 149.66L237.668 149.067L207.376 115.982C208.228 114.018 208.539 111.864 208.277 109.741C208.015 107.618 207.19 105.603 205.887 103.903C204.583 102.202 202.849 100.878 200.861 100.066C198.873 99.2539 196.704 98.9834 194.576 99.2822L193.096 99.8675L198.244 103.304L197.968 108.898L193.804 112.661L188.184 112.386L184.512 108.357L182.996 108.95C182.56 112.323 184.832 116.575 187.308 119.303C188.868 121.014 190.888 122.242 193.129 122.842C195.371 123.441 197.738 123.386 199.948 122.683L230.748 156.322L231.692 157.369L234.612 160.554C233.699 162.674 233.417 165.01 233.799 167.284C234.181 169.559 235.212 171.676 236.768 173.384C239.232 176.091 242.504 177.899 245.908 177.808L247.428 177.218L243.752 173.185L244.028 167.61L248.192 163.847L253.792 164.118L255.944 168.741L257.464 168.148C257.933 166.239 257.925 164.244 257.441 162.339C256.957 160.434 256.012 158.676 254.688 157.218Z" fill="black"/>
</g>
<path d="M253.169 157.807C251.608 156.094 249.584 154.865 247.339 154.266C245.095 153.668 242.725 153.727 240.513 154.434L236.681 150.249L236.149 149.656L205.857 116.571C206.708 114.608 207.019 112.454 206.758 110.331C206.496 108.208 205.671 106.193 204.367 104.493C203.064 102.792 201.329 101.468 199.341 100.657C197.353 99.8454 195.184 99.5757 193.057 99.8754L196.729 103.905L196.457 109.48L192.285 113.258L186.685 112.988L183.013 108.958C182.505 111.035 182.562 113.21 183.179 115.258C183.795 117.306 184.948 119.154 186.52 120.611C188.091 122.068 190.024 123.083 192.12 123.55C194.216 124.017 196.399 123.92 198.445 123.269L229.245 156.907L230.193 157.954L233.113 161.14C232.265 163.103 231.957 165.255 232.22 167.375C232.484 169.495 233.31 171.508 234.613 173.206C235.915 174.904 237.649 176.226 239.635 177.037C241.62 177.847 243.787 178.118 245.913 177.82L242.237 173.782L242.509 168.207L246.677 164.445L252.277 164.719L255.949 168.749C256.42 166.838 256.414 164.841 255.929 162.933C255.444 161.025 254.496 159.265 253.169 157.807Z" fill="#E0E0E0"/>
<path d="M253.168 157.807C253.168 157.807 253.344 157.998 253.676 158.384C254.149 158.972 254.568 159.601 254.928 160.264C256.318 162.866 256.703 165.884 256.008 168.749V168.829L255.952 168.769L252.276 164.743L252.308 164.763L246.708 164.496H246.748L242.588 168.263V168.219C242.508 169.955 242.416 171.847 242.32 173.814V173.762L245.964 177.764L246.06 177.867L245.92 177.887C243.892 178.181 241.822 177.958 239.903 177.24C237.985 176.522 236.28 175.333 234.948 173.782C233.499 172.106 232.543 170.064 232.188 167.881C231.811 165.592 232.097 163.244 233.012 161.112V161.207L198.336 123.344L198.444 123.372C196.253 124.062 193.911 124.128 191.684 123.563C188.582 122.765 185.92 120.783 184.273 118.046C182.626 115.309 182.127 112.038 182.884 108.938L182.932 108.747L183.064 108.89L186.736 112.92L186.664 112.888L192.284 113.159L192.208 113.187L196.4 109.42L196.364 109.492C196.456 107.604 196.548 105.745 196.64 103.897L196.664 103.969L192.992 99.9392L192.868 99.7998L193.052 99.7759C195.264 99.4648 197.52 99.7644 199.572 100.642C201.625 101.52 203.396 102.942 204.692 104.753C205.932 106.481 206.692 108.504 206.896 110.618C207.085 112.656 206.762 114.709 205.956 116.591V116.496L240.576 154.387H240.528C242.176 153.863 243.917 153.696 245.635 153.897C247.353 154.098 249.007 154.663 250.488 155.553C251.24 156.01 251.943 156.544 252.584 157.146C252.984 157.572 253.2 157.791 253.2 157.791L252.568 157.162C251.921 156.563 251.216 156.03 250.464 155.569C248.987 154.693 247.34 154.139 245.632 153.946C243.923 153.752 242.193 153.923 240.556 154.446H240.528V154.422L205.844 116.595L205.804 116.551L205.828 116.5C206.621 114.639 206.937 112.611 206.748 110.599C206.548 108.516 205.797 106.524 204.572 104.825C203.296 103.043 201.553 101.644 199.533 100.781C197.512 99.918 195.293 99.6241 193.116 99.9312L193.176 99.768L196.8 103.837L196.828 103.865V103.909C196.74 105.751 196.649 107.61 196.556 109.484V109.527L196.524 109.555L192.36 113.318L192.328 113.346H192.284L186.684 113.071H186.64L186.612 113.039L182.936 109.01L183.116 108.966C182.614 111.025 182.671 113.179 183.281 115.209C183.891 117.238 185.032 119.07 186.587 120.516C188.143 121.962 190.056 122.97 192.132 123.437C194.208 123.904 196.371 123.813 198.4 123.173H198.46L198.508 123.221C211.1 136.99 222.908 149.879 233.16 161.1L233.2 161.144L233.176 161.199C232.276 163.297 231.992 165.605 232.356 167.857C232.707 169.954 233.61 171.92 234.973 173.557C236.336 175.193 238.111 176.44 240.116 177.171C241.966 177.837 243.952 178.042 245.9 177.768L245.852 177.891L242.184 173.862L242.164 173.838V173.782C242.26 171.819 242.352 169.928 242.44 168.207V168.18V168.16L246.612 164.405H246.636L252.236 164.684C253.58 166.165 254.816 167.523 255.9 168.721H255.828C256.528 165.874 256.159 162.871 254.792 160.276C254.437 159.613 254.026 158.982 253.564 158.388C253.332 158.01 253.168 157.807 253.168 157.807Z" fill="#263238"/>
<path d="M204.476 118.502C204.448 118.608 204.403 118.709 204.344 118.801C204.204 119.06 204.048 119.31 203.876 119.55C202.742 121.156 201.143 122.379 199.292 123.058C199.015 123.161 198.732 123.246 198.444 123.312C198.341 123.347 198.233 123.364 198.124 123.364C198.124 123.328 198.56 123.209 199.24 122.922C201.024 122.183 202.583 120.992 203.76 119.466C204.212 118.881 204.444 118.486 204.476 118.502Z" fill="#263238"/>
<path d="M238.304 132.873L226.8 127.537L216.516 126.259L220.292 129.444C220.292 129.444 206.996 134.059 206.764 135.099C206.532 136.138 207.812 138.933 210.156 138.415C210.156 138.415 208.84 140.008 209.388 141.764C209.936 143.52 211.148 143.851 213.388 143.44C213.388 143.44 211.868 145.706 213.06 146.861C214.252 148.016 216.108 147.725 216.108 147.725C216.108 147.725 216.132 150.484 217.596 150.723C219.06 150.962 223.14 150.679 224.664 150.214L232.404 147.824L237.42 146.706L238.304 132.873Z" fill="#FFBF9D"/>
<path d="M217.129 136.377C217.173 136.528 215.641 137.101 213.713 137.663C211.785 138.224 210.177 138.551 210.133 138.4C210.089 138.248 211.621 137.671 213.549 137.113C215.477 136.556 217.085 136.225 217.129 136.377Z" fill="#FF9A6C"/>
<path d="M219.085 141.82C219.129 141.971 217.917 142.469 216.373 142.935C214.829 143.401 213.537 143.648 213.489 143.496C213.441 143.345 214.661 142.847 216.205 142.385C217.749 141.923 219.041 141.673 219.085 141.82Z" fill="#FF9A6C"/>
<path d="M220.841 146.347C220.869 146.518 219.765 146.745 218.469 147.072C217.173 147.398 216.161 147.868 216.069 147.705C215.977 147.542 216.929 146.885 218.309 146.51C219.689 146.136 220.821 146.208 220.841 146.347Z" fill="#FF9A6C"/>
<path d="M222.292 128.987C222.336 129.142 220.828 129.687 218.96 130.328C217.092 130.969 215.568 131.459 215.504 131.312C215.44 131.165 216.888 130.432 218.776 129.787C220.664 129.142 222.252 128.835 222.292 128.987Z" fill="#FF9A6C"/>
<path d="M236.136 131.869L261.052 140.852L259.596 157.875L232.164 146.865L236.136 131.869Z" fill="#FFBF9D"/>
<path d="M268.105 102.081C268.105 102.081 271.353 105.422 273.245 111.431C275.137 117.439 284.045 142.911 283.829 151.014C283.593 159.396 277.925 165.376 265.469 162.063C258.037 160.073 249.181 156.887 249.181 156.887L255.477 136.285L260.401 137.547L252.449 122.687L268.105 102.081Z" fill="#007BFF"/>
<path d="M262.4 111.817C262.448 111.853 259 116.738 254.704 122.731C250.408 128.724 246.892 133.566 246.844 133.526C246.796 133.486 250.244 128.604 254.54 122.612C258.836 116.619 262.356 111.785 262.4 111.817Z" fill="#263238"/>
<path d="M271.936 140.335C271.936 140.335 271.72 140.231 271.332 140.052C270.78 139.807 270.209 139.605 269.624 139.451C268.884 139.248 267.988 139.053 266.992 138.841L263.76 138.133C261.468 137.623 259.392 137.149 257.896 136.795L256.124 136.365C255.905 136.323 255.689 136.262 255.48 136.182C255.703 136.2 255.924 136.236 256.14 136.289L257.928 136.651C259.436 136.97 261.528 137.42 263.808 137.93L267.036 138.658C268.028 138.881 268.924 139.088 269.664 139.311C270.252 139.481 270.823 139.705 271.368 139.98C271.516 140.055 271.659 140.139 271.796 140.231C271.847 140.259 271.895 140.294 271.936 140.335Z" fill="#263238"/>
<g opacity="0.3">
<path d="M278.304 141.243C278.224 140.754 278.027 140.291 277.729 139.894C277.431 139.498 277.041 139.179 276.592 138.965C275.691 138.541 274.721 138.282 273.728 138.2C269.252 137.587 264.724 137.404 260.208 137.249L260.608 137.428C266.187 138.455 271.648 140.039 276.908 142.158C277.196 142.317 277.535 142.357 277.852 142.27C278.024 142.165 278.159 142.01 278.24 141.827C278.32 141.643 278.343 141.439 278.304 141.243Z" fill="black"/>
</g>
<g opacity="0.3">
<path d="M175.656 62.2591C171.456 61.5464 166.432 62.7609 162.232 62.0481C161.608 61.9446 160.92 61.845 160.368 62.1636C159.704 62.5419 159.476 63.386 159.444 64.1545C159.428 65.2089 159.632 66.2552 160.046 67.2261C160.459 68.1971 161.072 69.0713 161.844 69.7927C163.417 71.2241 165.381 72.1582 167.488 72.4765C169.164 72.7592 170.968 72.7035 172.46 71.8991C175.084 70.4816 176.344 65.13 175.656 62.2591Z" fill="black"/>
</g>
<path d="M159.356 69.9082C159.356 69.9082 156.808 66.9338 156.44 65.5641C156.196 64.6562 156.316 62.1118 156.44 60.4992C156.468 59.9558 156.656 59.4324 156.979 58.9937C157.303 58.5551 157.748 58.2202 158.26 58.0305C158.41 57.9563 158.578 57.9242 158.745 57.9376C158.912 57.9509 159.072 58.0092 159.208 58.1061C159.554 57.639 159.943 57.2045 160.368 56.808C161.368 55.7887 161.844 55.0998 164.044 55.733C164.044 55.733 165.664 54.0327 166.596 54.1601C167.222 54.2523 167.84 54.3853 168.448 54.5583C168.448 54.5583 171.996 54.407 172.724 55.5299C173.138 56.0368 173.695 56.4074 174.324 56.593C174.879 56.788 175.389 57.0918 175.824 57.4864C176.259 57.881 176.61 58.3585 176.856 58.8905C177.27 59.8678 177.51 60.9093 177.564 61.9685L173.964 62.1118C173.964 62.1118 174.22 70.3582 173.312 71.0231C172.404 71.6881 172.06 71.4492 172.06 71.4492C172.06 71.4492 171.368 73.3844 168.668 71.9549C168.668 71.9549 166.428 72.6278 165.468 71.708C164.508 70.7882 160.996 61.9526 160.996 61.9526L161.096 66.3326C161.096 66.3326 162.948 69.1716 162.04 69.8366C161.132 70.5015 159.356 69.9082 159.356 69.9082Z" fill="#FFBF9D"/>
<path d="M163.853 58.7313C163.938 58.8967 164.006 59.0701 164.057 59.249L164.545 60.6824C164.945 61.877 165.493 63.5812 166.077 65.4407C166.661 67.3002 167.149 69.0243 167.701 70.1552C167.913 70.6107 168.159 71.0499 168.437 71.4692C168.633 71.7678 168.757 71.9191 168.745 71.9311C168.733 71.943 168.701 71.9032 168.637 71.8315C168.543 71.7316 168.455 71.6266 168.373 71.5169C168.065 71.1105 167.797 70.6758 167.573 70.2189C166.977 69.0681 166.477 67.3599 165.885 65.5044C165.293 63.6489 164.777 61.9526 164.409 60.7262C164.241 60.1409 164.097 59.6551 163.985 59.2729C163.924 59.0968 163.88 58.9155 163.853 58.7313Z" fill="#FF9A6C"/>
<path d="M168.28 57.7119C168.36 57.8828 168.422 58.0616 168.464 58.2455L168.892 59.7227C169.24 60.969 169.692 62.6972 170.22 64.6084C170.748 66.5197 171.176 68.2558 171.488 69.514C171.636 70.1113 171.756 70.613 171.852 71.0032C171.906 71.185 171.941 71.3718 171.956 71.5607C171.881 71.3881 171.819 71.2096 171.772 71.0271C171.66 70.6289 171.52 70.1431 171.348 69.5499C170.996 68.3035 170.524 66.5754 170.02 64.6642C169.516 62.7529 169.064 61.0168 168.748 59.7586C168.604 59.1573 168.48 58.6596 168.388 58.2654C168.335 58.0847 168.298 57.8994 168.28 57.7119Z" fill="#FF9A6C"/>
</svg>
