<svg width="81" height="74" viewBox="0 0 81 74" fill="none" xmlns="http://www.w3.org/2000/svg">
<g filter="url(#filter0_d_3289_6704)">
<path fill-rule="evenodd" clip-rule="evenodd" d="M20.5 6.72998C14.9772 6.72998 10.5 11.2071 10.5 16.73V41.73C10.5 47.2528 14.9772 51.73 20.5 51.73H33.498L40.5173 58.7488L47.502 51.73H60.5C66.0228 51.73 70.5 47.2528 70.5 41.73V16.73C70.5 11.2071 66.0228 6.72998 60.5 6.72998H20.5Z" fill="white"/>
<path d="M33.498 51.73L33.8516 51.3764L33.7051 51.23H33.498V51.73ZM40.5173 58.7488L40.1637 59.1023L40.5181 59.4567L40.8717 59.1015L40.5173 58.7488ZM47.502 51.73V51.23H47.2941L47.1475 51.3773L47.502 51.73ZM11 16.73C11 11.4833 15.2533 7.22998 20.5 7.22998V6.22998C14.701 6.22998 10 10.931 10 16.73H11ZM11 41.73V16.73H10V41.73H11ZM20.5 51.23C15.2533 51.23 11 46.9767 11 41.73H10C10 47.529 14.701 52.23 20.5 52.23V51.23ZM33.498 51.23H20.5V52.23H33.498V51.23ZM40.8708 58.3952L33.8516 51.3764L33.1445 52.0835L40.1637 59.1023L40.8708 58.3952ZM47.1475 51.3773L40.1629 58.3961L40.8717 59.1015L47.8564 52.0827L47.1475 51.3773ZM60.5 51.23H47.502V52.23H60.5V51.23ZM70 41.73C70 46.9767 65.7467 51.23 60.5 51.23V52.23C66.299 52.23 71 47.529 71 41.73H70ZM70 16.73V41.73H71V16.73H70ZM60.5 7.22998C65.7467 7.22998 70 11.4833 70 16.73H71C71 10.931 66.299 6.22998 60.5 6.22998V7.22998ZM20.5 7.22998H60.5V6.22998H20.5V7.22998Z" fill="#F9B935"/>
</g>
<path d="M32.893 18.0967C32.893 19.821 31.4891 21.2217 29.7608 21.2217C28.0309 21.2217 26.6287 19.821 26.6287 18.0967C26.6287 16.3707 28.0309 14.9717 29.7608 14.9717C31.4891 14.9717 32.893 16.3707 32.893 18.0967ZM34.2578 24.1402C32.5966 25.6134 31.5507 27.7619 31.5507 30.1503C31.5507 32.0643 32.1715 33.8221 33.3405 35.2005V36.4003C33.3405 37.388 32.5407 38.186 31.5507 38.186H27.971C26.9827 38.186 26.1812 37.388 26.1812 36.4003V34.9047C24.0647 33.9003 22.6016 31.7518 22.6016 29.2574C22.6016 25.8032 25.406 23.0074 28.8659 23.0074H30.6557C31.9478 23.0074 33.2398 23.4259 34.2578 24.1402ZM26.1812 26.8969C25.6241 27.5219 25.2863 28.3534 25.2863 29.2574C25.2863 30.1614 25.6241 30.9929 26.1812 31.6179V26.8969ZM47.659 36.4003V35.2005C48.7777 33.8221 49.4489 32.0643 49.4489 30.1503C49.4489 27.7619 48.4029 25.6134 46.7418 24.1402C47.7597 23.4259 49.0014 23.0074 50.3438 23.0074H52.1336C55.5958 23.0074 58.3979 25.8032 58.3979 29.2574C58.3979 31.7518 56.9325 33.9003 54.8183 34.9047V36.4003C54.8183 37.388 54.0185 38.186 53.0285 38.186H49.4489C48.4589 38.186 47.659 37.388 47.659 36.4003ZM54.8183 31.6179C55.3273 30.9929 55.7132 30.1614 55.7132 29.2574C55.7132 28.3534 55.3273 27.5219 54.8183 26.8969V31.6179ZM54.3709 18.0967C54.3709 19.821 52.967 21.2217 51.2387 21.2217C49.5104 21.2217 48.1065 19.821 48.1065 18.0967C48.1065 16.3707 49.5104 14.9717 51.2387 14.9717C52.967 14.9717 54.3709 16.3707 54.3709 18.0967ZM36.9201 18.5431C36.9201 16.5705 38.5254 14.9717 40.4998 14.9717C42.4742 14.9717 44.0794 16.5705 44.0794 18.5431C44.0794 20.513 42.4742 22.1145 40.4998 22.1145C38.5254 22.1145 36.9201 20.513 36.9201 18.5431ZM47.659 30.1503C47.659 32.6447 46.1936 34.7931 44.0794 35.7976V38.186C44.0794 39.1737 43.2796 39.9717 42.2896 39.9717H38.7099C37.7199 39.9717 36.9201 39.1737 36.9201 38.186V35.7976C34.8059 34.7931 33.3405 32.6447 33.3405 30.1503C33.3405 26.696 36.1427 23.9003 39.6048 23.9003H41.3947C44.8568 23.9003 47.659 26.696 47.659 30.1503ZM36.9201 32.5107V27.7898C36.3608 28.4148 36.0252 29.2462 36.0252 30.1503C36.0252 31.0543 36.3608 31.8857 36.9201 32.5107ZM44.0794 27.7898V32.5107C44.5884 31.8802 44.9743 31.0543 44.9743 30.1503C44.9743 29.2462 44.5884 28.4148 44.0794 27.7898Z" fill="#F9B935"/>
<defs>
<filter id="filter0_d_3289_6704" x="0" y="0.22998" width="81" height="73.2268" filterUnits="userSpaceOnUse" color-interpolation-filters="sRGB">
<feFlood flood-opacity="0" result="BackgroundImageFix"/>
<feColorMatrix in="SourceAlpha" type="matrix" values="0 0 0 0 0 0 0 0 0 0 0 0 0 0 0 0 0 0 127 0" result="hardAlpha"/>
<feOffset dy="4"/>
<feGaussianBlur stdDeviation="5"/>
<feComposite in2="hardAlpha" operator="out"/>
<feColorMatrix type="matrix" values="0 0 0 0 0.976471 0 0 0 0 0.72549 0 0 0 0 0.207843 0 0 0 0.5 0"/>
<feBlend mode="normal" in2="BackgroundImageFix" result="effect1_dropShadow_3289_6704"/>
<feBlend mode="normal" in="SourceGraphic" in2="effect1_dropShadow_3289_6704" result="shape"/>
</filter>
</defs>
</svg>
