<svg width="82" height="74" viewBox="0 0 82 74" fill="none" xmlns="http://www.w3.org/2000/svg">
<g filter="url(#filter0_d_3289_6709)">
<path fill-rule="evenodd" clip-rule="evenodd" d="M21 6.72998C15.4772 6.72998 11 11.2071 11 16.73V41.73C11 47.2528 15.4772 51.73 21 51.73H33.998L41.0173 58.7488L48.002 51.73H61C66.5228 51.73 71 47.2528 71 41.73V16.73C71 11.2071 66.5228 6.72998 61 6.72998H21Z" fill="white"/>
<path d="M33.998 51.73L34.3516 51.3764L34.2051 51.23H33.998V51.73ZM41.0173 58.7488L40.6637 59.1023L41.0181 59.4567L41.3717 59.1015L41.0173 58.7488ZM48.002 51.73V51.23H47.7941L47.6475 51.3773L48.002 51.73ZM11.5 16.73C11.5 11.4833 15.7533 7.22998 21 7.22998V6.22998C15.201 6.22998 10.5 10.931 10.5 16.73H11.5ZM11.5 41.73V16.73H10.5V41.73H11.5ZM21 51.23C15.7533 51.23 11.5 46.9767 11.5 41.73H10.5C10.5 47.529 15.201 52.23 21 52.23V51.23ZM33.998 51.23H21V52.23H33.998V51.23ZM41.3708 58.3952L34.3516 51.3764L33.6445 52.0835L40.6637 59.1023L41.3708 58.3952ZM47.6475 51.3773L40.6629 58.3961L41.3717 59.1015L48.3564 52.0827L47.6475 51.3773ZM61 51.23H48.002V52.23H61V51.23ZM70.5 41.73C70.5 46.9767 66.2467 51.23 61 51.23V52.23C66.799 52.23 71.5 47.529 71.5 41.73H70.5ZM70.5 16.73V41.73H71.5V16.73H70.5ZM61 7.22998C66.2467 7.22998 70.5 11.4833 70.5 16.73H71.5C71.5 10.931 66.799 6.22998 61 6.22998V7.22998ZM21 7.22998H61V6.22998H21V7.22998Z" fill="#F9B935"/>
</g>
<path d="M50.1309 22.7842C52.347 22.7842 54.1437 21.0352 54.1437 18.8779C54.1437 16.7207 52.348 14.9717 50.1309 14.9717C47.9149 14.9717 46.1181 16.7207 46.1181 18.8779C46.1181 21.0352 47.9139 22.7842 50.1309 22.7842ZM49.0324 24.3467C48.3904 24.3467 47.7844 24.495 47.2337 24.749C47.2618 25.0059 47.3119 25.2549 47.3119 25.5186C47.3119 27.1646 46.6709 28.6538 45.6486 29.8154H55.6655C56.1551 29.8154 56.5513 29.4053 56.5513 28.9023C56.5513 26.3877 54.575 24.3467 52.1323 24.3467H49.0324ZM44.3425 28.9121C45.1852 28.0186 45.7068 26.832 45.7068 25.5186C45.7068 22.7139 43.3724 20.4404 40.5354 20.4404C38.7332 20.4404 37.1712 21.3452 36.2422 22.7012L34.135 21.1289C34.6015 20.4941 34.8824 19.7197 34.8824 18.8779C34.8824 16.7207 33.0867 14.9717 30.8696 14.9717C29.6558 14.9717 28.5884 15.5073 27.8581 16.3364L26.3959 15.2211C26.1752 15.0533 25.9134 14.9717 25.6546 14.9717C25.2974 14.9717 24.9431 15.1258 24.7064 15.4203C24.2957 15.9297 24.3866 16.667 24.9101 17.0659L54.5594 39.6782C55.0861 40.0788 55.8415 39.9872 56.2493 39.4791C56.66 38.9693 56.5691 38.2325 56.0456 37.8336L44.3425 28.9121ZM37.9973 32.1592C34.0598 32.1592 30.8696 35.0742 30.8696 38.668C30.8696 39.3906 31.5067 39.9717 32.2942 39.9717H48.7064C49.2892 39.9717 49.7868 39.6502 50.008 39.1924L40.7862 32.1592H37.9973ZM33.7839 26.8467L30.5486 24.3467H28.8673C26.4275 24.3467 24.4492 26.3877 24.4492 28.9023C24.4492 29.4053 24.8448 29.8154 25.333 29.8154H35.3399C34.6015 28.9756 34.0698 27.9648 33.7839 26.8467Z" fill="#F9B935"/>
<defs>
<filter id="filter0_d_3289_6709" x="0.5" y="0.22998" width="81" height="73.2268" filterUnits="userSpaceOnUse" color-interpolation-filters="sRGB">
<feFlood flood-opacity="0" result="BackgroundImageFix"/>
<feColorMatrix in="SourceAlpha" type="matrix" values="0 0 0 0 0 0 0 0 0 0 0 0 0 0 0 0 0 0 127 0" result="hardAlpha"/>
<feOffset dy="4"/>
<feGaussianBlur stdDeviation="5"/>
<feComposite in2="hardAlpha" operator="out"/>
<feColorMatrix type="matrix" values="0 0 0 0 0.976471 0 0 0 0 0.72549 0 0 0 0 0.207843 0 0 0 0.5 0"/>
<feBlend mode="normal" in2="BackgroundImageFix" result="effect1_dropShadow_3289_6709"/>
<feBlend mode="normal" in="SourceGraphic" in2="effect1_dropShadow_3289_6709" result="shape"/>
</filter>
</defs>
</svg>
