<svg width="81" height="74" viewBox="0 0 81 74" fill="none" xmlns="http://www.w3.org/2000/svg">
<g filter="url(#filter0_d_3289_6707)">
<path fill-rule="evenodd" clip-rule="evenodd" d="M20.5 6.72998C14.9772 6.72998 10.5 11.2071 10.5 16.73V41.73C10.5 47.2528 14.9772 51.73 20.5 51.73H33.498L40.5173 58.7488L47.502 51.73H60.5C66.0228 51.73 70.5 47.2528 70.5 41.73V16.73C70.5 11.2071 66.0228 6.72998 60.5 6.72998H20.5Z" fill="white"/>
<path d="M33.498 51.73L33.8516 51.3764L33.7051 51.23H33.498V51.73ZM40.5173 58.7488L40.1637 59.1023L40.5181 59.4567L40.8717 59.1015L40.5173 58.7488ZM47.502 51.73V51.23H47.2941L47.1475 51.3773L47.502 51.73ZM11 16.73C11 11.4833 15.2533 7.22998 20.5 7.22998V6.22998C14.701 6.22998 10 10.931 10 16.73H11ZM11 41.73V16.73H10V41.73H11ZM20.5 51.23C15.2533 51.23 11 46.9767 11 41.73H10C10 47.529 14.701 52.23 20.5 52.23V51.23ZM33.498 51.23H20.5V52.23H33.498V51.23ZM40.8708 58.3952L33.8516 51.3764L33.1445 52.0835L40.1637 59.1023L40.8708 58.3952ZM47.1475 51.3773L40.1629 58.3961L40.8717 59.1015L47.8564 52.0827L47.1475 51.3773ZM60.5 51.23H47.502V52.23H60.5V51.23ZM70 41.73C70 46.9767 65.7467 51.23 60.5 51.23V52.23C66.299 52.23 71 47.529 71 41.73H70ZM70 16.73V41.73H71V16.73H70ZM60.5 7.22998C65.7467 7.22998 70 11.4833 70 16.73H71C71 10.931 66.299 6.22998 60.5 6.22998V7.22998ZM20.5 7.22998H60.5V6.22998H20.5V7.22998Z" fill="#F9B935"/>
</g>
<path d="M53.4341 16.1556C53.745 15.3184 54.806 14.8094 55.8548 15.0187C56.8975 15.228 57.5316 16.0765 57.2694 16.9134L56.7389 18.616C56.0682 20.763 54.2877 22.5012 51.9646 23.4827V38.4092C51.9646 39.2734 51.0926 39.9717 50.0133 39.9717C48.9341 39.9717 48.0621 39.2734 48.0621 38.4092V32.1593H47.0865V38.4092C47.0865 39.2734 46.2146 39.9717 45.1353 39.9717C44.056 39.9717 43.1841 39.2734 43.1841 38.4092V23.4827C40.8609 22.5012 39.0804 20.763 38.4097 18.616L37.8243 16.9134C37.617 16.0765 38.2511 15.228 39.2938 15.0187C40.3426 14.8094 41.4036 15.3184 41.6597 16.1556L42.1963 17.8578C42.8121 19.8348 45.0316 21.178 47.5743 21.178C50.117 21.178 52.3365 19.8348 52.9524 17.8578L53.4341 16.1556ZM44.6475 17.2718C44.6475 16.0214 45.9585 14.972 47.5743 14.972C49.1902 14.972 50.5011 16.0214 50.5011 17.2718C50.5011 18.6102 49.1902 19.6155 47.5743 19.6155C45.9585 19.6155 44.6475 18.6102 44.6475 17.2718ZM25.1359 17.3158C25.1359 16.0214 26.4463 14.9721 28.0627 14.9721C29.678 14.9721 30.9889 16.0214 30.9889 17.3158C30.9889 18.6102 29.678 19.6595 28.0627 19.6595C26.4463 19.6595 25.1359 18.6102 25.1359 17.3158ZM29.5682 21.222C31.2389 21.222 32.7938 21.9055 33.6841 23.0335L35.9646 25.9094H37.8182C38.8975 25.9094 39.7694 26.6076 39.7694 27.4719C39.7694 28.3361 38.8975 29.0343 37.8182 29.0343H34.8914C34.2207 29.0343 33.6048 28.7609 33.1902 28.3068L32.4524 27.3107V38.4092C32.4524 39.2734 31.5804 39.9717 30.5011 39.9717C29.4219 39.9717 28.5499 39.2734 28.5499 38.4092V32.1593H27.5743V38.4092C27.5743 39.2734 26.7011 39.9717 25.6231 39.9717C24.5457 39.9717 23.6722 39.2734 23.6722 38.4092V29.0636L23.6719 28.9904V24.303C23.6719 22.6233 25.4188 21.178 27.5743 21.178L29.5682 21.222Z" fill="#F9B935"/>
<defs>
<filter id="filter0_d_3289_6707" x="0" y="0.22998" width="81" height="73.2268" filterUnits="userSpaceOnUse" color-interpolation-filters="sRGB">
<feFlood flood-opacity="0" result="BackgroundImageFix"/>
<feColorMatrix in="SourceAlpha" type="matrix" values="0 0 0 0 0 0 0 0 0 0 0 0 0 0 0 0 0 0 127 0" result="hardAlpha"/>
<feOffset dy="4"/>
<feGaussianBlur stdDeviation="5"/>
<feComposite in2="hardAlpha" operator="out"/>
<feColorMatrix type="matrix" values="0 0 0 0 0.976471 0 0 0 0 0.72549 0 0 0 0 0.207843 0 0 0 0.5 0"/>
<feBlend mode="normal" in2="BackgroundImageFix" result="effect1_dropShadow_3289_6707"/>
<feBlend mode="normal" in="SourceGraphic" in2="effect1_dropShadow_3289_6707" result="shape"/>
</filter>
</defs>
</svg>
