<svg width="81" height="74" viewBox="0 0 81 74" fill="none" xmlns="http://www.w3.org/2000/svg">
<g filter="url(#filter0_d_3289_6708)">
<path fill-rule="evenodd" clip-rule="evenodd" d="M20.5 6.72998C14.9772 6.72998 10.5 11.2071 10.5 16.73V41.73C10.5 47.2528 14.9772 51.73 20.5 51.73H33.498L40.5173 58.7488L47.502 51.73H60.5C66.0228 51.73 70.5 47.2528 70.5 41.73V16.73C70.5 11.2071 66.0228 6.72998 60.5 6.72998H20.5Z" fill="white"/>
<path d="M33.498 51.73L33.8516 51.3764L33.7051 51.23H33.498V51.73ZM40.5173 58.7488L40.1637 59.1023L40.5181 59.4567L40.8717 59.1015L40.5173 58.7488ZM47.502 51.73V51.23H47.2941L47.1475 51.3773L47.502 51.73ZM11 16.73C11 11.4833 15.2533 7.22998 20.5 7.22998V6.22998C14.701 6.22998 10 10.931 10 16.73H11ZM11 41.73V16.73H10V41.73H11ZM20.5 51.23C15.2533 51.23 11 46.9767 11 41.73H10C10 47.529 14.701 52.23 20.5 52.23V51.23ZM33.498 51.23H20.5V52.23H33.498V51.23ZM40.8708 58.3952L33.8516 51.3764L33.1445 52.0835L40.1637 59.1023L40.8708 58.3952ZM47.1475 51.3773L40.1629 58.3961L40.8717 59.1015L47.8564 52.0827L47.1475 51.3773ZM60.5 51.23H47.502V52.23H60.5V51.23ZM70 41.73C70 46.9767 65.7467 51.23 60.5 51.23V52.23C66.299 52.23 71 47.529 71 41.73H70ZM70 16.73V41.73H71V16.73H70ZM60.5 7.22998C65.7467 7.22998 70 11.4833 70 16.73H71C71 10.931 66.299 6.22998 60.5 6.22998V7.22998ZM20.5 7.22998H60.5V6.22998H20.5V7.22998Z" fill="#F9B935"/>
</g>
<path d="M45.0172 17.3155C45.0172 16.021 46.2769 14.9717 47.8297 14.9717C49.3824 14.9717 50.6422 16.021 50.6422 17.3155C50.6422 18.61 49.3824 19.6594 47.8297 19.6594C46.2769 19.6594 45.0172 18.61 45.0172 17.3155ZM42.2398 25.0015C41.3492 25.3335 40.6461 25.939 40.2828 26.6959L40.1949 26.8814C39.8082 27.6823 38.7184 28.0729 37.7574 27.7506C36.7965 27.4283 36.3277 26.5201 36.7144 25.7193L36.8023 25.5337C37.5289 24.0249 38.9352 22.809 40.7223 22.1449L41.3668 21.9056C42.5855 21.4564 43.8512 21.222 45.234 21.222C47.8473 21.222 50.2027 22.5306 51.2047 24.5376L52.0543 26.3345L53.3551 26.857C54.2809 27.2428 54.6559 28.1803 54.193 28.9519C53.7301 29.7234 52.6051 30.0359 51.6793 29.6501L50.1148 29.0007C49.5113 28.7468 49.0367 28.3219 48.7789 27.8043L48.2164 26.6812L47.0855 29.8796L49.9859 32.5214C50.3023 32.8095 50.5309 33.1562 50.6422 33.537L51.9898 38.0294C52.2418 38.8693 51.6324 39.719 50.6305 39.9241C49.6227 40.134 48.6031 39.6262 48.3043 38.7912L47.0621 34.4844L42.9254 30.7195C42.0582 29.9333 41.6832 28.8347 42.0641 27.8043L43.0543 24.7036C43.0016 24.7231 42.943 24.7427 42.8902 24.7622L42.2398 25.0015ZM41.5426 31.7791L43.9273 33.9472L43.0777 35.7149C42.9371 36.0127 42.7262 36.2813 42.4566 36.5011L38.8414 39.5139C38.109 40.1243 36.9254 40.1243 36.193 39.5139C35.4605 38.9035 35.4605 37.9171 36.193 37.3068L39.6676 34.4062L41.1324 31.3592C41.2555 31.5057 41.3961 31.6424 41.5426 31.7791ZM37.4644 28.3561C37.9684 28.5759 38.1207 29.0495 37.8629 29.3816L35.2965 33.1269C35.2555 33.2587 35.191 33.3905 35.109 33.5126L31.359 38.9279C30.8375 39.675 29.6914 39.929 28.7949 39.4992L25.5471 37.9367C24.6504 37.5021 24.3431 36.5499 24.8609 35.8028L28.5582 30.3875C29.1289 29.6404 30.275 29.3864 31.1715 29.7722L34.359 31.3494L36.234 28.6003C36.4977 28.2682 37.066 28.1413 37.4644 28.3561Z" fill="#F9B935"/>
<defs>
<filter id="filter0_d_3289_6708" x="0" y="0.22998" width="81" height="73.2268" filterUnits="userSpaceOnUse" color-interpolation-filters="sRGB">
<feFlood flood-opacity="0" result="BackgroundImageFix"/>
<feColorMatrix in="SourceAlpha" type="matrix" values="0 0 0 0 0 0 0 0 0 0 0 0 0 0 0 0 0 0 127 0" result="hardAlpha"/>
<feOffset dy="4"/>
<feGaussianBlur stdDeviation="5"/>
<feComposite in2="hardAlpha" operator="out"/>
<feColorMatrix type="matrix" values="0 0 0 0 0.976471 0 0 0 0 0.72549 0 0 0 0 0.207843 0 0 0 0.5 0"/>
<feBlend mode="normal" in2="BackgroundImageFix" result="effect1_dropShadow_3289_6708"/>
<feBlend mode="normal" in="SourceGraphic" in2="effect1_dropShadow_3289_6708" result="shape"/>
</filter>
</defs>
</svg>
