<svg width="81" height="74" viewBox="0 0 81 74" fill="none" xmlns="http://www.w3.org/2000/svg">
<g filter="url(#filter0_d_3289_6705)">
<path fill-rule="evenodd" clip-rule="evenodd" d="M20.5 6.72998C14.9772 6.72998 10.5 11.2071 10.5 16.73V41.73C10.5 47.2528 14.9772 51.73 20.5 51.73H33.498L40.5173 58.7488L47.502 51.73H60.5C66.0228 51.73 70.5 47.2528 70.5 41.73V16.73C70.5 11.2071 66.0228 6.72998 60.5 6.72998H20.5Z" fill="white"/>
<path d="M33.498 51.73L33.8516 51.3764L33.7051 51.23H33.498V51.73ZM40.5173 58.7488L40.1637 59.1023L40.5181 59.4567L40.8717 59.1015L40.5173 58.7488ZM47.502 51.73V51.23H47.2941L47.1475 51.3773L47.502 51.73ZM11 16.73C11 11.4833 15.2533 7.22998 20.5 7.22998V6.22998C14.701 6.22998 10 10.931 10 16.73H11ZM11 41.73V16.73H10V41.73H11ZM20.5 51.23C15.2533 51.23 11 46.9767 11 41.73H10C10 47.529 14.701 52.23 20.5 52.23V51.23ZM33.498 51.23H20.5V52.23H33.498V51.23ZM40.8708 58.3952L33.8516 51.3764L33.1445 52.0835L40.1637 59.1023L40.8708 58.3952ZM47.1475 51.3773L40.1629 58.3961L40.8717 59.1015L47.8564 52.0827L47.1475 51.3773ZM60.5 51.23H47.502V52.23H60.5V51.23ZM70 41.73C70 46.9767 65.7467 51.23 60.5 51.23V52.23C66.299 52.23 71 47.529 71 41.73H70ZM70 16.73V41.73H71V16.73H70ZM60.5 7.22998C65.7467 7.22998 70 11.4833 70 16.73H71C71 10.931 66.299 6.22998 60.5 6.22998V7.22998ZM20.5 7.22998H60.5V6.22998H20.5V7.22998Z" fill="#F9B935"/>
</g>
<path d="M36.2812 14.9717C38.0918 14.9717 39.5625 16.1958 39.5625 17.7061V37.2373C39.5625 38.7461 38.0918 39.9717 36.2812 39.9717C34.5879 39.9717 33.1934 38.9023 33.0176 37.5254C32.7129 37.5938 32.3906 37.6279 32.0625 37.6279C29.9912 37.6279 28.3125 36.2266 28.3125 34.5029C28.3125 34.1416 28.3869 33.79 28.5229 33.4678C26.7557 32.9111 25.5 31.4854 25.5 29.8154C25.5 28.2578 26.5963 26.9102 28.1818 26.2852C27.6768 25.7529 27.375 25.0352 27.375 24.3467C27.375 22.8477 28.64 21.5977 30.3287 21.29C30.2367 21.0215 30.1875 20.7334 30.1875 20.4404C30.1875 18.9785 31.3945 17.751 33.0176 17.4097C33.1934 16.0391 34.5879 14.9717 36.2812 14.9717ZM47.9824 17.4097C49.6055 17.751 50.8125 18.9785 50.8125 20.4404C50.8125 20.7334 50.7656 21.0215 50.6719 21.29C52.3594 21.5977 53.625 22.8477 53.625 24.3467C53.625 25.0352 53.3262 25.7529 52.8164 26.2852C54.4043 26.9102 55.5 28.2578 55.5 29.8154C55.5 31.4854 54.2461 32.9111 52.4766 33.4678C52.6113 33.79 52.6875 34.1416 52.6875 34.5029C52.6875 36.2266 51.0059 37.6279 48.9375 37.6279C48.6094 37.6279 48.2871 37.5938 47.9824 37.5254C47.8066 38.9023 46.4121 39.9717 44.7188 39.9717C42.9082 39.9717 41.4375 38.7461 41.4375 37.2373V17.7061C41.4375 16.1958 42.9082 14.9717 44.7188 14.9717C46.4121 14.9717 47.8066 16.0391 47.9824 17.4097Z" fill="#F9B935"/>
<defs>
<filter id="filter0_d_3289_6705" x="0" y="0.22998" width="81" height="73.2268" filterUnits="userSpaceOnUse" color-interpolation-filters="sRGB">
<feFlood flood-opacity="0" result="BackgroundImageFix"/>
<feColorMatrix in="SourceAlpha" type="matrix" values="0 0 0 0 0 0 0 0 0 0 0 0 0 0 0 0 0 0 127 0" result="hardAlpha"/>
<feOffset dy="4"/>
<feGaussianBlur stdDeviation="5"/>
<feComposite in2="hardAlpha" operator="out"/>
<feColorMatrix type="matrix" values="0 0 0 0 0.976471 0 0 0 0 0.72549 0 0 0 0 0.207843 0 0 0 0.5 0"/>
<feBlend mode="normal" in2="BackgroundImageFix" result="effect1_dropShadow_3289_6705"/>
<feBlend mode="normal" in="SourceGraphic" in2="effect1_dropShadow_3289_6705" result="shape"/>
</filter>
</defs>
</svg>
