<svg width="20" height="16" viewBox="0 0 20 16" fill="none" xmlns="http://www.w3.org/2000/svg">
<g clip-path="url(#clip0_136_962)">
<path d="M12.4706 1.92656C12.7529 1.97156 12.8744 2.33093 12.6679 2.54406L11.5144 3.69062L11.7876 5.31562C11.8028 5.60937 11.5356 5.83437 11.2745 5.7L9.86294 4.93437L8.43919 5.70937C8.17811 5.84375 7.88365 5.61875 7.92615 5.32812L8.19936 3.7L7.04579 2.54406C6.83936 2.33093 6.96079 1.97156 7.24311 1.92656L8.83079 1.69093L9.54722 0.19787C9.67776 -0.0715363 10.0481 -0.0603175 10.1665 0.19787L10.8829 1.69093L12.4706 1.92656ZM11.7997 8C12.337 8 12.7711 8.44687 12.7711 9V15C12.7711 15.5531 12.337 16 11.7997 16H7.91401C7.37669 16 6.94258 15.5531 6.94258 15V9C6.94258 8.44687 7.37669 8 7.91401 8H11.7997ZM4.99972 10C5.53704 10 5.97115 10.4469 5.97115 11V15C5.97115 15.5531 5.53704 16 4.99972 16H1.11401C0.577596 16 0.142578 15.5531 0.142578 15V11C0.142578 10.4469 0.577596 10 1.11401 10H4.99972ZM13.7426 13C13.7426 12.4469 14.1767 12 14.714 12H18.5997C19.137 12 19.5711 12.4469 19.5711 13V15C19.5711 15.5531 19.137 16 18.5997 16H14.714C14.1767 16 13.7426 15.5531 13.7426 15V13Z" fill="#007BFF"/>
</g>
<defs>
<clipPath id="clip0_136_962">
<rect width="19.4286" height="16" fill="white" transform="translate(0.142578)"/>
</clipPath>
</defs>
</svg>
