<svg width="44" height="40" viewBox="0 0 44 40" fill="none" xmlns="http://www.w3.org/2000/svg">
<path fill-rule="evenodd" clip-rule="evenodd" d="M7.70476 5.23719C10.0809 2.80699 13.0251 1.00706 16.2713 0L17.4687 3.85966C14.8637 4.66781 12.501 6.11222 10.5942 8.0624C8.68737 10.0126 7.29642 12.4071 6.54703 15.0296C5.79763 17.6521 5.71339 20.42 6.30191 23.0833C6.89044 25.7465 8.13318 28.2212 9.91789 30.2837C11.7026 32.3463 13.973 33.9317 16.5241 34.8968C19.0751 35.8618 21.8264 36.1762 24.5294 35.8113C27.2324 35.4465 29.8019 34.4141 32.0058 32.8072C33.9857 31.3637 35.6144 29.4976 36.7763 27.3483C38.193 23.6154 35.3995 20.2534 33.8784 18.4228C33.6094 18.0991 33.3802 17.8232 33.2211 17.6017L23.5633 24.2651L25.0198 18.4386C25.0198 18.4386 33.455 12.1484 34.0306 12.3129C34.6063 12.4774 43.3081 22.5885 41.715 26.7302C41.364 27.6424 40.9177 28.4191 40.4349 29.0758C38.981 31.8359 36.9132 34.2305 34.3866 36.0726C31.6402 38.0749 28.4382 39.3615 25.0699 39.8162C21.7016 40.2708 18.2732 39.8791 15.0942 38.6765C11.9152 37.4738 9.08597 35.4982 6.86199 32.928C4.638 30.3578 3.08937 27.274 2.35598 23.9553C1.6226 20.6365 1.72758 17.1873 2.66143 13.9193C3.59528 10.6513 5.32859 7.66738 7.70476 5.23719Z" fill="#007BFF"/>
<path d="M35.6711 22.4212C35.2862 23.0861 35.0641 23.7923 34.9454 24.4847C34.5983 26.4974 35.1445 28.3722 35.227 28.6368C35.2354 28.6576 35.2373 28.6709 35.2373 28.6709C35.2373 28.6709 35.8109 28.48 36.4607 27.6569C36.8756 27.1303 37.3219 26.3466 37.669 25.1894C38.7106 21.7274 40.5831 20.8004 41.0465 20.6224C41.0953 20.6016 41.129 20.5906 41.1396 20.5869C40.9747 20.6801 39.3324 21.6578 38.6149 25.2023C38.247 27.0137 37.6394 28.2811 37.1402 29.0812C36.6812 29.822 36.3105 30.1626 36.3105 30.1626C36.3105 30.1626 36.8626 30.2007 37.6183 30.0798C37.9212 30.0315 38.2577 29.9575 38.6022 29.8455C39.9585 29.403 41.4631 28.3682 41.7513 25.9707C42.126 22.8385 42.792 20.8723 43.2711 19.7913C43.5969 19.0525 43.8378 18.729 43.8378 18.729C43.8378 18.729 43.6215 18.7098 43.2551 18.7098C41.7345 18.7095 37.629 19.038 35.6711 22.4212Z" fill="#007BFF"/>
<path d="M2.91586 25.9707C3.20345 28.3683 4.70814 29.4031 6.06471 29.8456C6.41001 29.9577 6.74663 30.0317 7.04839 30.0799C7.804 30.2008 8.3572 30.1626 8.3572 30.1626C8.3572 30.1626 7.98648 29.8221 7.52753 29.0813C7.02796 28.2812 6.42036 27.0138 6.0522 25.2024C5.33465 21.6579 3.69241 20.6802 3.52729 20.587C3.53802 20.5907 3.57148 20.6018 3.62026 20.6225C4.0842 20.8005 5.95706 21.7275 6.99808 25.1895C7.34479 26.3467 7.79187 27.1304 8.20664 27.657C8.85612 28.4801 9.42938 28.671 9.42938 28.671C9.42938 28.671 9.43167 28.6577 9.44036 28.6369C9.52285 28.3723 10.0688 26.4976 9.72168 24.4848C9.60292 23.7924 9.38085 23.0862 8.99596 22.4213C7.03805 19.0381 2.93285 18.7097 1.41218 18.7097C1.04555 18.7097 0.829102 18.7288 0.829102 18.7288C0.829102 18.7288 1.07046 19.0523 1.39673 19.7912C1.87459 20.8724 2.54106 22.8386 2.91586 25.9707Z" fill="#007BFF"/>
<path fill-rule="evenodd" clip-rule="evenodd" d="M31.7783 5.26073C31.7783 3.72525 30.5291 2.47595 28.9932 2.47595C27.4574 2.47595 26.2077 3.72512 26.2077 5.26073C26.2077 6.52495 27.0541 7.59508 28.2099 7.93429V10.944L24.8286 14.3256V25.0526L23.0891 26.7923V22.7295L21.1365 20.7776V14.0213C22.6279 13.5713 23.7173 12.1847 23.7173 10.5486C23.7173 8.54907 22.0905 6.92229 20.091 6.92229C18.0912 6.92229 16.4643 8.5492 16.4643 10.5486C16.4643 12.1854 17.5546 13.5726 19.0472 14.0219V21.6429L20.9995 23.5955V30.5479L18.0207 27.5686V24.0467L14.0263 20.0525V18.1448C15.1816 17.8055 16.0277 16.7359 16.0277 15.4718C16.0277 13.936 14.7782 12.6864 13.2427 12.6864C11.7072 12.6864 10.457 13.936 10.457 15.4718C10.457 16.736 11.3037 17.8057 12.4593 18.1449V20.7016L16.4529 24.6956V28.2183L20.978 32.7427L20.9995 32.7211V35.5603C20.9995 36.1373 21.4673 36.6054 22.0444 36.6054C22.6214 36.6054 23.0891 36.1372 23.0891 35.5603V35.0112L30.0108 28.0893V24.6812L32.8068 21.8848V16.8918C33.6204 16.6183 34.2079 15.8485 34.2079 14.9443C34.2079 13.8116 33.2865 12.89 32.1535 12.89C31.0208 12.89 30.0992 13.8116 30.0992 14.9443C30.0992 15.8489 30.6875 16.6191 31.5016 16.8922V21.344L28.7048 24.14V27.5485L23.0891 33.164V29.0084L26.3956 25.7018V14.9745L29.777 11.5934V7.93418C30.9324 7.59484 31.7783 6.52484 31.7783 5.26073ZM28.9932 6.47912C28.3217 6.47912 27.7748 5.93295 27.7748 5.26073C27.7748 4.58991 28.3217 4.04297 28.9932 4.04297C29.6647 4.04297 30.2112 4.58979 30.2112 5.26073C30.2112 5.93295 29.6647 6.47912 28.9932 6.47912ZM32.1535 15.693C31.7409 15.693 31.4055 15.3569 31.4055 14.9443C31.4055 14.5317 31.7409 14.1953 32.1535 14.1953C32.5661 14.1953 32.9019 14.5317 32.9019 14.9443C32.9019 15.3569 32.5661 15.693 32.1535 15.693ZM12.024 15.4718C12.024 16.143 12.5709 16.6898 13.2427 16.6898C13.9141 16.6898 14.4607 16.143 14.4607 15.4718C14.4607 14.8003 13.9141 14.2534 13.2427 14.2534C12.5709 14.2534 12.024 14.8004 12.024 15.4718ZM20.091 12.0851C19.2434 12.0851 18.5542 11.3959 18.5542 10.5486C18.5542 9.70131 19.2434 9.01173 20.091 9.01173C20.9383 9.01173 21.6275 9.70119 21.6275 10.5486C21.6273 11.3959 20.9383 12.0851 20.091 12.0851Z" fill="#007BFF"/>
</svg>
