<svg width="45" height="40" viewBox="0 0 45 40" fill="none" xmlns="http://www.w3.org/2000/svg">
<path fill-rule="evenodd" clip-rule="evenodd" d="M7.87566 5.23719C10.2518 2.80699 13.196 1.00706 16.4422 0L17.6396 3.85966C15.0346 4.66781 12.6719 6.11222 10.7651 8.0624C8.85827 10.0126 7.46732 12.4071 6.71792 15.0296C5.96853 17.6521 5.88428 20.42 6.47281 23.0833C7.06133 25.7465 8.30408 28.2212 10.0888 30.2837C11.8735 32.3463 14.1439 33.9317 16.695 34.8968C19.246 35.8618 21.9973 36.1762 24.7003 35.8113C27.4033 35.4465 29.9728 34.4141 32.1767 32.8072C34.1566 31.3637 35.7853 29.4976 36.9472 27.3483C38.3639 23.6154 35.5704 20.2534 34.0493 18.4228C33.7803 18.0991 33.5511 17.8232 33.392 17.6017L23.7342 24.2651L25.1907 18.4386C25.1907 18.4386 33.6259 12.1484 34.2015 12.3129C34.7772 12.4774 43.479 22.5885 41.8859 26.7302C41.5349 27.6424 41.0886 28.4191 40.6058 29.0758C39.1519 31.8359 37.0841 34.2305 34.5575 36.0726C31.8111 38.0749 28.6091 39.3615 25.2408 39.8162C21.8725 40.2708 18.444 39.8791 15.2651 38.6765C12.0861 37.4738 9.25687 35.4982 7.03289 32.928C4.8089 30.3578 3.26026 27.274 2.52688 23.9553C1.7935 20.6365 1.89848 17.1873 2.83233 13.9193C3.76618 10.6513 5.49949 7.66738 7.87566 5.23719Z" fill="white"/>
<path d="M35.4082 28.6709C35.4871 28.9081 35.4873 28.9081 35.4874 28.908L35.4876 28.9079L35.4881 28.9078L35.4893 28.9074L35.4924 28.9063L35.5009 28.9033C35.5077 28.9008 35.5166 28.8974 35.5275 28.893C35.5494 28.8842 35.5793 28.8713 35.6164 28.8535C35.6905 28.8178 35.7928 28.7624 35.9155 28.6802C36.161 28.5156 36.4863 28.2445 36.8278 27.8119L36.828 27.8117C37.264 27.2581 37.724 26.4458 38.0793 25.2614C38.4719 23.9567 38.9828 23.0257 39.4852 22.3655C39.1244 23.056 38.7811 23.9654 38.5407 25.1527C38.1791 26.933 37.5833 28.1726 37.099 28.9489L37.0986 28.9495C36.8759 29.3089 36.6758 29.5694 36.5331 29.7384C36.4617 29.8229 36.4048 29.8846 36.3665 29.9243C36.3474 29.9441 36.3329 29.9585 36.3237 29.9675L36.3138 29.977L36.3123 29.9785L36.3122 29.9785L36.3121 29.9786L36.312 29.9787L36.3119 29.9788L35.8841 30.3718L36.4641 30.412L36.4814 30.1626L36.4642 30.412L36.4643 30.412L36.4646 30.412L36.4652 30.412L36.467 30.4122L36.473 30.4125L36.4944 30.4137C36.5128 30.4146 36.5391 30.4157 36.5728 30.4166C36.6402 30.4183 36.7371 30.4194 36.8579 30.4165C37.0993 30.4107 37.4376 30.3893 37.8285 30.3267L35.4082 28.6709ZM35.4082 28.6709L35.4871 28.9081L35.2034 29.0025L35.1632 28.7233M35.4082 28.6709L35.1632 28.7233M35.1623 28.7211L35.1592 28.7112C35.0732 28.4354 34.5126 26.5144 34.8699 24.4424L35.1623 28.7211ZM35.1623 28.7211L35.1632 28.7233M35.1623 28.7211L35.1632 28.7233M43.8667 18.4697C43.7632 18.4647 43.6136 18.4598 43.4261 18.4598L44.0087 18.729L44.0307 18.48L44.0307 18.48L44.0306 18.48L44.0303 18.4799L44.0296 18.4799L44.0271 18.4797L44.0184 18.4789L43.9864 18.4766C43.9587 18.4747 43.9185 18.4722 43.8667 18.4697ZM35.6256 22.296C35.2231 22.9914 34.9926 23.7269 34.8699 24.4422L43.426 18.4598C42.6506 18.4596 41.2136 18.5429 39.7163 19.0604C38.217 19.5786 36.6433 20.5375 35.6256 22.296Z" fill="white" stroke="#007BFF" stroke-width="0.5"/>
<path d="M7.17978 30.3267C7.57075 30.3893 7.90939 30.4108 8.15106 30.4165C8.27201 30.4194 8.369 30.4184 8.43649 30.4166C8.47024 30.4157 8.49664 30.4146 8.515 30.4137L8.53643 30.4126L8.54247 30.4122L8.5443 30.4121L8.54491 30.4121L8.54513 30.4121L8.54523 30.4121L8.5281 30.1626L8.54531 30.412L9.12551 30.372L8.69763 29.9789L8.6975 29.9788L8.69738 29.9787L8.69731 29.9786L8.69723 29.9785L8.69565 29.977L8.68581 29.9676C8.67659 29.9586 8.66215 29.9442 8.64301 29.9244C8.60475 29.8847 8.54775 29.823 8.4764 29.7385C8.3337 29.5694 8.13358 29.309 7.91094 28.9496L7.91048 28.9489C7.42579 28.1726 6.82995 26.933 6.46809 25.1526C6.22757 23.9646 5.88398 23.0548 5.52295 22.3641C6.02563 23.0244 6.53691 23.9557 6.92951 25.2613C7.28443 26.4459 7.74526 27.2583 8.18114 27.8117L8.18128 27.8119C8.52266 28.2445 8.84775 28.5156 9.09319 28.6802C9.21575 28.7625 9.31806 28.8179 9.39211 28.8535C9.42913 28.8714 9.45907 28.8842 9.48093 28.893C9.49186 28.8974 9.50077 28.9008 9.50754 28.9033L9.51606 28.9064L9.51909 28.9074L9.52029 28.9078L9.52081 28.908L9.52105 28.9081C9.52117 28.9081 9.52128 28.9082 9.60027 28.671L9.52128 28.9082L9.79705 29L9.84412 28.728L9.84646 28.7224L9.84993 28.7113C9.93594 28.4354 10.4962 26.5147 10.139 24.4425C10.0163 23.7271 9.78581 22.9916 9.38323 22.2961C8.36557 20.5376 6.79189 19.5787 5.29267 19.0605C3.79546 18.543 2.35846 18.4597 1.58308 18.4597C1.39544 18.4597 1.24566 18.4646 1.14209 18.4695C1.0903 18.472 1.05003 18.4745 1.02234 18.4764L0.990341 18.4788L0.981651 18.4795L0.979175 18.4797L0.978409 18.4797L0.978145 18.4798L0.978043 18.4798L0.978 18.4798L1 18.7288L0.977961 18.4798L0.531732 18.5193L0.799324 18.8779L0.799414 18.878L0.799511 18.8782L0.799568 18.8782L0.800349 18.8793L0.80653 18.888C0.81242 18.8964 0.8218 18.9099 0.834366 18.9289C0.859495 18.9669 0.897373 19.0264 0.945558 19.1089C1.04192 19.274 1.17956 19.5312 1.33894 19.8921L1.33897 19.8922C1.80607 20.9491 2.46645 22.8911 2.83853 26.0004L2.83854 26.0005C2.98838 27.2497 3.45825 28.1585 4.07887 28.8133C4.69681 29.4652 5.45229 29.853 6.15808 30.0832L6.1584 30.0833C6.51802 30.2001 6.86751 30.2769 7.17978 30.3267ZM7.17978 30.3267L7.21929 30.0799M7.17978 30.3267C7.17982 30.3268 7.17986 30.3268 7.1799 30.3268L7.21929 30.0799M7.21929 30.0799C6.91753 30.0317 6.58091 29.9577 6.23561 29.8456L8.18657 30.1673C7.95237 30.1627 7.61336 30.143 7.21929 30.0799ZM0.799286 18.8779C0.79923 18.8778 0.799232 18.8778 0.799293 18.8779L0.799286 18.8779Z" fill="white" stroke="#007BFF" stroke-width="0.5"/>
<mask id="path-4-outside-1_3670_7481" maskUnits="userSpaceOnUse" x="9.62793" y="1.47595" width="26" height="36" fill="black">
<rect fill="white" x="9.62793" y="1.47595" width="26" height="36"/>
<path fill-rule="evenodd" clip-rule="evenodd" d="M31.9492 5.26073C31.9492 3.72525 30.7 2.47595 29.1641 2.47595C27.6283 2.47595 26.3786 3.72512 26.3786 5.26073C26.3786 6.52495 27.225 7.59508 28.3808 7.93429V10.944L24.9995 14.3256V25.0526L23.26 26.7923V22.7295L21.3074 20.7776V14.0213C22.7988 13.5713 23.8882 12.1847 23.8882 10.5486C23.8882 8.54907 22.2614 6.92229 20.2619 6.92229C18.2621 6.92229 16.6351 8.5492 16.6351 10.5486C16.6351 12.1854 17.7255 13.5726 19.2181 14.0219V21.6429L21.1704 23.5955V30.5479L18.1916 27.5686V24.0467L14.1972 20.0525V18.1448C15.3525 17.8055 16.1986 16.7359 16.1986 15.4718C16.1986 13.936 14.9491 12.6864 13.4136 12.6864C11.8781 12.6864 10.6279 13.936 10.6279 15.4718C10.6279 16.736 11.4746 17.8057 12.6302 18.1449V20.7016L16.6238 24.6956V28.2183L21.1489 32.7427L21.1704 32.7211V35.5603C21.1704 36.1373 21.6382 36.6054 22.2153 36.6054C22.7923 36.6054 23.26 36.1372 23.26 35.5603V35.0112L30.1817 28.0893V24.6812L32.9777 21.8848V16.8918C33.7913 16.6183 34.3788 15.8485 34.3788 14.9443C34.3788 13.8116 33.4574 12.89 32.3244 12.89C31.1917 12.89 30.2701 13.8116 30.2701 14.9443C30.2701 15.8489 30.8584 16.6191 31.6725 16.8922V21.344L28.8757 24.14V27.5485L23.26 33.164V29.0084L26.5665 25.7018V14.9745L29.9479 11.5934V7.93418C31.1033 7.59484 31.9492 6.52484 31.9492 5.26073ZM29.1641 6.47912C28.4926 6.47912 27.9457 5.93295 27.9457 5.26073C27.9457 4.58991 28.4926 4.04297 29.1641 4.04297C29.8356 4.04297 30.3821 4.58979 30.3821 5.26073C30.3821 5.93295 29.8356 6.47912 29.1641 6.47912ZM32.3244 15.693C31.9118 15.693 31.5764 15.3569 31.5764 14.9443C31.5764 14.5317 31.9118 14.1953 32.3244 14.1953C32.737 14.1953 33.0728 14.5317 33.0728 14.9443C33.0728 15.3569 32.737 15.693 32.3244 15.693ZM12.1949 15.4718C12.1949 16.143 12.7418 16.6898 13.4136 16.6898C14.085 16.6898 14.6316 16.143 14.6316 15.4718C14.6316 14.8003 14.085 14.2534 13.4136 14.2534C12.7418 14.2534 12.1949 14.8004 12.1949 15.4718ZM20.2619 12.0851C19.4143 12.0851 18.7251 11.3959 18.7251 10.5486C18.7251 9.70131 19.4143 9.01173 20.2619 9.01173C21.1092 9.01173 21.7984 9.70119 21.7984 10.5486C21.7982 11.3959 21.1092 12.0851 20.2619 12.0851Z"/>
</mask>
<path fill-rule="evenodd" clip-rule="evenodd" d="M31.9492 5.26073C31.9492 3.72525 30.7 2.47595 29.1641 2.47595C27.6283 2.47595 26.3786 3.72512 26.3786 5.26073C26.3786 6.52495 27.225 7.59508 28.3808 7.93429V10.944L24.9995 14.3256V25.0526L23.26 26.7923V22.7295L21.3074 20.7776V14.0213C22.7988 13.5713 23.8882 12.1847 23.8882 10.5486C23.8882 8.54907 22.2614 6.92229 20.2619 6.92229C18.2621 6.92229 16.6351 8.5492 16.6351 10.5486C16.6351 12.1854 17.7255 13.5726 19.2181 14.0219V21.6429L21.1704 23.5955V30.5479L18.1916 27.5686V24.0467L14.1972 20.0525V18.1448C15.3525 17.8055 16.1986 16.7359 16.1986 15.4718C16.1986 13.936 14.9491 12.6864 13.4136 12.6864C11.8781 12.6864 10.6279 13.936 10.6279 15.4718C10.6279 16.736 11.4746 17.8057 12.6302 18.1449V20.7016L16.6238 24.6956V28.2183L21.1489 32.7427L21.1704 32.7211V35.5603C21.1704 36.1373 21.6382 36.6054 22.2153 36.6054C22.7923 36.6054 23.26 36.1372 23.26 35.5603V35.0112L30.1817 28.0893V24.6812L32.9777 21.8848V16.8918C33.7913 16.6183 34.3788 15.8485 34.3788 14.9443C34.3788 13.8116 33.4574 12.89 32.3244 12.89C31.1917 12.89 30.2701 13.8116 30.2701 14.9443C30.2701 15.8489 30.8584 16.6191 31.6725 16.8922V21.344L28.8757 24.14V27.5485L23.26 33.164V29.0084L26.5665 25.7018V14.9745L29.9479 11.5934V7.93418C31.1033 7.59484 31.9492 6.52484 31.9492 5.26073ZM29.1641 6.47912C28.4926 6.47912 27.9457 5.93295 27.9457 5.26073C27.9457 4.58991 28.4926 4.04297 29.1641 4.04297C29.8356 4.04297 30.3821 4.58979 30.3821 5.26073C30.3821 5.93295 29.8356 6.47912 29.1641 6.47912ZM32.3244 15.693C31.9118 15.693 31.5764 15.3569 31.5764 14.9443C31.5764 14.5317 31.9118 14.1953 32.3244 14.1953C32.737 14.1953 33.0728 14.5317 33.0728 14.9443C33.0728 15.3569 32.737 15.693 32.3244 15.693ZM12.1949 15.4718C12.1949 16.143 12.7418 16.6898 13.4136 16.6898C14.085 16.6898 14.6316 16.143 14.6316 15.4718C14.6316 14.8003 14.085 14.2534 13.4136 14.2534C12.7418 14.2534 12.1949 14.8004 12.1949 15.4718ZM20.2619 12.0851C19.4143 12.0851 18.7251 11.3959 18.7251 10.5486C18.7251 9.70131 19.4143 9.01173 20.2619 9.01173C21.1092 9.01173 21.7984 9.70119 21.7984 10.5486C21.7982 11.3959 21.1092 12.0851 20.2619 12.0851Z" fill="white"/>
<path d="M28.3808 7.93429H28.8808V7.55995L28.5216 7.45453L28.3808 7.93429ZM28.3808 10.944L28.7344 11.2975L28.8808 11.151V10.944H28.3808ZM24.9995 14.3256L24.646 13.9721L24.4995 14.1185V14.3256H24.9995ZM24.9995 25.0526L25.3531 25.4061L25.4995 25.2597V25.0526H24.9995ZM23.26 26.7923H22.76V27.9995L23.6135 27.1458L23.26 26.7923ZM23.26 22.7295H23.76V22.5224L23.6135 22.3759L23.26 22.7295ZM21.3074 20.7776H20.8074V20.9848L20.9539 21.1312L21.3074 20.7776ZM21.3074 14.0213L21.163 13.5426L20.8074 13.6499V14.0213H21.3074ZM19.2181 14.0219H19.7181V13.6502L19.3622 13.5431L19.2181 14.0219ZM19.2181 21.6429H18.7181V21.85L18.8645 21.9964L19.2181 21.6429ZM21.1704 23.5955H21.6704V23.3884L21.524 23.2419L21.1704 23.5955ZM21.1704 30.5479L20.8168 30.9014L21.6704 31.7551V30.5479H21.1704ZM18.1916 27.5686H17.6916V27.7757L17.838 27.9221L18.1916 27.5686ZM18.1916 24.0467H18.6916V23.8396L18.5451 23.6932L18.1916 24.0467ZM14.1972 20.0525H13.6972V20.2596L13.8437 20.4061L14.1972 20.0525ZM14.1972 18.1448L14.0563 17.665L13.6972 17.7705V18.1448H14.1972ZM12.6302 18.1449H13.1302V17.7705L12.771 17.6651L12.6302 18.1449ZM12.6302 20.7016H12.1302V20.9087L12.2766 21.0552L12.6302 20.7016ZM16.6238 24.6956H17.1238V24.4885L16.9774 24.3421L16.6238 24.6956ZM16.6238 28.2183H16.1238V28.4255L16.2703 28.5719L16.6238 28.2183ZM21.1489 32.7427L20.7954 33.0962L21.149 33.4498L21.5025 33.0961L21.1489 32.7427ZM21.1704 32.7211H21.6704V31.5136L20.8168 32.3677L21.1704 32.7211ZM23.26 35.0112L22.9064 34.6576L22.76 34.8041V35.0112H23.26ZM30.1817 28.0893L30.5353 28.4429L30.6817 28.2964V28.0893H30.1817ZM30.1817 24.6812L29.8282 24.3277L29.6817 24.4742V24.6812H30.1817ZM32.9777 21.8848L33.3313 22.2384L33.4777 22.0919V21.8848H32.9777ZM32.9777 16.8918L32.8184 16.4179L32.4777 16.5324V16.8918H32.9777ZM31.6725 16.8922H32.1725V16.5326L31.8316 16.4182L31.6725 16.8922ZM31.6725 21.344L32.026 21.6976L32.1725 21.5512V21.344H31.6725ZM28.8757 24.14L28.5222 23.7864L28.3757 23.9329V24.14H28.8757ZM28.8757 27.5485L29.2293 27.9021L29.3757 27.7556V27.5485H28.8757ZM23.26 33.164H22.76V34.371L23.6135 33.5175L23.26 33.164ZM23.26 29.0084L22.9064 28.6549L22.76 28.8013V29.0084H23.26ZM26.5665 25.7018L26.9201 26.0554L27.0665 25.9089V25.7018H26.5665ZM26.5665 14.9745L26.213 14.6209L26.0665 14.7673V14.9745H26.5665ZM29.9479 11.5934L30.3015 11.947L30.4479 11.8006V11.5934H29.9479ZM29.9479 7.93418L29.807 7.45444L29.4479 7.55991V7.93418H29.9479ZM21.7984 10.5486L22.2984 10.5487V10.5486H21.7984ZM29.1641 2.97595C30.4239 2.97595 31.4492 4.00141 31.4492 5.26073H32.4492C32.4492 3.4491 30.9761 1.97595 29.1641 1.97595V2.97595ZM26.8786 5.26073C26.8786 4.00141 27.9043 2.97595 29.1641 2.97595V1.97595C27.3523 1.97595 25.8786 3.44883 25.8786 5.26073H26.8786ZM28.5216 7.45453C27.5724 7.17597 26.8786 6.2966 26.8786 5.26073H25.8786C25.8786 6.7533 26.8775 8.01418 28.24 8.41406L28.5216 7.45453ZM28.8808 10.944V7.93429H27.8808V10.944H28.8808ZM25.3531 14.6791L28.7344 11.2975L28.0272 10.5904L24.646 13.9721L25.3531 14.6791ZM25.4995 25.0526V14.3256H24.4995V25.0526H25.4995ZM23.6135 27.1458L25.3531 25.4061L24.646 24.6991L22.9064 26.4387L23.6135 27.1458ZM22.76 22.7295V26.7923H23.76V22.7295H22.76ZM20.9539 21.1312L22.9065 23.0831L23.6135 22.3759L21.6609 20.424L20.9539 21.1312ZM20.8074 14.0213V20.7776H21.8074V14.0213H20.8074ZM23.3882 10.5486C23.3882 11.9576 22.4497 13.1544 21.163 13.5426L21.4519 14.5C23.148 13.9883 24.3882 12.4118 24.3882 10.5486H23.3882ZM20.2619 7.42229C21.9853 7.42229 23.3882 8.82521 23.3882 10.5486H24.3882C24.3882 8.27293 22.5375 6.42229 20.2619 6.42229V7.42229ZM17.1351 10.5486C17.1351 8.82537 18.5382 7.42229 20.2619 7.42229V6.42229C17.986 6.42229 16.1351 8.27302 16.1351 10.5486H17.1351ZM19.3622 13.5431C18.0745 13.1555 17.1351 11.9582 17.1351 10.5486H16.1351C16.1351 12.4126 17.3765 13.9897 19.074 14.5007L19.3622 13.5431ZM19.7181 21.6429V14.0219H18.7181V21.6429H19.7181ZM21.524 23.2419L19.5717 21.2894L18.8645 21.9964L20.8168 23.949L21.524 23.2419ZM21.6704 30.5479V23.5955H20.6704V30.5479H21.6704ZM17.838 27.9221L20.8168 30.9014L21.524 30.1944L18.5452 27.2151L17.838 27.9221ZM17.6916 24.0467V27.5686H18.6916V24.0467H17.6916ZM13.8437 20.4061L17.838 24.4003L18.5451 23.6932L14.5508 19.699L13.8437 20.4061ZM13.6972 18.1448V20.0525H14.6972V18.1448H13.6972ZM14.3381 18.6245C15.7 18.2246 16.6986 16.9642 16.6986 15.4718H15.6986C15.6986 16.5075 15.005 17.3865 14.0563 17.665L14.3381 18.6245ZM16.6986 15.4718C16.6986 13.6599 15.2253 12.1864 13.4136 12.1864V13.1864C14.6729 13.1864 15.6986 14.2121 15.6986 15.4718H16.6986ZM13.4136 12.1864C11.6021 12.1864 10.1279 13.6597 10.1279 15.4718H11.1279C11.1279 14.2122 12.1542 13.1864 13.4136 13.1864V12.1864ZM10.1279 15.4718C10.1279 16.9645 11.1273 18.2249 12.4894 18.6246L12.771 17.6651C11.822 17.3866 11.1279 16.5075 11.1279 15.4718H10.1279ZM13.1302 20.7016V18.1449H12.1302V20.7016H13.1302ZM16.9774 24.3421L12.9838 20.3481L12.2766 21.0552L16.2702 25.0491L16.9774 24.3421ZM17.1238 28.2183V24.6956H16.1238V28.2183H17.1238ZM21.5024 32.3891L16.9773 27.8648L16.2703 28.5719L20.7954 33.0962L21.5024 32.3891ZM20.8168 32.3677L20.7952 32.3892L21.5025 33.0961L21.5241 33.0746L20.8168 32.3677ZM21.6704 35.5603V32.7211H20.6704V35.5603H21.6704ZM22.2153 36.1054C21.9145 36.1054 21.6704 35.8614 21.6704 35.5603H20.6704C20.6704 36.4133 21.3619 37.1054 22.2153 37.1054V36.1054ZM22.76 35.5603C22.76 35.8614 22.5159 36.1054 22.2153 36.1054V37.1054C23.0688 37.1054 23.76 36.4131 23.76 35.5603H22.76ZM22.76 35.0112V35.5603H23.76V35.0112H22.76ZM29.8282 27.7358L22.9064 34.6576L23.6135 35.3647L30.5353 28.4429L29.8282 27.7358ZM29.6817 24.6812V28.0893H30.6817V24.6812H29.6817ZM32.6242 21.5313L29.8282 24.3277L30.5353 25.0348L33.3313 22.2384L32.6242 21.5313ZM32.4777 16.8918V21.8848H33.4777V16.8918H32.4777ZM33.8788 14.9443C33.8788 15.6268 33.4351 16.2105 32.8184 16.4179L33.1371 17.3657C34.1475 17.026 34.8788 16.0701 34.8788 14.9443H33.8788ZM32.3244 13.39C33.1812 13.39 33.8788 14.0877 33.8788 14.9443H34.8788C34.8788 13.5355 33.7336 12.39 32.3244 12.39V13.39ZM30.7701 14.9443C30.7701 14.0877 31.4679 13.39 32.3244 13.39V12.39C30.9156 12.39 29.7701 13.5355 29.7701 14.9443H30.7701ZM31.8316 16.4182C31.2144 16.2111 30.7701 15.6271 30.7701 14.9443H29.7701C29.7701 16.0708 30.5023 17.027 31.5135 17.3663L31.8316 16.4182ZM32.1725 21.344V16.8922H31.1725V21.344H32.1725ZM29.2292 24.4936L32.026 21.6976L31.319 20.9904L28.5222 23.7864L29.2292 24.4936ZM29.3757 27.5485V24.14H28.3757V27.5485H29.3757ZM23.6135 33.5175L29.2293 27.9021L28.5222 27.1949L22.9064 32.8104L23.6135 33.5175ZM22.76 29.0084V33.164H23.76V29.0084H22.76ZM26.213 25.3483L22.9064 28.6549L23.6135 29.362L26.9201 26.0554L26.213 25.3483ZM26.0665 14.9745V25.7018H27.0665V14.9745H26.0665ZM29.5944 11.2399L26.213 14.6209L26.9201 15.328L30.3015 11.947L29.5944 11.2399ZM29.4479 7.93418V11.5934H30.4479V7.93418H29.4479ZM31.4492 5.26073C31.4492 6.29661 30.7556 7.17582 29.807 7.45444L30.0888 8.41391C31.4509 8.01385 32.4492 6.75307 32.4492 5.26073H31.4492ZM27.4457 5.26073C27.4457 6.20926 28.2166 6.97912 29.1641 6.97912V5.97912C28.7685 5.97912 28.4457 5.65663 28.4457 5.26073H27.4457ZM29.1641 3.54297C28.2166 3.54297 27.4457 4.31364 27.4457 5.26073H28.4457C28.4457 4.86619 28.7686 4.54297 29.1641 4.54297V3.54297ZM30.8821 5.26073C30.8821 4.31364 30.1117 3.54297 29.1641 3.54297V4.54297C29.5594 4.54297 29.8821 4.86593 29.8821 5.26073H30.8821ZM29.1641 6.97912C30.1117 6.97912 30.8821 6.20909 30.8821 5.26073H29.8821C29.8821 5.6568 29.5594 5.97912 29.1641 5.97912V6.97912ZM31.0764 14.9443C31.0764 15.6325 31.6351 16.193 32.3244 16.193V15.193C32.1885 15.193 32.0764 15.0813 32.0764 14.9443H31.0764ZM32.3244 13.6953C31.6349 13.6953 31.0764 14.2563 31.0764 14.9443H32.0764C32.0764 14.8071 32.1888 14.6953 32.3244 14.6953V13.6953ZM33.5728 14.9443C33.5728 14.2561 33.0137 13.6953 32.3244 13.6953V14.6953C32.4603 14.6953 32.5728 14.8073 32.5728 14.9443H33.5728ZM32.3244 16.193C33.0135 16.193 33.5728 15.6327 33.5728 14.9443H32.5728C32.5728 15.0811 32.4606 15.193 32.3244 15.193V16.193ZM13.4136 16.1898C13.0177 16.1898 12.6949 15.8667 12.6949 15.4718H11.6949C11.6949 16.4193 12.4658 17.1898 13.4136 17.1898V16.1898ZM14.1316 15.4718C14.1316 15.867 13.8088 16.1898 13.4136 16.1898V17.1898C14.3613 17.1898 15.1316 16.4191 15.1316 15.4718H14.1316ZM13.4136 14.7534C13.8087 14.7534 14.1316 15.0762 14.1316 15.4718H15.1316C15.1316 14.5243 14.3614 13.7534 13.4136 13.7534V14.7534ZM12.6949 15.4718C12.6949 15.0766 13.0179 14.7534 13.4136 14.7534V13.7534C12.4657 13.7534 11.6949 14.5242 11.6949 15.4718H12.6949ZM18.2251 10.5486C18.2251 11.6721 19.1382 12.5851 20.2619 12.5851V11.5851C19.6904 11.5851 19.2251 11.1197 19.2251 10.5486H18.2251ZM20.2619 8.51173C19.1381 8.51173 18.2251 9.42528 18.2251 10.5486H19.2251C19.2251 9.97735 19.6906 9.51173 20.2619 9.51173V8.51173ZM22.2984 10.5486C22.2984 9.42518 21.3854 8.51173 20.2619 8.51173V9.51173C20.8329 9.51173 21.2984 9.97719 21.2984 10.5486H22.2984ZM20.2619 12.5851C21.3854 12.5851 22.2982 11.672 22.2984 10.5487L21.2984 10.5485C21.2983 11.1198 20.8329 11.5851 20.2619 11.5851V12.5851Z" fill="#007BFF" mask="url(#path-4-outside-1_3670_7481)"/>
</svg>
