<svg width="58" height="40" viewBox="0 0 58 40" fill="none" xmlns="http://www.w3.org/2000/svg">
<path d="M8.66518 17.1429C11.817 17.1429 14.3795 14.5804 14.3795 11.4286C14.3795 8.27679 11.817 5.71429 8.66518 5.71429C5.51339 5.71429 2.95089 8.27679 2.95089 11.4286C2.95089 14.5804 5.51339 17.1429 8.66518 17.1429ZM48.6652 17.1429C51.817 17.1429 54.3795 14.5804 54.3795 11.4286C54.3795 8.27679 51.817 5.71429 48.6652 5.71429C45.5134 5.71429 42.9509 8.27679 42.9509 11.4286C42.9509 14.5804 45.5134 17.1429 48.6652 17.1429ZM51.5223 20H45.808C44.2366 20 42.817 20.6339 41.7812 21.6607C45.3795 23.6339 47.933 27.1964 48.4866 31.4286H54.3795C55.9598 31.4286 57.2366 30.1518 57.2366 28.5714V25.7143C57.2366 22.5625 54.6741 20 51.5223 20ZM28.6652 20C34.192 20 38.6652 15.5268 38.6652 10C38.6652 4.47321 34.192 0 28.6652 0C23.1384 0 18.6652 4.47321 18.6652 10C18.6652 15.5268 23.1384 20 28.6652 20ZM35.5223 22.8571H34.7812C32.9241 23.75 30.8616 24.2857 28.6652 24.2857C26.4688 24.2857 24.4152 23.75 22.5491 22.8571H21.808C16.1295 22.8571 11.5223 27.4643 11.5223 33.1429V35.7143C11.5223 38.0804 13.442 40 15.808 40H41.5223C43.8884 40 45.808 38.0804 45.808 35.7143V33.1429C45.808 27.4643 41.2009 22.8571 35.5223 22.8571ZM15.5491 21.6607C14.5134 20.6339 13.0938 20 11.5223 20H5.80804C2.65625 20 0.09375 22.5625 0.09375 25.7143V28.5714C0.09375 30.1518 1.37054 31.4286 2.95089 31.4286H8.83482C9.39732 27.1964 11.9509 23.6339 15.5491 21.6607Z" fill="#007BFF"/>
</svg>
