<svg width="172" height="40" viewBox="0 0 172 40" fill="none" xmlns="http://www.w3.org/2000/svg">
<path d="M75.1214 0.366547C74.3918 0.679235 73.9957 1.17954 72.1821 4.05626C71.0148 5.86985 68.0547 10.5393 65.574 14.3958L61.0713 21.4417H63.5103H65.9492L71.1607 13.1034C74.0374 8.51728 76.4138 4.78587 76.4764 4.78587C76.5806 4.78587 81.8963 13.3535 82.0631 13.7704C82.1048 13.8538 79.7492 13.9372 76.8099 13.9372C73.8706 13.9372 71.4734 13.9997 71.4734 14.0623C71.4734 14.1457 71.9737 14.9795 72.5782 15.9384L73.6622 17.6895H79.2072H84.773L85.8779 19.5656L86.9827 21.4417H89.3383C90.6307 21.4417 91.6939 21.3792 91.6939 21.3166C91.6939 21.2333 90.3597 19.107 88.7337 16.5638C87.1078 14.0414 84.2936 9.60126 82.4591 6.74538C78.7694 0.971077 78.5401 0.658389 77.5812 0.262317C76.6848 -0.112908 76.122 -0.0920622 75.1214 0.366547Z" fill="#007BFF"/>
<path d="M8.62297 0.387393C6.28823 0.866847 4.51633 1.88829 2.80697 3.74358C-2.6338 9.62211 0.222087 19.0861 8.03928 21.129C8.99819 21.3792 10.7701 21.4417 16.8571 21.4417C23.632 21.4417 24.6326 21.4 25.8625 21.0456C29.3438 20.0867 32.1371 17.3142 33.2002 13.7496C33.6172 12.3321 33.638 9.62211 33.2211 8.12121C32.2413 4.36895 29.1561 1.38799 25.383 0.491622C24.3199 0.241472 22.5897 0.178934 16.7529 0.19978C12.7504 0.220626 9.08158 0.304009 8.62297 0.387393ZM25.6749 4.66079C29.9483 6.80792 30.8863 12.3529 27.551 15.6674C27.1132 16.126 26.3003 16.7305 25.7166 17.0224L24.6743 17.5852L17.1489 17.6478C9.9571 17.7103 9.58188 17.6895 8.47705 17.2725C6.85107 16.668 5.55863 15.4589 4.72479 13.7704C4.12026 12.5614 4.03688 12.1861 4.05773 10.8103C4.05773 9.58042 4.1828 8.97589 4.59972 8.05867C5.49609 6.12 7.26799 4.63995 9.29004 4.16049C9.7278 4.05626 13.3133 3.97288 17.274 3.99373L24.4658 4.03542L25.6749 4.66079Z" fill="#007BFF"/>
<path d="M35.8271 10.8103V21.4417H37.8075H39.7879V12.6864V3.93119H46.9171C53.7129 3.93119 54.0881 3.95203 54.9428 4.36895C56.0268 4.8901 56.8815 6.20339 56.8815 7.34991C56.8815 8.35051 56.2144 9.62211 55.3806 10.2266C54.7135 10.7061 54.5884 10.7061 48.3347 10.8103L41.9558 10.9146L48.022 16.1677L54.0673 21.4417H56.9857L59.9041 21.4209L58.9661 20.6079C58.4449 20.1493 56.6939 18.6692 55.0679 17.3351C53.4419 15.9801 52.1078 14.8127 52.1078 14.7502C52.0869 14.6668 52.8582 14.5626 53.8171 14.5417C56.9857 14.3958 59.3413 12.749 60.4044 9.87226C61.405 7.18314 60.7796 4.45233 58.6534 2.32606C57.5694 1.26292 57.1525 0.991921 55.9642 0.616695C54.6093 0.199778 54.109 0.178932 45.1869 0.178932H35.8271V10.8103Z" fill="#007BFF"/>
<path d="M98.2602 0.429084C96.5299 0.741772 94.2994 1.95083 92.9862 3.26412C87.3161 8.9342 89.5883 18.5233 97.1345 20.9206C98.7813 21.4417 98.8855 21.4417 105.952 21.4417H113.102L114.186 19.7532C114.77 18.836 115.25 18.0021 115.25 17.8979C115.25 17.7937 111.602 17.6895 106.974 17.6478C98.7605 17.5852 98.6771 17.5852 97.7807 17.1058C96.384 16.3553 95.0916 15.0629 94.4662 13.7496C93.9868 12.7698 93.8825 12.3112 93.8825 10.9146C93.8825 8.07952 95.1958 5.95324 97.6973 4.72333L99.094 4.03542L105.911 3.97288L112.748 3.91034L113.895 2.13844C114.52 1.15869 115.041 0.324855 115.041 0.283163C115.041 0.0955505 99.3024 0.220626 98.2602 0.429084Z" fill="#007BFF"/>
<path d="M117.376 10.31L117.439 20.4411L118.022 20.9414L118.606 21.4417H128.362H138.097L139.264 19.6073L140.452 17.7937L130.968 17.7311L121.503 17.6895V8.93419V0.178932H119.419H117.313L117.376 10.31Z" fill="#007BFF"/>
<path d="M148.082 0.429082C144.309 1.13784 140.953 4.32726 139.931 8.20459C139.306 10.5185 139.702 13.7496 140.848 15.8967C141.62 17.3768 143.871 19.5864 145.289 20.2743C147.561 21.3792 148.124 21.4417 155.795 21.4417H162.882L163.862 19.92C164.404 19.107 164.905 18.2523 164.967 18.0647C165.092 17.7311 164.529 17.7103 156.795 17.6478L148.499 17.5852L147.457 17.0224C146.143 16.3345 144.788 14.9378 144.246 13.7287L143.829 12.7907L152.626 12.7281L161.423 12.6656L162.528 10.9354C163.112 9.97649 163.612 9.14265 163.612 9.08012C163.612 8.99673 159.151 8.91335 153.71 8.8925L143.788 8.82996L144.33 7.74598C144.976 6.47438 146.06 5.43209 147.602 4.6191L148.707 4.03542L155.628 3.97288L162.549 3.91034L163.424 2.51367C163.904 1.74237 164.446 0.908537 164.613 0.637541L164.905 0.178932L157.025 0.199778C152.668 0.220624 148.666 0.304007 148.082 0.429082Z" fill="#007BFF"/>
<path d="M167.51 0.595842C166.76 1.20037 166.426 2.28436 166.739 3.20157C167.073 4.22302 167.844 4.76501 168.97 4.76501C169.762 4.76501 170.012 4.66079 170.616 4.05626C171.2 3.47257 171.325 3.18073 171.325 2.47197C171.325 1.76321 171.2 1.47137 170.616 0.887684C170.012 0.283154 169.762 0.178925 168.97 0.178925C168.365 0.178925 167.865 0.324846 167.51 0.595842ZM170.22 1.09614C170.679 1.49221 170.804 1.76321 170.804 2.47197C170.804 3.18073 170.679 3.45173 170.22 3.8478C168.97 4.93178 167.177 4.11879 167.177 2.47197C167.177 0.825147 168.97 0.0121581 170.22 1.09614Z" fill="#007BFF"/>
<path d="M168.135 1.15868C168.052 1.22121 167.989 1.84659 167.989 2.51366C167.989 3.45172 168.052 3.72272 168.302 3.72272C168.49 3.72272 168.615 3.5351 168.615 3.20157C168.615 2.90973 168.698 2.68042 168.781 2.68042C168.886 2.68042 169.073 2.90973 169.198 3.20157C169.323 3.49341 169.594 3.72272 169.761 3.72272C170.011 3.72272 170.032 3.63933 169.886 3.34749C169.782 3.13903 169.74 2.59704 169.803 2.11759C169.907 1.36713 169.865 1.26291 169.428 1.15868C168.781 0.971063 168.302 0.971063 168.135 1.15868ZM169.344 1.84659C169.344 2.01336 169.177 2.18012 168.99 2.22182C168.719 2.26351 168.615 2.15928 168.615 1.84659C168.615 1.5339 168.719 1.42967 168.99 1.47136C169.177 1.51306 169.344 1.67982 169.344 1.84659Z" fill="#007BFF"/>
<path d="M39.3591 31.6715C39.312 36.7847 39.2964 37.0199 38.9827 37.4434C38.3082 38.3531 36.63 38.51 35.8458 37.7257C35.6419 37.5218 35.438 37.067 35.3752 36.7219L35.2654 36.0789H34.2616H33.2578L33.3519 36.6592C33.5558 37.8355 33.7754 38.2747 34.4655 38.8864C36.2536 40.4548 39.4846 40.0157 40.7236 38.0394L41.1942 37.2866L41.2412 31.8127L41.2883 26.3544H40.3472H39.4061L39.3591 31.6715Z" fill="#007BFF"/>
<path d="M44.8799 33.0047V39.6863H47.5933C51.5301 39.6863 52.6908 39.404 53.8985 38.1649C55.1376 36.8944 55.7806 34.8398 55.6552 32.6282C55.4669 29.5541 54.1181 27.4367 51.8909 26.7309C51.2949 26.5426 50.244 26.4485 47.9854 26.4015L44.8799 26.3231V33.0047ZM51.091 28.2366C51.9693 28.5816 52.5967 29.209 53.0986 30.2599C53.5534 31.2323 53.5848 31.4048 53.5848 33.0988C53.5848 34.6515 53.5377 35.0123 53.2241 35.7024C52.4241 37.4591 51.436 37.9767 48.6912 38.0865L46.762 38.1649V33.0204V27.8758L48.7069 27.9699C49.7735 28.0327 50.84 28.1425 51.091 28.2366Z" fill="#007BFF"/>
<path d="M63.7012 33.0204V39.6863H67.936H72.1708V38.8236V37.961H68.8771H65.5833V35.8436V33.7262L68.6104 33.6948L71.6219 33.6477V32.8635V32.0793L68.6104 32.0322L65.5833 32.0009V30.0403V28.0797L68.7673 28.0484L71.9355 28.0013V27.2171V26.4329L67.8262 26.3858L63.7012 26.3544V33.0204Z" fill="#007BFF"/>
<path d="M81.4251 28.864V31.3892L80.8291 30.903C78.9783 29.4286 76.1237 30.103 75.0101 32.2832C74.32 33.6478 74.2102 35.7808 74.7592 37.3336C75.2611 38.7609 76.8295 39.8431 78.3666 39.8431C79.2136 39.8431 80.3899 39.404 80.9232 38.8864L81.4251 38.4002V39.0432V39.702L82.3348 39.6549C82.821 39.6236 83.2131 39.5608 83.1974 39.4824C83.1661 39.4197 83.1504 36.4396 83.1504 32.8635V26.3544H82.2877H81.4251V28.864ZM80.1703 31.8911C80.9075 32.3773 81.2839 33.0988 81.378 34.181C81.6133 36.8003 80.735 38.3845 78.9626 38.5413C77.9431 38.6354 77.2216 38.2433 76.7354 37.3336C76.406 36.7376 76.3433 36.4239 76.3276 35.2162C76.3276 33.5536 76.6413 32.5342 77.3628 31.9225C78.0215 31.3892 79.4018 31.3578 80.1703 31.8911Z" fill="#007BFF"/>
<path d="M126.125 28.864V31.3892L125.529 30.903C123.679 29.4286 120.824 30.103 119.71 32.2832C119.02 33.6478 118.91 35.7495 119.475 37.365C119.946 38.7452 121.561 39.8431 123.114 39.8431C123.914 39.8431 125.106 39.3883 125.623 38.8864L126.125 38.4002V39.0432V39.702L127.035 39.6549C127.521 39.6236 127.913 39.5608 127.898 39.4824C127.866 39.4197 127.851 36.4396 127.851 32.8635V26.3544H126.988H126.125V28.864ZM124.871 31.8911C125.827 32.5185 126.047 33.1145 126.047 34.9809C126.047 36.4396 126 36.7062 125.67 37.2866C125.169 38.1649 124.196 38.6668 123.208 38.5413C121.702 38.3845 121.059 37.3964 121.044 35.2162C121.028 33.5536 121.342 32.5342 122.063 31.9225C122.722 31.3892 124.102 31.3578 124.871 31.8911Z" fill="#007BFF"/>
<path d="M104.293 30.3226C103.258 30.6206 102.772 30.997 102.427 31.7342C101.941 32.8164 102.003 32.9419 102.976 32.9419C103.823 32.9419 103.838 32.9262 104.011 32.3773C104.325 31.4519 105.642 31.0911 106.756 31.6244C107.32 31.891 107.618 32.4714 107.618 33.334V33.8359L105.987 33.9143C104.701 33.9928 104.168 34.0869 103.493 34.4006C100.78 35.6396 101.015 39.2157 103.838 39.8274C104.293 39.9215 104.78 39.9999 104.921 39.9999C105.548 39.9999 106.426 39.6235 106.991 39.1216L107.587 38.5883L107.681 39.1373C107.791 39.6862 107.807 39.6862 108.575 39.6862H109.359L109.312 35.7808C109.265 32.1263 109.25 31.844 108.936 31.4205C108.199 30.401 105.924 29.8677 104.293 30.3226ZM107.618 35.5612C107.587 37.1297 106.96 38.1492 105.83 38.4472C104.591 38.7765 103.384 38.0394 103.384 36.9415C103.384 35.8279 104.544 35.1691 106.568 35.1534C107.618 35.1377 107.618 35.1377 107.618 35.5612Z" fill="#007BFF"/>
<path d="M116.009 30.4951C115.492 30.652 115.068 30.9029 114.723 31.2794L114.206 31.844V31.1382V30.4324H113.343H112.48V35.0593V39.702L113.39 39.6549L114.284 39.6079L114.363 36.471C114.425 33.7732 114.488 33.2556 114.723 32.8792C115.1 32.3146 115.868 32.0009 116.872 32.0009H117.672L117.625 31.1696C117.578 30.4324 117.547 30.354 117.186 30.3226C116.966 30.3069 116.449 30.3854 116.009 30.4951Z" fill="#007BFF"/>
<path d="M132.243 30.699C131.161 31.248 130.612 32.1577 130.721 33.2399C130.863 34.5574 131.537 35.075 133.89 35.7024C135.882 36.22 136.164 36.3925 136.164 37.114C136.164 38.1649 134.988 38.7923 133.67 38.4315C133.011 38.259 132.4 37.6473 132.4 37.1611C132.4 36.9101 132.274 36.8631 131.459 36.8631C130.408 36.8631 130.376 36.9101 130.674 37.9924C130.878 38.7138 131.725 39.4667 132.588 39.6863C133.545 39.9529 135.803 39.8274 136.525 39.4667C138.172 38.6668 138.611 36.1573 137.293 35.1221C136.933 34.8398 136.274 34.6202 133.937 33.9771C132.855 33.6634 132.557 33.3968 132.557 32.691C132.557 32.2518 132.651 32.095 133.074 31.844C133.654 31.4833 134.784 31.4362 135.38 31.7342C135.599 31.844 135.85 32.1734 135.944 32.4714C136.117 33.0047 136.148 33.0204 136.964 33.0204H137.811L137.795 32.4243C137.748 31.0912 136.65 30.3854 134.517 30.3069C133.231 30.2599 133.027 30.2913 132.243 30.699Z" fill="#007BFF"/>
<path d="M85.3775 30.6206C85.4245 30.7304 86.1146 32.8165 86.9302 35.2476L88.4046 39.6863H89.4241H90.4593L91.6199 36.0004C92.263 33.9614 92.8276 32.393 92.8904 32.5028C92.9531 32.6126 93.4393 34.2751 93.9883 36.2043L94.9764 39.702L95.9802 39.6549L96.984 39.6079L98.5995 35.0593L100.199 30.5108L99.3367 30.4638C98.8662 30.4324 98.4584 30.4481 98.427 30.4795C98.3956 30.5108 97.8937 32.0165 97.3291 33.8203C96.7488 35.624 96.2468 37.1924 96.1841 37.3022C96.1214 37.412 95.6195 35.9063 95.0705 33.9614L94.0667 30.4167L92.906 30.4638L91.7454 30.5108L90.6318 33.9928C90.0201 35.922 89.4868 37.4591 89.4398 37.412C89.3927 37.365 88.8908 35.7965 88.3262 33.9144L87.3067 30.5108L86.3029 30.4638C85.5343 30.4324 85.3304 30.4638 85.3775 30.6206Z" fill="#007BFF"/>
</svg>
