<svg width="172" height="40" viewBox="0 0 172 40" fill="none" xmlns="http://www.w3.org/2000/svg">
<path d="M75.4583 0.366547C74.7287 0.679235 74.3326 1.17953 72.519 4.05626C71.3517 5.86985 68.3916 10.5393 65.9109 14.3958L61.4082 21.4417H63.8472H66.2861L71.4976 13.1034C74.3743 8.51728 76.7508 4.78587 76.8133 4.78587C76.9175 4.78587 82.2332 13.3535 82.4 13.7704C82.4417 13.8538 80.0861 13.9372 77.1468 13.9372C74.2076 13.9372 71.8103 13.9997 71.8103 14.0623C71.8103 14.1457 72.3106 14.9795 72.9151 15.9384L73.9991 17.6895H79.5441H85.1099L86.2148 19.5656L87.3196 21.4417H89.6752C90.9676 21.4417 92.0308 21.3792 92.0308 21.3166C92.0308 21.2333 90.6966 19.107 89.0707 16.5638C87.4447 14.0414 84.6305 9.60126 82.7961 6.74538C79.1063 0.971077 78.877 0.658388 77.9181 0.262318C77.0218 -0.112907 76.4589 -0.092062 75.4583 0.366547Z" fill="white"/>
<path d="M8.95988 0.387392C6.62515 0.866848 4.85325 1.88829 3.14389 3.74358C-2.29688 9.62211 0.559001 19.0861 8.3762 21.129C9.33511 21.3792 11.107 21.4417 17.194 21.4417C23.9689 21.4417 24.9695 21.4 26.1994 21.0456C29.6807 20.0867 32.474 17.3142 33.5372 13.7496C33.9541 12.3321 33.9749 9.62211 33.558 8.12121C32.5782 4.36895 29.4931 1.38799 25.72 0.491621C24.6568 0.241472 22.9266 0.178934 17.0898 0.19978C13.0874 0.220625 9.41849 0.304008 8.95988 0.387392ZM26.0118 4.66079C30.2852 6.80792 31.2233 12.3529 27.8879 15.6674C27.4502 16.126 26.6372 16.7305 26.0535 17.0224L25.0112 17.5852L17.4858 17.6478C10.294 17.7103 9.91879 17.6895 8.81396 17.2725C7.18798 16.668 5.89554 15.4589 5.06171 13.7704C4.45718 12.5614 4.37379 12.1861 4.39464 10.8103C4.39464 9.58042 4.51971 8.97589 4.93663 8.05867C5.833 6.12 7.6049 4.63995 9.62695 4.16049C10.0647 4.05626 13.6502 3.97288 17.6109 3.99373L24.8027 4.03542L26.0118 4.66079Z" fill="white"/>
<path d="M36.1641 10.8103V21.4417H38.1444H40.1248V12.6864V3.93119H47.2541C54.0498 3.93119 54.425 3.95203 55.2797 4.36895C56.3637 4.8901 57.2184 6.20339 57.2184 7.34991C57.2184 8.35051 56.5513 9.62211 55.7175 10.2266C55.0504 10.7061 54.9253 10.7061 48.6716 10.8103L42.2927 10.9146L48.3589 16.1677L54.4042 21.4417H57.3226L60.241 21.4209L59.303 20.6079C58.7818 20.1493 57.0308 18.6692 55.4048 17.3351C53.7788 15.9801 52.4447 14.8127 52.4447 14.7502C52.4238 14.6668 53.1951 14.5626 54.154 14.5417C57.3226 14.3958 59.6782 12.749 60.7413 9.87226C61.7419 7.18314 61.1166 4.45233 58.9903 2.32606C57.9063 1.26292 57.4894 0.99192 56.3012 0.616695C54.9462 0.199778 54.4459 0.178932 45.5239 0.178932H36.1641V10.8103Z" fill="white"/>
<path d="M98.5971 0.429085C96.8669 0.741772 94.6364 1.95083 93.3231 3.26412C87.653 8.9342 89.9252 18.5233 97.4714 20.9206C99.1182 21.4417 99.2224 21.4417 106.289 21.4417H113.439L114.523 19.7532C115.107 18.836 115.586 18.0021 115.586 17.8979C115.586 17.7937 111.938 17.6895 107.311 17.6478C99.0974 17.5852 99.014 17.5852 98.1176 17.1058C96.7209 16.3553 95.4285 15.0629 94.8031 13.7496C94.3237 12.7698 94.2194 12.3112 94.2194 10.9146C94.2194 8.07952 95.5327 5.95324 98.0342 4.72333L99.4309 4.03542L106.247 3.97288L113.085 3.91034L114.231 2.13844C114.857 1.15869 115.378 0.324856 115.378 0.283163C115.378 0.0955505 99.6394 0.220625 98.5971 0.429085Z" fill="white"/>
<path d="M117.713 10.31L117.775 20.4411L118.359 20.9414L118.943 21.4417H128.699H138.434L139.601 19.6073L140.789 17.7937L131.304 17.7311L121.84 17.6895V8.93419V0.178932H119.756H117.65L117.713 10.31Z" fill="white"/>
<path d="M148.419 0.429083C144.646 1.13784 141.29 4.32726 140.268 8.20459C139.643 10.5185 140.039 13.7496 141.185 15.8967C141.957 17.3768 144.208 19.5864 145.625 20.2743C147.898 21.3792 148.461 21.4417 156.132 21.4417H163.219L164.199 19.92C164.741 19.107 165.241 18.2523 165.304 18.0647C165.429 17.7311 164.866 17.7103 157.132 17.6478L148.836 17.5852L147.793 17.0224C146.48 16.3345 145.125 14.9378 144.583 13.7287L144.166 12.7907L152.963 12.7281L161.76 12.6656L162.865 10.9354C163.449 9.97649 163.949 9.14265 163.949 9.08012C163.949 8.99673 159.488 8.91335 154.047 8.8925L144.125 8.82996L144.667 7.74598C145.313 6.47438 146.397 5.43209 147.939 4.6191L149.044 4.03542L155.965 3.97288L162.886 3.91034L163.761 2.51367C164.241 1.74237 164.783 0.908537 164.95 0.637541L165.241 0.178932L157.362 0.199778C153.005 0.220623 149.003 0.304007 148.419 0.429083Z" fill="white"/>
<path d="M167.847 0.595842C167.097 1.20037 166.763 2.28436 167.076 3.20158C167.409 4.22302 168.181 4.76501 169.306 4.76501C170.099 4.76501 170.349 4.66079 170.953 4.05626C171.537 3.47257 171.662 3.18073 171.662 2.47197C171.662 1.76321 171.537 1.47137 170.953 0.887684C170.349 0.283154 170.099 0.178925 169.306 0.178925C168.702 0.178925 168.202 0.324846 167.847 0.595842ZM170.557 1.09614C171.016 1.49221 171.141 1.76321 171.141 2.47197C171.141 3.18073 171.016 3.45173 170.557 3.8478C169.306 4.93178 167.514 4.11879 167.514 2.47197C167.514 0.825147 169.306 0.0121579 170.557 1.09614Z" fill="white"/>
<path d="M168.472 1.15868C168.389 1.22121 168.326 1.84659 168.326 2.51366C168.326 3.45172 168.389 3.72272 168.639 3.72272C168.826 3.72272 168.952 3.5351 168.952 3.20157C168.952 2.90973 169.035 2.68042 169.118 2.68042C169.223 2.68042 169.41 2.90973 169.535 3.20157C169.66 3.49341 169.931 3.72272 170.098 3.72272C170.348 3.72272 170.369 3.63933 170.223 3.34749C170.119 3.13903 170.077 2.59704 170.14 2.11759C170.244 1.36713 170.202 1.26291 169.765 1.15868C169.118 0.971063 168.639 0.971063 168.472 1.15868ZM169.681 1.84659C169.681 2.01336 169.514 2.18012 169.327 2.22182C169.056 2.26351 168.952 2.15928 168.952 1.84659C168.952 1.5339 169.056 1.42967 169.327 1.47136C169.514 1.51306 169.681 1.67982 169.681 1.84659Z" fill="white"/>
<path d="M39.696 31.6715C39.649 36.7847 39.6333 37.0199 39.3196 37.4434C38.6451 38.3531 36.9669 38.51 36.1827 37.7257C35.9788 37.5218 35.7749 37.067 35.7121 36.7219L35.6023 36.0789H34.5985H33.5947L33.6888 36.6592C33.8927 37.8355 34.1123 38.2747 34.8024 38.8864C36.5905 40.4548 39.8215 40.0157 41.0606 38.0394L41.5311 37.2866L41.5782 31.8127L41.6252 26.3545H40.6841H39.7431L39.696 31.6715Z" fill="white"/>
<path d="M45.2168 33.0047V39.6863H47.9302C51.867 39.6863 53.0277 39.404 54.2354 38.1649C55.4745 36.8944 56.1175 34.8398 55.9921 32.6282C55.8039 29.5541 54.455 27.4367 52.2278 26.7309C51.6318 26.5426 50.5809 26.4485 48.3223 26.4015L45.2168 26.3231V33.0047ZM51.4279 28.2366C52.3062 28.5816 52.9336 29.209 53.4355 30.2599C53.8903 31.2323 53.9217 31.4048 53.9217 33.0988C53.9217 34.6515 53.8747 35.0123 53.561 35.7024C52.7611 37.4591 51.7729 37.9767 49.0281 38.0865L47.0989 38.1649V33.0204V27.8758L49.0438 27.9699C50.1104 28.0327 51.1769 28.1425 51.4279 28.2366Z" fill="white"/>
<path d="M64.0381 33.0204V39.6863H68.2729H72.5077V38.8236V37.961H69.214H65.9202V35.8436V33.7262L68.9473 33.6948L71.9588 33.6477V32.8635V32.0793L68.9473 32.0322L65.9202 32.0009V30.0403V28.0797L69.1042 28.0484L72.2725 28.0013V27.2171V26.4329L68.1631 26.3858L64.0381 26.3544V33.0204Z" fill="white"/>
<path d="M81.762 28.864V31.3892L81.166 30.903C79.3152 29.4286 76.4606 30.103 75.347 32.2832C74.6569 33.6478 74.5471 35.7808 75.0961 37.3336C75.598 38.7609 77.1664 39.8431 78.7035 39.8431C79.5505 39.8431 80.7268 39.404 81.2601 38.8864L81.762 38.4002V39.0432V39.702L82.6717 39.6549C83.1579 39.6236 83.55 39.5608 83.5343 39.4824C83.503 39.4197 83.4873 36.4396 83.4873 32.8635V26.3544H82.6246H81.762V28.864ZM80.5072 31.8911C81.2444 32.3773 81.6208 33.0988 81.7149 34.181C81.9502 36.8003 81.0719 38.3845 79.2995 38.5413C78.28 38.6354 77.5585 38.2433 77.0723 37.3336C76.7429 36.7376 76.6802 36.4239 76.6645 35.2162C76.6645 33.5536 76.9782 32.5342 77.6997 31.9225C78.3584 31.3892 79.7387 31.3578 80.5072 31.8911Z" fill="white"/>
<path d="M126.462 28.864V31.3892L125.866 30.903C124.015 29.4286 121.161 30.103 120.047 32.2832C119.357 33.6478 119.247 35.7495 119.812 37.365C120.282 38.7452 121.898 39.8431 123.451 39.8431C124.251 39.8431 125.443 39.3883 125.96 38.8864L126.462 38.4002V39.0432V39.702L127.372 39.6549C127.858 39.6236 128.25 39.5608 128.235 39.4824C128.203 39.4197 128.188 36.4396 128.188 32.8635V26.3544H127.325H126.462V28.864ZM125.207 31.8911C126.164 32.5185 126.384 33.1145 126.384 34.9809C126.384 36.4396 126.337 36.7062 126.007 37.2866C125.505 38.1649 124.533 38.6668 123.545 38.5413C122.039 38.3845 121.396 37.3964 121.38 35.2162C121.365 33.5536 121.678 32.5342 122.4 31.9225C123.059 31.3892 124.439 31.3578 125.207 31.8911Z" fill="white"/>
<path d="M104.63 30.3226C103.595 30.6206 103.109 30.997 102.764 31.7342C102.278 32.8164 102.34 32.9419 103.313 32.9419C104.16 32.9419 104.175 32.9262 104.348 32.3773C104.662 31.4519 105.979 31.0911 107.093 31.6244C107.657 31.891 107.955 32.4714 107.955 33.334V33.8359L106.324 33.9143C105.038 33.9928 104.505 34.0869 103.83 34.4006C101.117 35.6396 101.352 39.2157 104.175 39.8274C104.63 39.9215 105.116 39.9999 105.258 39.9999C105.885 39.9999 106.763 39.6235 107.328 39.1216L107.924 38.5883L108.018 39.1373C108.128 39.6862 108.144 39.6862 108.912 39.6862H109.696L109.649 35.7808C109.602 32.1263 109.587 31.844 109.273 31.4205C108.536 30.401 106.261 29.8677 104.63 30.3226ZM107.955 35.5612C107.924 37.1297 107.297 38.1492 106.167 38.4472C104.928 38.7765 103.721 38.0394 103.721 36.9415C103.721 35.8279 104.881 35.1691 106.904 35.1534C107.955 35.1377 107.955 35.1377 107.955 35.5612Z" fill="white"/>
<path d="M116.346 30.4951C115.829 30.652 115.405 30.9029 115.06 31.2794L114.543 31.844V31.1382V30.4324H113.68H112.817V35.0593V39.702L113.727 39.6549L114.621 39.6079L114.7 36.471C114.762 33.7732 114.825 33.2556 115.06 32.8792C115.437 32.3146 116.205 32.0009 117.209 32.0009H118.009L117.962 31.1696C117.915 30.4324 117.883 30.354 117.523 30.3226C117.303 30.3069 116.786 30.3854 116.346 30.4951Z" fill="white"/>
<path d="M132.58 30.699C131.498 31.248 130.949 32.1577 131.058 33.2399C131.2 34.5574 131.874 35.075 134.227 35.7024C136.219 36.22 136.501 36.3925 136.501 37.114C136.501 38.1649 135.325 38.7923 134.007 38.4315C133.348 38.259 132.737 37.6473 132.737 37.1611C132.737 36.9101 132.611 36.8631 131.796 36.8631C130.745 36.8631 130.713 36.9101 131.011 37.9924C131.215 38.7138 132.062 39.4667 132.925 39.6863C133.882 39.9529 136.14 39.8274 136.862 39.4667C138.508 38.6668 138.948 36.1573 137.63 35.1221C137.269 34.8398 136.611 34.6202 134.274 33.9771C133.191 33.6634 132.893 33.3968 132.893 32.691C132.893 32.2518 132.988 32.095 133.411 31.844C133.991 31.4833 135.121 31.4362 135.717 31.7342C135.936 31.844 136.187 32.1734 136.281 32.4714C136.454 33.0047 136.485 33.0204 137.301 33.0204H138.148L138.132 32.4243C138.085 31.0912 136.987 30.3854 134.854 30.3069C133.568 30.2599 133.364 30.2913 132.58 30.699Z" fill="white"/>
<path d="M85.7144 30.6206C85.7614 30.7304 86.4516 32.8165 87.2672 35.2476L88.7415 39.6863H89.761H90.7962L91.9568 36.0004C92.5999 33.9614 93.1645 32.393 93.2273 32.5028C93.29 32.6126 93.7762 34.2751 94.3252 36.2043L95.3133 39.702L96.3171 39.6549L97.3209 39.6079L98.9364 35.0593L100.536 30.5108L99.6736 30.4638C99.2031 30.4324 98.7953 30.4481 98.7639 30.4795C98.7325 30.5108 98.2306 32.0165 97.666 33.8203C97.0857 35.624 96.5838 37.1924 96.521 37.3022C96.4583 37.412 95.9564 35.9063 95.4074 33.9614L94.4036 30.4167L93.243 30.4638L92.0823 30.5108L90.9687 33.9928C90.357 35.922 89.8237 37.4591 89.7767 37.412C89.7296 37.365 89.2277 35.7965 88.6631 33.9144L87.6436 30.5108L86.6398 30.4638C85.8712 30.4324 85.6673 30.4638 85.7144 30.6206Z" fill="white"/>
</svg>
