<svg width="50" height="40" viewBox="0 0 50 40" fill="none" xmlns="http://www.w3.org/2000/svg">
<path d="M21.25 22.5H16.25C15.9185 22.5 15.6005 22.3683 15.3661 22.1339C15.1317 21.8995 15 21.5815 15 21.25V16.25C15 15.9185 15.1317 15.6005 15.3661 15.3661C15.6005 15.1317 15.9185 15 16.25 15H21.25C21.5815 15 21.8995 15.1317 22.1339 15.3661C22.3683 15.6005 22.5 15.9185 22.5 16.25V19.15C23.368 18.1437 24.6094 17.5 26 17.5H36.6984L37.218 16.9117C37.3872 16.7008 37.4859 16.442 37.5 16.1719C37.4823 15.8594 37.3502 15.5643 37.1289 15.343L32.5 11.25V3.75C32.5 3.41848 32.3683 3.10054 32.1339 2.86612C31.8995 2.6317 31.5815 2.5 31.25 2.5H28.75C28.4185 2.5 28.1005 2.6317 27.8661 2.86612C27.6317 3.10054 27.5 3.41848 27.5 3.75V6.82031L20.5859 0.696875C20.1562 0.3125 19.332 0 18.7539 0C18.1758 0 17.3531 0.3125 16.9203 0.696875L0.373438 15.3453C0.150807 15.565 0.0177212 15.8596 0 16.1719C0.013495 16.4394 0.110488 16.6959 0.277344 16.9055L1.74531 18.5703C1.9669 18.7939 2.26377 18.927 2.57812 18.9437C2.84355 18.9305 3.0984 18.8355 3.30781 18.6719L5 17.1781V30C5 30.663 5.26339 31.2989 5.73223 31.7678C6.20107 32.2366 6.83696 32.5 7.5 32.5H21.25V22.5ZM49.1664 35H46.25V22.5C46.25 21.1195 45.243 20 44 20H26C24.757 20 23.75 21.1195 23.75 22.5V35H20.8336C20.6125 35 20.4005 35.0878 20.2442 35.2442C20.0878 35.4005 20 35.6125 20 35.8336V36.6664C20.0031 37.5486 20.3545 38.3939 20.9779 39.0183C21.6012 39.6426 22.4459 39.9955 23.3281 40H46.6719C47.5541 39.9955 48.3988 39.6426 49.0221 39.0183C49.6455 38.3939 49.9969 37.5486 50 36.6664V35.8336C50 35.6125 49.9122 35.4005 49.7558 35.2442C49.5995 35.0878 49.3875 35 49.1664 35ZM42.5 35H27.5V23.75H42.5V35Z" fill="white"/>
</svg>
