<svg width="172" height="41" viewBox="0 0 172 41" fill="none" xmlns="http://www.w3.org/2000/svg">
<path fill-rule="evenodd" clip-rule="evenodd" d="M75.4585 0.615223C74.7289 0.927912 74.3328 1.42821 72.5192 4.30494C72.0343 5.05834 71.24 6.3046 70.2991 7.78069C68.9752 9.85783 67.3612 12.3901 65.9111 14.6445L61.4084 21.6904H63.8474H66.2863L71.4978 13.352C74.3745 8.76595 76.751 5.03455 76.8135 5.03455C76.9177 5.03455 82.2334 13.6022 82.4002 14.0191C82.4419 14.1025 80.0863 14.1859 77.147 14.1859C74.2078 14.1859 71.8105 14.2484 71.8105 14.311C71.8105 14.3943 72.3108 15.2282 72.9153 16.1871L73.9993 17.9381H79.5443H85.1101L86.215 19.8143L87.3198 21.6904H89.6754C90.9678 21.6904 92.031 21.6278 92.031 21.5653C92.031 21.4819 90.6968 19.3557 89.0709 16.8125C88.2086 15.4748 87.0121 13.5977 85.8048 11.7037L85.7981 11.6932L85.7935 11.686L85.792 11.6837C84.727 10.0128 83.6544 8.33006 82.7962 6.99406C79.1065 1.21975 78.8772 0.907064 77.9183 0.510994C77.0219 0.135769 76.4591 0.156614 75.4585 0.615223ZM8.96008 0.636068C6.62534 1.11552 4.85344 2.13697 3.14408 3.99225C-2.29669 9.87078 0.559197 19.3348 8.37639 21.3777C9.3353 21.6278 11.1072 21.6904 17.1942 21.6904C23.9691 21.6904 24.9697 21.6487 26.1996 21.2943C29.6809 20.3354 32.4742 17.5629 33.5373 13.9983C33.9543 12.5807 33.9751 9.87078 33.5582 8.36988C32.5784 4.61763 29.4933 1.63667 25.7202 0.740297C24.657 0.490149 22.9268 0.42761 17.09 0.448456C13.0876 0.469301 9.41869 0.552685 8.96008 0.636068ZM26.012 4.90947C30.2854 7.05659 31.2235 12.6016 27.8881 15.9161C27.4504 16.3747 26.6374 16.9792 26.0537 17.2711L25.0114 17.8339L17.486 17.8964C10.2942 17.959 9.91899 17.9381 8.81416 17.5212C7.18818 16.9167 5.89574 15.7076 5.0619 14.0191C4.45737 12.8101 4.37399 12.4348 4.39483 11.059C4.39483 9.82909 4.51991 9.22456 4.93683 8.30735C5.8332 6.36868 7.6051 4.88862 9.62715 4.40917C10.0649 4.30494 13.6504 4.22156 17.6111 4.2424L24.8029 4.28409L26.012 4.90947ZM36.1643 21.6904V11.059V0.427608H45.524C54.4461 0.427608 54.9464 0.448454 56.3014 0.865372C57.4896 1.2406 57.9065 1.51159 58.9905 2.57473C61.1168 4.70101 61.7421 7.43182 60.7415 10.1209C59.6784 12.9977 57.3228 14.6445 54.1542 14.7904C53.1953 14.8113 52.424 14.9155 52.4449 14.9989C52.4449 15.0614 53.779 16.2288 55.405 17.5838C57.031 18.9179 58.782 20.3979 59.3032 20.8566L60.2412 21.6695L57.3228 21.6904H54.4044L48.3591 16.4164L42.2929 11.1632L48.6718 11.059L48.7545 11.0576C54.9266 10.9548 55.0536 10.9526 55.7177 10.4753C56.5515 9.87078 57.2186 8.59919 57.2186 7.59859C57.2186 6.45206 56.3639 5.13877 55.2799 4.61763C54.4252 4.20071 54.05 4.17986 47.2543 4.17986H40.125V12.9351V21.6904H38.1446H36.1643ZM98.5973 0.677761C96.8671 0.990448 94.6366 2.19951 93.3233 3.5128C87.6532 9.18287 89.9254 18.772 97.4716 21.1692C99.1184 21.6904 99.2226 21.6904 106.289 21.6904H113.44L114.524 20.0019C115.107 19.0847 115.587 18.2508 115.587 18.1466C115.587 18.0424 111.939 17.9381 107.311 17.8964L107.278 17.8962C99.0973 17.8339 99.013 17.8333 98.1178 17.3544C96.7211 16.604 95.4287 15.3116 94.8033 13.9983C94.3239 13.0185 94.2196 12.5599 94.2196 11.1632C94.2196 8.32819 95.5329 6.20191 98.0344 4.97201L99.4311 4.28409L106.248 4.22156L113.085 4.15902L114.232 2.38712C114.857 1.40737 115.378 0.573532 115.378 0.531839C115.378 0.344227 99.6396 0.469301 98.5973 0.677761ZM117.776 20.6898L117.713 10.5587L117.651 0.427608H119.756H121.841V9.18287V17.9381L131.305 17.9798L140.789 18.0424L139.601 19.856L138.434 21.6904H128.699H118.943L118.359 21.1901L117.776 20.6898ZM148.419 0.677759C144.646 1.38652 141.29 4.57594 140.268 8.45327C139.643 10.7672 140.039 13.9983 141.186 16.1454C141.957 17.6254 144.208 19.8351 145.626 20.523C147.898 21.6278 148.461 21.6904 156.132 21.6904H163.22L164.199 20.1686C164.741 19.3557 165.242 18.501 165.304 18.3134C165.429 17.9798 164.866 17.959 157.133 17.8964L148.836 17.8339L147.794 17.2711C146.48 16.5832 145.125 15.1865 144.583 13.9774L144.166 13.0394L152.963 12.9768L161.76 12.9143L162.865 11.1841C163.449 10.2252 163.949 9.39133 163.949 9.32879C163.949 9.24541 159.488 9.16202 154.047 9.14118L144.125 9.07864L144.667 7.99466C145.313 6.72306 146.397 5.68077 147.94 4.86778L149.044 4.28409L155.965 4.22156L162.886 4.15902L163.762 2.76234C164.045 2.30648 164.35 1.82877 164.587 1.45833L164.587 1.45795L164.588 1.45692C164.751 1.20125 164.882 0.996841 164.95 0.886217L165.242 0.427608L157.362 0.448454C153.005 0.469299 149.003 0.552683 148.419 0.677759ZM167.076 3.45019C166.763 2.53297 167.097 1.44899 167.847 0.844458C168.202 0.573462 168.702 0.427541 169.307 0.427541C170.099 0.427541 170.349 0.53177 170.953 1.1363C171.537 1.71998 171.662 2.01183 171.662 2.72059C171.662 3.42934 171.537 3.72119 170.953 4.30487C170.349 4.9094 170.099 5.01363 169.307 5.01363C168.181 5.01363 167.41 4.47164 167.076 3.45019ZM171.141 2.72059C171.141 2.01183 171.016 1.74083 170.557 1.34476C169.307 0.260774 167.514 1.07376 167.514 2.72059C167.514 4.36741 169.307 5.1804 170.557 4.09641C171.016 3.70034 171.141 3.42934 171.141 2.72059ZM168.472 1.40735C168.389 1.46989 168.326 2.09527 168.326 2.76233C168.326 3.7004 168.389 3.97139 168.639 3.97139C168.827 3.97139 168.952 3.78378 168.952 3.45025C168.952 3.15841 169.035 2.9291 169.119 2.9291C169.223 2.9291 169.41 3.15841 169.535 3.45025C169.661 3.74209 169.932 3.97139 170.098 3.97139C170.348 3.97139 170.369 3.88801 170.223 3.59617C170.119 3.38771 170.077 2.84572 170.14 2.36626C170.244 1.61581 170.202 1.51158 169.765 1.40735C169.119 1.21974 168.639 1.21974 168.472 1.40735ZM169.681 2.09527C169.681 2.26203 169.515 2.4288 169.327 2.47049C169.056 2.51218 168.952 2.40795 168.952 2.09527C168.952 1.78258 169.056 1.67835 169.327 1.72004C169.515 1.76173 169.681 1.9285 169.681 2.09527ZM39.3198 37.6919C39.6335 37.2684 39.6491 37.0332 39.6962 31.92L39.7433 26.6029H40.6843H41.6254L41.5783 32.0612L41.5313 37.5351L41.0608 38.2879C39.8217 40.2642 36.5907 40.7033 34.8026 39.1349C34.1125 38.5232 33.8929 38.084 33.689 36.9077L33.5949 36.3274H34.5987H35.6025L35.7123 36.9704C35.7751 37.3155 35.979 37.7703 36.1829 37.9742C36.9671 38.7584 38.6453 38.6016 39.3198 37.6919ZM45.217 33.2532V39.9348H47.9304C51.8672 39.9348 53.0279 39.6525 54.2356 38.4134C55.4747 37.1429 56.1177 35.0883 55.9923 32.8767C55.804 29.8026 54.4552 27.6852 52.228 26.9794C51.632 26.7911 50.5811 26.697 48.3225 26.65L45.217 26.5716V33.2532ZM51.4281 28.4851C52.3064 28.8301 52.9338 29.4575 53.4357 30.5084C53.8905 31.4808 53.9219 31.6533 53.9219 33.3473C53.9219 34.9 53.8749 35.2608 53.5612 35.9509C52.7612 37.7076 51.7731 38.2252 49.0283 38.3349L47.0991 38.4134V33.2688V28.1243L49.044 28.2184C50.1106 28.2812 51.1771 28.391 51.4281 28.4851ZM64.0383 39.9348V33.2688V26.6029L68.1633 26.6343L72.2727 26.6813V27.4656V28.2498L69.1044 28.2969L65.9204 28.3282V30.2888V32.2494L68.9475 32.2807L71.959 32.3278V33.112V33.8962L68.9475 33.9433L65.9204 33.9747V36.0921V38.2095H69.2142H72.5079V39.0721V39.9348H68.2731H64.0383ZM81.7622 29.1125V31.6377L81.1662 31.1515C79.3154 29.6771 76.4608 30.3515 75.3472 32.5317C74.6571 33.8962 74.5473 36.0293 75.0963 37.5821C75.5982 39.0094 77.1666 40.0916 78.7037 40.0916C79.5507 40.0916 80.727 39.6525 81.2603 39.1349L81.7622 38.6487V39.2917V39.9505L82.6719 39.9034C83.1581 39.8721 83.5502 39.8093 83.5345 39.7309C83.5032 39.6682 83.4875 36.6881 83.4875 33.112V26.6029H82.6248H81.7622V29.1125ZM80.5074 32.1396C81.2446 32.6258 81.621 33.3473 81.7151 34.4295C81.9504 37.0488 81.0721 38.633 79.2997 38.7898C78.2802 38.8839 77.5587 38.4918 77.0725 37.5821C76.7431 36.9861 76.6804 36.6724 76.6647 35.4647C76.6647 33.8021 76.9784 32.7826 77.6999 32.1709C78.3586 31.6377 79.7389 31.6063 80.5074 32.1396ZM126.462 31.6377V29.1125V26.6029H127.325H128.188V33.112C128.188 36.6881 128.203 39.6682 128.235 39.7309C128.25 39.8093 127.858 39.8721 127.372 39.9034L126.462 39.9505V39.2917V38.6487L125.96 39.1349C125.443 39.6368 124.251 40.0916 123.451 40.0916C121.898 40.0916 120.283 38.9937 119.812 37.6135C119.248 35.998 119.357 33.8962 120.047 32.5317C121.161 30.3515 124.016 29.6771 125.866 31.1515L126.462 31.6377ZM126.384 35.2294C126.384 33.363 126.164 32.767 125.208 32.1396C124.439 31.6063 123.059 31.6377 122.4 32.1709C121.679 32.7826 121.365 33.8021 121.381 35.4647C121.396 37.6448 122.039 38.633 123.545 38.7898C124.533 38.9153 125.506 38.4134 126.008 37.5351C126.337 36.9547 126.384 36.6881 126.384 35.2294ZM104.63 30.5711C103.595 30.8691 103.109 31.2456 102.764 31.9827C102.278 33.065 102.34 33.1905 103.313 33.1905C104.16 33.1905 104.176 33.1748 104.348 32.6258C104.662 31.7004 105.979 31.3397 107.093 31.873C107.658 32.1396 107.956 32.7199 107.956 33.5826V34.0845L106.324 34.1629C105.038 34.2413 104.505 34.3354 103.831 34.6491C101.117 35.8882 101.352 39.4643 104.176 40.076C104.63 40.1701 105.117 40.2485 105.258 40.2485C105.885 40.2485 106.764 39.8721 107.328 39.3702L107.924 38.8369L108.018 39.3858C108.128 39.9348 108.144 39.9348 108.912 39.9348H109.697L109.649 36.0294C109.602 32.3749 109.587 32.0925 109.273 31.6691C108.536 30.6496 106.262 30.1163 104.63 30.5711ZM107.956 35.8098C107.924 37.3782 107.297 38.3977 106.167 38.6957C104.928 39.0251 103.721 38.2879 103.721 37.19C103.721 36.0764 104.881 35.4177 106.905 35.402C107.584 35.3918 107.824 35.3883 107.909 35.5013C107.956 35.5632 107.956 35.66 107.956 35.8098ZM115.06 31.5279C115.406 31.1515 115.829 30.9005 116.347 30.7437C116.786 30.6339 117.303 30.5555 117.523 30.5712C117.884 30.6025 117.915 30.681 117.962 31.4181L118.009 32.2494H117.209C116.205 32.2494 115.437 32.5631 115.06 33.1278C114.825 33.5042 114.762 34.0218 114.7 36.7195L114.621 39.8564L113.727 39.9035L112.818 39.9505V35.3079V30.681H113.68H114.543V31.3868V32.0926L115.06 31.5279ZM132.58 30.9476C131.498 31.4966 130.949 32.4063 131.059 33.4885C131.2 34.806 131.874 35.3236 134.227 35.951C136.219 36.4686 136.501 36.6411 136.501 37.3626C136.501 38.4134 135.325 39.0408 134.007 38.6801C133.348 38.5075 132.737 37.8958 132.737 37.4096C132.737 37.1587 132.611 37.1116 131.796 37.1116C130.745 37.1116 130.713 37.1587 131.011 38.2409C131.215 38.9624 132.062 39.7153 132.925 39.9348C133.882 40.2015 136.14 40.076 136.862 39.7153C138.509 38.9153 138.948 36.4058 137.63 35.3706C137.27 35.0883 136.611 34.8687 134.274 34.2257C133.192 33.912 132.894 33.6453 132.894 32.9395C132.894 32.5004 132.988 32.3435 133.411 32.0926C133.992 31.7318 135.121 31.6848 135.717 31.9828C135.936 32.0926 136.187 32.4219 136.281 32.72C136.454 33.2532 136.485 33.2689 137.301 33.2689H138.148L138.132 32.6729C138.085 31.3397 136.987 30.6339 134.854 30.5555C133.568 30.5084 133.364 30.5398 132.58 30.9476ZM86.4208 32.9652C86.0204 31.7657 85.7438 30.9373 85.7146 30.8692C85.6675 30.7123 85.8714 30.681 86.64 30.7123L87.6438 30.7594L88.6633 34.1629C89.2279 36.0451 89.7298 37.6135 89.7769 37.6606C89.8239 37.7076 90.3572 36.1705 90.9689 34.2414L92.0825 30.7594L93.2432 30.7123L94.4038 30.6653L95.4076 34.21C95.9566 36.1549 96.4585 37.6606 96.5212 37.5508C96.5787 37.4502 97.0045 36.1261 97.5216 34.5182C97.5691 34.3706 97.6174 34.2205 97.6662 34.0688C98.2308 32.2651 98.7327 30.7594 98.7641 30.728C98.7955 30.6966 99.2033 30.681 99.6738 30.7123L100.536 30.7594L98.9366 35.3079L97.3211 39.8564L96.3173 39.9035L95.3135 39.9505L94.3254 36.4529C93.7764 34.5237 93.2902 32.8611 93.2275 32.7513C93.1647 32.6415 92.6001 34.21 91.957 36.249L90.7964 39.9348H89.7612H88.7417L87.2673 35.4961C86.9576 34.5729 86.666 33.6995 86.4208 32.9652Z" fill="#007BFF"/>
</svg>
